%TF.GenerationSoftware,KiCad,Pcbnew,10.0.4-10.0.4~ubuntu24.04.1*%
%TF.CreationDate,2026-06-28T13:49:54+03:00*%
%TF.ProjectId,xray-v3,78726179-2d76-4332-9e6b-696361645f70,rev?*%
%TF.SameCoordinates,Original*%
%TF.FileFunction,Copper,L2,Inr*%
%TF.FilePolarity,Positive*%
%FSLAX46Y46*%
G04 Gerber Fmt 4.6, Leading zero omitted, Abs format (unit mm)*
G04 Created by KiCad (PCBNEW 10.0.4-10.0.4~ubuntu24.04.1) date 2026-06-28 13:49:54*
%MOMM*%
%LPD*%
G01*
G04 APERTURE LIST*
G04 Aperture macros list*
%AMRoundRect*
0 Rectangle with rounded corners*
0 $1 Rounding radius*
0 $2 $3 $4 $5 $6 $7 $8 $9 X,Y pos of 4 corners*
0 Add a 4 corners polygon primitive as box body*
4,1,4,$2,$3,$4,$5,$6,$7,$8,$9,$2,$3,0*
0 Add four circle primitives for the rounded corners*
1,1,$1+$1,$2,$3*
1,1,$1+$1,$4,$5*
1,1,$1+$1,$6,$7*
1,1,$1+$1,$8,$9*
0 Add four rect primitives between the rounded corners*
20,1,$1+$1,$2,$3,$4,$5,0*
20,1,$1+$1,$4,$5,$6,$7,0*
20,1,$1+$1,$6,$7,$8,$9,0*
20,1,$1+$1,$8,$9,$2,$3,0*%
G04 Aperture macros list end*
%TA.AperFunction,ComponentPad*%
%ADD10RoundRect,0.250000X-0.750000X0.600000X-0.750000X-0.600000X0.750000X-0.600000X0.750000X0.600000X0*%
%TD*%
%TA.AperFunction,ComponentPad*%
%ADD11O,2.000000X1.700000*%
%TD*%
%TA.AperFunction,ComponentPad*%
%ADD12RoundRect,0.250000X-0.675000X-0.675000X0.675000X-0.675000X0.675000X0.675000X-0.675000X0.675000X0*%
%TD*%
%TA.AperFunction,ComponentPad*%
%ADD13C,1.850000*%
%TD*%
%TA.AperFunction,ComponentPad*%
%ADD14C,2.000000*%
%TD*%
%TA.AperFunction,ComponentPad*%
%ADD15C,1.440000*%
%TD*%
%TA.AperFunction,ComponentPad*%
%ADD16C,1.600000*%
%TD*%
%TA.AperFunction,ComponentPad*%
%ADD17R,1.800000X1.800000*%
%TD*%
%TA.AperFunction,ComponentPad*%
%ADD18C,1.800000*%
%TD*%
%TA.AperFunction,ComponentPad*%
%ADD19RoundRect,0.250000X0.725000X-0.600000X0.725000X0.600000X-0.725000X0.600000X-0.725000X-0.600000X0*%
%TD*%
%TA.AperFunction,ComponentPad*%
%ADD20O,1.950000X1.700000*%
%TD*%
%TA.AperFunction,ComponentPad*%
%ADD21RoundRect,0.250000X0.600000X0.725000X-0.600000X0.725000X-0.600000X-0.725000X0.600000X-0.725000X0*%
%TD*%
%TA.AperFunction,ComponentPad*%
%ADD22O,1.700000X1.950000*%
%TD*%
%TA.AperFunction,ComponentPad*%
%ADD23C,1.500000*%
%TD*%
%TA.AperFunction,ComponentPad*%
%ADD24O,1.500000X3.000000*%
%TD*%
%TA.AperFunction,ComponentPad*%
%ADD25R,3.000000X3.000000*%
%TD*%
%TA.AperFunction,ComponentPad*%
%ADD26R,1.524000X1.524000*%
%TD*%
%TA.AperFunction,ComponentPad*%
%ADD27C,1.524000*%
%TD*%
%TA.AperFunction,ComponentPad*%
%ADD28C,3.500000*%
%TD*%
%TA.AperFunction,ComponentPad*%
%ADD29RoundRect,0.250002X-1.499998X-1.499998X1.499998X-1.499998X1.499998X1.499998X-1.499998X1.499998X0*%
%TD*%
%TA.AperFunction,ComponentPad*%
%ADD30O,1.200000X2.000000*%
%TD*%
%TA.AperFunction,ComponentPad*%
%ADD31O,1.000000X2.400000*%
%TD*%
%TA.AperFunction,ComponentPad*%
%ADD32C,1.700000*%
%TD*%
%TA.AperFunction,ComponentPad*%
%ADD33C,2.200000*%
%TD*%
%TA.AperFunction,ComponentPad*%
%ADD34RoundRect,0.250001X-1.149999X1.149999X-1.149999X-1.149999X1.149999X-1.149999X1.149999X1.149999X0*%
%TD*%
%TA.AperFunction,ComponentPad*%
%ADD35C,2.800000*%
%TD*%
%TA.AperFunction,ComponentPad*%
%ADD36RoundRect,0.250001X1.149999X-1.149999X1.149999X1.149999X-1.149999X1.149999X-1.149999X-1.149999X0*%
%TD*%
%TA.AperFunction,ComponentPad*%
%ADD37RoundRect,0.650000X-0.650000X-0.650000X0.650000X-0.650000X0.650000X0.650000X-0.650000X0.650000X0*%
%TD*%
%TA.AperFunction,ComponentPad*%
%ADD38C,2.600000*%
%TD*%
%TA.AperFunction,ViaPad*%
%ADD39C,0.800000*%
%TD*%
%TA.AperFunction,ViaPad*%
%ADD40C,0.600000*%
%TD*%
%TA.AperFunction,Conductor*%
%ADD41C,0.500000*%
%TD*%
%TA.AperFunction,Conductor*%
%ADD42C,0.180000*%
%TD*%
%TA.AperFunction,Conductor*%
%ADD43C,0.200000*%
%TD*%
G04 APERTURE END LIST*
D10*
%TO.N,/DP_DC*%
%TO.C,J11*%
X119400000Y-35900000D03*
D11*
%TO.N,GND*%
X119400000Y-38400000D03*
%TD*%
D12*
%TO.N,Net-(U12-TS)*%
%TO.C,TH1*%
X154100000Y-129000000D03*
D13*
%TO.N,GND*%
X158300000Y-129000000D03*
%TD*%
D14*
%TO.N,/HV_PWM*%
%TO.C,TP9*%
X171500000Y-75500000D03*
%TD*%
D15*
%TO.N,Net-(D3-K)*%
%TO.C,RV1*%
X164495000Y-69500000D03*
X164495000Y-72040000D03*
%TO.N,Net-(R3-Pad2)*%
X164495000Y-74580000D03*
%TD*%
D14*
%TO.N,/BATSTATE_INT*%
%TO.C,TP2*%
X123800000Y-51300000D03*
%TD*%
D16*
%TO.N,Net-(D4-A)*%
%TO.C,C16*%
X163000000Y-57000000D03*
X161750000Y-57000000D03*
%TO.N,Net-(D5-K)*%
X154250000Y-57000000D03*
X153000000Y-57000000D03*
%TD*%
D17*
%TO.N,Net-(D12-K)*%
%TO.C,D12*%
X141270000Y-112000000D03*
D18*
%TO.N,Net-(D12-A)*%
X138730000Y-112000000D03*
%TD*%
D14*
%TO.N,/SBM20_SGN_MK*%
%TO.C,TP14*%
X155250000Y-81000000D03*
%TD*%
D16*
%TO.N,GNDPWR*%
%TO.C,C15*%
X176400000Y-50000000D03*
X176400000Y-48750000D03*
%TO.N,Net-(D4-K)*%
X176400000Y-41250000D03*
X176400000Y-40000000D03*
%TD*%
%TO.N,Net-(D4-K)*%
%TO.C,C17*%
X175000000Y-34000000D03*
X173750000Y-34000000D03*
%TO.N,/HV*%
X166250000Y-34000000D03*
X165000000Y-34000000D03*
%TD*%
D19*
%TO.N,GND*%
%TO.C,J10*%
X125600000Y-40950000D03*
D20*
%TO.N,/DP_SCK*%
X125600000Y-38450000D03*
%TO.N,GND*%
X125600000Y-35950000D03*
%TO.N,/DP_MOSI*%
X125600000Y-33450000D03*
%TD*%
D14*
%TO.N,/HV_FB*%
%TO.C,TP10*%
X162000000Y-92500000D03*
%TD*%
D16*
%TO.N,Net-(J7-Pin_1)*%
%TO.C,C33*%
X154150000Y-73875000D03*
%TO.N,Net-(Q3-B)*%
X151650000Y-73875000D03*
%TD*%
D21*
%TO.N,/DP_LED*%
%TO.C,J9*%
X108600000Y-34400000D03*
D22*
%TO.N,/DP_VCC*%
X106100000Y-34400000D03*
%TO.N,GND*%
X103600000Y-34400000D03*
%TD*%
D23*
%TO.N,/UART_EN*%
%TO.C,SW1*%
X153425000Y-138425000D03*
%TO.N,/UPDI1_EN*%
X159425000Y-138425000D03*
%TO.N,VCCQ*%
X157425000Y-138425000D03*
%TO.N,/UPDI2_EN*%
X161425000Y-138425000D03*
D24*
%TO.N,GND*%
X151325000Y-138425000D03*
X163525000Y-138425000D03*
%TD*%
D16*
%TO.N,Net-(J5-Pin_1)*%
%TO.C,C27*%
X160050000Y-73875000D03*
%TO.N,Net-(Q2-B)*%
X157550000Y-73875000D03*
%TD*%
D25*
%TO.N,GND*%
%TO.C,TP17*%
X169500000Y-99500000D03*
%TD*%
D26*
%TO.N,/USBA_VBUS*%
%TO.C,J8*%
X107250000Y-129522500D03*
D27*
%TO.N,/USBA_D-*%
X109750000Y-129522500D03*
%TO.N,/USBA_D+*%
X111750000Y-129522500D03*
%TO.N,GNDD*%
X114250000Y-129522500D03*
D28*
X103500000Y-132232500D03*
X118000000Y-132232500D03*
%TD*%
D14*
%TO.N,/SBT9_SGM_MK*%
%TO.C,TP15*%
X152000000Y-86750000D03*
%TD*%
D29*
%TO.N,Net-(BT1-+)*%
%TO.C,BT1*%
X165800000Y-110600000D03*
D28*
%TO.N,GNDPWR*%
X172800000Y-110600000D03*
%TD*%
D14*
%TO.N,/BATSTATE_WAKEUP*%
%TO.C,TP1*%
X127800000Y-49500000D03*
%TD*%
D30*
%TO.N,GND*%
%TO.C,J2*%
X166500000Y-134975000D03*
D31*
X166500000Y-138900000D03*
D30*
X177700000Y-134975000D03*
D31*
X177700000Y-138900000D03*
%TD*%
D32*
%TO.N,Net-(D8-Pad2)*%
%TO.C,SW2*%
X128575000Y-138075000D03*
%TO.N,/USB_VIN_IN*%
X124075000Y-138075000D03*
D33*
%TO.N,GNDD*%
X129825000Y-135575000D03*
X122825000Y-135575000D03*
%TD*%
D32*
%TO.N,GND*%
%TO.C,SW3*%
X143250000Y-108250000D03*
X136750000Y-108250000D03*
%TO.N,/WAKEUP_BUTTON*%
X143250000Y-103750000D03*
X136750000Y-103750000D03*
%TD*%
D34*
%TO.N,/HV*%
%TO.C,D6*%
X161800000Y-39920000D03*
D35*
%TO.N,Net-(D5-K)*%
X161800000Y-50080000D03*
%TD*%
D36*
%TO.N,Net-(D5-K)*%
%TO.C,D5*%
X166000000Y-50080000D03*
D35*
%TO.N,Net-(D4-K)*%
X166000000Y-39920000D03*
%TD*%
D37*
%TO.N,/HV*%
%TO.C,TP3*%
X152060000Y-32000000D03*
D38*
%TO.N,Net-(R14-Pad2)*%
X157140000Y-32000000D03*
%TD*%
D34*
%TO.N,Net-(D4-K)*%
%TO.C,D4*%
X170400000Y-39920000D03*
D35*
%TO.N,Net-(D4-A)*%
X170400000Y-50080000D03*
%TD*%
D39*
%TO.N,/DISPLAY_2.8V*%
X119200000Y-49425000D03*
X111200000Y-41625000D03*
%TO.N,/DISPLAY_VCC*%
X112800000Y-45175000D03*
X102530000Y-45600000D03*
X117417648Y-49425000D03*
%TO.N,GND*%
X158800000Y-89400000D03*
X109500000Y-88000000D03*
X151150000Y-128550000D03*
X165700000Y-91200000D03*
X122862500Y-86550000D03*
X153177500Y-124100000D03*
X121400000Y-74000000D03*
X114600000Y-74800000D03*
X118500000Y-74000000D03*
X111000000Y-105000000D03*
X121000000Y-76500000D03*
D40*
X163137500Y-131500000D03*
X155600000Y-109700000D03*
D39*
X114500000Y-51500000D03*
X114000000Y-88000000D03*
X166850000Y-92350000D03*
X124200000Y-74445000D03*
D40*
X157600000Y-125700000D03*
D39*
X105400000Y-46200000D03*
X153550000Y-92200000D03*
X116975000Y-88800000D03*
X123900000Y-83100000D03*
X156500000Y-132700000D03*
X115200000Y-44175000D03*
D40*
X155600000Y-108000000D03*
D39*
X109500000Y-70000000D03*
D40*
X151200000Y-121500000D03*
D39*
X166000000Y-131000000D03*
X105000000Y-44000000D03*
X114500000Y-82500000D03*
D40*
X155100000Y-108875000D03*
D39*
X117000000Y-45600000D03*
X115900000Y-79400000D03*
X108500000Y-84000000D03*
X170400000Y-92600000D03*
D40*
X154500000Y-109700000D03*
X154500000Y-108000000D03*
%TO.N,/UPDI2_EN*%
X114100000Y-69600000D03*
D39*
X116550000Y-74450000D03*
D40*
%TO.N,/RESET_UI*%
X112500000Y-68000000D03*
D39*
X110800000Y-48600000D03*
%TO.N,/USB1_RX_VCC*%
X117031955Y-82468045D03*
D40*
X162118750Y-124018750D03*
D39*
%TO.N,VCOM*%
X157750000Y-90950000D03*
X157750000Y-99250000D03*
X157750000Y-96750000D03*
X148000000Y-103827500D03*
X168250000Y-92150000D03*
D40*
%TO.N,/I2C_SCL*%
X155700000Y-105500000D03*
D39*
X123000000Y-60500000D03*
X155402782Y-95597218D03*
%TO.N,/USB_+5V*%
X102050000Y-119850000D03*
%TO.N,GNDD*%
X135400000Y-120800000D03*
X122200000Y-131100000D03*
X132800000Y-127200000D03*
X104600000Y-115400000D03*
X133000000Y-129200000D03*
X129200000Y-120800000D03*
%TO.N,/SBM20_SGN_MK*%
X158000000Y-81900000D03*
D40*
X155350000Y-89750000D03*
X155900000Y-82900000D03*
D39*
%TO.N,/UART_EN*%
X114000000Y-60500000D03*
X142600000Y-98290000D03*
X107000000Y-72000000D03*
X107000000Y-83000000D03*
%TO.N,/TFT_ENABLE#*%
X116000000Y-49000000D03*
X111000000Y-46000000D03*
%TO.N,Net-(C10-Pad2)*%
X169400000Y-63900000D03*
X173292500Y-68750000D03*
%TO.N,Net-(Q1-D)*%
X172500000Y-58500000D03*
%TO.N,GNDPWR*%
X163500000Y-62500000D03*
%TO.N,/USB1_VBUS*%
X150875000Y-124225000D03*
X174500000Y-133000000D03*
D40*
X169805000Y-128995000D03*
D39*
X169150000Y-132750000D03*
%TO.N,VCC*%
X160000000Y-106500000D03*
X152400000Y-112300000D03*
%TO.N,/HV_PWM*%
X154350000Y-87450000D03*
X168550000Y-71600000D03*
%TO.N,/UPDI1_EN*%
X124500000Y-86000000D03*
X135200000Y-100200000D03*
%TO.N,VCCQ*%
X115400000Y-88800000D03*
D40*
X163150000Y-120950000D03*
D39*
X156000000Y-123225000D03*
D40*
X163535944Y-123435944D03*
D39*
%TO.N,Net-(U14-FB)*%
X101700000Y-118140000D03*
%TO.N,/BATSTATE_INT*%
X115762096Y-56262096D03*
X157600000Y-110600000D03*
%TO.N,/VBAT*%
X152300000Y-106400000D03*
X155800000Y-113575000D03*
%TO.N,Net-(J5-Pin_1)*%
X152000000Y-63500000D03*
%TO.N,/WAKEUP_BUTTON*%
X113000000Y-54500000D03*
X102000000Y-62700000D03*
X104000000Y-92000000D03*
D40*
%TO.N,Net-(D11-K)*%
X117950000Y-101850000D03*
X119400000Y-106600000D03*
D39*
%TO.N,Net-(U13-ON)*%
X131800000Y-120050000D03*
%TO.N,/BATSTATE_WAKEUP*%
X155700000Y-112300000D03*
X115500000Y-58000000D03*
D40*
%TO.N,Net-(U2-~{RST})*%
X169650000Y-127850000D03*
%TO.N,/CP2102_VREG*%
X171155122Y-130455122D03*
X167900000Y-120900000D03*
X167900000Y-122900000D03*
%TO.N,/HV_FB*%
X150926483Y-91966483D03*
X161250000Y-88050000D03*
D39*
%TO.N,/SCK*%
X112350000Y-49650000D03*
D40*
%TO.N,/ATTINY_ALARM*%
X112600000Y-53200000D03*
X121300000Y-52500000D03*
%TO.N,/ATTINY_WAKEUP#*%
X114800000Y-54300000D03*
X125500000Y-55500000D03*
D39*
%TO.N,/ATTINY_RX*%
X112500000Y-88312500D03*
D40*
X117200000Y-54000000D03*
D39*
X151800000Y-97200000D03*
D40*
%TO.N,/ATTINY_UI_TX*%
X118100000Y-53200000D03*
X104500000Y-73500000D03*
D39*
%TO.N,/I2C_SDA*%
X154800000Y-96800000D03*
D40*
X156500000Y-105600000D03*
D39*
X121500000Y-61000000D03*
%TO.N,/MOSI*%
X112400000Y-48400000D03*
%TO.N,/RESET_UV*%
X156200000Y-92600000D03*
X125800000Y-81800000D03*
%TO.N,/ATTINY_UV_TX*%
X153000000Y-97800000D03*
X108400000Y-75600000D03*
D40*
%TO.N,/SBT9_SGM_MK*%
X155087500Y-86000000D03*
D39*
X152500000Y-82500000D03*
D40*
X154500000Y-89100000D03*
D39*
%TO.N,Net-(U21-B1)*%
X123400000Y-46400000D03*
%TO.N,/USB1_TX_VCC*%
X112500000Y-86000000D03*
D40*
X164006250Y-125806250D03*
D39*
X118006251Y-79493749D03*
D40*
%TO.N,/USB1_D-*%
X172000000Y-130500000D03*
%TO.N,/USB1_D+*%
X172900000Y-130900000D03*
X171850000Y-132350000D03*
D39*
%TO.N,Net-(U21-B2)*%
X121200000Y-44800000D03*
%TO.N,Net-(U14-COMP)*%
X100950000Y-117550000D03*
%TO.N,Net-(U14-ILIM)*%
X102300000Y-116960000D03*
D40*
%TO.N,/USB_VIN_IN*%
X133400000Y-116400000D03*
X132700000Y-116400000D03*
X133400000Y-117100000D03*
X132700000Y-117100000D03*
%TO.N,/USB1_RX_3.3*%
X168600000Y-122200000D03*
X176800000Y-126700000D03*
%TO.N,/USB1_TX_3.3*%
X176700000Y-127700000D03*
X166400000Y-126300000D03*
%TD*%
%TO.N,/DISPLAY_2.8V*%
D41*
X119200000Y-49425000D02*
X119200000Y-46625000D01*
X114200000Y-41625000D02*
X111200000Y-41625000D01*
X119200000Y-46625000D02*
X114200000Y-41625000D01*
%TO.N,/DISPLAY_VCC*%
X102530000Y-45600000D02*
X102530000Y-45730000D01*
X112800000Y-45175000D02*
X102955000Y-45175000D01*
X102530000Y-45730000D02*
X103800000Y-47000000D01*
X117417648Y-48975000D02*
X117417648Y-49425000D01*
X102955000Y-45175000D02*
X102530000Y-45600000D01*
X115442648Y-47000000D02*
X117417648Y-48975000D01*
X103800000Y-47000000D02*
X115442648Y-47000000D01*
%TO.N,/UPDI2_EN*%
D42*
X144000000Y-97600000D02*
X127300000Y-97600000D01*
X160377402Y-127500000D02*
X152100000Y-127500000D01*
X161500000Y-138500000D02*
X161500000Y-128622598D01*
X161500000Y-128622598D02*
X160377402Y-127500000D01*
X127300000Y-97600000D02*
X120300000Y-90600000D01*
X152100000Y-127500000D02*
X147200000Y-122600000D01*
X120300000Y-78200000D02*
X116550000Y-74450000D01*
X120300000Y-90600000D02*
X120300000Y-78200000D01*
X114100000Y-72000000D02*
X116550000Y-74450000D01*
X147200000Y-122600000D02*
X147200000Y-100800000D01*
X114100000Y-69600000D02*
X114100000Y-72000000D01*
X147200000Y-100800000D02*
X144000000Y-97600000D01*
%TO.N,VCOM*%
D41*
X168250000Y-93500000D02*
X165000000Y-96750000D01*
X165000000Y-96750000D02*
X157750000Y-96750000D01*
X157750000Y-90950000D02*
X157750000Y-99250000D01*
X168250000Y-92150000D02*
X168250000Y-93500000D01*
%TO.N,/I2C_SCL*%
D42*
X129500000Y-93600000D02*
X153405564Y-93600000D01*
X153405564Y-93600000D02*
X155402782Y-95597218D01*
X129100000Y-66600000D02*
X129100000Y-93200000D01*
X123000000Y-60500000D02*
X129100000Y-66600000D01*
X129100000Y-93200000D02*
X129500000Y-93600000D01*
%TO.N,/SBM20_SGN_MK*%
X155900000Y-82900000D02*
X155900000Y-89200000D01*
X155900000Y-89200000D02*
X155350000Y-89750000D01*
%TO.N,/UART_EN*%
D43*
X146500000Y-130439340D02*
X153500000Y-137439340D01*
X143290000Y-98290000D02*
X146500000Y-101500000D01*
X107000000Y-87000000D02*
X107000000Y-83000000D01*
X118200000Y-98200000D02*
X107000000Y-87000000D01*
X146500000Y-101500000D02*
X146500000Y-130439340D01*
X153500000Y-137439340D02*
X153500000Y-138500000D01*
X142600000Y-98290000D02*
X143290000Y-98290000D01*
X142600000Y-98290000D02*
X142510000Y-98200000D01*
X142510000Y-98200000D02*
X118200000Y-98200000D01*
%TO.N,/HV*%
D41*
X161800000Y-37200000D02*
X154400000Y-37200000D01*
X165000000Y-34000000D02*
X161800000Y-37200000D01*
X152060000Y-34860000D02*
X152060000Y-32000000D01*
X154400000Y-37200000D02*
X152060000Y-34860000D01*
%TO.N,/USB1_VBUS*%
D42*
X153400000Y-126750000D02*
X163150000Y-126750000D01*
X163150000Y-126750000D02*
X169150000Y-132750000D01*
X150875000Y-124225000D02*
X153400000Y-126750000D01*
%TO.N,/UPDI1_EN*%
X145000000Y-135900000D02*
X149600000Y-140500000D01*
X149600000Y-140500000D02*
X158100000Y-140500000D01*
X142800000Y-100200000D02*
X145000000Y-102400000D01*
X135200000Y-100200000D02*
X142800000Y-100200000D01*
X158100000Y-140500000D02*
X159500000Y-139100000D01*
X145000000Y-102400000D02*
X145000000Y-135900000D01*
%TO.N,/BATSTATE_INT*%
X115762096Y-56262096D02*
X116500000Y-57000000D01*
X123800000Y-57665613D02*
X123800000Y-51300000D01*
X157600000Y-109000000D02*
X157600000Y-110600000D01*
X145100000Y-96500000D02*
X157600000Y-109000000D01*
X123465613Y-58000000D02*
X123800000Y-57665613D01*
X116500000Y-71024192D02*
X122000000Y-76524192D01*
X116500000Y-58000000D02*
X116500000Y-71024192D01*
X127900000Y-96500000D02*
X145100000Y-96500000D01*
X116500000Y-58000000D02*
X123465613Y-58000000D01*
X116500000Y-57000000D02*
X116500000Y-58000000D01*
X122000000Y-76524192D02*
X122000000Y-90600000D01*
X122000000Y-90600000D02*
X127900000Y-96500000D01*
%TO.N,/VBAT*%
X152300000Y-106400000D02*
X152300000Y-110075000D01*
X152300000Y-110075000D02*
X155800000Y-113575000D01*
%TO.N,/WAKEUP_BUTTON*%
X102000000Y-65500000D02*
X102000000Y-62700000D01*
D43*
X104000000Y-92000000D02*
X102000000Y-90000000D01*
X102000000Y-65500000D02*
X113000000Y-54500000D01*
X102000000Y-90000000D02*
X102000000Y-65500000D01*
%TO.N,/BATSTATE_WAKEUP*%
D42*
X153600000Y-106000000D02*
X153600000Y-110200000D01*
X121000000Y-77924192D02*
X121000000Y-90400000D01*
X121000000Y-90400000D02*
X127600000Y-97000000D01*
X153600000Y-110200000D02*
X155700000Y-112300000D01*
X115500000Y-58000000D02*
X115500000Y-72424192D01*
X115500000Y-72424192D02*
X121000000Y-77924192D01*
X127600000Y-97000000D02*
X144600000Y-97000000D01*
X144600000Y-97000000D02*
X153600000Y-106000000D01*
%TO.N,/CP2102_VREG*%
X167900000Y-124400000D02*
X171155122Y-127655122D01*
X171155122Y-127655122D02*
X171155122Y-130455122D01*
X167900000Y-122900000D02*
X167900000Y-120900000D01*
X167900000Y-122900000D02*
X167900000Y-124400000D01*
%TO.N,/ATTINY_ALARM*%
X121300000Y-52500000D02*
X113300000Y-52500000D01*
X113300000Y-52500000D02*
X112600000Y-53200000D01*
%TO.N,/ATTINY_RX*%
X111475808Y-59324192D02*
X111475808Y-87475808D01*
X112312500Y-88312500D02*
X112500000Y-88312500D01*
X116800000Y-54000000D02*
X111475808Y-59324192D01*
X111475808Y-87475808D02*
X112312500Y-88312500D01*
X117200000Y-54000000D02*
X116800000Y-54000000D01*
%TO.N,/ATTINY_UI_TX*%
X116900000Y-53200000D02*
X104500000Y-65600000D01*
X118100000Y-53200000D02*
X116900000Y-53200000D01*
X104500000Y-65600000D02*
X104500000Y-73500000D01*
%TO.N,/I2C_SDA*%
X154800000Y-96800000D02*
X156500000Y-98500000D01*
X152500000Y-94500000D02*
X129300000Y-94500000D01*
X156500000Y-98500000D02*
X156500000Y-105600000D01*
X128120000Y-93320000D02*
X128120000Y-67620000D01*
X128120000Y-67620000D02*
X121500000Y-61000000D01*
X154800000Y-96800000D02*
X152500000Y-94500000D01*
X129300000Y-94500000D02*
X128120000Y-93320000D01*
%TO.N,/SBT9_SGM_MK*%
X155087500Y-88512500D02*
X155087500Y-86000000D01*
X154500000Y-89100000D02*
X155087500Y-88512500D01*
%TO.N,/USB1_TX_VCC*%
X112500000Y-85800000D02*
X118006251Y-80293749D01*
X112500000Y-86000000D02*
X112500000Y-85800000D01*
X118006251Y-80293749D02*
X118006251Y-79493749D01*
%TD*%
%TA.AperFunction,Conductor*%
%TO.N,/UPDI2_EN*%
G36*
X116917576Y-74301415D02*
G01*
X116923843Y-74307811D01*
X117121308Y-74808622D01*
X117174090Y-74942486D01*
X117173937Y-74951440D01*
X117171479Y-74955051D01*
X117055051Y-75071479D01*
X117046778Y-75074906D01*
X117042487Y-75074090D01*
X116407886Y-74823873D01*
X116401447Y-74817651D01*
X116401294Y-74808697D01*
X116545012Y-74451496D01*
X116551278Y-74445102D01*
X116551396Y-74445053D01*
X116908623Y-74301324D01*
X116917576Y-74301415D01*
G37*
%TD.AperFunction*%
%TD*%
%TA.AperFunction,Conductor*%
%TO.N,/UPDI2_EN*%
G36*
X116057508Y-73825908D02*
G01*
X116692114Y-74076126D01*
X116698552Y-74082348D01*
X116698705Y-74091302D01*
X116698675Y-74091377D01*
X116554988Y-74448501D01*
X116548721Y-74454897D01*
X116548501Y-74454988D01*
X116191377Y-74598675D01*
X116182423Y-74598584D01*
X116176156Y-74592188D01*
X115925909Y-73957510D01*
X115926062Y-73948559D01*
X115928517Y-73944951D01*
X116044949Y-73828519D01*
X116053221Y-73825093D01*
X116057508Y-73825908D01*
G37*
%TD.AperFunction*%
%TD*%
%TA.AperFunction,Conductor*%
%TO.N,/UPDI2_EN*%
G36*
X114104557Y-69598379D02*
G01*
X114366761Y-69710362D01*
X114373023Y-69716762D01*
X114373073Y-69725351D01*
X114192897Y-70189963D01*
X114186711Y-70196438D01*
X114181989Y-70197433D01*
X114018011Y-70197433D01*
X114009738Y-70194006D01*
X114007103Y-70189963D01*
X113826926Y-69725351D01*
X113827129Y-69716399D01*
X113833237Y-69710362D01*
X114095406Y-69598394D01*
X114104359Y-69598297D01*
X114104557Y-69598379D01*
G37*
%TD.AperFunction*%
%TD*%
%TA.AperFunction,Conductor*%
%TO.N,VCOM*%
G36*
X157814291Y-96355800D02*
G01*
X158537139Y-96498141D01*
X158544594Y-96503102D01*
X158546578Y-96509621D01*
X158546578Y-96990378D01*
X158543151Y-96998651D01*
X158537139Y-97001858D01*
X157814309Y-97144195D01*
X157805529Y-97142431D01*
X157800568Y-97134976D01*
X157800474Y-97134426D01*
X157745813Y-96751645D01*
X157745813Y-96748354D01*
X157800467Y-96365626D01*
X157805027Y-96357924D01*
X157813702Y-96355701D01*
X157814291Y-96355800D01*
G37*
%TD.AperFunction*%
%TD*%
%TA.AperFunction,Conductor*%
%TO.N,VCOM*%
G36*
X158134372Y-91000467D02*
G01*
X158142075Y-91005027D01*
X158144298Y-91013702D01*
X158144195Y-91014308D01*
X158001859Y-91737138D01*
X157996898Y-91744594D01*
X157990379Y-91746578D01*
X157509621Y-91746578D01*
X157501348Y-91743151D01*
X157498141Y-91737139D01*
X157355804Y-91014309D01*
X157357568Y-91005529D01*
X157365023Y-91000568D01*
X157365567Y-91000475D01*
X157748354Y-90945813D01*
X157751646Y-90945813D01*
X158134372Y-91000467D01*
G37*
%TD.AperFunction*%
%TD*%
%TA.AperFunction,Conductor*%
%TO.N,VCOM*%
G36*
X157998652Y-98456849D02*
G01*
X158001859Y-98462862D01*
X158144195Y-99185691D01*
X158142431Y-99194470D01*
X158134975Y-99199431D01*
X158134388Y-99199530D01*
X157751653Y-99254186D01*
X157748347Y-99254186D01*
X157365628Y-99199533D01*
X157357924Y-99194972D01*
X157355701Y-99186297D01*
X157355804Y-99185691D01*
X157498141Y-98462860D01*
X157503102Y-98455406D01*
X157509621Y-98453422D01*
X157990379Y-98453422D01*
X157998652Y-98456849D01*
G37*
%TD.AperFunction*%
%TD*%
%TA.AperFunction,Conductor*%
%TO.N,VCOM*%
G36*
X157735805Y-96750005D02*
G01*
X157739232Y-96758278D01*
X157735805Y-96766551D01*
X157728535Y-96769935D01*
X157437076Y-96795012D01*
X157428540Y-96792307D01*
X157424416Y-96784358D01*
X157427121Y-96775822D01*
X157431919Y-96772417D01*
X157497995Y-96747339D01*
X157502147Y-96746578D01*
X157727532Y-96746578D01*
X157735805Y-96750005D01*
G37*
%TD.AperFunction*%
%TD*%
%TA.AperFunction,Conductor*%
%TO.N,VCOM*%
G36*
X158134372Y-96800467D02*
G01*
X158142075Y-96805027D01*
X158144298Y-96813702D01*
X158144195Y-96814308D01*
X158001859Y-97537138D01*
X157996898Y-97544594D01*
X157990379Y-97546578D01*
X157509621Y-97546578D01*
X157501348Y-97543151D01*
X157498141Y-97537139D01*
X157355804Y-96814309D01*
X157357568Y-96805529D01*
X157365023Y-96800568D01*
X157365567Y-96800475D01*
X157748354Y-96745813D01*
X157751646Y-96745813D01*
X158134372Y-96800467D01*
G37*
%TD.AperFunction*%
%TD*%
%TA.AperFunction,Conductor*%
%TO.N,VCOM*%
G36*
X157998652Y-95956849D02*
G01*
X158001859Y-95962862D01*
X158144195Y-96685691D01*
X158142431Y-96694470D01*
X158134975Y-96699431D01*
X158134388Y-96699530D01*
X157751653Y-96754186D01*
X157748347Y-96754186D01*
X157365628Y-96699533D01*
X157357924Y-96694972D01*
X157355701Y-96686297D01*
X157355804Y-96685691D01*
X157498141Y-95962860D01*
X157503102Y-95955406D01*
X157509621Y-95953422D01*
X157990379Y-95953422D01*
X157998652Y-95956849D01*
G37*
%TD.AperFunction*%
%TD*%
%TA.AperFunction,Conductor*%
%TO.N,VCOM*%
G36*
X168634372Y-92200467D02*
G01*
X168642075Y-92205027D01*
X168644298Y-92213702D01*
X168644195Y-92214308D01*
X168501859Y-92937138D01*
X168496898Y-92944594D01*
X168490379Y-92946578D01*
X168009621Y-92946578D01*
X168001348Y-92943151D01*
X167998141Y-92937139D01*
X167855804Y-92214309D01*
X167857568Y-92205529D01*
X167865023Y-92200568D01*
X167865567Y-92200475D01*
X168248354Y-92145813D01*
X168251646Y-92145813D01*
X168634372Y-92200467D01*
G37*
%TD.AperFunction*%
%TD*%
%TA.AperFunction,Conductor*%
%TO.N,/I2C_SCL*%
G36*
X155238154Y-95102399D02*
G01*
X155542730Y-95222490D01*
X155546569Y-95224961D01*
X155547849Y-95226198D01*
X155551416Y-95234409D01*
X155551446Y-95236149D01*
X155550602Y-95240718D01*
X155408638Y-95593559D01*
X155406142Y-95597379D01*
X155403215Y-95600367D01*
X155399224Y-95603034D01*
X155046317Y-95745024D01*
X155041832Y-95745869D01*
X155040052Y-95745851D01*
X155031814Y-95742341D01*
X155030594Y-95741096D01*
X155028069Y-95737202D01*
X154974841Y-95602206D01*
X154779543Y-95106890D01*
X154778730Y-95102403D01*
X154778783Y-95099329D01*
X154782207Y-95091260D01*
X154896087Y-94977380D01*
X154899876Y-94974848D01*
X154902719Y-94973670D01*
X154911484Y-94973597D01*
X155238154Y-95102399D01*
G37*
%TD.AperFunction*%
%TD*%
%TA.AperFunction,Conductor*%
%TO.N,/I2C_SCL*%
G36*
X123367576Y-60351415D02*
G01*
X123373843Y-60357811D01*
X123571308Y-60858622D01*
X123624090Y-60992486D01*
X123623937Y-61001440D01*
X123621479Y-61005051D01*
X123505051Y-61121479D01*
X123496778Y-61124906D01*
X123492487Y-61124090D01*
X122857886Y-60873873D01*
X122851447Y-60867651D01*
X122851294Y-60858697D01*
X122995012Y-60501496D01*
X123001278Y-60495102D01*
X123001396Y-60495053D01*
X123358623Y-60351324D01*
X123367576Y-60351415D01*
G37*
%TD.AperFunction*%
%TD*%
%TA.AperFunction,Conductor*%
%TO.N,/SBM20_SGN_MK*%
G36*
X155904557Y-82898379D02*
G01*
X156166761Y-83010362D01*
X156173023Y-83016762D01*
X156173073Y-83025351D01*
X155992897Y-83489963D01*
X155986711Y-83496438D01*
X155981989Y-83497433D01*
X155818011Y-83497433D01*
X155809738Y-83494006D01*
X155807103Y-83489963D01*
X155626926Y-83025351D01*
X155627129Y-83016399D01*
X155633237Y-83010362D01*
X155895406Y-82898394D01*
X155904359Y-82898297D01*
X155904557Y-82898379D01*
G37*
%TD.AperFunction*%
%TD*%
%TA.AperFunction,Conductor*%
%TO.N,/SBM20_SGN_MK*%
G36*
X155714474Y-89269577D02*
G01*
X155830422Y-89385525D01*
X155833849Y-89393798D01*
X155832854Y-89398520D01*
X155631729Y-89854454D01*
X155625254Y-89860640D01*
X155616665Y-89860590D01*
X155352115Y-89754383D01*
X155345714Y-89748120D01*
X155345616Y-89747884D01*
X155239409Y-89483332D01*
X155239507Y-89474380D01*
X155245544Y-89468270D01*
X155701480Y-89267144D01*
X155710431Y-89266942D01*
X155714474Y-89269577D01*
G37*
%TD.AperFunction*%
%TD*%
%TA.AperFunction,Conductor*%
%TO.N,/UART_EN*%
G36*
X107004516Y-82997502D02*
G01*
X107358855Y-83148514D01*
X107365122Y-83154910D01*
X107365060Y-83163796D01*
X107103006Y-83789400D01*
X107096651Y-83795705D01*
X107092217Y-83796578D01*
X106907783Y-83796578D01*
X106899510Y-83793151D01*
X106896992Y-83789398D01*
X106634940Y-83163797D01*
X106634904Y-83154843D01*
X106641142Y-83148515D01*
X106995415Y-82997531D01*
X107004367Y-82997441D01*
X107004516Y-82997502D01*
G37*
%TD.AperFunction*%
%TD*%
%TA.AperFunction,Conductor*%
%TO.N,/UART_EN*%
G36*
X142763540Y-97925728D02*
G01*
X142764200Y-97926034D01*
X142818148Y-97953117D01*
X143289981Y-98189991D01*
X143289998Y-98189999D01*
X143358560Y-98218398D01*
X143362355Y-98220933D01*
X143427799Y-98286378D01*
X143431226Y-98294650D01*
X143427799Y-98302923D01*
X143312087Y-98418635D01*
X143303814Y-98422062D01*
X143295541Y-98418635D01*
X143292174Y-98411540D01*
X143290000Y-98390000D01*
X143289999Y-98390000D01*
X143289999Y-98389999D01*
X142764202Y-98653964D01*
X142755271Y-98654614D01*
X142748497Y-98648757D01*
X142748190Y-98648095D01*
X142597531Y-98294584D01*
X142597441Y-98285633D01*
X142597502Y-98285483D01*
X142748191Y-97931902D01*
X142754586Y-97925637D01*
X142763540Y-97925728D01*
G37*
%TD.AperFunction*%
%TD*%
%TA.AperFunction,Conductor*%
%TO.N,/UART_EN*%
G36*
X142594852Y-97894921D02*
G01*
X142600297Y-97902030D01*
X142600680Y-97904500D01*
X142614286Y-98194420D01*
X142611251Y-98202844D01*
X142610374Y-98203711D01*
X142271671Y-98504898D01*
X142263211Y-98507835D01*
X142258970Y-98506767D01*
X141820322Y-98303144D01*
X141814261Y-98296553D01*
X141813548Y-98292532D01*
X141813548Y-98108985D01*
X141816975Y-98100712D01*
X141822227Y-98097682D01*
X142585977Y-97893744D01*
X142594852Y-97894921D01*
G37*
%TD.AperFunction*%
%TD*%
%TA.AperFunction,Conductor*%
%TO.N,/HV*%
G36*
X164304824Y-33628368D02*
G01*
X164305465Y-33628682D01*
X165000225Y-33994879D01*
X165005120Y-33999774D01*
X165371317Y-34694534D01*
X165372143Y-34703450D01*
X165366422Y-34710339D01*
X165365781Y-34710653D01*
X164055499Y-35302097D01*
X164046548Y-35302377D01*
X164042412Y-35299706D01*
X163700293Y-34957587D01*
X163696866Y-34949314D01*
X163697901Y-34944503D01*
X164289346Y-33634217D01*
X164295873Y-33628088D01*
X164304824Y-33628368D01*
G37*
%TD.AperFunction*%
%TD*%
%TA.AperFunction,Conductor*%
%TO.N,/USB1_VBUS*%
G36*
X168657508Y-132125908D02*
G01*
X169292114Y-132376126D01*
X169298552Y-132382348D01*
X169298705Y-132391302D01*
X169298675Y-132391377D01*
X169154988Y-132748501D01*
X169148721Y-132754897D01*
X169148501Y-132754988D01*
X168791377Y-132898675D01*
X168782423Y-132898584D01*
X168776156Y-132892188D01*
X168525909Y-132257510D01*
X168526062Y-132248559D01*
X168528517Y-132244951D01*
X168644949Y-132128519D01*
X168653221Y-132125093D01*
X168657508Y-132125908D01*
G37*
%TD.AperFunction*%
%TD*%
%TA.AperFunction,Conductor*%
%TO.N,/USB1_VBUS*%
G36*
X151242576Y-124076415D02*
G01*
X151248843Y-124082811D01*
X151446308Y-124583622D01*
X151499090Y-124717486D01*
X151498937Y-124726440D01*
X151496479Y-124730051D01*
X151380051Y-124846479D01*
X151371778Y-124849906D01*
X151367487Y-124849090D01*
X150732886Y-124598873D01*
X150726447Y-124592651D01*
X150726294Y-124583697D01*
X150870012Y-124226496D01*
X150876278Y-124220102D01*
X150876396Y-124220053D01*
X151233623Y-124076324D01*
X151242576Y-124076415D01*
G37*
%TD.AperFunction*%
%TD*%
%TA.AperFunction,Conductor*%
%TO.N,/UPDI1_EN*%
G36*
X135363803Y-99835110D02*
G01*
X135363878Y-99835142D01*
X135989540Y-100106942D01*
X135995762Y-100113381D01*
X135996578Y-100117673D01*
X135996578Y-100282326D01*
X135993151Y-100290599D01*
X135989540Y-100293057D01*
X135363878Y-100564857D01*
X135354924Y-100565010D01*
X135348486Y-100558789D01*
X135197531Y-100204584D01*
X135197441Y-100195633D01*
X135197502Y-100195483D01*
X135348454Y-99841284D01*
X135354849Y-99835019D01*
X135363803Y-99835110D01*
G37*
%TD.AperFunction*%
%TD*%
%TA.AperFunction,Conductor*%
%TO.N,/BATSTATE_INT*%
G36*
X116129672Y-56113511D02*
G01*
X116135939Y-56119907D01*
X116333404Y-56620718D01*
X116386186Y-56754582D01*
X116386033Y-56763536D01*
X116383575Y-56767147D01*
X116267147Y-56883575D01*
X116258874Y-56887002D01*
X116254583Y-56886186D01*
X115619982Y-56635969D01*
X115613543Y-56629747D01*
X115613390Y-56620793D01*
X115757108Y-56263592D01*
X115763374Y-56257198D01*
X115763492Y-56257149D01*
X116120719Y-56113420D01*
X116129672Y-56113511D01*
G37*
%TD.AperFunction*%
%TD*%
%TA.AperFunction,Conductor*%
%TO.N,/BATSTATE_INT*%
G36*
X123805561Y-51297194D02*
G01*
X124671801Y-51765921D01*
X124677446Y-51772872D01*
X124676615Y-51781606D01*
X123893277Y-53288880D01*
X123886421Y-53294641D01*
X123882895Y-53295185D01*
X123717105Y-53295185D01*
X123708832Y-53291758D01*
X123706723Y-53288880D01*
X122923383Y-51781604D01*
X122922610Y-51772685D01*
X122928197Y-51765922D01*
X123794433Y-51297196D01*
X123803339Y-51296274D01*
X123805561Y-51297194D01*
G37*
%TD.AperFunction*%
%TD*%
%TA.AperFunction,Conductor*%
%TO.N,/BATSTATE_INT*%
G36*
X157690599Y-109806849D02*
G01*
X157693057Y-109810460D01*
X157964857Y-110436121D01*
X157965010Y-110445075D01*
X157958788Y-110451514D01*
X157958713Y-110451546D01*
X157604587Y-110602467D01*
X157595633Y-110602558D01*
X157595413Y-110602467D01*
X157241286Y-110451546D01*
X157235019Y-110445150D01*
X157235110Y-110436196D01*
X157235142Y-110436121D01*
X157506943Y-109810460D01*
X157513382Y-109804238D01*
X157517674Y-109803422D01*
X157682326Y-109803422D01*
X157690599Y-109806849D01*
G37*
%TD.AperFunction*%
%TD*%
%TA.AperFunction,Conductor*%
%TO.N,/VBAT*%
G36*
X152304516Y-106397502D02*
G01*
X152658714Y-106548454D01*
X152664980Y-106554849D01*
X152664889Y-106563803D01*
X152664857Y-106563878D01*
X152393057Y-107189540D01*
X152386618Y-107195762D01*
X152382326Y-107196578D01*
X152217674Y-107196578D01*
X152209401Y-107193151D01*
X152206943Y-107189540D01*
X151935142Y-106563878D01*
X151934989Y-106554924D01*
X151941209Y-106548486D01*
X152295415Y-106397531D01*
X152304367Y-106397441D01*
X152304516Y-106397502D01*
G37*
%TD.AperFunction*%
%TD*%
%TA.AperFunction,Conductor*%
%TO.N,/VBAT*%
G36*
X155635372Y-113080181D02*
G01*
X155939948Y-113200272D01*
X155943787Y-113202743D01*
X155945067Y-113203980D01*
X155948634Y-113212191D01*
X155948664Y-113213931D01*
X155947820Y-113218500D01*
X155805856Y-113571341D01*
X155803360Y-113575161D01*
X155800433Y-113578149D01*
X155796442Y-113580816D01*
X155443535Y-113722806D01*
X155439050Y-113723651D01*
X155437270Y-113723633D01*
X155429032Y-113720123D01*
X155427812Y-113718878D01*
X155425287Y-113714984D01*
X155372059Y-113579988D01*
X155176761Y-113084672D01*
X155175948Y-113080185D01*
X155176001Y-113077111D01*
X155179425Y-113069042D01*
X155293305Y-112955162D01*
X155297094Y-112952630D01*
X155299937Y-112951452D01*
X155308702Y-112951379D01*
X155635372Y-113080181D01*
G37*
%TD.AperFunction*%
%TD*%
%TA.AperFunction,Conductor*%
%TO.N,/WAKEUP_BUTTON*%
G36*
X102004516Y-62697502D02*
G01*
X102358714Y-62848454D01*
X102364980Y-62854849D01*
X102364889Y-62863803D01*
X102364857Y-62863878D01*
X102093057Y-63489540D01*
X102086618Y-63495762D01*
X102082326Y-63496578D01*
X101917674Y-63496578D01*
X101909401Y-63493151D01*
X101906943Y-63489540D01*
X101635142Y-62863878D01*
X101634989Y-62854924D01*
X101641209Y-62848486D01*
X101995415Y-62697531D01*
X102004367Y-62697441D01*
X102004516Y-62697502D01*
G37*
%TD.AperFunction*%
%TD*%
%TA.AperFunction,Conductor*%
%TO.N,/WAKEUP_BUTTON*%
G36*
X103514647Y-91368974D02*
G01*
X104142312Y-91626041D01*
X104148669Y-91632348D01*
X104148732Y-91641235D01*
X104004988Y-91998501D01*
X103998721Y-92004897D01*
X103998501Y-92004988D01*
X103641235Y-92148732D01*
X103632281Y-92148641D01*
X103626041Y-92142312D01*
X103368974Y-91514647D01*
X103369010Y-91505693D01*
X103371525Y-91501943D01*
X103501941Y-91371527D01*
X103510213Y-91368101D01*
X103514647Y-91368974D01*
G37*
%TD.AperFunction*%
%TD*%
%TA.AperFunction,Conductor*%
%TO.N,/WAKEUP_BUTTON*%
G36*
X112998502Y-54495012D02*
G01*
X113004897Y-54501278D01*
X113004988Y-54501498D01*
X113148732Y-54858764D01*
X113148641Y-54867718D01*
X113142312Y-54873958D01*
X112514647Y-55131025D01*
X112505693Y-55130989D01*
X112501940Y-55128471D01*
X112371528Y-54998059D01*
X112368101Y-54989786D01*
X112368974Y-54985352D01*
X112417152Y-54867718D01*
X112626041Y-54357686D01*
X112632348Y-54351330D01*
X112641235Y-54351267D01*
X112998502Y-54495012D01*
G37*
%TD.AperFunction*%
%TD*%
%TA.AperFunction,Conductor*%
%TO.N,/BATSTATE_WAKEUP*%
G36*
X155207508Y-111675908D02*
G01*
X155842114Y-111926126D01*
X155848552Y-111932348D01*
X155848705Y-111941302D01*
X155848675Y-111941377D01*
X155704988Y-112298501D01*
X155698721Y-112304897D01*
X155698501Y-112304988D01*
X155341377Y-112448675D01*
X155332423Y-112448584D01*
X155326156Y-112442188D01*
X155075909Y-111807510D01*
X155076062Y-111798559D01*
X155078517Y-111794951D01*
X155194949Y-111678519D01*
X155203221Y-111675093D01*
X155207508Y-111675908D01*
G37*
%TD.AperFunction*%
%TD*%
%TA.AperFunction,Conductor*%
%TO.N,/BATSTATE_WAKEUP*%
G36*
X115504516Y-57997502D02*
G01*
X115858714Y-58148454D01*
X115864980Y-58154849D01*
X115864889Y-58163803D01*
X115864857Y-58163878D01*
X115593057Y-58789540D01*
X115586618Y-58795762D01*
X115582326Y-58796578D01*
X115417674Y-58796578D01*
X115409401Y-58793151D01*
X115406943Y-58789540D01*
X115135142Y-58163878D01*
X115134989Y-58154924D01*
X115141209Y-58148486D01*
X115495415Y-57997531D01*
X115504367Y-57997441D01*
X115504516Y-57997502D01*
G37*
%TD.AperFunction*%
%TD*%
%TA.AperFunction,Conductor*%
%TO.N,/CP2102_VREG*%
G36*
X171245384Y-129861116D02*
G01*
X171248019Y-129865159D01*
X171428195Y-130329770D01*
X171427992Y-130338722D01*
X171421882Y-130344760D01*
X171159717Y-130456726D01*
X171150763Y-130456824D01*
X171150527Y-130456726D01*
X170888361Y-130344760D01*
X170882098Y-130338359D01*
X170882048Y-130329770D01*
X171062225Y-129865159D01*
X171068411Y-129858684D01*
X171073133Y-129857689D01*
X171237111Y-129857689D01*
X171245384Y-129861116D01*
G37*
%TD.AperFunction*%
%TD*%
%TA.AperFunction,Conductor*%
%TO.N,/CP2102_VREG*%
G36*
X167990262Y-122305994D02*
G01*
X167992897Y-122310037D01*
X168173073Y-122774648D01*
X168172870Y-122783600D01*
X168166760Y-122789638D01*
X167904595Y-122901604D01*
X167895641Y-122901702D01*
X167895405Y-122901604D01*
X167633239Y-122789638D01*
X167626976Y-122783237D01*
X167626926Y-122774648D01*
X167807103Y-122310037D01*
X167813289Y-122303562D01*
X167818011Y-122302567D01*
X167981989Y-122302567D01*
X167990262Y-122305994D01*
G37*
%TD.AperFunction*%
%TD*%
%TA.AperFunction,Conductor*%
%TO.N,/CP2102_VREG*%
G36*
X167904557Y-120898379D02*
G01*
X168166761Y-121010362D01*
X168173023Y-121016762D01*
X168173073Y-121025351D01*
X167992897Y-121489963D01*
X167986711Y-121496438D01*
X167981989Y-121497433D01*
X167818011Y-121497433D01*
X167809738Y-121494006D01*
X167807103Y-121489963D01*
X167626926Y-121025351D01*
X167627129Y-121016399D01*
X167633237Y-121010362D01*
X167895406Y-120898394D01*
X167904359Y-120898297D01*
X167904557Y-120898379D01*
G37*
%TD.AperFunction*%
%TD*%
%TA.AperFunction,Conductor*%
%TO.N,/CP2102_VREG*%
G36*
X167904557Y-122898379D02*
G01*
X168166761Y-123010362D01*
X168173023Y-123016762D01*
X168173073Y-123025351D01*
X167992897Y-123489963D01*
X167986711Y-123496438D01*
X167981989Y-123497433D01*
X167818011Y-123497433D01*
X167809738Y-123494006D01*
X167807103Y-123489963D01*
X167626926Y-123025351D01*
X167627129Y-123016399D01*
X167633237Y-123010362D01*
X167895406Y-122898394D01*
X167904359Y-122898297D01*
X167904557Y-122898379D01*
G37*
%TD.AperFunction*%
%TD*%
%TA.AperFunction,Conductor*%
%TO.N,/ATTINY_ALARM*%
G36*
X121183600Y-52227129D02*
G01*
X121189638Y-52233239D01*
X121301604Y-52495405D01*
X121301702Y-52504359D01*
X121301604Y-52504595D01*
X121189638Y-52766760D01*
X121183237Y-52773023D01*
X121174648Y-52773073D01*
X120710037Y-52592896D01*
X120703562Y-52586710D01*
X120702567Y-52581988D01*
X120702567Y-52418011D01*
X120705994Y-52409738D01*
X120710037Y-52407103D01*
X121174648Y-52226926D01*
X121183600Y-52227129D01*
G37*
%TD.AperFunction*%
%TD*%
%TA.AperFunction,Conductor*%
%TO.N,/ATTINY_ALARM*%
G36*
X112964474Y-52719577D02*
G01*
X113080422Y-52835525D01*
X113083849Y-52843798D01*
X113082854Y-52848520D01*
X112881729Y-53304454D01*
X112875254Y-53310640D01*
X112866665Y-53310590D01*
X112602115Y-53204383D01*
X112595714Y-53198120D01*
X112595616Y-53197884D01*
X112489409Y-52933332D01*
X112489507Y-52924380D01*
X112495544Y-52918270D01*
X112951480Y-52717144D01*
X112960431Y-52716942D01*
X112964474Y-52719577D01*
G37*
%TD.AperFunction*%
%TD*%
%TA.AperFunction,Conductor*%
%TO.N,/ATTINY_RX*%
G36*
X111928942Y-87797294D02*
G01*
X112274032Y-87929749D01*
X112323049Y-87948563D01*
X112329544Y-87954727D01*
X112330325Y-87957173D01*
X112423216Y-88417720D01*
X112421493Y-88426507D01*
X112419182Y-88429067D01*
X112227430Y-88586887D01*
X112218865Y-88589498D01*
X112210961Y-88585288D01*
X112210084Y-88584071D01*
X112112826Y-88429067D01*
X111799528Y-87929749D01*
X111798034Y-87920920D01*
X111801164Y-87915260D01*
X111916480Y-87799944D01*
X111924752Y-87796518D01*
X111928942Y-87797294D01*
G37*
%TD.AperFunction*%
%TD*%
%TA.AperFunction,Conductor*%
%TO.N,/ATTINY_UI_TX*%
G36*
X117983600Y-52927129D02*
G01*
X117989638Y-52933239D01*
X118101604Y-53195405D01*
X118101702Y-53204359D01*
X118101604Y-53204595D01*
X117989638Y-53466760D01*
X117983237Y-53473023D01*
X117974648Y-53473073D01*
X117510037Y-53292896D01*
X117503562Y-53286710D01*
X117502567Y-53281988D01*
X117502567Y-53118011D01*
X117505994Y-53109738D01*
X117510037Y-53107103D01*
X117974648Y-52926926D01*
X117983600Y-52927129D01*
G37*
%TD.AperFunction*%
%TD*%
%TA.AperFunction,Conductor*%
%TO.N,/ATTINY_UI_TX*%
G36*
X104590262Y-72905994D02*
G01*
X104592897Y-72910037D01*
X104773073Y-73374648D01*
X104772870Y-73383600D01*
X104766760Y-73389638D01*
X104504595Y-73501604D01*
X104495641Y-73501702D01*
X104495405Y-73501604D01*
X104233239Y-73389638D01*
X104226976Y-73383237D01*
X104226926Y-73374648D01*
X104407103Y-72910037D01*
X104413289Y-72903562D01*
X104418011Y-72902567D01*
X104581989Y-72902567D01*
X104590262Y-72905994D01*
G37*
%TD.AperFunction*%
%TD*%
%TA.AperFunction,Conductor*%
%TO.N,/I2C_SDA*%
G36*
X155162730Y-96651365D02*
G01*
X155170965Y-96654874D01*
X155172185Y-96656119D01*
X155174711Y-96660014D01*
X155371308Y-97158622D01*
X155423236Y-97290320D01*
X155424050Y-97294814D01*
X155423997Y-97297886D01*
X155420572Y-97305957D01*
X155306696Y-97419833D01*
X155302900Y-97422370D01*
X155300063Y-97423545D01*
X155291294Y-97423619D01*
X154660051Y-97174726D01*
X154656212Y-97172255D01*
X154654931Y-97171017D01*
X154651364Y-97162806D01*
X154651334Y-97161067D01*
X154652177Y-97156501D01*
X154794143Y-96803653D01*
X154796636Y-96799838D01*
X154799569Y-96796845D01*
X154803551Y-96794185D01*
X155156467Y-96652191D01*
X155160945Y-96651347D01*
X155162730Y-96651365D01*
G37*
%TD.AperFunction*%
%TD*%
%TA.AperFunction,Conductor*%
%TO.N,/I2C_SDA*%
G36*
X156590262Y-105005994D02*
G01*
X156592897Y-105010037D01*
X156773073Y-105474648D01*
X156772870Y-105483600D01*
X156766760Y-105489638D01*
X156504595Y-105601604D01*
X156495641Y-105601702D01*
X156495405Y-105601604D01*
X156233239Y-105489638D01*
X156226976Y-105483237D01*
X156226926Y-105474648D01*
X156407103Y-105010037D01*
X156413289Y-105003562D01*
X156418011Y-105002567D01*
X156581989Y-105002567D01*
X156590262Y-105005994D01*
G37*
%TD.AperFunction*%
%TD*%
%TA.AperFunction,Conductor*%
%TO.N,/I2C_SDA*%
G36*
X121862730Y-60851365D02*
G01*
X121870965Y-60854874D01*
X121872185Y-60856119D01*
X121874711Y-60860014D01*
X122071308Y-61358622D01*
X122123236Y-61490320D01*
X122124050Y-61494814D01*
X122123997Y-61497886D01*
X122120572Y-61505957D01*
X122006696Y-61619833D01*
X122002900Y-61622370D01*
X122000063Y-61623545D01*
X121991294Y-61623619D01*
X121360051Y-61374726D01*
X121356212Y-61372255D01*
X121354931Y-61371017D01*
X121351364Y-61362806D01*
X121351334Y-61361067D01*
X121352177Y-61356501D01*
X121494143Y-61003653D01*
X121496636Y-60999838D01*
X121499569Y-60996845D01*
X121503551Y-60994185D01*
X121856467Y-60852191D01*
X121860945Y-60851347D01*
X121862730Y-60851365D01*
G37*
%TD.AperFunction*%
%TD*%
%TA.AperFunction,Conductor*%
%TO.N,/I2C_SDA*%
G36*
X154307508Y-96175908D02*
G01*
X154942114Y-96426126D01*
X154948552Y-96432348D01*
X154948705Y-96441302D01*
X154948675Y-96441377D01*
X154804988Y-96798501D01*
X154798721Y-96804897D01*
X154798501Y-96804988D01*
X154441377Y-96948675D01*
X154432423Y-96948584D01*
X154426156Y-96942188D01*
X154175909Y-96307510D01*
X154176062Y-96298559D01*
X154178517Y-96294951D01*
X154294949Y-96178519D01*
X154303221Y-96175093D01*
X154307508Y-96175908D01*
G37*
%TD.AperFunction*%
%TD*%
%TA.AperFunction,Conductor*%
%TO.N,/SBT9_SGM_MK*%
G36*
X155092057Y-85998379D02*
G01*
X155354261Y-86110362D01*
X155360523Y-86116762D01*
X155360573Y-86125351D01*
X155180397Y-86589963D01*
X155174211Y-86596438D01*
X155169489Y-86597433D01*
X155005511Y-86597433D01*
X154997238Y-86594006D01*
X154994603Y-86589963D01*
X154814426Y-86125351D01*
X154814629Y-86116399D01*
X154820737Y-86110362D01*
X155082906Y-85998394D01*
X155091859Y-85998297D01*
X155092057Y-85998379D01*
G37*
%TD.AperFunction*%
%TD*%
%TA.AperFunction,Conductor*%
%TO.N,/SBT9_SGM_MK*%
G36*
X154865154Y-88620261D02*
G01*
X154865344Y-88620447D01*
X154978776Y-88733879D01*
X154981312Y-88737674D01*
X154981313Y-88737675D01*
X154982461Y-88740447D01*
X154982460Y-88749402D01*
X154982356Y-88749646D01*
X154782668Y-89202324D01*
X154780046Y-89206061D01*
X154778675Y-89207371D01*
X154770520Y-89210612D01*
X154768886Y-89210602D01*
X154764599Y-89209760D01*
X154504275Y-89105250D01*
X154500452Y-89102756D01*
X154497465Y-89099833D01*
X154494793Y-89095834D01*
X154390274Y-88835488D01*
X154389434Y-88831003D01*
X154389455Y-88829107D01*
X154392830Y-88821016D01*
X154393981Y-88819851D01*
X154397576Y-88817373D01*
X154849352Y-88618082D01*
X154853804Y-88617091D01*
X154856807Y-88617023D01*
X154865154Y-88620261D01*
G37*
%TD.AperFunction*%
%TD*%
%TA.AperFunction,Conductor*%
%TO.N,/USB1_TX_VCC*%
G36*
X112889385Y-85296660D02*
G01*
X113004563Y-85411838D01*
X113007990Y-85420111D01*
X113007166Y-85424425D01*
X112855553Y-85806675D01*
X112849317Y-85813102D01*
X112847271Y-85813770D01*
X112387107Y-85918407D01*
X112378280Y-85916900D01*
X112375388Y-85914321D01*
X112225298Y-85727301D01*
X112222793Y-85718704D01*
X112227100Y-85710853D01*
X112228104Y-85710131D01*
X112874796Y-85295085D01*
X112883606Y-85293502D01*
X112889385Y-85296660D01*
G37*
%TD.AperFunction*%
%TD*%
%TA.AperFunction,Conductor*%
%TO.N,/USB1_TX_VCC*%
G36*
X118010767Y-79491251D02*
G01*
X118364965Y-79642203D01*
X118371231Y-79648598D01*
X118371140Y-79657552D01*
X118371108Y-79657627D01*
X118099308Y-80283289D01*
X118092869Y-80289511D01*
X118088577Y-80290327D01*
X117923925Y-80290327D01*
X117915652Y-80286900D01*
X117913194Y-80283289D01*
X117641393Y-79657627D01*
X117641240Y-79648673D01*
X117647460Y-79642235D01*
X118001666Y-79491280D01*
X118010618Y-79491190D01*
X118010767Y-79491251D01*
G37*
%TD.AperFunction*%
%TD*%
M02*
