M48
; DRILL file KiCad 10.0.2-10.0.2~ubuntu24.04.1 date 2026-05-14T01:01:50
; FORMAT={-:-/ absolute / metric / decimal}
; #@! TF.CreationDate,2026-05-14T01:01:50+03:00
; #@! TF.GenerationSoftware,Kicad,Pcbnew,10.0.2-10.0.2~ubuntu24.04.1
; #@! TF.FileFunction,Plated,1,4,PTH
FMAT,2
METRIC
; #@! TA.AperFunction,Plated,PTH,ViaDrill
T1C0.300
; #@! TA.AperFunction,Plated,PTH,ViaDrill
T2C0.400
; #@! TA.AperFunction,Plated,PTH,ComponentDrill
T3C0.700
; #@! TA.AperFunction,Plated,PTH,ComponentDrill
T4C0.800
; #@! TA.AperFunction,Plated,PTH,ComponentDrill
T5C0.850
; #@! TA.AperFunction,Plated,PTH,ComponentDrill
T6C0.900
; #@! TA.AperFunction,Plated,PTH,ComponentDrill
T7C0.920
; #@! TA.AperFunction,Plated,PTH,ComponentDrill
T8C0.950
; #@! TA.AperFunction,Plated,PTH,ComponentDrill
T9C1.000
; #@! TA.AperFunction,Plated,PTH,ComponentDrill
T10C1.300
; #@! TA.AperFunction,Plated,PTH,ComponentDrill
T11C1.500
; #@! TA.AperFunction,Plated,PTH,ComponentDrill
T12C1.600
; #@! TA.AperFunction,Plated,PTH,ComponentDrill
T13C2.300
%
G90
G05
T1
X104.5Y-73.5
X112.5Y-68.0
X112.6Y-53.2
X114.1Y-69.6
X114.8Y-54.3
X117.2Y-54.0
X117.95Y-101.85
X118.1Y-53.2
X118.6Y-66.1
X119.4Y-106.6
X121.3Y-52.5
X125.5Y-55.5
X125.6Y-73.0
X133.2Y-120.8
X150.875Y-124.225
X150.926Y-91.966
X151.15Y-128.55
X151.2Y-121.5
X154.5Y-89.1
X154.5Y-108.0
X154.5Y-109.7
X155.088Y-86.0
X155.1Y-108.875
X155.35Y-89.75
X155.6Y-108.0
X155.6Y-109.7
X155.7Y-105.5
X155.9Y-82.9
X156.5Y-105.6
X157.6Y-125.7
X161.25Y-88.05
X162.119Y-124.019
X163.137Y-131.5
X163.15Y-120.95
X163.536Y-123.436
X164.006Y-125.806
X166.4Y-126.3
X167.9Y-120.9
X167.9Y-122.9
X168.6Y-122.2
X169.65Y-127.85
X169.805Y-128.995
X171.155Y-130.455
X171.85Y-132.35
X172.0Y-130.5
X172.9Y-130.9
X176.7Y-127.7
X176.8Y-126.7
T2
X102.0Y-62.7
X102.4Y-126.2
X104.0Y-92.0
X105.3Y-42.7
X107.0Y-72.0
X107.0Y-83.0
X107.744Y-44.944
X108.4Y-75.6
X108.5Y-84.0
X109.5Y-70.0
X109.5Y-88.0
X109.712Y-122.4
X110.6Y-110.5
X111.0Y-46.0
X111.5Y-47.5
X112.35Y-49.65
X112.5Y-86.0
X112.5Y-88.312
X113.0Y-48.5
X113.0Y-54.5
X114.0Y-38.962
X114.0Y-60.5
X114.0Y-76.5
X114.0Y-88.0
X114.5Y-51.5
X114.5Y-82.5
X114.595Y-41.795
X115.0Y-74.7
X115.4Y-88.8
X115.5Y-58.0
X115.762Y-56.262
X115.8Y-41.8
X115.9Y-79.4
X116.0Y-49.0
X116.55Y-74.45
X117.032Y-82.468
X117.4Y-39.6
X117.553Y-44.053
X118.006Y-79.494
X118.5Y-44.5
X118.5Y-74.0
X118.5Y-77.7
X120.8Y-38.4
X121.0Y-76.5
X121.262Y-129.3
X121.4Y-97.5
X121.5Y-61.0
X122.862Y-86.55
X123.0Y-60.5
X123.9Y-83.1
X124.5Y-86.0
X125.0Y-121.3
X125.0Y-127.2
X125.7Y-76.9
X125.8Y-81.8
X129.6Y-131.2
X131.9Y-123.5
X135.2Y-100.2
X142.6Y-98.29
X151.8Y-97.2
X152.0Y-63.5
X152.3Y-106.4
X152.4Y-112.3
X152.5Y-82.5
X153.0Y-97.8
X153.177Y-124.1
X153.55Y-92.2
X154.35Y-87.45
X154.8Y-96.8
X155.403Y-95.597
X155.7Y-112.3
X155.8Y-113.575
X156.0Y-123.225
X156.2Y-92.6
X156.5Y-132.7
X157.6Y-110.6
X157.75Y-90.95
X157.75Y-96.75
X157.75Y-99.25
X158.0Y-81.9
X158.8Y-89.4
X160.0Y-106.5
X163.5Y-62.5
X165.7Y-91.2
X166.0Y-131.0
X166.85Y-92.35
X168.25Y-92.15
X168.55Y-71.6
X169.15Y-132.75
X169.4Y-63.9
X170.4Y-92.6
X172.5Y-58.5
X173.292Y-68.75
X174.5Y-133.0
T3
X153.5Y-138.5
X157.5Y-138.5
X159.5Y-138.5
X161.5Y-138.5
T4
X151.65Y-73.875
X153.0Y-57.0
X154.15Y-73.875
X154.25Y-57.0
X154.35Y-31.2
X156.89Y-31.2
X157.55Y-73.875
X160.05Y-73.875
X161.75Y-57.0
X163.0Y-57.0
X164.495Y-69.5
X164.495Y-72.04
X164.495Y-74.58
X165.0Y-34.0
X166.25Y-34.0
X173.75Y-34.0
X175.0Y-34.0
X176.0Y-40.0
X176.0Y-41.25
X176.0Y-48.75
X176.0Y-50.0
T5
X154.1Y-129.0
X158.3Y-129.0
T6
X138.73Y-112.0
X141.27Y-112.0
T7
X107.25Y-129.523
X109.75Y-129.523
X111.75Y-129.523
X114.25Y-129.523
T8
X105.0Y-34.275
X107.5Y-34.275
X110.0Y-34.275
X112.5Y-34.275
X115.0Y-34.275
X117.5Y-34.275
X120.0Y-34.275
X122.5Y-34.275
X125.0Y-34.275
T9
X103.5Y-117.25
X123.8Y-51.3
X124.0Y-138.075
X125.475Y-41.75
X125.475Y-44.25
X127.8Y-49.5
X128.5Y-138.075
X136.75Y-103.75
X136.75Y-108.25
X143.25Y-103.75
X143.25Y-108.25
X152.0Y-86.75
X155.25Y-81.0
X162.0Y-92.5
X171.5Y-75.5
T10
X122.75Y-135.575
X129.75Y-135.575
T11
X169.5Y-99.5
T12
X165.8Y-110.6
X172.8Y-110.6
T13
X103.5Y-132.232
X118.0Y-132.232
T3
G00X151.4Y-138.1
M15
G01X151.4Y-138.9
M16
G05
G00X163.6Y-138.1
M15
G01X163.6Y-138.9
M16
G05
T4
G00X166.5Y-135.375
M15
G01X166.5Y-134.575
M16
G05
G00X166.5Y-139.5
M15
G01X166.5Y-138.3
M16
G05
G00X177.7Y-135.375
M15
G01X177.7Y-134.575
M16
G05
G00X177.7Y-139.5
M15
G01X177.7Y-138.3
M16
G05
M30
