%TF.GenerationSoftware,KiCad,Pcbnew,10.0.2-10.0.2~ubuntu24.04.1*%
%TF.CreationDate,2026-05-14T01:01:47+03:00*%
%TF.ProjectId,xray-v3,78726179-2d76-4332-9e6b-696361645f70,rev?*%
%TF.SameCoordinates,Original*%
%TF.FileFunction,Copper,L2,Inr*%
%TF.FilePolarity,Positive*%
%FSLAX46Y46*%
G04 Gerber Fmt 4.6, Leading zero omitted, Abs format (unit mm)*
G04 Created by KiCad (PCBNEW 10.0.2-10.0.2~ubuntu24.04.1) date 2026-05-14 01:01:47*
%MOMM*%
%LPD*%
G01*
G04 APERTURE LIST*
G04 Aperture macros list*
%AMRoundRect*
0 Rectangle with rounded corners*
0 $1 Rounding radius*
0 $2 $3 $4 $5 $6 $7 $8 $9 X,Y pos of 4 corners*
0 Add a 4 corners polygon primitive as box body*
4,1,4,$2,$3,$4,$5,$6,$7,$8,$9,$2,$3,0*
0 Add four circle primitives for the rounded corners*
1,1,$1+$1,$2,$3*
1,1,$1+$1,$4,$5*
1,1,$1+$1,$6,$7*
1,1,$1+$1,$8,$9*
0 Add four rect primitives between the rounded corners*
20,1,$1+$1,$2,$3,$4,$5,0*
20,1,$1+$1,$4,$5,$6,$7,0*
20,1,$1+$1,$6,$7,$8,$9,0*
20,1,$1+$1,$8,$9,$2,$3,0*%
G04 Aperture macros list end*
%TA.AperFunction,ComponentPad*%
%ADD10RoundRect,0.250000X-0.600000X-0.725000X0.600000X-0.725000X0.600000X0.725000X-0.600000X0.725000X0*%
%TD*%
%TA.AperFunction,ComponentPad*%
%ADD11O,1.700000X1.950000*%
%TD*%
%TA.AperFunction,ComponentPad*%
%ADD12RoundRect,0.250000X-0.675000X-0.675000X0.675000X-0.675000X0.675000X0.675000X-0.675000X0.675000X0*%
%TD*%
%TA.AperFunction,ComponentPad*%
%ADD13C,1.850000*%
%TD*%
%TA.AperFunction,ComponentPad*%
%ADD14C,2.000000*%
%TD*%
%TA.AperFunction,ComponentPad*%
%ADD15O,1.500000X3.000000*%
%TD*%
%TA.AperFunction,ComponentPad*%
%ADD16C,1.500000*%
%TD*%
%TA.AperFunction,ComponentPad*%
%ADD17C,1.440000*%
%TD*%
%TA.AperFunction,ComponentPad*%
%ADD18C,1.600000*%
%TD*%
%TA.AperFunction,ComponentPad*%
%ADD19R,1.800000X1.800000*%
%TD*%
%TA.AperFunction,ComponentPad*%
%ADD20C,1.800000*%
%TD*%
%TA.AperFunction,ComponentPad*%
%ADD21C,2.200000*%
%TD*%
%TA.AperFunction,ComponentPad*%
%ADD22C,1.700000*%
%TD*%
%TA.AperFunction,ComponentPad*%
%ADD23C,1.400000*%
%TD*%
%TA.AperFunction,ComponentPad*%
%ADD24R,3.000000X3.000000*%
%TD*%
%TA.AperFunction,ComponentPad*%
%ADD25R,1.524000X1.524000*%
%TD*%
%TA.AperFunction,ComponentPad*%
%ADD26C,1.524000*%
%TD*%
%TA.AperFunction,ComponentPad*%
%ADD27C,3.500000*%
%TD*%
%TA.AperFunction,ComponentPad*%
%ADD28RoundRect,0.250002X-1.499998X-1.499998X1.499998X-1.499998X1.499998X1.499998X-1.499998X1.499998X0*%
%TD*%
%TA.AperFunction,ComponentPad*%
%ADD29O,1.200000X2.000000*%
%TD*%
%TA.AperFunction,ComponentPad*%
%ADD30O,1.000000X2.400000*%
%TD*%
%TA.AperFunction,ComponentPad*%
%ADD31RoundRect,0.250000X0.750000X-0.600000X0.750000X0.600000X-0.750000X0.600000X-0.750000X-0.600000X0*%
%TD*%
%TA.AperFunction,ComponentPad*%
%ADD32O,2.000000X1.700000*%
%TD*%
%TA.AperFunction,ViaPad*%
%ADD33C,0.600000*%
%TD*%
%TA.AperFunction,ViaPad*%
%ADD34C,0.800000*%
%TD*%
%TA.AperFunction,Conductor*%
%ADD35C,0.180000*%
%TD*%
%TA.AperFunction,Conductor*%
%ADD36C,0.500000*%
%TD*%
%TA.AperFunction,Conductor*%
%ADD37C,0.200000*%
%TD*%
G04 APERTURE END LIST*
D10*
%TO.N,Net-(JP6-C)*%
%TO.C,U23*%
X105000000Y-34275000D03*
D11*
%TO.N,GND*%
X107500000Y-34275000D03*
X110000000Y-34275000D03*
%TO.N,/DISPLAY_2.8V*%
X112500000Y-34275000D03*
%TO.N,Net-(U21-B)*%
X115000000Y-34275000D03*
%TO.N,Net-(U20-B2)*%
X117500000Y-34275000D03*
%TO.N,Net-(U20-B1)*%
X120000000Y-34275000D03*
%TO.N,Net-(U23-LED)*%
X122500000Y-34275000D03*
%TO.N,unconnected-(U23-MISO-Pad9)*%
X125000000Y-34275000D03*
%TD*%
D12*
%TO.N,Net-(U12-TS)*%
%TO.C,TH1*%
X154100000Y-129000000D03*
D13*
%TO.N,GND*%
X158300000Y-129000000D03*
%TD*%
D14*
%TO.N,/HV_PWM*%
%TO.C,TP11*%
X171500000Y-75500000D03*
%TD*%
D15*
%TO.N,*%
%TO.C,SW1*%
X151400000Y-138500000D03*
X163600000Y-138500000D03*
D16*
%TO.N,/UART_EN*%
X153500000Y-138500000D03*
%TO.N,/UPDI1_EN*%
X159500000Y-138500000D03*
%TO.N,VCCQ*%
X157500000Y-138500000D03*
%TO.N,/UPDI2_EN*%
X161500000Y-138500000D03*
%TD*%
D17*
%TO.N,Net-(D3-K)*%
%TO.C,RV1*%
X164495000Y-69500000D03*
X164495000Y-72040000D03*
%TO.N,Net-(R3-Pad2)*%
X164495000Y-74580000D03*
%TD*%
D14*
%TO.N,/BATSTATE_INT*%
%TO.C,TP2*%
X123800000Y-51300000D03*
%TD*%
D18*
%TO.N,Net-(D4-A)*%
%TO.C,C16*%
X163000000Y-57000000D03*
X161750000Y-57000000D03*
%TO.N,Net-(D6-A)*%
X154250000Y-57000000D03*
X153000000Y-57000000D03*
%TD*%
D19*
%TO.N,Net-(D11-K)*%
%TO.C,D11*%
X141270000Y-112000000D03*
D20*
%TO.N,Net-(D11-A)*%
X138730000Y-112000000D03*
%TD*%
D14*
%TO.N,/SBM20_SGN_MK*%
%TO.C,TP16*%
X155250000Y-81000000D03*
%TD*%
D18*
%TO.N,GNDPWR*%
%TO.C,C15*%
X176000000Y-50000000D03*
X176000000Y-48750000D03*
%TO.N,Net-(D5-K)*%
X176000000Y-41250000D03*
X176000000Y-40000000D03*
%TD*%
D21*
%TO.N,*%
%TO.C,SW2*%
X129750000Y-135575000D03*
X122750000Y-135575000D03*
D22*
%TO.N,Net-(JP4-B)*%
X128500000Y-138075000D03*
%TO.N,Net-(U13-ON)*%
X124000000Y-138075000D03*
%TD*%
D18*
%TO.N,Net-(D5-K)*%
%TO.C,C17*%
X175000000Y-34000000D03*
X173750000Y-34000000D03*
%TO.N,/HV*%
X166250000Y-34000000D03*
X165000000Y-34000000D03*
%TD*%
D14*
%TO.N,/HV_FB*%
%TO.C,TP12*%
X162000000Y-92500000D03*
%TD*%
%TO.N,Net-(J8-VBUS)*%
%TO.C,TP7*%
X103500000Y-117250000D03*
%TD*%
D18*
%TO.N,Net-(J7-Pin_1)*%
%TO.C,C31*%
X154150000Y-73875000D03*
%TO.N,Net-(Q3-B)*%
X151650000Y-73875000D03*
%TD*%
D23*
%TO.N,Net-(R16-Pad2)*%
%TO.C,TP3*%
X154350000Y-31200000D03*
%TO.N,GNDPWR*%
X156890000Y-31200000D03*
%TD*%
D18*
%TO.N,Net-(J5-Pin_1)*%
%TO.C,C26*%
X160050000Y-73875000D03*
%TO.N,Net-(Q2-B)*%
X157550000Y-73875000D03*
%TD*%
D24*
%TO.N,GND*%
%TO.C,TP18*%
X169500000Y-99500000D03*
%TD*%
D25*
%TO.N,Net-(J8-VBUS)*%
%TO.C,J8*%
X107250000Y-129522500D03*
D26*
%TO.N,Net-(J8-D-)*%
X109750000Y-129522500D03*
%TO.N,Net-(J8-D+)*%
X111750000Y-129522500D03*
%TO.N,GNDD*%
X114250000Y-129522500D03*
D27*
X103500000Y-132232500D03*
X118000000Y-132232500D03*
%TD*%
D14*
%TO.N,/SBT9_SGM_MK*%
%TO.C,TP17*%
X152000000Y-86750000D03*
%TD*%
D28*
%TO.N,Net-(BT1-+)*%
%TO.C,BT1*%
X165800000Y-110600000D03*
D27*
%TO.N,GNDPWR*%
X172800000Y-110600000D03*
%TD*%
D14*
%TO.N,/BATSTATE_WAKEUP*%
%TO.C,TP1*%
X127800000Y-49500000D03*
%TD*%
D29*
%TO.N,GND*%
%TO.C,J2*%
X166500000Y-134975000D03*
D30*
X166500000Y-138900000D03*
D29*
X177700000Y-134975000D03*
D30*
X177700000Y-138900000D03*
%TD*%
D22*
%TO.N,/WAKEUP_BUTTON*%
%TO.C,SW3*%
X143250000Y-108250000D03*
X136750000Y-108250000D03*
%TO.N,GND*%
X143250000Y-103750000D03*
X136750000Y-103750000D03*
%TD*%
D31*
%TO.N,GND*%
%TO.C,J9*%
X125475000Y-44250000D03*
D32*
X125475000Y-41750000D03*
%TD*%
D33*
%TO.N,/SBM20_SGN_MK*%
X155350000Y-89750000D03*
%TO.N,/SBT9_SGM_MK*%
X154500000Y-89100000D03*
%TO.N,/SBM20_SGN_MK*%
X155900000Y-82900000D03*
%TO.N,/SBT9_SGM_MK*%
X155087500Y-86000000D03*
%TO.N,/HV_FB*%
X150926483Y-91966483D03*
X161250000Y-88050000D03*
D34*
%TO.N,GND*%
X158800000Y-89400000D03*
X109500000Y-88000000D03*
X165700000Y-91200000D03*
X122862500Y-86550000D03*
X153177500Y-124100000D03*
X114000000Y-76500000D03*
X118500000Y-74000000D03*
X121000000Y-76500000D03*
D33*
X151150000Y-128550000D03*
X163137500Y-131500000D03*
X155600000Y-109700000D03*
D34*
X114500000Y-51500000D03*
X114000000Y-88000000D03*
X115800000Y-41800000D03*
X166850000Y-92350000D03*
D33*
X157600000Y-125700000D03*
D34*
X153550000Y-92200000D03*
X123900000Y-83100000D03*
X156500000Y-132700000D03*
D33*
X155600000Y-108000000D03*
D34*
X109500000Y-70000000D03*
D33*
X151200000Y-121500000D03*
D34*
X166000000Y-131000000D03*
X115000000Y-74700000D03*
X107743750Y-44943750D03*
X114500000Y-82500000D03*
D33*
X155100000Y-108875000D03*
D34*
X115900000Y-79400000D03*
X108500000Y-84000000D03*
X170400000Y-92600000D03*
D33*
X154500000Y-109700000D03*
D34*
X110600000Y-110500000D03*
D33*
X154500000Y-108000000D03*
D34*
%TO.N,/DISPLAY_2.8V*%
X114000000Y-38962500D03*
%TO.N,GNDD*%
X125000000Y-127200000D03*
X102400000Y-126200000D03*
X129600000Y-131200000D03*
X109712500Y-122400000D03*
D33*
%TO.N,/UPDI2_EN*%
X114100000Y-69600000D03*
D34*
X116550000Y-74450000D03*
D33*
%TO.N,/RESET_UI*%
X118600000Y-66100000D03*
X112500000Y-68000000D03*
D34*
X111500000Y-47500000D03*
D33*
X125600000Y-73000000D03*
D34*
%TO.N,/USB1_RX_VCC*%
X117031955Y-82468045D03*
D33*
X162118750Y-124018750D03*
D34*
%TO.N,VCC*%
X157750000Y-90950000D03*
X160000000Y-106500000D03*
X157750000Y-99250000D03*
X157750000Y-96750000D03*
X168250000Y-92150000D03*
X152400000Y-112300000D03*
D33*
%TO.N,/I2C_SCL*%
X155700000Y-105500000D03*
D34*
X123000000Y-60500000D03*
X155402782Y-95597218D03*
%TO.N,/SBM20_SGN_MK*%
X158000000Y-81900000D03*
%TO.N,/UART_EN*%
X114000000Y-60500000D03*
X142600000Y-98290000D03*
X107000000Y-72000000D03*
X107000000Y-83000000D03*
%TO.N,/DISPLAY_VCC*%
X117400000Y-39600000D03*
X114595301Y-41795301D03*
X105300000Y-42700000D03*
X120800000Y-38400000D03*
%TO.N,/TFT_ENABLE#*%
X116000000Y-49000000D03*
X111000000Y-46000000D03*
%TO.N,Net-(C10-Pad2)*%
X169400000Y-63900000D03*
X173292500Y-68750000D03*
%TO.N,Net-(Q1-D)*%
X172500000Y-58500000D03*
%TO.N,GNDPWR*%
X163500000Y-62500000D03*
%TO.N,/USB1_VBUS*%
X174500000Y-133000000D03*
D33*
X169805000Y-128995000D03*
X150875000Y-124225000D03*
D34*
X169150000Y-132750000D03*
%TO.N,/HV_PWM*%
X154350000Y-87450000D03*
X168550000Y-71600000D03*
%TO.N,Net-(U13-ON)*%
X131900000Y-123500000D03*
%TO.N,/UPDI1_EN*%
X124500000Y-86000000D03*
X135200000Y-100200000D03*
%TO.N,VCCQ*%
X115400000Y-88800000D03*
D33*
X163150000Y-120950000D03*
D34*
X156000000Y-123225000D03*
D33*
X163535944Y-123435944D03*
D34*
%TO.N,Net-(D12-K)*%
X121400000Y-97500000D03*
X118500000Y-77700000D03*
D33*
%TO.N,Net-(D14-K)*%
X117950000Y-101850000D03*
X119400000Y-106600000D03*
D34*
%TO.N,/RESET_UV*%
X156200000Y-92600000D03*
X125700000Y-76900000D03*
X125800000Y-81800000D03*
%TO.N,/BATSTATE_INT*%
X115762096Y-56262096D03*
X157600000Y-110600000D03*
%TO.N,/VBAT*%
X152300000Y-106400000D03*
X155800000Y-113575000D03*
%TO.N,Net-(U14-+)*%
X125000000Y-121300000D03*
X121262500Y-129300000D03*
%TO.N,Net-(J5-Pin_1)*%
X152000000Y-63500000D03*
%TO.N,/WAKEUP_BUTTON*%
X113000000Y-54500000D03*
X102000000Y-62700000D03*
X104000000Y-92000000D03*
%TO.N,/BATSTATE_WAKEUP*%
X155700000Y-112300000D03*
X115500000Y-58000000D03*
D33*
%TO.N,Net-(JP4-B)*%
X133200000Y-120800000D03*
%TO.N,Net-(U2-~{RST})*%
X169650000Y-127850000D03*
%TO.N,/CP2102_VREG*%
X171155122Y-130455122D03*
X167900000Y-120900000D03*
X167900000Y-122900000D03*
D34*
%TO.N,/SCK*%
X112350000Y-49650000D03*
X118500000Y-44500000D03*
D33*
%TO.N,/ATTINY_ALARM*%
X112600000Y-53200000D03*
X121300000Y-52500000D03*
%TO.N,/ATTINY_WAKEUP*%
X114800000Y-54300000D03*
X125500000Y-55500000D03*
D34*
%TO.N,/ATTINY_RX*%
X112500000Y-88312500D03*
D33*
X117200000Y-54000000D03*
D34*
X151800000Y-97200000D03*
D33*
%TO.N,/ATTINY_UI_TX*%
X118100000Y-53200000D03*
X104500000Y-73500000D03*
D34*
%TO.N,/I2C_SDA*%
X154800000Y-96800000D03*
D33*
X156500000Y-105600000D03*
D34*
X121500000Y-61000000D03*
%TO.N,/MOSI*%
X113000000Y-48500000D03*
X117552782Y-44052782D03*
%TO.N,/ATTINY_UV_TX*%
X153000000Y-97800000D03*
X108400000Y-75600000D03*
%TO.N,/SBT9_SGM_MK*%
X152500000Y-82500000D03*
%TO.N,/USB1_TX_VCC*%
X112500000Y-86000000D03*
D33*
X164006250Y-125806250D03*
D34*
X118006251Y-79493749D03*
D33*
%TO.N,/USB1_D-*%
X172000000Y-130500000D03*
%TO.N,/USB1_D+*%
X172900000Y-130900000D03*
X171850000Y-132350000D03*
%TO.N,/USB1_RX_3.3*%
X168600000Y-122200000D03*
X176800000Y-126700000D03*
%TO.N,/USB1_TX_3.3*%
X176700000Y-127700000D03*
X166400000Y-126300000D03*
%TD*%
%TO.N,/SBM20_SGN_MK*%
D35*
X155900000Y-82900000D02*
X155900000Y-89200000D01*
X155900000Y-89200000D02*
X155350000Y-89750000D01*
%TO.N,VCC*%
D36*
X157750000Y-90950000D02*
X157750000Y-99250000D01*
%TO.N,/SBT9_SGM_MK*%
D35*
X154500000Y-89100000D02*
X155087500Y-88512500D01*
X155087500Y-88512500D02*
X155087500Y-86000000D01*
%TO.N,/UPDI2_EN*%
X144000000Y-97600000D02*
X127300000Y-97600000D01*
X160377402Y-127500000D02*
X152100000Y-127500000D01*
X161500000Y-138500000D02*
X161500000Y-128622598D01*
X161500000Y-128622598D02*
X160377402Y-127500000D01*
X127300000Y-97600000D02*
X120300000Y-90600000D01*
X152100000Y-127500000D02*
X147200000Y-122600000D01*
X120300000Y-78200000D02*
X116550000Y-74450000D01*
X120300000Y-90600000D02*
X120300000Y-78200000D01*
X114100000Y-72000000D02*
X116550000Y-74450000D01*
X147200000Y-122600000D02*
X147200000Y-100800000D01*
X114100000Y-69600000D02*
X114100000Y-72000000D01*
X147200000Y-100800000D02*
X144000000Y-97600000D01*
%TO.N,/RESET_UI*%
X118700000Y-66100000D02*
X125600000Y-73000000D01*
X118600000Y-66100000D02*
X118700000Y-66100000D01*
%TO.N,VCC*%
D36*
X168250000Y-93500000D02*
X165000000Y-96750000D01*
X165000000Y-96750000D02*
X157750000Y-96750000D01*
X168250000Y-92150000D02*
X168250000Y-93500000D01*
%TO.N,/I2C_SCL*%
D35*
X129500000Y-93600000D02*
X153405564Y-93600000D01*
X153405564Y-93600000D02*
X155402782Y-95597218D01*
X129100000Y-66600000D02*
X129100000Y-93200000D01*
X123000000Y-60500000D02*
X129100000Y-66600000D01*
X129100000Y-93200000D02*
X129500000Y-93600000D01*
%TO.N,/UART_EN*%
D37*
X146500000Y-130439340D02*
X153500000Y-137439340D01*
X143290000Y-98290000D02*
X146500000Y-101500000D01*
X107000000Y-87000000D02*
X107000000Y-83000000D01*
X118200000Y-98200000D02*
X107000000Y-87000000D01*
X146500000Y-101500000D02*
X146500000Y-130439340D01*
X153500000Y-137439340D02*
X153500000Y-138500000D01*
X142600000Y-98290000D02*
X143290000Y-98290000D01*
X142600000Y-98290000D02*
X142510000Y-98200000D01*
X142510000Y-98200000D02*
X118200000Y-98200000D01*
%TO.N,/DISPLAY_VCC*%
D36*
X114595301Y-41795301D02*
X114600000Y-41790602D01*
X107300000Y-40700000D02*
X105300000Y-42700000D01*
X117400000Y-40700000D02*
X114600000Y-40700000D01*
X114600000Y-41790602D02*
X114600000Y-40700000D01*
X120800000Y-38400000D02*
X118500000Y-40700000D01*
X117400000Y-39600000D02*
X117400000Y-40700000D01*
X114600000Y-40700000D02*
X107300000Y-40700000D01*
X118500000Y-40700000D02*
X117400000Y-40700000D01*
%TO.N,/USB1_VBUS*%
D35*
X153400000Y-126750000D02*
X163150000Y-126750000D01*
X163150000Y-126750000D02*
X169150000Y-132750000D01*
X150875000Y-124225000D02*
X153400000Y-126750000D01*
%TO.N,/UPDI1_EN*%
X145000000Y-135900000D02*
X149600000Y-140500000D01*
X149600000Y-140500000D02*
X158100000Y-140500000D01*
X142800000Y-100200000D02*
X145000000Y-102400000D01*
X135200000Y-100200000D02*
X142800000Y-100200000D01*
X158100000Y-140500000D02*
X159500000Y-139100000D01*
X145000000Y-102400000D02*
X145000000Y-135900000D01*
%TO.N,Net-(D12-K)*%
X119620000Y-95720000D02*
X121400000Y-97500000D01*
X118500000Y-77700000D02*
X119620000Y-78820000D01*
X119620000Y-78820000D02*
X119620000Y-95720000D01*
%TO.N,/BATSTATE_INT*%
X115762096Y-56262096D02*
X116500000Y-57000000D01*
X123800000Y-57665613D02*
X123800000Y-51300000D01*
X157600000Y-109000000D02*
X157600000Y-110600000D01*
X145100000Y-96500000D02*
X157600000Y-109000000D01*
X123465613Y-58000000D02*
X123800000Y-57665613D01*
X116500000Y-71024192D02*
X122000000Y-76524192D01*
X116500000Y-58000000D02*
X116500000Y-71024192D01*
X127900000Y-96500000D02*
X145100000Y-96500000D01*
X116500000Y-58000000D02*
X123465613Y-58000000D01*
X116500000Y-57000000D02*
X116500000Y-58000000D01*
X122000000Y-76524192D02*
X122000000Y-90600000D01*
X122000000Y-90600000D02*
X127900000Y-96500000D01*
%TO.N,/VBAT*%
X152300000Y-106400000D02*
X152300000Y-110075000D01*
X152300000Y-110075000D02*
X155800000Y-113575000D01*
%TO.N,Net-(U14-+)*%
D36*
X121262500Y-129300000D02*
X125000000Y-125562500D01*
X125000000Y-125562500D02*
X125000000Y-121300000D01*
%TO.N,/WAKEUP_BUTTON*%
D37*
X104000000Y-92000000D02*
X104000000Y-91787500D01*
D35*
X102000000Y-65500000D02*
X102000000Y-62700000D01*
D37*
X104000000Y-92000000D02*
X102000000Y-90000000D01*
X102000000Y-65500000D02*
X113000000Y-54500000D01*
X102000000Y-90000000D02*
X102000000Y-65500000D01*
%TO.N,/BATSTATE_WAKEUP*%
D35*
X153600000Y-106000000D02*
X153600000Y-110200000D01*
X121000000Y-77924192D02*
X121000000Y-90400000D01*
X121000000Y-90400000D02*
X127600000Y-97000000D01*
X153600000Y-110200000D02*
X155700000Y-112300000D01*
X115500000Y-58000000D02*
X115500000Y-72424192D01*
X115500000Y-72424192D02*
X121000000Y-77924192D01*
X127600000Y-97000000D02*
X144600000Y-97000000D01*
X144600000Y-97000000D02*
X153600000Y-106000000D01*
%TO.N,/CP2102_VREG*%
X167900000Y-124400000D02*
X171155122Y-127655122D01*
X171155122Y-127655122D02*
X171155122Y-130455122D01*
X167900000Y-122900000D02*
X167900000Y-120900000D01*
X167900000Y-122900000D02*
X167900000Y-124400000D01*
%TO.N,/SCK*%
X118487904Y-44500000D02*
X118500000Y-44500000D01*
X113297904Y-49690000D02*
X118487904Y-44500000D01*
X112350000Y-49650000D02*
X112390000Y-49690000D01*
X112390000Y-49690000D02*
X113297904Y-49690000D01*
%TO.N,/ATTINY_ALARM*%
X121300000Y-52500000D02*
X113300000Y-52500000D01*
X113300000Y-52500000D02*
X112600000Y-53200000D01*
%TO.N,/ATTINY_RX*%
X111475808Y-59324192D02*
X111475808Y-87475808D01*
X112312500Y-88312500D02*
X112500000Y-88312500D01*
X116800000Y-54000000D02*
X111475808Y-59324192D01*
X111475808Y-87475808D02*
X112312500Y-88312500D01*
X117200000Y-54000000D02*
X116800000Y-54000000D01*
%TO.N,/ATTINY_UI_TX*%
X116900000Y-53200000D02*
X104500000Y-65600000D01*
X118100000Y-53200000D02*
X116900000Y-53200000D01*
X104500000Y-65600000D02*
X104500000Y-73500000D01*
%TO.N,/I2C_SDA*%
X154800000Y-96800000D02*
X156500000Y-98500000D01*
X152500000Y-94500000D02*
X129300000Y-94500000D01*
X156500000Y-98500000D02*
X156500000Y-105600000D01*
X128120000Y-93320000D02*
X128120000Y-67620000D01*
X128120000Y-67620000D02*
X121500000Y-61000000D01*
X154800000Y-96800000D02*
X152500000Y-94500000D01*
X129300000Y-94500000D02*
X128120000Y-93320000D01*
%TO.N,/MOSI*%
X117447218Y-44052782D02*
X117552782Y-44052782D01*
X113000000Y-48500000D02*
X117447218Y-44052782D01*
%TO.N,/USB1_TX_VCC*%
X112500000Y-85800000D02*
X118006251Y-80293749D01*
X112500000Y-86000000D02*
X112500000Y-85800000D01*
X118006251Y-80293749D02*
X118006251Y-79493749D01*
%TD*%
M02*
