%TF.GenerationSoftware,KiCad,Pcbnew,10.0.2-10.0.2~ubuntu24.04.1*%
%TF.CreationDate,2026-05-14T01:01:47+03:00*%
%TF.ProjectId,xray-v3,78726179-2d76-4332-9e6b-696361645f70,rev?*%
%TF.SameCoordinates,Original*%
%TF.FileFunction,Legend,Bot*%
%TF.FilePolarity,Positive*%
%FSLAX46Y46*%
G04 Gerber Fmt 4.6, Leading zero omitted, Abs format (unit mm)*
G04 Created by KiCad (PCBNEW 10.0.2-10.0.2~ubuntu24.04.1) date 2026-05-14 01:01:47*
%MOMM*%
%LPD*%
G01*
G04 APERTURE LIST*
%ADD10C,0.100000*%
%ADD11C,0.150000*%
%ADD12C,0.120000*%
G04 APERTURE END LIST*
D10*
X153200000Y-30200000D02*
X158000000Y-30200000D01*
X158000000Y-32200000D01*
X153200000Y-32200000D01*
X153200000Y-30200000D01*
X111691353Y-139672419D02*
X111167544Y-139005752D01*
X111691353Y-139005752D02*
X111167544Y-139672419D01*
X110786591Y-139672419D02*
X110786591Y-139005752D01*
X110786591Y-139196228D02*
X110738972Y-139100990D01*
X110738972Y-139100990D02*
X110691353Y-139053371D01*
X110691353Y-139053371D02*
X110596115Y-139005752D01*
X110596115Y-139005752D02*
X110500877Y-139005752D01*
X109738972Y-139672419D02*
X109738972Y-139148609D01*
X109738972Y-139148609D02*
X109786591Y-139053371D01*
X109786591Y-139053371D02*
X109881829Y-139005752D01*
X109881829Y-139005752D02*
X110072305Y-139005752D01*
X110072305Y-139005752D02*
X110167543Y-139053371D01*
X109738972Y-139624800D02*
X109834210Y-139672419D01*
X109834210Y-139672419D02*
X110072305Y-139672419D01*
X110072305Y-139672419D02*
X110167543Y-139624800D01*
X110167543Y-139624800D02*
X110215162Y-139529561D01*
X110215162Y-139529561D02*
X110215162Y-139434323D01*
X110215162Y-139434323D02*
X110167543Y-139339085D01*
X110167543Y-139339085D02*
X110072305Y-139291466D01*
X110072305Y-139291466D02*
X109834210Y-139291466D01*
X109834210Y-139291466D02*
X109738972Y-139243847D01*
X109358019Y-139005752D02*
X109119924Y-139672419D01*
X108881829Y-139005752D02*
X109119924Y-139672419D01*
X109119924Y-139672419D02*
X109215162Y-139910514D01*
X109215162Y-139910514D02*
X109262781Y-139958133D01*
X109262781Y-139958133D02*
X109358019Y-140005752D01*
X108500876Y-139291466D02*
X107738972Y-139291466D01*
X107358019Y-139005752D02*
X107119924Y-139672419D01*
X107119924Y-139672419D02*
X106881829Y-139005752D01*
X106596114Y-138672419D02*
X105977067Y-138672419D01*
X105977067Y-138672419D02*
X106310400Y-139053371D01*
X106310400Y-139053371D02*
X106167543Y-139053371D01*
X106167543Y-139053371D02*
X106072305Y-139100990D01*
X106072305Y-139100990D02*
X106024686Y-139148609D01*
X106024686Y-139148609D02*
X105977067Y-139243847D01*
X105977067Y-139243847D02*
X105977067Y-139481942D01*
X105977067Y-139481942D02*
X106024686Y-139577180D01*
X106024686Y-139577180D02*
X106072305Y-139624800D01*
X106072305Y-139624800D02*
X106167543Y-139672419D01*
X106167543Y-139672419D02*
X106453257Y-139672419D01*
X106453257Y-139672419D02*
X106548495Y-139624800D01*
X106548495Y-139624800D02*
X106596114Y-139577180D01*
X105548495Y-139577180D02*
X105500876Y-139624800D01*
X105500876Y-139624800D02*
X105548495Y-139672419D01*
X105548495Y-139672419D02*
X105596114Y-139624800D01*
X105596114Y-139624800D02*
X105548495Y-139577180D01*
X105548495Y-139577180D02*
X105548495Y-139672419D01*
X104596115Y-138672419D02*
X105072305Y-138672419D01*
X105072305Y-138672419D02*
X105119924Y-139148609D01*
X105119924Y-139148609D02*
X105072305Y-139100990D01*
X105072305Y-139100990D02*
X104977067Y-139053371D01*
X104977067Y-139053371D02*
X104738972Y-139053371D01*
X104738972Y-139053371D02*
X104643734Y-139100990D01*
X104643734Y-139100990D02*
X104596115Y-139148609D01*
X104596115Y-139148609D02*
X104548496Y-139243847D01*
X104548496Y-139243847D02*
X104548496Y-139481942D01*
X104548496Y-139481942D02*
X104596115Y-139577180D01*
X104596115Y-139577180D02*
X104643734Y-139624800D01*
X104643734Y-139624800D02*
X104738972Y-139672419D01*
X104738972Y-139672419D02*
X104977067Y-139672419D01*
X104977067Y-139672419D02*
X105072305Y-139624800D01*
X105072305Y-139624800D02*
X105119924Y-139577180D01*
D11*
X165233332Y-30654819D02*
X165233332Y-31464342D01*
X165233332Y-31464342D02*
X165185713Y-31559580D01*
X165185713Y-31559580D02*
X165138094Y-31607200D01*
X165138094Y-31607200D02*
X165042856Y-31654819D01*
X165042856Y-31654819D02*
X164852380Y-31654819D01*
X164852380Y-31654819D02*
X164757142Y-31607200D01*
X164757142Y-31607200D02*
X164709523Y-31559580D01*
X164709523Y-31559580D02*
X164661904Y-31464342D01*
X164661904Y-31464342D02*
X164661904Y-30654819D01*
X164328570Y-30654819D02*
X163995237Y-31654819D01*
X163995237Y-31654819D02*
X163661904Y-30654819D01*
X163566666Y-31750057D02*
X162804761Y-31750057D01*
X162566665Y-31654819D02*
X162566665Y-30654819D01*
X162566665Y-30654819D02*
X162328570Y-30654819D01*
X162328570Y-30654819D02*
X162185713Y-30702438D01*
X162185713Y-30702438D02*
X162090475Y-30797676D01*
X162090475Y-30797676D02*
X162042856Y-30892914D01*
X162042856Y-30892914D02*
X161995237Y-31083390D01*
X161995237Y-31083390D02*
X161995237Y-31226247D01*
X161995237Y-31226247D02*
X162042856Y-31416723D01*
X162042856Y-31416723D02*
X162090475Y-31511961D01*
X162090475Y-31511961D02*
X162185713Y-31607200D01*
X162185713Y-31607200D02*
X162328570Y-31654819D01*
X162328570Y-31654819D02*
X162566665Y-31654819D01*
X161566665Y-31654819D02*
X161566665Y-30654819D01*
X161138094Y-31607200D02*
X160995237Y-31654819D01*
X160995237Y-31654819D02*
X160757142Y-31654819D01*
X160757142Y-31654819D02*
X160661904Y-31607200D01*
X160661904Y-31607200D02*
X160614285Y-31559580D01*
X160614285Y-31559580D02*
X160566666Y-31464342D01*
X160566666Y-31464342D02*
X160566666Y-31369104D01*
X160566666Y-31369104D02*
X160614285Y-31273866D01*
X160614285Y-31273866D02*
X160661904Y-31226247D01*
X160661904Y-31226247D02*
X160757142Y-31178628D01*
X160757142Y-31178628D02*
X160947618Y-31131009D01*
X160947618Y-31131009D02*
X161042856Y-31083390D01*
X161042856Y-31083390D02*
X161090475Y-31035771D01*
X161090475Y-31035771D02*
X161138094Y-30940533D01*
X161138094Y-30940533D02*
X161138094Y-30845295D01*
X161138094Y-30845295D02*
X161090475Y-30750057D01*
X161090475Y-30750057D02*
X161042856Y-30702438D01*
X161042856Y-30702438D02*
X160947618Y-30654819D01*
X160947618Y-30654819D02*
X160709523Y-30654819D01*
X160709523Y-30654819D02*
X160566666Y-30702438D01*
X159566666Y-31559580D02*
X159614285Y-31607200D01*
X159614285Y-31607200D02*
X159757142Y-31654819D01*
X159757142Y-31654819D02*
X159852380Y-31654819D01*
X159852380Y-31654819D02*
X159995237Y-31607200D01*
X159995237Y-31607200D02*
X160090475Y-31511961D01*
X160090475Y-31511961D02*
X160138094Y-31416723D01*
X160138094Y-31416723D02*
X160185713Y-31226247D01*
X160185713Y-31226247D02*
X160185713Y-31083390D01*
X160185713Y-31083390D02*
X160138094Y-30892914D01*
X160138094Y-30892914D02*
X160090475Y-30797676D01*
X160090475Y-30797676D02*
X159995237Y-30702438D01*
X159995237Y-30702438D02*
X159852380Y-30654819D01*
X159852380Y-30654819D02*
X159757142Y-30654819D01*
X159757142Y-30654819D02*
X159614285Y-30702438D01*
X159614285Y-30702438D02*
X159566666Y-30750057D01*
X159138094Y-31654819D02*
X159138094Y-30654819D01*
X159138094Y-31131009D02*
X158566666Y-31131009D01*
X158566666Y-31654819D02*
X158566666Y-30654819D01*
X166180951Y-113373866D02*
X165419047Y-113373866D01*
X165799999Y-113754819D02*
X165799999Y-112992914D01*
X173380951Y-113373866D02*
X172619047Y-113373866D01*
X111233333Y-30954819D02*
X111233333Y-31669104D01*
X111233333Y-31669104D02*
X111280952Y-31811961D01*
X111280952Y-31811961D02*
X111376190Y-31907200D01*
X111376190Y-31907200D02*
X111519047Y-31954819D01*
X111519047Y-31954819D02*
X111614285Y-31954819D01*
X110757142Y-31954819D02*
X110757142Y-30954819D01*
X110757142Y-30954819D02*
X110376190Y-30954819D01*
X110376190Y-30954819D02*
X110280952Y-31002438D01*
X110280952Y-31002438D02*
X110233333Y-31050057D01*
X110233333Y-31050057D02*
X110185714Y-31145295D01*
X110185714Y-31145295D02*
X110185714Y-31288152D01*
X110185714Y-31288152D02*
X110233333Y-31383390D01*
X110233333Y-31383390D02*
X110280952Y-31431009D01*
X110280952Y-31431009D02*
X110376190Y-31478628D01*
X110376190Y-31478628D02*
X110757142Y-31478628D01*
X109328571Y-30954819D02*
X109519047Y-30954819D01*
X109519047Y-30954819D02*
X109614285Y-31002438D01*
X109614285Y-31002438D02*
X109661904Y-31050057D01*
X109661904Y-31050057D02*
X109757142Y-31192914D01*
X109757142Y-31192914D02*
X109804761Y-31383390D01*
X109804761Y-31383390D02*
X109804761Y-31764342D01*
X109804761Y-31764342D02*
X109757142Y-31859580D01*
X109757142Y-31859580D02*
X109709523Y-31907200D01*
X109709523Y-31907200D02*
X109614285Y-31954819D01*
X109614285Y-31954819D02*
X109423809Y-31954819D01*
X109423809Y-31954819D02*
X109328571Y-31907200D01*
X109328571Y-31907200D02*
X109280952Y-31859580D01*
X109280952Y-31859580D02*
X109233333Y-31764342D01*
X109233333Y-31764342D02*
X109233333Y-31526247D01*
X109233333Y-31526247D02*
X109280952Y-31431009D01*
X109280952Y-31431009D02*
X109328571Y-31383390D01*
X109328571Y-31383390D02*
X109423809Y-31335771D01*
X109423809Y-31335771D02*
X109614285Y-31335771D01*
X109614285Y-31335771D02*
X109709523Y-31383390D01*
X109709523Y-31383390D02*
X109757142Y-31431009D01*
X109757142Y-31431009D02*
X109804761Y-31526247D01*
X102114285Y-31854819D02*
X102685713Y-31854819D01*
X102399999Y-31854819D02*
X102399999Y-30854819D01*
X102399999Y-30854819D02*
X102495237Y-30997676D01*
X102495237Y-30997676D02*
X102590475Y-31092914D01*
X102590475Y-31092914D02*
X102685713Y-31140533D01*
X107933332Y-30854819D02*
X107314285Y-30854819D01*
X107314285Y-30854819D02*
X107647618Y-31235771D01*
X107647618Y-31235771D02*
X107504761Y-31235771D01*
X107504761Y-31235771D02*
X107409523Y-31283390D01*
X107409523Y-31283390D02*
X107361904Y-31331009D01*
X107361904Y-31331009D02*
X107314285Y-31426247D01*
X107314285Y-31426247D02*
X107314285Y-31664342D01*
X107314285Y-31664342D02*
X107361904Y-31759580D01*
X107361904Y-31759580D02*
X107409523Y-31807200D01*
X107409523Y-31807200D02*
X107504761Y-31854819D01*
X107504761Y-31854819D02*
X107790475Y-31854819D01*
X107790475Y-31854819D02*
X107885713Y-31807200D01*
X107885713Y-31807200D02*
X107933332Y-31759580D01*
X168242857Y-129659580D02*
X168290476Y-129707200D01*
X168290476Y-129707200D02*
X168433333Y-129754819D01*
X168433333Y-129754819D02*
X168528571Y-129754819D01*
X168528571Y-129754819D02*
X168671428Y-129707200D01*
X168671428Y-129707200D02*
X168766666Y-129611961D01*
X168766666Y-129611961D02*
X168814285Y-129516723D01*
X168814285Y-129516723D02*
X168861904Y-129326247D01*
X168861904Y-129326247D02*
X168861904Y-129183390D01*
X168861904Y-129183390D02*
X168814285Y-128992914D01*
X168814285Y-128992914D02*
X168766666Y-128897676D01*
X168766666Y-128897676D02*
X168671428Y-128802438D01*
X168671428Y-128802438D02*
X168528571Y-128754819D01*
X168528571Y-128754819D02*
X168433333Y-128754819D01*
X168433333Y-128754819D02*
X168290476Y-128802438D01*
X168290476Y-128802438D02*
X168242857Y-128850057D01*
X167290476Y-129754819D02*
X167861904Y-129754819D01*
X167576190Y-129754819D02*
X167576190Y-128754819D01*
X167576190Y-128754819D02*
X167671428Y-128897676D01*
X167671428Y-128897676D02*
X167766666Y-128992914D01*
X167766666Y-128992914D02*
X167861904Y-129040533D01*
X166957142Y-128754819D02*
X166338095Y-128754819D01*
X166338095Y-128754819D02*
X166671428Y-129135771D01*
X166671428Y-129135771D02*
X166528571Y-129135771D01*
X166528571Y-129135771D02*
X166433333Y-129183390D01*
X166433333Y-129183390D02*
X166385714Y-129231009D01*
X166385714Y-129231009D02*
X166338095Y-129326247D01*
X166338095Y-129326247D02*
X166338095Y-129564342D01*
X166338095Y-129564342D02*
X166385714Y-129659580D01*
X166385714Y-129659580D02*
X166433333Y-129707200D01*
X166433333Y-129707200D02*
X166528571Y-129754819D01*
X166528571Y-129754819D02*
X166814285Y-129754819D01*
X166814285Y-129754819D02*
X166909523Y-129707200D01*
X166909523Y-129707200D02*
X166957142Y-129659580D01*
X160442857Y-124104819D02*
X160776190Y-123628628D01*
X161014285Y-124104819D02*
X161014285Y-123104819D01*
X161014285Y-123104819D02*
X160633333Y-123104819D01*
X160633333Y-123104819D02*
X160538095Y-123152438D01*
X160538095Y-123152438D02*
X160490476Y-123200057D01*
X160490476Y-123200057D02*
X160442857Y-123295295D01*
X160442857Y-123295295D02*
X160442857Y-123438152D01*
X160442857Y-123438152D02*
X160490476Y-123533390D01*
X160490476Y-123533390D02*
X160538095Y-123581009D01*
X160538095Y-123581009D02*
X160633333Y-123628628D01*
X160633333Y-123628628D02*
X161014285Y-123628628D01*
X159490476Y-124104819D02*
X160061904Y-124104819D01*
X159776190Y-124104819D02*
X159776190Y-123104819D01*
X159776190Y-123104819D02*
X159871428Y-123247676D01*
X159871428Y-123247676D02*
X159966666Y-123342914D01*
X159966666Y-123342914D02*
X160061904Y-123390533D01*
X158919047Y-123533390D02*
X159014285Y-123485771D01*
X159014285Y-123485771D02*
X159061904Y-123438152D01*
X159061904Y-123438152D02*
X159109523Y-123342914D01*
X159109523Y-123342914D02*
X159109523Y-123295295D01*
X159109523Y-123295295D02*
X159061904Y-123200057D01*
X159061904Y-123200057D02*
X159014285Y-123152438D01*
X159014285Y-123152438D02*
X158919047Y-123104819D01*
X158919047Y-123104819D02*
X158728571Y-123104819D01*
X158728571Y-123104819D02*
X158633333Y-123152438D01*
X158633333Y-123152438D02*
X158585714Y-123200057D01*
X158585714Y-123200057D02*
X158538095Y-123295295D01*
X158538095Y-123295295D02*
X158538095Y-123342914D01*
X158538095Y-123342914D02*
X158585714Y-123438152D01*
X158585714Y-123438152D02*
X158633333Y-123485771D01*
X158633333Y-123485771D02*
X158728571Y-123533390D01*
X158728571Y-123533390D02*
X158919047Y-123533390D01*
X158919047Y-123533390D02*
X159014285Y-123581009D01*
X159014285Y-123581009D02*
X159061904Y-123628628D01*
X159061904Y-123628628D02*
X159109523Y-123723866D01*
X159109523Y-123723866D02*
X159109523Y-123914342D01*
X159109523Y-123914342D02*
X159061904Y-124009580D01*
X159061904Y-124009580D02*
X159014285Y-124057200D01*
X159014285Y-124057200D02*
X158919047Y-124104819D01*
X158919047Y-124104819D02*
X158728571Y-124104819D01*
X158728571Y-124104819D02*
X158633333Y-124057200D01*
X158633333Y-124057200D02*
X158585714Y-124009580D01*
X158585714Y-124009580D02*
X158538095Y-123914342D01*
X158538095Y-123914342D02*
X158538095Y-123723866D01*
X158538095Y-123723866D02*
X158585714Y-123628628D01*
X158585714Y-123628628D02*
X158633333Y-123581009D01*
X158633333Y-123581009D02*
X158728571Y-123533390D01*
X146542857Y-111881883D02*
X146876190Y-111405692D01*
X147114285Y-111881883D02*
X147114285Y-110881883D01*
X147114285Y-110881883D02*
X146733333Y-110881883D01*
X146733333Y-110881883D02*
X146638095Y-110929502D01*
X146638095Y-110929502D02*
X146590476Y-110977121D01*
X146590476Y-110977121D02*
X146542857Y-111072359D01*
X146542857Y-111072359D02*
X146542857Y-111215216D01*
X146542857Y-111215216D02*
X146590476Y-111310454D01*
X146590476Y-111310454D02*
X146638095Y-111358073D01*
X146638095Y-111358073D02*
X146733333Y-111405692D01*
X146733333Y-111405692D02*
X147114285Y-111405692D01*
X145638095Y-110881883D02*
X146114285Y-110881883D01*
X146114285Y-110881883D02*
X146161904Y-111358073D01*
X146161904Y-111358073D02*
X146114285Y-111310454D01*
X146114285Y-111310454D02*
X146019047Y-111262835D01*
X146019047Y-111262835D02*
X145780952Y-111262835D01*
X145780952Y-111262835D02*
X145685714Y-111310454D01*
X145685714Y-111310454D02*
X145638095Y-111358073D01*
X145638095Y-111358073D02*
X145590476Y-111453311D01*
X145590476Y-111453311D02*
X145590476Y-111691406D01*
X145590476Y-111691406D02*
X145638095Y-111786644D01*
X145638095Y-111786644D02*
X145685714Y-111834264D01*
X145685714Y-111834264D02*
X145780952Y-111881883D01*
X145780952Y-111881883D02*
X146019047Y-111881883D01*
X146019047Y-111881883D02*
X146114285Y-111834264D01*
X146114285Y-111834264D02*
X146161904Y-111786644D01*
X144685714Y-110881883D02*
X145161904Y-110881883D01*
X145161904Y-110881883D02*
X145209523Y-111358073D01*
X145209523Y-111358073D02*
X145161904Y-111310454D01*
X145161904Y-111310454D02*
X145066666Y-111262835D01*
X145066666Y-111262835D02*
X144828571Y-111262835D01*
X144828571Y-111262835D02*
X144733333Y-111310454D01*
X144733333Y-111310454D02*
X144685714Y-111358073D01*
X144685714Y-111358073D02*
X144638095Y-111453311D01*
X144638095Y-111453311D02*
X144638095Y-111691406D01*
X144638095Y-111691406D02*
X144685714Y-111786644D01*
X144685714Y-111786644D02*
X144733333Y-111834264D01*
X144733333Y-111834264D02*
X144828571Y-111881883D01*
X144828571Y-111881883D02*
X145066666Y-111881883D01*
X145066666Y-111881883D02*
X145161904Y-111834264D01*
X145161904Y-111834264D02*
X145209523Y-111786644D01*
X157442857Y-34504819D02*
X157776190Y-34028628D01*
X158014285Y-34504819D02*
X158014285Y-33504819D01*
X158014285Y-33504819D02*
X157633333Y-33504819D01*
X157633333Y-33504819D02*
X157538095Y-33552438D01*
X157538095Y-33552438D02*
X157490476Y-33600057D01*
X157490476Y-33600057D02*
X157442857Y-33695295D01*
X157442857Y-33695295D02*
X157442857Y-33838152D01*
X157442857Y-33838152D02*
X157490476Y-33933390D01*
X157490476Y-33933390D02*
X157538095Y-33981009D01*
X157538095Y-33981009D02*
X157633333Y-34028628D01*
X157633333Y-34028628D02*
X158014285Y-34028628D01*
X156490476Y-34504819D02*
X157061904Y-34504819D01*
X156776190Y-34504819D02*
X156776190Y-33504819D01*
X156776190Y-33504819D02*
X156871428Y-33647676D01*
X156871428Y-33647676D02*
X156966666Y-33742914D01*
X156966666Y-33742914D02*
X157061904Y-33790533D01*
X156109523Y-33600057D02*
X156061904Y-33552438D01*
X156061904Y-33552438D02*
X155966666Y-33504819D01*
X155966666Y-33504819D02*
X155728571Y-33504819D01*
X155728571Y-33504819D02*
X155633333Y-33552438D01*
X155633333Y-33552438D02*
X155585714Y-33600057D01*
X155585714Y-33600057D02*
X155538095Y-33695295D01*
X155538095Y-33695295D02*
X155538095Y-33790533D01*
X155538095Y-33790533D02*
X155585714Y-33933390D01*
X155585714Y-33933390D02*
X156157142Y-34504819D01*
X156157142Y-34504819D02*
X155538095Y-34504819D01*
X168438094Y-41454819D02*
X168438094Y-40454819D01*
X168438094Y-40454819D02*
X168199999Y-40454819D01*
X168199999Y-40454819D02*
X168057142Y-40502438D01*
X168057142Y-40502438D02*
X167961904Y-40597676D01*
X167961904Y-40597676D02*
X167914285Y-40692914D01*
X167914285Y-40692914D02*
X167866666Y-40883390D01*
X167866666Y-40883390D02*
X167866666Y-41026247D01*
X167866666Y-41026247D02*
X167914285Y-41216723D01*
X167914285Y-41216723D02*
X167961904Y-41311961D01*
X167961904Y-41311961D02*
X168057142Y-41407200D01*
X168057142Y-41407200D02*
X168199999Y-41454819D01*
X168199999Y-41454819D02*
X168438094Y-41454819D01*
X166961904Y-40454819D02*
X167438094Y-40454819D01*
X167438094Y-40454819D02*
X167485713Y-40931009D01*
X167485713Y-40931009D02*
X167438094Y-40883390D01*
X167438094Y-40883390D02*
X167342856Y-40835771D01*
X167342856Y-40835771D02*
X167104761Y-40835771D01*
X167104761Y-40835771D02*
X167009523Y-40883390D01*
X167009523Y-40883390D02*
X166961904Y-40931009D01*
X166961904Y-40931009D02*
X166914285Y-41026247D01*
X166914285Y-41026247D02*
X166914285Y-41264342D01*
X166914285Y-41264342D02*
X166961904Y-41359580D01*
X166961904Y-41359580D02*
X167009523Y-41407200D01*
X167009523Y-41407200D02*
X167104761Y-41454819D01*
X167104761Y-41454819D02*
X167342856Y-41454819D01*
X167342856Y-41454819D02*
X167438094Y-41407200D01*
X167438094Y-41407200D02*
X167485713Y-41359580D01*
X151266666Y-134572319D02*
X151599999Y-134096128D01*
X151838094Y-134572319D02*
X151838094Y-133572319D01*
X151838094Y-133572319D02*
X151457142Y-133572319D01*
X151457142Y-133572319D02*
X151361904Y-133619938D01*
X151361904Y-133619938D02*
X151314285Y-133667557D01*
X151314285Y-133667557D02*
X151266666Y-133762795D01*
X151266666Y-133762795D02*
X151266666Y-133905652D01*
X151266666Y-133905652D02*
X151314285Y-134000890D01*
X151314285Y-134000890D02*
X151361904Y-134048509D01*
X151361904Y-134048509D02*
X151457142Y-134096128D01*
X151457142Y-134096128D02*
X151838094Y-134096128D01*
X150933332Y-133572319D02*
X150266666Y-133572319D01*
X150266666Y-133572319D02*
X150695237Y-134572319D01*
X163966666Y-134672319D02*
X164299999Y-134196128D01*
X164538094Y-134672319D02*
X164538094Y-133672319D01*
X164538094Y-133672319D02*
X164157142Y-133672319D01*
X164157142Y-133672319D02*
X164061904Y-133719938D01*
X164061904Y-133719938D02*
X164014285Y-133767557D01*
X164014285Y-133767557D02*
X163966666Y-133862795D01*
X163966666Y-133862795D02*
X163966666Y-134005652D01*
X163966666Y-134005652D02*
X164014285Y-134100890D01*
X164014285Y-134100890D02*
X164061904Y-134148509D01*
X164061904Y-134148509D02*
X164157142Y-134196128D01*
X164157142Y-134196128D02*
X164538094Y-134196128D01*
X163014285Y-134672319D02*
X163585713Y-134672319D01*
X163299999Y-134672319D02*
X163299999Y-133672319D01*
X163299999Y-133672319D02*
X163395237Y-133815176D01*
X163395237Y-133815176D02*
X163490475Y-133910414D01*
X163490475Y-133910414D02*
X163585713Y-133958033D01*
X177642857Y-133689580D02*
X177690476Y-133737200D01*
X177690476Y-133737200D02*
X177833333Y-133784819D01*
X177833333Y-133784819D02*
X177928571Y-133784819D01*
X177928571Y-133784819D02*
X178071428Y-133737200D01*
X178071428Y-133737200D02*
X178166666Y-133641961D01*
X178166666Y-133641961D02*
X178214285Y-133546723D01*
X178214285Y-133546723D02*
X178261904Y-133356247D01*
X178261904Y-133356247D02*
X178261904Y-133213390D01*
X178261904Y-133213390D02*
X178214285Y-133022914D01*
X178214285Y-133022914D02*
X178166666Y-132927676D01*
X178166666Y-132927676D02*
X178071428Y-132832438D01*
X178071428Y-132832438D02*
X177928571Y-132784819D01*
X177928571Y-132784819D02*
X177833333Y-132784819D01*
X177833333Y-132784819D02*
X177690476Y-132832438D01*
X177690476Y-132832438D02*
X177642857Y-132880057D01*
X176690476Y-133784819D02*
X177261904Y-133784819D01*
X176976190Y-133784819D02*
X176976190Y-132784819D01*
X176976190Y-132784819D02*
X177071428Y-132927676D01*
X177071428Y-132927676D02*
X177166666Y-133022914D01*
X177166666Y-133022914D02*
X177261904Y-133070533D01*
X176214285Y-133784819D02*
X176023809Y-133784819D01*
X176023809Y-133784819D02*
X175928571Y-133737200D01*
X175928571Y-133737200D02*
X175880952Y-133689580D01*
X175880952Y-133689580D02*
X175785714Y-133546723D01*
X175785714Y-133546723D02*
X175738095Y-133356247D01*
X175738095Y-133356247D02*
X175738095Y-132975295D01*
X175738095Y-132975295D02*
X175785714Y-132880057D01*
X175785714Y-132880057D02*
X175833333Y-132832438D01*
X175833333Y-132832438D02*
X175928571Y-132784819D01*
X175928571Y-132784819D02*
X176119047Y-132784819D01*
X176119047Y-132784819D02*
X176214285Y-132832438D01*
X176214285Y-132832438D02*
X176261904Y-132880057D01*
X176261904Y-132880057D02*
X176309523Y-132975295D01*
X176309523Y-132975295D02*
X176309523Y-133213390D01*
X176309523Y-133213390D02*
X176261904Y-133308628D01*
X176261904Y-133308628D02*
X176214285Y-133356247D01*
X176214285Y-133356247D02*
X176119047Y-133403866D01*
X176119047Y-133403866D02*
X175928571Y-133403866D01*
X175928571Y-133403866D02*
X175833333Y-133356247D01*
X175833333Y-133356247D02*
X175785714Y-133308628D01*
X175785714Y-133308628D02*
X175738095Y-133213390D01*
X162738094Y-51854819D02*
X162738094Y-50854819D01*
X162738094Y-50854819D02*
X162499999Y-50854819D01*
X162499999Y-50854819D02*
X162357142Y-50902438D01*
X162357142Y-50902438D02*
X162261904Y-50997676D01*
X162261904Y-50997676D02*
X162214285Y-51092914D01*
X162214285Y-51092914D02*
X162166666Y-51283390D01*
X162166666Y-51283390D02*
X162166666Y-51426247D01*
X162166666Y-51426247D02*
X162214285Y-51616723D01*
X162214285Y-51616723D02*
X162261904Y-51711961D01*
X162261904Y-51711961D02*
X162357142Y-51807200D01*
X162357142Y-51807200D02*
X162499999Y-51854819D01*
X162499999Y-51854819D02*
X162738094Y-51854819D01*
X161309523Y-50854819D02*
X161499999Y-50854819D01*
X161499999Y-50854819D02*
X161595237Y-50902438D01*
X161595237Y-50902438D02*
X161642856Y-50950057D01*
X161642856Y-50950057D02*
X161738094Y-51092914D01*
X161738094Y-51092914D02*
X161785713Y-51283390D01*
X161785713Y-51283390D02*
X161785713Y-51664342D01*
X161785713Y-51664342D02*
X161738094Y-51759580D01*
X161738094Y-51759580D02*
X161690475Y-51807200D01*
X161690475Y-51807200D02*
X161595237Y-51854819D01*
X161595237Y-51854819D02*
X161404761Y-51854819D01*
X161404761Y-51854819D02*
X161309523Y-51807200D01*
X161309523Y-51807200D02*
X161261904Y-51759580D01*
X161261904Y-51759580D02*
X161214285Y-51664342D01*
X161214285Y-51664342D02*
X161214285Y-51426247D01*
X161214285Y-51426247D02*
X161261904Y-51331009D01*
X161261904Y-51331009D02*
X161309523Y-51283390D01*
X161309523Y-51283390D02*
X161404761Y-51235771D01*
X161404761Y-51235771D02*
X161595237Y-51235771D01*
X161595237Y-51235771D02*
X161690475Y-51283390D01*
X161690475Y-51283390D02*
X161738094Y-51331009D01*
X161738094Y-51331009D02*
X161785713Y-51426247D01*
X140742857Y-108659580D02*
X140790476Y-108707200D01*
X140790476Y-108707200D02*
X140933333Y-108754819D01*
X140933333Y-108754819D02*
X141028571Y-108754819D01*
X141028571Y-108754819D02*
X141171428Y-108707200D01*
X141171428Y-108707200D02*
X141266666Y-108611961D01*
X141266666Y-108611961D02*
X141314285Y-108516723D01*
X141314285Y-108516723D02*
X141361904Y-108326247D01*
X141361904Y-108326247D02*
X141361904Y-108183390D01*
X141361904Y-108183390D02*
X141314285Y-107992914D01*
X141314285Y-107992914D02*
X141266666Y-107897676D01*
X141266666Y-107897676D02*
X141171428Y-107802438D01*
X141171428Y-107802438D02*
X141028571Y-107754819D01*
X141028571Y-107754819D02*
X140933333Y-107754819D01*
X140933333Y-107754819D02*
X140790476Y-107802438D01*
X140790476Y-107802438D02*
X140742857Y-107850057D01*
X140409523Y-107754819D02*
X139790476Y-107754819D01*
X139790476Y-107754819D02*
X140123809Y-108135771D01*
X140123809Y-108135771D02*
X139980952Y-108135771D01*
X139980952Y-108135771D02*
X139885714Y-108183390D01*
X139885714Y-108183390D02*
X139838095Y-108231009D01*
X139838095Y-108231009D02*
X139790476Y-108326247D01*
X139790476Y-108326247D02*
X139790476Y-108564342D01*
X139790476Y-108564342D02*
X139838095Y-108659580D01*
X139838095Y-108659580D02*
X139885714Y-108707200D01*
X139885714Y-108707200D02*
X139980952Y-108754819D01*
X139980952Y-108754819D02*
X140266666Y-108754819D01*
X140266666Y-108754819D02*
X140361904Y-108707200D01*
X140361904Y-108707200D02*
X140409523Y-108659580D01*
X139457142Y-107754819D02*
X138790476Y-107754819D01*
X138790476Y-107754819D02*
X139219047Y-108754819D01*
X153142857Y-40554819D02*
X153476190Y-40078628D01*
X153714285Y-40554819D02*
X153714285Y-39554819D01*
X153714285Y-39554819D02*
X153333333Y-39554819D01*
X153333333Y-39554819D02*
X153238095Y-39602438D01*
X153238095Y-39602438D02*
X153190476Y-39650057D01*
X153190476Y-39650057D02*
X153142857Y-39745295D01*
X153142857Y-39745295D02*
X153142857Y-39888152D01*
X153142857Y-39888152D02*
X153190476Y-39983390D01*
X153190476Y-39983390D02*
X153238095Y-40031009D01*
X153238095Y-40031009D02*
X153333333Y-40078628D01*
X153333333Y-40078628D02*
X153714285Y-40078628D01*
X152190476Y-40554819D02*
X152761904Y-40554819D01*
X152476190Y-40554819D02*
X152476190Y-39554819D01*
X152476190Y-39554819D02*
X152571428Y-39697676D01*
X152571428Y-39697676D02*
X152666666Y-39792914D01*
X152666666Y-39792914D02*
X152761904Y-39840533D01*
X151857142Y-39554819D02*
X151238095Y-39554819D01*
X151238095Y-39554819D02*
X151571428Y-39935771D01*
X151571428Y-39935771D02*
X151428571Y-39935771D01*
X151428571Y-39935771D02*
X151333333Y-39983390D01*
X151333333Y-39983390D02*
X151285714Y-40031009D01*
X151285714Y-40031009D02*
X151238095Y-40126247D01*
X151238095Y-40126247D02*
X151238095Y-40364342D01*
X151238095Y-40364342D02*
X151285714Y-40459580D01*
X151285714Y-40459580D02*
X151333333Y-40507200D01*
X151333333Y-40507200D02*
X151428571Y-40554819D01*
X151428571Y-40554819D02*
X151714285Y-40554819D01*
X151714285Y-40554819D02*
X151809523Y-40507200D01*
X151809523Y-40507200D02*
X151857142Y-40459580D01*
X170738094Y-51854819D02*
X170738094Y-50854819D01*
X170738094Y-50854819D02*
X170499999Y-50854819D01*
X170499999Y-50854819D02*
X170357142Y-50902438D01*
X170357142Y-50902438D02*
X170261904Y-50997676D01*
X170261904Y-50997676D02*
X170214285Y-51092914D01*
X170214285Y-51092914D02*
X170166666Y-51283390D01*
X170166666Y-51283390D02*
X170166666Y-51426247D01*
X170166666Y-51426247D02*
X170214285Y-51616723D01*
X170214285Y-51616723D02*
X170261904Y-51711961D01*
X170261904Y-51711961D02*
X170357142Y-51807200D01*
X170357142Y-51807200D02*
X170499999Y-51854819D01*
X170499999Y-51854819D02*
X170738094Y-51854819D01*
X169309523Y-51188152D02*
X169309523Y-51854819D01*
X169547618Y-50807200D02*
X169785713Y-51521485D01*
X169785713Y-51521485D02*
X169166666Y-51521485D01*
X126642857Y-120859580D02*
X126690476Y-120907200D01*
X126690476Y-120907200D02*
X126833333Y-120954819D01*
X126833333Y-120954819D02*
X126928571Y-120954819D01*
X126928571Y-120954819D02*
X127071428Y-120907200D01*
X127071428Y-120907200D02*
X127166666Y-120811961D01*
X127166666Y-120811961D02*
X127214285Y-120716723D01*
X127214285Y-120716723D02*
X127261904Y-120526247D01*
X127261904Y-120526247D02*
X127261904Y-120383390D01*
X127261904Y-120383390D02*
X127214285Y-120192914D01*
X127214285Y-120192914D02*
X127166666Y-120097676D01*
X127166666Y-120097676D02*
X127071428Y-120002438D01*
X127071428Y-120002438D02*
X126928571Y-119954819D01*
X126928571Y-119954819D02*
X126833333Y-119954819D01*
X126833333Y-119954819D02*
X126690476Y-120002438D01*
X126690476Y-120002438D02*
X126642857Y-120050057D01*
X126261904Y-120050057D02*
X126214285Y-120002438D01*
X126214285Y-120002438D02*
X126119047Y-119954819D01*
X126119047Y-119954819D02*
X125880952Y-119954819D01*
X125880952Y-119954819D02*
X125785714Y-120002438D01*
X125785714Y-120002438D02*
X125738095Y-120050057D01*
X125738095Y-120050057D02*
X125690476Y-120145295D01*
X125690476Y-120145295D02*
X125690476Y-120240533D01*
X125690476Y-120240533D02*
X125738095Y-120383390D01*
X125738095Y-120383390D02*
X126309523Y-120954819D01*
X126309523Y-120954819D02*
X125690476Y-120954819D01*
X125357142Y-119954819D02*
X124690476Y-119954819D01*
X124690476Y-119954819D02*
X125119047Y-120954819D01*
X153042857Y-83854819D02*
X153376190Y-83378628D01*
X153614285Y-83854819D02*
X153614285Y-82854819D01*
X153614285Y-82854819D02*
X153233333Y-82854819D01*
X153233333Y-82854819D02*
X153138095Y-82902438D01*
X153138095Y-82902438D02*
X153090476Y-82950057D01*
X153090476Y-82950057D02*
X153042857Y-83045295D01*
X153042857Y-83045295D02*
X153042857Y-83188152D01*
X153042857Y-83188152D02*
X153090476Y-83283390D01*
X153090476Y-83283390D02*
X153138095Y-83331009D01*
X153138095Y-83331009D02*
X153233333Y-83378628D01*
X153233333Y-83378628D02*
X153614285Y-83378628D01*
X152185714Y-83188152D02*
X152185714Y-83854819D01*
X152423809Y-82807200D02*
X152661904Y-83521485D01*
X152661904Y-83521485D02*
X152042857Y-83521485D01*
X151138095Y-83854819D02*
X151709523Y-83854819D01*
X151423809Y-83854819D02*
X151423809Y-82854819D01*
X151423809Y-82854819D02*
X151519047Y-82997676D01*
X151519047Y-82997676D02*
X151614285Y-83092914D01*
X151614285Y-83092914D02*
X151709523Y-83140533D01*
X176142857Y-60859580D02*
X176190476Y-60907200D01*
X176190476Y-60907200D02*
X176333333Y-60954819D01*
X176333333Y-60954819D02*
X176428571Y-60954819D01*
X176428571Y-60954819D02*
X176571428Y-60907200D01*
X176571428Y-60907200D02*
X176666666Y-60811961D01*
X176666666Y-60811961D02*
X176714285Y-60716723D01*
X176714285Y-60716723D02*
X176761904Y-60526247D01*
X176761904Y-60526247D02*
X176761904Y-60383390D01*
X176761904Y-60383390D02*
X176714285Y-60192914D01*
X176714285Y-60192914D02*
X176666666Y-60097676D01*
X176666666Y-60097676D02*
X176571428Y-60002438D01*
X176571428Y-60002438D02*
X176428571Y-59954819D01*
X176428571Y-59954819D02*
X176333333Y-59954819D01*
X176333333Y-59954819D02*
X176190476Y-60002438D01*
X176190476Y-60002438D02*
X176142857Y-60050057D01*
X175190476Y-60954819D02*
X175761904Y-60954819D01*
X175476190Y-60954819D02*
X175476190Y-59954819D01*
X175476190Y-59954819D02*
X175571428Y-60097676D01*
X175571428Y-60097676D02*
X175666666Y-60192914D01*
X175666666Y-60192914D02*
X175761904Y-60240533D01*
X174571428Y-59954819D02*
X174476190Y-59954819D01*
X174476190Y-59954819D02*
X174380952Y-60002438D01*
X174380952Y-60002438D02*
X174333333Y-60050057D01*
X174333333Y-60050057D02*
X174285714Y-60145295D01*
X174285714Y-60145295D02*
X174238095Y-60335771D01*
X174238095Y-60335771D02*
X174238095Y-60573866D01*
X174238095Y-60573866D02*
X174285714Y-60764342D01*
X174285714Y-60764342D02*
X174333333Y-60859580D01*
X174333333Y-60859580D02*
X174380952Y-60907200D01*
X174380952Y-60907200D02*
X174476190Y-60954819D01*
X174476190Y-60954819D02*
X174571428Y-60954819D01*
X174571428Y-60954819D02*
X174666666Y-60907200D01*
X174666666Y-60907200D02*
X174714285Y-60859580D01*
X174714285Y-60859580D02*
X174761904Y-60764342D01*
X174761904Y-60764342D02*
X174809523Y-60573866D01*
X174809523Y-60573866D02*
X174809523Y-60335771D01*
X174809523Y-60335771D02*
X174761904Y-60145295D01*
X174761904Y-60145295D02*
X174714285Y-60050057D01*
X174714285Y-60050057D02*
X174666666Y-60002438D01*
X174666666Y-60002438D02*
X174571428Y-59954819D01*
X156538094Y-41454819D02*
X156538094Y-40454819D01*
X156538094Y-40454819D02*
X156299999Y-40454819D01*
X156299999Y-40454819D02*
X156157142Y-40502438D01*
X156157142Y-40502438D02*
X156061904Y-40597676D01*
X156061904Y-40597676D02*
X156014285Y-40692914D01*
X156014285Y-40692914D02*
X155966666Y-40883390D01*
X155966666Y-40883390D02*
X155966666Y-41026247D01*
X155966666Y-41026247D02*
X156014285Y-41216723D01*
X156014285Y-41216723D02*
X156061904Y-41311961D01*
X156061904Y-41311961D02*
X156157142Y-41407200D01*
X156157142Y-41407200D02*
X156299999Y-41454819D01*
X156299999Y-41454819D02*
X156538094Y-41454819D01*
X155490475Y-41454819D02*
X155299999Y-41454819D01*
X155299999Y-41454819D02*
X155204761Y-41407200D01*
X155204761Y-41407200D02*
X155157142Y-41359580D01*
X155157142Y-41359580D02*
X155061904Y-41216723D01*
X155061904Y-41216723D02*
X155014285Y-41026247D01*
X155014285Y-41026247D02*
X155014285Y-40645295D01*
X155014285Y-40645295D02*
X155061904Y-40550057D01*
X155061904Y-40550057D02*
X155109523Y-40502438D01*
X155109523Y-40502438D02*
X155204761Y-40454819D01*
X155204761Y-40454819D02*
X155395237Y-40454819D01*
X155395237Y-40454819D02*
X155490475Y-40502438D01*
X155490475Y-40502438D02*
X155538094Y-40550057D01*
X155538094Y-40550057D02*
X155585713Y-40645295D01*
X155585713Y-40645295D02*
X155585713Y-40883390D01*
X155585713Y-40883390D02*
X155538094Y-40978628D01*
X155538094Y-40978628D02*
X155490475Y-41026247D01*
X155490475Y-41026247D02*
X155395237Y-41073866D01*
X155395237Y-41073866D02*
X155204761Y-41073866D01*
X155204761Y-41073866D02*
X155109523Y-41026247D01*
X155109523Y-41026247D02*
X155061904Y-40978628D01*
X155061904Y-40978628D02*
X155014285Y-40883390D01*
X163938094Y-41554819D02*
X163938094Y-40554819D01*
X163938094Y-40554819D02*
X163699999Y-40554819D01*
X163699999Y-40554819D02*
X163557142Y-40602438D01*
X163557142Y-40602438D02*
X163461904Y-40697676D01*
X163461904Y-40697676D02*
X163414285Y-40792914D01*
X163414285Y-40792914D02*
X163366666Y-40983390D01*
X163366666Y-40983390D02*
X163366666Y-41126247D01*
X163366666Y-41126247D02*
X163414285Y-41316723D01*
X163414285Y-41316723D02*
X163461904Y-41411961D01*
X163461904Y-41411961D02*
X163557142Y-41507200D01*
X163557142Y-41507200D02*
X163699999Y-41554819D01*
X163699999Y-41554819D02*
X163938094Y-41554819D01*
X163033332Y-40554819D02*
X162366666Y-40554819D01*
X162366666Y-40554819D02*
X162795237Y-41554819D01*
X161295238Y-80350057D02*
X161390476Y-80302438D01*
X161390476Y-80302438D02*
X161485714Y-80207200D01*
X161485714Y-80207200D02*
X161628571Y-80064342D01*
X161628571Y-80064342D02*
X161723809Y-80016723D01*
X161723809Y-80016723D02*
X161819047Y-80016723D01*
X161771428Y-80254819D02*
X161866666Y-80207200D01*
X161866666Y-80207200D02*
X161961904Y-80111961D01*
X161961904Y-80111961D02*
X162009523Y-79921485D01*
X162009523Y-79921485D02*
X162009523Y-79588152D01*
X162009523Y-79588152D02*
X161961904Y-79397676D01*
X161961904Y-79397676D02*
X161866666Y-79302438D01*
X161866666Y-79302438D02*
X161771428Y-79254819D01*
X161771428Y-79254819D02*
X161580952Y-79254819D01*
X161580952Y-79254819D02*
X161485714Y-79302438D01*
X161485714Y-79302438D02*
X161390476Y-79397676D01*
X161390476Y-79397676D02*
X161342857Y-79588152D01*
X161342857Y-79588152D02*
X161342857Y-79921485D01*
X161342857Y-79921485D02*
X161390476Y-80111961D01*
X161390476Y-80111961D02*
X161485714Y-80207200D01*
X161485714Y-80207200D02*
X161580952Y-80254819D01*
X161580952Y-80254819D02*
X161771428Y-80254819D01*
X160961904Y-79350057D02*
X160914285Y-79302438D01*
X160914285Y-79302438D02*
X160819047Y-79254819D01*
X160819047Y-79254819D02*
X160580952Y-79254819D01*
X160580952Y-79254819D02*
X160485714Y-79302438D01*
X160485714Y-79302438D02*
X160438095Y-79350057D01*
X160438095Y-79350057D02*
X160390476Y-79445295D01*
X160390476Y-79445295D02*
X160390476Y-79540533D01*
X160390476Y-79540533D02*
X160438095Y-79683390D01*
X160438095Y-79683390D02*
X161009523Y-80254819D01*
X161009523Y-80254819D02*
X160390476Y-80254819D01*
X169142857Y-60859580D02*
X169190476Y-60907200D01*
X169190476Y-60907200D02*
X169333333Y-60954819D01*
X169333333Y-60954819D02*
X169428571Y-60954819D01*
X169428571Y-60954819D02*
X169571428Y-60907200D01*
X169571428Y-60907200D02*
X169666666Y-60811961D01*
X169666666Y-60811961D02*
X169714285Y-60716723D01*
X169714285Y-60716723D02*
X169761904Y-60526247D01*
X169761904Y-60526247D02*
X169761904Y-60383390D01*
X169761904Y-60383390D02*
X169714285Y-60192914D01*
X169714285Y-60192914D02*
X169666666Y-60097676D01*
X169666666Y-60097676D02*
X169571428Y-60002438D01*
X169571428Y-60002438D02*
X169428571Y-59954819D01*
X169428571Y-59954819D02*
X169333333Y-59954819D01*
X169333333Y-59954819D02*
X169190476Y-60002438D01*
X169190476Y-60002438D02*
X169142857Y-60050057D01*
X168190476Y-60954819D02*
X168761904Y-60954819D01*
X168476190Y-60954819D02*
X168476190Y-59954819D01*
X168476190Y-59954819D02*
X168571428Y-60097676D01*
X168571428Y-60097676D02*
X168666666Y-60192914D01*
X168666666Y-60192914D02*
X168761904Y-60240533D01*
X167809523Y-60050057D02*
X167761904Y-60002438D01*
X167761904Y-60002438D02*
X167666666Y-59954819D01*
X167666666Y-59954819D02*
X167428571Y-59954819D01*
X167428571Y-59954819D02*
X167333333Y-60002438D01*
X167333333Y-60002438D02*
X167285714Y-60050057D01*
X167285714Y-60050057D02*
X167238095Y-60145295D01*
X167238095Y-60145295D02*
X167238095Y-60240533D01*
X167238095Y-60240533D02*
X167285714Y-60383390D01*
X167285714Y-60383390D02*
X167857142Y-60954819D01*
X167857142Y-60954819D02*
X167238095Y-60954819D01*
X161342857Y-128354819D02*
X161676190Y-127878628D01*
X161914285Y-128354819D02*
X161914285Y-127354819D01*
X161914285Y-127354819D02*
X161533333Y-127354819D01*
X161533333Y-127354819D02*
X161438095Y-127402438D01*
X161438095Y-127402438D02*
X161390476Y-127450057D01*
X161390476Y-127450057D02*
X161342857Y-127545295D01*
X161342857Y-127545295D02*
X161342857Y-127688152D01*
X161342857Y-127688152D02*
X161390476Y-127783390D01*
X161390476Y-127783390D02*
X161438095Y-127831009D01*
X161438095Y-127831009D02*
X161533333Y-127878628D01*
X161533333Y-127878628D02*
X161914285Y-127878628D01*
X160390476Y-128354819D02*
X160961904Y-128354819D01*
X160676190Y-128354819D02*
X160676190Y-127354819D01*
X160676190Y-127354819D02*
X160771428Y-127497676D01*
X160771428Y-127497676D02*
X160866666Y-127592914D01*
X160866666Y-127592914D02*
X160961904Y-127640533D01*
X160057142Y-127354819D02*
X159390476Y-127354819D01*
X159390476Y-127354819D02*
X159819047Y-128354819D01*
X152142857Y-32854819D02*
X152476190Y-32378628D01*
X152714285Y-32854819D02*
X152714285Y-31854819D01*
X152714285Y-31854819D02*
X152333333Y-31854819D01*
X152333333Y-31854819D02*
X152238095Y-31902438D01*
X152238095Y-31902438D02*
X152190476Y-31950057D01*
X152190476Y-31950057D02*
X152142857Y-32045295D01*
X152142857Y-32045295D02*
X152142857Y-32188152D01*
X152142857Y-32188152D02*
X152190476Y-32283390D01*
X152190476Y-32283390D02*
X152238095Y-32331009D01*
X152238095Y-32331009D02*
X152333333Y-32378628D01*
X152333333Y-32378628D02*
X152714285Y-32378628D01*
X151190476Y-32854819D02*
X151761904Y-32854819D01*
X151476190Y-32854819D02*
X151476190Y-31854819D01*
X151476190Y-31854819D02*
X151571428Y-31997676D01*
X151571428Y-31997676D02*
X151666666Y-32092914D01*
X151666666Y-32092914D02*
X151761904Y-32140533D01*
X150333333Y-31854819D02*
X150523809Y-31854819D01*
X150523809Y-31854819D02*
X150619047Y-31902438D01*
X150619047Y-31902438D02*
X150666666Y-31950057D01*
X150666666Y-31950057D02*
X150761904Y-32092914D01*
X150761904Y-32092914D02*
X150809523Y-32283390D01*
X150809523Y-32283390D02*
X150809523Y-32664342D01*
X150809523Y-32664342D02*
X150761904Y-32759580D01*
X150761904Y-32759580D02*
X150714285Y-32807200D01*
X150714285Y-32807200D02*
X150619047Y-32854819D01*
X150619047Y-32854819D02*
X150428571Y-32854819D01*
X150428571Y-32854819D02*
X150333333Y-32807200D01*
X150333333Y-32807200D02*
X150285714Y-32759580D01*
X150285714Y-32759580D02*
X150238095Y-32664342D01*
X150238095Y-32664342D02*
X150238095Y-32426247D01*
X150238095Y-32426247D02*
X150285714Y-32331009D01*
X150285714Y-32331009D02*
X150333333Y-32283390D01*
X150333333Y-32283390D02*
X150428571Y-32235771D01*
X150428571Y-32235771D02*
X150619047Y-32235771D01*
X150619047Y-32235771D02*
X150714285Y-32283390D01*
X150714285Y-32283390D02*
X150761904Y-32331009D01*
X150761904Y-32331009D02*
X150809523Y-32426247D01*
X162642857Y-76954819D02*
X162976190Y-76478628D01*
X163214285Y-76954819D02*
X163214285Y-75954819D01*
X163214285Y-75954819D02*
X162833333Y-75954819D01*
X162833333Y-75954819D02*
X162738095Y-76002438D01*
X162738095Y-76002438D02*
X162690476Y-76050057D01*
X162690476Y-76050057D02*
X162642857Y-76145295D01*
X162642857Y-76145295D02*
X162642857Y-76288152D01*
X162642857Y-76288152D02*
X162690476Y-76383390D01*
X162690476Y-76383390D02*
X162738095Y-76431009D01*
X162738095Y-76431009D02*
X162833333Y-76478628D01*
X162833333Y-76478628D02*
X163214285Y-76478628D01*
X162309523Y-75954819D02*
X161690476Y-75954819D01*
X161690476Y-75954819D02*
X162023809Y-76335771D01*
X162023809Y-76335771D02*
X161880952Y-76335771D01*
X161880952Y-76335771D02*
X161785714Y-76383390D01*
X161785714Y-76383390D02*
X161738095Y-76431009D01*
X161738095Y-76431009D02*
X161690476Y-76526247D01*
X161690476Y-76526247D02*
X161690476Y-76764342D01*
X161690476Y-76764342D02*
X161738095Y-76859580D01*
X161738095Y-76859580D02*
X161785714Y-76907200D01*
X161785714Y-76907200D02*
X161880952Y-76954819D01*
X161880952Y-76954819D02*
X162166666Y-76954819D01*
X162166666Y-76954819D02*
X162261904Y-76907200D01*
X162261904Y-76907200D02*
X162309523Y-76859580D01*
X161357142Y-75954819D02*
X160738095Y-75954819D01*
X160738095Y-75954819D02*
X161071428Y-76335771D01*
X161071428Y-76335771D02*
X160928571Y-76335771D01*
X160928571Y-76335771D02*
X160833333Y-76383390D01*
X160833333Y-76383390D02*
X160785714Y-76431009D01*
X160785714Y-76431009D02*
X160738095Y-76526247D01*
X160738095Y-76526247D02*
X160738095Y-76764342D01*
X160738095Y-76764342D02*
X160785714Y-76859580D01*
X160785714Y-76859580D02*
X160833333Y-76907200D01*
X160833333Y-76907200D02*
X160928571Y-76954819D01*
X160928571Y-76954819D02*
X161214285Y-76954819D01*
X161214285Y-76954819D02*
X161309523Y-76907200D01*
X161309523Y-76907200D02*
X161357142Y-76859580D01*
X111165793Y-134754819D02*
X111499126Y-134278628D01*
X111737221Y-134754819D02*
X111737221Y-133754819D01*
X111737221Y-133754819D02*
X111356269Y-133754819D01*
X111356269Y-133754819D02*
X111261031Y-133802438D01*
X111261031Y-133802438D02*
X111213412Y-133850057D01*
X111213412Y-133850057D02*
X111165793Y-133945295D01*
X111165793Y-133945295D02*
X111165793Y-134088152D01*
X111165793Y-134088152D02*
X111213412Y-134183390D01*
X111213412Y-134183390D02*
X111261031Y-134231009D01*
X111261031Y-134231009D02*
X111356269Y-134278628D01*
X111356269Y-134278628D02*
X111737221Y-134278628D01*
X110308650Y-134088152D02*
X110308650Y-134754819D01*
X110546745Y-133707200D02*
X110784840Y-134421485D01*
X110784840Y-134421485D02*
X110165793Y-134421485D01*
X109308650Y-133754819D02*
X109784840Y-133754819D01*
X109784840Y-133754819D02*
X109832459Y-134231009D01*
X109832459Y-134231009D02*
X109784840Y-134183390D01*
X109784840Y-134183390D02*
X109689602Y-134135771D01*
X109689602Y-134135771D02*
X109451507Y-134135771D01*
X109451507Y-134135771D02*
X109356269Y-134183390D01*
X109356269Y-134183390D02*
X109308650Y-134231009D01*
X109308650Y-134231009D02*
X109261031Y-134326247D01*
X109261031Y-134326247D02*
X109261031Y-134564342D01*
X109261031Y-134564342D02*
X109308650Y-134659580D01*
X109308650Y-134659580D02*
X109356269Y-134707200D01*
X109356269Y-134707200D02*
X109451507Y-134754819D01*
X109451507Y-134754819D02*
X109689602Y-134754819D01*
X109689602Y-134754819D02*
X109784840Y-134707200D01*
X109784840Y-134707200D02*
X109832459Y-134659580D01*
X123638094Y-41754819D02*
X123638094Y-42564342D01*
X123638094Y-42564342D02*
X123590475Y-42659580D01*
X123590475Y-42659580D02*
X123542856Y-42707200D01*
X123542856Y-42707200D02*
X123447618Y-42754819D01*
X123447618Y-42754819D02*
X123257142Y-42754819D01*
X123257142Y-42754819D02*
X123161904Y-42707200D01*
X123161904Y-42707200D02*
X123114285Y-42659580D01*
X123114285Y-42659580D02*
X123066666Y-42564342D01*
X123066666Y-42564342D02*
X123066666Y-41754819D01*
X122638094Y-41850057D02*
X122590475Y-41802438D01*
X122590475Y-41802438D02*
X122495237Y-41754819D01*
X122495237Y-41754819D02*
X122257142Y-41754819D01*
X122257142Y-41754819D02*
X122161904Y-41802438D01*
X122161904Y-41802438D02*
X122114285Y-41850057D01*
X122114285Y-41850057D02*
X122066666Y-41945295D01*
X122066666Y-41945295D02*
X122066666Y-42040533D01*
X122066666Y-42040533D02*
X122114285Y-42183390D01*
X122114285Y-42183390D02*
X122685713Y-42754819D01*
X122685713Y-42754819D02*
X122066666Y-42754819D01*
X121447618Y-41754819D02*
X121352380Y-41754819D01*
X121352380Y-41754819D02*
X121257142Y-41802438D01*
X121257142Y-41802438D02*
X121209523Y-41850057D01*
X121209523Y-41850057D02*
X121161904Y-41945295D01*
X121161904Y-41945295D02*
X121114285Y-42135771D01*
X121114285Y-42135771D02*
X121114285Y-42373866D01*
X121114285Y-42373866D02*
X121161904Y-42564342D01*
X121161904Y-42564342D02*
X121209523Y-42659580D01*
X121209523Y-42659580D02*
X121257142Y-42707200D01*
X121257142Y-42707200D02*
X121352380Y-42754819D01*
X121352380Y-42754819D02*
X121447618Y-42754819D01*
X121447618Y-42754819D02*
X121542856Y-42707200D01*
X121542856Y-42707200D02*
X121590475Y-42659580D01*
X121590475Y-42659580D02*
X121638094Y-42564342D01*
X121638094Y-42564342D02*
X121685713Y-42373866D01*
X121685713Y-42373866D02*
X121685713Y-42135771D01*
X121685713Y-42135771D02*
X121638094Y-41945295D01*
X121638094Y-41945295D02*
X121590475Y-41850057D01*
X121590475Y-41850057D02*
X121542856Y-41802438D01*
X121542856Y-41802438D02*
X121447618Y-41754819D01*
X152395238Y-85250057D02*
X152490476Y-85202438D01*
X152490476Y-85202438D02*
X152585714Y-85107200D01*
X152585714Y-85107200D02*
X152728571Y-84964342D01*
X152728571Y-84964342D02*
X152823809Y-84916723D01*
X152823809Y-84916723D02*
X152919047Y-84916723D01*
X152871428Y-85154819D02*
X152966666Y-85107200D01*
X152966666Y-85107200D02*
X153061904Y-85011961D01*
X153061904Y-85011961D02*
X153109523Y-84821485D01*
X153109523Y-84821485D02*
X153109523Y-84488152D01*
X153109523Y-84488152D02*
X153061904Y-84297676D01*
X153061904Y-84297676D02*
X152966666Y-84202438D01*
X152966666Y-84202438D02*
X152871428Y-84154819D01*
X152871428Y-84154819D02*
X152680952Y-84154819D01*
X152680952Y-84154819D02*
X152585714Y-84202438D01*
X152585714Y-84202438D02*
X152490476Y-84297676D01*
X152490476Y-84297676D02*
X152442857Y-84488152D01*
X152442857Y-84488152D02*
X152442857Y-84821485D01*
X152442857Y-84821485D02*
X152490476Y-85011961D01*
X152490476Y-85011961D02*
X152585714Y-85107200D01*
X152585714Y-85107200D02*
X152680952Y-85154819D01*
X152680952Y-85154819D02*
X152871428Y-85154819D01*
X152109523Y-84154819D02*
X151490476Y-84154819D01*
X151490476Y-84154819D02*
X151823809Y-84535771D01*
X151823809Y-84535771D02*
X151680952Y-84535771D01*
X151680952Y-84535771D02*
X151585714Y-84583390D01*
X151585714Y-84583390D02*
X151538095Y-84631009D01*
X151538095Y-84631009D02*
X151490476Y-84726247D01*
X151490476Y-84726247D02*
X151490476Y-84964342D01*
X151490476Y-84964342D02*
X151538095Y-85059580D01*
X151538095Y-85059580D02*
X151585714Y-85107200D01*
X151585714Y-85107200D02*
X151680952Y-85154819D01*
X151680952Y-85154819D02*
X151966666Y-85154819D01*
X151966666Y-85154819D02*
X152061904Y-85107200D01*
X152061904Y-85107200D02*
X152109523Y-85059580D01*
X125842857Y-37454819D02*
X126176190Y-36978628D01*
X126414285Y-37454819D02*
X126414285Y-36454819D01*
X126414285Y-36454819D02*
X126033333Y-36454819D01*
X126033333Y-36454819D02*
X125938095Y-36502438D01*
X125938095Y-36502438D02*
X125890476Y-36550057D01*
X125890476Y-36550057D02*
X125842857Y-36645295D01*
X125842857Y-36645295D02*
X125842857Y-36788152D01*
X125842857Y-36788152D02*
X125890476Y-36883390D01*
X125890476Y-36883390D02*
X125938095Y-36931009D01*
X125938095Y-36931009D02*
X126033333Y-36978628D01*
X126033333Y-36978628D02*
X126414285Y-36978628D01*
X124938095Y-36454819D02*
X125414285Y-36454819D01*
X125414285Y-36454819D02*
X125461904Y-36931009D01*
X125461904Y-36931009D02*
X125414285Y-36883390D01*
X125414285Y-36883390D02*
X125319047Y-36835771D01*
X125319047Y-36835771D02*
X125080952Y-36835771D01*
X125080952Y-36835771D02*
X124985714Y-36883390D01*
X124985714Y-36883390D02*
X124938095Y-36931009D01*
X124938095Y-36931009D02*
X124890476Y-37026247D01*
X124890476Y-37026247D02*
X124890476Y-37264342D01*
X124890476Y-37264342D02*
X124938095Y-37359580D01*
X124938095Y-37359580D02*
X124985714Y-37407200D01*
X124985714Y-37407200D02*
X125080952Y-37454819D01*
X125080952Y-37454819D02*
X125319047Y-37454819D01*
X125319047Y-37454819D02*
X125414285Y-37407200D01*
X125414285Y-37407200D02*
X125461904Y-37359580D01*
X124414285Y-37454819D02*
X124223809Y-37454819D01*
X124223809Y-37454819D02*
X124128571Y-37407200D01*
X124128571Y-37407200D02*
X124080952Y-37359580D01*
X124080952Y-37359580D02*
X123985714Y-37216723D01*
X123985714Y-37216723D02*
X123938095Y-37026247D01*
X123938095Y-37026247D02*
X123938095Y-36645295D01*
X123938095Y-36645295D02*
X123985714Y-36550057D01*
X123985714Y-36550057D02*
X124033333Y-36502438D01*
X124033333Y-36502438D02*
X124128571Y-36454819D01*
X124128571Y-36454819D02*
X124319047Y-36454819D01*
X124319047Y-36454819D02*
X124414285Y-36502438D01*
X124414285Y-36502438D02*
X124461904Y-36550057D01*
X124461904Y-36550057D02*
X124509523Y-36645295D01*
X124509523Y-36645295D02*
X124509523Y-36883390D01*
X124509523Y-36883390D02*
X124461904Y-36978628D01*
X124461904Y-36978628D02*
X124414285Y-37026247D01*
X124414285Y-37026247D02*
X124319047Y-37073866D01*
X124319047Y-37073866D02*
X124128571Y-37073866D01*
X124128571Y-37073866D02*
X124033333Y-37026247D01*
X124033333Y-37026247D02*
X123985714Y-36978628D01*
X123985714Y-36978628D02*
X123938095Y-36883390D01*
X178161904Y-124654819D02*
X178161904Y-125464342D01*
X178161904Y-125464342D02*
X178114285Y-125559580D01*
X178114285Y-125559580D02*
X178066666Y-125607200D01*
X178066666Y-125607200D02*
X177971428Y-125654819D01*
X177971428Y-125654819D02*
X177780952Y-125654819D01*
X177780952Y-125654819D02*
X177685714Y-125607200D01*
X177685714Y-125607200D02*
X177638095Y-125559580D01*
X177638095Y-125559580D02*
X177590476Y-125464342D01*
X177590476Y-125464342D02*
X177590476Y-124654819D01*
X177161904Y-124750057D02*
X177114285Y-124702438D01*
X177114285Y-124702438D02*
X177019047Y-124654819D01*
X177019047Y-124654819D02*
X176780952Y-124654819D01*
X176780952Y-124654819D02*
X176685714Y-124702438D01*
X176685714Y-124702438D02*
X176638095Y-124750057D01*
X176638095Y-124750057D02*
X176590476Y-124845295D01*
X176590476Y-124845295D02*
X176590476Y-124940533D01*
X176590476Y-124940533D02*
X176638095Y-125083390D01*
X176638095Y-125083390D02*
X177209523Y-125654819D01*
X177209523Y-125654819D02*
X176590476Y-125654819D01*
X157266666Y-134772319D02*
X157599999Y-134296128D01*
X157838094Y-134772319D02*
X157838094Y-133772319D01*
X157838094Y-133772319D02*
X157457142Y-133772319D01*
X157457142Y-133772319D02*
X157361904Y-133819938D01*
X157361904Y-133819938D02*
X157314285Y-133867557D01*
X157314285Y-133867557D02*
X157266666Y-133962795D01*
X157266666Y-133962795D02*
X157266666Y-134105652D01*
X157266666Y-134105652D02*
X157314285Y-134200890D01*
X157314285Y-134200890D02*
X157361904Y-134248509D01*
X157361904Y-134248509D02*
X157457142Y-134296128D01*
X157457142Y-134296128D02*
X157838094Y-134296128D01*
X156885713Y-133867557D02*
X156838094Y-133819938D01*
X156838094Y-133819938D02*
X156742856Y-133772319D01*
X156742856Y-133772319D02*
X156504761Y-133772319D01*
X156504761Y-133772319D02*
X156409523Y-133819938D01*
X156409523Y-133819938D02*
X156361904Y-133867557D01*
X156361904Y-133867557D02*
X156314285Y-133962795D01*
X156314285Y-133962795D02*
X156314285Y-134058033D01*
X156314285Y-134058033D02*
X156361904Y-134200890D01*
X156361904Y-134200890D02*
X156933332Y-134772319D01*
X156933332Y-134772319D02*
X156314285Y-134772319D01*
X127238094Y-123079819D02*
X127238094Y-123889342D01*
X127238094Y-123889342D02*
X127190475Y-123984580D01*
X127190475Y-123984580D02*
X127142856Y-124032200D01*
X127142856Y-124032200D02*
X127047618Y-124079819D01*
X127047618Y-124079819D02*
X126857142Y-124079819D01*
X126857142Y-124079819D02*
X126761904Y-124032200D01*
X126761904Y-124032200D02*
X126714285Y-123984580D01*
X126714285Y-123984580D02*
X126666666Y-123889342D01*
X126666666Y-123889342D02*
X126666666Y-123079819D01*
X125666666Y-124079819D02*
X126238094Y-124079819D01*
X125952380Y-124079819D02*
X125952380Y-123079819D01*
X125952380Y-123079819D02*
X126047618Y-123222676D01*
X126047618Y-123222676D02*
X126142856Y-123317914D01*
X126142856Y-123317914D02*
X126238094Y-123365533D01*
X125333332Y-123079819D02*
X124714285Y-123079819D01*
X124714285Y-123079819D02*
X125047618Y-123460771D01*
X125047618Y-123460771D02*
X124904761Y-123460771D01*
X124904761Y-123460771D02*
X124809523Y-123508390D01*
X124809523Y-123508390D02*
X124761904Y-123556009D01*
X124761904Y-123556009D02*
X124714285Y-123651247D01*
X124714285Y-123651247D02*
X124714285Y-123889342D01*
X124714285Y-123889342D02*
X124761904Y-123984580D01*
X124761904Y-123984580D02*
X124809523Y-124032200D01*
X124809523Y-124032200D02*
X124904761Y-124079819D01*
X124904761Y-124079819D02*
X125190475Y-124079819D01*
X125190475Y-124079819D02*
X125285713Y-124032200D01*
X125285713Y-124032200D02*
X125333332Y-123984580D01*
X166326568Y-119196568D02*
X166326568Y-120006091D01*
X166326568Y-120006091D02*
X166278949Y-120101329D01*
X166278949Y-120101329D02*
X166231330Y-120148949D01*
X166231330Y-120148949D02*
X166136092Y-120196568D01*
X166136092Y-120196568D02*
X165945616Y-120196568D01*
X165945616Y-120196568D02*
X165850378Y-120148949D01*
X165850378Y-120148949D02*
X165802759Y-120101329D01*
X165802759Y-120101329D02*
X165755140Y-120006091D01*
X165755140Y-120006091D02*
X165755140Y-119196568D01*
X165374187Y-119196568D02*
X164707521Y-119196568D01*
X164707521Y-119196568D02*
X165136092Y-120196568D01*
X154738094Y-51854819D02*
X154738094Y-50854819D01*
X154738094Y-50854819D02*
X154499999Y-50854819D01*
X154499999Y-50854819D02*
X154357142Y-50902438D01*
X154357142Y-50902438D02*
X154261904Y-50997676D01*
X154261904Y-50997676D02*
X154214285Y-51092914D01*
X154214285Y-51092914D02*
X154166666Y-51283390D01*
X154166666Y-51283390D02*
X154166666Y-51426247D01*
X154166666Y-51426247D02*
X154214285Y-51616723D01*
X154214285Y-51616723D02*
X154261904Y-51711961D01*
X154261904Y-51711961D02*
X154357142Y-51807200D01*
X154357142Y-51807200D02*
X154499999Y-51854819D01*
X154499999Y-51854819D02*
X154738094Y-51854819D01*
X153595237Y-51283390D02*
X153690475Y-51235771D01*
X153690475Y-51235771D02*
X153738094Y-51188152D01*
X153738094Y-51188152D02*
X153785713Y-51092914D01*
X153785713Y-51092914D02*
X153785713Y-51045295D01*
X153785713Y-51045295D02*
X153738094Y-50950057D01*
X153738094Y-50950057D02*
X153690475Y-50902438D01*
X153690475Y-50902438D02*
X153595237Y-50854819D01*
X153595237Y-50854819D02*
X153404761Y-50854819D01*
X153404761Y-50854819D02*
X153309523Y-50902438D01*
X153309523Y-50902438D02*
X153261904Y-50950057D01*
X153261904Y-50950057D02*
X153214285Y-51045295D01*
X153214285Y-51045295D02*
X153214285Y-51092914D01*
X153214285Y-51092914D02*
X153261904Y-51188152D01*
X153261904Y-51188152D02*
X153309523Y-51235771D01*
X153309523Y-51235771D02*
X153404761Y-51283390D01*
X153404761Y-51283390D02*
X153595237Y-51283390D01*
X153595237Y-51283390D02*
X153690475Y-51331009D01*
X153690475Y-51331009D02*
X153738094Y-51378628D01*
X153738094Y-51378628D02*
X153785713Y-51473866D01*
X153785713Y-51473866D02*
X153785713Y-51664342D01*
X153785713Y-51664342D02*
X153738094Y-51759580D01*
X153738094Y-51759580D02*
X153690475Y-51807200D01*
X153690475Y-51807200D02*
X153595237Y-51854819D01*
X153595237Y-51854819D02*
X153404761Y-51854819D01*
X153404761Y-51854819D02*
X153309523Y-51807200D01*
X153309523Y-51807200D02*
X153261904Y-51759580D01*
X153261904Y-51759580D02*
X153214285Y-51664342D01*
X153214285Y-51664342D02*
X153214285Y-51473866D01*
X153214285Y-51473866D02*
X153261904Y-51378628D01*
X153261904Y-51378628D02*
X153309523Y-51331009D01*
X153309523Y-51331009D02*
X153404761Y-51283390D01*
X169161904Y-123554819D02*
X169161904Y-124364342D01*
X169161904Y-124364342D02*
X169114285Y-124459580D01*
X169114285Y-124459580D02*
X169066666Y-124507200D01*
X169066666Y-124507200D02*
X168971428Y-124554819D01*
X168971428Y-124554819D02*
X168780952Y-124554819D01*
X168780952Y-124554819D02*
X168685714Y-124507200D01*
X168685714Y-124507200D02*
X168638095Y-124459580D01*
X168638095Y-124459580D02*
X168590476Y-124364342D01*
X168590476Y-124364342D02*
X168590476Y-123554819D01*
X167685714Y-123554819D02*
X167876190Y-123554819D01*
X167876190Y-123554819D02*
X167971428Y-123602438D01*
X167971428Y-123602438D02*
X168019047Y-123650057D01*
X168019047Y-123650057D02*
X168114285Y-123792914D01*
X168114285Y-123792914D02*
X168161904Y-123983390D01*
X168161904Y-123983390D02*
X168161904Y-124364342D01*
X168161904Y-124364342D02*
X168114285Y-124459580D01*
X168114285Y-124459580D02*
X168066666Y-124507200D01*
X168066666Y-124507200D02*
X167971428Y-124554819D01*
X167971428Y-124554819D02*
X167780952Y-124554819D01*
X167780952Y-124554819D02*
X167685714Y-124507200D01*
X167685714Y-124507200D02*
X167638095Y-124459580D01*
X167638095Y-124459580D02*
X167590476Y-124364342D01*
X167590476Y-124364342D02*
X167590476Y-124126247D01*
X167590476Y-124126247D02*
X167638095Y-124031009D01*
X167638095Y-124031009D02*
X167685714Y-123983390D01*
X167685714Y-123983390D02*
X167780952Y-123935771D01*
X167780952Y-123935771D02*
X167971428Y-123935771D01*
X167971428Y-123935771D02*
X168066666Y-123983390D01*
X168066666Y-123983390D02*
X168114285Y-124031009D01*
X168114285Y-124031009D02*
X168161904Y-124126247D01*
X128042857Y-127914580D02*
X128090476Y-127962200D01*
X128090476Y-127962200D02*
X128233333Y-128009819D01*
X128233333Y-128009819D02*
X128328571Y-128009819D01*
X128328571Y-128009819D02*
X128471428Y-127962200D01*
X128471428Y-127962200D02*
X128566666Y-127866961D01*
X128566666Y-127866961D02*
X128614285Y-127771723D01*
X128614285Y-127771723D02*
X128661904Y-127581247D01*
X128661904Y-127581247D02*
X128661904Y-127438390D01*
X128661904Y-127438390D02*
X128614285Y-127247914D01*
X128614285Y-127247914D02*
X128566666Y-127152676D01*
X128566666Y-127152676D02*
X128471428Y-127057438D01*
X128471428Y-127057438D02*
X128328571Y-127009819D01*
X128328571Y-127009819D02*
X128233333Y-127009819D01*
X128233333Y-127009819D02*
X128090476Y-127057438D01*
X128090476Y-127057438D02*
X128042857Y-127105057D01*
X127661904Y-127105057D02*
X127614285Y-127057438D01*
X127614285Y-127057438D02*
X127519047Y-127009819D01*
X127519047Y-127009819D02*
X127280952Y-127009819D01*
X127280952Y-127009819D02*
X127185714Y-127057438D01*
X127185714Y-127057438D02*
X127138095Y-127105057D01*
X127138095Y-127105057D02*
X127090476Y-127200295D01*
X127090476Y-127200295D02*
X127090476Y-127295533D01*
X127090476Y-127295533D02*
X127138095Y-127438390D01*
X127138095Y-127438390D02*
X127709523Y-128009819D01*
X127709523Y-128009819D02*
X127090476Y-128009819D01*
X126519047Y-127438390D02*
X126614285Y-127390771D01*
X126614285Y-127390771D02*
X126661904Y-127343152D01*
X126661904Y-127343152D02*
X126709523Y-127247914D01*
X126709523Y-127247914D02*
X126709523Y-127200295D01*
X126709523Y-127200295D02*
X126661904Y-127105057D01*
X126661904Y-127105057D02*
X126614285Y-127057438D01*
X126614285Y-127057438D02*
X126519047Y-127009819D01*
X126519047Y-127009819D02*
X126328571Y-127009819D01*
X126328571Y-127009819D02*
X126233333Y-127057438D01*
X126233333Y-127057438D02*
X126185714Y-127105057D01*
X126185714Y-127105057D02*
X126138095Y-127200295D01*
X126138095Y-127200295D02*
X126138095Y-127247914D01*
X126138095Y-127247914D02*
X126185714Y-127343152D01*
X126185714Y-127343152D02*
X126233333Y-127390771D01*
X126233333Y-127390771D02*
X126328571Y-127438390D01*
X126328571Y-127438390D02*
X126519047Y-127438390D01*
X126519047Y-127438390D02*
X126614285Y-127486009D01*
X126614285Y-127486009D02*
X126661904Y-127533628D01*
X126661904Y-127533628D02*
X126709523Y-127628866D01*
X126709523Y-127628866D02*
X126709523Y-127819342D01*
X126709523Y-127819342D02*
X126661904Y-127914580D01*
X126661904Y-127914580D02*
X126614285Y-127962200D01*
X126614285Y-127962200D02*
X126519047Y-128009819D01*
X126519047Y-128009819D02*
X126328571Y-128009819D01*
X126328571Y-128009819D02*
X126233333Y-127962200D01*
X126233333Y-127962200D02*
X126185714Y-127914580D01*
X126185714Y-127914580D02*
X126138095Y-127819342D01*
X126138095Y-127819342D02*
X126138095Y-127628866D01*
X126138095Y-127628866D02*
X126185714Y-127533628D01*
X126185714Y-127533628D02*
X126233333Y-127486009D01*
X126233333Y-127486009D02*
X126328571Y-127438390D01*
%TO.C,JP6*%
D12*
X102950000Y-31100000D02*
X102950000Y-31700000D01*
X103600000Y-32400000D02*
X106400000Y-32400000D01*
X106400000Y-30400000D02*
X103600000Y-30400000D01*
X107050000Y-31700000D02*
X107050000Y-31100000D01*
X102950000Y-31100000D02*
G75*
G02*
X103650000Y-30400000I699999J1D01*
G01*
X103650000Y-32400000D02*
G75*
G02*
X102950000Y-31700000I-1J699999D01*
G01*
X106350000Y-30400000D02*
G75*
G02*
X107050000Y-31100000I0J-700000D01*
G01*
X107050000Y-31700000D02*
G75*
G02*
X106350000Y-32400000I-700000J0D01*
G01*
%TO.C,C13*%
X169240580Y-130190000D02*
X168959420Y-130190000D01*
X169240580Y-131210000D02*
X168959420Y-131210000D01*
%TO.C,R18*%
X160027064Y-124565000D02*
X159572936Y-124565000D01*
X160027064Y-126035000D02*
X159572936Y-126035000D01*
%TO.C,R55*%
X142665000Y-110972936D02*
X142665000Y-111427064D01*
X144135000Y-110972936D02*
X144135000Y-111427064D01*
%TO.C,R12*%
X157027064Y-34965000D02*
X156572936Y-34965000D01*
X157027064Y-36435000D02*
X156572936Y-36435000D01*
%TO.C,D5*%
X169000000Y-38640000D02*
X169000000Y-42650000D01*
X169000000Y-38640000D02*
X171000000Y-38640000D01*
X171000000Y-38640000D02*
X171000000Y-42650000D01*
%TO.C,R7*%
X152765000Y-133890436D02*
X152765000Y-134344564D01*
X154235000Y-133890436D02*
X154235000Y-134344564D01*
%TO.C,R1*%
X160865000Y-133990436D02*
X160865000Y-134444564D01*
X162335000Y-133990436D02*
X162335000Y-134444564D01*
%TO.C,C19*%
X176859420Y-131390000D02*
X177140580Y-131390000D01*
X176859420Y-132410000D02*
X177140580Y-132410000D01*
%TO.C,D6*%
X161090000Y-47440000D02*
X161090000Y-47490000D01*
X161090000Y-48610000D02*
X161090000Y-49390000D01*
X161090000Y-50510000D02*
X161090000Y-50560000D01*
X161090000Y-50560000D02*
X162910000Y-50560000D01*
X162910000Y-47440000D02*
X161090000Y-47440000D01*
X162910000Y-48440000D02*
X162910000Y-47440000D01*
X162910000Y-50560000D02*
X162910000Y-49560000D01*
X160550000Y-49380000D02*
X160790000Y-49050000D01*
X160310000Y-49050000D01*
X160550000Y-49380000D01*
G36*
X160550000Y-49380000D02*
G01*
X160310000Y-49050000D01*
X160790000Y-49050000D01*
X160550000Y-49380000D01*
G37*
%TO.C,C37*%
X139490000Y-105759420D02*
X139490000Y-106040580D01*
X140510000Y-105759420D02*
X140510000Y-106040580D01*
%TO.C,R13*%
X152727064Y-37565000D02*
X152272936Y-37565000D01*
X152727064Y-39035000D02*
X152272936Y-39035000D01*
%TO.C,D4*%
X169090000Y-47440000D02*
X169090000Y-47490000D01*
X169090000Y-48610000D02*
X169090000Y-49390000D01*
X169090000Y-50510000D02*
X169090000Y-50560000D01*
X169090000Y-50560000D02*
X170910000Y-50560000D01*
X170910000Y-47440000D02*
X169090000Y-47440000D01*
X170910000Y-48440000D02*
X170910000Y-47440000D01*
X170910000Y-50560000D02*
X170910000Y-49560000D01*
X168550000Y-49380000D02*
X168790000Y-49050000D01*
X168310000Y-49050000D01*
X168550000Y-49380000D01*
G36*
X168550000Y-49380000D02*
G01*
X168310000Y-49050000D01*
X168790000Y-49050000D01*
X168550000Y-49380000D01*
G37*
%TO.C,C27*%
X129940580Y-120390000D02*
X129659420Y-120390000D01*
X129940580Y-121410000D02*
X129659420Y-121410000D01*
%TO.C,R41*%
X152727064Y-75765000D02*
X152272936Y-75765000D01*
X152727064Y-77235000D02*
X152272936Y-77235000D01*
%TO.C,C10*%
X172490000Y-60359420D02*
X172490000Y-60640580D01*
X173510000Y-60359420D02*
X173510000Y-60640580D01*
%TO.C,D9*%
X157000000Y-38640000D02*
X157000000Y-42650000D01*
X157000000Y-38640000D02*
X159000000Y-38640000D01*
X159000000Y-38640000D02*
X159000000Y-42650000D01*
%TO.C,D7*%
X164400000Y-38740000D02*
X164400000Y-42750000D01*
X164400000Y-38740000D02*
X166400000Y-38740000D01*
X166400000Y-38740000D02*
X166400000Y-42750000D01*
%TO.C,Q2*%
X156440000Y-78740000D02*
X156440000Y-80260000D01*
X156440000Y-80260000D02*
X157440000Y-80260000D01*
X156490000Y-78740000D02*
X156440000Y-78740000D01*
X158390000Y-78740000D02*
X157610000Y-78740000D01*
X158560000Y-80260000D02*
X159560000Y-80260000D01*
X159560000Y-78740000D02*
X159510000Y-78740000D01*
X159560000Y-80260000D02*
X159560000Y-78740000D01*
X157620000Y-78200000D02*
X157950000Y-78440000D01*
X157950000Y-77960000D01*
X157620000Y-78200000D01*
G36*
X157950000Y-78440000D02*
G01*
X157620000Y-78200000D01*
X157950000Y-77960000D01*
X157950000Y-78440000D01*
G37*
%TO.C,C12*%
X170490000Y-60359420D02*
X170490000Y-60640580D01*
X171510000Y-60359420D02*
X171510000Y-60640580D01*
%TO.C,R17*%
X162465000Y-127672936D02*
X162465000Y-128127064D01*
X163935000Y-127672936D02*
X163935000Y-128127064D01*
%TO.C,R16*%
X150665000Y-35327064D02*
X150665000Y-34872936D01*
X152135000Y-35327064D02*
X152135000Y-34872936D01*
%TO.C,R33*%
X158227064Y-75765000D02*
X157772936Y-75765000D01*
X158227064Y-77235000D02*
X157772936Y-77235000D01*
%TO.C,R45*%
X110977064Y-131497500D02*
X110522936Y-131497500D01*
X110977064Y-132967500D02*
X110522936Y-132967500D01*
%TO.C,U20*%
X117815000Y-39540000D02*
X117815000Y-42060000D01*
X120185000Y-41905568D02*
X120185000Y-39540000D01*
X120190000Y-42200000D02*
X120380000Y-42340000D01*
X120380000Y-42060000D01*
X120190000Y-42200000D01*
G36*
X120380000Y-42340000D02*
G01*
X120190000Y-42200000D01*
X120380000Y-42060000D01*
X120380000Y-42340000D01*
G37*
%TO.C,Q3*%
X150940000Y-78740000D02*
X150940000Y-80260000D01*
X150940000Y-80260000D02*
X151940000Y-80260000D01*
X150990000Y-78740000D02*
X150940000Y-78740000D01*
X152890000Y-78740000D02*
X152110000Y-78740000D01*
X153060000Y-80260000D02*
X154060000Y-80260000D01*
X154060000Y-78740000D02*
X154010000Y-78740000D01*
X154060000Y-80260000D02*
X154060000Y-78740000D01*
X152120000Y-78200000D02*
X152450000Y-78440000D01*
X152450000Y-77960000D01*
X152120000Y-78200000D01*
G36*
X152450000Y-78440000D02*
G01*
X152120000Y-78200000D01*
X152450000Y-77960000D01*
X152450000Y-78440000D01*
G37*
%TO.C,R59*%
X121372936Y-36065000D02*
X121827064Y-36065000D01*
X121372936Y-37535000D02*
X121827064Y-37535000D01*
%TO.C,U2*%
X170270000Y-124270000D02*
X170270000Y-124995000D01*
X170270000Y-128765000D02*
X170270000Y-129490000D01*
X170270000Y-129490000D02*
X170995000Y-129490000D01*
X170995000Y-124270000D02*
X170270000Y-124270000D01*
X174765000Y-129490000D02*
X175490000Y-129490000D01*
X175490000Y-124270000D02*
X174765000Y-124270000D01*
X175490000Y-124995000D02*
X175490000Y-124270000D01*
X175490000Y-129490000D02*
X175490000Y-128765000D01*
X174380000Y-129990000D02*
X174140000Y-130320000D01*
X174620000Y-130320000D01*
X174380000Y-129990000D01*
G36*
X174620000Y-130320000D02*
G01*
X174140000Y-130320000D01*
X174380000Y-129990000D01*
X174620000Y-130320000D01*
G37*
%TO.C,R2*%
X158665000Y-134090436D02*
X158665000Y-134544564D01*
X160135000Y-134090436D02*
X160135000Y-134544564D01*
%TO.C,U13*%
X127790000Y-122165000D02*
X127790000Y-122340000D01*
X127790000Y-124710000D02*
X127790000Y-124885000D01*
X127790000Y-124885000D02*
X131010000Y-124885000D01*
X131010000Y-122165000D02*
X127790000Y-122165000D01*
X131010000Y-122340000D02*
X131010000Y-122165000D01*
X131010000Y-124885000D02*
X131010000Y-124710000D01*
X131140000Y-122775000D02*
X131470000Y-123015000D01*
X131470000Y-122535000D01*
X131140000Y-122775000D01*
G36*
X131470000Y-123015000D02*
G01*
X131140000Y-122775000D01*
X131470000Y-122535000D01*
X131470000Y-123015000D01*
G37*
%TO.C,U7*%
X164829664Y-120431749D02*
X164829664Y-120456749D01*
X164829664Y-122626749D02*
X164829664Y-122651749D01*
X164829664Y-122651749D02*
X166299664Y-122651749D01*
X166299664Y-120431749D02*
X164829664Y-120431749D01*
X166299664Y-120456749D02*
X166299664Y-120431749D01*
X166299664Y-122651749D02*
X166299664Y-122626749D01*
X166744664Y-120451749D02*
X166884664Y-120261749D01*
X166604664Y-120261749D01*
X166744664Y-120451749D01*
G36*
X166744664Y-120451749D02*
G01*
X166604664Y-120261749D01*
X166884664Y-120261749D01*
X166744664Y-120451749D01*
G37*
%TO.C,D8*%
X153090000Y-47440000D02*
X153090000Y-47490000D01*
X153090000Y-48610000D02*
X153090000Y-49390000D01*
X153090000Y-50510000D02*
X153090000Y-50560000D01*
X153090000Y-50560000D02*
X154910000Y-50560000D01*
X154910000Y-47440000D02*
X153090000Y-47440000D01*
X154910000Y-48440000D02*
X154910000Y-47440000D01*
X154910000Y-50560000D02*
X154910000Y-49560000D01*
X152550000Y-49380000D02*
X152790000Y-49050000D01*
X152310000Y-49050000D01*
X152550000Y-49380000D01*
G36*
X152550000Y-49380000D02*
G01*
X152310000Y-49050000D01*
X152790000Y-49050000D01*
X152550000Y-49380000D01*
G37*
%TO.C,U6*%
X164865000Y-123290000D02*
X164865000Y-123315000D01*
X164865000Y-125485000D02*
X164865000Y-125510000D01*
X164865000Y-125510000D02*
X166335000Y-125510000D01*
X166335000Y-123290000D02*
X164865000Y-123290000D01*
X166335000Y-123315000D02*
X166335000Y-123290000D01*
X166335000Y-125510000D02*
X166335000Y-125485000D01*
X166780000Y-123310000D02*
X166920000Y-123120000D01*
X166640000Y-123120000D01*
X166780000Y-123310000D01*
G36*
X166780000Y-123310000D02*
G01*
X166640000Y-123120000D01*
X166920000Y-123120000D01*
X166780000Y-123310000D01*
G37*
%TO.C,C28*%
X127259420Y-125615000D02*
X127540580Y-125615000D01*
X127259420Y-126635000D02*
X127540580Y-126635000D01*
%TD*%
M02*
