%TF.GenerationSoftware,KiCad,Pcbnew,10.0.4-10.0.4~ubuntu24.04.1*%
%TF.CreationDate,2026-06-28T13:49:54+03:00*%
%TF.ProjectId,xray-v3,78726179-2d76-4332-9e6b-696361645f70,rev?*%
%TF.SameCoordinates,Original*%
%TF.FileFunction,Soldermask,Top*%
%TF.FilePolarity,Negative*%
%FSLAX46Y46*%
G04 Gerber Fmt 4.6, Leading zero omitted, Abs format (unit mm)*
G04 Created by KiCad (PCBNEW 10.0.4-10.0.4~ubuntu24.04.1) date 2026-06-28 13:49:54*
%MOMM*%
%LPD*%
G01*
G04 APERTURE LIST*
G04 Aperture macros list*
%AMRoundRect*
0 Rectangle with rounded corners*
0 $1 Rounding radius*
0 $2 $3 $4 $5 $6 $7 $8 $9 X,Y pos of 4 corners*
0 Add a 4 corners polygon primitive as box body*
4,1,4,$2,$3,$4,$5,$6,$7,$8,$9,$2,$3,0*
0 Add four circle primitives for the rounded corners*
1,1,$1+$1,$2,$3*
1,1,$1+$1,$4,$5*
1,1,$1+$1,$6,$7*
1,1,$1+$1,$8,$9*
0 Add four rect primitives between the rounded corners*
20,1,$1+$1,$2,$3,$4,$5,0*
20,1,$1+$1,$4,$5,$6,$7,0*
20,1,$1+$1,$6,$7,$8,$9,0*
20,1,$1+$1,$8,$9,$2,$3,0*%
%AMFreePoly0*
4,1,23,0.550000,-0.750000,0.000000,-0.750000,0.000000,-0.745722,-0.065263,-0.745722,-0.191342,-0.711940,-0.304381,-0.646677,-0.396677,-0.554381,-0.461940,-0.441342,-0.495722,-0.315263,-0.495722,-0.250000,-0.500000,-0.250000,-0.500000,0.250000,-0.495722,0.250000,-0.495722,0.315263,-0.461940,0.441342,-0.396677,0.554381,-0.304381,0.646677,-0.191342,0.711940,-0.065263,0.745722,0.000000,0.745722,
0.000000,0.750000,0.550000,0.750000,0.550000,-0.750000,0.550000,-0.750000,$1*%
%AMFreePoly1*
4,1,23,0.000000,0.745722,0.065263,0.745722,0.191342,0.711940,0.304381,0.646677,0.396677,0.554381,0.461940,0.441342,0.495722,0.315263,0.495722,0.250000,0.500000,0.250000,0.500000,-0.250000,0.495722,-0.250000,0.495722,-0.315263,0.461940,-0.441342,0.396677,-0.554381,0.304381,-0.646677,0.191342,-0.711940,0.065263,-0.745722,0.000000,-0.745722,0.000000,-0.750000,-0.550000,-0.750000,
-0.550000,0.750000,0.000000,0.750000,0.000000,0.745722,0.000000,0.745722,$1*%
%AMFreePoly2*
4,1,14,0.334644,0.085355,0.385355,0.034644,0.400000,-0.000711,0.400000,-0.050000,0.385355,-0.085355,0.350000,-0.100000,-0.350000,-0.100000,-0.385355,-0.085355,-0.400000,-0.050000,-0.400000,0.050000,-0.385355,0.085355,-0.350000,0.100000,0.299289,0.100000,0.334644,0.085355,0.334644,0.085355,$1*%
%AMFreePoly3*
4,1,14,0.385355,0.085355,0.400000,0.050000,0.400000,0.000711,0.385355,-0.034644,0.334644,-0.085355,0.299289,-0.100000,-0.350000,-0.100000,-0.385355,-0.085355,-0.400000,-0.050000,-0.400000,0.050000,-0.385355,0.085355,-0.350000,0.100000,0.350000,0.100000,0.385355,0.085355,0.385355,0.085355,$1*%
%AMFreePoly4*
4,1,14,0.085355,0.385355,0.100000,0.350000,0.100000,-0.350000,0.085355,-0.385355,0.050000,-0.400000,-0.050000,-0.400000,-0.085355,-0.385355,-0.100000,-0.350000,-0.100000,0.299289,-0.085355,0.334644,-0.034644,0.385355,0.000711,0.400000,0.050000,0.400000,0.085355,0.385355,0.085355,0.385355,$1*%
%AMFreePoly5*
4,1,14,0.034644,0.385355,0.085355,0.334644,0.100000,0.299289,0.100000,-0.350000,0.085355,-0.385355,0.050000,-0.400000,-0.050000,-0.400000,-0.085355,-0.385355,-0.100000,-0.350000,-0.100000,0.350000,-0.085355,0.385355,-0.050000,0.400000,-0.000711,0.400000,0.034644,0.385355,0.034644,0.385355,$1*%
%AMFreePoly6*
4,1,14,0.385355,0.085355,0.400000,0.050000,0.400000,-0.050000,0.385355,-0.085355,0.350000,-0.100000,-0.299289,-0.100000,-0.334644,-0.085355,-0.385355,-0.034644,-0.400000,0.000711,-0.400000,0.050000,-0.385355,0.085355,-0.350000,0.100000,0.350000,0.100000,0.385355,0.085355,0.385355,0.085355,$1*%
%AMFreePoly7*
4,1,14,0.385355,0.085355,0.400000,0.050000,0.400000,-0.050000,0.385355,-0.085355,0.350000,-0.100000,-0.350000,-0.100000,-0.385355,-0.085355,-0.400000,-0.050000,-0.400000,-0.000711,-0.385355,0.034644,-0.334644,0.085355,-0.299289,0.100000,0.350000,0.100000,0.385355,0.085355,0.385355,0.085355,$1*%
%AMFreePoly8*
4,1,14,0.085355,0.385355,0.100000,0.350000,0.100000,-0.299289,0.085355,-0.334644,0.034644,-0.385355,-0.000711,-0.400000,-0.050000,-0.400000,-0.085355,-0.385355,-0.100000,-0.350000,-0.100000,0.350000,-0.085355,0.385355,-0.050000,0.400000,0.050000,0.400000,0.085355,0.385355,0.085355,0.385355,$1*%
%AMFreePoly9*
4,1,14,0.085355,0.385355,0.100000,0.350000,0.100000,-0.350000,0.085355,-0.385355,0.050000,-0.400000,0.000711,-0.400000,-0.034644,-0.385355,-0.085355,-0.334644,-0.100000,-0.299289,-0.100000,0.350000,-0.085355,0.385355,-0.050000,0.400000,0.050000,0.400000,0.085355,0.385355,0.085355,0.385355,$1*%
%AMFreePoly10*
4,1,19,1.058779,1.080902,1.095106,1.030902,1.100000,1.000000,1.100000,-1.000000,1.080902,-1.058779,1.030902,-1.095106,1.000000,-1.100000,0.000000,-1.100000,-0.058779,-1.080902,-0.070711,-1.070711,-1.070711,-0.070711,-1.098769,-0.015643,-1.089101,0.045399,-1.070711,0.070711,-0.070711,1.070711,-0.015643,1.098769,0.000000,1.100000,1.000000,1.100000,1.058779,1.080902,1.058779,1.080902,
$1*%
%AMFreePoly11*
4,1,21,1.058779,1.080902,1.095106,1.030902,1.095106,0.969098,1.070711,0.929289,0.250000,0.108578,0.250000,-0.108578,1.070711,-0.929289,1.098769,-0.984357,1.089101,-1.045399,1.045399,-1.089101,1.000000,-1.100000,-1.000000,-1.100000,-1.058779,-1.080902,-1.095106,-1.030902,-1.100000,-1.000000,-1.100000,1.000000,-1.080902,1.058779,-1.030902,1.095106,-1.000000,1.100000,1.000000,1.100000,
1.058779,1.080902,1.058779,1.080902,$1*%
%AMFreePoly12*
4,1,21,-0.300000,0.050000,-0.296194,0.069134,-0.285355,0.085355,-0.269134,0.096194,-0.250000,0.100000,0.250000,0.100000,0.269134,0.096194,0.285355,0.085355,0.296194,0.069134,0.300000,0.050000,0.300000,-0.050000,0.296194,-0.069134,0.285355,-0.085355,0.269134,-0.096194,0.250000,-0.100000,-0.250000,-0.100000,-0.269134,-0.096194,-0.285355,-0.085355,-0.296194,-0.069134,-0.300000,-0.050000,
-0.300000,0.050000,-0.300000,0.050000,$1*%
G04 Aperture macros list end*
%ADD10FreePoly0,180.000000*%
%ADD11R,1.000000X1.500000*%
%ADD12FreePoly1,180.000000*%
%ADD13RoundRect,0.250000X-0.750000X0.600000X-0.750000X-0.600000X0.750000X-0.600000X0.750000X0.600000X0*%
%ADD14O,2.000000X1.700000*%
%ADD15RoundRect,0.250000X-0.350000X-0.450000X0.350000X-0.450000X0.350000X0.450000X-0.350000X0.450000X0*%
%ADD16RoundRect,0.150000X-0.150000X0.512500X-0.150000X-0.512500X0.150000X-0.512500X0.150000X0.512500X0*%
%ADD17RoundRect,0.225000X-0.225000X-0.250000X0.225000X-0.250000X0.225000X0.250000X-0.225000X0.250000X0*%
%ADD18RoundRect,0.250000X-0.675000X-0.675000X0.675000X-0.675000X0.675000X0.675000X-0.675000X0.675000X0*%
%ADD19C,1.850000*%
%ADD20RoundRect,0.162500X-0.617500X-0.162500X0.617500X-0.162500X0.617500X0.162500X-0.617500X0.162500X0*%
%ADD21R,1.000000X1.000000*%
%ADD22RoundRect,0.225000X-0.250000X0.225000X-0.250000X-0.225000X0.250000X-0.225000X0.250000X0.225000X0*%
%ADD23RoundRect,0.150000X0.150000X-0.587500X0.150000X0.587500X-0.150000X0.587500X-0.150000X-0.587500X0*%
%ADD24RoundRect,0.195000X0.555000X-0.455000X0.555000X0.455000X-0.555000X0.455000X-0.555000X-0.455000X0*%
%ADD25RoundRect,0.180000X0.570000X-0.420000X0.570000X0.420000X-0.570000X0.420000X-0.570000X-0.420000X0*%
%ADD26C,2.200000*%
%ADD27RoundRect,0.500000X-0.500000X-1.500000X0.500000X-1.500000X0.500000X1.500000X-0.500000X1.500000X0*%
%ADD28RoundRect,0.075000X0.662500X0.075000X-0.662500X0.075000X-0.662500X-0.075000X0.662500X-0.075000X0*%
%ADD29R,1.730000X1.980000*%
%ADD30C,2.000000*%
%ADD31RoundRect,0.250000X0.450000X-0.350000X0.450000X0.350000X-0.450000X0.350000X-0.450000X-0.350000X0*%
%ADD32C,1.440000*%
%ADD33RoundRect,0.250000X-0.450000X0.350000X-0.450000X-0.350000X0.450000X-0.350000X0.450000X0.350000X0*%
%ADD34RoundRect,0.250000X-0.362500X-1.425000X0.362500X-1.425000X0.362500X1.425000X-0.362500X1.425000X0*%
%ADD35C,1.600000*%
%ADD36RoundRect,0.250000X0.350000X0.450000X-0.350000X0.450000X-0.350000X-0.450000X0.350000X-0.450000X0*%
%ADD37RoundRect,0.250000X-0.325000X-1.100000X0.325000X-1.100000X0.325000X1.100000X-0.325000X1.100000X0*%
%ADD38R,1.800000X1.800000*%
%ADD39C,1.800000*%
%ADD40RoundRect,0.250001X0.507499X0.944999X-0.507499X0.944999X-0.507499X-0.944999X0.507499X-0.944999X0*%
%ADD41RoundRect,0.952500X1.167500X0.952500X-1.167500X0.952500X-1.167500X-0.952500X1.167500X-0.952500X0*%
%ADD42RoundRect,0.250000X0.725000X-0.600000X0.725000X0.600000X-0.725000X0.600000X-0.725000X-0.600000X0*%
%ADD43O,1.950000X1.700000*%
%ADD44RoundRect,0.250001X-0.872499X-0.944999X0.872499X-0.944999X0.872499X0.944999X-0.872499X0.944999X0*%
%ADD45RoundRect,0.150000X0.512500X0.150000X-0.512500X0.150000X-0.512500X-0.150000X0.512500X-0.150000X0*%
%ADD46RoundRect,0.250000X-1.100000X0.325000X-1.100000X-0.325000X1.100000X-0.325000X1.100000X0.325000X0*%
%ADD47FreePoly2,0.000000*%
%ADD48RoundRect,0.050000X-0.350000X-0.050000X0.350000X-0.050000X0.350000X0.050000X-0.350000X0.050000X0*%
%ADD49FreePoly3,0.000000*%
%ADD50FreePoly4,0.000000*%
%ADD51RoundRect,0.050000X-0.050000X-0.350000X0.050000X-0.350000X0.050000X0.350000X-0.050000X0.350000X0*%
%ADD52FreePoly5,0.000000*%
%ADD53FreePoly6,0.000000*%
%ADD54FreePoly7,0.000000*%
%ADD55FreePoly8,0.000000*%
%ADD56FreePoly9,0.000000*%
%ADD57R,1.700000X1.700000*%
%ADD58RoundRect,0.250000X-0.400000X-0.600000X0.400000X-0.600000X0.400000X0.600000X-0.400000X0.600000X0*%
%ADD59RoundRect,0.150000X-0.587500X-0.150000X0.587500X-0.150000X0.587500X0.150000X-0.587500X0.150000X0*%
%ADD60RoundRect,0.225000X0.250000X-0.225000X0.250000X0.225000X-0.250000X0.225000X-0.250000X-0.225000X0*%
%ADD61RoundRect,0.250001X-0.944999X0.872499X-0.944999X-0.872499X0.944999X-0.872499X0.944999X0.872499X0*%
%ADD62RoundRect,0.150000X-0.150000X0.587500X-0.150000X-0.587500X0.150000X-0.587500X0.150000X0.587500X0*%
%ADD63FreePoly10,270.000000*%
%ADD64FreePoly11,270.000000*%
%ADD65RoundRect,0.250000X-0.900000X1.500000X-0.900000X-1.500000X0.900000X-1.500000X0.900000X1.500000X0*%
%ADD66RoundRect,0.150000X-0.512500X-0.150000X0.512500X-0.150000X0.512500X0.150000X-0.512500X0.150000X0*%
%ADD67RoundRect,0.250000X0.600000X0.725000X-0.600000X0.725000X-0.600000X-0.725000X0.600000X-0.725000X0*%
%ADD68O,1.700000X1.950000*%
%ADD69RoundRect,0.500000X1.500000X-0.500000X1.500000X0.500000X-1.500000X0.500000X-1.500000X-0.500000X0*%
%ADD70RoundRect,0.087500X0.425000X0.087500X-0.425000X0.087500X-0.425000X-0.087500X0.425000X-0.087500X0*%
%ADD71RoundRect,0.225000X0.225000X0.250000X-0.225000X0.250000X-0.225000X-0.250000X0.225000X-0.250000X0*%
%ADD72RoundRect,0.175000X-0.325000X0.175000X-0.325000X-0.175000X0.325000X-0.175000X0.325000X0.175000X0*%
%ADD73RoundRect,0.150000X-0.150000X0.200000X-0.150000X-0.200000X0.150000X-0.200000X0.150000X0.200000X0*%
%ADD74RoundRect,0.150000X0.150000X-0.512500X0.150000X0.512500X-0.150000X0.512500X-0.150000X-0.512500X0*%
%ADD75C,1.500000*%
%ADD76O,1.500000X3.000000*%
%ADD77FreePoly2,270.000000*%
%ADD78RoundRect,0.050000X-0.050000X0.350000X-0.050000X-0.350000X0.050000X-0.350000X0.050000X0.350000X0*%
%ADD79FreePoly3,270.000000*%
%ADD80FreePoly4,270.000000*%
%ADD81RoundRect,0.050000X-0.350000X0.050000X-0.350000X-0.050000X0.350000X-0.050000X0.350000X0.050000X0*%
%ADD82FreePoly5,270.000000*%
%ADD83FreePoly6,270.000000*%
%ADD84FreePoly7,270.000000*%
%ADD85FreePoly8,270.000000*%
%ADD86FreePoly9,270.000000*%
%ADD87R,3.000000X3.000000*%
%ADD88R,1.524000X1.524000*%
%ADD89C,1.524000*%
%ADD90C,3.500000*%
%ADD91RoundRect,0.225000X0.225000X0.375000X-0.225000X0.375000X-0.225000X-0.375000X0.225000X-0.375000X0*%
%ADD92RoundRect,0.087500X0.087500X-0.425000X0.087500X0.425000X-0.087500X0.425000X-0.087500X-0.425000X0*%
%ADD93FreePoly10,0.000000*%
%ADD94FreePoly11,0.000000*%
%ADD95RoundRect,0.162500X0.162500X-0.312500X0.162500X0.312500X-0.162500X0.312500X-0.162500X-0.312500X0*%
%ADD96RoundRect,0.250002X-1.499998X-1.499998X1.499998X-1.499998X1.499998X1.499998X-1.499998X1.499998X0*%
%ADD97R,0.600000X1.160000*%
%ADD98R,0.300000X1.160000*%
%ADD99O,1.200000X2.000000*%
%ADD100O,1.000000X2.400000*%
%ADD101C,1.700000*%
%ADD102RoundRect,0.087500X-0.250000X-0.087500X0.250000X-0.087500X0.250000X0.087500X-0.250000X0.087500X0*%
%ADD103R,1.200000X1.500000*%
%ADD104RoundRect,0.250000X-1.425000X0.362500X-1.425000X-0.362500X1.425000X-0.362500X1.425000X0.362500X0*%
%ADD105FreePoly12,270.000000*%
%ADD106RoundRect,0.050000X0.212500X0.050000X-0.212500X0.050000X-0.212500X-0.050000X0.212500X-0.050000X0*%
%ADD107R,1.950000X2.450000*%
%ADD108RoundRect,0.250001X-1.149999X1.149999X-1.149999X-1.149999X1.149999X-1.149999X1.149999X1.149999X0*%
%ADD109C,2.800000*%
%ADD110RoundRect,0.250001X1.149999X-1.149999X1.149999X1.149999X-1.149999X1.149999X-1.149999X-1.149999X0*%
%ADD111RoundRect,0.650000X-0.650000X-0.650000X0.650000X-0.650000X0.650000X0.650000X-0.650000X0.650000X0*%
%ADD112C,2.600000*%
G04 APERTURE END LIST*
%TO.C,JP3*%
G36*
X103750000Y-38800000D02*
G01*
X105250000Y-38800000D01*
X105250000Y-40300000D01*
X103750000Y-40300000D01*
X103750000Y-38800000D01*
G37*
%TD*%
D10*
%TO.C,JP3*%
X105800000Y-39550000D03*
D11*
X104500000Y-39550000D03*
D12*
X103200000Y-39550000D03*
%TD*%
D13*
%TO.C,J11*%
X119400000Y-35900000D03*
D14*
X119400000Y-38400000D03*
%TD*%
D15*
%TO.C,R20*%
X161100000Y-132500000D03*
X163100000Y-132500000D03*
%TD*%
D16*
%TO.C,U10*%
X112950000Y-70362500D03*
X112000000Y-70362500D03*
X111050000Y-70362500D03*
X111050000Y-72637500D03*
X112950000Y-72637500D03*
%TD*%
D15*
%TO.C,R52*%
X119500000Y-58500000D03*
X121500000Y-58500000D03*
%TD*%
D17*
%TO.C,C45*%
X157025000Y-88250000D03*
X158575000Y-88250000D03*
%TD*%
%TO.C,C48*%
X125825000Y-120200000D03*
X127375000Y-120200000D03*
%TD*%
D18*
%TO.C,TH1*%
X154100000Y-129000000D03*
D19*
X158300000Y-129000000D03*
%TD*%
D15*
%TO.C,R23*%
X161100000Y-130500000D03*
X163100000Y-130500000D03*
%TD*%
%TO.C,R32*%
X155000000Y-84000000D03*
X157000000Y-84000000D03*
%TD*%
D20*
%TO.C,U18*%
X123650000Y-130450000D03*
X123650000Y-131400000D03*
X123650000Y-132350000D03*
X126350000Y-132350000D03*
X126350000Y-130450000D03*
%TD*%
D21*
%TO.C,TP20*%
X107000000Y-72000000D03*
%TD*%
D22*
%TO.C,C59*%
X105000000Y-42450000D03*
X105000000Y-44000000D03*
%TD*%
D23*
%TO.C,Q5*%
X101450000Y-49337500D03*
X103350000Y-49337500D03*
X102400000Y-47462500D03*
%TD*%
D24*
%TO.C,TR1*%
X169400000Y-61950000D03*
D25*
X174600000Y-60000000D03*
D24*
X169400000Y-58050000D03*
X174600000Y-58050000D03*
D25*
X169400000Y-60000000D03*
D24*
X174600000Y-61950000D03*
%TD*%
D26*
%TO.C,H2*%
X139000000Y-136000000D03*
%TD*%
D27*
%TO.C,J3*%
X151552500Y-37300000D03*
%TD*%
D28*
%TO.C,U12*%
X158662500Y-133700000D03*
X158662500Y-133200000D03*
X158662500Y-132700000D03*
X158662500Y-132200000D03*
X158662500Y-131700000D03*
X154337500Y-131700000D03*
X154337500Y-132200000D03*
X154337500Y-132700000D03*
X154337500Y-133200000D03*
X154337500Y-133700000D03*
D29*
X156500000Y-132700000D03*
%TD*%
D30*
%TO.C,TP9*%
X171500000Y-75500000D03*
%TD*%
D21*
%TO.C,TP6*%
X152450000Y-78200000D03*
%TD*%
D17*
%TO.C,C54*%
X169600000Y-90800000D03*
X171150000Y-90800000D03*
%TD*%
D31*
%TO.C,R43*%
X111650000Y-118300000D03*
X111650000Y-116300000D03*
%TD*%
D32*
%TO.C,RV1*%
X164495000Y-69500000D03*
X164495000Y-72040000D03*
X164495000Y-74580000D03*
%TD*%
D30*
%TO.C,TP2*%
X123800000Y-51300000D03*
%TD*%
D22*
%TO.C,C23*%
X156000000Y-124525000D03*
X156000000Y-126075000D03*
%TD*%
D31*
%TO.C,R61*%
X111000000Y-103800000D03*
X111000000Y-101800000D03*
%TD*%
%TO.C,R11*%
X158100000Y-109400000D03*
X158100000Y-107400000D03*
%TD*%
D23*
%TO.C,Q1*%
X168600000Y-67500000D03*
X170500000Y-67500000D03*
X169550000Y-65625000D03*
%TD*%
D26*
%TO.C,H5*%
X130000000Y-108000000D03*
%TD*%
D33*
%TO.C,R50*%
X128600000Y-130400000D03*
X128600000Y-132400000D03*
%TD*%
D20*
%TO.C,U20*%
X113850000Y-102050000D03*
X113850000Y-103000000D03*
X113850000Y-103950000D03*
X116550000Y-103950000D03*
X116550000Y-102050000D03*
%TD*%
D34*
%TO.C,R5*%
X151937500Y-116900000D03*
X157862500Y-116900000D03*
%TD*%
D27*
%TO.C,J5*%
X152000000Y-63500000D03*
%TD*%
D35*
%TO.C,C16*%
X163000000Y-57000000D03*
X161750000Y-57000000D03*
X154250000Y-57000000D03*
X153000000Y-57000000D03*
%TD*%
D23*
%TO.C,Q7*%
X145850000Y-113137500D03*
X147750000Y-113137500D03*
X146800000Y-111262500D03*
%TD*%
D22*
%TO.C,C11*%
X151900000Y-107725000D03*
X151900000Y-109275000D03*
%TD*%
D17*
%TO.C,C21*%
X120087500Y-87050000D03*
X121637500Y-87050000D03*
%TD*%
D33*
%TO.C,R66*%
X121800000Y-107800000D03*
X121800000Y-109800000D03*
%TD*%
D17*
%TO.C,C26*%
X115425000Y-88800000D03*
X116975000Y-88800000D03*
%TD*%
D21*
%TO.C,TP5*%
X158800000Y-78300000D03*
%TD*%
D36*
%TO.C,R28*%
X169750000Y-131000000D03*
X167750000Y-131000000D03*
%TD*%
D37*
%TO.C,C2*%
X175025000Y-77500000D03*
X177975000Y-77500000D03*
%TD*%
D31*
%TO.C,R46*%
X103250000Y-123400000D03*
X103250000Y-121400000D03*
%TD*%
D21*
%TO.C,TP7*%
X101900000Y-62700000D03*
%TD*%
D33*
%TO.C,R51*%
X105800000Y-93500000D03*
X105800000Y-95500000D03*
%TD*%
D38*
%TO.C,D12*%
X141270000Y-112000000D03*
D39*
X138730000Y-112000000D03*
%TD*%
D40*
%TO.C,C58*%
X113827500Y-106800000D03*
X110572500Y-106800000D03*
%TD*%
D41*
%TO.C,F1*%
X168625000Y-116900000D03*
X162215000Y-116900000D03*
%TD*%
D17*
%TO.C,C30*%
X133145000Y-120070000D03*
X134695000Y-120070000D03*
%TD*%
D30*
%TO.C,TP14*%
X155250000Y-81000000D03*
%TD*%
D31*
%TO.C,R8*%
X160700000Y-110400000D03*
X160700000Y-108400000D03*
%TD*%
D35*
%TO.C,C15*%
X176400000Y-50000000D03*
X176400000Y-48750000D03*
X176400000Y-41250000D03*
X176400000Y-40000000D03*
%TD*%
D31*
%TO.C,R63*%
X158250000Y-95250000D03*
X158250000Y-93250000D03*
%TD*%
D33*
%TO.C,R9*%
X167900000Y-126987500D03*
X167900000Y-128987500D03*
%TD*%
D31*
%TO.C,R3*%
X163250000Y-82000000D03*
X163250000Y-80000000D03*
%TD*%
D21*
%TO.C,TP16*%
X123200000Y-103800000D03*
%TD*%
D26*
%TO.C,H1*%
X173000000Y-105500000D03*
%TD*%
D35*
%TO.C,C17*%
X175000000Y-34000000D03*
X173750000Y-34000000D03*
X166250000Y-34000000D03*
X165000000Y-34000000D03*
%TD*%
D17*
%TO.C,C25*%
X149525000Y-129500000D03*
X151075000Y-129500000D03*
%TD*%
D42*
%TO.C,J10*%
X125600000Y-40950000D03*
D43*
X125600000Y-38450000D03*
X125600000Y-35950000D03*
X125600000Y-33450000D03*
%TD*%
D44*
%TO.C,C4*%
X173292500Y-68750000D03*
X178407500Y-68750000D03*
%TD*%
D36*
%TO.C,R4*%
X163000000Y-85000000D03*
X161000000Y-85000000D03*
%TD*%
D27*
%TO.C,J7*%
X152000000Y-69500000D03*
%TD*%
D45*
%TO.C,U23*%
X109337500Y-43350000D03*
X109337500Y-41450000D03*
X107062500Y-42400000D03*
%TD*%
D46*
%TO.C,C46*%
X106125000Y-120725000D03*
X106125000Y-123675000D03*
%TD*%
D47*
%TO.C,U15*%
X113050000Y-50700000D03*
D48*
X113050000Y-51100000D03*
X113050000Y-51500000D03*
X113050000Y-51900000D03*
D49*
X113050000Y-52300000D03*
D50*
X113700000Y-52950000D03*
D51*
X114100000Y-52950000D03*
X114500000Y-52950000D03*
X114900000Y-52950000D03*
D52*
X115300000Y-52950000D03*
D53*
X115950000Y-52300000D03*
D48*
X115950000Y-51900000D03*
X115950000Y-51500000D03*
X115950000Y-51100000D03*
D54*
X115950000Y-50700000D03*
D55*
X115300000Y-50050000D03*
D51*
X114900000Y-50050000D03*
X114500000Y-50050000D03*
X114100000Y-50050000D03*
D56*
X113700000Y-50050000D03*
D57*
X114500000Y-51500000D03*
%TD*%
D58*
%TO.C,D1*%
X161450000Y-89500000D03*
X164950000Y-89500000D03*
%TD*%
D31*
%TO.C,R12*%
X124400000Y-81600000D03*
X124400000Y-79600000D03*
%TD*%
D22*
%TO.C,C24*%
X157600000Y-123225000D03*
X157600000Y-124775000D03*
%TD*%
D59*
%TO.C,Q4*%
X108062500Y-93550000D03*
X108062500Y-95450000D03*
X109937500Y-94500000D03*
%TD*%
D15*
%TO.C,R53*%
X118500000Y-56000000D03*
X120500000Y-56000000D03*
%TD*%
%TO.C,R19*%
X109000000Y-79000000D03*
X111000000Y-79000000D03*
%TD*%
%TO.C,R57*%
X147212500Y-94750000D03*
X149212500Y-94750000D03*
%TD*%
D60*
%TO.C,C38*%
X109800000Y-117375000D03*
X109800000Y-115825000D03*
%TD*%
D17*
%TO.C,C49*%
X130425000Y-129200000D03*
X131975000Y-129200000D03*
%TD*%
D26*
%TO.C,H4*%
X104000000Y-111000000D03*
%TD*%
D61*
%TO.C,C41*%
X116925000Y-120042500D03*
X116925000Y-125157500D03*
%TD*%
D30*
%TO.C,TP10*%
X162000000Y-92500000D03*
%TD*%
D22*
%TO.C,C56*%
X115200000Y-42625000D03*
X115200000Y-44175000D03*
%TD*%
D62*
%TO.C,D7*%
X106450000Y-75562500D03*
X104550000Y-75562500D03*
X105500000Y-77437500D03*
%TD*%
D63*
%TO.C,JP1*%
X175000000Y-83635000D03*
D64*
X175000000Y-81730000D03*
%TD*%
D15*
%TO.C,R64*%
X116200000Y-107000000D03*
X118200000Y-107000000D03*
%TD*%
%TO.C,R41*%
X155000000Y-86000000D03*
X157000000Y-86000000D03*
%TD*%
D17*
%TO.C,C5*%
X171825000Y-125600000D03*
X173375000Y-125600000D03*
%TD*%
D22*
%TO.C,C18*%
X113000000Y-81225000D03*
X113000000Y-82775000D03*
%TD*%
D36*
%TO.C,R67*%
X125400000Y-46400000D03*
X123400000Y-46400000D03*
%TD*%
D21*
%TO.C,TP11*%
X164250000Y-95750000D03*
%TD*%
D31*
%TO.C,R60*%
X111000000Y-99900000D03*
X111000000Y-97900000D03*
%TD*%
D35*
%TO.C,C33*%
X154150000Y-73875000D03*
X151650000Y-73875000D03*
%TD*%
D65*
%TO.C,D3*%
X167000000Y-79800000D03*
X167000000Y-85200000D03*
%TD*%
D66*
%TO.C,U8*%
X108862500Y-81050000D03*
X108862500Y-82000000D03*
X108862500Y-82950000D03*
X111137500Y-82950000D03*
X111137500Y-81050000D03*
%TD*%
D60*
%TO.C,C20*%
X150500000Y-123275000D03*
X150500000Y-121725000D03*
%TD*%
D66*
%TO.C,U5*%
X108862500Y-85050000D03*
X108862500Y-86000000D03*
X108862500Y-86950000D03*
X111137500Y-86950000D03*
X111137500Y-85050000D03*
%TD*%
D26*
%TO.C,H3*%
X103000000Y-57000000D03*
%TD*%
D67*
%TO.C,J9*%
X108600000Y-34400000D03*
D68*
X106100000Y-34400000D03*
X103600000Y-34400000D03*
%TD*%
D69*
%TO.C,J1*%
X172775000Y-54475000D03*
%TD*%
D15*
%TO.C,R49*%
X125800000Y-125000000D03*
X127800000Y-125000000D03*
%TD*%
D17*
%TO.C,C1*%
X161225000Y-87000000D03*
X162775000Y-87000000D03*
%TD*%
D36*
%TO.C,R42*%
X115800000Y-116850000D03*
X113800000Y-116850000D03*
%TD*%
%TO.C,R58*%
X131835000Y-124930000D03*
X129835000Y-124930000D03*
%TD*%
D70*
%TO.C,U17*%
X127037500Y-123125000D03*
X127037500Y-122475000D03*
X127037500Y-121825000D03*
X125362500Y-121825000D03*
X125362500Y-122475000D03*
X125362500Y-123125000D03*
%TD*%
D71*
%TO.C,C7*%
X121637500Y-78050000D03*
X120087500Y-78050000D03*
%TD*%
D21*
%TO.C,TP8*%
X107200000Y-102000000D03*
%TD*%
D27*
%TO.C,J6*%
X151552500Y-49000000D03*
%TD*%
D72*
%TO.C,D2*%
X173450000Y-127000000D03*
D73*
X171750000Y-127000000D03*
X171750000Y-129000000D03*
X173650000Y-129000000D03*
%TD*%
D74*
%TO.C,U4*%
X116550000Y-72637500D03*
X117500000Y-72637500D03*
X118450000Y-72637500D03*
X118450000Y-70362500D03*
X116550000Y-70362500D03*
%TD*%
D36*
%TO.C,R10*%
X170600000Y-70000000D03*
X168600000Y-70000000D03*
%TD*%
D21*
%TO.C,TP13*%
X120000000Y-101000000D03*
%TD*%
D15*
%TO.C,R62*%
X101400000Y-51800000D03*
X103400000Y-51800000D03*
%TD*%
D21*
%TO.C,TP12*%
X113000000Y-110800000D03*
%TD*%
D75*
%TO.C,SW1*%
X153425000Y-138425000D03*
X159425000Y-138425000D03*
X157425000Y-138425000D03*
X161425000Y-138425000D03*
D76*
X151325000Y-138425000D03*
X163525000Y-138425000D03*
%TD*%
D35*
%TO.C,C27*%
X160050000Y-73875000D03*
X157550000Y-73875000D03*
%TD*%
D77*
%TO.C,U16*%
X154350000Y-90750000D03*
D78*
X153950000Y-90750000D03*
X153550000Y-90750000D03*
X153150000Y-90750000D03*
D79*
X152750000Y-90750000D03*
D80*
X152100000Y-91400000D03*
D81*
X152100000Y-91800000D03*
X152100000Y-92200000D03*
X152100000Y-92600000D03*
D82*
X152100000Y-93000000D03*
D83*
X152750000Y-93650000D03*
D78*
X153150000Y-93650000D03*
X153550000Y-93650000D03*
X153950000Y-93650000D03*
D84*
X154350000Y-93650000D03*
D85*
X155000000Y-93000000D03*
D81*
X155000000Y-92600000D03*
X155000000Y-92200000D03*
X155000000Y-91800000D03*
D86*
X155000000Y-91400000D03*
D57*
X153550000Y-92200000D03*
%TD*%
D45*
%TO.C,U9*%
X122000000Y-85000000D03*
X122000000Y-84050000D03*
X122000000Y-83100000D03*
X119725000Y-83100000D03*
X119725000Y-85000000D03*
%TD*%
D33*
%TO.C,R6*%
X175000000Y-72462500D03*
X175000000Y-74462500D03*
%TD*%
%TO.C,R68*%
X121200000Y-42800000D03*
X121200000Y-44800000D03*
%TD*%
D27*
%TO.C,J4*%
X151552500Y-43300000D03*
%TD*%
D87*
%TO.C,TP17*%
X169500000Y-99500000D03*
%TD*%
D88*
%TO.C,J8*%
X107250000Y-129522500D03*
D89*
X109750000Y-129522500D03*
X111750000Y-129522500D03*
X114250000Y-129522500D03*
D90*
X103500000Y-132232500D03*
X118000000Y-132232500D03*
%TD*%
D91*
%TO.C,D11*%
X118850000Y-109600000D03*
X115550000Y-109600000D03*
%TD*%
D66*
%TO.C,U3*%
X119725000Y-79600000D03*
X119725000Y-80550000D03*
X119725000Y-81500000D03*
X122000000Y-81500000D03*
X122000000Y-79600000D03*
%TD*%
D30*
%TO.C,TP15*%
X152000000Y-86750000D03*
%TD*%
D60*
%TO.C,C3*%
X158000000Y-113575000D03*
X158000000Y-112025000D03*
%TD*%
D71*
%TO.C,C6*%
X166775000Y-65600000D03*
X165225000Y-65600000D03*
%TD*%
D17*
%TO.C,C40*%
X106225000Y-115800000D03*
X107775000Y-115800000D03*
%TD*%
D21*
%TO.C,TP18*%
X128600000Y-53900000D03*
%TD*%
D71*
%TO.C,C43*%
X127070000Y-74445000D03*
X125520000Y-74445000D03*
%TD*%
D36*
%TO.C,R13*%
X116500000Y-67500000D03*
X114500000Y-67500000D03*
%TD*%
D15*
%TO.C,R44*%
X101200000Y-115600000D03*
X103200000Y-115600000D03*
%TD*%
D92*
%TO.C,U22*%
X116550000Y-44237500D03*
X117200000Y-44237500D03*
X117850000Y-44237500D03*
X117850000Y-42562500D03*
X117200000Y-42562500D03*
X116550000Y-42562500D03*
%TD*%
D93*
%TO.C,JP2*%
X138952500Y-116800000D03*
D94*
X137047500Y-116800000D03*
%TD*%
D15*
%TO.C,R30*%
X155000000Y-62500000D03*
X157000000Y-62500000D03*
%TD*%
D95*
%TO.C,U19*%
X166850000Y-95000000D03*
X167750000Y-95000000D03*
X168650000Y-95000000D03*
X169550000Y-95000000D03*
X169550000Y-93700000D03*
X168650000Y-93700000D03*
X167750000Y-93700000D03*
X166850000Y-93700000D03*
%TD*%
D22*
%TO.C,C9*%
X113500000Y-85225000D03*
X113500000Y-86775000D03*
%TD*%
D21*
%TO.C,TP19*%
X126400000Y-60500000D03*
%TD*%
D15*
%TO.C,R45*%
X106000000Y-117600000D03*
X108000000Y-117600000D03*
%TD*%
%TO.C,R56*%
X147250000Y-97000000D03*
X149250000Y-97000000D03*
%TD*%
D31*
%TO.C,R69*%
X114200000Y-38600000D03*
X114200000Y-36600000D03*
%TD*%
D91*
%TO.C,D9*%
X116850000Y-99800000D03*
X113550000Y-99800000D03*
%TD*%
D17*
%TO.C,C57*%
X102530000Y-45600000D03*
X104080000Y-45600000D03*
%TD*%
D60*
%TO.C,C39*%
X111000000Y-53275000D03*
X111000000Y-51725000D03*
%TD*%
D46*
%TO.C,C44*%
X109725000Y-120725000D03*
X109725000Y-123675000D03*
%TD*%
D15*
%TO.C,R55*%
X147250000Y-99250000D03*
X149250000Y-99250000D03*
%TD*%
D59*
%TO.C,Q6*%
X124262500Y-107850000D03*
X124262500Y-109750000D03*
X126137500Y-108800000D03*
%TD*%
D71*
%TO.C,C14*%
X154375000Y-105000000D03*
X152825000Y-105000000D03*
%TD*%
D96*
%TO.C,BT1*%
X165800000Y-110600000D03*
D90*
X172800000Y-110600000D03*
%TD*%
D22*
%TO.C,C8*%
X120200000Y-71775000D03*
X120200000Y-73325000D03*
%TD*%
%TO.C,C22*%
X114600000Y-71625000D03*
X114600000Y-73175000D03*
%TD*%
D30*
%TO.C,TP1*%
X127800000Y-49500000D03*
%TD*%
D22*
%TO.C,C51*%
X133635000Y-125155000D03*
X133635000Y-126705000D03*
%TD*%
D36*
%TO.C,R33*%
X134800000Y-122000000D03*
X132800000Y-122000000D03*
%TD*%
D97*
%TO.C,J2*%
X168900000Y-134090000D03*
X169700000Y-134090000D03*
D98*
X170850000Y-134090000D03*
X171850000Y-134090000D03*
X172350000Y-134090000D03*
X173350000Y-134090000D03*
D97*
X174500000Y-134090000D03*
X175300000Y-134090000D03*
X175300000Y-134090000D03*
X174500000Y-134090000D03*
D98*
X173850000Y-134090000D03*
X172850000Y-134090000D03*
X171350000Y-134090000D03*
X170350000Y-134090000D03*
D97*
X169700000Y-134090000D03*
X168900000Y-134090000D03*
D99*
X166500000Y-134975000D03*
D100*
X166500000Y-138900000D03*
D99*
X177700000Y-134975000D03*
D100*
X177700000Y-138900000D03*
%TD*%
D101*
%TO.C,SW2*%
X128575000Y-138075000D03*
X124075000Y-138075000D03*
D26*
X129825000Y-135575000D03*
X122825000Y-135575000D03*
%TD*%
D101*
%TO.C,SW3*%
X143250000Y-108250000D03*
X136750000Y-108250000D03*
X143250000Y-103750000D03*
X136750000Y-103750000D03*
%TD*%
D71*
%TO.C,C47*%
X127775000Y-126800000D03*
X126225000Y-126800000D03*
%TD*%
D21*
%TO.C,TP4*%
X159500000Y-123100000D03*
%TD*%
D46*
%TO.C,C42*%
X113125000Y-120725000D03*
X113125000Y-123675000D03*
%TD*%
D15*
%TO.C,R59*%
X129800000Y-127200000D03*
X131800000Y-127200000D03*
%TD*%
D102*
%TO.C,U11*%
X152040000Y-123350000D03*
X152040000Y-123850000D03*
X152040000Y-124350000D03*
X152040000Y-124850000D03*
X154315000Y-124850000D03*
X154315000Y-124350000D03*
X154315000Y-123850000D03*
X154315000Y-123350000D03*
D103*
X153177500Y-124100000D03*
%TD*%
D15*
%TO.C,R37*%
X155000000Y-69500000D03*
X157000000Y-69500000D03*
%TD*%
%TO.C,R29*%
X175750000Y-131000000D03*
X177750000Y-131000000D03*
%TD*%
D22*
%TO.C,C60*%
X111200000Y-41625000D03*
X111200000Y-43175000D03*
%TD*%
D31*
%TO.C,R47*%
X114000000Y-58500000D03*
X114000000Y-56500000D03*
%TD*%
D23*
%TO.C,D8*%
X132850000Y-135137500D03*
X134750000Y-135137500D03*
X133800000Y-133262500D03*
%TD*%
D104*
%TO.C,R48*%
X121800000Y-119837500D03*
X121800000Y-125762500D03*
%TD*%
D105*
%TO.C,U1*%
X156100000Y-106975000D03*
X155700000Y-106975000D03*
X155300000Y-106975000D03*
X154900000Y-106975000D03*
X154500000Y-106975000D03*
X154100000Y-106975000D03*
X154100000Y-110775000D03*
X154500000Y-110775000D03*
X154900000Y-110775000D03*
X155300000Y-110775000D03*
X155700000Y-110775000D03*
X156100000Y-110775000D03*
D106*
X156287500Y-107750000D03*
X153912500Y-107750000D03*
D107*
X155100000Y-108875000D03*
D106*
X156287500Y-110000000D03*
X153912500Y-110000000D03*
%TD*%
D108*
%TO.C,D6*%
X161800000Y-39920000D03*
D109*
X161800000Y-50080000D03*
%TD*%
D110*
%TO.C,D5*%
X166000000Y-50080000D03*
D109*
X166000000Y-39920000D03*
%TD*%
D111*
%TO.C,TP3*%
X152060000Y-32000000D03*
D112*
X157140000Y-32000000D03*
%TD*%
D108*
%TO.C,D4*%
X170400000Y-39920000D03*
D109*
X170400000Y-50080000D03*
%TD*%
M02*
