%TF.GenerationSoftware,KiCad,Pcbnew,10.0.2-10.0.2~ubuntu24.04.1*%
%TF.CreationDate,2026-05-14T01:01:47+03:00*%
%TF.ProjectId,xray-v3,78726179-2d76-4332-9e6b-696361645f70,rev?*%
%TF.SameCoordinates,Original*%
%TF.FileFunction,Soldermask,Top*%
%TF.FilePolarity,Negative*%
%FSLAX46Y46*%
G04 Gerber Fmt 4.6, Leading zero omitted, Abs format (unit mm)*
G04 Created by KiCad (PCBNEW 10.0.2-10.0.2~ubuntu24.04.1) date 2026-05-14 01:01:47*
%MOMM*%
%LPD*%
G01*
G04 APERTURE LIST*
G04 Aperture macros list*
%AMRoundRect*
0 Rectangle with rounded corners*
0 $1 Rounding radius*
0 $2 $3 $4 $5 $6 $7 $8 $9 X,Y pos of 4 corners*
0 Add a 4 corners polygon primitive as box body*
4,1,4,$2,$3,$4,$5,$6,$7,$8,$9,$2,$3,0*
0 Add four circle primitives for the rounded corners*
1,1,$1+$1,$2,$3*
1,1,$1+$1,$4,$5*
1,1,$1+$1,$6,$7*
1,1,$1+$1,$8,$9*
0 Add four rect primitives between the rounded corners*
20,1,$1+$1,$2,$3,$4,$5,0*
20,1,$1+$1,$4,$5,$6,$7,0*
20,1,$1+$1,$6,$7,$8,$9,0*
20,1,$1+$1,$8,$9,$2,$3,0*%
%AMFreePoly0*
4,1,19,1.058779,1.080902,1.095106,1.030902,1.100000,1.000000,1.100000,-1.000000,1.080902,-1.058779,1.030902,-1.095106,1.000000,-1.100000,0.000000,-1.100000,-0.058779,-1.080902,-0.070711,-1.070711,-1.070711,-0.070711,-1.098769,-0.015643,-1.089101,0.045399,-1.070711,0.070711,-0.070711,1.070711,-0.015643,1.098769,0.000000,1.100000,1.000000,1.100000,1.058779,1.080902,1.058779,1.080902,
$1*%
%AMFreePoly1*
4,1,21,1.058779,1.080902,1.095106,1.030902,1.095106,0.969098,1.070711,0.929289,0.250000,0.108578,0.250000,-0.108578,1.070711,-0.929289,1.098769,-0.984357,1.089101,-1.045399,1.045399,-1.089101,1.000000,-1.100000,-1.000000,-1.100000,-1.058779,-1.080902,-1.095106,-1.030902,-1.100000,-1.000000,-1.100000,1.000000,-1.080902,1.058779,-1.030902,1.095106,-1.000000,1.100000,1.000000,1.100000,
1.058779,1.080902,1.058779,1.080902,$1*%
%AMFreePoly2*
4,1,14,0.334644,0.085355,0.385355,0.034644,0.400000,-0.000711,0.400000,-0.050000,0.385355,-0.085355,0.350000,-0.100000,-0.350000,-0.100000,-0.385355,-0.085355,-0.400000,-0.050000,-0.400000,0.050000,-0.385355,0.085355,-0.350000,0.100000,0.299289,0.100000,0.334644,0.085355,0.334644,0.085355,$1*%
%AMFreePoly3*
4,1,14,0.385355,0.085355,0.400000,0.050000,0.400000,0.000711,0.385355,-0.034644,0.334644,-0.085355,0.299289,-0.100000,-0.350000,-0.100000,-0.385355,-0.085355,-0.400000,-0.050000,-0.400000,0.050000,-0.385355,0.085355,-0.350000,0.100000,0.350000,0.100000,0.385355,0.085355,0.385355,0.085355,$1*%
%AMFreePoly4*
4,1,14,0.085355,0.385355,0.100000,0.350000,0.100000,-0.350000,0.085355,-0.385355,0.050000,-0.400000,-0.050000,-0.400000,-0.085355,-0.385355,-0.100000,-0.350000,-0.100000,0.299289,-0.085355,0.334644,-0.034644,0.385355,0.000711,0.400000,0.050000,0.400000,0.085355,0.385355,0.085355,0.385355,$1*%
%AMFreePoly5*
4,1,14,0.034644,0.385355,0.085355,0.334644,0.100000,0.299289,0.100000,-0.350000,0.085355,-0.385355,0.050000,-0.400000,-0.050000,-0.400000,-0.085355,-0.385355,-0.100000,-0.350000,-0.100000,0.350000,-0.085355,0.385355,-0.050000,0.400000,-0.000711,0.400000,0.034644,0.385355,0.034644,0.385355,$1*%
%AMFreePoly6*
4,1,14,0.385355,0.085355,0.400000,0.050000,0.400000,-0.050000,0.385355,-0.085355,0.350000,-0.100000,-0.299289,-0.100000,-0.334644,-0.085355,-0.385355,-0.034644,-0.400000,0.000711,-0.400000,0.050000,-0.385355,0.085355,-0.350000,0.100000,0.350000,0.100000,0.385355,0.085355,0.385355,0.085355,$1*%
%AMFreePoly7*
4,1,14,0.385355,0.085355,0.400000,0.050000,0.400000,-0.050000,0.385355,-0.085355,0.350000,-0.100000,-0.350000,-0.100000,-0.385355,-0.085355,-0.400000,-0.050000,-0.400000,-0.000711,-0.385355,0.034644,-0.334644,0.085355,-0.299289,0.100000,0.350000,0.100000,0.385355,0.085355,0.385355,0.085355,$1*%
%AMFreePoly8*
4,1,14,0.085355,0.385355,0.100000,0.350000,0.100000,-0.299289,0.085355,-0.334644,0.034644,-0.385355,-0.000711,-0.400000,-0.050000,-0.400000,-0.085355,-0.385355,-0.100000,-0.350000,-0.100000,0.350000,-0.085355,0.385355,-0.050000,0.400000,0.050000,0.400000,0.085355,0.385355,0.085355,0.385355,$1*%
%AMFreePoly9*
4,1,14,0.085355,0.385355,0.100000,0.350000,0.100000,-0.350000,0.085355,-0.385355,0.050000,-0.400000,0.000711,-0.400000,-0.034644,-0.385355,-0.085355,-0.334644,-0.100000,-0.299289,-0.100000,0.350000,-0.085355,0.385355,-0.050000,0.400000,0.050000,0.400000,0.085355,0.385355,0.085355,0.385355,$1*%
%AMFreePoly10*
4,1,21,-0.300000,0.050000,-0.296194,0.069134,-0.285355,0.085355,-0.269134,0.096194,-0.250000,0.100000,0.250000,0.100000,0.269134,0.096194,0.285355,0.085355,0.296194,0.069134,0.300000,0.050000,0.300000,-0.050000,0.296194,-0.069134,0.285355,-0.085355,0.269134,-0.096194,0.250000,-0.100000,-0.250000,-0.100000,-0.269134,-0.096194,-0.285355,-0.085355,-0.296194,-0.069134,-0.300000,-0.050000,
-0.300000,0.050000,-0.300000,0.050000,$1*%
G04 Aperture macros list end*
%ADD10RoundRect,0.250000X-0.350000X-0.450000X0.350000X-0.450000X0.350000X0.450000X-0.350000X0.450000X0*%
%ADD11RoundRect,0.250000X-0.600000X-0.725000X0.600000X-0.725000X0.600000X0.725000X-0.600000X0.725000X0*%
%ADD12O,1.700000X1.950000*%
%ADD13RoundRect,0.225000X0.225000X0.250000X-0.225000X0.250000X-0.225000X-0.250000X0.225000X-0.250000X0*%
%ADD14RoundRect,0.150000X-0.150000X0.512500X-0.150000X-0.512500X0.150000X-0.512500X0.150000X0.512500X0*%
%ADD15RoundRect,0.225000X-0.225000X-0.250000X0.225000X-0.250000X0.225000X0.250000X-0.225000X0.250000X0*%
%ADD16RoundRect,0.250000X-0.675000X-0.675000X0.675000X-0.675000X0.675000X0.675000X-0.675000X0.675000X0*%
%ADD17C,1.850000*%
%ADD18R,1.000000X1.000000*%
%ADD19RoundRect,0.150000X0.150000X-0.587500X0.150000X0.587500X-0.150000X0.587500X-0.150000X-0.587500X0*%
%ADD20RoundRect,0.195000X0.555000X-0.455000X0.555000X0.455000X-0.555000X0.455000X-0.555000X-0.455000X0*%
%ADD21RoundRect,0.180000X0.570000X-0.420000X0.570000X0.420000X-0.570000X0.420000X-0.570000X-0.420000X0*%
%ADD22C,2.200000*%
%ADD23RoundRect,0.500000X-0.500000X-1.500000X0.500000X-1.500000X0.500000X1.500000X-0.500000X1.500000X0*%
%ADD24RoundRect,0.075000X0.662500X0.075000X-0.662500X0.075000X-0.662500X-0.075000X0.662500X-0.075000X0*%
%ADD25R,1.730000X1.980000*%
%ADD26C,2.000000*%
%ADD27RoundRect,0.250000X0.350000X0.450000X-0.350000X0.450000X-0.350000X-0.450000X0.350000X-0.450000X0*%
%ADD28O,1.500000X3.000000*%
%ADD29C,1.500000*%
%ADD30FreePoly0,0.000000*%
%ADD31FreePoly1,0.000000*%
%ADD32RoundRect,0.150000X-0.587500X-0.150000X0.587500X-0.150000X0.587500X0.150000X-0.587500X0.150000X0*%
%ADD33C,1.440000*%
%ADD34RoundRect,0.150000X0.587500X0.150000X-0.587500X0.150000X-0.587500X-0.150000X0.587500X-0.150000X0*%
%ADD35RoundRect,0.225000X-0.250000X0.225000X-0.250000X-0.225000X0.250000X-0.225000X0.250000X0.225000X0*%
%ADD36RoundRect,0.250000X0.450000X-0.350000X0.450000X0.350000X-0.450000X0.350000X-0.450000X-0.350000X0*%
%ADD37RoundRect,0.162500X-0.617500X-0.162500X0.617500X-0.162500X0.617500X0.162500X-0.617500X0.162500X0*%
%ADD38RoundRect,0.250000X-0.362500X-1.425000X0.362500X-1.425000X0.362500X1.425000X-0.362500X1.425000X0*%
%ADD39RoundRect,0.150000X0.512500X0.150000X-0.512500X0.150000X-0.512500X-0.150000X0.512500X-0.150000X0*%
%ADD40C,1.600000*%
%ADD41RoundRect,0.250001X0.507499X0.944999X-0.507499X0.944999X-0.507499X-0.944999X0.507499X-0.944999X0*%
%ADD42RoundRect,0.250000X-0.325000X-1.100000X0.325000X-1.100000X0.325000X1.100000X-0.325000X1.100000X0*%
%ADD43RoundRect,0.250000X-0.450000X0.350000X-0.450000X-0.350000X0.450000X-0.350000X0.450000X0.350000X0*%
%ADD44R,1.800000X1.800000*%
%ADD45C,1.800000*%
%ADD46RoundRect,0.952500X1.167500X0.952500X-1.167500X0.952500X-1.167500X-0.952500X1.167500X-0.952500X0*%
%ADD47C,1.700000*%
%ADD48RoundRect,0.250001X-0.872499X-0.944999X0.872499X-0.944999X0.872499X0.944999X-0.872499X0.944999X0*%
%ADD49FreePoly2,0.000000*%
%ADD50RoundRect,0.050000X-0.350000X-0.050000X0.350000X-0.050000X0.350000X0.050000X-0.350000X0.050000X0*%
%ADD51FreePoly3,0.000000*%
%ADD52FreePoly4,0.000000*%
%ADD53RoundRect,0.050000X-0.050000X-0.350000X0.050000X-0.350000X0.050000X0.350000X-0.050000X0.350000X0*%
%ADD54FreePoly5,0.000000*%
%ADD55FreePoly6,0.000000*%
%ADD56FreePoly7,0.000000*%
%ADD57FreePoly8,0.000000*%
%ADD58FreePoly9,0.000000*%
%ADD59R,1.700000X1.700000*%
%ADD60RoundRect,0.250000X-1.400000X-0.600000X1.400000X-0.600000X1.400000X0.600000X-1.400000X0.600000X0*%
%ADD61RoundRect,0.150000X-0.150000X0.587500X-0.150000X-0.587500X0.150000X-0.587500X0.150000X0.587500X0*%
%ADD62RoundRect,0.250000X-1.000000X0.700000X-1.000000X-0.700000X1.000000X-0.700000X1.000000X0.700000X0*%
%ADD63FreePoly0,270.000000*%
%ADD64FreePoly1,270.000000*%
%ADD65RoundRect,0.093750X-0.093750X-0.106250X0.093750X-0.106250X0.093750X0.106250X-0.093750X0.106250X0*%
%ADD66R,1.000000X1.600000*%
%ADD67RoundRect,0.250000X-0.900000X1.500000X-0.900000X-1.500000X0.900000X-1.500000X0.900000X1.500000X0*%
%ADD68RoundRect,0.150000X-0.512500X-0.150000X0.512500X-0.150000X0.512500X0.150000X-0.512500X0.150000X0*%
%ADD69RoundRect,0.225000X0.250000X-0.225000X0.250000X0.225000X-0.250000X0.225000X-0.250000X-0.225000X0*%
%ADD70RoundRect,0.500000X1.500000X-0.500000X1.500000X0.500000X-1.500000X0.500000X-1.500000X-0.500000X0*%
%ADD71C,1.400000*%
%ADD72RoundRect,0.175000X-0.325000X0.175000X-0.325000X-0.175000X0.325000X-0.175000X0.325000X0.175000X0*%
%ADD73RoundRect,0.150000X-0.150000X0.200000X-0.150000X-0.200000X0.150000X-0.200000X0.150000X0.200000X0*%
%ADD74RoundRect,0.150000X0.150000X-0.512500X0.150000X0.512500X-0.150000X0.512500X-0.150000X-0.512500X0*%
%ADD75R,3.000000X3.000000*%
%ADD76R,1.524000X1.524000*%
%ADD77C,1.524000*%
%ADD78C,3.500000*%
%ADD79RoundRect,0.225000X0.225000X0.375000X-0.225000X0.375000X-0.225000X-0.375000X0.225000X-0.375000X0*%
%ADD80RoundRect,0.087500X0.087500X-0.425000X0.087500X0.425000X-0.087500X0.425000X-0.087500X-0.425000X0*%
%ADD81RoundRect,0.162500X0.162500X-0.312500X0.162500X0.312500X-0.162500X0.312500X-0.162500X-0.312500X0*%
%ADD82RoundRect,0.250002X-1.499998X-1.499998X1.499998X-1.499998X1.499998X1.499998X-1.499998X1.499998X0*%
%ADD83RoundRect,0.375000X0.875000X2.875000X-0.875000X2.875000X-0.875000X-2.875000X0.875000X-2.875000X0*%
%ADD84R,0.600000X1.160000*%
%ADD85R,0.300000X1.160000*%
%ADD86O,1.200000X2.000000*%
%ADD87O,1.000000X2.400000*%
%ADD88RoundRect,0.250000X0.750000X-0.600000X0.750000X0.600000X-0.750000X0.600000X-0.750000X-0.600000X0*%
%ADD89O,2.000000X1.700000*%
%ADD90RoundRect,0.087500X-0.250000X-0.087500X0.250000X-0.087500X0.250000X0.087500X-0.250000X0.087500X0*%
%ADD91R,1.200000X1.500000*%
%ADD92FreePoly10,270.000000*%
%ADD93RoundRect,0.050000X0.212500X0.050000X-0.212500X0.050000X-0.212500X-0.050000X0.212500X-0.050000X0*%
%ADD94R,1.950000X2.450000*%
%ADD95FreePoly2,270.000000*%
%ADD96RoundRect,0.050000X-0.050000X0.350000X-0.050000X-0.350000X0.050000X-0.350000X0.050000X0.350000X0*%
%ADD97FreePoly3,270.000000*%
%ADD98FreePoly4,270.000000*%
%ADD99RoundRect,0.050000X-0.350000X0.050000X-0.350000X-0.050000X0.350000X-0.050000X0.350000X0.050000X0*%
%ADD100FreePoly5,270.000000*%
%ADD101FreePoly6,270.000000*%
%ADD102FreePoly7,270.000000*%
%ADD103FreePoly8,270.000000*%
%ADD104FreePoly9,270.000000*%
G04 APERTURE END LIST*
D10*
%TO.C,R22*%
X161100000Y-132500000D03*
X163100000Y-132500000D03*
%TD*%
D11*
%TO.C,U23*%
X105000000Y-34275000D03*
D12*
X107500000Y-34275000D03*
X110000000Y-34275000D03*
X112500000Y-34275000D03*
X115000000Y-34275000D03*
X117500000Y-34275000D03*
X120000000Y-34275000D03*
X122500000Y-34275000D03*
X125000000Y-34275000D03*
%TD*%
D13*
%TO.C,C34*%
X105075000Y-126600000D03*
X103525000Y-126600000D03*
%TD*%
D14*
%TO.C,U10*%
X112950000Y-70362500D03*
X112000000Y-70362500D03*
X111050000Y-70362500D03*
X111050000Y-72637500D03*
X112950000Y-72637500D03*
%TD*%
D10*
%TO.C,R48*%
X119500000Y-58500000D03*
X121500000Y-58500000D03*
%TD*%
D15*
%TO.C,C36*%
X155975000Y-88250000D03*
X157525000Y-88250000D03*
%TD*%
D16*
%TO.C,TH1*%
X154100000Y-129000000D03*
D17*
X158300000Y-129000000D03*
%TD*%
D10*
%TO.C,R25*%
X161100000Y-130500000D03*
X163100000Y-130500000D03*
%TD*%
%TO.C,R34*%
X155000000Y-84000000D03*
X157000000Y-84000000D03*
%TD*%
D18*
%TO.C,TP21*%
X107000000Y-72000000D03*
%TD*%
D15*
%TO.C,C40*%
X103825000Y-45000000D03*
X105375000Y-45000000D03*
%TD*%
D19*
%TO.C,Q6*%
X102850000Y-49137500D03*
X104750000Y-49137500D03*
X103800000Y-47262500D03*
%TD*%
D20*
%TO.C,TR1*%
X169400000Y-61950000D03*
D21*
X174600000Y-60000000D03*
D20*
X169400000Y-58050000D03*
X174600000Y-58050000D03*
D21*
X169400000Y-60000000D03*
D20*
X174600000Y-61950000D03*
%TD*%
D22*
%TO.C,H2*%
X139000000Y-136000000D03*
%TD*%
D23*
%TO.C,J3*%
X154000000Y-37300000D03*
%TD*%
D24*
%TO.C,U12*%
X158662500Y-133700000D03*
X158662500Y-133200000D03*
X158662500Y-132700000D03*
X158662500Y-132200000D03*
X158662500Y-131700000D03*
X154337500Y-131700000D03*
X154337500Y-132200000D03*
X154337500Y-132700000D03*
X154337500Y-133200000D03*
X154337500Y-133700000D03*
D25*
X156500000Y-132700000D03*
%TD*%
D26*
%TO.C,TP11*%
X171500000Y-75500000D03*
%TD*%
D27*
%TO.C,R40*%
X127600000Y-130100000D03*
X125600000Y-130100000D03*
%TD*%
D28*
%TO.C,SW1*%
X151400000Y-138500000D03*
X163600000Y-138500000D03*
D29*
X153500000Y-138500000D03*
X159500000Y-138500000D03*
X157500000Y-138500000D03*
X161500000Y-138500000D03*
%TD*%
D30*
%TO.C,JP5*%
X160635000Y-49000000D03*
D31*
X158730000Y-49000000D03*
%TD*%
D18*
%TO.C,TP6*%
X152450000Y-78200000D03*
%TD*%
D32*
%TO.C,Q5*%
X121462500Y-108650000D03*
X121462500Y-110550000D03*
X123337500Y-109600000D03*
%TD*%
D15*
%TO.C,C38*%
X169600000Y-90800000D03*
X171150000Y-90800000D03*
%TD*%
D33*
%TO.C,RV1*%
X164495000Y-69500000D03*
X164495000Y-72040000D03*
X164495000Y-74580000D03*
%TD*%
D34*
%TO.C,D13*%
X124237500Y-75150000D03*
X124237500Y-73250000D03*
X122362500Y-74200000D03*
%TD*%
D26*
%TO.C,TP2*%
X123800000Y-51300000D03*
%TD*%
D35*
%TO.C,C23*%
X156000000Y-124525000D03*
X156000000Y-126075000D03*
%TD*%
D36*
%TO.C,R54*%
X111000000Y-103800000D03*
X111000000Y-101800000D03*
%TD*%
%TO.C,R11*%
X158100000Y-109400000D03*
X158100000Y-107400000D03*
%TD*%
D19*
%TO.C,Q1*%
X168600000Y-67500000D03*
X170500000Y-67500000D03*
X169550000Y-65625000D03*
%TD*%
D22*
%TO.C,H6*%
X130000000Y-108000000D03*
%TD*%
D37*
%TO.C,U19*%
X113850000Y-102050000D03*
X113850000Y-103000000D03*
X113850000Y-103950000D03*
X116550000Y-103950000D03*
X116550000Y-102050000D03*
%TD*%
D38*
%TO.C,R5*%
X151937500Y-116900000D03*
X157862500Y-116900000D03*
%TD*%
D39*
%TO.C,U14*%
X123537500Y-128150000D03*
X123537500Y-127200000D03*
X123537500Y-126250000D03*
X121262500Y-126250000D03*
X121262500Y-128150000D03*
%TD*%
D23*
%TO.C,J5*%
X152000000Y-63500000D03*
%TD*%
D40*
%TO.C,C16*%
X163000000Y-57000000D03*
X161750000Y-57000000D03*
X154250000Y-57000000D03*
X153000000Y-57000000D03*
%TD*%
D35*
%TO.C,C11*%
X151900000Y-107725000D03*
X151900000Y-109275000D03*
%TD*%
D15*
%TO.C,C21*%
X120087500Y-87050000D03*
X121637500Y-87050000D03*
%TD*%
D18*
%TO.C,TP5*%
X158800000Y-78300000D03*
%TD*%
D41*
%TO.C,C35*%
X105427500Y-123900000D03*
X102172500Y-123900000D03*
%TD*%
D27*
%TO.C,R30*%
X169750000Y-131000000D03*
X167750000Y-131000000D03*
%TD*%
D42*
%TO.C,C2*%
X175025000Y-77500000D03*
X177975000Y-77500000D03*
%TD*%
D18*
%TO.C,TP8*%
X101900000Y-62700000D03*
%TD*%
D43*
%TO.C,R47*%
X105800000Y-93500000D03*
X105800000Y-95500000D03*
%TD*%
D44*
%TO.C,D11*%
X141270000Y-112000000D03*
D45*
X138730000Y-112000000D03*
%TD*%
D41*
%TO.C,C39*%
X113827500Y-106800000D03*
X110572500Y-106800000D03*
%TD*%
D46*
%TO.C,F1*%
X168625000Y-116900000D03*
X162215000Y-116900000D03*
%TD*%
D13*
%TO.C,C32*%
X110550000Y-119800000D03*
X109000000Y-119800000D03*
%TD*%
D10*
%TO.C,R44*%
X112800000Y-126200000D03*
X114800000Y-126200000D03*
%TD*%
D26*
%TO.C,TP16*%
X155250000Y-81000000D03*
%TD*%
D36*
%TO.C,R8*%
X160700000Y-110400000D03*
X160700000Y-108400000D03*
%TD*%
D40*
%TO.C,C15*%
X176000000Y-50000000D03*
X176000000Y-48750000D03*
X176000000Y-41250000D03*
X176000000Y-40000000D03*
%TD*%
D36*
%TO.C,R56*%
X158250000Y-95250000D03*
X158250000Y-93250000D03*
%TD*%
D22*
%TO.C,SW2*%
X129750000Y-135575000D03*
X122750000Y-135575000D03*
D47*
X128500000Y-138075000D03*
X124000000Y-138075000D03*
%TD*%
D43*
%TO.C,R9*%
X167900000Y-126987500D03*
X167900000Y-128987500D03*
%TD*%
D36*
%TO.C,R3*%
X163250000Y-82000000D03*
X163250000Y-80000000D03*
%TD*%
D18*
%TO.C,TP9*%
X124600000Y-106800000D03*
%TD*%
D22*
%TO.C,H1*%
X173000000Y-105500000D03*
%TD*%
D40*
%TO.C,C17*%
X175000000Y-34000000D03*
X173750000Y-34000000D03*
X166250000Y-34000000D03*
X165000000Y-34000000D03*
%TD*%
D15*
%TO.C,C25*%
X149525000Y-129500000D03*
X151075000Y-129500000D03*
%TD*%
D30*
%TO.C,JP2*%
X160735000Y-43300000D03*
D31*
X158830000Y-43300000D03*
%TD*%
D48*
%TO.C,C4*%
X173292500Y-68750000D03*
X178407500Y-68750000D03*
%TD*%
D27*
%TO.C,R4*%
X163000000Y-85000000D03*
X161000000Y-85000000D03*
%TD*%
D23*
%TO.C,J7*%
X152000000Y-69500000D03*
%TD*%
D39*
%TO.C,U22*%
X109337500Y-43350000D03*
X109337500Y-41450000D03*
X107062500Y-42400000D03*
%TD*%
D49*
%TO.C,U16*%
X113050000Y-50700000D03*
D50*
X113050000Y-51100000D03*
X113050000Y-51500000D03*
X113050000Y-51900000D03*
D51*
X113050000Y-52300000D03*
D52*
X113700000Y-52950000D03*
D53*
X114100000Y-52950000D03*
X114500000Y-52950000D03*
X114900000Y-52950000D03*
D54*
X115300000Y-52950000D03*
D55*
X115950000Y-52300000D03*
D50*
X115950000Y-51900000D03*
X115950000Y-51500000D03*
X115950000Y-51100000D03*
D56*
X115950000Y-50700000D03*
D57*
X115300000Y-50050000D03*
D53*
X114900000Y-50050000D03*
X114500000Y-50050000D03*
X114100000Y-50050000D03*
D58*
X113700000Y-50050000D03*
D59*
X114500000Y-51500000D03*
%TD*%
D60*
%TO.C,D1*%
X161250000Y-89500000D03*
X166750000Y-89500000D03*
%TD*%
D36*
%TO.C,R14*%
X124400000Y-81600000D03*
X124400000Y-79600000D03*
%TD*%
D35*
%TO.C,C24*%
X157600000Y-123225000D03*
X157600000Y-124775000D03*
%TD*%
D32*
%TO.C,Q4*%
X108062500Y-93550000D03*
X108062500Y-95450000D03*
X109937500Y-94500000D03*
%TD*%
D10*
%TO.C,R49*%
X118500000Y-56000000D03*
X120500000Y-56000000D03*
%TD*%
%TO.C,R21*%
X109000000Y-79000000D03*
X111000000Y-79000000D03*
%TD*%
%TO.C,R52*%
X147212500Y-94750000D03*
X149212500Y-94750000D03*
%TD*%
D22*
%TO.C,H5*%
X104000000Y-111000000D03*
%TD*%
D26*
%TO.C,TP12*%
X162000000Y-92500000D03*
%TD*%
D61*
%TO.C,D10*%
X106450000Y-75562500D03*
X104550000Y-75562500D03*
X105500000Y-77437500D03*
%TD*%
D62*
%TO.C,L1*%
X114600000Y-118850000D03*
X114600000Y-122950000D03*
%TD*%
D63*
%TO.C,JP1*%
X175000000Y-83635000D03*
D64*
X175000000Y-81730000D03*
%TD*%
D10*
%TO.C,R57*%
X116200000Y-107000000D03*
X118200000Y-107000000D03*
%TD*%
D65*
%TO.C,U15*%
X108825000Y-121750000D03*
X108825000Y-122400000D03*
X108825000Y-123050000D03*
X110600000Y-123050000D03*
X110600000Y-122400000D03*
X110600000Y-121750000D03*
D66*
X109712500Y-122400000D03*
%TD*%
D26*
%TO.C,TP7*%
X103500000Y-117250000D03*
%TD*%
D10*
%TO.C,R42*%
X155000000Y-86000000D03*
X157000000Y-86000000D03*
%TD*%
D15*
%TO.C,C5*%
X171825000Y-125600000D03*
X173375000Y-125600000D03*
%TD*%
D35*
%TO.C,C18*%
X113000000Y-81225000D03*
X113000000Y-82775000D03*
%TD*%
D18*
%TO.C,TP13*%
X164250000Y-95750000D03*
%TD*%
D36*
%TO.C,R53*%
X111000000Y-99900000D03*
X111000000Y-97900000D03*
%TD*%
D40*
%TO.C,C31*%
X154150000Y-73875000D03*
X151650000Y-73875000D03*
%TD*%
D67*
%TO.C,D3*%
X167000000Y-79800000D03*
X167000000Y-85200000D03*
%TD*%
D68*
%TO.C,U8*%
X108862500Y-81050000D03*
X108862500Y-82000000D03*
X108862500Y-82950000D03*
X111137500Y-82950000D03*
X111137500Y-81050000D03*
%TD*%
D69*
%TO.C,C20*%
X150500000Y-123275000D03*
X150500000Y-121725000D03*
%TD*%
D68*
%TO.C,U5*%
X108862500Y-85050000D03*
X108862500Y-86000000D03*
X108862500Y-86950000D03*
X111137500Y-86950000D03*
X111137500Y-85050000D03*
%TD*%
D22*
%TO.C,H4*%
X103000000Y-57000000D03*
%TD*%
D36*
%TO.C,R60*%
X113200000Y-43400000D03*
X113200000Y-41400000D03*
%TD*%
D10*
%TO.C,R43*%
X108900000Y-126200000D03*
X110900000Y-126200000D03*
%TD*%
D35*
%TO.C,C30*%
X121500000Y-130525000D03*
X121500000Y-132075000D03*
%TD*%
D70*
%TO.C,J1*%
X172775000Y-54475000D03*
%TD*%
D15*
%TO.C,C1*%
X161225000Y-87000000D03*
X162775000Y-87000000D03*
%TD*%
D71*
%TO.C,TP3*%
X154350000Y-31200000D03*
X156890000Y-31200000D03*
%TD*%
D30*
%TO.C,JP3*%
X160752500Y-37600000D03*
D31*
X158847500Y-37600000D03*
%TD*%
D13*
%TO.C,C7*%
X121637500Y-78050000D03*
X120087500Y-78050000D03*
%TD*%
D18*
%TO.C,TP10*%
X107200000Y-102000000D03*
%TD*%
D23*
%TO.C,J6*%
X154000000Y-49000000D03*
%TD*%
D72*
%TO.C,D2*%
X173450000Y-127000000D03*
D73*
X171750000Y-127000000D03*
X171750000Y-129000000D03*
X173650000Y-129000000D03*
%TD*%
D74*
%TO.C,U4*%
X116550000Y-72637500D03*
X117500000Y-72637500D03*
X118450000Y-72637500D03*
X118450000Y-70362500D03*
X116550000Y-70362500D03*
%TD*%
D27*
%TO.C,R10*%
X170600000Y-70000000D03*
X168600000Y-70000000D03*
%TD*%
D18*
%TO.C,TP14*%
X120000000Y-101000000D03*
%TD*%
D10*
%TO.C,R58*%
X102800000Y-51600000D03*
X104800000Y-51600000D03*
%TD*%
D18*
%TO.C,TP15*%
X113000000Y-110800000D03*
%TD*%
D22*
%TO.C,H3*%
X108000000Y-66000000D03*
%TD*%
D40*
%TO.C,C26*%
X160050000Y-73875000D03*
X157550000Y-73875000D03*
%TD*%
D39*
%TO.C,U9*%
X122000000Y-85000000D03*
X122000000Y-84050000D03*
X122000000Y-83100000D03*
X119725000Y-83100000D03*
X119725000Y-85000000D03*
%TD*%
D43*
%TO.C,R6*%
X175000000Y-72462500D03*
X175000000Y-74462500D03*
%TD*%
D23*
%TO.C,J4*%
X154000000Y-43300000D03*
%TD*%
D75*
%TO.C,TP18*%
X169500000Y-99500000D03*
%TD*%
D76*
%TO.C,J8*%
X107250000Y-129522500D03*
D77*
X109750000Y-129522500D03*
X111750000Y-129522500D03*
X114250000Y-129522500D03*
D78*
X103500000Y-132232500D03*
X118000000Y-132232500D03*
%TD*%
D79*
%TO.C,D14*%
X118850000Y-109600000D03*
X115550000Y-109600000D03*
%TD*%
D68*
%TO.C,U3*%
X119725000Y-79600000D03*
X119725000Y-80550000D03*
X119725000Y-81500000D03*
X122000000Y-81500000D03*
X122000000Y-79600000D03*
%TD*%
D26*
%TO.C,TP17*%
X152000000Y-86750000D03*
%TD*%
D69*
%TO.C,C3*%
X158000000Y-113575000D03*
X158000000Y-112025000D03*
%TD*%
D13*
%TO.C,C6*%
X166775000Y-65000000D03*
X165225000Y-65000000D03*
%TD*%
D18*
%TO.C,TP19*%
X128600000Y-53900000D03*
%TD*%
D15*
%TO.C,C29*%
X125925000Y-132100000D03*
X127475000Y-132100000D03*
%TD*%
D27*
%TO.C,R15*%
X116500000Y-67500000D03*
X114500000Y-67500000D03*
%TD*%
D80*
%TO.C,U21*%
X115150000Y-40637500D03*
X115800000Y-40637500D03*
X116450000Y-40637500D03*
X116450000Y-38962500D03*
X115800000Y-38962500D03*
X115150000Y-38962500D03*
%TD*%
D30*
%TO.C,JP4*%
X138952500Y-117000000D03*
D31*
X137047500Y-117000000D03*
%TD*%
D10*
%TO.C,R32*%
X155000000Y-62500000D03*
X157000000Y-62500000D03*
%TD*%
D81*
%TO.C,U18*%
X166850000Y-95000000D03*
X167750000Y-95000000D03*
X168650000Y-95000000D03*
X169550000Y-95000000D03*
X169550000Y-93700000D03*
X168650000Y-93700000D03*
X167750000Y-93700000D03*
X166850000Y-93700000D03*
%TD*%
D35*
%TO.C,C9*%
X113500000Y-85225000D03*
X113500000Y-86775000D03*
%TD*%
D18*
%TO.C,TP20*%
X126400000Y-60500000D03*
%TD*%
D10*
%TO.C,R51*%
X147250000Y-97000000D03*
X149250000Y-97000000D03*
%TD*%
D79*
%TO.C,D12*%
X116850000Y-99800000D03*
X113550000Y-99800000D03*
%TD*%
D69*
%TO.C,C33*%
X111000000Y-53275000D03*
X111000000Y-51725000D03*
%TD*%
D10*
%TO.C,R50*%
X147250000Y-99250000D03*
X149250000Y-99250000D03*
%TD*%
D13*
%TO.C,C14*%
X154375000Y-105000000D03*
X152825000Y-105000000D03*
%TD*%
D82*
%TO.C,BT1*%
X165800000Y-110600000D03*
D78*
X172800000Y-110600000D03*
%TD*%
D35*
%TO.C,C8*%
X115000000Y-70725000D03*
X115000000Y-72275000D03*
%TD*%
%TO.C,C22*%
X113000000Y-74725000D03*
X113000000Y-76275000D03*
%TD*%
D26*
%TO.C,TP1*%
X127800000Y-49500000D03*
%TD*%
D83*
%TO.C,R39*%
X125000000Y-121300000D03*
X120000000Y-121300000D03*
%TD*%
D84*
%TO.C,J2*%
X168900000Y-134090000D03*
X169700000Y-134090000D03*
D85*
X170850000Y-134090000D03*
X171850000Y-134090000D03*
X172350000Y-134090000D03*
X173350000Y-134090000D03*
D84*
X174500000Y-134090000D03*
X175300000Y-134090000D03*
X175300000Y-134090000D03*
X174500000Y-134090000D03*
D85*
X173850000Y-134090000D03*
X172850000Y-134090000D03*
X171350000Y-134090000D03*
X170350000Y-134090000D03*
D84*
X169700000Y-134090000D03*
X168900000Y-134090000D03*
D86*
X166500000Y-134975000D03*
D87*
X166500000Y-138900000D03*
D86*
X177700000Y-134975000D03*
D87*
X177700000Y-138900000D03*
%TD*%
D47*
%TO.C,SW3*%
X143250000Y-108250000D03*
X136750000Y-108250000D03*
X143250000Y-103750000D03*
X136750000Y-103750000D03*
%TD*%
D18*
%TO.C,TP4*%
X159500000Y-123100000D03*
%TD*%
D88*
%TO.C,J9*%
X125475000Y-44250000D03*
D89*
X125475000Y-41750000D03*
%TD*%
D18*
%TO.C,TP22*%
X102200000Y-40200000D03*
%TD*%
D90*
%TO.C,U11*%
X152040000Y-123350000D03*
X152040000Y-123850000D03*
X152040000Y-124350000D03*
X152040000Y-124850000D03*
X154315000Y-124850000D03*
X154315000Y-124350000D03*
X154315000Y-123850000D03*
X154315000Y-123350000D03*
D91*
X153177500Y-124100000D03*
%TD*%
D10*
%TO.C,R38*%
X155000000Y-69500000D03*
X157000000Y-69500000D03*
%TD*%
%TO.C,R31*%
X175750000Y-131000000D03*
X177750000Y-131000000D03*
%TD*%
D35*
%TO.C,C41*%
X111200000Y-41625000D03*
X111200000Y-43175000D03*
%TD*%
D36*
%TO.C,R46*%
X114000000Y-58500000D03*
X114000000Y-56500000D03*
%TD*%
D92*
%TO.C,U1*%
X156100000Y-106975000D03*
X155700000Y-106975000D03*
X155300000Y-106975000D03*
X154900000Y-106975000D03*
X154500000Y-106975000D03*
X154100000Y-106975000D03*
X154100000Y-110775000D03*
X154500000Y-110775000D03*
X154900000Y-110775000D03*
X155300000Y-110775000D03*
X155700000Y-110775000D03*
X156100000Y-110775000D03*
D93*
X156287500Y-107750000D03*
X153912500Y-107750000D03*
D94*
X155100000Y-108875000D03*
D93*
X156287500Y-110000000D03*
X153912500Y-110000000D03*
%TD*%
D95*
%TO.C,U17*%
X154350000Y-90750000D03*
D96*
X153950000Y-90750000D03*
X153550000Y-90750000D03*
X153150000Y-90750000D03*
D97*
X152750000Y-90750000D03*
D98*
X152100000Y-91400000D03*
D99*
X152100000Y-91800000D03*
X152100000Y-92200000D03*
X152100000Y-92600000D03*
D100*
X152100000Y-93000000D03*
D101*
X152750000Y-93650000D03*
D96*
X153150000Y-93650000D03*
X153550000Y-93650000D03*
X153950000Y-93650000D03*
D102*
X154350000Y-93650000D03*
D103*
X155000000Y-93000000D03*
D99*
X155000000Y-92600000D03*
X155000000Y-92200000D03*
X155000000Y-91800000D03*
D104*
X155000000Y-91400000D03*
D59*
X153550000Y-92200000D03*
%TD*%
M02*
