%TF.GenerationSoftware,KiCad,Pcbnew,10.0.2-10.0.2~ubuntu24.04.1*%
%TF.CreationDate,2026-05-14T01:01:47+03:00*%
%TF.ProjectId,xray-v3,78726179-2d76-4332-9e6b-696361645f70,rev?*%
%TF.SameCoordinates,Original*%
%TF.FileFunction,Copper,L1,Top*%
%TF.FilePolarity,Positive*%
%FSLAX46Y46*%
G04 Gerber Fmt 4.6, Leading zero omitted, Abs format (unit mm)*
G04 Created by KiCad (PCBNEW 10.0.2-10.0.2~ubuntu24.04.1) date 2026-05-14 01:01:47*
%MOMM*%
%LPD*%
G01*
G04 APERTURE LIST*
G04 Aperture macros list*
%AMRoundRect*
0 Rectangle with rounded corners*
0 $1 Rounding radius*
0 $2 $3 $4 $5 $6 $7 $8 $9 X,Y pos of 4 corners*
0 Add a 4 corners polygon primitive as box body*
4,1,4,$2,$3,$4,$5,$6,$7,$8,$9,$2,$3,0*
0 Add four circle primitives for the rounded corners*
1,1,$1+$1,$2,$3*
1,1,$1+$1,$4,$5*
1,1,$1+$1,$6,$7*
1,1,$1+$1,$8,$9*
0 Add four rect primitives between the rounded corners*
20,1,$1+$1,$2,$3,$4,$5,0*
20,1,$1+$1,$4,$5,$6,$7,0*
20,1,$1+$1,$6,$7,$8,$9,0*
20,1,$1+$1,$8,$9,$2,$3,0*%
%AMFreePoly0*
4,1,19,1.058779,1.080902,1.095106,1.030902,1.100000,1.000000,1.100000,-1.000000,1.080902,-1.058779,1.030902,-1.095106,1.000000,-1.100000,0.000000,-1.100000,-0.058779,-1.080902,-0.070711,-1.070711,-1.070711,-0.070711,-1.098769,-0.015643,-1.089101,0.045399,-1.070711,0.070711,-0.070711,1.070711,-0.015643,1.098769,0.000000,1.100000,1.000000,1.100000,1.058779,1.080902,1.058779,1.080902,
$1*%
%AMFreePoly1*
4,1,21,1.058779,1.080902,1.095106,1.030902,1.095106,0.969098,1.070711,0.929289,0.250000,0.108578,0.250000,-0.108578,1.070711,-0.929289,1.098769,-0.984357,1.089101,-1.045399,1.045399,-1.089101,1.000000,-1.100000,-1.000000,-1.100000,-1.058779,-1.080902,-1.095106,-1.030902,-1.100000,-1.000000,-1.100000,1.000000,-1.080902,1.058779,-1.030902,1.095106,-1.000000,1.100000,1.000000,1.100000,
1.058779,1.080902,1.058779,1.080902,$1*%
%AMFreePoly2*
4,1,14,0.334644,0.085355,0.385355,0.034644,0.400000,-0.000711,0.400000,-0.050000,0.385355,-0.085355,0.350000,-0.100000,-0.350000,-0.100000,-0.385355,-0.085355,-0.400000,-0.050000,-0.400000,0.050000,-0.385355,0.085355,-0.350000,0.100000,0.299289,0.100000,0.334644,0.085355,0.334644,0.085355,$1*%
%AMFreePoly3*
4,1,14,0.385355,0.085355,0.400000,0.050000,0.400000,0.000711,0.385355,-0.034644,0.334644,-0.085355,0.299289,-0.100000,-0.350000,-0.100000,-0.385355,-0.085355,-0.400000,-0.050000,-0.400000,0.050000,-0.385355,0.085355,-0.350000,0.100000,0.350000,0.100000,0.385355,0.085355,0.385355,0.085355,$1*%
%AMFreePoly4*
4,1,14,0.085355,0.385355,0.100000,0.350000,0.100000,-0.350000,0.085355,-0.385355,0.050000,-0.400000,-0.050000,-0.400000,-0.085355,-0.385355,-0.100000,-0.350000,-0.100000,0.299289,-0.085355,0.334644,-0.034644,0.385355,0.000711,0.400000,0.050000,0.400000,0.085355,0.385355,0.085355,0.385355,$1*%
%AMFreePoly5*
4,1,14,0.034644,0.385355,0.085355,0.334644,0.100000,0.299289,0.100000,-0.350000,0.085355,-0.385355,0.050000,-0.400000,-0.050000,-0.400000,-0.085355,-0.385355,-0.100000,-0.350000,-0.100000,0.350000,-0.085355,0.385355,-0.050000,0.400000,-0.000711,0.400000,0.034644,0.385355,0.034644,0.385355,$1*%
%AMFreePoly6*
4,1,14,0.385355,0.085355,0.400000,0.050000,0.400000,-0.050000,0.385355,-0.085355,0.350000,-0.100000,-0.299289,-0.100000,-0.334644,-0.085355,-0.385355,-0.034644,-0.400000,0.000711,-0.400000,0.050000,-0.385355,0.085355,-0.350000,0.100000,0.350000,0.100000,0.385355,0.085355,0.385355,0.085355,$1*%
%AMFreePoly7*
4,1,14,0.385355,0.085355,0.400000,0.050000,0.400000,-0.050000,0.385355,-0.085355,0.350000,-0.100000,-0.350000,-0.100000,-0.385355,-0.085355,-0.400000,-0.050000,-0.400000,-0.000711,-0.385355,0.034644,-0.334644,0.085355,-0.299289,0.100000,0.350000,0.100000,0.385355,0.085355,0.385355,0.085355,$1*%
%AMFreePoly8*
4,1,14,0.085355,0.385355,0.100000,0.350000,0.100000,-0.299289,0.085355,-0.334644,0.034644,-0.385355,-0.000711,-0.400000,-0.050000,-0.400000,-0.085355,-0.385355,-0.100000,-0.350000,-0.100000,0.350000,-0.085355,0.385355,-0.050000,0.400000,0.050000,0.400000,0.085355,0.385355,0.085355,0.385355,$1*%
%AMFreePoly9*
4,1,14,0.085355,0.385355,0.100000,0.350000,0.100000,-0.350000,0.085355,-0.385355,0.050000,-0.400000,0.000711,-0.400000,-0.034644,-0.385355,-0.085355,-0.334644,-0.100000,-0.299289,-0.100000,0.350000,-0.085355,0.385355,-0.050000,0.400000,0.050000,0.400000,0.085355,0.385355,0.085355,0.385355,$1*%
%AMFreePoly10*
4,1,21,-0.300000,0.050000,-0.296194,0.069134,-0.285355,0.085355,-0.269134,0.096194,-0.250000,0.100000,0.250000,0.100000,0.269134,0.096194,0.285355,0.085355,0.296194,0.069134,0.300000,0.050000,0.300000,-0.050000,0.296194,-0.069134,0.285355,-0.085355,0.269134,-0.096194,0.250000,-0.100000,-0.250000,-0.100000,-0.269134,-0.096194,-0.285355,-0.085355,-0.296194,-0.069134,-0.300000,-0.050000,
-0.300000,0.050000,-0.300000,0.050000,$1*%
G04 Aperture macros list end*
%TA.AperFunction,SMDPad,CuDef*%
%ADD10RoundRect,0.250000X-0.350000X-0.450000X0.350000X-0.450000X0.350000X0.450000X-0.350000X0.450000X0*%
%TD*%
%TA.AperFunction,ComponentPad*%
%ADD11RoundRect,0.250000X-0.600000X-0.725000X0.600000X-0.725000X0.600000X0.725000X-0.600000X0.725000X0*%
%TD*%
%TA.AperFunction,ComponentPad*%
%ADD12O,1.700000X1.950000*%
%TD*%
%TA.AperFunction,SMDPad,CuDef*%
%ADD13RoundRect,0.225000X0.225000X0.250000X-0.225000X0.250000X-0.225000X-0.250000X0.225000X-0.250000X0*%
%TD*%
%TA.AperFunction,SMDPad,CuDef*%
%ADD14RoundRect,0.150000X-0.150000X0.512500X-0.150000X-0.512500X0.150000X-0.512500X0.150000X0.512500X0*%
%TD*%
%TA.AperFunction,SMDPad,CuDef*%
%ADD15RoundRect,0.225000X-0.225000X-0.250000X0.225000X-0.250000X0.225000X0.250000X-0.225000X0.250000X0*%
%TD*%
%TA.AperFunction,ComponentPad*%
%ADD16RoundRect,0.250000X-0.675000X-0.675000X0.675000X-0.675000X0.675000X0.675000X-0.675000X0.675000X0*%
%TD*%
%TA.AperFunction,ComponentPad*%
%ADD17C,1.850000*%
%TD*%
%TA.AperFunction,SMDPad,CuDef*%
%ADD18R,1.000000X1.000000*%
%TD*%
%TA.AperFunction,SMDPad,CuDef*%
%ADD19RoundRect,0.150000X0.150000X-0.587500X0.150000X0.587500X-0.150000X0.587500X-0.150000X-0.587500X0*%
%TD*%
%TA.AperFunction,SMDPad,CuDef*%
%ADD20RoundRect,0.195000X0.555000X-0.455000X0.555000X0.455000X-0.555000X0.455000X-0.555000X-0.455000X0*%
%TD*%
%TA.AperFunction,SMDPad,CuDef*%
%ADD21RoundRect,0.180000X0.570000X-0.420000X0.570000X0.420000X-0.570000X0.420000X-0.570000X-0.420000X0*%
%TD*%
%TA.AperFunction,SMDPad,CuDef*%
%ADD22RoundRect,0.500000X-0.500000X-1.500000X0.500000X-1.500000X0.500000X1.500000X-0.500000X1.500000X0*%
%TD*%
%TA.AperFunction,SMDPad,CuDef*%
%ADD23RoundRect,0.075000X0.662500X0.075000X-0.662500X0.075000X-0.662500X-0.075000X0.662500X-0.075000X0*%
%TD*%
%TA.AperFunction,HeatsinkPad*%
%ADD24R,1.730000X1.980000*%
%TD*%
%TA.AperFunction,ComponentPad*%
%ADD25C,2.000000*%
%TD*%
%TA.AperFunction,SMDPad,CuDef*%
%ADD26RoundRect,0.250000X0.350000X0.450000X-0.350000X0.450000X-0.350000X-0.450000X0.350000X-0.450000X0*%
%TD*%
%TA.AperFunction,ComponentPad*%
%ADD27O,1.500000X3.000000*%
%TD*%
%TA.AperFunction,ComponentPad*%
%ADD28C,1.500000*%
%TD*%
%TA.AperFunction,SMDPad,CuDef*%
%ADD29FreePoly0,0.000000*%
%TD*%
%TA.AperFunction,SMDPad,CuDef*%
%ADD30FreePoly1,0.000000*%
%TD*%
%TA.AperFunction,SMDPad,CuDef*%
%ADD31RoundRect,0.150000X-0.587500X-0.150000X0.587500X-0.150000X0.587500X0.150000X-0.587500X0.150000X0*%
%TD*%
%TA.AperFunction,ComponentPad*%
%ADD32C,1.440000*%
%TD*%
%TA.AperFunction,SMDPad,CuDef*%
%ADD33RoundRect,0.150000X0.587500X0.150000X-0.587500X0.150000X-0.587500X-0.150000X0.587500X-0.150000X0*%
%TD*%
%TA.AperFunction,SMDPad,CuDef*%
%ADD34RoundRect,0.225000X-0.250000X0.225000X-0.250000X-0.225000X0.250000X-0.225000X0.250000X0.225000X0*%
%TD*%
%TA.AperFunction,SMDPad,CuDef*%
%ADD35RoundRect,0.250000X0.450000X-0.350000X0.450000X0.350000X-0.450000X0.350000X-0.450000X-0.350000X0*%
%TD*%
%TA.AperFunction,SMDPad,CuDef*%
%ADD36RoundRect,0.162500X-0.617500X-0.162500X0.617500X-0.162500X0.617500X0.162500X-0.617500X0.162500X0*%
%TD*%
%TA.AperFunction,SMDPad,CuDef*%
%ADD37RoundRect,0.250000X-0.362500X-1.425000X0.362500X-1.425000X0.362500X1.425000X-0.362500X1.425000X0*%
%TD*%
%TA.AperFunction,SMDPad,CuDef*%
%ADD38RoundRect,0.150000X0.512500X0.150000X-0.512500X0.150000X-0.512500X-0.150000X0.512500X-0.150000X0*%
%TD*%
%TA.AperFunction,ComponentPad*%
%ADD39C,1.600000*%
%TD*%
%TA.AperFunction,SMDPad,CuDef*%
%ADD40RoundRect,0.250001X0.507499X0.944999X-0.507499X0.944999X-0.507499X-0.944999X0.507499X-0.944999X0*%
%TD*%
%TA.AperFunction,SMDPad,CuDef*%
%ADD41RoundRect,0.250000X-0.325000X-1.100000X0.325000X-1.100000X0.325000X1.100000X-0.325000X1.100000X0*%
%TD*%
%TA.AperFunction,SMDPad,CuDef*%
%ADD42RoundRect,0.250000X-0.450000X0.350000X-0.450000X-0.350000X0.450000X-0.350000X0.450000X0.350000X0*%
%TD*%
%TA.AperFunction,ComponentPad*%
%ADD43R,1.800000X1.800000*%
%TD*%
%TA.AperFunction,ComponentPad*%
%ADD44C,1.800000*%
%TD*%
%TA.AperFunction,SMDPad,CuDef*%
%ADD45RoundRect,0.952500X1.167500X0.952500X-1.167500X0.952500X-1.167500X-0.952500X1.167500X-0.952500X0*%
%TD*%
%TA.AperFunction,ComponentPad*%
%ADD46C,2.200000*%
%TD*%
%TA.AperFunction,ComponentPad*%
%ADD47C,1.700000*%
%TD*%
%TA.AperFunction,SMDPad,CuDef*%
%ADD48RoundRect,0.250001X-0.872499X-0.944999X0.872499X-0.944999X0.872499X0.944999X-0.872499X0.944999X0*%
%TD*%
%TA.AperFunction,SMDPad,CuDef*%
%ADD49FreePoly2,0.000000*%
%TD*%
%TA.AperFunction,SMDPad,CuDef*%
%ADD50RoundRect,0.050000X-0.350000X-0.050000X0.350000X-0.050000X0.350000X0.050000X-0.350000X0.050000X0*%
%TD*%
%TA.AperFunction,SMDPad,CuDef*%
%ADD51FreePoly3,0.000000*%
%TD*%
%TA.AperFunction,SMDPad,CuDef*%
%ADD52FreePoly4,0.000000*%
%TD*%
%TA.AperFunction,SMDPad,CuDef*%
%ADD53RoundRect,0.050000X-0.050000X-0.350000X0.050000X-0.350000X0.050000X0.350000X-0.050000X0.350000X0*%
%TD*%
%TA.AperFunction,SMDPad,CuDef*%
%ADD54FreePoly5,0.000000*%
%TD*%
%TA.AperFunction,SMDPad,CuDef*%
%ADD55FreePoly6,0.000000*%
%TD*%
%TA.AperFunction,SMDPad,CuDef*%
%ADD56FreePoly7,0.000000*%
%TD*%
%TA.AperFunction,SMDPad,CuDef*%
%ADD57FreePoly8,0.000000*%
%TD*%
%TA.AperFunction,SMDPad,CuDef*%
%ADD58FreePoly9,0.000000*%
%TD*%
%TA.AperFunction,HeatsinkPad*%
%ADD59R,1.700000X1.700000*%
%TD*%
%TA.AperFunction,SMDPad,CuDef*%
%ADD60RoundRect,0.250000X-1.400000X-0.600000X1.400000X-0.600000X1.400000X0.600000X-1.400000X0.600000X0*%
%TD*%
%TA.AperFunction,SMDPad,CuDef*%
%ADD61RoundRect,0.150000X-0.150000X0.587500X-0.150000X-0.587500X0.150000X-0.587500X0.150000X0.587500X0*%
%TD*%
%TA.AperFunction,SMDPad,CuDef*%
%ADD62RoundRect,0.250000X-1.000000X0.700000X-1.000000X-0.700000X1.000000X-0.700000X1.000000X0.700000X0*%
%TD*%
%TA.AperFunction,SMDPad,CuDef*%
%ADD63FreePoly0,270.000000*%
%TD*%
%TA.AperFunction,SMDPad,CuDef*%
%ADD64FreePoly1,270.000000*%
%TD*%
%TA.AperFunction,SMDPad,CuDef*%
%ADD65RoundRect,0.093750X-0.093750X-0.106250X0.093750X-0.106250X0.093750X0.106250X-0.093750X0.106250X0*%
%TD*%
%TA.AperFunction,HeatsinkPad*%
%ADD66R,1.000000X1.600000*%
%TD*%
%TA.AperFunction,SMDPad,CuDef*%
%ADD67RoundRect,0.250000X-0.900000X1.500000X-0.900000X-1.500000X0.900000X-1.500000X0.900000X1.500000X0*%
%TD*%
%TA.AperFunction,SMDPad,CuDef*%
%ADD68RoundRect,0.150000X-0.512500X-0.150000X0.512500X-0.150000X0.512500X0.150000X-0.512500X0.150000X0*%
%TD*%
%TA.AperFunction,SMDPad,CuDef*%
%ADD69RoundRect,0.225000X0.250000X-0.225000X0.250000X0.225000X-0.250000X0.225000X-0.250000X-0.225000X0*%
%TD*%
%TA.AperFunction,SMDPad,CuDef*%
%ADD70RoundRect,0.500000X1.500000X-0.500000X1.500000X0.500000X-1.500000X0.500000X-1.500000X-0.500000X0*%
%TD*%
%TA.AperFunction,ComponentPad*%
%ADD71C,1.400000*%
%TD*%
%TA.AperFunction,SMDPad,CuDef*%
%ADD72RoundRect,0.175000X-0.325000X0.175000X-0.325000X-0.175000X0.325000X-0.175000X0.325000X0.175000X0*%
%TD*%
%TA.AperFunction,SMDPad,CuDef*%
%ADD73RoundRect,0.150000X-0.150000X0.200000X-0.150000X-0.200000X0.150000X-0.200000X0.150000X0.200000X0*%
%TD*%
%TA.AperFunction,SMDPad,CuDef*%
%ADD74RoundRect,0.150000X0.150000X-0.512500X0.150000X0.512500X-0.150000X0.512500X-0.150000X-0.512500X0*%
%TD*%
%TA.AperFunction,ComponentPad*%
%ADD75R,3.000000X3.000000*%
%TD*%
%TA.AperFunction,ComponentPad*%
%ADD76R,1.524000X1.524000*%
%TD*%
%TA.AperFunction,ComponentPad*%
%ADD77C,1.524000*%
%TD*%
%TA.AperFunction,ComponentPad*%
%ADD78C,3.500000*%
%TD*%
%TA.AperFunction,SMDPad,CuDef*%
%ADD79RoundRect,0.225000X0.225000X0.375000X-0.225000X0.375000X-0.225000X-0.375000X0.225000X-0.375000X0*%
%TD*%
%TA.AperFunction,SMDPad,CuDef*%
%ADD80RoundRect,0.087500X0.087500X-0.425000X0.087500X0.425000X-0.087500X0.425000X-0.087500X-0.425000X0*%
%TD*%
%TA.AperFunction,SMDPad,CuDef*%
%ADD81RoundRect,0.162500X0.162500X-0.312500X0.162500X0.312500X-0.162500X0.312500X-0.162500X-0.312500X0*%
%TD*%
%TA.AperFunction,ComponentPad*%
%ADD82RoundRect,0.250002X-1.499998X-1.499998X1.499998X-1.499998X1.499998X1.499998X-1.499998X1.499998X0*%
%TD*%
%TA.AperFunction,SMDPad,CuDef*%
%ADD83RoundRect,0.375000X0.875000X2.875000X-0.875000X2.875000X-0.875000X-2.875000X0.875000X-2.875000X0*%
%TD*%
%TA.AperFunction,SMDPad,CuDef*%
%ADD84R,0.600000X1.160000*%
%TD*%
%TA.AperFunction,SMDPad,CuDef*%
%ADD85R,0.300000X1.160000*%
%TD*%
%TA.AperFunction,ComponentPad*%
%ADD86O,1.200000X2.000000*%
%TD*%
%TA.AperFunction,ComponentPad*%
%ADD87O,1.000000X2.400000*%
%TD*%
%TA.AperFunction,ComponentPad*%
%ADD88RoundRect,0.250000X0.750000X-0.600000X0.750000X0.600000X-0.750000X0.600000X-0.750000X-0.600000X0*%
%TD*%
%TA.AperFunction,ComponentPad*%
%ADD89O,2.000000X1.700000*%
%TD*%
%TA.AperFunction,SMDPad,CuDef*%
%ADD90RoundRect,0.087500X-0.250000X-0.087500X0.250000X-0.087500X0.250000X0.087500X-0.250000X0.087500X0*%
%TD*%
%TA.AperFunction,HeatsinkPad*%
%ADD91R,1.200000X1.500000*%
%TD*%
%TA.AperFunction,SMDPad,CuDef*%
%ADD92FreePoly10,270.000000*%
%TD*%
%TA.AperFunction,SMDPad,CuDef*%
%ADD93RoundRect,0.050000X0.212500X0.050000X-0.212500X0.050000X-0.212500X-0.050000X0.212500X-0.050000X0*%
%TD*%
%TA.AperFunction,SMDPad,CuDef*%
%ADD94R,1.950000X2.450000*%
%TD*%
%TA.AperFunction,SMDPad,CuDef*%
%ADD95FreePoly2,270.000000*%
%TD*%
%TA.AperFunction,SMDPad,CuDef*%
%ADD96RoundRect,0.050000X-0.050000X0.350000X-0.050000X-0.350000X0.050000X-0.350000X0.050000X0.350000X0*%
%TD*%
%TA.AperFunction,SMDPad,CuDef*%
%ADD97FreePoly3,270.000000*%
%TD*%
%TA.AperFunction,SMDPad,CuDef*%
%ADD98FreePoly4,270.000000*%
%TD*%
%TA.AperFunction,SMDPad,CuDef*%
%ADD99RoundRect,0.050000X-0.350000X0.050000X-0.350000X-0.050000X0.350000X-0.050000X0.350000X0.050000X0*%
%TD*%
%TA.AperFunction,SMDPad,CuDef*%
%ADD100FreePoly5,270.000000*%
%TD*%
%TA.AperFunction,SMDPad,CuDef*%
%ADD101FreePoly6,270.000000*%
%TD*%
%TA.AperFunction,SMDPad,CuDef*%
%ADD102FreePoly7,270.000000*%
%TD*%
%TA.AperFunction,SMDPad,CuDef*%
%ADD103FreePoly8,270.000000*%
%TD*%
%TA.AperFunction,SMDPad,CuDef*%
%ADD104FreePoly9,270.000000*%
%TD*%
%TA.AperFunction,ViaPad*%
%ADD105C,0.600000*%
%TD*%
%TA.AperFunction,ViaPad*%
%ADD106C,0.800000*%
%TD*%
%TA.AperFunction,Conductor*%
%ADD107C,0.180000*%
%TD*%
%TA.AperFunction,Conductor*%
%ADD108C,0.500000*%
%TD*%
%TA.AperFunction,Conductor*%
%ADD109C,0.200000*%
%TD*%
%TA.AperFunction,Conductor*%
%ADD110C,1.000000*%
%TD*%
%TA.AperFunction,Conductor*%
%ADD111C,2.000000*%
%TD*%
G04 APERTURE END LIST*
D10*
%TO.P,R22,1*%
%TO.N,Net-(U12-ISET)*%
X161100000Y-132500000D03*
%TO.P,R22,2*%
%TO.N,GND*%
X163100000Y-132500000D03*
%TD*%
D11*
%TO.P,U23,1,VCC_1*%
%TO.N,Net-(JP6-C)*%
X105000000Y-34275000D03*
D12*
%TO.P,U23,2,GND_2*%
%TO.N,GND*%
X107500000Y-34275000D03*
%TO.P,U23,3,CS_3*%
X110000000Y-34275000D03*
%TO.P,U23,4,RESET#_4*%
%TO.N,/DISPLAY_2.8V*%
X112500000Y-34275000D03*
%TO.P,U23,5,DC_5*%
%TO.N,Net-(U21-B)*%
X115000000Y-34275000D03*
%TO.P,U23,6,MOSI_6*%
%TO.N,Net-(U20-B2)*%
X117500000Y-34275000D03*
%TO.P,U23,7,SCK_7*%
%TO.N,Net-(U20-B1)*%
X120000000Y-34275000D03*
%TO.P,U23,8,LED_8*%
%TO.N,Net-(U23-LED)*%
X122500000Y-34275000D03*
%TO.P,U23,9,MISO_9*%
%TO.N,unconnected-(U23-MISO-Pad9)*%
X125000000Y-34275000D03*
%TD*%
D13*
%TO.P,C34,1*%
%TO.N,Net-(J8-VBUS)*%
X105075000Y-126600000D03*
%TO.P,C34,2*%
%TO.N,GNDD*%
X103525000Y-126600000D03*
%TD*%
D14*
%TO.P,U10,1*%
%TO.N,/UPDI2_EN*%
X112950000Y-70362500D03*
%TO.P,U10,2*%
%TO.N,/RESET_UI*%
X112000000Y-70362500D03*
%TO.P,U10,3,GND_3*%
%TO.N,GND*%
X111050000Y-70362500D03*
%TO.P,U10,4*%
%TO.N,/USB1_RX_VCC*%
X111050000Y-72637500D03*
%TO.P,U10,5,VCC_5*%
%TO.N,VCC*%
X112950000Y-72637500D03*
%TD*%
D10*
%TO.P,R48,1*%
%TO.N,VCC*%
X119500000Y-58500000D03*
%TO.P,R48,2*%
%TO.N,/I2C_SCL*%
X121500000Y-58500000D03*
%TD*%
D15*
%TO.P,C36,1*%
%TO.N,VCC*%
X155975000Y-88250000D03*
%TO.P,C36,2*%
%TO.N,GND*%
X157525000Y-88250000D03*
%TD*%
D16*
%TO.P,TH1,1*%
%TO.N,Net-(U12-TS)*%
X154100000Y-129000000D03*
D17*
%TO.P,TH1,2*%
%TO.N,GND*%
X158300000Y-129000000D03*
%TD*%
D10*
%TO.P,R25,1*%
%TO.N,Net-(U12-PRETERM)*%
X161100000Y-130500000D03*
%TO.P,R25,2*%
%TO.N,GND*%
X163100000Y-130500000D03*
%TD*%
%TO.P,R34,1*%
%TO.N,/SBM20_SGN_MK*%
X155000000Y-84000000D03*
%TO.P,R34,2*%
%TO.N,VCC*%
X157000000Y-84000000D03*
%TD*%
D18*
%TO.P,TP21,1,1_1*%
%TO.N,/UART_EN*%
X107000000Y-72000000D03*
%TD*%
D15*
%TO.P,C40,1*%
%TO.N,/DISPLAY_VCC*%
X103825000Y-45000000D03*
%TO.P,C40,2*%
%TO.N,GND*%
X105375000Y-45000000D03*
%TD*%
D19*
%TO.P,Q6,1,G_1*%
%TO.N,/TFT_ENABLE#*%
X102850000Y-49137500D03*
%TO.P,Q6,2,S_2*%
%TO.N,VCC*%
X104750000Y-49137500D03*
%TO.P,Q6,3,D_3*%
%TO.N,/DISPLAY_VCC*%
X103800000Y-47262500D03*
%TD*%
D20*
%TO.P,TR1,1,1_1*%
%TO.N,Net-(C10-Pad2)*%
X169400000Y-61950000D03*
D21*
%TO.P,TR1,2*%
%TO.N,N/C*%
X174600000Y-60000000D03*
D20*
%TO.P,TR1,3*%
X169400000Y-58050000D03*
%TO.P,TR1,4,4_4*%
%TO.N,Net-(Q1-D)*%
X174600000Y-58050000D03*
D21*
%TO.P,TR1,5,5_5*%
%TO.N,Net-(D4-A)*%
X169400000Y-60000000D03*
D20*
%TO.P,TR1,6,6_6*%
%TO.N,GNDPWR*%
X174600000Y-61950000D03*
%TD*%
D22*
%TO.P,J3,1,Pin_1_1*%
%TO.N,Net-(J3-Pin_1)*%
X154000000Y-37300000D03*
%TD*%
D23*
%TO.P,U12,1,IN_1*%
%TO.N,/USB1_VBUS*%
X158662500Y-133700000D03*
%TO.P,U12,2,ISET_2*%
%TO.N,Net-(U12-ISET)*%
X158662500Y-133200000D03*
%TO.P,U12,3,VSS_3*%
%TO.N,GND*%
X158662500Y-132700000D03*
%TO.P,U12,4,PRETERM_4*%
%TO.N,Net-(U12-PRETERM)*%
X158662500Y-132200000D03*
%TO.P,U12,5,~{PG}_5*%
%TO.N,unconnected-(U12-~{PG}-Pad5)*%
X158662500Y-131700000D03*
%TO.P,U12,6,NC_6*%
%TO.N,unconnected-(U12-NC-Pad6)*%
X154337500Y-131700000D03*
%TO.P,U12,7,ISET2_7*%
%TO.N,GND*%
X154337500Y-132200000D03*
%TO.P,U12,8,~{CHG}_8*%
%TO.N,unconnected-(U12-~{CHG}-Pad8)*%
X154337500Y-132700000D03*
%TO.P,U12,9,TS_9*%
%TO.N,Net-(U12-TS)*%
X154337500Y-133200000D03*
%TO.P,U12,10,OUT_10*%
%TO.N,VCC*%
X154337500Y-133700000D03*
D24*
%TO.P,U12,11,VSS_11*%
%TO.N,GND*%
X156500000Y-132700000D03*
%TD*%
D25*
%TO.P,TP11,1,1_1*%
%TO.N,/HV_PWM*%
X171500000Y-75500000D03*
%TD*%
D26*
%TO.P,R40,1*%
%TO.N,GNDD*%
X127600000Y-130100000D03*
%TO.P,R40,2*%
%TO.N,Net-(U13-ON)*%
X125600000Y-130100000D03*
%TD*%
D27*
%TO.P,SW1,*%
%TO.N,*%
X151400000Y-138500000D03*
X163600000Y-138500000D03*
D28*
%TO.P,SW1,1,1_1*%
%TO.N,/UART_EN*%
X153500000Y-138500000D03*
%TO.P,SW1,2,2_2*%
%TO.N,/UPDI1_EN*%
X159500000Y-138500000D03*
%TO.P,SW1,3,3_3*%
%TO.N,VCCQ*%
X157500000Y-138500000D03*
%TO.P,SW1,4,4_4*%
%TO.N,/UPDI2_EN*%
X161500000Y-138500000D03*
%TD*%
D29*
%TO.P,JP5,1,A_1*%
%TO.N,/HV*%
X160635000Y-49000000D03*
D30*
%TO.P,JP5,2,B_2*%
%TO.N,Net-(J6-Pin_1)*%
X158730000Y-49000000D03*
%TD*%
D18*
%TO.P,TP6,1,1_1*%
%TO.N,Net-(Q3-B)*%
X152450000Y-78200000D03*
%TD*%
D31*
%TO.P,Q5,1,G_1*%
%TO.N,Net-(D12-K)*%
X121462500Y-108650000D03*
%TO.P,Q5,2,S_2*%
%TO.N,Net-(D14-K)*%
X121462500Y-110550000D03*
%TO.P,Q5,3,D_3*%
%TO.N,Net-(D11-A)*%
X123337500Y-109600000D03*
%TD*%
D15*
%TO.P,C38,1*%
%TO.N,VCC*%
X169600000Y-90800000D03*
%TO.P,C38,2*%
%TO.N,GND*%
X171150000Y-90800000D03*
%TD*%
D32*
%TO.P,RV1,1,1_1*%
%TO.N,Net-(D3-K)*%
X164495000Y-69500000D03*
%TO.P,RV1,2,2_2*%
X164495000Y-72040000D03*
%TO.P,RV1,3,3_3*%
%TO.N,Net-(R3-Pad2)*%
X164495000Y-74580000D03*
%TD*%
D33*
%TO.P,D13,1*%
%TO.N,/RESET_UV*%
X124237500Y-75150000D03*
%TO.P,D13,2*%
%TO.N,/RESET_UI*%
X124237500Y-73250000D03*
%TO.P,D13,3*%
%TO.N,Net-(D12-K)*%
X122362500Y-74200000D03*
%TD*%
D25*
%TO.P,TP2,1,1_1*%
%TO.N,/BATSTATE_INT*%
X123800000Y-51300000D03*
%TD*%
D34*
%TO.P,C23,1*%
%TO.N,Net-(U11-CT)*%
X156000000Y-124525000D03*
%TO.P,C23,2*%
%TO.N,GND*%
X156000000Y-126075000D03*
%TD*%
D35*
%TO.P,R54,1*%
%TO.N,GND*%
X111000000Y-103800000D03*
%TO.P,R54,2*%
%TO.N,Net-(D12-A)*%
X111000000Y-101800000D03*
%TD*%
%TO.P,R11,1*%
%TO.N,/BATSTATE_INT*%
X158100000Y-109400000D03*
%TO.P,R11,2*%
%TO.N,VCC*%
X158100000Y-107400000D03*
%TD*%
D19*
%TO.P,Q1,1,G_1*%
%TO.N,/HV_PWM*%
X168600000Y-67500000D03*
%TO.P,Q1,2,S_2*%
%TO.N,GNDPWR*%
X170500000Y-67500000D03*
%TO.P,Q1,3,D_3*%
%TO.N,Net-(Q1-D)*%
X169550000Y-65625000D03*
%TD*%
D36*
%TO.P,U19,1,+_1*%
%TO.N,Net-(D12-A)*%
X113850000Y-102050000D03*
%TO.P,U19,2,V-_2*%
%TO.N,GND*%
X113850000Y-103000000D03*
%TO.P,U19,3,-_3*%
%TO.N,Net-(D14-A)*%
X113850000Y-103950000D03*
%TO.P,U19,4*%
%TO.N,Net-(D12-K)*%
X116550000Y-103950000D03*
%TO.P,U19,5,V+_5*%
%TO.N,Net-(D14-K)*%
X116550000Y-102050000D03*
%TD*%
D37*
%TO.P,R5,1*%
%TO.N,VCC*%
X151937500Y-116900000D03*
%TO.P,R5,2*%
%TO.N,/VBAT*%
X157862500Y-116900000D03*
%TD*%
D38*
%TO.P,U14,1*%
%TO.N,Net-(U13-ON)*%
X123537500Y-128150000D03*
%TO.P,U14,2,GND_2*%
%TO.N,GNDD*%
X123537500Y-127200000D03*
%TO.P,U14,3,+_3*%
%TO.N,Net-(U14-+)*%
X123537500Y-126250000D03*
%TO.P,U14,4,-_4*%
%TO.N,Net-(U14--)*%
X121262500Y-126250000D03*
%TO.P,U14,5,V+_5*%
%TO.N,Net-(U14-+)*%
X121262500Y-128150000D03*
%TD*%
D22*
%TO.P,J5,1,Pin_1_1*%
%TO.N,Net-(J5-Pin_1)*%
X152000000Y-63500000D03*
%TD*%
D39*
%TO.P,C16,1*%
%TO.N,Net-(D4-A)*%
X163000000Y-57000000D03*
X161750000Y-57000000D03*
%TO.P,C16,2*%
%TO.N,Net-(D6-A)*%
X154250000Y-57000000D03*
X153000000Y-57000000D03*
%TD*%
D34*
%TO.P,C11,1*%
%TO.N,/VBAT*%
X151900000Y-107725000D03*
%TO.P,C11,2*%
%TO.N,GND*%
X151900000Y-109275000D03*
%TD*%
D15*
%TO.P,C21,1*%
%TO.N,VCC*%
X120087500Y-87050000D03*
%TO.P,C21,2*%
%TO.N,GND*%
X121637500Y-87050000D03*
%TD*%
D18*
%TO.P,TP5,1,1_1*%
%TO.N,Net-(Q2-B)*%
X158800000Y-78300000D03*
%TD*%
D40*
%TO.P,C35,1*%
%TO.N,Net-(J8-VBUS)*%
X105427500Y-123900000D03*
%TO.P,C35,2*%
%TO.N,GNDD*%
X102172500Y-123900000D03*
%TD*%
D26*
%TO.P,R30,1*%
%TO.N,/USB1_CC1*%
X169750000Y-131000000D03*
%TO.P,R30,2*%
%TO.N,GND*%
X167750000Y-131000000D03*
%TD*%
D41*
%TO.P,C2,1*%
%TO.N,Net-(JP1-B)*%
X175025000Y-77500000D03*
%TO.P,C2,2*%
%TO.N,GNDPWR*%
X177975000Y-77500000D03*
%TD*%
D18*
%TO.P,TP8,1,1_1*%
%TO.N,/WAKEUP_BUTTON*%
X101900000Y-62700000D03*
%TD*%
D42*
%TO.P,R47,1*%
%TO.N,/WAKEUP_BUTTON*%
X105800000Y-93500000D03*
%TO.P,R47,2*%
%TO.N,VCC*%
X105800000Y-95500000D03*
%TD*%
D43*
%TO.P,D11,1,K_1*%
%TO.N,Net-(D11-K)*%
X141270000Y-112000000D03*
D44*
%TO.P,D11,2,A_2*%
%TO.N,Net-(D11-A)*%
X138730000Y-112000000D03*
%TD*%
D40*
%TO.P,C39,1*%
%TO.N,Net-(D14-A)*%
X113827500Y-106800000D03*
%TO.P,C39,2*%
%TO.N,GND*%
X110572500Y-106800000D03*
%TD*%
D45*
%TO.P,F1,1*%
%TO.N,Net-(BT1-+)*%
X168625000Y-116900000D03*
%TO.P,F1,2*%
%TO.N,/VBAT*%
X162215000Y-116900000D03*
%TD*%
D13*
%TO.P,C32,1*%
%TO.N,Net-(U14--)*%
X110550000Y-119800000D03*
%TO.P,C32,2*%
%TO.N,GNDD*%
X109000000Y-119800000D03*
%TD*%
D10*
%TO.P,R44,1*%
%TO.N,Net-(U15-FB)*%
X112800000Y-126200000D03*
%TO.P,R44,2*%
%TO.N,GNDD*%
X114800000Y-126200000D03*
%TD*%
D25*
%TO.P,TP16,1,1_1*%
%TO.N,/SBM20_SGN_MK*%
X155250000Y-81000000D03*
%TD*%
D35*
%TO.P,R8,1*%
%TO.N,/BATSTATE_WAKEUP*%
X160700000Y-110400000D03*
%TO.P,R8,2*%
%TO.N,GND*%
X160700000Y-108400000D03*
%TD*%
D39*
%TO.P,C15,1*%
%TO.N,GNDPWR*%
X176000000Y-50000000D03*
X176000000Y-48750000D03*
%TO.P,C15,2*%
%TO.N,Net-(D5-K)*%
X176000000Y-41250000D03*
X176000000Y-40000000D03*
%TD*%
D35*
%TO.P,R56,1*%
%TO.N,VCC*%
X158250000Y-95250000D03*
%TO.P,R56,2*%
%TO.N,/TIMER_ON_IMPL*%
X158250000Y-93250000D03*
%TD*%
D46*
%TO.P,SW2,*%
%TO.N,*%
X129750000Y-135575000D03*
X122750000Y-135575000D03*
D47*
%TO.P,SW2,1,1_1*%
%TO.N,Net-(JP4-B)*%
X128500000Y-138075000D03*
%TO.P,SW2,2,2_2*%
%TO.N,Net-(U13-ON)*%
X124000000Y-138075000D03*
%TD*%
D42*
%TO.P,R9,1*%
%TO.N,Net-(U2-~{RST})*%
X167900000Y-126987500D03*
%TO.P,R9,2*%
%TO.N,/CP2102_VREG*%
X167900000Y-128987500D03*
%TD*%
D35*
%TO.P,R3,1*%
%TO.N,/HV_FB*%
X163250000Y-82000000D03*
%TO.P,R3,2*%
%TO.N,Net-(R3-Pad2)*%
X163250000Y-80000000D03*
%TD*%
D18*
%TO.P,TP9,1,1_1*%
%TO.N,Net-(D12-K)*%
X124600000Y-106800000D03*
%TD*%
D39*
%TO.P,C17,1*%
%TO.N,Net-(D5-K)*%
X175000000Y-34000000D03*
X173750000Y-34000000D03*
%TO.P,C17,2*%
%TO.N,/HV*%
X166250000Y-34000000D03*
X165000000Y-34000000D03*
%TD*%
D15*
%TO.P,C25,1*%
%TO.N,VCC*%
X149525000Y-129500000D03*
%TO.P,C25,2*%
%TO.N,GND*%
X151075000Y-129500000D03*
%TD*%
D29*
%TO.P,JP2,1,A_1*%
%TO.N,/HV*%
X160735000Y-43300000D03*
D30*
%TO.P,JP2,2,B_2*%
%TO.N,Net-(J4-Pin_1)*%
X158830000Y-43300000D03*
%TD*%
D48*
%TO.P,C4,1*%
%TO.N,Net-(C10-Pad2)*%
X173292500Y-68750000D03*
%TO.P,C4,2*%
%TO.N,GNDPWR*%
X178407500Y-68750000D03*
%TD*%
D26*
%TO.P,R4,1*%
%TO.N,GND*%
X163000000Y-85000000D03*
%TO.P,R4,2*%
%TO.N,/HV_FB*%
X161000000Y-85000000D03*
%TD*%
D22*
%TO.P,J7,1,Pin_1_1*%
%TO.N,Net-(J7-Pin_1)*%
X152000000Y-69500000D03*
%TD*%
D38*
%TO.P,U22,1,GND_1*%
%TO.N,GND*%
X109337500Y-43350000D03*
%TO.P,U22,2,VO_2*%
%TO.N,/DISPLAY_2.8V*%
X109337500Y-41450000D03*
%TO.P,U22,3,VI_3*%
%TO.N,/DISPLAY_VCC*%
X107062500Y-42400000D03*
%TD*%
D49*
%TO.P,U16,1,PA2_1*%
%TO.N,unconnected-(U16-PA2-Pad1)*%
X113050000Y-50700000D03*
D50*
%TO.P,U16,2,PA3_2*%
%TO.N,/SCK*%
X113050000Y-51100000D03*
%TO.P,U16,3,GND_3*%
%TO.N,GND*%
X113050000Y-51500000D03*
%TO.P,U16,4,VCC_4*%
%TO.N,VCC*%
X113050000Y-51900000D03*
D51*
%TO.P,U16,5,PA4_5*%
%TO.N,/ATTINY_ALARM*%
X113050000Y-52300000D03*
D52*
%TO.P,U16,6,PA5_6*%
%TO.N,/WAKEUP_BUTTON*%
X113700000Y-52950000D03*
D53*
%TO.P,U16,7,PA6_7*%
%TO.N,Net-(U16-PA6)*%
X114100000Y-52950000D03*
%TO.P,U16,8,PA7_8*%
%TO.N,/ATTINY_WAKEUP*%
X114500000Y-52950000D03*
%TO.P,U16,9,PB5_9*%
%TO.N,/BATSTATE_INT*%
X114900000Y-52950000D03*
D54*
%TO.P,U16,10,PB4_10*%
%TO.N,/BATSTATE_WAKEUP*%
X115300000Y-52950000D03*
D55*
%TO.P,U16,11,PB3_11*%
%TO.N,/ATTINY_RX*%
X115950000Y-52300000D03*
D50*
%TO.P,U16,12,PB2_12*%
%TO.N,/ATTINY_UI_TX*%
X115950000Y-51900000D03*
%TO.P,U16,13,PB1_13*%
%TO.N,/I2C_SDA*%
X115950000Y-51500000D03*
%TO.P,U16,14,PB0_14*%
%TO.N,/I2C_SCL*%
X115950000Y-51100000D03*
D56*
%TO.P,U16,15,PC0_15*%
%TO.N,unconnected-(U16-PC0-Pad15)*%
X115950000Y-50700000D03*
D57*
%TO.P,U16,16,PC1_16*%
%TO.N,/TFT_ENABLE#*%
X115300000Y-50050000D03*
D53*
%TO.P,U16,17,PC2_17*%
%TO.N,unconnected-(U16-PC2-Pad17)*%
X114900000Y-50050000D03*
%TO.P,U16,18,PC3_18*%
%TO.N,/TFT_DC*%
X114500000Y-50050000D03*
%TO.P,U16,19,~{RESET}/PA0_19*%
%TO.N,/RESET_UI*%
X114100000Y-50050000D03*
D58*
%TO.P,U16,20,PA1_20*%
%TO.N,/MOSI*%
X113700000Y-50050000D03*
D59*
%TO.P,U16,21,GND_21*%
%TO.N,GND*%
X114500000Y-51500000D03*
%TD*%
D60*
%TO.P,D1,1,K_1*%
%TO.N,/HV_FB*%
X161250000Y-89500000D03*
%TO.P,D1,2,A_2*%
%TO.N,GND*%
X166750000Y-89500000D03*
%TD*%
D35*
%TO.P,R14,1*%
%TO.N,Net-(R14-Pad1)*%
X124400000Y-81600000D03*
%TO.P,R14,2*%
%TO.N,/RESET_UV*%
X124400000Y-79600000D03*
%TD*%
D34*
%TO.P,C24,1*%
%TO.N,VCCQ*%
X157600000Y-123225000D03*
%TO.P,C24,2*%
%TO.N,GND*%
X157600000Y-124775000D03*
%TD*%
D31*
%TO.P,Q4,1,G_1*%
%TO.N,/WAKEUP_BUTTON*%
X108062500Y-93550000D03*
%TO.P,Q4,2,S_2*%
%TO.N,VCC*%
X108062500Y-95450000D03*
%TO.P,Q4,3,D_3*%
%TO.N,Net-(D14-K)*%
X109937500Y-94500000D03*
%TD*%
D10*
%TO.P,R49,1*%
%TO.N,VCC*%
X118500000Y-56000000D03*
%TO.P,R49,2*%
%TO.N,/I2C_SDA*%
X120500000Y-56000000D03*
%TD*%
%TO.P,R21,1*%
%TO.N,Net-(D10-Pad3)*%
X109000000Y-79000000D03*
%TO.P,R21,2*%
%TO.N,VCCQ*%
X111000000Y-79000000D03*
%TD*%
%TO.P,R52,1*%
%TO.N,/ATTINY_WAKEUP*%
X147212500Y-94750000D03*
%TO.P,R52,2*%
%TO.N,Net-(U17-PA5)*%
X149212500Y-94750000D03*
%TD*%
D25*
%TO.P,TP12,1,1_1*%
%TO.N,/HV_FB*%
X162000000Y-92500000D03*
%TD*%
D61*
%TO.P,D10,1*%
%TO.N,/ATTINY_UV_TX*%
X106450000Y-75562500D03*
%TO.P,D10,2*%
%TO.N,/ATTINY_UI_TX*%
X104550000Y-75562500D03*
%TO.P,D10,3*%
%TO.N,Net-(D10-Pad3)*%
X105500000Y-77437500D03*
%TD*%
D62*
%TO.P,L1,1,1_1*%
%TO.N,Net-(U14--)*%
X114600000Y-118850000D03*
%TO.P,L1,2,2_2*%
%TO.N,Net-(U15-SW)*%
X114600000Y-122950000D03*
%TD*%
D63*
%TO.P,JP1,1,A_1*%
%TO.N,VCC*%
X175000000Y-83635000D03*
D64*
%TO.P,JP1,2,B_2*%
%TO.N,Net-(JP1-B)*%
X175000000Y-81730000D03*
%TD*%
D10*
%TO.P,R57,1*%
%TO.N,Net-(D14-A)*%
X116200000Y-107000000D03*
%TO.P,R57,2*%
%TO.N,Net-(D14-K)*%
X118200000Y-107000000D03*
%TD*%
D65*
%TO.P,U15,1,GND_1*%
%TO.N,GNDD*%
X108825000Y-121750000D03*
%TO.P,U15,2,VOUT_2*%
%TO.N,Net-(J8-VBUS)*%
X108825000Y-122400000D03*
%TO.P,U15,3,FB_3*%
%TO.N,Net-(U15-FB)*%
X108825000Y-123050000D03*
%TO.P,U15,4,EN_4*%
%TO.N,Net-(U14--)*%
X110600000Y-123050000D03*
%TO.P,U15,5,SW_5*%
%TO.N,Net-(U15-SW)*%
X110600000Y-122400000D03*
%TO.P,U15,6,VI_6*%
%TO.N,Net-(U14--)*%
X110600000Y-121750000D03*
D66*
%TO.P,U15,7,GND_7*%
%TO.N,GNDD*%
X109712500Y-122400000D03*
%TD*%
D25*
%TO.P,TP7,1,1_1*%
%TO.N,Net-(J8-VBUS)*%
X103500000Y-117250000D03*
%TD*%
D10*
%TO.P,R42,1*%
%TO.N,/SBT9_SGM_MK*%
X155000000Y-86000000D03*
%TO.P,R42,2*%
%TO.N,VCC*%
X157000000Y-86000000D03*
%TD*%
D15*
%TO.P,C5,1*%
%TO.N,/USB1_VBUS*%
X171825000Y-125600000D03*
%TO.P,C5,2*%
%TO.N,GND*%
X173375000Y-125600000D03*
%TD*%
D34*
%TO.P,C18,1*%
%TO.N,VCCQ*%
X113000000Y-81225000D03*
%TO.P,C18,2*%
%TO.N,GND*%
X113000000Y-82775000D03*
%TD*%
D18*
%TO.P,TP13,1,1_1*%
%TO.N,/TIMER_ON_IMPL*%
X164250000Y-95750000D03*
%TD*%
D35*
%TO.P,R53,1*%
%TO.N,Net-(D12-A)*%
X111000000Y-99900000D03*
%TO.P,R53,2*%
%TO.N,Net-(D14-K)*%
X111000000Y-97900000D03*
%TD*%
D39*
%TO.P,C31,1*%
%TO.N,Net-(J7-Pin_1)*%
X154150000Y-73875000D03*
%TO.P,C31,2*%
%TO.N,Net-(Q3-B)*%
X151650000Y-73875000D03*
%TD*%
D67*
%TO.P,D3,1,K_1*%
%TO.N,Net-(D3-K)*%
X167000000Y-79800000D03*
%TO.P,D3,2,A_2*%
%TO.N,GND*%
X167000000Y-85200000D03*
%TD*%
D68*
%TO.P,U8,1*%
%TO.N,/UART_EN*%
X108862500Y-81050000D03*
%TO.P,U8,2*%
%TO.N,Net-(D10-Pad3)*%
X108862500Y-82000000D03*
%TO.P,U8,3,GND_3*%
%TO.N,GND*%
X108862500Y-82950000D03*
%TO.P,U8,4*%
%TO.N,/USB1_RX_VCC*%
X111137500Y-82950000D03*
%TO.P,U8,5,VCC_5*%
%TO.N,VCCQ*%
X111137500Y-81050000D03*
%TD*%
D69*
%TO.P,C20,1*%
%TO.N,VCC*%
X150500000Y-123275000D03*
%TO.P,C20,2*%
%TO.N,GND*%
X150500000Y-121725000D03*
%TD*%
D68*
%TO.P,U5,1*%
%TO.N,/UART_EN*%
X108862500Y-85050000D03*
%TO.P,U5,2*%
%TO.N,/USB1_TX_VCC*%
X108862500Y-86000000D03*
%TO.P,U5,3,GND_3*%
%TO.N,GND*%
X108862500Y-86950000D03*
%TO.P,U5,4*%
%TO.N,/ATTINY_RX*%
X111137500Y-86950000D03*
%TO.P,U5,5,VCC_5*%
%TO.N,VCCQ*%
X111137500Y-85050000D03*
%TD*%
D35*
%TO.P,R60,1*%
%TO.N,GND*%
X113200000Y-43400000D03*
%TO.P,R60,2*%
%TO.N,/DISPLAY_2.8V*%
X113200000Y-41400000D03*
%TD*%
D10*
%TO.P,R43,1*%
%TO.N,Net-(J8-VBUS)*%
X108900000Y-126200000D03*
%TO.P,R43,2*%
%TO.N,Net-(U15-FB)*%
X110900000Y-126200000D03*
%TD*%
D34*
%TO.P,C30,1*%
%TO.N,Net-(U14-+)*%
X121500000Y-130525000D03*
%TO.P,C30,2*%
%TO.N,GNDD*%
X121500000Y-132075000D03*
%TD*%
D70*
%TO.P,J1,1,Pin_1_1*%
%TO.N,GNDPWR*%
X172775000Y-54475000D03*
%TD*%
D15*
%TO.P,C1,1*%
%TO.N,/HV_FB*%
X161225000Y-87000000D03*
%TO.P,C1,2*%
%TO.N,GND*%
X162775000Y-87000000D03*
%TD*%
D71*
%TO.P,TP3,1,1_1*%
%TO.N,Net-(R16-Pad2)*%
X154350000Y-31200000D03*
%TO.P,TP3,2,2_2*%
%TO.N,GNDPWR*%
X156890000Y-31200000D03*
%TD*%
D29*
%TO.P,JP3,1,A_1*%
%TO.N,/HV*%
X160752500Y-37600000D03*
D30*
%TO.P,JP3,2,B_2*%
%TO.N,Net-(J3-Pin_1)*%
X158847500Y-37600000D03*
%TD*%
D13*
%TO.P,C7,1*%
%TO.N,VCC*%
X121637500Y-78050000D03*
%TO.P,C7,2*%
%TO.N,GND*%
X120087500Y-78050000D03*
%TD*%
D18*
%TO.P,TP10,1,1_1*%
%TO.N,Net-(D12-A)*%
X107200000Y-102000000D03*
%TD*%
D22*
%TO.P,J6,1,Pin_1_1*%
%TO.N,Net-(J6-Pin_1)*%
X154000000Y-49000000D03*
%TD*%
D72*
%TO.P,D2,1,A_1*%
%TO.N,GND*%
X173450000Y-127000000D03*
D73*
%TO.P,D2,2,K_2*%
%TO.N,/USB1_VBUS*%
X171750000Y-127000000D03*
%TO.P,D2,3,K_3*%
%TO.N,/USB1_D-*%
X171750000Y-129000000D03*
%TO.P,D2,4,K_4*%
%TO.N,/USB1_D+*%
X173650000Y-129000000D03*
%TD*%
D74*
%TO.P,U4,1*%
%TO.N,/UPDI2_EN*%
X116550000Y-72637500D03*
%TO.P,U4,2*%
%TO.N,/USB1_TX_VCC*%
X117500000Y-72637500D03*
%TO.P,U4,3,GND_3*%
%TO.N,GND*%
X118450000Y-72637500D03*
%TO.P,U4,4*%
%TO.N,Net-(R15-Pad1)*%
X118450000Y-70362500D03*
%TO.P,U4,5,VCC_5*%
%TO.N,VCC*%
X116550000Y-70362500D03*
%TD*%
D26*
%TO.P,R10,1*%
%TO.N,GNDPWR*%
X170600000Y-70000000D03*
%TO.P,R10,2*%
%TO.N,/HV_PWM*%
X168600000Y-70000000D03*
%TD*%
D18*
%TO.P,TP14,1,1_1*%
%TO.N,Net-(D14-K)*%
X120000000Y-101000000D03*
%TD*%
D10*
%TO.P,R58,1*%
%TO.N,/TFT_ENABLE#*%
X102800000Y-51600000D03*
%TO.P,R58,2*%
%TO.N,VCC*%
X104800000Y-51600000D03*
%TD*%
D18*
%TO.P,TP15,1,1_1*%
%TO.N,Net-(D14-A)*%
X113000000Y-110800000D03*
%TD*%
D39*
%TO.P,C26,1*%
%TO.N,Net-(J5-Pin_1)*%
X160050000Y-73875000D03*
%TO.P,C26,2*%
%TO.N,Net-(Q2-B)*%
X157550000Y-73875000D03*
%TD*%
D38*
%TO.P,U9,1*%
%TO.N,/UPDI1_EN*%
X122000000Y-85000000D03*
%TO.P,U9,2*%
%TO.N,/RESET_UV*%
X122000000Y-84050000D03*
%TO.P,U9,3,GND_3*%
%TO.N,GND*%
X122000000Y-83100000D03*
%TO.P,U9,4*%
%TO.N,/USB1_RX_VCC*%
X119725000Y-83100000D03*
%TO.P,U9,5,VCC_5*%
%TO.N,VCC*%
X119725000Y-85000000D03*
%TD*%
D42*
%TO.P,R6,1*%
%TO.N,Net-(C10-Pad2)*%
X175000000Y-72462500D03*
%TO.P,R6,2*%
%TO.N,Net-(JP1-B)*%
X175000000Y-74462500D03*
%TD*%
D22*
%TO.P,J4,1,Pin_1_1*%
%TO.N,Net-(J4-Pin_1)*%
X154000000Y-43300000D03*
%TD*%
D75*
%TO.P,TP18,1,1_1*%
%TO.N,GND*%
X169500000Y-99500000D03*
%TD*%
D76*
%TO.P,J8,1,VBUS_1*%
%TO.N,Net-(J8-VBUS)*%
X107250000Y-129522500D03*
D77*
%TO.P,J8,2,D-_2*%
%TO.N,Net-(J8-D-)*%
X109750000Y-129522500D03*
%TO.P,J8,3,D+_3*%
%TO.N,Net-(J8-D+)*%
X111750000Y-129522500D03*
%TO.P,J8,4,GND_4*%
%TO.N,GNDD*%
X114250000Y-129522500D03*
D78*
%TO.P,J8,SH,Shield_SH*%
X103500000Y-132232500D03*
X118000000Y-132232500D03*
%TD*%
D79*
%TO.P,D14,1,K_1*%
%TO.N,Net-(D14-K)*%
X118850000Y-109600000D03*
%TO.P,D14,2,A_2*%
%TO.N,Net-(D14-A)*%
X115550000Y-109600000D03*
%TD*%
D68*
%TO.P,U3,1*%
%TO.N,/UPDI1_EN*%
X119725000Y-79600000D03*
%TO.P,U3,2*%
%TO.N,/USB1_TX_VCC*%
X119725000Y-80550000D03*
%TO.P,U3,3,GND_3*%
%TO.N,GND*%
X119725000Y-81500000D03*
%TO.P,U3,4*%
%TO.N,Net-(R14-Pad1)*%
X122000000Y-81500000D03*
%TO.P,U3,5,VCC_5*%
%TO.N,VCC*%
X122000000Y-79600000D03*
%TD*%
D25*
%TO.P,TP17,1,1_1*%
%TO.N,/SBT9_SGM_MK*%
X152000000Y-86750000D03*
%TD*%
D69*
%TO.P,C3,1*%
%TO.N,/VBAT*%
X158000000Y-113575000D03*
%TO.P,C3,2*%
%TO.N,GND*%
X158000000Y-112025000D03*
%TD*%
D13*
%TO.P,C6,1*%
%TO.N,Net-(Q1-D)*%
X166775000Y-65000000D03*
%TO.P,C6,2*%
%TO.N,Net-(D3-K)*%
X165225000Y-65000000D03*
%TD*%
D18*
%TO.P,TP19,1,1_1*%
%TO.N,/ATTINY_WAKEUP*%
X128600000Y-53900000D03*
%TD*%
D15*
%TO.P,C29,1*%
%TO.N,Net-(U13-ON)*%
X125925000Y-132100000D03*
%TO.P,C29,2*%
%TO.N,GNDD*%
X127475000Y-132100000D03*
%TD*%
D26*
%TO.P,R15,1*%
%TO.N,Net-(R15-Pad1)*%
X116500000Y-67500000D03*
%TO.P,R15,2*%
%TO.N,/RESET_UI*%
X114500000Y-67500000D03*
%TD*%
D80*
%TO.P,U21,1,VCCA_1*%
%TO.N,/DISPLAY_VCC*%
X115150000Y-40637500D03*
%TO.P,U21,2,GND_2*%
%TO.N,GND*%
X115800000Y-40637500D03*
%TO.P,U21,3,A_3*%
%TO.N,/TFT_DC*%
X116450000Y-40637500D03*
%TO.P,U21,4,B_4*%
%TO.N,Net-(U21-B)*%
X116450000Y-38962500D03*
%TO.P,U21,5,DIR_5*%
%TO.N,/DISPLAY_VCC*%
X115800000Y-38962500D03*
%TO.P,U21,6,VCCB_6*%
%TO.N,/DISPLAY_2.8V*%
X115150000Y-38962500D03*
%TD*%
D29*
%TO.P,JP4,1,A_1*%
%TO.N,VCC*%
X138952500Y-117000000D03*
D30*
%TO.P,JP4,2,B_2*%
%TO.N,Net-(JP4-B)*%
X137047500Y-117000000D03*
%TD*%
D10*
%TO.P,R32,1*%
%TO.N,Net-(J5-Pin_1)*%
X155000000Y-62500000D03*
%TO.P,R32,2*%
%TO.N,GNDPWR*%
X157000000Y-62500000D03*
%TD*%
D81*
%TO.P,U18,1,CLKOUT_1*%
%TO.N,unconnected-(U18-CLKOUT-Pad1)*%
X166850000Y-95000000D03*
%TO.P,U18,2,~{INT}_2*%
%TO.N,/TIMER_ON_IMPL*%
X167750000Y-95000000D03*
%TO.P,U18,3,SCL_3*%
%TO.N,/I2C_SCL*%
X168650000Y-95000000D03*
%TO.P,U18,4,SDA_4*%
%TO.N,/I2C_SDA*%
X169550000Y-95000000D03*
%TO.P,U18,5,VSS_5*%
%TO.N,GND*%
X169550000Y-93700000D03*
%TO.P,U18,6,VBACKUP_6*%
%TO.N,VCC*%
X168650000Y-93700000D03*
%TO.P,U18,7,VDD_7*%
X167750000Y-93700000D03*
%TO.P,U18,8,EVI_8*%
%TO.N,GND*%
X166850000Y-93700000D03*
%TD*%
D34*
%TO.P,C9,1*%
%TO.N,VCCQ*%
X113500000Y-85225000D03*
%TO.P,C9,2*%
%TO.N,GND*%
X113500000Y-86775000D03*
%TD*%
D18*
%TO.P,TP20,1,1_1*%
%TO.N,/ATTINY_ALARM*%
X126400000Y-60500000D03*
%TD*%
D10*
%TO.P,R51,1*%
%TO.N,/UART_EN*%
X147250000Y-97000000D03*
%TO.P,R51,2*%
%TO.N,Net-(U17-PB5)*%
X149250000Y-97000000D03*
%TD*%
D79*
%TO.P,D12,1,K_1*%
%TO.N,Net-(D12-K)*%
X116850000Y-99800000D03*
%TO.P,D12,2,A_2*%
%TO.N,Net-(D12-A)*%
X113550000Y-99800000D03*
%TD*%
D69*
%TO.P,C33,1*%
%TO.N,VCC*%
X111000000Y-53275000D03*
%TO.P,C33,2*%
%TO.N,GND*%
X111000000Y-51725000D03*
%TD*%
D10*
%TO.P,R50,1*%
%TO.N,/ATTINY_ALARM*%
X147250000Y-99250000D03*
%TO.P,R50,2*%
%TO.N,Net-(U17-PB4)*%
X149250000Y-99250000D03*
%TD*%
D13*
%TO.P,C14,1*%
%TO.N,Net-(U1-V_{DD})*%
X154375000Y-105000000D03*
%TO.P,C14,2*%
%TO.N,GND*%
X152825000Y-105000000D03*
%TD*%
D82*
%TO.P,BT1,1,+_1*%
%TO.N,Net-(BT1-+)*%
X165800000Y-110600000D03*
D78*
%TO.P,BT1,2,-_2*%
%TO.N,GNDPWR*%
X172800000Y-110600000D03*
%TD*%
D34*
%TO.P,C8,1*%
%TO.N,VCC*%
X115000000Y-70725000D03*
%TO.P,C8,2*%
%TO.N,GND*%
X115000000Y-72275000D03*
%TD*%
%TO.P,C22,1*%
%TO.N,VCC*%
X113000000Y-74725000D03*
%TO.P,C22,2*%
%TO.N,GND*%
X113000000Y-76275000D03*
%TD*%
D25*
%TO.P,TP1,1,1_1*%
%TO.N,/BATSTATE_WAKEUP*%
X127800000Y-49500000D03*
%TD*%
D83*
%TO.P,R39,1*%
%TO.N,Net-(U14-+)*%
X125000000Y-121300000D03*
%TO.P,R39,2*%
%TO.N,Net-(U14--)*%
X120000000Y-121300000D03*
%TD*%
D84*
%TO.P,J2,A1,GND_A1*%
%TO.N,GND*%
X168900000Y-134090000D03*
%TO.P,J2,A4,VBUS_A4*%
%TO.N,/USB1_VBUS*%
X169700000Y-134090000D03*
D85*
%TO.P,J2,A5,CC1_A5*%
%TO.N,/USB1_CC1*%
X170850000Y-134090000D03*
%TO.P,J2,A6,D+_A6*%
%TO.N,/USB1_D+*%
X171850000Y-134090000D03*
%TO.P,J2,A7,D-_A7*%
%TO.N,/USB1_D-*%
X172350000Y-134090000D03*
%TO.P,J2,A8,SBU1_A8*%
%TO.N,unconnected-(J2-SBU1-PadA8)*%
X173350000Y-134090000D03*
D84*
%TO.P,J2,A9,VBUS_A9*%
%TO.N,/USB1_VBUS*%
X174500000Y-134090000D03*
%TO.P,J2,A12,GND_A12*%
%TO.N,GND*%
X175300000Y-134090000D03*
%TO.P,J2,B1,GND_B1*%
X175300000Y-134090000D03*
%TO.P,J2,B4,VBUS_B4*%
%TO.N,/USB1_VBUS*%
X174500000Y-134090000D03*
D85*
%TO.P,J2,B5,CC2_B5*%
%TO.N,/USB1_CC2*%
X173850000Y-134090000D03*
%TO.P,J2,B6,D+_B6*%
%TO.N,/USB1_D+*%
X172850000Y-134090000D03*
%TO.P,J2,B7,D-_B7*%
%TO.N,/USB1_D-*%
X171350000Y-134090000D03*
%TO.P,J2,B8,SBU2_B8*%
%TO.N,unconnected-(J2-SBU2-PadB8)*%
X170350000Y-134090000D03*
D84*
%TO.P,J2,B9,VBUS_B9*%
%TO.N,/USB1_VBUS*%
X169700000Y-134090000D03*
%TO.P,J2,B12,GND_B12*%
%TO.N,GND*%
X168900000Y-134090000D03*
D86*
%TO.P,J2,SH,SHIELD_SH*%
X166500000Y-134975000D03*
D87*
X166500000Y-138900000D03*
D86*
X177700000Y-134975000D03*
D87*
X177700000Y-138900000D03*
%TD*%
D47*
%TO.P,SW3,1,1_1*%
%TO.N,/WAKEUP_BUTTON*%
X143250000Y-108250000D03*
X136750000Y-108250000D03*
%TO.P,SW3,2,2_2*%
%TO.N,GND*%
X143250000Y-103750000D03*
X136750000Y-103750000D03*
%TD*%
D18*
%TO.P,TP4,1,1_1*%
%TO.N,VCCQ*%
X159500000Y-123100000D03*
%TD*%
D88*
%TO.P,J9,1,Pin_1_1*%
%TO.N,GND*%
X125475000Y-44250000D03*
D89*
%TO.P,J9,2,Pin_2_2*%
X125475000Y-41750000D03*
%TD*%
D18*
%TO.P,TP22,1,1_1*%
%TO.N,/DISPLAY_2.8V*%
X102200000Y-40200000D03*
%TD*%
D90*
%TO.P,U11,1,VIN_1*%
%TO.N,VCC*%
X152040000Y-123350000D03*
%TO.P,U11,2,VIN_2*%
X152040000Y-123850000D03*
%TO.P,U11,3,ON_3*%
%TO.N,/USB1_VBUS*%
X152040000Y-124350000D03*
%TO.P,U11,4,VBIAS_4*%
%TO.N,VCC*%
X152040000Y-124850000D03*
%TO.P,U11,5,GND_5*%
%TO.N,GND*%
X154315000Y-124850000D03*
%TO.P,U11,6,CT_6*%
%TO.N,Net-(U11-CT)*%
X154315000Y-124350000D03*
%TO.P,U11,7,VOUT_7*%
%TO.N,VCCQ*%
X154315000Y-123850000D03*
%TO.P,U11,8,VOUT_8*%
X154315000Y-123350000D03*
D91*
%TO.P,U11,9,TPAD_9*%
%TO.N,GND*%
X153177500Y-124100000D03*
%TD*%
D10*
%TO.P,R38,1*%
%TO.N,Net-(J7-Pin_1)*%
X155000000Y-69500000D03*
%TO.P,R38,2*%
%TO.N,GNDPWR*%
X157000000Y-69500000D03*
%TD*%
%TO.P,R31,1*%
%TO.N,/USB1_CC2*%
X175750000Y-131000000D03*
%TO.P,R31,2*%
%TO.N,GND*%
X177750000Y-131000000D03*
%TD*%
D34*
%TO.P,C41,1*%
%TO.N,/DISPLAY_2.8V*%
X111200000Y-41625000D03*
%TO.P,C41,2*%
%TO.N,GND*%
X111200000Y-43175000D03*
%TD*%
D35*
%TO.P,R46,1*%
%TO.N,/UART_EN*%
X114000000Y-58500000D03*
%TO.P,R46,2*%
%TO.N,Net-(U16-PA6)*%
X114000000Y-56500000D03*
%TD*%
D92*
%TO.P,U1,1,SDA_1*%
%TO.N,/I2C_SDA*%
X156100000Y-106975000D03*
%TO.P,U1,2,SCL_2*%
%TO.N,/I2C_SCL*%
X155700000Y-106975000D03*
%TO.P,U1,3,V_{SS}_3*%
%TO.N,GND*%
X155300000Y-106975000D03*
%TO.P,U1,4,NC_4*%
%TO.N,unconnected-(U1-NC-Pad4)*%
X154900000Y-106975000D03*
%TO.P,U1,5,V_{DD}_5*%
%TO.N,Net-(U1-V_{DD})*%
X154500000Y-106975000D03*
%TO.P,U1,6,BAT_6*%
%TO.N,/VBAT*%
X154100000Y-106975000D03*
%TO.P,U1,7,SRN_7*%
%TO.N,VCC*%
X154100000Y-110775000D03*
%TO.P,U1,8,SRP_8*%
%TO.N,/VBAT*%
X154500000Y-110775000D03*
%TO.P,U1,9,NC_9*%
%TO.N,unconnected-(U1-NC-Pad9)*%
X154900000Y-110775000D03*
%TO.P,U1,10,BIN_10*%
%TO.N,/BATSTATE_WAKEUP*%
X155300000Y-110775000D03*
%TO.P,U1,11,NC_11*%
%TO.N,unconnected-(U1-NC-Pad11)*%
X155700000Y-110775000D03*
%TO.P,U1,12,GPOUT_12*%
%TO.N,/BATSTATE_INT*%
X156100000Y-110775000D03*
D93*
%TO.P,U1,13,PAD_13*%
%TO.N,GND*%
X156287500Y-107750000D03*
X153912500Y-107750000D03*
D94*
X155100000Y-108875000D03*
D93*
X156287500Y-110000000D03*
X153912500Y-110000000D03*
%TD*%
D95*
%TO.P,U17,1,PA2_1*%
%TO.N,/SBM20_SGN_MK*%
X154350000Y-90750000D03*
D96*
%TO.P,U17,2,PA3_2*%
%TO.N,/SBT9_SGM_MK*%
X153950000Y-90750000D03*
%TO.P,U17,3,GND_3*%
%TO.N,GND*%
X153550000Y-90750000D03*
%TO.P,U17,4,VCC_4*%
%TO.N,VCC*%
X153150000Y-90750000D03*
D97*
%TO.P,U17,5,PA4_5*%
%TO.N,/HV_PWM*%
X152750000Y-90750000D03*
D98*
%TO.P,U17,6,PA5_6*%
%TO.N,Net-(U17-PA5)*%
X152100000Y-91400000D03*
D99*
%TO.P,U17,7,PA6_7*%
%TO.N,unconnected-(U17-PA6-Pad7)*%
X152100000Y-91800000D03*
%TO.P,U17,8,PA7_8*%
%TO.N,/HV_FB*%
X152100000Y-92200000D03*
%TO.P,U17,9,PB5_9*%
%TO.N,Net-(U17-PB5)*%
X152100000Y-92600000D03*
D100*
%TO.P,U17,10,PB4_10*%
%TO.N,Net-(U17-PB4)*%
X152100000Y-93000000D03*
D101*
%TO.P,U17,11,PB3_11*%
%TO.N,/ATTINY_RX*%
X152750000Y-93650000D03*
D96*
%TO.P,U17,12,PB2_12*%
%TO.N,/ATTINY_UV_TX*%
X153150000Y-93650000D03*
%TO.P,U17,13,PB1_13*%
%TO.N,/I2C_SDA*%
X153550000Y-93650000D03*
%TO.P,U17,14,PB0_14*%
%TO.N,/I2C_SCL*%
X153950000Y-93650000D03*
D102*
%TO.P,U17,15,PC0_15*%
%TO.N,unconnected-(U17-PC0-Pad15)*%
X154350000Y-93650000D03*
D103*
%TO.P,U17,16,PC1_16*%
%TO.N,unconnected-(U17-PC1-Pad16)*%
X155000000Y-93000000D03*
D99*
%TO.P,U17,17,PC2_17*%
%TO.N,unconnected-(U17-PC2-Pad17)*%
X155000000Y-92600000D03*
%TO.P,U17,18,PC3_18*%
%TO.N,unconnected-(U17-PC3-Pad18)*%
X155000000Y-92200000D03*
%TO.P,U17,19,~{RESET}/PA0_19*%
%TO.N,/RESET_UV*%
X155000000Y-91800000D03*
D104*
%TO.P,U17,20,PA1_20*%
%TO.N,/TIMER_ON_IMPL*%
X155000000Y-91400000D03*
D59*
%TO.P,U17,21,GND_21*%
%TO.N,GND*%
X153550000Y-92200000D03*
%TD*%
D105*
%TO.N,/SBM20_SGN_MK*%
X155350000Y-89750000D03*
%TO.N,/SBT9_SGM_MK*%
X154500000Y-89100000D03*
%TO.N,/SBM20_SGN_MK*%
X155900000Y-82900000D03*
%TO.N,/SBT9_SGM_MK*%
X155087500Y-86000000D03*
%TO.N,/HV_FB*%
X150926483Y-91966483D03*
X161250000Y-88050000D03*
D106*
%TO.N,GND*%
X158800000Y-89400000D03*
X109500000Y-88000000D03*
X165700000Y-91200000D03*
X122862500Y-86550000D03*
X153177500Y-124100000D03*
X114000000Y-76500000D03*
X118500000Y-74000000D03*
X121000000Y-76500000D03*
D105*
X151150000Y-128550000D03*
X163137500Y-131500000D03*
X155600000Y-109700000D03*
D106*
X114500000Y-51500000D03*
X114000000Y-88000000D03*
X115800000Y-41800000D03*
X166850000Y-92350000D03*
D105*
X157600000Y-125700000D03*
D106*
X153550000Y-92200000D03*
X123900000Y-83100000D03*
X156500000Y-132700000D03*
D105*
X155600000Y-108000000D03*
D106*
X109500000Y-70000000D03*
D105*
X151200000Y-121500000D03*
D106*
X166000000Y-131000000D03*
X115000000Y-74700000D03*
X107743750Y-44943750D03*
X114500000Y-82500000D03*
D105*
X155100000Y-108875000D03*
D106*
X115900000Y-79400000D03*
X108500000Y-84000000D03*
X170400000Y-92600000D03*
D105*
X154500000Y-109700000D03*
D106*
X110600000Y-110500000D03*
D105*
X154500000Y-108000000D03*
D106*
%TO.N,/DISPLAY_2.8V*%
X114000000Y-38962500D03*
%TO.N,GNDD*%
X125000000Y-127200000D03*
X102400000Y-126200000D03*
X129600000Y-131200000D03*
X109712500Y-122400000D03*
D105*
%TO.N,/UPDI2_EN*%
X114100000Y-69600000D03*
D106*
X116550000Y-74450000D03*
D105*
%TO.N,/RESET_UI*%
X118600000Y-66100000D03*
X112500000Y-68000000D03*
D106*
X111500000Y-47500000D03*
D105*
X125600000Y-73000000D03*
D106*
%TO.N,/USB1_RX_VCC*%
X117031955Y-82468045D03*
D105*
X162118750Y-124018750D03*
D106*
%TO.N,VCC*%
X157750000Y-90950000D03*
X160000000Y-106500000D03*
X157750000Y-99250000D03*
X157750000Y-96750000D03*
X168250000Y-92150000D03*
X152400000Y-112300000D03*
D105*
%TO.N,/I2C_SCL*%
X155700000Y-105500000D03*
D106*
X123000000Y-60500000D03*
X155402782Y-95597218D03*
%TO.N,/SBM20_SGN_MK*%
X158000000Y-81900000D03*
%TO.N,/UART_EN*%
X114000000Y-60500000D03*
X142600000Y-98290000D03*
X107000000Y-72000000D03*
X107000000Y-83000000D03*
%TO.N,/DISPLAY_VCC*%
X117400000Y-39600000D03*
X114595301Y-41795301D03*
X105300000Y-42700000D03*
X120800000Y-38400000D03*
%TO.N,/TFT_ENABLE#*%
X116000000Y-49000000D03*
X111000000Y-46000000D03*
%TO.N,Net-(C10-Pad2)*%
X169400000Y-63900000D03*
X173292500Y-68750000D03*
%TO.N,Net-(Q1-D)*%
X172500000Y-58500000D03*
%TO.N,GNDPWR*%
X163500000Y-62500000D03*
%TO.N,/USB1_VBUS*%
X174500000Y-133000000D03*
D105*
X169805000Y-128995000D03*
X150875000Y-124225000D03*
D106*
X169150000Y-132750000D03*
%TO.N,/HV_PWM*%
X154350000Y-87450000D03*
X168550000Y-71600000D03*
%TO.N,Net-(U13-ON)*%
X131900000Y-123500000D03*
%TO.N,/UPDI1_EN*%
X124500000Y-86000000D03*
X135200000Y-100200000D03*
%TO.N,VCCQ*%
X115400000Y-88800000D03*
D105*
X163150000Y-120950000D03*
D106*
X156000000Y-123225000D03*
D105*
X163535944Y-123435944D03*
D106*
%TO.N,Net-(D12-K)*%
X121400000Y-97500000D03*
X118500000Y-77700000D03*
D105*
%TO.N,Net-(D14-K)*%
X117950000Y-101850000D03*
X119400000Y-106600000D03*
D106*
%TO.N,/RESET_UV*%
X156200000Y-92600000D03*
X125700000Y-76900000D03*
X125800000Y-81800000D03*
%TO.N,/BATSTATE_INT*%
X115762096Y-56262096D03*
X157600000Y-110600000D03*
%TO.N,/VBAT*%
X152300000Y-106400000D03*
X155800000Y-113575000D03*
%TO.N,Net-(U14-+)*%
X125000000Y-121300000D03*
X121262500Y-129300000D03*
%TO.N,Net-(J5-Pin_1)*%
X152000000Y-63500000D03*
%TO.N,/WAKEUP_BUTTON*%
X113000000Y-54500000D03*
X102000000Y-62700000D03*
X104000000Y-92000000D03*
%TO.N,/BATSTATE_WAKEUP*%
X155700000Y-112300000D03*
X115500000Y-58000000D03*
D105*
%TO.N,Net-(JP4-B)*%
X133200000Y-120800000D03*
%TO.N,Net-(U2-~{RST})*%
X169650000Y-127850000D03*
%TO.N,/CP2102_VREG*%
X171155122Y-130455122D03*
X167900000Y-120900000D03*
X167900000Y-122900000D03*
D106*
%TO.N,/SCK*%
X112350000Y-49650000D03*
X118500000Y-44500000D03*
D105*
%TO.N,/ATTINY_ALARM*%
X112600000Y-53200000D03*
X121300000Y-52500000D03*
%TO.N,/ATTINY_WAKEUP*%
X114800000Y-54300000D03*
X125500000Y-55500000D03*
D106*
%TO.N,/ATTINY_RX*%
X112500000Y-88312500D03*
D105*
X117200000Y-54000000D03*
D106*
X151800000Y-97200000D03*
D105*
%TO.N,/ATTINY_UI_TX*%
X118100000Y-53200000D03*
X104500000Y-73500000D03*
D106*
%TO.N,/I2C_SDA*%
X154800000Y-96800000D03*
D105*
X156500000Y-105600000D03*
D106*
X121500000Y-61000000D03*
%TO.N,/MOSI*%
X113000000Y-48500000D03*
X117552782Y-44052782D03*
%TO.N,/ATTINY_UV_TX*%
X153000000Y-97800000D03*
X108400000Y-75600000D03*
%TO.N,/SBT9_SGM_MK*%
X152500000Y-82500000D03*
%TO.N,/USB1_TX_VCC*%
X112500000Y-86000000D03*
D105*
X164006250Y-125806250D03*
D106*
X118006251Y-79493749D03*
D105*
%TO.N,/USB1_D-*%
X172000000Y-130500000D03*
%TO.N,/USB1_D+*%
X172900000Y-130900000D03*
X171850000Y-132350000D03*
%TO.N,/USB1_RX_3.3*%
X168600000Y-122200000D03*
X176800000Y-126700000D03*
%TO.N,/USB1_TX_3.3*%
X176700000Y-127700000D03*
X166400000Y-126300000D03*
%TD*%
%TO.N,/HV_PWM*%
D107*
X154350000Y-87450000D02*
X154350000Y-87500000D01*
X152750000Y-89100000D02*
X152750000Y-90750000D01*
X154350000Y-87500000D02*
X152750000Y-89100000D01*
%TO.N,VCC*%
D108*
X157750000Y-90950000D02*
X157072918Y-90272918D01*
X157072918Y-90272918D02*
X157072918Y-90250000D01*
X157072918Y-90250000D02*
X155975000Y-89152082D01*
X155975000Y-89152082D02*
X155975000Y-88250000D01*
%TO.N,/SBM20_SGN_MK*%
D107*
X154350000Y-90750000D02*
X155350000Y-89750000D01*
%TO.N,VCC*%
X153150000Y-90750000D02*
X153150000Y-89500000D01*
X153150000Y-89500000D02*
X154310000Y-88340000D01*
X154310000Y-88340000D02*
X155885000Y-88340000D01*
X155885000Y-88340000D02*
X155975000Y-88250000D01*
%TO.N,/SBT9_SGM_MK*%
X154500000Y-89100000D02*
X154600000Y-89200000D01*
X154600000Y-89200000D02*
X154400000Y-89200000D01*
X154400000Y-89200000D02*
X153950000Y-89650000D01*
X153950000Y-89650000D02*
X153950000Y-90750000D01*
%TO.N,/HV_FB*%
X150926483Y-91966483D02*
X150926483Y-92026483D01*
X150926483Y-92026483D02*
X151100000Y-92200000D01*
X151100000Y-92200000D02*
X152100000Y-92200000D01*
%TO.N,Net-(U17-PA5)*%
X149250000Y-94750000D02*
X150000000Y-94750000D01*
X150350000Y-91850000D02*
X150800000Y-91400000D01*
X150000000Y-94750000D02*
X150350000Y-94400000D01*
X150350000Y-94400000D02*
X150350000Y-91850000D01*
X150800000Y-91400000D02*
X152100000Y-91400000D01*
%TO.N,/HV_FB*%
D108*
X161250000Y-88050000D02*
X161250000Y-87025000D01*
%TO.N,Net-(U17-PB5)*%
D107*
X149287500Y-96712500D02*
X151250000Y-94750000D01*
X151250000Y-94750000D02*
X151250000Y-92955564D01*
X151250000Y-92955564D02*
X151605564Y-92600000D01*
%TO.N,Net-(U12-ISET)*%
X160362500Y-133200000D02*
X158662500Y-133200000D01*
X161062500Y-132500000D02*
X160362500Y-133200000D01*
%TO.N,GND*%
D108*
X142900000Y-114100000D02*
X145200000Y-111800000D01*
D107*
X170400000Y-91550000D02*
X171150000Y-90800000D01*
X173450000Y-127000000D02*
X177450000Y-131000000D01*
D109*
X150800000Y-106200000D02*
X150800000Y-108500000D01*
X153550000Y-90750000D02*
X153550000Y-92200000D01*
D108*
X169550000Y-93450000D02*
X169550000Y-93700000D01*
D107*
X108862500Y-82950000D02*
X108500000Y-83312500D01*
X118000000Y-81500000D02*
X115900000Y-79400000D01*
D108*
X157600000Y-124775000D02*
X157600000Y-125700000D01*
D109*
X154315000Y-124850000D02*
X153927500Y-124850000D01*
D108*
X150500000Y-121525000D02*
X151175000Y-121525000D01*
D107*
X111050000Y-70362500D02*
X109862500Y-70362500D01*
X170400000Y-92600000D02*
X170400000Y-91550000D01*
X113775000Y-76275000D02*
X114000000Y-76500000D01*
X113000000Y-76275000D02*
X113775000Y-76275000D01*
D108*
X162875000Y-86100000D02*
X163350000Y-86100000D01*
D107*
X122000000Y-83100000D02*
X123900000Y-83100000D01*
D108*
X107687500Y-45000000D02*
X107743750Y-44943750D01*
D109*
X150800000Y-108500000D02*
X151575000Y-109275000D01*
D107*
X159115000Y-108477500D02*
X159000000Y-108362500D01*
X120087500Y-78050000D02*
X120087500Y-77412500D01*
X154337500Y-132200000D02*
X156000000Y-132200000D01*
X113000000Y-82775000D02*
X114225000Y-82775000D01*
D108*
X110600000Y-111800000D02*
X112900000Y-114100000D01*
X110600000Y-110500000D02*
X110600000Y-111800000D01*
D107*
X120087500Y-77412500D02*
X121000000Y-76500000D01*
D109*
X153927500Y-124850000D02*
X153177500Y-124100000D01*
D108*
X110600000Y-106827500D02*
X110600000Y-110500000D01*
X167712500Y-131000000D02*
X166000000Y-131000000D01*
D107*
X158000000Y-112025000D02*
X159115000Y-110910000D01*
D108*
X109337500Y-43350000D02*
X111025000Y-43350000D01*
X111712500Y-103000000D02*
X113650000Y-103000000D01*
D107*
X113050000Y-51500000D02*
X114500000Y-51500000D01*
D109*
X152500000Y-105000000D02*
X152000000Y-105000000D01*
D108*
X177787500Y-131000000D02*
X177787500Y-134887500D01*
D107*
X155300000Y-106800000D02*
X155300000Y-108100000D01*
D108*
X112900000Y-114100000D02*
X142900000Y-114100000D01*
D107*
X160700000Y-108362500D02*
X159000000Y-108362500D01*
D108*
X111325000Y-43300000D02*
X112937500Y-43300000D01*
D109*
X154775000Y-124850000D02*
X156000000Y-126075000D01*
D108*
X175300000Y-134090000D02*
X177515000Y-134090000D01*
X166750000Y-90150000D02*
X165700000Y-91200000D01*
D107*
X151900000Y-109275000D02*
X154525000Y-109275000D01*
D108*
X170400000Y-92600000D02*
X169550000Y-93450000D01*
D109*
X152000000Y-105000000D02*
X150800000Y-106200000D01*
D107*
X158662500Y-132700000D02*
X156500000Y-132700000D01*
D108*
X166685000Y-134090000D02*
X166500000Y-134275000D01*
D107*
X119725000Y-81500000D02*
X118000000Y-81500000D01*
X115800000Y-40637500D02*
X115800000Y-41800000D01*
D108*
X166850000Y-93700000D02*
X166850000Y-92350000D01*
X163137500Y-131500000D02*
X163137500Y-132500000D01*
D107*
X108500000Y-83312500D02*
X108500000Y-84000000D01*
D108*
X163350000Y-86100000D02*
X166750000Y-89500000D01*
D107*
X111225000Y-51500000D02*
X113050000Y-51500000D01*
D109*
X154315000Y-124850000D02*
X154775000Y-124850000D01*
D108*
X163137500Y-130500000D02*
X163137500Y-131500000D01*
X111000000Y-106372500D02*
X111000000Y-103712500D01*
D107*
X173450000Y-127000000D02*
X173450000Y-125675000D01*
X118450000Y-73950000D02*
X118500000Y-74000000D01*
D108*
X145200000Y-111800000D02*
X145200000Y-105700000D01*
X162775000Y-87000000D02*
X162775000Y-85262500D01*
X158800000Y-89400000D02*
X157650000Y-88250000D01*
D107*
X108862500Y-86950000D02*
X109500000Y-87587500D01*
D108*
X166750000Y-89500000D02*
X166750000Y-90150000D01*
X105575000Y-45000000D02*
X107687500Y-45000000D01*
D107*
X159115000Y-110910000D02*
X159115000Y-108477500D01*
X114225000Y-82775000D02*
X114500000Y-82500000D01*
X113500000Y-87500000D02*
X114000000Y-88000000D01*
D108*
X107743750Y-44943750D02*
X109337500Y-43350000D01*
X151075000Y-129500000D02*
X151075000Y-128625000D01*
D107*
X159000000Y-108362500D02*
X155437500Y-108362500D01*
D108*
X151175000Y-121525000D02*
X151200000Y-121500000D01*
X151075000Y-128625000D02*
X151150000Y-128550000D01*
X145200000Y-105700000D02*
X143250000Y-103750000D01*
D107*
X109500000Y-87587500D02*
X109500000Y-88000000D01*
X121637500Y-87050000D02*
X122362500Y-87050000D01*
X122362500Y-87050000D02*
X122862500Y-86550000D01*
X109862500Y-70362500D02*
X109500000Y-70000000D01*
D108*
X111000000Y-103712500D02*
X111712500Y-103000000D01*
D107*
X115000000Y-72275000D02*
X115000000Y-74700000D01*
D108*
X166750000Y-89500000D02*
X166750000Y-85450000D01*
D107*
X113500000Y-86775000D02*
X113500000Y-87500000D01*
D108*
X168900000Y-134090000D02*
X166685000Y-134090000D01*
X177515000Y-134090000D02*
X177700000Y-134275000D01*
D107*
X118450000Y-72637500D02*
X118450000Y-73950000D01*
%TO.N,/DISPLAY_2.8V*%
D108*
X111200000Y-40700000D02*
X112500000Y-39400000D01*
D107*
X103450000Y-41450000D02*
X102200000Y-40200000D01*
D108*
X112500000Y-38800000D02*
X112500000Y-34275000D01*
X111200000Y-41625000D02*
X111200000Y-40700000D01*
D107*
X114000000Y-38962500D02*
X112662500Y-38962500D01*
D108*
X109337500Y-41450000D02*
X111025000Y-41450000D01*
D107*
X112662500Y-38962500D02*
X112500000Y-38800000D01*
X109337500Y-41450000D02*
X103450000Y-41450000D01*
D108*
X111200000Y-41625000D02*
X113062500Y-41625000D01*
D107*
X115150000Y-38962500D02*
X114000000Y-38962500D01*
D108*
X112500000Y-39400000D02*
X112500000Y-38800000D01*
%TO.N,Net-(U21-B)*%
D107*
X116450000Y-35725000D02*
X115000000Y-34275000D01*
X116450000Y-38962500D02*
X116450000Y-35725000D01*
%TO.N,Net-(J8-VBUS)*%
D108*
X105075000Y-126600000D02*
X105075000Y-124252500D01*
X105427500Y-119177500D02*
X103500000Y-117250000D01*
X107250000Y-128750000D02*
X108862500Y-127137500D01*
X107250000Y-129522500D02*
X107250000Y-128750000D01*
X107250000Y-129522500D02*
X107250000Y-128775000D01*
X105427500Y-123900000D02*
X105427500Y-119177500D01*
X106927500Y-122400000D02*
X105427500Y-123900000D01*
X108862500Y-127137500D02*
X108862500Y-126200000D01*
X107250000Y-128775000D02*
X105075000Y-126600000D01*
X108825000Y-122400000D02*
X106927500Y-122400000D01*
%TO.N,GNDD*%
X102172500Y-125972500D02*
X102172500Y-123900000D01*
X109062500Y-121750000D02*
X109712500Y-122400000D01*
X102400000Y-126200000D02*
X102172500Y-125972500D01*
X108825000Y-121750000D02*
X108825000Y-119975000D01*
X114837500Y-126200000D02*
X114837500Y-128935000D01*
X123537500Y-127200000D02*
X125000000Y-127200000D01*
X103525000Y-126600000D02*
X102800000Y-126600000D01*
X127475000Y-131200000D02*
X129600000Y-131200000D01*
X127475000Y-132100000D02*
X127475000Y-131200000D01*
X108825000Y-121750000D02*
X109062500Y-121750000D01*
X127475000Y-131200000D02*
X127475000Y-130262500D01*
X114837500Y-128935000D02*
X114250000Y-129522500D01*
X118000000Y-132232500D02*
X121342500Y-132232500D01*
X102800000Y-126600000D02*
X102400000Y-126200000D01*
%TO.N,/UPDI2_EN*%
D107*
X114100000Y-69600000D02*
X113712500Y-69600000D01*
X116550000Y-72637500D02*
X116550000Y-74450000D01*
X113712500Y-69600000D02*
X112950000Y-70362500D01*
%TO.N,/RESET_UI*%
X118600000Y-66100000D02*
X115500000Y-66100000D01*
X114100000Y-48624192D02*
X112975808Y-47500000D01*
X115500000Y-66100000D02*
X114587500Y-67012500D01*
X124237500Y-73250000D02*
X125350000Y-73250000D01*
X112500000Y-68000000D02*
X112000000Y-68500000D01*
X112975808Y-47500000D02*
X111500000Y-47500000D01*
X125350000Y-73250000D02*
X125600000Y-73000000D01*
X112000000Y-68500000D02*
X112000000Y-70362500D01*
X112500000Y-68000000D02*
X113000000Y-67500000D01*
X113000000Y-67500000D02*
X114587500Y-67500000D01*
X114100000Y-50050000D02*
X114100000Y-48624192D01*
%TO.N,/USB1_RX_VCC*%
X111137500Y-83437500D02*
X111600000Y-83900000D01*
X111050000Y-76486090D02*
X117031955Y-82468045D01*
X111050000Y-72637500D02*
X111050000Y-76486090D01*
X117663910Y-83100000D02*
X119725000Y-83100000D01*
X111600000Y-83900000D02*
X115600000Y-83900000D01*
X117031955Y-82468045D02*
X117663910Y-83100000D01*
X115600000Y-83900000D02*
X117031955Y-82468045D01*
X111137500Y-82950000D02*
X111137500Y-83437500D01*
%TO.N,VCC*%
D108*
X115362500Y-70362500D02*
X115000000Y-70725000D01*
D107*
X168250000Y-92150000D02*
X169600000Y-90800000D01*
D108*
X168250000Y-93700000D02*
X168650000Y-93700000D01*
D107*
X111000000Y-53275000D02*
X112375000Y-51900000D01*
X112375000Y-51900000D02*
X113050000Y-51900000D01*
D108*
X121637500Y-78050000D02*
X127050000Y-78050000D01*
X117687500Y-71500000D02*
X116550000Y-70362500D01*
X118462500Y-56000000D02*
X118462500Y-61537500D01*
D110*
X127200000Y-77900000D02*
X127200000Y-88200000D01*
X175000000Y-99500000D02*
X175000000Y-83635000D01*
D108*
X119462500Y-58500000D02*
X119462500Y-61937500D01*
D110*
X152900000Y-102300000D02*
X172200000Y-102300000D01*
D108*
X151300000Y-123600000D02*
X152040000Y-123600000D01*
X102500000Y-94300000D02*
X102500000Y-91300000D01*
X156912500Y-86000000D02*
X156912500Y-87312500D01*
X156912500Y-87312500D02*
X155975000Y-88250000D01*
D110*
X127200000Y-90200000D02*
X127200000Y-96200000D01*
D108*
X116550000Y-70362500D02*
X115362500Y-70362500D01*
D107*
X150500000Y-114200000D02*
X152400000Y-112300000D01*
D108*
X150500000Y-123275000D02*
X149525000Y-123275000D01*
D110*
X127200000Y-96200000D02*
X132400000Y-101400000D01*
D107*
X149550000Y-124850000D02*
X149500000Y-124800000D01*
D110*
X149500000Y-105700000D02*
X152900000Y-102300000D01*
X157750000Y-99250000D02*
X156500000Y-100500000D01*
D108*
X127000000Y-88000000D02*
X127200000Y-88200000D01*
X149500000Y-124800000D02*
X149500000Y-130700000D01*
D107*
X158100000Y-107362500D02*
X159137500Y-107362500D01*
D108*
X167750000Y-93700000D02*
X168250000Y-93700000D01*
D110*
X132400000Y-101400000D02*
X144400000Y-101400000D01*
D108*
X149500000Y-130700000D02*
X152600000Y-133800000D01*
X121637500Y-78050000D02*
X121637500Y-79237500D01*
D111*
X150500000Y-116900000D02*
X149500000Y-116900000D01*
D108*
X120087500Y-87050000D02*
X120087500Y-85362500D01*
D110*
X127200000Y-71600000D02*
X127200000Y-69300000D01*
D108*
X121637500Y-79237500D02*
X122000000Y-79600000D01*
D110*
X127200000Y-71600000D02*
X127200000Y-77900000D01*
D108*
X149500000Y-116900000D02*
X149500000Y-123300000D01*
X107000000Y-57000000D02*
X104712500Y-54712500D01*
X108025000Y-95412500D02*
X103612500Y-95412500D01*
D110*
X127200000Y-88200000D02*
X127200000Y-90200000D01*
D108*
X107275000Y-57000000D02*
X111000000Y-53275000D01*
D111*
X151912500Y-116900000D02*
X150500000Y-116900000D01*
D107*
X154100000Y-110600000D02*
X154100000Y-114712500D01*
D110*
X148000000Y-116900000D02*
X139052500Y-116900000D01*
X144400000Y-101400000D02*
X148000000Y-105000000D01*
X172200000Y-102300000D02*
X175000000Y-99500000D01*
X149500000Y-116900000D02*
X149500000Y-105700000D01*
D108*
X168250000Y-93700000D02*
X168250000Y-92150000D01*
X104712500Y-51600000D02*
X104712500Y-49175000D01*
X150500000Y-123275000D02*
X150975000Y-123275000D01*
D111*
X149500000Y-116900000D02*
X148000000Y-116900000D01*
D108*
X158250000Y-96250000D02*
X157750000Y-96750000D01*
D107*
X154100000Y-114712500D02*
X151912500Y-116900000D01*
D110*
X148000000Y-116900000D02*
X148000000Y-105000000D01*
D108*
X156912500Y-84000000D02*
X156912500Y-86000000D01*
X103800000Y-90000000D02*
X127000000Y-90000000D01*
D107*
X159137500Y-107362500D02*
X160000000Y-106500000D01*
D108*
X120087500Y-85362500D02*
X119725000Y-85000000D01*
X121037500Y-88000000D02*
X127000000Y-88000000D01*
X107000000Y-57000000D02*
X107275000Y-57000000D01*
D110*
X156500000Y-100500000D02*
X152500000Y-100500000D01*
D108*
X103612500Y-95412500D02*
X102500000Y-94300000D01*
X112950000Y-72637500D02*
X112950000Y-74675000D01*
X152600000Y-133800000D02*
X154800000Y-133800000D01*
X149525000Y-123275000D02*
X149500000Y-123300000D01*
D110*
X119900000Y-62000000D02*
X118000000Y-62000000D01*
D108*
X127050000Y-78050000D02*
X127200000Y-77900000D01*
X149500000Y-123300000D02*
X149500000Y-124800000D01*
D110*
X152500000Y-100500000D02*
X148000000Y-105000000D01*
X112000000Y-62000000D02*
X107000000Y-57000000D01*
D108*
X127200000Y-71600000D02*
X127100000Y-71500000D01*
X127000000Y-90000000D02*
X127200000Y-90200000D01*
D110*
X118000000Y-62000000D02*
X112000000Y-62000000D01*
D107*
X152040000Y-124850000D02*
X149550000Y-124850000D01*
D108*
X152040000Y-123350000D02*
X152040000Y-123600000D01*
X102500000Y-91300000D02*
X103800000Y-90000000D01*
D110*
X127200000Y-69300000D02*
X119900000Y-62000000D01*
D108*
X150975000Y-123275000D02*
X151300000Y-123600000D01*
X127100000Y-71500000D02*
X117687500Y-71500000D01*
X158250000Y-95287500D02*
X158250000Y-96250000D01*
X152040000Y-123600000D02*
X152040000Y-123825000D01*
X114862500Y-70725000D02*
X112950000Y-72637500D01*
D107*
X150500000Y-116900000D02*
X150500000Y-114200000D01*
D108*
X120087500Y-87050000D02*
X121037500Y-88000000D01*
X104712500Y-54712500D02*
X104712500Y-51600000D01*
%TO.N,/I2C_SCL*%
D107*
X115950000Y-51100000D02*
X118100000Y-51100000D01*
X153950000Y-94144436D02*
X155402782Y-95597218D01*
D109*
X155700000Y-106800000D02*
X155700000Y-105500000D01*
D107*
X168650000Y-95850000D02*
X168650000Y-95000000D01*
X118100000Y-51100000D02*
X121537500Y-54537500D01*
X167000000Y-97500000D02*
X168650000Y-95850000D01*
X121537500Y-54537500D02*
X121537500Y-58500000D01*
X153950000Y-93650000D02*
X153950000Y-94144436D01*
X155402782Y-95597218D02*
X157305564Y-97500000D01*
X157305564Y-97500000D02*
X167000000Y-97500000D01*
X121537500Y-59037500D02*
X123000000Y-60500000D01*
%TO.N,Net-(U12-TS)*%
X153300000Y-133200000D02*
X154337500Y-133200000D01*
X154100000Y-129000000D02*
X153100000Y-130000000D01*
X153100000Y-130000000D02*
X153100000Y-133000000D01*
X153100000Y-133000000D02*
X153300000Y-133200000D01*
%TO.N,Net-(U12-PRETERM)*%
X159418266Y-132200000D02*
X158662500Y-132200000D01*
X161062500Y-130555766D02*
X159418266Y-132200000D01*
%TO.N,/SBM20_SGN_MK*%
X155250000Y-81850000D02*
X156100000Y-82700000D01*
D108*
X156100000Y-82700000D02*
X155087500Y-83712500D01*
X157200000Y-82700000D02*
X156100000Y-82700000D01*
X158000000Y-81900000D02*
X157200000Y-82700000D01*
%TO.N,/UART_EN*%
D107*
X108862500Y-81050000D02*
X107950000Y-81050000D01*
X143310000Y-98290000D02*
X144600000Y-97000000D01*
X144600000Y-97000000D02*
X147212500Y-97000000D01*
X114000000Y-58412500D02*
X114000000Y-60500000D01*
X107000000Y-83000000D02*
X107000000Y-84000000D01*
X107000000Y-82000000D02*
X107000000Y-83000000D01*
X142600000Y-98290000D02*
X143310000Y-98290000D01*
X107950000Y-81050000D02*
X107000000Y-82000000D01*
X107000000Y-84000000D02*
X108050000Y-85050000D01*
X108050000Y-85050000D02*
X108862500Y-85050000D01*
%TO.N,/DISPLAY_VCC*%
D108*
X105600000Y-42400000D02*
X107062500Y-42400000D01*
X103825000Y-44175000D02*
X103825000Y-45000000D01*
X105300000Y-42700000D02*
X103825000Y-44175000D01*
D107*
X115150000Y-40637500D02*
X115150000Y-41240602D01*
X117335000Y-39665000D02*
X117400000Y-39600000D01*
X115990001Y-39665000D02*
X117335000Y-39665000D01*
X115800000Y-38962500D02*
X115800000Y-39474999D01*
D108*
X103800000Y-47262500D02*
X103800000Y-45225000D01*
X105300000Y-42700000D02*
X105600000Y-42400000D01*
D107*
X115150000Y-41240602D02*
X114595301Y-41795301D01*
X115800000Y-39474999D02*
X115990001Y-39665000D01*
%TO.N,/TFT_ENABLE#*%
X103386090Y-49137500D02*
X102850000Y-49137500D01*
D108*
X102887500Y-51600000D02*
X102887500Y-49175000D01*
D107*
X104523590Y-47976410D02*
X104523590Y-48000000D01*
X104523590Y-48000000D02*
X103386090Y-49137500D01*
X106500000Y-46000000D02*
X104523590Y-47976410D01*
X116000000Y-49350000D02*
X116000000Y-49000000D01*
X111000000Y-46000000D02*
X106500000Y-46000000D01*
X115300000Y-50050000D02*
X116000000Y-49350000D01*
%TO.N,Net-(C10-Pad2)*%
D110*
X169400000Y-61950000D02*
X169400000Y-63900000D01*
X175000000Y-70457500D02*
X173292500Y-68750000D01*
X175000000Y-72425000D02*
X175000000Y-70457500D01*
%TO.N,Net-(Q1-D)*%
X169550000Y-65625000D02*
X170075000Y-65625000D01*
X170075000Y-65625000D02*
X172000000Y-63700000D01*
D108*
X166775000Y-65075000D02*
X167325000Y-65625000D01*
D110*
X172000000Y-63700000D02*
X172000000Y-59000000D01*
D108*
X166775000Y-65000000D02*
X166775000Y-65075000D01*
D110*
X172000000Y-59000000D02*
X172950000Y-58050000D01*
D108*
X167325000Y-65625000D02*
X169550000Y-65625000D01*
D110*
X172950000Y-58050000D02*
X174600000Y-58050000D01*
%TO.N,Net-(D4-A)*%
X169400000Y-60000000D02*
X166000000Y-60000000D01*
X166000000Y-60000000D02*
X163000000Y-57000000D01*
%TO.N,GNDPWR*%
D108*
X163500000Y-62500000D02*
X157037500Y-62500000D01*
D110*
X178000000Y-52000000D02*
X176000000Y-50000000D01*
X170500000Y-67500000D02*
X170500000Y-69900000D01*
X176050000Y-61950000D02*
X178000000Y-60000000D01*
X174600000Y-63100000D02*
X174600000Y-61950000D01*
X178000000Y-60000000D02*
X178000000Y-54500000D01*
X177975000Y-77500000D02*
X177975000Y-68525000D01*
X178000000Y-54500000D02*
X178000000Y-52000000D01*
D108*
X177975000Y-54475000D02*
X178000000Y-54500000D01*
D110*
X178000000Y-99850000D02*
X178000000Y-109300000D01*
D108*
X163500000Y-62500000D02*
X157037500Y-68962500D01*
D110*
X177975000Y-99825000D02*
X178000000Y-99850000D01*
X177975000Y-77500000D02*
X177975000Y-99825000D01*
X176700000Y-110600000D02*
X172800000Y-110600000D01*
X174600000Y-63100000D02*
X174600000Y-63400000D01*
X178407500Y-67207500D02*
X174600000Y-63400000D01*
X174600000Y-61950000D02*
X176050000Y-61950000D01*
X170500000Y-69900000D02*
X170600000Y-70000000D01*
D108*
X172775000Y-54475000D02*
X177975000Y-54475000D01*
D110*
X178407500Y-68750000D02*
X178407500Y-67207500D01*
D108*
X157037500Y-68962500D02*
X157037500Y-69500000D01*
D110*
X174600000Y-63400000D02*
X170500000Y-67500000D01*
X178000000Y-109300000D02*
X176700000Y-110600000D01*
%TO.N,Net-(J3-Pin_1)*%
X158000000Y-37600000D02*
X154500000Y-37600000D01*
%TO.N,/USB1_VBUS*%
D108*
X169150000Y-132750000D02*
X165750000Y-132750000D01*
X174500000Y-134090000D02*
X174500000Y-133000000D01*
X165750000Y-132750000D02*
X164700000Y-133800000D01*
X169150000Y-132750000D02*
X169700000Y-133300000D01*
X164700000Y-133800000D02*
X158200000Y-133800000D01*
D107*
X152040000Y-124350000D02*
X151000000Y-124350000D01*
X171750000Y-127050000D02*
X169805000Y-128995000D01*
X171750000Y-127000000D02*
X171750000Y-125675000D01*
D108*
X169700000Y-133300000D02*
X169700000Y-134090000D01*
D107*
X151000000Y-124350000D02*
X150875000Y-124225000D01*
%TO.N,/HV_PWM*%
D108*
X168550000Y-71600000D02*
X168550000Y-67550000D01*
X168550000Y-67550000D02*
X168600000Y-67500000D01*
%TO.N,Net-(U13-ON)*%
X125925000Y-136150000D02*
X125925000Y-132100000D01*
X125925000Y-132100000D02*
X125925000Y-130462500D01*
D107*
X131900000Y-123500000D02*
X125562500Y-129837500D01*
D108*
X125487500Y-130100000D02*
X123537500Y-128150000D01*
X124000000Y-138075000D02*
X125925000Y-136150000D01*
%TO.N,/UPDI1_EN*%
D107*
X120387499Y-79600000D02*
X119725000Y-79600000D01*
X122000000Y-85000000D02*
X123500000Y-85000000D01*
X121337501Y-85000000D02*
X120900000Y-84562499D01*
X123500000Y-85000000D02*
X124500000Y-86000000D01*
X122000000Y-85000000D02*
X121337501Y-85000000D01*
X120900000Y-84562499D02*
X120900000Y-80112501D01*
X120900000Y-80112501D02*
X120387499Y-79600000D01*
%TO.N,VCCQ*%
D108*
X157600000Y-123225000D02*
X156000000Y-123225000D01*
X113500000Y-85225000D02*
X114025000Y-85225000D01*
X155300000Y-123600000D02*
X154315000Y-123600000D01*
X114025000Y-85225000D02*
X115400000Y-86600000D01*
D107*
X163535944Y-123435944D02*
X163200000Y-123100000D01*
D108*
X111137500Y-81050000D02*
X112825000Y-81050000D01*
X156000000Y-123225000D02*
X155675000Y-123225000D01*
X111037500Y-80950000D02*
X111137500Y-81050000D01*
X157600000Y-123225000D02*
X159375000Y-123225000D01*
X154315000Y-123600000D02*
X154315000Y-123825000D01*
D107*
X159500000Y-123100000D02*
X161000000Y-123100000D01*
D108*
X110025000Y-82162500D02*
X110025000Y-83937500D01*
D107*
X161000000Y-123100000D02*
X163100000Y-121000000D01*
D108*
X155675000Y-123225000D02*
X155300000Y-123600000D01*
X111137500Y-81050000D02*
X110025000Y-82162500D01*
X115400000Y-86600000D02*
X115400000Y-88800000D01*
X111037500Y-79000000D02*
X111037500Y-80950000D01*
D107*
X163200000Y-123100000D02*
X159500000Y-123100000D01*
D108*
X111137500Y-85050000D02*
X113325000Y-85050000D01*
X110025000Y-83937500D02*
X111137500Y-85050000D01*
X154315000Y-123350000D02*
X154315000Y-123600000D01*
%TO.N,/HV*%
D110*
X164500000Y-49000000D02*
X160635000Y-49000000D01*
X165000000Y-34000000D02*
X165000000Y-39035000D01*
X165000000Y-34000000D02*
X164352500Y-34000000D01*
X164352500Y-34000000D02*
X160752500Y-37600000D01*
X166250000Y-47250000D02*
X166250000Y-34000000D01*
X165000000Y-39035000D02*
X160735000Y-43300000D01*
X166250000Y-47250000D02*
X164500000Y-49000000D01*
%TO.N,Net-(J6-Pin_1)*%
X154000000Y-49000000D02*
X158000000Y-49000000D01*
%TO.N,Net-(Q3-B)*%
D108*
X151650000Y-73875000D02*
X151650000Y-77400000D01*
X151650000Y-77400000D02*
X152450000Y-78200000D01*
%TO.N,Net-(D12-K)*%
X116100000Y-99800000D02*
X116850000Y-99800000D01*
X120750000Y-107937500D02*
X120750000Y-106600000D01*
X122300000Y-106800000D02*
X120950000Y-106800000D01*
X120750000Y-104987500D02*
X119762500Y-104000000D01*
X120950000Y-106800000D02*
X120750000Y-106600000D01*
X121462500Y-108650000D02*
X120750000Y-107937500D01*
D107*
X121300000Y-74200000D02*
X118500000Y-77000000D01*
D108*
X115200000Y-100700000D02*
X116100000Y-99800000D01*
X120750000Y-106600000D02*
X120750000Y-104987500D01*
X119762500Y-104000000D02*
X115900000Y-104000000D01*
X124600000Y-106800000D02*
X122300000Y-106800000D01*
X115200000Y-103300000D02*
X115200000Y-100700000D01*
D107*
X122300000Y-106800000D02*
X122300000Y-98400000D01*
X118500000Y-77000000D02*
X118500000Y-77700000D01*
X122000000Y-74200000D02*
X121300000Y-74200000D01*
X122300000Y-98400000D02*
X121400000Y-97500000D01*
D108*
X115900000Y-104000000D02*
X115200000Y-103300000D01*
%TO.N,Net-(D14-K)*%
X118850000Y-109600000D02*
X118850000Y-107737500D01*
X110000000Y-94500000D02*
X111000000Y-95500000D01*
X117950000Y-101850000D02*
X117750000Y-102050000D01*
X117300000Y-97900000D02*
X111387500Y-97900000D01*
X118600000Y-101000000D02*
X118400000Y-100800000D01*
X117750000Y-102050000D02*
X116550000Y-102050000D01*
X118112500Y-107000000D02*
X119000000Y-107000000D01*
X119000000Y-107000000D02*
X119400000Y-106600000D01*
X117950000Y-101850000D02*
X118400000Y-101400000D01*
X118400000Y-101400000D02*
X118400000Y-100800000D01*
X120000000Y-101000000D02*
X118600000Y-101000000D01*
X118850000Y-109600000D02*
X120512500Y-109600000D01*
X118850000Y-107737500D02*
X118112500Y-107000000D01*
X111000000Y-95500000D02*
X111000000Y-98200000D01*
X109937500Y-94500000D02*
X110000000Y-94500000D01*
X118400000Y-99000000D02*
X117300000Y-97900000D01*
X120512500Y-109600000D02*
X121462500Y-110550000D01*
X118400000Y-100800000D02*
X118400000Y-99000000D01*
%TO.N,Net-(D11-A)*%
X126065000Y-112000000D02*
X138730000Y-112000000D01*
X123665000Y-109600000D02*
X126065000Y-112000000D01*
%TO.N,Net-(D3-K)*%
X166500000Y-71000000D02*
X164495000Y-71000000D01*
X165225000Y-68770000D02*
X164495000Y-69500000D01*
X167000000Y-71500000D02*
X166500000Y-71000000D01*
X164495000Y-72040000D02*
X164495000Y-71000000D01*
X164495000Y-71000000D02*
X164495000Y-69500000D01*
X165225000Y-65000000D02*
X165225000Y-68770000D01*
X167000000Y-79800000D02*
X167000000Y-71500000D01*
%TO.N,Net-(R3-Pad2)*%
X163250000Y-79962500D02*
X163250000Y-75825000D01*
X163250000Y-75825000D02*
X164495000Y-74580000D01*
%TO.N,/RESET_UV*%
D107*
X125800000Y-83112500D02*
X125800000Y-81087500D01*
X155482218Y-91800000D02*
X156200000Y-92517782D01*
X155000000Y-91800000D02*
X155482218Y-91800000D01*
X125700000Y-75800000D02*
X125050000Y-75150000D01*
X122000000Y-84050000D02*
X124862500Y-84050000D01*
X156200000Y-92517782D02*
X156200000Y-92600000D01*
X125050000Y-75150000D02*
X124237500Y-75150000D01*
X124862500Y-84050000D02*
X125800000Y-83112500D01*
X125800000Y-81087500D02*
X124400000Y-79687500D01*
X125700000Y-76900000D02*
X125700000Y-75800000D01*
%TO.N,/BATSTATE_INT*%
X115762096Y-56262096D02*
X115762096Y-54362096D01*
X156100000Y-110600000D02*
X157600000Y-110600000D01*
X158100000Y-110100000D02*
X158100000Y-109437500D01*
X115762096Y-54362096D02*
X114900000Y-53500000D01*
X114900000Y-53500000D02*
X114900000Y-52950000D01*
X157600000Y-110600000D02*
X158100000Y-110100000D01*
%TO.N,Net-(U11-CT)*%
D109*
X154315000Y-124350000D02*
X155825000Y-124350000D01*
%TO.N,Net-(D12-A)*%
D108*
X113600000Y-102000000D02*
X111000000Y-102000000D01*
X113450000Y-99900000D02*
X113550000Y-99800000D01*
X107200000Y-102000000D02*
X110887500Y-102000000D01*
X111000000Y-102000000D02*
X111000000Y-99900000D01*
X111000000Y-99900000D02*
X113450000Y-99900000D01*
%TO.N,Net-(D14-A)*%
X113827500Y-106800000D02*
X116087500Y-106800000D01*
X113850000Y-104150000D02*
X113850000Y-106777500D01*
X115550000Y-109600000D02*
X115550000Y-107737500D01*
X114350000Y-110800000D02*
X115550000Y-109600000D01*
X113000000Y-110800000D02*
X114350000Y-110800000D01*
X115550000Y-107737500D02*
X116287500Y-107000000D01*
%TO.N,/VBAT*%
D111*
X159400000Y-116900000D02*
X162215000Y-116900000D01*
D107*
X156925000Y-114700000D02*
X158800000Y-114700000D01*
X158800000Y-114700000D02*
X159400000Y-115300000D01*
X154500000Y-114800000D02*
X156600000Y-116900000D01*
X151900000Y-107725000D02*
X152825000Y-106800000D01*
X158000000Y-113575000D02*
X155800000Y-113575000D01*
X155800000Y-113575000D02*
X156925000Y-114700000D01*
X152825000Y-106800000D02*
X152700000Y-106800000D01*
X152825000Y-106800000D02*
X154100000Y-106800000D01*
X156600000Y-116900000D02*
X157887500Y-116900000D01*
X159400000Y-115300000D02*
X159400000Y-116900000D01*
X154500000Y-110600000D02*
X154500000Y-114800000D01*
D111*
X157887500Y-116900000D02*
X159400000Y-116900000D01*
D107*
X152700000Y-106800000D02*
X152300000Y-106400000D01*
%TO.N,Net-(U14-+)*%
D108*
X121262500Y-130287500D02*
X121500000Y-130525000D01*
D107*
X123300000Y-126012500D02*
X123300000Y-123000000D01*
D108*
X121262500Y-129300000D02*
X121262500Y-130287500D01*
X121262500Y-128150000D02*
X121262500Y-129300000D01*
D107*
X123537500Y-126250000D02*
X123300000Y-126012500D01*
X123300000Y-123000000D02*
X125000000Y-121300000D01*
%TO.N,Net-(U14--)*%
D108*
X110600000Y-123800000D02*
X111600000Y-124800000D01*
D110*
X114600000Y-119050000D02*
X117750000Y-119050000D01*
X117750000Y-119050000D02*
X120000000Y-121300000D01*
D108*
X111250000Y-119100000D02*
X114550000Y-119100000D01*
X110600000Y-119850000D02*
X110600000Y-121750000D01*
D107*
X121262500Y-126250000D02*
X121600000Y-125912500D01*
D108*
X111600000Y-124800000D02*
X118000000Y-124800000D01*
X118000000Y-124800000D02*
X120000000Y-122800000D01*
D107*
X121600000Y-125912500D02*
X121600000Y-122900000D01*
D108*
X110600000Y-123050000D02*
X110600000Y-123800000D01*
D107*
X121600000Y-122900000D02*
X120000000Y-121300000D01*
D108*
X110550000Y-119800000D02*
X111250000Y-119100000D01*
%TO.N,Net-(J5-Pin_1)*%
X153000000Y-62500000D02*
X154962500Y-62500000D01*
%TO.N,Net-(Q2-B)*%
X157550000Y-77050000D02*
X158800000Y-78300000D01*
X157550000Y-73875000D02*
X157550000Y-77050000D01*
%TO.N,/USB1_CC1*%
D107*
X170850000Y-132062500D02*
X169787500Y-131000000D01*
X170850000Y-134090000D02*
X170850000Y-132062500D01*
%TO.N,Net-(JP1-B)*%
D110*
X175025000Y-81705000D02*
X175000000Y-81730000D01*
X175025000Y-77500000D02*
X175025000Y-74525000D01*
X175025000Y-77500000D02*
X175025000Y-81705000D01*
%TO.N,/WAKEUP_BUTTON*%
D108*
X136750000Y-108250000D02*
X134550000Y-108250000D01*
D107*
X113700000Y-52950000D02*
X113700000Y-53800000D01*
D108*
X119850000Y-93550000D02*
X108062500Y-93550000D01*
X143250000Y-108250000D02*
X136750000Y-108250000D01*
D107*
X113700000Y-53800000D02*
X113000000Y-54500000D01*
D108*
X107937500Y-93500000D02*
X108025000Y-93587500D01*
X105887500Y-93500000D02*
X107937500Y-93500000D01*
X134550000Y-108250000D02*
X119850000Y-93550000D01*
X105800000Y-93587500D02*
X105887500Y-93500000D01*
D107*
X105587500Y-93587500D02*
X104000000Y-92000000D01*
%TO.N,Net-(BT1-+)*%
D111*
X165900000Y-110700000D02*
X165900000Y-114200000D01*
X165900000Y-114200000D02*
X168600000Y-116900000D01*
%TO.N,Net-(U15-FB)*%
D108*
X110937500Y-126200000D02*
X112762500Y-126200000D01*
X108825000Y-124087500D02*
X110937500Y-126200000D01*
X108825000Y-123050000D02*
X108825000Y-124087500D01*
%TO.N,/BATSTATE_WAKEUP*%
D107*
X159635000Y-112765000D02*
X160700000Y-111700000D01*
X155700000Y-112300000D02*
X156165000Y-112765000D01*
X115500000Y-58000000D02*
X115500000Y-57500000D01*
X156165000Y-112765000D02*
X159635000Y-112765000D01*
X160700000Y-111700000D02*
X160700000Y-110437500D01*
X116690000Y-56310000D02*
X116690000Y-54340000D01*
X155300000Y-111900000D02*
X155700000Y-112300000D01*
X155300000Y-110600000D02*
X155300000Y-111900000D01*
X115500000Y-57500000D02*
X116690000Y-56310000D01*
X116690000Y-54340000D02*
X115300000Y-52950000D01*
%TO.N,/TIMER_ON_IMPL*%
X166500000Y-97000000D02*
X164250000Y-97000000D01*
X164250000Y-97000000D02*
X162250000Y-97000000D01*
X158287500Y-93250000D02*
X156447500Y-91410000D01*
X162250000Y-97000000D02*
X158500000Y-93250000D01*
X167750000Y-95750000D02*
X166500000Y-97000000D01*
X167750000Y-95000000D02*
X167750000Y-95750000D01*
X164250000Y-97000000D02*
X164250000Y-95750000D01*
X156447500Y-91410000D02*
X155000000Y-91410000D01*
%TO.N,Net-(JP4-B)*%
D108*
X135500000Y-132900000D02*
X130325000Y-138075000D01*
X135500000Y-118547500D02*
X135500000Y-132900000D01*
D110*
X136700000Y-117000000D02*
X133200000Y-120800000D01*
D108*
X130325000Y-138075000D02*
X128500000Y-138075000D01*
%TO.N,Net-(U2-~{RST})*%
D107*
X168875000Y-127075000D02*
X167900000Y-127075000D01*
X169650000Y-127850000D02*
X168875000Y-127075000D01*
%TO.N,/CP2102_VREG*%
X169200000Y-129700000D02*
X168400000Y-128900000D01*
X170500000Y-129700000D02*
X169200000Y-129700000D01*
X171205122Y-130405122D02*
X170500000Y-129700000D01*
%TO.N,/HV_FB*%
D108*
X161225000Y-87000000D02*
X161225000Y-85262500D01*
X161250000Y-89500000D02*
X161250000Y-88050000D01*
X160962500Y-84287500D02*
X163212500Y-82037500D01*
D107*
X162000000Y-92500000D02*
X162000000Y-90250000D01*
D108*
X160962500Y-85000000D02*
X160962500Y-84287500D01*
%TO.N,Net-(J4-Pin_1)*%
D110*
X158000000Y-43300000D02*
X154100000Y-43300000D01*
%TO.N,Net-(J7-Pin_1)*%
D108*
X154962500Y-69500000D02*
X154962500Y-73062500D01*
X152000000Y-69500000D02*
X154962500Y-69500000D01*
X154962500Y-73062500D02*
X154150000Y-73875000D01*
%TO.N,/SCK*%
D107*
X113050000Y-51100000D02*
X112555564Y-51100000D01*
X112350000Y-50894436D02*
X112350000Y-49650000D01*
X112555564Y-51100000D02*
X112350000Y-50894436D01*
%TO.N,/ATTINY_ALARM*%
X128820000Y-60020000D02*
X128820000Y-95020000D01*
X121300000Y-52500000D02*
X128820000Y-60020000D01*
X112600000Y-52750000D02*
X112600000Y-53200000D01*
X128820000Y-60500000D02*
X126400000Y-60500000D01*
X128820000Y-95020000D02*
X133050000Y-99250000D01*
X113050000Y-52300000D02*
X112600000Y-52750000D01*
X133050000Y-99250000D02*
X147212500Y-99250000D01*
%TO.N,Net-(U16-PA6)*%
X114100000Y-56487500D02*
X114100000Y-52950000D01*
%TO.N,/ATTINY_WAKEUP*%
X127750000Y-55550000D02*
X129200000Y-57000000D01*
X127700000Y-55500000D02*
X127750000Y-55550000D01*
X114500000Y-53900000D02*
X114800000Y-54200000D01*
X128600000Y-54700000D02*
X128600000Y-53900000D01*
X127750000Y-55550000D02*
X128600000Y-54700000D01*
X130915614Y-94750000D02*
X147175000Y-94750000D01*
X114500000Y-52950000D02*
X114500000Y-53900000D01*
X129200000Y-57000000D02*
X129200000Y-93034386D01*
X125500000Y-55500000D02*
X127700000Y-55500000D01*
X114800000Y-54200000D02*
X114800000Y-54300000D01*
X129200000Y-93034386D02*
X130915614Y-94750000D01*
%TO.N,/ATTINY_RX*%
X111137500Y-86950000D02*
X112500000Y-88312500D01*
X152750000Y-96250000D02*
X151800000Y-97200000D01*
X117000000Y-53350000D02*
X115950000Y-52300000D01*
X152750000Y-93650000D02*
X152750000Y-96250000D01*
X117200000Y-54000000D02*
X117000000Y-53800000D01*
X117000000Y-53800000D02*
X117000000Y-53350000D01*
%TO.N,/ATTINY_UI_TX*%
X118100000Y-53100000D02*
X116900000Y-51900000D01*
X104550000Y-75562500D02*
X104550000Y-73550000D01*
X116900000Y-51900000D02*
X115950000Y-51900000D01*
X104550000Y-73550000D02*
X104500000Y-73500000D01*
X118100000Y-53200000D02*
X118100000Y-53100000D01*
%TO.N,/I2C_SDA*%
X117500000Y-51500000D02*
X120500000Y-54500000D01*
X169550000Y-95487402D02*
X169550000Y-95000000D01*
X154800000Y-96800000D02*
X155880000Y-97880000D01*
X115950000Y-51500000D02*
X117500000Y-51500000D01*
D109*
X156100000Y-106800000D02*
X156100000Y-106000000D01*
D107*
X154800000Y-96800000D02*
X153550000Y-95550000D01*
X120500000Y-54500000D02*
X120500000Y-55500000D01*
X153550000Y-95550000D02*
X153550000Y-93650000D01*
X120537500Y-60037500D02*
X121500000Y-61000000D01*
X155880000Y-97880000D02*
X167157402Y-97880000D01*
X167157402Y-97880000D02*
X169550000Y-95487402D01*
X120537500Y-56000000D02*
X120537500Y-60037500D01*
D109*
X156100000Y-106000000D02*
X156500000Y-105600000D01*
%TO.N,/TFT_DC*%
D107*
X114500000Y-50050000D02*
X114500000Y-44075808D01*
X116500000Y-42075808D02*
X116500000Y-40687500D01*
X114500000Y-44075808D02*
X116500000Y-42075808D01*
%TO.N,/MOSI*%
X113700000Y-49200000D02*
X113700000Y-50050000D01*
X113000000Y-48500000D02*
X113700000Y-49200000D01*
%TO.N,Net-(R14-Pad1)*%
X124450000Y-81550000D02*
X122050000Y-81550000D01*
%TO.N,Net-(D10-Pad3)*%
X109815000Y-81386410D02*
X109815000Y-79852500D01*
X109815000Y-79852500D02*
X108962500Y-79000000D01*
X107062500Y-79000000D02*
X105500000Y-77437500D01*
X108962500Y-79000000D02*
X107062500Y-79000000D01*
X109201410Y-82000000D02*
X109815000Y-81386410D01*
%TO.N,/ATTINY_UV_TX*%
X153150000Y-97650000D02*
X153150000Y-93650000D01*
X153000000Y-97800000D02*
X153150000Y-97650000D01*
X106450000Y-75562500D02*
X108362500Y-75562500D01*
%TO.N,Net-(U15-SW)*%
D108*
X110600000Y-122400000D02*
X113850000Y-122400000D01*
%TO.N,/SBT9_SGM_MK*%
X152500000Y-83412500D02*
X153943750Y-84856250D01*
X152500000Y-82500000D02*
X152500000Y-83412500D01*
D107*
X152000000Y-86750000D02*
X153893750Y-84856250D01*
D108*
X153943750Y-84856250D02*
X155087500Y-86000000D01*
D107*
X153893750Y-84856250D02*
X153943750Y-84856250D01*
%TO.N,/USB1_TX_VCC*%
X108862500Y-86000000D02*
X112500000Y-86000000D01*
X118006251Y-79493749D02*
X119062501Y-80550000D01*
X117500000Y-78987499D02*
X118006251Y-79493749D01*
X117500000Y-72637500D02*
X117500000Y-78987499D01*
X119062501Y-80550000D02*
X119725000Y-80550000D01*
%TO.N,/USB1_D-*%
X172350000Y-134090000D02*
X172350000Y-131310000D01*
X172000000Y-129250000D02*
X171750000Y-129000000D01*
X172000000Y-130960000D02*
X172350000Y-131310000D01*
X171350000Y-134090000D02*
X171350000Y-131610000D01*
X171350000Y-131610000D02*
X172000000Y-130960000D01*
X172000000Y-130500000D02*
X172000000Y-130960000D01*
X172000000Y-130500000D02*
X172000000Y-129250000D01*
%TO.N,/USB1_D+*%
X171850000Y-134090000D02*
X171850000Y-132350000D01*
X172850000Y-130950000D02*
X172900000Y-130900000D01*
X172850000Y-134090000D02*
X172850000Y-130950000D01*
X173650000Y-130150000D02*
X173650000Y-129000000D01*
X172900000Y-130900000D02*
X173650000Y-130150000D01*
%TO.N,Net-(R15-Pad1)*%
X118450000Y-68750000D02*
X117200000Y-67500000D01*
X117200000Y-67500000D02*
X116412500Y-67500000D01*
X118450000Y-70362500D02*
X118450000Y-68750000D01*
%TO.N,Net-(U17-PB5)*%
X151605564Y-92600000D02*
X152100000Y-92600000D01*
%TO.N,Net-(U17-PB4)*%
X149287500Y-98712500D02*
X151800000Y-96200000D01*
X151800000Y-96200000D02*
X151800000Y-93300000D01*
X151800000Y-93300000D02*
X152100000Y-93000000D01*
%TO.N,Net-(U1-V_{DD})*%
X154500000Y-105025000D02*
X154500000Y-106800000D01*
%TO.N,/USB1_CC2*%
X174800000Y-131000000D02*
X175500000Y-131000000D01*
X173810000Y-134050000D02*
X173810000Y-131990000D01*
X173810000Y-131990000D02*
X174800000Y-131000000D01*
%TD*%
M02*
