%TF.GenerationSoftware,KiCad,Pcbnew,10.0.2-10.0.2~ubuntu24.04.1*%
%TF.CreationDate,2026-05-14T01:01:47+03:00*%
%TF.ProjectId,xray-v3,78726179-2d76-4332-9e6b-696361645f70,rev?*%
%TF.SameCoordinates,Original*%
%TF.FileFunction,Soldermask,Bot*%
%TF.FilePolarity,Negative*%
%FSLAX46Y46*%
G04 Gerber Fmt 4.6, Leading zero omitted, Abs format (unit mm)*
G04 Created by KiCad (PCBNEW 10.0.2-10.0.2~ubuntu24.04.1) date 2026-05-14 01:01:47*
%MOMM*%
%LPD*%
G01*
G04 APERTURE LIST*
G04 Aperture macros list*
%AMRoundRect*
0 Rectangle with rounded corners*
0 $1 Rounding radius*
0 $2 $3 $4 $5 $6 $7 $8 $9 X,Y pos of 4 corners*
0 Add a 4 corners polygon primitive as box body*
4,1,4,$2,$3,$4,$5,$6,$7,$8,$9,$2,$3,0*
0 Add four circle primitives for the rounded corners*
1,1,$1+$1,$2,$3*
1,1,$1+$1,$4,$5*
1,1,$1+$1,$6,$7*
1,1,$1+$1,$8,$9*
0 Add four rect primitives between the rounded corners*
20,1,$1+$1,$2,$3,$4,$5,0*
20,1,$1+$1,$4,$5,$6,$7,0*
20,1,$1+$1,$6,$7,$8,$9,0*
20,1,$1+$1,$8,$9,$2,$3,0*%
%AMFreePoly0*
4,1,23,0.550000,-0.750000,0.000000,-0.750000,0.000000,-0.745722,-0.065263,-0.745722,-0.191342,-0.711940,-0.304381,-0.646677,-0.396677,-0.554381,-0.461940,-0.441342,-0.495722,-0.315263,-0.495722,-0.250000,-0.500000,-0.250000,-0.500000,0.250000,-0.495722,0.250000,-0.495722,0.315263,-0.461940,0.441342,-0.396677,0.554381,-0.304381,0.646677,-0.191342,0.711940,-0.065263,0.745722,0.000000,0.745722,
0.000000,0.750000,0.550000,0.750000,0.550000,-0.750000,0.550000,-0.750000,$1*%
%AMFreePoly1*
4,1,23,0.000000,0.745722,0.065263,0.745722,0.191342,0.711940,0.304381,0.646677,0.396677,0.554381,0.461940,0.441342,0.495722,0.315263,0.495722,0.250000,0.500000,0.250000,0.500000,-0.250000,0.495722,-0.250000,0.495722,-0.315263,0.461940,-0.441342,0.396677,-0.554381,0.304381,-0.646677,0.191342,-0.711940,0.065263,-0.745722,0.000000,-0.745722,0.000000,-0.750000,-0.550000,-0.750000,
-0.550000,0.750000,0.000000,0.750000,0.000000,0.745722,0.000000,0.745722,$1*%
G04 Aperture macros list end*
%ADD10RoundRect,0.250000X-0.600000X-0.725000X0.600000X-0.725000X0.600000X0.725000X-0.600000X0.725000X0*%
%ADD11O,1.700000X1.950000*%
%ADD12RoundRect,0.250000X-0.675000X-0.675000X0.675000X-0.675000X0.675000X0.675000X-0.675000X0.675000X0*%
%ADD13C,1.850000*%
%ADD14C,2.200000*%
%ADD15C,2.000000*%
%ADD16O,1.500000X3.000000*%
%ADD17C,1.500000*%
%ADD18C,1.440000*%
%ADD19C,1.600000*%
%ADD20R,1.800000X1.800000*%
%ADD21C,1.800000*%
%ADD22C,1.700000*%
%ADD23C,1.400000*%
%ADD24R,3.000000X3.000000*%
%ADD25R,1.524000X1.524000*%
%ADD26C,1.524000*%
%ADD27C,3.500000*%
%ADD28RoundRect,0.250002X-1.499998X-1.499998X1.499998X-1.499998X1.499998X1.499998X-1.499998X1.499998X0*%
%ADD29O,1.200000X2.000000*%
%ADD30O,1.000000X2.400000*%
%ADD31RoundRect,0.250000X0.750000X-0.600000X0.750000X0.600000X-0.750000X0.600000X-0.750000X-0.600000X0*%
%ADD32O,2.000000X1.700000*%
%ADD33FreePoly0,0.000000*%
%ADD34R,1.000000X1.500000*%
%ADD35FreePoly1,0.000000*%
%ADD36RoundRect,0.225000X0.225000X0.250000X-0.225000X0.250000X-0.225000X-0.250000X0.225000X-0.250000X0*%
%ADD37RoundRect,0.250000X0.350000X0.450000X-0.350000X0.450000X-0.350000X-0.450000X0.350000X-0.450000X0*%
%ADD38RoundRect,0.250000X-0.450000X0.350000X-0.450000X-0.350000X0.450000X-0.350000X0.450000X0.350000X0*%
%ADD39RoundRect,0.225000X-0.375000X0.225000X-0.375000X-0.225000X0.375000X-0.225000X0.375000X0.225000X0*%
%ADD40RoundRect,0.225000X-0.225000X-0.250000X0.225000X-0.250000X0.225000X0.250000X-0.225000X0.250000X0*%
%ADD41RoundRect,0.150000X-0.512500X-0.150000X0.512500X-0.150000X0.512500X0.150000X-0.512500X0.150000X0*%
%ADD42RoundRect,0.225000X-0.250000X0.225000X-0.250000X-0.225000X0.250000X-0.225000X0.250000X0.225000X0*%
%ADD43RoundRect,0.150000X-0.150000X0.587500X-0.150000X-0.587500X0.150000X-0.587500X0.150000X0.587500X0*%
%ADD44RoundRect,0.250000X0.450000X-0.350000X0.450000X0.350000X-0.450000X0.350000X-0.450000X-0.350000X0*%
%ADD45RoundRect,0.087500X0.087500X-0.537500X0.087500X0.537500X-0.087500X0.537500X-0.087500X-0.537500X0*%
%ADD46RoundRect,0.250000X-0.350000X-0.450000X0.350000X-0.450000X0.350000X0.450000X-0.350000X0.450000X0*%
%ADD47RoundRect,0.062500X0.062500X-0.337500X0.062500X0.337500X-0.062500X0.337500X-0.062500X-0.337500X0*%
%ADD48RoundRect,0.062500X0.337500X-0.062500X0.337500X0.062500X-0.337500X0.062500X-0.337500X-0.062500X0*%
%ADD49R,3.350000X3.350000*%
%ADD50RoundRect,0.087500X0.250000X0.087500X-0.250000X0.087500X-0.250000X-0.087500X0.250000X-0.087500X0*%
%ADD51R,1.200000X1.500000*%
%ADD52RoundRect,0.087500X0.425000X0.087500X-0.425000X0.087500X-0.425000X-0.087500X0.425000X-0.087500X0*%
G04 APERTURE END LIST*
%TO.C,JP6*%
G36*
X104250000Y-30650000D02*
G01*
X105750000Y-30650000D01*
X105750000Y-32150000D01*
X104250000Y-32150000D01*
X104250000Y-30650000D01*
G37*
%TD*%
D10*
%TO.C,U23*%
X105000000Y-34275000D03*
D11*
X107500000Y-34275000D03*
X110000000Y-34275000D03*
X112500000Y-34275000D03*
X115000000Y-34275000D03*
X117500000Y-34275000D03*
X120000000Y-34275000D03*
X122500000Y-34275000D03*
X125000000Y-34275000D03*
%TD*%
D12*
%TO.C,TH1*%
X154100000Y-129000000D03*
D13*
X158300000Y-129000000D03*
%TD*%
D14*
%TO.C,H2*%
X139000000Y-136000000D03*
%TD*%
D15*
%TO.C,TP11*%
X171500000Y-75500000D03*
%TD*%
D16*
%TO.C,SW1*%
X151400000Y-138500000D03*
X163600000Y-138500000D03*
D17*
X153500000Y-138500000D03*
X159500000Y-138500000D03*
X157500000Y-138500000D03*
X161500000Y-138500000D03*
%TD*%
D18*
%TO.C,RV1*%
X164495000Y-69500000D03*
X164495000Y-72040000D03*
X164495000Y-74580000D03*
%TD*%
D15*
%TO.C,TP2*%
X123800000Y-51300000D03*
%TD*%
D14*
%TO.C,H6*%
X130000000Y-108000000D03*
%TD*%
D19*
%TO.C,C16*%
X163000000Y-57000000D03*
X161750000Y-57000000D03*
X154250000Y-57000000D03*
X153000000Y-57000000D03*
%TD*%
D20*
%TO.C,D11*%
X141270000Y-112000000D03*
D21*
X138730000Y-112000000D03*
%TD*%
D15*
%TO.C,TP16*%
X155250000Y-81000000D03*
%TD*%
D19*
%TO.C,C15*%
X176000000Y-50000000D03*
X176000000Y-48750000D03*
X176000000Y-41250000D03*
X176000000Y-40000000D03*
%TD*%
D14*
%TO.C,SW2*%
X129750000Y-135575000D03*
X122750000Y-135575000D03*
D22*
X128500000Y-138075000D03*
X124000000Y-138075000D03*
%TD*%
D14*
%TO.C,H1*%
X173000000Y-105500000D03*
%TD*%
D19*
%TO.C,C17*%
X175000000Y-34000000D03*
X173750000Y-34000000D03*
X166250000Y-34000000D03*
X165000000Y-34000000D03*
%TD*%
D14*
%TO.C,H5*%
X104000000Y-111000000D03*
%TD*%
D15*
%TO.C,TP12*%
X162000000Y-92500000D03*
%TD*%
%TO.C,TP7*%
X103500000Y-117250000D03*
%TD*%
D19*
%TO.C,C31*%
X154150000Y-73875000D03*
X151650000Y-73875000D03*
%TD*%
D14*
%TO.C,H4*%
X103000000Y-57000000D03*
%TD*%
D23*
%TO.C,TP3*%
X154350000Y-31200000D03*
X156890000Y-31200000D03*
%TD*%
D14*
%TO.C,H3*%
X108000000Y-66000000D03*
%TD*%
D19*
%TO.C,C26*%
X160050000Y-73875000D03*
X157550000Y-73875000D03*
%TD*%
D24*
%TO.C,TP18*%
X169500000Y-99500000D03*
%TD*%
D25*
%TO.C,J8*%
X107250000Y-129522500D03*
D26*
X109750000Y-129522500D03*
X111750000Y-129522500D03*
X114250000Y-129522500D03*
D27*
X103500000Y-132232500D03*
X118000000Y-132232500D03*
%TD*%
D15*
%TO.C,TP17*%
X152000000Y-86750000D03*
%TD*%
D28*
%TO.C,BT1*%
X165800000Y-110600000D03*
D27*
X172800000Y-110600000D03*
%TD*%
D15*
%TO.C,TP1*%
X127800000Y-49500000D03*
%TD*%
D29*
%TO.C,J2*%
X166500000Y-134975000D03*
D30*
X166500000Y-138900000D03*
D29*
X177700000Y-134975000D03*
D30*
X177700000Y-138900000D03*
%TD*%
D22*
%TO.C,SW3*%
X143250000Y-108250000D03*
X136750000Y-108250000D03*
X143250000Y-103750000D03*
X136750000Y-103750000D03*
%TD*%
D31*
%TO.C,J9*%
X125475000Y-44250000D03*
D32*
X125475000Y-41750000D03*
%TD*%
D33*
%TO.C,JP6*%
X103700000Y-31400000D03*
D34*
X105000000Y-31400000D03*
D35*
X106300000Y-31400000D03*
%TD*%
D36*
%TO.C,C13*%
X169875000Y-130700000D03*
X168325000Y-130700000D03*
%TD*%
D37*
%TO.C,R18*%
X160800000Y-125300000D03*
X158800000Y-125300000D03*
%TD*%
D38*
%TO.C,R55*%
X143400000Y-110200000D03*
X143400000Y-112200000D03*
%TD*%
D37*
%TO.C,R12*%
X157800000Y-35700000D03*
X155800000Y-35700000D03*
%TD*%
D39*
%TO.C,D5*%
X170000000Y-39350000D03*
X170000000Y-42650000D03*
%TD*%
D38*
%TO.C,R7*%
X153500000Y-133117500D03*
X153500000Y-135117500D03*
%TD*%
%TO.C,R1*%
X161600000Y-133217500D03*
X161600000Y-135217500D03*
%TD*%
D40*
%TO.C,C19*%
X176225000Y-131900000D03*
X177775000Y-131900000D03*
%TD*%
D41*
%TO.C,D6*%
X160862500Y-49950000D03*
X160862500Y-48050000D03*
X163137500Y-49000000D03*
%TD*%
D42*
%TO.C,C37*%
X140000000Y-105125000D03*
X140000000Y-106675000D03*
%TD*%
D37*
%TO.C,R13*%
X153500000Y-38300000D03*
X151500000Y-38300000D03*
%TD*%
D41*
%TO.C,D4*%
X168862500Y-49950000D03*
X168862500Y-48050000D03*
X171137500Y-49000000D03*
%TD*%
D36*
%TO.C,C27*%
X130575000Y-120900000D03*
X129025000Y-120900000D03*
%TD*%
D37*
%TO.C,R41*%
X153500000Y-76500000D03*
X151500000Y-76500000D03*
%TD*%
D42*
%TO.C,C10*%
X173000000Y-59725000D03*
X173000000Y-61275000D03*
%TD*%
D39*
%TO.C,D9*%
X158000000Y-39350000D03*
X158000000Y-42650000D03*
%TD*%
%TO.C,D7*%
X165400000Y-39450000D03*
X165400000Y-42750000D03*
%TD*%
D43*
%TO.C,Q2*%
X157050000Y-78562500D03*
X158950000Y-78562500D03*
X158000000Y-80437500D03*
%TD*%
D42*
%TO.C,C12*%
X171000000Y-59725000D03*
X171000000Y-61275000D03*
%TD*%
D38*
%TO.C,R17*%
X163200000Y-126900000D03*
X163200000Y-128900000D03*
%TD*%
D44*
%TO.C,R16*%
X151400000Y-36100000D03*
X151400000Y-34100000D03*
%TD*%
D37*
%TO.C,R33*%
X159000000Y-76500000D03*
X157000000Y-76500000D03*
%TD*%
%TO.C,R45*%
X111750000Y-132232500D03*
X109750000Y-132232500D03*
%TD*%
D45*
%TO.C,U20*%
X119750000Y-42200000D03*
X119250000Y-42200000D03*
X118750000Y-42200000D03*
X118250000Y-42200000D03*
X118250000Y-39400000D03*
X118750000Y-39400000D03*
X119250000Y-39400000D03*
X119750000Y-39400000D03*
%TD*%
D43*
%TO.C,Q3*%
X151550000Y-78562500D03*
X153450000Y-78562500D03*
X152500000Y-80437500D03*
%TD*%
D46*
%TO.C,R59*%
X120600000Y-36800000D03*
X122600000Y-36800000D03*
%TD*%
D47*
%TO.C,U2*%
X174380000Y-129330000D03*
X173880000Y-129330000D03*
X173380000Y-129330000D03*
X172880000Y-129330000D03*
X172380000Y-129330000D03*
X171880000Y-129330000D03*
X171380000Y-129330000D03*
D48*
X170430000Y-128380000D03*
X170430000Y-127880000D03*
X170430000Y-127380000D03*
X170430000Y-126880000D03*
X170430000Y-126380000D03*
X170430000Y-125880000D03*
X170430000Y-125380000D03*
D47*
X171380000Y-124430000D03*
X171880000Y-124430000D03*
X172380000Y-124430000D03*
X172880000Y-124430000D03*
X173380000Y-124430000D03*
X173880000Y-124430000D03*
X174380000Y-124430000D03*
D48*
X175330000Y-125380000D03*
X175330000Y-125880000D03*
X175330000Y-126380000D03*
X175330000Y-126880000D03*
X175330000Y-127380000D03*
X175330000Y-127880000D03*
X175330000Y-128380000D03*
D49*
X172880000Y-126880000D03*
%TD*%
D38*
%TO.C,R2*%
X159400000Y-133317500D03*
X159400000Y-135317500D03*
%TD*%
D50*
%TO.C,U13*%
X130537500Y-122775000D03*
X130537500Y-123275000D03*
X130537500Y-123775000D03*
X130537500Y-124275000D03*
X128262500Y-124275000D03*
X128262500Y-123775000D03*
X128262500Y-123275000D03*
X128262500Y-122775000D03*
D51*
X129400000Y-123525000D03*
%TD*%
D52*
%TO.C,U7*%
X166402164Y-120891749D03*
X166402164Y-121541749D03*
X166402164Y-122191749D03*
X164727164Y-122191749D03*
X164727164Y-121541749D03*
X164727164Y-120891749D03*
%TD*%
D41*
%TO.C,D8*%
X152862500Y-49950000D03*
X152862500Y-48050000D03*
X155137500Y-49000000D03*
%TD*%
D52*
%TO.C,U6*%
X166437500Y-123750000D03*
X166437500Y-124400000D03*
X166437500Y-125050000D03*
X164762500Y-125050000D03*
X164762500Y-124400000D03*
X164762500Y-123750000D03*
%TD*%
D40*
%TO.C,C28*%
X126625000Y-126125000D03*
X128175000Y-126125000D03*
%TD*%
M02*
