%TF.GenerationSoftware,KiCad,Pcbnew,7.0.2-6a45011f42~172~ubuntu22.04.1*%
%TF.CreationDate,2023-04-21T01:30:03+03:00*%
%TF.ProjectId,xray-board-1.0-uv-stab-addon,78726179-2d62-46f6-9172-642d312e302d,rev?*%
%TF.SameCoordinates,Original*%
%TF.FileFunction,Copper,L1,Top*%
%TF.FilePolarity,Positive*%
%FSLAX46Y46*%
G04 Gerber Fmt 4.6, Leading zero omitted, Abs format (unit mm)*
G04 Created by KiCad (PCBNEW 7.0.2-6a45011f42~172~ubuntu22.04.1) date 2023-04-21 01:30:03*
%MOMM*%
%LPD*%
G01*
G04 APERTURE LIST*
G04 Aperture macros list*
%AMRoundRect*
0 Rectangle with rounded corners*
0 $1 Rounding radius*
0 $2 $3 $4 $5 $6 $7 $8 $9 X,Y pos of 4 corners*
0 Add a 4 corners polygon primitive as box body*
4,1,4,$2,$3,$4,$5,$6,$7,$8,$9,$2,$3,0*
0 Add four circle primitives for the rounded corners*
1,1,$1+$1,$2,$3*
1,1,$1+$1,$4,$5*
1,1,$1+$1,$6,$7*
1,1,$1+$1,$8,$9*
0 Add four rect primitives between the rounded corners*
20,1,$1+$1,$2,$3,$4,$5,0*
20,1,$1+$1,$4,$5,$6,$7,0*
20,1,$1+$1,$6,$7,$8,$9,0*
20,1,$1+$1,$8,$9,$2,$3,0*%
G04 Aperture macros list end*
%TA.AperFunction,ComponentPad*%
%ADD10C,2.000000*%
%TD*%
%TA.AperFunction,ComponentPad*%
%ADD11R,1.600000X1.600000*%
%TD*%
%TA.AperFunction,ComponentPad*%
%ADD12C,1.600000*%
%TD*%
%TA.AperFunction,SMDPad,CuDef*%
%ADD13RoundRect,0.250000X-0.325000X-1.100000X0.325000X-1.100000X0.325000X1.100000X-0.325000X1.100000X0*%
%TD*%
%TA.AperFunction,SMDPad,CuDef*%
%ADD14RoundRect,0.250000X0.450000X-0.262500X0.450000X0.262500X-0.450000X0.262500X-0.450000X-0.262500X0*%
%TD*%
%TA.AperFunction,SMDPad,CuDef*%
%ADD15RoundRect,0.150000X-0.587500X-0.150000X0.587500X-0.150000X0.587500X0.150000X-0.587500X0.150000X0*%
%TD*%
%TA.AperFunction,SMDPad,CuDef*%
%ADD16RoundRect,0.250000X1.100000X-0.325000X1.100000X0.325000X-1.100000X0.325000X-1.100000X-0.325000X0*%
%TD*%
%TA.AperFunction,SMDPad,CuDef*%
%ADD17RoundRect,0.250000X0.262500X0.450000X-0.262500X0.450000X-0.262500X-0.450000X0.262500X-0.450000X0*%
%TD*%
%TA.AperFunction,SMDPad,CuDef*%
%ADD18RoundRect,0.225000X0.225000X0.250000X-0.225000X0.250000X-0.225000X-0.250000X0.225000X-0.250000X0*%
%TD*%
%TA.AperFunction,ViaPad*%
%ADD19C,0.800000*%
%TD*%
%TA.AperFunction,Conductor*%
%ADD20C,1.000000*%
%TD*%
G04 APERTURE END LIST*
D10*
%TO.P,J2,1,Pin_1*%
%TO.N,VCC*%
X130800000Y-72720000D03*
%TD*%
D11*
%TO.P,C4,1*%
%TO.N,Net-(J4-Pin_1)*%
X113400000Y-66700000D03*
D12*
%TO.P,C4,2*%
%TO.N,GND*%
X113400000Y-69200000D03*
%TD*%
D13*
%TO.P,C3,1*%
%TO.N,Net-(U1-VO)*%
X121725000Y-67120000D03*
%TO.P,C3,2*%
%TO.N,GND*%
X124675000Y-67120000D03*
%TD*%
D14*
%TO.P,R1,1*%
%TO.N,VCC*%
X122000000Y-73232500D03*
%TO.P,R1,2*%
%TO.N,Net-(Q1-D)*%
X122000000Y-71407500D03*
%TD*%
D15*
%TO.P,Q1,1,G*%
%TO.N,Net-(J1-Pin_1)*%
X117725000Y-68850000D03*
%TO.P,Q1,2,S*%
%TO.N,GND*%
X117725000Y-70750000D03*
%TO.P,Q1,3,D*%
%TO.N,Net-(Q1-D)*%
X119600000Y-69800000D03*
%TD*%
D16*
%TO.P,C2,1*%
%TO.N,Net-(Q2-D)*%
X127400000Y-69395000D03*
%TO.P,C2,2*%
%TO.N,GND*%
X127400000Y-66445000D03*
%TD*%
D10*
%TO.P,J1,1,Pin_1*%
%TO.N,Net-(J1-Pin_1)*%
X109000000Y-72600000D03*
%TD*%
D15*
%TO.P,Q2,1,G*%
%TO.N,Net-(Q1-D)*%
X124200000Y-71370000D03*
%TO.P,Q2,2,S*%
%TO.N,VCC*%
X124200000Y-73270000D03*
%TO.P,Q2,3,D*%
%TO.N,Net-(Q2-D)*%
X126075000Y-72320000D03*
%TD*%
D17*
%TO.P,R2,1*%
%TO.N,Net-(U1-VO)*%
X119512500Y-66320000D03*
%TO.P,R2,2*%
%TO.N,Net-(J4-Pin_1)*%
X117687500Y-66320000D03*
%TD*%
D10*
%TO.P,J4,1,Pin_1*%
%TO.N,Net-(J4-Pin_1)*%
X109000000Y-66800000D03*
%TD*%
%TO.P,J3,1,Pin_1*%
%TO.N,GND*%
X130800000Y-66920000D03*
%TD*%
D18*
%TO.P,C1,1*%
%TO.N,Net-(Q1-D)*%
X119200000Y-73320000D03*
%TO.P,C1,2*%
%TO.N,GND*%
X117650000Y-73320000D03*
%TD*%
D19*
%TO.N,GND*%
X113800000Y-74000000D03*
%TO.N,Net-(Q2-D)*%
X129600000Y-70800000D03*
%TO.N,Net-(U1-VO)*%
X122800000Y-69400000D03*
%TD*%
D20*
%TO.N,Net-(Q1-D)*%
X119200000Y-73320000D02*
X121112500Y-71407500D01*
X124162500Y-71407500D02*
X124200000Y-71370000D01*
X121112500Y-71407500D02*
X122000000Y-71407500D01*
X119600000Y-69800000D02*
X120392500Y-69800000D01*
X120392500Y-69800000D02*
X122000000Y-71407500D01*
X122000000Y-71407500D02*
X124162500Y-71407500D01*
%TO.N,GND*%
X126725000Y-67120000D02*
X127400000Y-66445000D01*
X124675000Y-67120000D02*
X126725000Y-67120000D01*
X117725000Y-73245000D02*
X117650000Y-73320000D01*
X117725000Y-70750000D02*
X117725000Y-73245000D01*
X130325000Y-66445000D02*
X130800000Y-66920000D01*
X127400000Y-66445000D02*
X130325000Y-66445000D01*
%TO.N,Net-(Q2-D)*%
X126275000Y-72120000D02*
X126075000Y-72120000D01*
X127595000Y-70800000D02*
X129600000Y-70800000D01*
X126075000Y-72320000D02*
X127595000Y-70800000D01*
X127400000Y-70995000D02*
X126275000Y-72120000D01*
X127400000Y-69395000D02*
X127400000Y-70995000D01*
%TO.N,Net-(U1-VO)*%
X121725000Y-67120000D02*
X121725000Y-68325000D01*
X121725000Y-68325000D02*
X122800000Y-69400000D01*
X120925000Y-66320000D02*
X121725000Y-67120000D01*
X119512500Y-66320000D02*
X120925000Y-66320000D01*
%TO.N,Net-(J1-Pin_1)*%
X117685418Y-68850000D02*
X117725000Y-68850000D01*
X113935418Y-72600000D02*
X117685418Y-68850000D01*
X109000000Y-72600000D02*
X113935418Y-72600000D01*
%TO.N,VCC*%
X122000000Y-73232500D02*
X124162500Y-73232500D01*
X124162500Y-73232500D02*
X124200000Y-73270000D01*
X124200000Y-73270000D02*
X124797056Y-73867056D01*
X124797056Y-73867056D02*
X129652944Y-73867056D01*
X129652944Y-73867056D02*
X130800000Y-72720000D01*
%TO.N,Net-(J4-Pin_1)*%
X109000000Y-66800000D02*
X113300000Y-66800000D01*
X113400000Y-66700000D02*
X117307500Y-66700000D01*
X117307500Y-66700000D02*
X117687500Y-66320000D01*
%TD*%
%TA.AperFunction,Conductor*%
%TO.N,VCC*%
G36*
X130340507Y-72929844D02*
G01*
X130418239Y-73050798D01*
X130526900Y-73144952D01*
X130657685Y-73204680D01*
X130667464Y-73206086D01*
X129929942Y-73943609D01*
X129976767Y-73980054D01*
X130034105Y-74011084D01*
X130083696Y-74060303D01*
X130098804Y-74128520D01*
X130083274Y-74175481D01*
X130084934Y-74176240D01*
X130081252Y-74184301D01*
X130081250Y-74184305D01*
X130070940Y-74206881D01*
X130056345Y-74238839D01*
X130053231Y-74244428D01*
X130011689Y-74385918D01*
X130011690Y-74475499D01*
X129992006Y-74542538D01*
X129939203Y-74588294D01*
X129887690Y-74599500D01*
X124564218Y-74599500D01*
X124497179Y-74579815D01*
X124451424Y-74527011D01*
X124440534Y-74484346D01*
X124430331Y-74341692D01*
X124430331Y-74341690D01*
X124391406Y-74237332D01*
X124386423Y-74167642D01*
X124419907Y-74106319D01*
X124481230Y-74072834D01*
X124507589Y-74070000D01*
X124850697Y-74070000D01*
X124855576Y-74069808D01*
X124889993Y-74067099D01*
X125047697Y-74021282D01*
X125189057Y-73937682D01*
X125305182Y-73821557D01*
X125388780Y-73680200D01*
X125434599Y-73522488D01*
X125434795Y-73520000D01*
X123011362Y-73520000D01*
X122944323Y-73500315D01*
X122923681Y-73483681D01*
X122922500Y-73482500D01*
X121874000Y-73482500D01*
X121806961Y-73462815D01*
X121761206Y-73410011D01*
X121750000Y-73358500D01*
X121750000Y-73106500D01*
X121769685Y-73039461D01*
X121822489Y-72993706D01*
X121874000Y-72982500D01*
X123151138Y-72982500D01*
X123218177Y-73002185D01*
X123238819Y-73018819D01*
X123240000Y-73020000D01*
X125105685Y-73020000D01*
X125168806Y-73037268D01*
X125227102Y-73071744D01*
X125384927Y-73117597D01*
X125384931Y-73117598D01*
X125421806Y-73120500D01*
X125434112Y-73120500D01*
X125501151Y-73140185D01*
X125507496Y-73144546D01*
X125564833Y-73186649D01*
X125564836Y-73186650D01*
X125564837Y-73186651D01*
X125749730Y-73271605D01*
X125947946Y-73317603D01*
X126151361Y-73322757D01*
X126151361Y-73322756D01*
X126151363Y-73322757D01*
X126351653Y-73286858D01*
X126540617Y-73211377D01*
X126647457Y-73140963D01*
X126714266Y-73120508D01*
X126715694Y-73120500D01*
X126725749Y-73120500D01*
X126728194Y-73120500D01*
X126765069Y-73117598D01*
X126787400Y-73111110D01*
X126857268Y-73111307D01*
X126915707Y-73148981D01*
X126940769Y-73177903D01*
X127049503Y-73272123D01*
X127180380Y-73331894D01*
X127247419Y-73351579D01*
X127247423Y-73351580D01*
X127389839Y-73372056D01*
X129167837Y-73372056D01*
X129171801Y-73372056D01*
X129299576Y-73355641D01*
X129323943Y-73349275D01*
X129393781Y-73351374D01*
X129451397Y-73390898D01*
X129468842Y-73419437D01*
X129476269Y-73436370D01*
X129576564Y-73589882D01*
X130316922Y-72849523D01*
X130340507Y-72929844D01*
G37*
%TD.AperFunction*%
%TD*%
%TA.AperFunction,Conductor*%
%TO.N,GND*%
G36*
X117034890Y-65020185D02*
G01*
X117080645Y-65072989D01*
X117090589Y-65142147D01*
X117061564Y-65205703D01*
X117032947Y-65230039D01*
X116956342Y-65277288D01*
X116832288Y-65401342D01*
X116775000Y-65494223D01*
X116740186Y-65550666D01*
X116721369Y-65607453D01*
X116719032Y-65614505D01*
X116679259Y-65671949D01*
X116614743Y-65698772D01*
X116601326Y-65699500D01*
X114737180Y-65699500D01*
X114670141Y-65679815D01*
X114637913Y-65649811D01*
X114602472Y-65602468D01*
X114557546Y-65542454D01*
X114442331Y-65456204D01*
X114307483Y-65405909D01*
X114265024Y-65401344D01*
X114251166Y-65399854D01*
X114251165Y-65399853D01*
X114247873Y-65399500D01*
X114244550Y-65399500D01*
X112555439Y-65399500D01*
X112555420Y-65399500D01*
X112552128Y-65399501D01*
X112548848Y-65399853D01*
X112548840Y-65399854D01*
X112492515Y-65405909D01*
X112357668Y-65456203D01*
X112357669Y-65456204D01*
X112242454Y-65542454D01*
X112156204Y-65657669D01*
X112133390Y-65718834D01*
X112091521Y-65774767D01*
X112026057Y-65799184D01*
X112017210Y-65799500D01*
X110172855Y-65799500D01*
X110105816Y-65779815D01*
X110081625Y-65759483D01*
X110079475Y-65757147D01*
X110019744Y-65692262D01*
X109978226Y-65659947D01*
X109823514Y-65539529D01*
X109823510Y-65539526D01*
X109823509Y-65539526D01*
X109604810Y-65421172D01*
X109604806Y-65421170D01*
X109604805Y-65421170D01*
X109369615Y-65340429D01*
X109124335Y-65299500D01*
X108875665Y-65299500D01*
X108630384Y-65340429D01*
X108395194Y-65421170D01*
X108176485Y-65539529D01*
X107980259Y-65692259D01*
X107980256Y-65692261D01*
X107980256Y-65692262D01*
X107881537Y-65799500D01*
X107811837Y-65875214D01*
X107675825Y-66083395D01*
X107600091Y-66256054D01*
X107575937Y-66311119D01*
X107544485Y-66435320D01*
X107514891Y-66552183D01*
X107494356Y-66800000D01*
X107514891Y-67047816D01*
X107514891Y-67047819D01*
X107514892Y-67047821D01*
X107575937Y-67288881D01*
X107608149Y-67362316D01*
X107675825Y-67516604D01*
X107675827Y-67516607D01*
X107811836Y-67724785D01*
X107980256Y-67907738D01*
X107980259Y-67907740D01*
X108176485Y-68060470D01*
X108176487Y-68060471D01*
X108176491Y-68060474D01*
X108395190Y-68178828D01*
X108630386Y-68259571D01*
X108875665Y-68300500D01*
X109124335Y-68300500D01*
X109369614Y-68259571D01*
X109604810Y-68178828D01*
X109823509Y-68060474D01*
X110019744Y-67907738D01*
X110081624Y-67840517D01*
X110141512Y-67804527D01*
X110172855Y-67800500D01*
X112137680Y-67800500D01*
X112204719Y-67820185D01*
X112236945Y-67850187D01*
X112242454Y-67857546D01*
X112357669Y-67943796D01*
X112492517Y-67994091D01*
X112552127Y-68000500D01*
X112555455Y-68000499D01*
X112556388Y-68000550D01*
X112622278Y-68023792D01*
X112665143Y-68078967D01*
X112670667Y-68117114D01*
X113355600Y-68802046D01*
X113274852Y-68814835D01*
X113161955Y-68872359D01*
X113072359Y-68961955D01*
X113014835Y-69074852D01*
X113002046Y-69155599D01*
X112320973Y-68474526D01*
X112320973Y-68474527D01*
X112269865Y-68547516D01*
X112173733Y-68753672D01*
X112114858Y-68973397D01*
X112095033Y-69200000D01*
X112114858Y-69426602D01*
X112173733Y-69646326D01*
X112269866Y-69852484D01*
X112320972Y-69925471D01*
X112320974Y-69925472D01*
X113002046Y-69244399D01*
X113014835Y-69325148D01*
X113072359Y-69438045D01*
X113161955Y-69527641D01*
X113274852Y-69585165D01*
X113355599Y-69597953D01*
X112674526Y-70279025D01*
X112674526Y-70279026D01*
X112747515Y-70330133D01*
X112953673Y-70426266D01*
X113173397Y-70485141D01*
X113400000Y-70504966D01*
X113626602Y-70485141D01*
X113846326Y-70426266D01*
X114052480Y-70330134D01*
X114125472Y-70279025D01*
X113444401Y-69597953D01*
X113525148Y-69585165D01*
X113638045Y-69527641D01*
X113727641Y-69438045D01*
X113785165Y-69325148D01*
X113797953Y-69244400D01*
X114479025Y-69925472D01*
X114530134Y-69852480D01*
X114626266Y-69646326D01*
X114685141Y-69426602D01*
X114704966Y-69200000D01*
X114685141Y-68973397D01*
X114626266Y-68753673D01*
X114530133Y-68547515D01*
X114479025Y-68474526D01*
X113797953Y-69155598D01*
X113785165Y-69074852D01*
X113727641Y-68961955D01*
X113638045Y-68872359D01*
X113525148Y-68814835D01*
X113444400Y-68802046D01*
X114130600Y-68115845D01*
X114140481Y-68066679D01*
X114189096Y-68016496D01*
X114243621Y-68000548D01*
X114244536Y-68000499D01*
X114247872Y-68000499D01*
X114307483Y-67994091D01*
X114442331Y-67943796D01*
X114557546Y-67857546D01*
X114637914Y-67750188D01*
X114693847Y-67708318D01*
X114737180Y-67700500D01*
X117215900Y-67700500D01*
X117282939Y-67720185D01*
X117328694Y-67772989D01*
X117338638Y-67842147D01*
X117309613Y-67905703D01*
X117276072Y-67932921D01*
X117273739Y-67934217D01*
X117262225Y-67940607D01*
X117248057Y-67947335D01*
X117219802Y-67958622D01*
X117170553Y-67991079D01*
X117162498Y-67995959D01*
X117099891Y-68030710D01*
X117098893Y-68028912D01*
X117049933Y-68051000D01*
X117042582Y-68051799D01*
X117041679Y-68051870D01*
X117034927Y-68052402D01*
X116877102Y-68098255D01*
X116735634Y-68181919D01*
X116619419Y-68298134D01*
X116535755Y-68439602D01*
X116486357Y-68609631D01*
X116482747Y-68608582D01*
X116465766Y-68653122D01*
X116454721Y-68665775D01*
X113557317Y-71563181D01*
X113495994Y-71596666D01*
X113469636Y-71599500D01*
X110172855Y-71599500D01*
X110105816Y-71579815D01*
X110081625Y-71559483D01*
X110072895Y-71550000D01*
X110019744Y-71492262D01*
X109923924Y-71417682D01*
X109823514Y-71339529D01*
X109823510Y-71339526D01*
X109823509Y-71339526D01*
X109604810Y-71221172D01*
X109604806Y-71221170D01*
X109604805Y-71221170D01*
X109369615Y-71140429D01*
X109124335Y-71099500D01*
X108875665Y-71099500D01*
X108630384Y-71140429D01*
X108395194Y-71221170D01*
X108176485Y-71339529D01*
X107980259Y-71492259D01*
X107980256Y-71492261D01*
X107980256Y-71492262D01*
X107881537Y-71599500D01*
X107811837Y-71675214D01*
X107675825Y-71883395D01*
X107628046Y-71992322D01*
X107575937Y-72111119D01*
X107537267Y-72263824D01*
X107514891Y-72352183D01*
X107494356Y-72600000D01*
X107514891Y-72847816D01*
X107514891Y-72847819D01*
X107514892Y-72847821D01*
X107575937Y-73088881D01*
X107620960Y-73191523D01*
X107675825Y-73316604D01*
X107675827Y-73316607D01*
X107811836Y-73524785D01*
X107980256Y-73707738D01*
X108045667Y-73758649D01*
X108176485Y-73860470D01*
X108176487Y-73860471D01*
X108176491Y-73860474D01*
X108395190Y-73978828D01*
X108630386Y-74059571D01*
X108875665Y-74100500D01*
X109124335Y-74100500D01*
X109369614Y-74059571D01*
X109604810Y-73978828D01*
X109823509Y-73860474D01*
X110019744Y-73707738D01*
X110081624Y-73640517D01*
X110141512Y-73604527D01*
X110172855Y-73600500D01*
X113921139Y-73600500D01*
X113924280Y-73600539D01*
X114011781Y-73602757D01*
X114069850Y-73592348D01*
X114079154Y-73591043D01*
X114137856Y-73585074D01*
X114166885Y-73575965D01*
X114182118Y-73572226D01*
X114194539Y-73570000D01*
X116700001Y-73570000D01*
X116700001Y-73615165D01*
X116700321Y-73621447D01*
X116710143Y-73717605D01*
X116763453Y-73878486D01*
X116852426Y-74022732D01*
X116972267Y-74142573D01*
X117116513Y-74231546D01*
X117277393Y-74284856D01*
X117373536Y-74294678D01*
X117379851Y-74294999D01*
X117400000Y-74294999D01*
X117400000Y-73570000D01*
X116700001Y-73570000D01*
X114194539Y-73570000D01*
X114212071Y-73566858D01*
X114266844Y-73544978D01*
X114275719Y-73541819D01*
X114293093Y-73536367D01*
X114332006Y-73524159D01*
X114358612Y-73509390D01*
X114372780Y-73502662D01*
X114401035Y-73491377D01*
X114450297Y-73458909D01*
X114458328Y-73454043D01*
X114509920Y-73425409D01*
X114533005Y-73405589D01*
X114545532Y-73396144D01*
X114570937Y-73379402D01*
X114612669Y-73337668D01*
X114619541Y-73331300D01*
X114664313Y-73292866D01*
X114682942Y-73268798D01*
X114693301Y-73257036D01*
X114880337Y-73070000D01*
X116699999Y-73070000D01*
X117400000Y-73070000D01*
X117400000Y-72345000D01*
X117379836Y-72345000D01*
X117373550Y-72345321D01*
X117277394Y-72355143D01*
X117116513Y-72408453D01*
X116972267Y-72497426D01*
X116852426Y-72617267D01*
X116763453Y-72761513D01*
X116710143Y-72922393D01*
X116700319Y-73018554D01*
X116700000Y-73024832D01*
X116699999Y-73070000D01*
X114880337Y-73070000D01*
X116546620Y-71403717D01*
X116607940Y-71370234D01*
X116677632Y-71375218D01*
X116721979Y-71403719D01*
X116735942Y-71417682D01*
X116877302Y-71501282D01*
X117035006Y-71547099D01*
X117069423Y-71549808D01*
X117074303Y-71550000D01*
X117475000Y-71550000D01*
X117475000Y-71000000D01*
X117975000Y-71000000D01*
X117975000Y-71550000D01*
X118375697Y-71550000D01*
X118380576Y-71549808D01*
X118414993Y-71547099D01*
X118572697Y-71501282D01*
X118714057Y-71417682D01*
X118830182Y-71301557D01*
X118913780Y-71160200D01*
X118959599Y-71002488D01*
X118959795Y-71000000D01*
X117975000Y-71000000D01*
X117475000Y-71000000D01*
X117475000Y-70624000D01*
X117494685Y-70556961D01*
X117547489Y-70511206D01*
X117599000Y-70500000D01*
X118630685Y-70500000D01*
X118693806Y-70517268D01*
X118752102Y-70551744D01*
X118909927Y-70597597D01*
X118909931Y-70597598D01*
X118946806Y-70600500D01*
X118959838Y-70600500D01*
X119026877Y-70620185D01*
X119030663Y-70622717D01*
X119111951Y-70679295D01*
X119298942Y-70759540D01*
X119498259Y-70800500D01*
X119926717Y-70800500D01*
X119993756Y-70820185D01*
X120014398Y-70836819D01*
X120053648Y-70876069D01*
X120087133Y-70937392D01*
X120082149Y-71007084D01*
X120053648Y-71051431D01*
X118733117Y-72371961D01*
X118684443Y-72401985D01*
X118666302Y-72407996D01*
X118521954Y-72497031D01*
X118512325Y-72506661D01*
X118451001Y-72540145D01*
X118381310Y-72535159D01*
X118336965Y-72506659D01*
X118327732Y-72497426D01*
X118183486Y-72408453D01*
X118022606Y-72355143D01*
X117926445Y-72345319D01*
X117920168Y-72345000D01*
X117900000Y-72345000D01*
X117900000Y-74294999D01*
X117920165Y-74294999D01*
X117926447Y-74294678D01*
X118022605Y-74284856D01*
X118183484Y-74231546D01*
X118327732Y-74142572D01*
X118336963Y-74133341D01*
X118398285Y-74099854D01*
X118467977Y-74104837D01*
X118512329Y-74133341D01*
X118521957Y-74142969D01*
X118666300Y-74232002D01*
X118666302Y-74232002D01*
X118666303Y-74232003D01*
X118827292Y-74285349D01*
X118926655Y-74295500D01*
X118963499Y-74295499D01*
X118991530Y-74298708D01*
X119072946Y-74317603D01*
X119174654Y-74320180D01*
X119276361Y-74322757D01*
X119276361Y-74322756D01*
X119276363Y-74322757D01*
X119417590Y-74297443D01*
X119439467Y-74295499D01*
X119470195Y-74295499D01*
X119473344Y-74295499D01*
X119572708Y-74285349D01*
X119733697Y-74232003D01*
X119818310Y-74179813D01*
X119878044Y-74142968D01*
X119997968Y-74023044D01*
X120087002Y-73878699D01*
X120093012Y-73860562D01*
X120123036Y-73811883D01*
X120587821Y-73347098D01*
X120649142Y-73313615D01*
X120718834Y-73318599D01*
X120774767Y-73360471D01*
X120799184Y-73425935D01*
X120799500Y-73434780D01*
X120799500Y-73541858D01*
X120799500Y-73541877D01*
X120799501Y-73545008D01*
X120799820Y-73548140D01*
X120799821Y-73548141D01*
X120810000Y-73647796D01*
X120865186Y-73814334D01*
X120957288Y-73963657D01*
X121081342Y-74087711D01*
X121101029Y-74099854D01*
X121230666Y-74179814D01*
X121342016Y-74216712D01*
X121397202Y-74234999D01*
X121496858Y-74245180D01*
X121496859Y-74245180D01*
X121499991Y-74245500D01*
X122500008Y-74245499D01*
X122602797Y-74234999D01*
X122602797Y-74234998D01*
X122616082Y-74233642D01*
X122628683Y-74233000D01*
X123696717Y-74233000D01*
X123763756Y-74252685D01*
X123784398Y-74269319D01*
X123902898Y-74387819D01*
X123936383Y-74449142D01*
X123931399Y-74518834D01*
X123889527Y-74574767D01*
X123824063Y-74599184D01*
X123815217Y-74599500D01*
X107324500Y-74599500D01*
X107257461Y-74579815D01*
X107211706Y-74527011D01*
X107200500Y-74475500D01*
X107200500Y-65124500D01*
X107220185Y-65057461D01*
X107272989Y-65011706D01*
X107324500Y-65000500D01*
X116967851Y-65000500D01*
X117034890Y-65020185D01*
G37*
%TD.AperFunction*%
%TA.AperFunction,Conductor*%
G36*
X132542539Y-65020185D02*
G01*
X132588294Y-65072989D01*
X132599500Y-65124500D01*
X132599500Y-74475500D01*
X132579815Y-74542539D01*
X132527011Y-74588294D01*
X132475500Y-74599500D01*
X130634782Y-74599500D01*
X130567743Y-74579815D01*
X130521988Y-74527011D01*
X130512044Y-74457853D01*
X130541069Y-74394297D01*
X130547081Y-74387839D01*
X130678103Y-74256816D01*
X130739425Y-74223334D01*
X130765783Y-74220500D01*
X130924335Y-74220500D01*
X131169614Y-74179571D01*
X131404810Y-74098828D01*
X131623509Y-73980474D01*
X131819744Y-73827738D01*
X131988164Y-73644785D01*
X132124173Y-73436607D01*
X132224063Y-73208881D01*
X132285108Y-72967821D01*
X132305643Y-72720000D01*
X132285108Y-72472179D01*
X132224063Y-72231119D01*
X132124173Y-72003393D01*
X131988164Y-71795215D01*
X131819744Y-71612262D01*
X131739750Y-71550000D01*
X131623514Y-71459529D01*
X131623510Y-71459526D01*
X131623509Y-71459526D01*
X131404810Y-71341172D01*
X131404806Y-71341170D01*
X131404805Y-71341170D01*
X131169615Y-71260429D01*
X130924335Y-71219500D01*
X130685071Y-71219500D01*
X130618032Y-71199815D01*
X130572277Y-71147011D01*
X130562333Y-71077853D01*
X130565026Y-71064429D01*
X130594063Y-70952285D01*
X130604369Y-70749064D01*
X130585014Y-70622725D01*
X130573556Y-70547928D01*
X130502886Y-70357113D01*
X130395254Y-70184431D01*
X130388803Y-70177644D01*
X130255059Y-70036947D01*
X130088049Y-69920705D01*
X129901058Y-69840460D01*
X129701741Y-69799500D01*
X129701739Y-69799500D01*
X129374500Y-69799500D01*
X129307461Y-69779815D01*
X129261706Y-69727011D01*
X129250500Y-69675500D01*
X129250499Y-69023141D01*
X129250499Y-69023139D01*
X129250499Y-69019992D01*
X129239999Y-68917203D01*
X129184814Y-68750666D01*
X129113043Y-68634306D01*
X129092711Y-68601342D01*
X128968657Y-68477288D01*
X128819334Y-68385186D01*
X128652797Y-68330000D01*
X128553141Y-68319819D01*
X128553122Y-68319818D01*
X128550009Y-68319500D01*
X128546860Y-68319500D01*
X126253140Y-68319500D01*
X126253120Y-68319500D01*
X126249992Y-68319501D01*
X126246860Y-68319820D01*
X126246858Y-68319821D01*
X126147203Y-68330000D01*
X125980665Y-68385186D01*
X125935935Y-68412776D01*
X125868542Y-68431216D01*
X125801879Y-68410293D01*
X125757110Y-68356651D01*
X125747481Y-68294634D01*
X125749680Y-68273108D01*
X125749999Y-68266831D01*
X125749999Y-67534125D01*
X125769683Y-67467086D01*
X125822487Y-67421331D01*
X125891646Y-67411387D01*
X125939095Y-67428586D01*
X125980877Y-67454357D01*
X126147303Y-67509506D01*
X126246890Y-67519680D01*
X126253168Y-67519999D01*
X127149999Y-67519999D01*
X127150000Y-66695000D01*
X127149999Y-65370000D01*
X127650000Y-65370000D01*
X127650000Y-67519999D01*
X128546829Y-67519999D01*
X128553111Y-67519678D01*
X128652695Y-67509506D01*
X128819122Y-67454357D01*
X128968345Y-67362316D01*
X129092314Y-67238347D01*
X129109317Y-67210781D01*
X129161264Y-67164056D01*
X129230226Y-67152832D01*
X129294309Y-67180674D01*
X129333166Y-67238742D01*
X129335062Y-67245435D01*
X129376411Y-67408715D01*
X129476268Y-67636370D01*
X129576563Y-67789882D01*
X129576564Y-67789882D01*
X130316922Y-67049523D01*
X130340507Y-67129844D01*
X130418239Y-67250798D01*
X130526900Y-67344952D01*
X130657685Y-67404680D01*
X130667466Y-67406086D01*
X129929942Y-68143609D01*
X129929942Y-68143610D01*
X129976766Y-68180055D01*
X130195393Y-68298368D01*
X130430506Y-68379083D01*
X130675707Y-68420000D01*
X130924293Y-68420000D01*
X131169493Y-68379083D01*
X131404606Y-68298368D01*
X131623233Y-68180053D01*
X131670056Y-68143609D01*
X130932533Y-67406086D01*
X130942315Y-67404680D01*
X131073100Y-67344952D01*
X131181761Y-67250798D01*
X131259493Y-67129844D01*
X131283076Y-67049524D01*
X132023434Y-67789882D01*
X132123730Y-67636369D01*
X132223586Y-67408721D01*
X132284613Y-67167732D01*
X132305141Y-66920000D01*
X132284613Y-66672267D01*
X132223586Y-66431278D01*
X132123730Y-66203630D01*
X132023434Y-66050116D01*
X131283076Y-66790475D01*
X131259493Y-66710156D01*
X131181761Y-66589202D01*
X131073100Y-66495048D01*
X130942315Y-66435320D01*
X130932531Y-66433913D01*
X131670056Y-65696389D01*
X131670056Y-65696387D01*
X131623235Y-65659947D01*
X131404606Y-65541631D01*
X131169493Y-65460916D01*
X130924293Y-65420000D01*
X130675707Y-65420000D01*
X130430506Y-65460916D01*
X130195393Y-65541631D01*
X129976764Y-65659946D01*
X129929942Y-65696388D01*
X129929941Y-65696389D01*
X130667466Y-66433913D01*
X130657685Y-66435320D01*
X130526900Y-66495048D01*
X130418239Y-66589202D01*
X130340507Y-66710156D01*
X130316923Y-66790475D01*
X129576564Y-66050116D01*
X129477808Y-66201274D01*
X129424661Y-66246630D01*
X129355430Y-66256054D01*
X129292094Y-66226552D01*
X129254763Y-66167491D01*
X129249999Y-66133452D01*
X129249999Y-66073170D01*
X129249678Y-66066888D01*
X129239506Y-65967304D01*
X129184357Y-65800877D01*
X129092316Y-65651654D01*
X128968345Y-65527683D01*
X128819122Y-65435642D01*
X128652696Y-65380493D01*
X128553109Y-65370319D01*
X128546832Y-65370000D01*
X127650000Y-65370000D01*
X127149999Y-65370000D01*
X126253171Y-65370000D01*
X126246888Y-65370321D01*
X126147304Y-65380493D01*
X125980877Y-65435642D01*
X125831654Y-65527683D01*
X125785368Y-65573969D01*
X125724045Y-65607453D01*
X125654353Y-65602468D01*
X125598420Y-65560597D01*
X125592370Y-65551708D01*
X125468345Y-65427683D01*
X125319122Y-65335642D01*
X125152696Y-65280493D01*
X125053109Y-65270319D01*
X125046832Y-65270000D01*
X124925000Y-65270000D01*
X124925000Y-68969999D01*
X125046829Y-68969999D01*
X125053111Y-68969678D01*
X125152695Y-68959506D01*
X125319120Y-68904358D01*
X125363589Y-68876929D01*
X125430981Y-68858488D01*
X125497645Y-68879410D01*
X125542415Y-68933051D01*
X125552045Y-68995064D01*
X125549820Y-69016846D01*
X125549818Y-69016871D01*
X125549500Y-69019991D01*
X125549500Y-69023138D01*
X125549500Y-69023139D01*
X125549500Y-69766858D01*
X125549500Y-69766877D01*
X125549501Y-69770008D01*
X125549820Y-69773140D01*
X125549821Y-69773141D01*
X125560000Y-69872796D01*
X125615186Y-70039334D01*
X125707288Y-70188657D01*
X125831342Y-70312711D01*
X125831344Y-70312712D01*
X125980666Y-70404814D01*
X126092017Y-70441712D01*
X126147202Y-70459999D01*
X126156499Y-70460948D01*
X126225921Y-70468041D01*
X126290611Y-70494435D01*
X126330763Y-70551615D01*
X126333627Y-70621426D01*
X126300999Y-70679079D01*
X126129144Y-70850936D01*
X125915660Y-71064419D01*
X125854144Y-71125935D01*
X125803586Y-71156566D01*
X125678410Y-71195841D01*
X125619853Y-71228343D01*
X125551684Y-71243665D01*
X125486053Y-71219700D01*
X125443797Y-71164057D01*
X125436059Y-71129652D01*
X125435098Y-71117431D01*
X125423599Y-71077853D01*
X125389244Y-70959602D01*
X125324979Y-70850936D01*
X125305581Y-70818135D01*
X125189365Y-70701919D01*
X125055455Y-70622725D01*
X125047897Y-70618255D01*
X124890072Y-70572402D01*
X124855628Y-70569691D01*
X124855614Y-70569690D01*
X124853194Y-70569500D01*
X124850749Y-70569500D01*
X124840888Y-70569500D01*
X124773849Y-70549815D01*
X124767503Y-70545453D01*
X124710167Y-70503351D01*
X124710164Y-70503349D01*
X124710162Y-70503348D01*
X124525269Y-70418394D01*
X124327053Y-70372396D01*
X124123638Y-70367242D01*
X123997300Y-70389887D01*
X123923347Y-70403142D01*
X123923345Y-70403142D01*
X123912676Y-70405055D01*
X123890799Y-70407000D01*
X123500049Y-70407000D01*
X123433010Y-70387315D01*
X123387255Y-70334511D01*
X123377311Y-70265353D01*
X123406336Y-70201797D01*
X123416911Y-70191000D01*
X123546214Y-70074179D01*
X123666649Y-69910167D01*
X123751606Y-69725269D01*
X123797603Y-69527054D01*
X123802757Y-69323637D01*
X123766859Y-69123348D01*
X123703718Y-68965277D01*
X123697131Y-68895722D01*
X123729195Y-68833643D01*
X123789730Y-68798755D01*
X123859518Y-68802133D01*
X123883969Y-68813743D01*
X124030879Y-68904358D01*
X124197303Y-68959506D01*
X124296890Y-68969680D01*
X124303168Y-68969999D01*
X124424999Y-68969999D01*
X124425000Y-68969998D01*
X124425000Y-67370000D01*
X123600001Y-67370000D01*
X123600001Y-68266829D01*
X123600321Y-68273111D01*
X123610493Y-68372695D01*
X123655496Y-68508504D01*
X123657898Y-68578333D01*
X123622166Y-68638374D01*
X123559645Y-68669567D01*
X123490186Y-68662006D01*
X123450109Y-68635189D01*
X122836818Y-68021898D01*
X122803333Y-67960575D01*
X122800499Y-67934217D01*
X122800499Y-66870000D01*
X123600000Y-66870000D01*
X124425000Y-66870000D01*
X124425000Y-65270000D01*
X124303171Y-65270000D01*
X124296888Y-65270321D01*
X124197304Y-65280493D01*
X124030877Y-65335642D01*
X123881654Y-65427683D01*
X123757683Y-65551654D01*
X123665642Y-65700877D01*
X123610493Y-65867303D01*
X123600319Y-65966890D01*
X123600000Y-65973168D01*
X123600000Y-66870000D01*
X122800499Y-66870000D01*
X122800499Y-65973140D01*
X122800499Y-65973139D01*
X122800499Y-65969992D01*
X122789999Y-65867203D01*
X122734814Y-65700666D01*
X122642712Y-65551344D01*
X122642711Y-65551342D01*
X122518657Y-65427288D01*
X122369334Y-65335186D01*
X122202797Y-65280000D01*
X122103141Y-65269819D01*
X122103122Y-65269818D01*
X122100009Y-65269500D01*
X122096860Y-65269500D01*
X121353141Y-65269500D01*
X121353121Y-65269500D01*
X121349992Y-65269501D01*
X121346860Y-65269820D01*
X121346858Y-65269821D01*
X121247201Y-65280000D01*
X121120793Y-65321888D01*
X121072660Y-65327845D01*
X121072362Y-65327823D01*
X121056536Y-65325622D01*
X121026741Y-65319500D01*
X120967758Y-65319500D01*
X120958344Y-65319142D01*
X120949198Y-65318445D01*
X120899524Y-65314663D01*
X120899523Y-65314663D01*
X120899522Y-65314663D01*
X120869349Y-65318506D01*
X120853683Y-65319500D01*
X120337231Y-65319500D01*
X120270192Y-65299815D01*
X120249550Y-65283181D01*
X120243657Y-65277288D01*
X120167053Y-65230039D01*
X120120328Y-65178091D01*
X120109105Y-65109129D01*
X120136948Y-65045047D01*
X120195017Y-65006190D01*
X120232149Y-65000500D01*
X132475500Y-65000500D01*
X132542539Y-65020185D01*
G37*
%TD.AperFunction*%
%TD*%
M02*
