%TF.GenerationSoftware,KiCad,Pcbnew,7.0.2-6a45011f42~172~ubuntu22.04.1*%
%TF.CreationDate,2023-04-21T01:30:07+03:00*%
%TF.ProjectId,xray-board-1.0-uv-stab-addon,78726179-2d62-46f6-9172-642d312e302d,rev?*%
%TF.SameCoordinates,Original*%
%TF.FileFunction,Drillmap*%
%TF.FilePolarity,Positive*%
%FSLAX45Y45*%
G04 Gerber Fmt 4.5, Leading zero omitted, Abs format (unit mm)*
G04 Created by KiCad (PCBNEW 7.0.2-6a45011f42~172~ubuntu22.04.1) date 2023-04-21 01:30:07*
%MOMM*%
%LPD*%
G01*
G04 APERTURE LIST*
%ADD10C,0.100000*%
%ADD11C,0.200000*%
G04 APERTURE END LIST*
D10*
X10720000Y-6500000D02*
X13260000Y-6500000D01*
X13260000Y-7460000D01*
X10720000Y-7460000D01*
X10720000Y-6500000D01*
D11*
X10962619Y-7777524D02*
X10962619Y-7577524D01*
X10962619Y-7577524D02*
X11010238Y-7577524D01*
X11010238Y-7577524D02*
X11038810Y-7587048D01*
X11038810Y-7587048D02*
X11057857Y-7606095D01*
X11057857Y-7606095D02*
X11067381Y-7625143D01*
X11067381Y-7625143D02*
X11076905Y-7663238D01*
X11076905Y-7663238D02*
X11076905Y-7691809D01*
X11076905Y-7691809D02*
X11067381Y-7729905D01*
X11067381Y-7729905D02*
X11057857Y-7748952D01*
X11057857Y-7748952D02*
X11038810Y-7768000D01*
X11038810Y-7768000D02*
X11010238Y-7777524D01*
X11010238Y-7777524D02*
X10962619Y-7777524D01*
X11162619Y-7777524D02*
X11162619Y-7644190D01*
X11162619Y-7682286D02*
X11172143Y-7663238D01*
X11172143Y-7663238D02*
X11181667Y-7653714D01*
X11181667Y-7653714D02*
X11200714Y-7644190D01*
X11200714Y-7644190D02*
X11219762Y-7644190D01*
X11286428Y-7777524D02*
X11286428Y-7644190D01*
X11286428Y-7577524D02*
X11276905Y-7587048D01*
X11276905Y-7587048D02*
X11286428Y-7596571D01*
X11286428Y-7596571D02*
X11295952Y-7587048D01*
X11295952Y-7587048D02*
X11286428Y-7577524D01*
X11286428Y-7577524D02*
X11286428Y-7596571D01*
X11410238Y-7777524D02*
X11391190Y-7768000D01*
X11391190Y-7768000D02*
X11381667Y-7748952D01*
X11381667Y-7748952D02*
X11381667Y-7577524D01*
X11515000Y-7777524D02*
X11495952Y-7768000D01*
X11495952Y-7768000D02*
X11486428Y-7748952D01*
X11486428Y-7748952D02*
X11486428Y-7577524D01*
X11743571Y-7777524D02*
X11743571Y-7577524D01*
X11743571Y-7577524D02*
X11810238Y-7720381D01*
X11810238Y-7720381D02*
X11876905Y-7577524D01*
X11876905Y-7577524D02*
X11876905Y-7777524D01*
X12057857Y-7777524D02*
X12057857Y-7672762D01*
X12057857Y-7672762D02*
X12048333Y-7653714D01*
X12048333Y-7653714D02*
X12029286Y-7644190D01*
X12029286Y-7644190D02*
X11991190Y-7644190D01*
X11991190Y-7644190D02*
X11972143Y-7653714D01*
X12057857Y-7768000D02*
X12038809Y-7777524D01*
X12038809Y-7777524D02*
X11991190Y-7777524D01*
X11991190Y-7777524D02*
X11972143Y-7768000D01*
X11972143Y-7768000D02*
X11962619Y-7748952D01*
X11962619Y-7748952D02*
X11962619Y-7729905D01*
X11962619Y-7729905D02*
X11972143Y-7710857D01*
X11972143Y-7710857D02*
X11991190Y-7701333D01*
X11991190Y-7701333D02*
X12038809Y-7701333D01*
X12038809Y-7701333D02*
X12057857Y-7691809D01*
X12153095Y-7644190D02*
X12153095Y-7844190D01*
X12153095Y-7653714D02*
X12172143Y-7644190D01*
X12172143Y-7644190D02*
X12210238Y-7644190D01*
X12210238Y-7644190D02*
X12229286Y-7653714D01*
X12229286Y-7653714D02*
X12238809Y-7663238D01*
X12238809Y-7663238D02*
X12248333Y-7682286D01*
X12248333Y-7682286D02*
X12248333Y-7739428D01*
X12248333Y-7739428D02*
X12238809Y-7758476D01*
X12238809Y-7758476D02*
X12229286Y-7768000D01*
X12229286Y-7768000D02*
X12210238Y-7777524D01*
X12210238Y-7777524D02*
X12172143Y-7777524D01*
X12172143Y-7777524D02*
X12153095Y-7768000D01*
X12334048Y-7758476D02*
X12343571Y-7768000D01*
X12343571Y-7768000D02*
X12334048Y-7777524D01*
X12334048Y-7777524D02*
X12324524Y-7768000D01*
X12324524Y-7768000D02*
X12334048Y-7758476D01*
X12334048Y-7758476D02*
X12334048Y-7777524D01*
X12334048Y-7653714D02*
X12343571Y-7663238D01*
X12343571Y-7663238D02*
X12334048Y-7672762D01*
X12334048Y-7672762D02*
X12324524Y-7663238D01*
X12324524Y-7663238D02*
X12334048Y-7653714D01*
X12334048Y-7653714D02*
X12334048Y-7672762D01*
M02*
