%TF.GenerationSoftware,KiCad,Pcbnew,7.0.2-6a45011f42~172~ubuntu22.04.1*%
%TF.CreationDate,2023-04-21T01:30:07+03:00*%
%TF.ProjectId,xray-board-1.0-uv-stab-addon,78726179-2d62-46f6-9172-642d312e302d,rev?*%
%TF.SameCoordinates,Original*%
%TF.FileFunction,Drillmap*%
%TF.FilePolarity,Positive*%
%FSLAX45Y45*%
G04 Gerber Fmt 4.5, Leading zero omitted, Abs format (unit mm)*
G04 Created by KiCad (PCBNEW 7.0.2-6a45011f42~172~ubuntu22.04.1) date 2023-04-21 01:30:07*
%MOMM*%
%LPD*%
G01*
G04 APERTURE LIST*
%ADD10C,0.100000*%
%ADD11C,0.200000*%
%ADD12C,0.040000*%
%ADD13C,0.080000*%
G04 APERTURE END LIST*
D10*
X10720000Y-6500000D02*
X13260000Y-6500000D01*
X13260000Y-7460000D01*
X10720000Y-7460000D01*
X10720000Y-6500000D01*
D11*
D12*
X11360000Y-7380000D02*
X11400000Y-7420000D01*
X11400000Y-7380000D02*
X11360000Y-7420000D01*
X12260000Y-6920000D02*
X12300000Y-6960000D01*
X12300000Y-6920000D02*
X12260000Y-6960000D01*
X12940000Y-7060000D02*
X12980000Y-7100000D01*
X12980000Y-7060000D02*
X12940000Y-7100000D01*
D13*
X11380000Y-6670000D02*
G75*
G03*
X11380000Y-6670000I-40000J0D01*
G01*
X11380000Y-6920000D02*
G75*
G03*
X11380000Y-6920000I-40000J0D01*
G01*
D10*
X10900000Y-6630000D02*
X10900000Y-6730000D01*
X10850000Y-6680000D02*
X10950000Y-6680000D01*
X10900000Y-7210000D02*
X10900000Y-7310000D01*
X10850000Y-7260000D02*
X10950000Y-7260000D01*
X13080000Y-6642000D02*
X13080000Y-6742000D01*
X13030000Y-6692000D02*
X13130000Y-6692000D01*
X13080000Y-7222000D02*
X13080000Y-7322000D01*
X13030000Y-7272000D02*
X13130000Y-7272000D01*
D11*
X10962619Y-7777524D02*
X10962619Y-7577524D01*
X10962619Y-7577524D02*
X11010238Y-7577524D01*
X11010238Y-7577524D02*
X11038810Y-7587048D01*
X11038810Y-7587048D02*
X11057857Y-7606095D01*
X11057857Y-7606095D02*
X11067381Y-7625143D01*
X11067381Y-7625143D02*
X11076905Y-7663238D01*
X11076905Y-7663238D02*
X11076905Y-7691809D01*
X11076905Y-7691809D02*
X11067381Y-7729905D01*
X11067381Y-7729905D02*
X11057857Y-7748952D01*
X11057857Y-7748952D02*
X11038810Y-7768000D01*
X11038810Y-7768000D02*
X11010238Y-7777524D01*
X11010238Y-7777524D02*
X10962619Y-7777524D01*
X11162619Y-7777524D02*
X11162619Y-7644190D01*
X11162619Y-7682286D02*
X11172143Y-7663238D01*
X11172143Y-7663238D02*
X11181667Y-7653714D01*
X11181667Y-7653714D02*
X11200714Y-7644190D01*
X11200714Y-7644190D02*
X11219762Y-7644190D01*
X11286428Y-7777524D02*
X11286428Y-7644190D01*
X11286428Y-7577524D02*
X11276905Y-7587048D01*
X11276905Y-7587048D02*
X11286428Y-7596571D01*
X11286428Y-7596571D02*
X11295952Y-7587048D01*
X11295952Y-7587048D02*
X11286428Y-7577524D01*
X11286428Y-7577524D02*
X11286428Y-7596571D01*
X11410238Y-7777524D02*
X11391190Y-7768000D01*
X11391190Y-7768000D02*
X11381667Y-7748952D01*
X11381667Y-7748952D02*
X11381667Y-7577524D01*
X11515000Y-7777524D02*
X11495952Y-7768000D01*
X11495952Y-7768000D02*
X11486428Y-7748952D01*
X11486428Y-7748952D02*
X11486428Y-7577524D01*
X11743571Y-7777524D02*
X11743571Y-7577524D01*
X11743571Y-7577524D02*
X11810238Y-7720381D01*
X11810238Y-7720381D02*
X11876905Y-7577524D01*
X11876905Y-7577524D02*
X11876905Y-7777524D01*
X12057857Y-7777524D02*
X12057857Y-7672762D01*
X12057857Y-7672762D02*
X12048333Y-7653714D01*
X12048333Y-7653714D02*
X12029286Y-7644190D01*
X12029286Y-7644190D02*
X11991190Y-7644190D01*
X11991190Y-7644190D02*
X11972143Y-7653714D01*
X12057857Y-7768000D02*
X12038809Y-7777524D01*
X12038809Y-7777524D02*
X11991190Y-7777524D01*
X11991190Y-7777524D02*
X11972143Y-7768000D01*
X11972143Y-7768000D02*
X11962619Y-7748952D01*
X11962619Y-7748952D02*
X11962619Y-7729905D01*
X11962619Y-7729905D02*
X11972143Y-7710857D01*
X11972143Y-7710857D02*
X11991190Y-7701333D01*
X11991190Y-7701333D02*
X12038809Y-7701333D01*
X12038809Y-7701333D02*
X12057857Y-7691809D01*
X12153095Y-7644190D02*
X12153095Y-7844190D01*
X12153095Y-7653714D02*
X12172143Y-7644190D01*
X12172143Y-7644190D02*
X12210238Y-7644190D01*
X12210238Y-7644190D02*
X12229286Y-7653714D01*
X12229286Y-7653714D02*
X12238809Y-7663238D01*
X12238809Y-7663238D02*
X12248333Y-7682286D01*
X12248333Y-7682286D02*
X12248333Y-7739428D01*
X12248333Y-7739428D02*
X12238809Y-7758476D01*
X12238809Y-7758476D02*
X12229286Y-7768000D01*
X12229286Y-7768000D02*
X12210238Y-7777524D01*
X12210238Y-7777524D02*
X12172143Y-7777524D01*
X12172143Y-7777524D02*
X12153095Y-7768000D01*
X12334048Y-7758476D02*
X12343571Y-7768000D01*
X12343571Y-7768000D02*
X12334048Y-7777524D01*
X12334048Y-7777524D02*
X12324524Y-7768000D01*
X12324524Y-7768000D02*
X12334048Y-7758476D01*
X12334048Y-7758476D02*
X12334048Y-7777524D01*
X12334048Y-7653714D02*
X12343571Y-7663238D01*
X12343571Y-7663238D02*
X12334048Y-7672762D01*
X12334048Y-7672762D02*
X12324524Y-7663238D01*
X12324524Y-7663238D02*
X12334048Y-7653714D01*
X12334048Y-7653714D02*
X12334048Y-7672762D01*
D12*
X10675000Y-8085000D02*
X10715000Y-8125000D01*
X10715000Y-8085000D02*
X10675000Y-8125000D01*
D11*
X11000714Y-7997524D02*
X11019762Y-7997524D01*
X11019762Y-7997524D02*
X11038810Y-8007048D01*
X11038810Y-8007048D02*
X11048333Y-8016571D01*
X11048333Y-8016571D02*
X11057857Y-8035619D01*
X11057857Y-8035619D02*
X11067381Y-8073714D01*
X11067381Y-8073714D02*
X11067381Y-8121333D01*
X11067381Y-8121333D02*
X11057857Y-8159428D01*
X11057857Y-8159428D02*
X11048333Y-8178476D01*
X11048333Y-8178476D02*
X11038810Y-8188000D01*
X11038810Y-8188000D02*
X11019762Y-8197524D01*
X11019762Y-8197524D02*
X11000714Y-8197524D01*
X11000714Y-8197524D02*
X10981667Y-8188000D01*
X10981667Y-8188000D02*
X10972143Y-8178476D01*
X10972143Y-8178476D02*
X10962619Y-8159428D01*
X10962619Y-8159428D02*
X10953095Y-8121333D01*
X10953095Y-8121333D02*
X10953095Y-8073714D01*
X10953095Y-8073714D02*
X10962619Y-8035619D01*
X10962619Y-8035619D02*
X10972143Y-8016571D01*
X10972143Y-8016571D02*
X10981667Y-8007048D01*
X10981667Y-8007048D02*
X11000714Y-7997524D01*
X11153095Y-8178476D02*
X11162619Y-8188000D01*
X11162619Y-8188000D02*
X11153095Y-8197524D01*
X11153095Y-8197524D02*
X11143571Y-8188000D01*
X11143571Y-8188000D02*
X11153095Y-8178476D01*
X11153095Y-8178476D02*
X11153095Y-8197524D01*
X11334048Y-8064190D02*
X11334048Y-8197524D01*
X11286428Y-7988000D02*
X11238809Y-8130857D01*
X11238809Y-8130857D02*
X11362619Y-8130857D01*
X11476905Y-7997524D02*
X11495952Y-7997524D01*
X11495952Y-7997524D02*
X11515000Y-8007048D01*
X11515000Y-8007048D02*
X11524524Y-8016571D01*
X11524524Y-8016571D02*
X11534048Y-8035619D01*
X11534048Y-8035619D02*
X11543571Y-8073714D01*
X11543571Y-8073714D02*
X11543571Y-8121333D01*
X11543571Y-8121333D02*
X11534048Y-8159428D01*
X11534048Y-8159428D02*
X11524524Y-8178476D01*
X11524524Y-8178476D02*
X11515000Y-8188000D01*
X11515000Y-8188000D02*
X11495952Y-8197524D01*
X11495952Y-8197524D02*
X11476905Y-8197524D01*
X11476905Y-8197524D02*
X11457857Y-8188000D01*
X11457857Y-8188000D02*
X11448333Y-8178476D01*
X11448333Y-8178476D02*
X11438809Y-8159428D01*
X11438809Y-8159428D02*
X11429286Y-8121333D01*
X11429286Y-8121333D02*
X11429286Y-8073714D01*
X11429286Y-8073714D02*
X11438809Y-8035619D01*
X11438809Y-8035619D02*
X11448333Y-8016571D01*
X11448333Y-8016571D02*
X11457857Y-8007048D01*
X11457857Y-8007048D02*
X11476905Y-7997524D01*
X11667381Y-7997524D02*
X11686429Y-7997524D01*
X11686429Y-7997524D02*
X11705476Y-8007048D01*
X11705476Y-8007048D02*
X11715000Y-8016571D01*
X11715000Y-8016571D02*
X11724524Y-8035619D01*
X11724524Y-8035619D02*
X11734048Y-8073714D01*
X11734048Y-8073714D02*
X11734048Y-8121333D01*
X11734048Y-8121333D02*
X11724524Y-8159428D01*
X11724524Y-8159428D02*
X11715000Y-8178476D01*
X11715000Y-8178476D02*
X11705476Y-8188000D01*
X11705476Y-8188000D02*
X11686429Y-8197524D01*
X11686429Y-8197524D02*
X11667381Y-8197524D01*
X11667381Y-8197524D02*
X11648333Y-8188000D01*
X11648333Y-8188000D02*
X11638809Y-8178476D01*
X11638809Y-8178476D02*
X11629286Y-8159428D01*
X11629286Y-8159428D02*
X11619762Y-8121333D01*
X11619762Y-8121333D02*
X11619762Y-8073714D01*
X11619762Y-8073714D02*
X11629286Y-8035619D01*
X11629286Y-8035619D02*
X11638809Y-8016571D01*
X11638809Y-8016571D02*
X11648333Y-8007048D01*
X11648333Y-8007048D02*
X11667381Y-7997524D01*
X11819762Y-8197524D02*
X11819762Y-8064190D01*
X11819762Y-8083238D02*
X11829286Y-8073714D01*
X11829286Y-8073714D02*
X11848333Y-8064190D01*
X11848333Y-8064190D02*
X11876905Y-8064190D01*
X11876905Y-8064190D02*
X11895952Y-8073714D01*
X11895952Y-8073714D02*
X11905476Y-8092762D01*
X11905476Y-8092762D02*
X11905476Y-8197524D01*
X11905476Y-8092762D02*
X11915000Y-8073714D01*
X11915000Y-8073714D02*
X11934048Y-8064190D01*
X11934048Y-8064190D02*
X11962619Y-8064190D01*
X11962619Y-8064190D02*
X11981667Y-8073714D01*
X11981667Y-8073714D02*
X11991190Y-8092762D01*
X11991190Y-8092762D02*
X11991190Y-8197524D01*
X12086429Y-8197524D02*
X12086429Y-8064190D01*
X12086429Y-8083238D02*
X12095952Y-8073714D01*
X12095952Y-8073714D02*
X12115000Y-8064190D01*
X12115000Y-8064190D02*
X12143571Y-8064190D01*
X12143571Y-8064190D02*
X12162619Y-8073714D01*
X12162619Y-8073714D02*
X12172143Y-8092762D01*
X12172143Y-8092762D02*
X12172143Y-8197524D01*
X12172143Y-8092762D02*
X12181667Y-8073714D01*
X12181667Y-8073714D02*
X12200714Y-8064190D01*
X12200714Y-8064190D02*
X12229286Y-8064190D01*
X12229286Y-8064190D02*
X12248333Y-8073714D01*
X12248333Y-8073714D02*
X12257857Y-8092762D01*
X12257857Y-8092762D02*
X12257857Y-8197524D01*
X12648333Y-7988000D02*
X12476905Y-8245143D01*
X12905476Y-7997524D02*
X12924524Y-7997524D01*
X12924524Y-7997524D02*
X12943572Y-8007048D01*
X12943572Y-8007048D02*
X12953095Y-8016571D01*
X12953095Y-8016571D02*
X12962619Y-8035619D01*
X12962619Y-8035619D02*
X12972143Y-8073714D01*
X12972143Y-8073714D02*
X12972143Y-8121333D01*
X12972143Y-8121333D02*
X12962619Y-8159428D01*
X12962619Y-8159428D02*
X12953095Y-8178476D01*
X12953095Y-8178476D02*
X12943572Y-8188000D01*
X12943572Y-8188000D02*
X12924524Y-8197524D01*
X12924524Y-8197524D02*
X12905476Y-8197524D01*
X12905476Y-8197524D02*
X12886429Y-8188000D01*
X12886429Y-8188000D02*
X12876905Y-8178476D01*
X12876905Y-8178476D02*
X12867381Y-8159428D01*
X12867381Y-8159428D02*
X12857857Y-8121333D01*
X12857857Y-8121333D02*
X12857857Y-8073714D01*
X12857857Y-8073714D02*
X12867381Y-8035619D01*
X12867381Y-8035619D02*
X12876905Y-8016571D01*
X12876905Y-8016571D02*
X12886429Y-8007048D01*
X12886429Y-8007048D02*
X12905476Y-7997524D01*
X13057857Y-8178476D02*
X13067381Y-8188000D01*
X13067381Y-8188000D02*
X13057857Y-8197524D01*
X13057857Y-8197524D02*
X13048333Y-8188000D01*
X13048333Y-8188000D02*
X13057857Y-8178476D01*
X13057857Y-8178476D02*
X13057857Y-8197524D01*
X13191191Y-7997524D02*
X13210238Y-7997524D01*
X13210238Y-7997524D02*
X13229286Y-8007048D01*
X13229286Y-8007048D02*
X13238810Y-8016571D01*
X13238810Y-8016571D02*
X13248333Y-8035619D01*
X13248333Y-8035619D02*
X13257857Y-8073714D01*
X13257857Y-8073714D02*
X13257857Y-8121333D01*
X13257857Y-8121333D02*
X13248333Y-8159428D01*
X13248333Y-8159428D02*
X13238810Y-8178476D01*
X13238810Y-8178476D02*
X13229286Y-8188000D01*
X13229286Y-8188000D02*
X13210238Y-8197524D01*
X13210238Y-8197524D02*
X13191191Y-8197524D01*
X13191191Y-8197524D02*
X13172143Y-8188000D01*
X13172143Y-8188000D02*
X13162619Y-8178476D01*
X13162619Y-8178476D02*
X13153095Y-8159428D01*
X13153095Y-8159428D02*
X13143572Y-8121333D01*
X13143572Y-8121333D02*
X13143572Y-8073714D01*
X13143572Y-8073714D02*
X13153095Y-8035619D01*
X13153095Y-8035619D02*
X13162619Y-8016571D01*
X13162619Y-8016571D02*
X13172143Y-8007048D01*
X13172143Y-8007048D02*
X13191191Y-7997524D01*
X13448333Y-8197524D02*
X13334048Y-8197524D01*
X13391191Y-8197524D02*
X13391191Y-7997524D01*
X13391191Y-7997524D02*
X13372143Y-8026095D01*
X13372143Y-8026095D02*
X13353095Y-8045143D01*
X13353095Y-8045143D02*
X13334048Y-8054667D01*
X13629286Y-7997524D02*
X13534048Y-7997524D01*
X13534048Y-7997524D02*
X13524524Y-8092762D01*
X13524524Y-8092762D02*
X13534048Y-8083238D01*
X13534048Y-8083238D02*
X13553095Y-8073714D01*
X13553095Y-8073714D02*
X13600714Y-8073714D01*
X13600714Y-8073714D02*
X13619762Y-8083238D01*
X13619762Y-8083238D02*
X13629286Y-8092762D01*
X13629286Y-8092762D02*
X13638810Y-8111809D01*
X13638810Y-8111809D02*
X13638810Y-8159428D01*
X13638810Y-8159428D02*
X13629286Y-8178476D01*
X13629286Y-8178476D02*
X13619762Y-8188000D01*
X13619762Y-8188000D02*
X13600714Y-8197524D01*
X13600714Y-8197524D02*
X13553095Y-8197524D01*
X13553095Y-8197524D02*
X13534048Y-8188000D01*
X13534048Y-8188000D02*
X13524524Y-8178476D01*
X13705476Y-7997524D02*
X13838810Y-7997524D01*
X13838810Y-7997524D02*
X13753095Y-8197524D01*
X13905476Y-7997524D02*
X13905476Y-8035619D01*
X13981667Y-7997524D02*
X13981667Y-8035619D01*
X14276905Y-8273714D02*
X14267381Y-8264190D01*
X14267381Y-8264190D02*
X14248334Y-8235619D01*
X14248334Y-8235619D02*
X14238810Y-8216571D01*
X14238810Y-8216571D02*
X14229286Y-8188000D01*
X14229286Y-8188000D02*
X14219762Y-8140381D01*
X14219762Y-8140381D02*
X14219762Y-8102286D01*
X14219762Y-8102286D02*
X14229286Y-8054667D01*
X14229286Y-8054667D02*
X14238810Y-8026095D01*
X14238810Y-8026095D02*
X14248334Y-8007048D01*
X14248334Y-8007048D02*
X14267381Y-7978476D01*
X14267381Y-7978476D02*
X14276905Y-7968952D01*
X14334048Y-7997524D02*
X14457857Y-7997524D01*
X14457857Y-7997524D02*
X14391191Y-8073714D01*
X14391191Y-8073714D02*
X14419762Y-8073714D01*
X14419762Y-8073714D02*
X14438810Y-8083238D01*
X14438810Y-8083238D02*
X14448334Y-8092762D01*
X14448334Y-8092762D02*
X14457857Y-8111809D01*
X14457857Y-8111809D02*
X14457857Y-8159428D01*
X14457857Y-8159428D02*
X14448334Y-8178476D01*
X14448334Y-8178476D02*
X14438810Y-8188000D01*
X14438810Y-8188000D02*
X14419762Y-8197524D01*
X14419762Y-8197524D02*
X14362619Y-8197524D01*
X14362619Y-8197524D02*
X14343572Y-8188000D01*
X14343572Y-8188000D02*
X14334048Y-8178476D01*
X14695953Y-8197524D02*
X14695953Y-7997524D01*
X14781667Y-8197524D02*
X14781667Y-8092762D01*
X14781667Y-8092762D02*
X14772143Y-8073714D01*
X14772143Y-8073714D02*
X14753096Y-8064190D01*
X14753096Y-8064190D02*
X14724524Y-8064190D01*
X14724524Y-8064190D02*
X14705476Y-8073714D01*
X14705476Y-8073714D02*
X14695953Y-8083238D01*
X14905476Y-8197524D02*
X14886429Y-8188000D01*
X14886429Y-8188000D02*
X14876905Y-8178476D01*
X14876905Y-8178476D02*
X14867381Y-8159428D01*
X14867381Y-8159428D02*
X14867381Y-8102286D01*
X14867381Y-8102286D02*
X14876905Y-8083238D01*
X14876905Y-8083238D02*
X14886429Y-8073714D01*
X14886429Y-8073714D02*
X14905476Y-8064190D01*
X14905476Y-8064190D02*
X14934048Y-8064190D01*
X14934048Y-8064190D02*
X14953096Y-8073714D01*
X14953096Y-8073714D02*
X14962619Y-8083238D01*
X14962619Y-8083238D02*
X14972143Y-8102286D01*
X14972143Y-8102286D02*
X14972143Y-8159428D01*
X14972143Y-8159428D02*
X14962619Y-8178476D01*
X14962619Y-8178476D02*
X14953096Y-8188000D01*
X14953096Y-8188000D02*
X14934048Y-8197524D01*
X14934048Y-8197524D02*
X14905476Y-8197524D01*
X15086429Y-8197524D02*
X15067381Y-8188000D01*
X15067381Y-8188000D02*
X15057857Y-8168952D01*
X15057857Y-8168952D02*
X15057857Y-7997524D01*
X15238810Y-8188000D02*
X15219762Y-8197524D01*
X15219762Y-8197524D02*
X15181667Y-8197524D01*
X15181667Y-8197524D02*
X15162619Y-8188000D01*
X15162619Y-8188000D02*
X15153096Y-8168952D01*
X15153096Y-8168952D02*
X15153096Y-8092762D01*
X15153096Y-8092762D02*
X15162619Y-8073714D01*
X15162619Y-8073714D02*
X15181667Y-8064190D01*
X15181667Y-8064190D02*
X15219762Y-8064190D01*
X15219762Y-8064190D02*
X15238810Y-8073714D01*
X15238810Y-8073714D02*
X15248334Y-8092762D01*
X15248334Y-8092762D02*
X15248334Y-8111809D01*
X15248334Y-8111809D02*
X15153096Y-8130857D01*
X15324524Y-8188000D02*
X15343572Y-8197524D01*
X15343572Y-8197524D02*
X15381667Y-8197524D01*
X15381667Y-8197524D02*
X15400715Y-8188000D01*
X15400715Y-8188000D02*
X15410238Y-8168952D01*
X15410238Y-8168952D02*
X15410238Y-8159428D01*
X15410238Y-8159428D02*
X15400715Y-8140381D01*
X15400715Y-8140381D02*
X15381667Y-8130857D01*
X15381667Y-8130857D02*
X15353096Y-8130857D01*
X15353096Y-8130857D02*
X15334048Y-8121333D01*
X15334048Y-8121333D02*
X15324524Y-8102286D01*
X15324524Y-8102286D02*
X15324524Y-8092762D01*
X15324524Y-8092762D02*
X15334048Y-8073714D01*
X15334048Y-8073714D02*
X15353096Y-8064190D01*
X15353096Y-8064190D02*
X15381667Y-8064190D01*
X15381667Y-8064190D02*
X15400715Y-8073714D01*
X15476905Y-8273714D02*
X15486429Y-8264190D01*
X15486429Y-8264190D02*
X15505477Y-8235619D01*
X15505477Y-8235619D02*
X15515000Y-8216571D01*
X15515000Y-8216571D02*
X15524524Y-8188000D01*
X15524524Y-8188000D02*
X15534048Y-8140381D01*
X15534048Y-8140381D02*
X15534048Y-8102286D01*
X15534048Y-8102286D02*
X15524524Y-8054667D01*
X15524524Y-8054667D02*
X15515000Y-8026095D01*
X15515000Y-8026095D02*
X15505477Y-8007048D01*
X15505477Y-8007048D02*
X15486429Y-7978476D01*
X15486429Y-7978476D02*
X15476905Y-7968952D01*
D13*
X10715000Y-8369000D02*
G75*
G03*
X10715000Y-8369000I-40000J0D01*
G01*
D11*
X11000714Y-8261524D02*
X11019762Y-8261524D01*
X11019762Y-8261524D02*
X11038810Y-8271048D01*
X11038810Y-8271048D02*
X11048333Y-8280571D01*
X11048333Y-8280571D02*
X11057857Y-8299619D01*
X11057857Y-8299619D02*
X11067381Y-8337714D01*
X11067381Y-8337714D02*
X11067381Y-8385333D01*
X11067381Y-8385333D02*
X11057857Y-8423429D01*
X11057857Y-8423429D02*
X11048333Y-8442476D01*
X11048333Y-8442476D02*
X11038810Y-8452000D01*
X11038810Y-8452000D02*
X11019762Y-8461524D01*
X11019762Y-8461524D02*
X11000714Y-8461524D01*
X11000714Y-8461524D02*
X10981667Y-8452000D01*
X10981667Y-8452000D02*
X10972143Y-8442476D01*
X10972143Y-8442476D02*
X10962619Y-8423429D01*
X10962619Y-8423429D02*
X10953095Y-8385333D01*
X10953095Y-8385333D02*
X10953095Y-8337714D01*
X10953095Y-8337714D02*
X10962619Y-8299619D01*
X10962619Y-8299619D02*
X10972143Y-8280571D01*
X10972143Y-8280571D02*
X10981667Y-8271048D01*
X10981667Y-8271048D02*
X11000714Y-8261524D01*
X11153095Y-8442476D02*
X11162619Y-8452000D01*
X11162619Y-8452000D02*
X11153095Y-8461524D01*
X11153095Y-8461524D02*
X11143571Y-8452000D01*
X11143571Y-8452000D02*
X11153095Y-8442476D01*
X11153095Y-8442476D02*
X11153095Y-8461524D01*
X11276905Y-8347238D02*
X11257857Y-8337714D01*
X11257857Y-8337714D02*
X11248333Y-8328190D01*
X11248333Y-8328190D02*
X11238809Y-8309143D01*
X11238809Y-8309143D02*
X11238809Y-8299619D01*
X11238809Y-8299619D02*
X11248333Y-8280571D01*
X11248333Y-8280571D02*
X11257857Y-8271048D01*
X11257857Y-8271048D02*
X11276905Y-8261524D01*
X11276905Y-8261524D02*
X11315000Y-8261524D01*
X11315000Y-8261524D02*
X11334048Y-8271048D01*
X11334048Y-8271048D02*
X11343571Y-8280571D01*
X11343571Y-8280571D02*
X11353095Y-8299619D01*
X11353095Y-8299619D02*
X11353095Y-8309143D01*
X11353095Y-8309143D02*
X11343571Y-8328190D01*
X11343571Y-8328190D02*
X11334048Y-8337714D01*
X11334048Y-8337714D02*
X11315000Y-8347238D01*
X11315000Y-8347238D02*
X11276905Y-8347238D01*
X11276905Y-8347238D02*
X11257857Y-8356762D01*
X11257857Y-8356762D02*
X11248333Y-8366286D01*
X11248333Y-8366286D02*
X11238809Y-8385333D01*
X11238809Y-8385333D02*
X11238809Y-8423429D01*
X11238809Y-8423429D02*
X11248333Y-8442476D01*
X11248333Y-8442476D02*
X11257857Y-8452000D01*
X11257857Y-8452000D02*
X11276905Y-8461524D01*
X11276905Y-8461524D02*
X11315000Y-8461524D01*
X11315000Y-8461524D02*
X11334048Y-8452000D01*
X11334048Y-8452000D02*
X11343571Y-8442476D01*
X11343571Y-8442476D02*
X11353095Y-8423429D01*
X11353095Y-8423429D02*
X11353095Y-8385333D01*
X11353095Y-8385333D02*
X11343571Y-8366286D01*
X11343571Y-8366286D02*
X11334048Y-8356762D01*
X11334048Y-8356762D02*
X11315000Y-8347238D01*
X11476905Y-8261524D02*
X11495952Y-8261524D01*
X11495952Y-8261524D02*
X11515000Y-8271048D01*
X11515000Y-8271048D02*
X11524524Y-8280571D01*
X11524524Y-8280571D02*
X11534048Y-8299619D01*
X11534048Y-8299619D02*
X11543571Y-8337714D01*
X11543571Y-8337714D02*
X11543571Y-8385333D01*
X11543571Y-8385333D02*
X11534048Y-8423429D01*
X11534048Y-8423429D02*
X11524524Y-8442476D01*
X11524524Y-8442476D02*
X11515000Y-8452000D01*
X11515000Y-8452000D02*
X11495952Y-8461524D01*
X11495952Y-8461524D02*
X11476905Y-8461524D01*
X11476905Y-8461524D02*
X11457857Y-8452000D01*
X11457857Y-8452000D02*
X11448333Y-8442476D01*
X11448333Y-8442476D02*
X11438809Y-8423429D01*
X11438809Y-8423429D02*
X11429286Y-8385333D01*
X11429286Y-8385333D02*
X11429286Y-8337714D01*
X11429286Y-8337714D02*
X11438809Y-8299619D01*
X11438809Y-8299619D02*
X11448333Y-8280571D01*
X11448333Y-8280571D02*
X11457857Y-8271048D01*
X11457857Y-8271048D02*
X11476905Y-8261524D01*
X11667381Y-8261524D02*
X11686429Y-8261524D01*
X11686429Y-8261524D02*
X11705476Y-8271048D01*
X11705476Y-8271048D02*
X11715000Y-8280571D01*
X11715000Y-8280571D02*
X11724524Y-8299619D01*
X11724524Y-8299619D02*
X11734048Y-8337714D01*
X11734048Y-8337714D02*
X11734048Y-8385333D01*
X11734048Y-8385333D02*
X11724524Y-8423429D01*
X11724524Y-8423429D02*
X11715000Y-8442476D01*
X11715000Y-8442476D02*
X11705476Y-8452000D01*
X11705476Y-8452000D02*
X11686429Y-8461524D01*
X11686429Y-8461524D02*
X11667381Y-8461524D01*
X11667381Y-8461524D02*
X11648333Y-8452000D01*
X11648333Y-8452000D02*
X11638809Y-8442476D01*
X11638809Y-8442476D02*
X11629286Y-8423429D01*
X11629286Y-8423429D02*
X11619762Y-8385333D01*
X11619762Y-8385333D02*
X11619762Y-8337714D01*
X11619762Y-8337714D02*
X11629286Y-8299619D01*
X11629286Y-8299619D02*
X11638809Y-8280571D01*
X11638809Y-8280571D02*
X11648333Y-8271048D01*
X11648333Y-8271048D02*
X11667381Y-8261524D01*
X11819762Y-8461524D02*
X11819762Y-8328190D01*
X11819762Y-8347238D02*
X11829286Y-8337714D01*
X11829286Y-8337714D02*
X11848333Y-8328190D01*
X11848333Y-8328190D02*
X11876905Y-8328190D01*
X11876905Y-8328190D02*
X11895952Y-8337714D01*
X11895952Y-8337714D02*
X11905476Y-8356762D01*
X11905476Y-8356762D02*
X11905476Y-8461524D01*
X11905476Y-8356762D02*
X11915000Y-8337714D01*
X11915000Y-8337714D02*
X11934048Y-8328190D01*
X11934048Y-8328190D02*
X11962619Y-8328190D01*
X11962619Y-8328190D02*
X11981667Y-8337714D01*
X11981667Y-8337714D02*
X11991190Y-8356762D01*
X11991190Y-8356762D02*
X11991190Y-8461524D01*
X12086429Y-8461524D02*
X12086429Y-8328190D01*
X12086429Y-8347238D02*
X12095952Y-8337714D01*
X12095952Y-8337714D02*
X12115000Y-8328190D01*
X12115000Y-8328190D02*
X12143571Y-8328190D01*
X12143571Y-8328190D02*
X12162619Y-8337714D01*
X12162619Y-8337714D02*
X12172143Y-8356762D01*
X12172143Y-8356762D02*
X12172143Y-8461524D01*
X12172143Y-8356762D02*
X12181667Y-8337714D01*
X12181667Y-8337714D02*
X12200714Y-8328190D01*
X12200714Y-8328190D02*
X12229286Y-8328190D01*
X12229286Y-8328190D02*
X12248333Y-8337714D01*
X12248333Y-8337714D02*
X12257857Y-8356762D01*
X12257857Y-8356762D02*
X12257857Y-8461524D01*
X12648333Y-8252000D02*
X12476905Y-8509143D01*
X12905476Y-8261524D02*
X12924524Y-8261524D01*
X12924524Y-8261524D02*
X12943572Y-8271048D01*
X12943572Y-8271048D02*
X12953095Y-8280571D01*
X12953095Y-8280571D02*
X12962619Y-8299619D01*
X12962619Y-8299619D02*
X12972143Y-8337714D01*
X12972143Y-8337714D02*
X12972143Y-8385333D01*
X12972143Y-8385333D02*
X12962619Y-8423429D01*
X12962619Y-8423429D02*
X12953095Y-8442476D01*
X12953095Y-8442476D02*
X12943572Y-8452000D01*
X12943572Y-8452000D02*
X12924524Y-8461524D01*
X12924524Y-8461524D02*
X12905476Y-8461524D01*
X12905476Y-8461524D02*
X12886429Y-8452000D01*
X12886429Y-8452000D02*
X12876905Y-8442476D01*
X12876905Y-8442476D02*
X12867381Y-8423429D01*
X12867381Y-8423429D02*
X12857857Y-8385333D01*
X12857857Y-8385333D02*
X12857857Y-8337714D01*
X12857857Y-8337714D02*
X12867381Y-8299619D01*
X12867381Y-8299619D02*
X12876905Y-8280571D01*
X12876905Y-8280571D02*
X12886429Y-8271048D01*
X12886429Y-8271048D02*
X12905476Y-8261524D01*
X13057857Y-8442476D02*
X13067381Y-8452000D01*
X13067381Y-8452000D02*
X13057857Y-8461524D01*
X13057857Y-8461524D02*
X13048333Y-8452000D01*
X13048333Y-8452000D02*
X13057857Y-8442476D01*
X13057857Y-8442476D02*
X13057857Y-8461524D01*
X13191191Y-8261524D02*
X13210238Y-8261524D01*
X13210238Y-8261524D02*
X13229286Y-8271048D01*
X13229286Y-8271048D02*
X13238810Y-8280571D01*
X13238810Y-8280571D02*
X13248333Y-8299619D01*
X13248333Y-8299619D02*
X13257857Y-8337714D01*
X13257857Y-8337714D02*
X13257857Y-8385333D01*
X13257857Y-8385333D02*
X13248333Y-8423429D01*
X13248333Y-8423429D02*
X13238810Y-8442476D01*
X13238810Y-8442476D02*
X13229286Y-8452000D01*
X13229286Y-8452000D02*
X13210238Y-8461524D01*
X13210238Y-8461524D02*
X13191191Y-8461524D01*
X13191191Y-8461524D02*
X13172143Y-8452000D01*
X13172143Y-8452000D02*
X13162619Y-8442476D01*
X13162619Y-8442476D02*
X13153095Y-8423429D01*
X13153095Y-8423429D02*
X13143572Y-8385333D01*
X13143572Y-8385333D02*
X13143572Y-8337714D01*
X13143572Y-8337714D02*
X13153095Y-8299619D01*
X13153095Y-8299619D02*
X13162619Y-8280571D01*
X13162619Y-8280571D02*
X13172143Y-8271048D01*
X13172143Y-8271048D02*
X13191191Y-8261524D01*
X13324524Y-8261524D02*
X13448333Y-8261524D01*
X13448333Y-8261524D02*
X13381667Y-8337714D01*
X13381667Y-8337714D02*
X13410238Y-8337714D01*
X13410238Y-8337714D02*
X13429286Y-8347238D01*
X13429286Y-8347238D02*
X13438810Y-8356762D01*
X13438810Y-8356762D02*
X13448333Y-8375809D01*
X13448333Y-8375809D02*
X13448333Y-8423429D01*
X13448333Y-8423429D02*
X13438810Y-8442476D01*
X13438810Y-8442476D02*
X13429286Y-8452000D01*
X13429286Y-8452000D02*
X13410238Y-8461524D01*
X13410238Y-8461524D02*
X13353095Y-8461524D01*
X13353095Y-8461524D02*
X13334048Y-8452000D01*
X13334048Y-8452000D02*
X13324524Y-8442476D01*
X13638810Y-8461524D02*
X13524524Y-8461524D01*
X13581667Y-8461524D02*
X13581667Y-8261524D01*
X13581667Y-8261524D02*
X13562619Y-8290095D01*
X13562619Y-8290095D02*
X13543572Y-8309143D01*
X13543572Y-8309143D02*
X13524524Y-8318667D01*
X13819762Y-8261524D02*
X13724524Y-8261524D01*
X13724524Y-8261524D02*
X13715000Y-8356762D01*
X13715000Y-8356762D02*
X13724524Y-8347238D01*
X13724524Y-8347238D02*
X13743572Y-8337714D01*
X13743572Y-8337714D02*
X13791191Y-8337714D01*
X13791191Y-8337714D02*
X13810238Y-8347238D01*
X13810238Y-8347238D02*
X13819762Y-8356762D01*
X13819762Y-8356762D02*
X13829286Y-8375809D01*
X13829286Y-8375809D02*
X13829286Y-8423429D01*
X13829286Y-8423429D02*
X13819762Y-8442476D01*
X13819762Y-8442476D02*
X13810238Y-8452000D01*
X13810238Y-8452000D02*
X13791191Y-8461524D01*
X13791191Y-8461524D02*
X13743572Y-8461524D01*
X13743572Y-8461524D02*
X13724524Y-8452000D01*
X13724524Y-8452000D02*
X13715000Y-8442476D01*
X13905476Y-8261524D02*
X13905476Y-8299619D01*
X13981667Y-8261524D02*
X13981667Y-8299619D01*
X14276905Y-8537714D02*
X14267381Y-8528190D01*
X14267381Y-8528190D02*
X14248334Y-8499619D01*
X14248334Y-8499619D02*
X14238810Y-8480571D01*
X14238810Y-8480571D02*
X14229286Y-8452000D01*
X14229286Y-8452000D02*
X14219762Y-8404381D01*
X14219762Y-8404381D02*
X14219762Y-8366286D01*
X14219762Y-8366286D02*
X14229286Y-8318667D01*
X14229286Y-8318667D02*
X14238810Y-8290095D01*
X14238810Y-8290095D02*
X14248334Y-8271048D01*
X14248334Y-8271048D02*
X14267381Y-8242476D01*
X14267381Y-8242476D02*
X14276905Y-8232952D01*
X14343572Y-8280571D02*
X14353095Y-8271048D01*
X14353095Y-8271048D02*
X14372143Y-8261524D01*
X14372143Y-8261524D02*
X14419762Y-8261524D01*
X14419762Y-8261524D02*
X14438810Y-8271048D01*
X14438810Y-8271048D02*
X14448334Y-8280571D01*
X14448334Y-8280571D02*
X14457857Y-8299619D01*
X14457857Y-8299619D02*
X14457857Y-8318667D01*
X14457857Y-8318667D02*
X14448334Y-8347238D01*
X14448334Y-8347238D02*
X14334048Y-8461524D01*
X14334048Y-8461524D02*
X14457857Y-8461524D01*
X14695953Y-8461524D02*
X14695953Y-8261524D01*
X14781667Y-8461524D02*
X14781667Y-8356762D01*
X14781667Y-8356762D02*
X14772143Y-8337714D01*
X14772143Y-8337714D02*
X14753096Y-8328190D01*
X14753096Y-8328190D02*
X14724524Y-8328190D01*
X14724524Y-8328190D02*
X14705476Y-8337714D01*
X14705476Y-8337714D02*
X14695953Y-8347238D01*
X14905476Y-8461524D02*
X14886429Y-8452000D01*
X14886429Y-8452000D02*
X14876905Y-8442476D01*
X14876905Y-8442476D02*
X14867381Y-8423429D01*
X14867381Y-8423429D02*
X14867381Y-8366286D01*
X14867381Y-8366286D02*
X14876905Y-8347238D01*
X14876905Y-8347238D02*
X14886429Y-8337714D01*
X14886429Y-8337714D02*
X14905476Y-8328190D01*
X14905476Y-8328190D02*
X14934048Y-8328190D01*
X14934048Y-8328190D02*
X14953096Y-8337714D01*
X14953096Y-8337714D02*
X14962619Y-8347238D01*
X14962619Y-8347238D02*
X14972143Y-8366286D01*
X14972143Y-8366286D02*
X14972143Y-8423429D01*
X14972143Y-8423429D02*
X14962619Y-8442476D01*
X14962619Y-8442476D02*
X14953096Y-8452000D01*
X14953096Y-8452000D02*
X14934048Y-8461524D01*
X14934048Y-8461524D02*
X14905476Y-8461524D01*
X15086429Y-8461524D02*
X15067381Y-8452000D01*
X15067381Y-8452000D02*
X15057857Y-8432952D01*
X15057857Y-8432952D02*
X15057857Y-8261524D01*
X15238810Y-8452000D02*
X15219762Y-8461524D01*
X15219762Y-8461524D02*
X15181667Y-8461524D01*
X15181667Y-8461524D02*
X15162619Y-8452000D01*
X15162619Y-8452000D02*
X15153096Y-8432952D01*
X15153096Y-8432952D02*
X15153096Y-8356762D01*
X15153096Y-8356762D02*
X15162619Y-8337714D01*
X15162619Y-8337714D02*
X15181667Y-8328190D01*
X15181667Y-8328190D02*
X15219762Y-8328190D01*
X15219762Y-8328190D02*
X15238810Y-8337714D01*
X15238810Y-8337714D02*
X15248334Y-8356762D01*
X15248334Y-8356762D02*
X15248334Y-8375809D01*
X15248334Y-8375809D02*
X15153096Y-8394857D01*
X15324524Y-8452000D02*
X15343572Y-8461524D01*
X15343572Y-8461524D02*
X15381667Y-8461524D01*
X15381667Y-8461524D02*
X15400715Y-8452000D01*
X15400715Y-8452000D02*
X15410238Y-8432952D01*
X15410238Y-8432952D02*
X15410238Y-8423429D01*
X15410238Y-8423429D02*
X15400715Y-8404381D01*
X15400715Y-8404381D02*
X15381667Y-8394857D01*
X15381667Y-8394857D02*
X15353096Y-8394857D01*
X15353096Y-8394857D02*
X15334048Y-8385333D01*
X15334048Y-8385333D02*
X15324524Y-8366286D01*
X15324524Y-8366286D02*
X15324524Y-8356762D01*
X15324524Y-8356762D02*
X15334048Y-8337714D01*
X15334048Y-8337714D02*
X15353096Y-8328190D01*
X15353096Y-8328190D02*
X15381667Y-8328190D01*
X15381667Y-8328190D02*
X15400715Y-8337714D01*
X15476905Y-8537714D02*
X15486429Y-8528190D01*
X15486429Y-8528190D02*
X15505477Y-8499619D01*
X15505477Y-8499619D02*
X15515000Y-8480571D01*
X15515000Y-8480571D02*
X15524524Y-8452000D01*
X15524524Y-8452000D02*
X15534048Y-8404381D01*
X15534048Y-8404381D02*
X15534048Y-8366286D01*
X15534048Y-8366286D02*
X15524524Y-8318667D01*
X15524524Y-8318667D02*
X15515000Y-8290095D01*
X15515000Y-8290095D02*
X15505477Y-8271048D01*
X15505477Y-8271048D02*
X15486429Y-8242476D01*
X15486429Y-8242476D02*
X15476905Y-8232952D01*
D10*
X10665000Y-8583000D02*
X10665000Y-8683000D01*
X10615000Y-8633000D02*
X10715000Y-8633000D01*
D11*
X11067381Y-8725524D02*
X10953095Y-8725524D01*
X11010238Y-8725524D02*
X11010238Y-8525524D01*
X11010238Y-8525524D02*
X10991190Y-8554095D01*
X10991190Y-8554095D02*
X10972143Y-8573143D01*
X10972143Y-8573143D02*
X10953095Y-8582667D01*
X11153095Y-8706476D02*
X11162619Y-8716000D01*
X11162619Y-8716000D02*
X11153095Y-8725524D01*
X11153095Y-8725524D02*
X11143571Y-8716000D01*
X11143571Y-8716000D02*
X11153095Y-8706476D01*
X11153095Y-8706476D02*
X11153095Y-8725524D01*
X11286428Y-8525524D02*
X11305476Y-8525524D01*
X11305476Y-8525524D02*
X11324524Y-8535048D01*
X11324524Y-8535048D02*
X11334048Y-8544571D01*
X11334048Y-8544571D02*
X11343571Y-8563619D01*
X11343571Y-8563619D02*
X11353095Y-8601714D01*
X11353095Y-8601714D02*
X11353095Y-8649333D01*
X11353095Y-8649333D02*
X11343571Y-8687429D01*
X11343571Y-8687429D02*
X11334048Y-8706476D01*
X11334048Y-8706476D02*
X11324524Y-8716000D01*
X11324524Y-8716000D02*
X11305476Y-8725524D01*
X11305476Y-8725524D02*
X11286428Y-8725524D01*
X11286428Y-8725524D02*
X11267381Y-8716000D01*
X11267381Y-8716000D02*
X11257857Y-8706476D01*
X11257857Y-8706476D02*
X11248333Y-8687429D01*
X11248333Y-8687429D02*
X11238809Y-8649333D01*
X11238809Y-8649333D02*
X11238809Y-8601714D01*
X11238809Y-8601714D02*
X11248333Y-8563619D01*
X11248333Y-8563619D02*
X11257857Y-8544571D01*
X11257857Y-8544571D02*
X11267381Y-8535048D01*
X11267381Y-8535048D02*
X11286428Y-8525524D01*
X11476905Y-8525524D02*
X11495952Y-8525524D01*
X11495952Y-8525524D02*
X11515000Y-8535048D01*
X11515000Y-8535048D02*
X11524524Y-8544571D01*
X11524524Y-8544571D02*
X11534048Y-8563619D01*
X11534048Y-8563619D02*
X11543571Y-8601714D01*
X11543571Y-8601714D02*
X11543571Y-8649333D01*
X11543571Y-8649333D02*
X11534048Y-8687429D01*
X11534048Y-8687429D02*
X11524524Y-8706476D01*
X11524524Y-8706476D02*
X11515000Y-8716000D01*
X11515000Y-8716000D02*
X11495952Y-8725524D01*
X11495952Y-8725524D02*
X11476905Y-8725524D01*
X11476905Y-8725524D02*
X11457857Y-8716000D01*
X11457857Y-8716000D02*
X11448333Y-8706476D01*
X11448333Y-8706476D02*
X11438809Y-8687429D01*
X11438809Y-8687429D02*
X11429286Y-8649333D01*
X11429286Y-8649333D02*
X11429286Y-8601714D01*
X11429286Y-8601714D02*
X11438809Y-8563619D01*
X11438809Y-8563619D02*
X11448333Y-8544571D01*
X11448333Y-8544571D02*
X11457857Y-8535048D01*
X11457857Y-8535048D02*
X11476905Y-8525524D01*
X11667381Y-8525524D02*
X11686429Y-8525524D01*
X11686429Y-8525524D02*
X11705476Y-8535048D01*
X11705476Y-8535048D02*
X11715000Y-8544571D01*
X11715000Y-8544571D02*
X11724524Y-8563619D01*
X11724524Y-8563619D02*
X11734048Y-8601714D01*
X11734048Y-8601714D02*
X11734048Y-8649333D01*
X11734048Y-8649333D02*
X11724524Y-8687429D01*
X11724524Y-8687429D02*
X11715000Y-8706476D01*
X11715000Y-8706476D02*
X11705476Y-8716000D01*
X11705476Y-8716000D02*
X11686429Y-8725524D01*
X11686429Y-8725524D02*
X11667381Y-8725524D01*
X11667381Y-8725524D02*
X11648333Y-8716000D01*
X11648333Y-8716000D02*
X11638809Y-8706476D01*
X11638809Y-8706476D02*
X11629286Y-8687429D01*
X11629286Y-8687429D02*
X11619762Y-8649333D01*
X11619762Y-8649333D02*
X11619762Y-8601714D01*
X11619762Y-8601714D02*
X11629286Y-8563619D01*
X11629286Y-8563619D02*
X11638809Y-8544571D01*
X11638809Y-8544571D02*
X11648333Y-8535048D01*
X11648333Y-8535048D02*
X11667381Y-8525524D01*
X11819762Y-8725524D02*
X11819762Y-8592190D01*
X11819762Y-8611238D02*
X11829286Y-8601714D01*
X11829286Y-8601714D02*
X11848333Y-8592190D01*
X11848333Y-8592190D02*
X11876905Y-8592190D01*
X11876905Y-8592190D02*
X11895952Y-8601714D01*
X11895952Y-8601714D02*
X11905476Y-8620762D01*
X11905476Y-8620762D02*
X11905476Y-8725524D01*
X11905476Y-8620762D02*
X11915000Y-8601714D01*
X11915000Y-8601714D02*
X11934048Y-8592190D01*
X11934048Y-8592190D02*
X11962619Y-8592190D01*
X11962619Y-8592190D02*
X11981667Y-8601714D01*
X11981667Y-8601714D02*
X11991190Y-8620762D01*
X11991190Y-8620762D02*
X11991190Y-8725524D01*
X12086429Y-8725524D02*
X12086429Y-8592190D01*
X12086429Y-8611238D02*
X12095952Y-8601714D01*
X12095952Y-8601714D02*
X12115000Y-8592190D01*
X12115000Y-8592190D02*
X12143571Y-8592190D01*
X12143571Y-8592190D02*
X12162619Y-8601714D01*
X12162619Y-8601714D02*
X12172143Y-8620762D01*
X12172143Y-8620762D02*
X12172143Y-8725524D01*
X12172143Y-8620762D02*
X12181667Y-8601714D01*
X12181667Y-8601714D02*
X12200714Y-8592190D01*
X12200714Y-8592190D02*
X12229286Y-8592190D01*
X12229286Y-8592190D02*
X12248333Y-8601714D01*
X12248333Y-8601714D02*
X12257857Y-8620762D01*
X12257857Y-8620762D02*
X12257857Y-8725524D01*
X12648333Y-8516000D02*
X12476905Y-8773143D01*
X12905476Y-8525524D02*
X12924524Y-8525524D01*
X12924524Y-8525524D02*
X12943572Y-8535048D01*
X12943572Y-8535048D02*
X12953095Y-8544571D01*
X12953095Y-8544571D02*
X12962619Y-8563619D01*
X12962619Y-8563619D02*
X12972143Y-8601714D01*
X12972143Y-8601714D02*
X12972143Y-8649333D01*
X12972143Y-8649333D02*
X12962619Y-8687429D01*
X12962619Y-8687429D02*
X12953095Y-8706476D01*
X12953095Y-8706476D02*
X12943572Y-8716000D01*
X12943572Y-8716000D02*
X12924524Y-8725524D01*
X12924524Y-8725524D02*
X12905476Y-8725524D01*
X12905476Y-8725524D02*
X12886429Y-8716000D01*
X12886429Y-8716000D02*
X12876905Y-8706476D01*
X12876905Y-8706476D02*
X12867381Y-8687429D01*
X12867381Y-8687429D02*
X12857857Y-8649333D01*
X12857857Y-8649333D02*
X12857857Y-8601714D01*
X12857857Y-8601714D02*
X12867381Y-8563619D01*
X12867381Y-8563619D02*
X12876905Y-8544571D01*
X12876905Y-8544571D02*
X12886429Y-8535048D01*
X12886429Y-8535048D02*
X12905476Y-8525524D01*
X13057857Y-8706476D02*
X13067381Y-8716000D01*
X13067381Y-8716000D02*
X13057857Y-8725524D01*
X13057857Y-8725524D02*
X13048333Y-8716000D01*
X13048333Y-8716000D02*
X13057857Y-8706476D01*
X13057857Y-8706476D02*
X13057857Y-8725524D01*
X13191191Y-8525524D02*
X13210238Y-8525524D01*
X13210238Y-8525524D02*
X13229286Y-8535048D01*
X13229286Y-8535048D02*
X13238810Y-8544571D01*
X13238810Y-8544571D02*
X13248333Y-8563619D01*
X13248333Y-8563619D02*
X13257857Y-8601714D01*
X13257857Y-8601714D02*
X13257857Y-8649333D01*
X13257857Y-8649333D02*
X13248333Y-8687429D01*
X13248333Y-8687429D02*
X13238810Y-8706476D01*
X13238810Y-8706476D02*
X13229286Y-8716000D01*
X13229286Y-8716000D02*
X13210238Y-8725524D01*
X13210238Y-8725524D02*
X13191191Y-8725524D01*
X13191191Y-8725524D02*
X13172143Y-8716000D01*
X13172143Y-8716000D02*
X13162619Y-8706476D01*
X13162619Y-8706476D02*
X13153095Y-8687429D01*
X13153095Y-8687429D02*
X13143572Y-8649333D01*
X13143572Y-8649333D02*
X13143572Y-8601714D01*
X13143572Y-8601714D02*
X13153095Y-8563619D01*
X13153095Y-8563619D02*
X13162619Y-8544571D01*
X13162619Y-8544571D02*
X13172143Y-8535048D01*
X13172143Y-8535048D02*
X13191191Y-8525524D01*
X13324524Y-8525524D02*
X13448333Y-8525524D01*
X13448333Y-8525524D02*
X13381667Y-8601714D01*
X13381667Y-8601714D02*
X13410238Y-8601714D01*
X13410238Y-8601714D02*
X13429286Y-8611238D01*
X13429286Y-8611238D02*
X13438810Y-8620762D01*
X13438810Y-8620762D02*
X13448333Y-8639810D01*
X13448333Y-8639810D02*
X13448333Y-8687429D01*
X13448333Y-8687429D02*
X13438810Y-8706476D01*
X13438810Y-8706476D02*
X13429286Y-8716000D01*
X13429286Y-8716000D02*
X13410238Y-8725524D01*
X13410238Y-8725524D02*
X13353095Y-8725524D01*
X13353095Y-8725524D02*
X13334048Y-8716000D01*
X13334048Y-8716000D02*
X13324524Y-8706476D01*
X13543572Y-8725524D02*
X13581667Y-8725524D01*
X13581667Y-8725524D02*
X13600714Y-8716000D01*
X13600714Y-8716000D02*
X13610238Y-8706476D01*
X13610238Y-8706476D02*
X13629286Y-8677905D01*
X13629286Y-8677905D02*
X13638810Y-8639810D01*
X13638810Y-8639810D02*
X13638810Y-8563619D01*
X13638810Y-8563619D02*
X13629286Y-8544571D01*
X13629286Y-8544571D02*
X13619762Y-8535048D01*
X13619762Y-8535048D02*
X13600714Y-8525524D01*
X13600714Y-8525524D02*
X13562619Y-8525524D01*
X13562619Y-8525524D02*
X13543572Y-8535048D01*
X13543572Y-8535048D02*
X13534048Y-8544571D01*
X13534048Y-8544571D02*
X13524524Y-8563619D01*
X13524524Y-8563619D02*
X13524524Y-8611238D01*
X13524524Y-8611238D02*
X13534048Y-8630286D01*
X13534048Y-8630286D02*
X13543572Y-8639810D01*
X13543572Y-8639810D02*
X13562619Y-8649333D01*
X13562619Y-8649333D02*
X13600714Y-8649333D01*
X13600714Y-8649333D02*
X13619762Y-8639810D01*
X13619762Y-8639810D02*
X13629286Y-8630286D01*
X13629286Y-8630286D02*
X13638810Y-8611238D01*
X13810238Y-8592190D02*
X13810238Y-8725524D01*
X13762619Y-8516000D02*
X13715000Y-8658857D01*
X13715000Y-8658857D02*
X13838810Y-8658857D01*
X13905476Y-8525524D02*
X13905476Y-8563619D01*
X13981667Y-8525524D02*
X13981667Y-8563619D01*
X14276905Y-8801714D02*
X14267381Y-8792190D01*
X14267381Y-8792190D02*
X14248334Y-8763619D01*
X14248334Y-8763619D02*
X14238810Y-8744571D01*
X14238810Y-8744571D02*
X14229286Y-8716000D01*
X14229286Y-8716000D02*
X14219762Y-8668381D01*
X14219762Y-8668381D02*
X14219762Y-8630286D01*
X14219762Y-8630286D02*
X14229286Y-8582667D01*
X14229286Y-8582667D02*
X14238810Y-8554095D01*
X14238810Y-8554095D02*
X14248334Y-8535048D01*
X14248334Y-8535048D02*
X14267381Y-8506476D01*
X14267381Y-8506476D02*
X14276905Y-8496952D01*
X14438810Y-8592190D02*
X14438810Y-8725524D01*
X14391191Y-8516000D02*
X14343572Y-8658857D01*
X14343572Y-8658857D02*
X14467381Y-8658857D01*
X14695953Y-8725524D02*
X14695953Y-8525524D01*
X14781667Y-8725524D02*
X14781667Y-8620762D01*
X14781667Y-8620762D02*
X14772143Y-8601714D01*
X14772143Y-8601714D02*
X14753096Y-8592190D01*
X14753096Y-8592190D02*
X14724524Y-8592190D01*
X14724524Y-8592190D02*
X14705476Y-8601714D01*
X14705476Y-8601714D02*
X14695953Y-8611238D01*
X14905476Y-8725524D02*
X14886429Y-8716000D01*
X14886429Y-8716000D02*
X14876905Y-8706476D01*
X14876905Y-8706476D02*
X14867381Y-8687429D01*
X14867381Y-8687429D02*
X14867381Y-8630286D01*
X14867381Y-8630286D02*
X14876905Y-8611238D01*
X14876905Y-8611238D02*
X14886429Y-8601714D01*
X14886429Y-8601714D02*
X14905476Y-8592190D01*
X14905476Y-8592190D02*
X14934048Y-8592190D01*
X14934048Y-8592190D02*
X14953096Y-8601714D01*
X14953096Y-8601714D02*
X14962619Y-8611238D01*
X14962619Y-8611238D02*
X14972143Y-8630286D01*
X14972143Y-8630286D02*
X14972143Y-8687429D01*
X14972143Y-8687429D02*
X14962619Y-8706476D01*
X14962619Y-8706476D02*
X14953096Y-8716000D01*
X14953096Y-8716000D02*
X14934048Y-8725524D01*
X14934048Y-8725524D02*
X14905476Y-8725524D01*
X15086429Y-8725524D02*
X15067381Y-8716000D01*
X15067381Y-8716000D02*
X15057857Y-8696952D01*
X15057857Y-8696952D02*
X15057857Y-8525524D01*
X15238810Y-8716000D02*
X15219762Y-8725524D01*
X15219762Y-8725524D02*
X15181667Y-8725524D01*
X15181667Y-8725524D02*
X15162619Y-8716000D01*
X15162619Y-8716000D02*
X15153096Y-8696952D01*
X15153096Y-8696952D02*
X15153096Y-8620762D01*
X15153096Y-8620762D02*
X15162619Y-8601714D01*
X15162619Y-8601714D02*
X15181667Y-8592190D01*
X15181667Y-8592190D02*
X15219762Y-8592190D01*
X15219762Y-8592190D02*
X15238810Y-8601714D01*
X15238810Y-8601714D02*
X15248334Y-8620762D01*
X15248334Y-8620762D02*
X15248334Y-8639810D01*
X15248334Y-8639810D02*
X15153096Y-8658857D01*
X15324524Y-8716000D02*
X15343572Y-8725524D01*
X15343572Y-8725524D02*
X15381667Y-8725524D01*
X15381667Y-8725524D02*
X15400715Y-8716000D01*
X15400715Y-8716000D02*
X15410238Y-8696952D01*
X15410238Y-8696952D02*
X15410238Y-8687429D01*
X15410238Y-8687429D02*
X15400715Y-8668381D01*
X15400715Y-8668381D02*
X15381667Y-8658857D01*
X15381667Y-8658857D02*
X15353096Y-8658857D01*
X15353096Y-8658857D02*
X15334048Y-8649333D01*
X15334048Y-8649333D02*
X15324524Y-8630286D01*
X15324524Y-8630286D02*
X15324524Y-8620762D01*
X15324524Y-8620762D02*
X15334048Y-8601714D01*
X15334048Y-8601714D02*
X15353096Y-8592190D01*
X15353096Y-8592190D02*
X15381667Y-8592190D01*
X15381667Y-8592190D02*
X15400715Y-8601714D01*
X15476905Y-8801714D02*
X15486429Y-8792190D01*
X15486429Y-8792190D02*
X15505477Y-8763619D01*
X15505477Y-8763619D02*
X15515000Y-8744571D01*
X15515000Y-8744571D02*
X15524524Y-8716000D01*
X15524524Y-8716000D02*
X15534048Y-8668381D01*
X15534048Y-8668381D02*
X15534048Y-8630286D01*
X15534048Y-8630286D02*
X15524524Y-8582667D01*
X15524524Y-8582667D02*
X15515000Y-8554095D01*
X15515000Y-8554095D02*
X15505477Y-8535048D01*
X15505477Y-8535048D02*
X15486429Y-8506476D01*
X15486429Y-8506476D02*
X15476905Y-8496952D01*
M02*
