%TF.GenerationSoftware,KiCad,Pcbnew,7.0.7-7.0.7~ubuntu22.04.1*%
%TF.CreationDate,2023-08-16T12:18:28+03:00*%
%TF.ProjectId,xray-v2,78726179-2d76-4322-9e6b-696361645f70,rev?*%
%TF.SameCoordinates,Original*%
%TF.FileFunction,Soldermask,Top*%
%TF.FilePolarity,Negative*%
%FSLAX46Y46*%
G04 Gerber Fmt 4.6, Leading zero omitted, Abs format (unit mm)*
G04 Created by KiCad (PCBNEW 7.0.7-7.0.7~ubuntu22.04.1) date 2023-08-16 12:18:28*
%MOMM*%
%LPD*%
G01*
G04 APERTURE LIST*
G04 Aperture macros list*
%AMRoundRect*
0 Rectangle with rounded corners*
0 $1 Rounding radius*
0 $2 $3 $4 $5 $6 $7 $8 $9 X,Y pos of 4 corners*
0 Add a 4 corners polygon primitive as box body*
4,1,4,$2,$3,$4,$5,$6,$7,$8,$9,$2,$3,0*
0 Add four circle primitives for the rounded corners*
1,1,$1+$1,$2,$3*
1,1,$1+$1,$4,$5*
1,1,$1+$1,$6,$7*
1,1,$1+$1,$8,$9*
0 Add four rect primitives between the rounded corners*
20,1,$1+$1,$2,$3,$4,$5,0*
20,1,$1+$1,$4,$5,$6,$7,0*
20,1,$1+$1,$6,$7,$8,$9,0*
20,1,$1+$1,$8,$9,$2,$3,0*%
%AMFreePoly0*
4,1,6,1.000000,0.000000,0.500000,-0.750000,-0.500000,-0.750000,-0.500000,0.750000,0.500000,0.750000,1.000000,0.000000,1.000000,0.000000,$1*%
%AMFreePoly1*
4,1,6,0.500000,-0.750000,-0.650000,-0.750000,-0.150000,0.000000,-0.650000,0.750000,0.500000,0.750000,0.500000,-0.750000,0.500000,-0.750000,$1*%
G04 Aperture macros list end*
%ADD10RoundRect,0.250000X0.600000X-0.400000X0.600000X0.400000X-0.600000X0.400000X-0.600000X-0.400000X0*%
%ADD11RoundRect,0.250000X-1.000000X-0.650000X1.000000X-0.650000X1.000000X0.650000X-1.000000X0.650000X0*%
%ADD12RoundRect,0.150000X-0.587500X-0.150000X0.587500X-0.150000X0.587500X0.150000X-0.587500X0.150000X0*%
%ADD13RoundRect,0.250000X0.450000X-0.262500X0.450000X0.262500X-0.450000X0.262500X-0.450000X-0.262500X0*%
%ADD14RoundRect,0.952500X-0.952500X1.167500X-0.952500X-1.167500X0.952500X-1.167500X0.952500X1.167500X0*%
%ADD15RoundRect,0.225000X0.225000X0.250000X-0.225000X0.250000X-0.225000X-0.250000X0.225000X-0.250000X0*%
%ADD16C,2.200000*%
%ADD17RoundRect,0.150000X-0.150000X0.587500X-0.150000X-0.587500X0.150000X-0.587500X0.150000X0.587500X0*%
%ADD18RoundRect,0.225000X-0.250000X0.225000X-0.250000X-0.225000X0.250000X-0.225000X0.250000X0.225000X0*%
%ADD19R,2.000000X2.000000*%
%ADD20C,2.000000*%
%ADD21C,3.200000*%
%ADD22RoundRect,0.150000X0.587500X0.150000X-0.587500X0.150000X-0.587500X-0.150000X0.587500X-0.150000X0*%
%ADD23FreePoly0,0.000000*%
%ADD24FreePoly1,0.000000*%
%ADD25RoundRect,0.100000X0.712500X0.100000X-0.712500X0.100000X-0.712500X-0.100000X0.712500X-0.100000X0*%
%ADD26RoundRect,0.250000X-0.450000X0.262500X-0.450000X-0.262500X0.450000X-0.262500X0.450000X0.262500X0*%
%ADD27R,1.800000X1.800000*%
%ADD28C,1.800000*%
%ADD29RoundRect,0.250000X-1.100000X0.325000X-1.100000X-0.325000X1.100000X-0.325000X1.100000X0.325000X0*%
%ADD30RoundRect,1.025000X1.025000X1.025000X-1.025000X1.025000X-1.025000X-1.025000X1.025000X-1.025000X0*%
%ADD31R,1.524000X1.524000*%
%ADD32C,1.524000*%
%ADD33C,3.500000*%
%ADD34C,3.000000*%
%ADD35R,1.600000X1.600000*%
%ADD36C,1.600000*%
%ADD37R,1.000000X1.000000*%
%ADD38RoundRect,0.225000X0.250000X-0.225000X0.250000X0.225000X-0.250000X0.225000X-0.250000X-0.225000X0*%
%ADD39RoundRect,0.225000X-0.225000X-0.250000X0.225000X-0.250000X0.225000X0.250000X-0.225000X0.250000X0*%
%ADD40RoundRect,0.250001X-0.899999X0.899999X-0.899999X-0.899999X0.899999X-0.899999X0.899999X0.899999X0*%
%ADD41C,2.300000*%
%ADD42C,1.500000*%
%ADD43R,0.450000X1.050000*%
%ADD44O,1.400000X2.300000*%
%ADD45RoundRect,0.250000X1.075000X-0.375000X1.075000X0.375000X-1.075000X0.375000X-1.075000X-0.375000X0*%
%ADD46RoundRect,0.150000X0.150000X-0.587500X0.150000X0.587500X-0.150000X0.587500X-0.150000X-0.587500X0*%
%ADD47C,1.400000*%
%ADD48RoundRect,0.250001X0.799999X-0.799999X0.799999X0.799999X-0.799999X0.799999X-0.799999X-0.799999X0*%
%ADD49C,2.100000*%
%ADD50C,1.700000*%
%ADD51FreePoly0,270.000000*%
%ADD52FreePoly1,270.000000*%
%ADD53RoundRect,0.250000X0.600000X-0.600000X0.600000X0.600000X-0.600000X0.600000X-0.600000X-0.600000X0*%
%ADD54R,1.700000X1.700000*%
%ADD55O,1.700000X1.700000*%
%ADD56RoundRect,0.250000X0.312500X0.625000X-0.312500X0.625000X-0.312500X-0.625000X0.312500X-0.625000X0*%
%ADD57RoundRect,0.062500X-0.062500X0.350000X-0.062500X-0.350000X0.062500X-0.350000X0.062500X0.350000X0*%
%ADD58RoundRect,0.062500X-0.350000X0.062500X-0.350000X-0.062500X0.350000X-0.062500X0.350000X0.062500X0*%
%ADD59R,4.600000X4.600000*%
%ADD60R,1.160000X0.600000*%
%ADD61R,1.160000X0.300000*%
%ADD62O,2.000000X1.200000*%
%ADD63O,2.400000X1.000000*%
%ADD64RoundRect,0.150000X0.825000X0.150000X-0.825000X0.150000X-0.825000X-0.150000X0.825000X-0.150000X0*%
%ADD65R,1.600000X0.550000*%
%ADD66R,0.550000X1.600000*%
%ADD67R,0.250000X0.750000*%
%ADD68R,1.050000X0.450000*%
%ADD69O,2.300000X1.400000*%
%ADD70RoundRect,0.250000X-0.262500X-0.450000X0.262500X-0.450000X0.262500X0.450000X-0.262500X0.450000X0*%
%ADD71RoundRect,0.250000X0.262500X0.450000X-0.262500X0.450000X-0.262500X-0.450000X0.262500X-0.450000X0*%
%ADD72RoundRect,0.150000X0.150000X-0.825000X0.150000X0.825000X-0.150000X0.825000X-0.150000X-0.825000X0*%
%ADD73RoundRect,0.250001X0.899999X-0.899999X0.899999X0.899999X-0.899999X0.899999X-0.899999X-0.899999X0*%
%ADD74RoundRect,0.250001X-0.799999X0.799999X-0.799999X-0.799999X0.799999X-0.799999X0.799999X0.799999X0*%
%ADD75R,2.000000X4.500000*%
%ADD76O,1.400000X1.400000*%
%ADD77C,5.000000*%
%ADD78R,2.800000X2.800000*%
%ADD79O,2.800000X2.800000*%
G04 APERTURE END LIST*
D10*
%TO.C,D2*%
X183000000Y-124850000D03*
X183000000Y-121350000D03*
%TD*%
D11*
%TO.C,D1*%
X186100000Y-120500000D03*
X190100000Y-120500000D03*
%TD*%
D12*
%TO.C,Q6*%
X144562500Y-100137500D03*
X144562500Y-102037500D03*
X146437500Y-101087500D03*
%TD*%
D13*
%TO.C,R24*%
X194800000Y-112612500D03*
X194800000Y-110787500D03*
%TD*%
D14*
%TO.C,F1*%
X192200000Y-98540000D03*
X192200000Y-104950000D03*
%TD*%
D15*
%TO.C,C37*%
X189775000Y-114600000D03*
X188225000Y-114600000D03*
%TD*%
D16*
%TO.C,H4*%
X241000000Y-83000000D03*
%TD*%
D17*
%TO.C,Q14*%
X200750000Y-130662500D03*
X198850000Y-130662500D03*
X199800000Y-132537500D03*
%TD*%
D18*
%TO.C,C35*%
X149600000Y-111725000D03*
X149600000Y-113275000D03*
%TD*%
D13*
%TO.C,R31*%
X135900000Y-127012500D03*
X135900000Y-125187500D03*
%TD*%
D12*
%TO.C,Q13*%
X179500000Y-99600000D03*
X179500000Y-101500000D03*
X181375000Y-100550000D03*
%TD*%
D19*
%TO.C,SW3*%
X158500000Y-97500000D03*
D20*
X158500000Y-102500000D03*
X158500000Y-100000000D03*
D21*
X166000000Y-94400000D03*
X166000000Y-105600000D03*
D20*
X173000000Y-102500000D03*
X173000000Y-97500000D03*
%TD*%
D22*
%TO.C,Q9*%
X113187500Y-100950000D03*
X113187500Y-99050000D03*
X111312500Y-100000000D03*
%TD*%
D23*
%TO.C,JP2*%
X179575000Y-127100000D03*
D24*
X181025000Y-127100000D03*
%TD*%
D18*
%TO.C,C26*%
X221500000Y-113725000D03*
X221500000Y-115275000D03*
%TD*%
D25*
%TO.C,U8*%
X191112500Y-112775000D03*
X191112500Y-112125000D03*
X191112500Y-111475000D03*
X191112500Y-110825000D03*
X186887500Y-110825000D03*
X186887500Y-111475000D03*
X186887500Y-112125000D03*
X186887500Y-112775000D03*
%TD*%
D26*
%TO.C,R1*%
X199600000Y-75512500D03*
X199600000Y-77337500D03*
%TD*%
D27*
%TO.C,D8*%
X154125000Y-131600000D03*
D28*
X156665000Y-131600000D03*
%TD*%
D29*
%TO.C,C3*%
X203000000Y-69850000D03*
X203000000Y-72800000D03*
%TD*%
D30*
%TO.C,L1*%
X206800000Y-112700000D03*
X206800000Y-103100000D03*
%TD*%
D16*
%TO.C,C12*%
X164900000Y-82700000D03*
X164900000Y-67700000D03*
%TD*%
D28*
%TO.C,T1*%
X187000000Y-68825000D03*
X187000000Y-81825000D03*
X173000000Y-81825000D03*
X173000000Y-68825000D03*
%TD*%
D13*
%TO.C,R33*%
X176607500Y-101462500D03*
X176607500Y-99637500D03*
%TD*%
D26*
%TO.C,R28*%
X115500000Y-99175000D03*
X115500000Y-101000000D03*
%TD*%
D13*
%TO.C,R23*%
X197000000Y-112612500D03*
X197000000Y-110787500D03*
%TD*%
D31*
%TO.C,J3*%
X233272500Y-127900000D03*
D32*
X233272500Y-125400000D03*
X233272500Y-123400000D03*
X233272500Y-120900000D03*
D33*
X235982500Y-131650000D03*
X235982500Y-117150000D03*
%TD*%
D34*
%TO.C,TP1*%
X161800000Y-132400000D03*
%TD*%
D16*
%TO.C,H3*%
X143000000Y-113000000D03*
%TD*%
D29*
%TO.C,C16*%
X215500000Y-112425000D03*
X215500000Y-115375000D03*
%TD*%
D35*
%TO.C,C42*%
X153500000Y-125794888D03*
D36*
X153500000Y-128294888D03*
%TD*%
D37*
%TO.C,TP2*%
X181900000Y-88800000D03*
%TD*%
D38*
%TO.C,C31*%
X175000000Y-117175000D03*
X175000000Y-115625000D03*
%TD*%
D39*
%TO.C,C30*%
X223725000Y-106100000D03*
X225275000Y-106100000D03*
%TD*%
D37*
%TO.C,TP5*%
X224400000Y-121200000D03*
%TD*%
D13*
%TO.C,R3*%
X236200000Y-84412500D03*
X236200000Y-82587500D03*
%TD*%
D16*
%TO.C,H7*%
X149000000Y-94000000D03*
%TD*%
D13*
%TO.C,R2*%
X241025000Y-104692500D03*
X241025000Y-102867500D03*
%TD*%
D18*
%TO.C,C24*%
X218500000Y-113725000D03*
X218500000Y-115275000D03*
%TD*%
D12*
%TO.C,Q1*%
X203062500Y-75375000D03*
X203062500Y-77275000D03*
X204937500Y-76325000D03*
%TD*%
D13*
%TO.C,R19*%
X142000000Y-101912500D03*
X142000000Y-100087500D03*
%TD*%
D22*
%TO.C,Q11*%
X133537500Y-127150000D03*
X133537500Y-125250000D03*
X131662500Y-126200000D03*
%TD*%
D40*
%TO.C,M1*%
X204500000Y-126900000D03*
D41*
X204500000Y-131700000D03*
%TD*%
D35*
%TO.C,C11*%
X216600000Y-94152651D03*
D36*
X216600000Y-90652651D03*
%TD*%
D34*
%TO.C,U9*%
X102600000Y-131700000D03*
X137600000Y-131700000D03*
X102600000Y-69300000D03*
X137600000Y-69300000D03*
D42*
X109600000Y-132700000D03*
X112140000Y-132700000D03*
X114680000Y-132700000D03*
X117220000Y-132700000D03*
X119760000Y-132700000D03*
X122300000Y-132700000D03*
X124840000Y-132700000D03*
X127380000Y-132700000D03*
X129920000Y-132700000D03*
%TD*%
D43*
%TO.C,J1*%
X187600497Y-129220000D03*
X188250497Y-129220000D03*
X188900497Y-129220000D03*
X189550497Y-129220000D03*
X190200497Y-129220000D03*
D44*
X184050497Y-129445000D03*
X184050497Y-132745000D03*
X193750497Y-129445000D03*
X193750497Y-132745000D03*
%TD*%
D26*
%TO.C,R20*%
X146500000Y-104087500D03*
X146500000Y-105912500D03*
%TD*%
D45*
%TO.C,L2*%
X179300000Y-116700000D03*
X179300000Y-113900000D03*
%TD*%
D12*
%TO.C,Q10*%
X157562500Y-126050000D03*
X157562500Y-127950000D03*
X159437500Y-127000000D03*
%TD*%
D39*
%TO.C,C32*%
X158925000Y-115100000D03*
X160475000Y-115100000D03*
%TD*%
D16*
%TO.C,C14*%
X154900000Y-67700000D03*
X154900000Y-82700000D03*
%TD*%
D37*
%TO.C,TP4*%
X199700000Y-112500000D03*
%TD*%
D46*
%TO.C,Q5*%
X184962500Y-87737500D03*
X186862500Y-87737500D03*
X185912500Y-85862500D03*
%TD*%
D47*
%TO.C,JP1*%
X194000000Y-81350000D03*
X194000000Y-78810000D03*
%TD*%
D48*
%TO.C,D7*%
X102500000Y-107400000D03*
D49*
X102500000Y-102800000D03*
%TD*%
D16*
%TO.C,SW2*%
X148950000Y-129100000D03*
X141950000Y-129100000D03*
D50*
X147700000Y-131600000D03*
X143200000Y-131600000D03*
%TD*%
D38*
%TO.C,C36*%
X149600000Y-120275000D03*
X149600000Y-118725000D03*
%TD*%
D51*
%TO.C,JP3*%
X190900000Y-123975000D03*
D52*
X190900000Y-125425000D03*
%TD*%
D53*
%TO.C,BT1*%
X197000000Y-104900000D03*
D50*
X197000000Y-100900000D03*
%TD*%
D13*
%TO.C,R8*%
X204700000Y-94712500D03*
X204700000Y-92887500D03*
%TD*%
D16*
%TO.C,C17*%
X144900000Y-82700000D03*
X144900000Y-67700000D03*
%TD*%
D29*
%TO.C,C20*%
X209050000Y-116525000D03*
X209050000Y-119475000D03*
%TD*%
D54*
%TO.C,J5*%
X176075000Y-130525000D03*
D55*
X176075000Y-133065000D03*
X173535000Y-130525000D03*
X173535000Y-133065000D03*
X170995000Y-130525000D03*
X170995000Y-133065000D03*
X168455000Y-130525000D03*
X168455000Y-133065000D03*
X165915000Y-130525000D03*
X165915000Y-133065000D03*
%TD*%
D56*
%TO.C,R16*%
X221362500Y-111400000D03*
X218437500Y-111400000D03*
%TD*%
%TO.C,R30*%
X108962500Y-103250000D03*
X106037500Y-103250000D03*
%TD*%
D38*
%TO.C,C19*%
X215200000Y-103475000D03*
X215200000Y-101925000D03*
%TD*%
D57*
%TO.C,U3*%
X223350000Y-98262500D03*
X222850000Y-98262500D03*
X222350000Y-98262500D03*
X221850000Y-98262500D03*
X221350000Y-98262500D03*
X220850000Y-98262500D03*
X220350000Y-98262500D03*
X219850000Y-98262500D03*
X219350000Y-98262500D03*
X218850000Y-98262500D03*
D58*
X218162500Y-98950000D03*
X218162500Y-99450000D03*
X218162500Y-99950000D03*
X218162500Y-100450000D03*
X218162500Y-100950000D03*
X218162500Y-101450000D03*
X218162500Y-101950000D03*
X218162500Y-102450000D03*
X218162500Y-102950000D03*
X218162500Y-103450000D03*
D57*
X218850000Y-104137500D03*
X219350000Y-104137500D03*
X219850000Y-104137500D03*
X220350000Y-104137500D03*
X220850000Y-104137500D03*
X221350000Y-104137500D03*
X221850000Y-104137500D03*
X222350000Y-104137500D03*
X222850000Y-104137500D03*
X223350000Y-104137500D03*
D58*
X224037500Y-103450000D03*
X224037500Y-102950000D03*
X224037500Y-102450000D03*
X224037500Y-101950000D03*
X224037500Y-101450000D03*
X224037500Y-100950000D03*
X224037500Y-100450000D03*
X224037500Y-99950000D03*
X224037500Y-99450000D03*
X224037500Y-98950000D03*
D59*
X221100000Y-101200000D03*
%TD*%
D60*
%TO.C,J4*%
X237110000Y-76600000D03*
X237110000Y-75800000D03*
D61*
X237110000Y-74650000D03*
X237110000Y-73650000D03*
X237110000Y-73150000D03*
X237110000Y-72150000D03*
D60*
X237110000Y-71000000D03*
X237110000Y-70200000D03*
X237110000Y-70200000D03*
X237110000Y-71000000D03*
D61*
X237110000Y-71650000D03*
X237110000Y-72650000D03*
X237110000Y-74150000D03*
X237110000Y-75150000D03*
D60*
X237110000Y-75800000D03*
X237110000Y-76600000D03*
D62*
X237995000Y-79000000D03*
D63*
X241920000Y-79000000D03*
D62*
X237995000Y-67800000D03*
D63*
X241920000Y-67800000D03*
%TD*%
D64*
%TO.C,Q2*%
X226175000Y-131805000D03*
X226175000Y-130535000D03*
X226175000Y-129265000D03*
X226175000Y-127995000D03*
X221225000Y-127995000D03*
X221225000Y-129265000D03*
X221225000Y-130535000D03*
X221225000Y-131805000D03*
%TD*%
D35*
%TO.C,C6*%
X192000000Y-68325000D03*
D36*
X192000000Y-70825000D03*
%TD*%
D56*
%TO.C,R32*%
X182362500Y-104800000D03*
X179437500Y-104800000D03*
%TD*%
D12*
%TO.C,Q8*%
X144562500Y-125150000D03*
X144562500Y-127050000D03*
X146437500Y-126100000D03*
%TD*%
D65*
%TO.C,U4*%
X163550000Y-113950000D03*
X163550000Y-114750000D03*
X163550000Y-115550000D03*
X163550000Y-116350000D03*
X163550000Y-117150000D03*
X163550000Y-117950000D03*
X163550000Y-118750000D03*
X163550000Y-119550000D03*
D66*
X165000000Y-121000000D03*
X165800000Y-121000000D03*
X166600000Y-121000000D03*
X167400000Y-121000000D03*
X168200000Y-121000000D03*
X169000000Y-121000000D03*
X169800000Y-121000000D03*
X170600000Y-121000000D03*
D65*
X172050000Y-119550000D03*
X172050000Y-118750000D03*
X172050000Y-117950000D03*
X172050000Y-117150000D03*
X172050000Y-116350000D03*
X172050000Y-115550000D03*
X172050000Y-114750000D03*
X172050000Y-113950000D03*
D66*
X170600000Y-112500000D03*
X169800000Y-112500000D03*
X169000000Y-112500000D03*
X168200000Y-112500000D03*
X167400000Y-112500000D03*
X166600000Y-112500000D03*
X165800000Y-112500000D03*
X165000000Y-112500000D03*
%TD*%
D67*
%TO.C,U6*%
X172250000Y-124750000D03*
X171750000Y-124750000D03*
X171250000Y-124750000D03*
X170750000Y-124750000D03*
X170750000Y-127850000D03*
X171250000Y-127850000D03*
X171750000Y-127850000D03*
X172250000Y-127850000D03*
%TD*%
D16*
%TO.C,H2*%
X220000000Y-122000000D03*
%TD*%
D68*
%TO.C,J2*%
X238740000Y-93075000D03*
X238740000Y-92425000D03*
X238740000Y-91775000D03*
X238740000Y-91125000D03*
X238740000Y-90475000D03*
D69*
X238965000Y-96625000D03*
X242265000Y-96625000D03*
X238965000Y-86925000D03*
X242265000Y-86925000D03*
%TD*%
D70*
%TO.C,R34*%
X198987500Y-127270000D03*
X200812500Y-127270000D03*
%TD*%
D71*
%TO.C,R5*%
X186800000Y-90610000D03*
X184975000Y-90610000D03*
%TD*%
D70*
%TO.C,R25*%
X182787500Y-113100000D03*
X184612500Y-113100000D03*
%TD*%
D16*
%TO.C,H1*%
X222000000Y-70000000D03*
%TD*%
D72*
%TO.C,Q4*%
X230395000Y-85675000D03*
X231665000Y-85675000D03*
X232935000Y-85675000D03*
X234205000Y-85675000D03*
X234205000Y-80725000D03*
X232935000Y-80725000D03*
X231665000Y-80725000D03*
X230395000Y-80725000D03*
%TD*%
D29*
%TO.C,C28*%
X224800000Y-111925000D03*
X224800000Y-114875000D03*
%TD*%
D20*
%TO.C,C27*%
X142000000Y-92500000D03*
X142000000Y-97500000D03*
%TD*%
D29*
%TO.C,C21*%
X204800000Y-116525000D03*
X204800000Y-119475000D03*
%TD*%
D38*
%TO.C,C33*%
X176800000Y-117175000D03*
X176800000Y-115625000D03*
%TD*%
D73*
%TO.C,LS1*%
X185500000Y-104900000D03*
D41*
X185500000Y-100100000D03*
%TD*%
D74*
%TO.C,D6*%
X102500000Y-92600000D03*
D49*
X102500000Y-97200000D03*
%TD*%
D26*
%TO.C,R21*%
X182200000Y-115687500D03*
X182200000Y-117512500D03*
%TD*%
D16*
%TO.C,H6*%
X193000000Y-89000000D03*
%TD*%
D56*
%TO.C,R29*%
X108962500Y-95750000D03*
X106037500Y-95750000D03*
%TD*%
D72*
%TO.C,Q3*%
X235295000Y-106000000D03*
X236565000Y-106000000D03*
X237835000Y-106000000D03*
X239105000Y-106000000D03*
X239105000Y-101050000D03*
X237835000Y-101050000D03*
X236565000Y-101050000D03*
X235295000Y-101050000D03*
%TD*%
D71*
%TO.C,R22*%
X168512500Y-108900000D03*
X166687500Y-108900000D03*
%TD*%
D75*
%TO.C,Y1*%
X154100000Y-120250000D03*
X154100000Y-111750000D03*
%TD*%
D16*
%TO.C,H5*%
X240000000Y-111000000D03*
%TD*%
D37*
%TO.C,TP3*%
X213700000Y-108100000D03*
%TD*%
D54*
%TO.C,SW1*%
X114200000Y-67875000D03*
D55*
X111660000Y-67875000D03*
%TD*%
D47*
%TO.C,R9*%
X207800000Y-96940000D03*
D76*
X207800000Y-91860000D03*
%TD*%
D42*
%TO.C,V1*%
X113000000Y-79200000D03*
X128000000Y-92200000D03*
D77*
X120000000Y-104000000D03*
%TD*%
D78*
%TO.C,D5*%
X142639950Y-75300000D03*
D79*
X147719950Y-75300000D03*
%TD*%
M02*
