%TF.GenerationSoftware,KiCad,Pcbnew,7.0.7-7.0.7~ubuntu22.04.1*%
%TF.CreationDate,2023-08-16T12:18:28+03:00*%
%TF.ProjectId,xray-v2,78726179-2d76-4322-9e6b-696361645f70,rev?*%
%TF.SameCoordinates,Original*%
%TF.FileFunction,Paste,Bot*%
%TF.FilePolarity,Positive*%
%FSLAX46Y46*%
G04 Gerber Fmt 4.6, Leading zero omitted, Abs format (unit mm)*
G04 Created by KiCad (PCBNEW 7.0.7-7.0.7~ubuntu22.04.1) date 2023-08-16 12:18:28*
%MOMM*%
%LPD*%
G01*
G04 APERTURE LIST*
G04 Aperture macros list*
%AMRoundRect*
0 Rectangle with rounded corners*
0 $1 Rounding radius*
0 $2 $3 $4 $5 $6 $7 $8 $9 X,Y pos of 4 corners*
0 Add a 4 corners polygon primitive as box body*
4,1,4,$2,$3,$4,$5,$6,$7,$8,$9,$2,$3,0*
0 Add four circle primitives for the rounded corners*
1,1,$1+$1,$2,$3*
1,1,$1+$1,$4,$5*
1,1,$1+$1,$6,$7*
1,1,$1+$1,$8,$9*
0 Add four rect primitives between the rounded corners*
20,1,$1+$1,$2,$3,$4,$5,0*
20,1,$1+$1,$4,$5,$6,$7,0*
20,1,$1+$1,$6,$7,$8,$9,0*
20,1,$1+$1,$8,$9,$2,$3,0*%
G04 Aperture macros list end*
%ADD10R,0.250000X0.750000*%
%ADD11RoundRect,0.250000X-0.625000X0.312500X-0.625000X-0.312500X0.625000X-0.312500X0.625000X0.312500X0*%
%ADD12RoundRect,0.225000X0.225000X0.250000X-0.225000X0.250000X-0.225000X-0.250000X0.225000X-0.250000X0*%
%ADD13RoundRect,0.225000X-0.225000X-0.250000X0.225000X-0.250000X0.225000X0.250000X-0.225000X0.250000X0*%
%ADD14RoundRect,0.250000X-0.262500X-0.450000X0.262500X-0.450000X0.262500X0.450000X-0.262500X0.450000X0*%
%ADD15RoundRect,0.250000X0.262500X0.450000X-0.262500X0.450000X-0.262500X-0.450000X0.262500X-0.450000X0*%
%ADD16RoundRect,0.225000X-0.250000X0.225000X-0.250000X-0.225000X0.250000X-0.225000X0.250000X0.225000X0*%
%ADD17RoundRect,0.250000X0.450000X-0.262500X0.450000X0.262500X-0.450000X0.262500X-0.450000X-0.262500X0*%
%ADD18RoundRect,0.250000X-1.000000X-0.650000X1.000000X-0.650000X1.000000X0.650000X-1.000000X0.650000X0*%
%ADD19RoundRect,0.225000X0.250000X-0.225000X0.250000X0.225000X-0.250000X0.225000X-0.250000X-0.225000X0*%
%ADD20RoundRect,0.225000X0.225000X-0.225000X0.225000X0.225000X-0.225000X0.225000X-0.225000X-0.225000X0*%
%ADD21RoundRect,0.062500X0.062500X-0.337500X0.062500X0.337500X-0.062500X0.337500X-0.062500X-0.337500X0*%
%ADD22RoundRect,0.062500X0.337500X-0.062500X0.337500X0.062500X-0.337500X0.062500X-0.337500X-0.062500X0*%
%ADD23RoundRect,0.250000X-1.100000X0.325000X-1.100000X-0.325000X1.100000X-0.325000X1.100000X0.325000X0*%
%ADD24RoundRect,0.250000X1.100000X-0.325000X1.100000X0.325000X-1.100000X0.325000X-1.100000X-0.325000X0*%
%ADD25RoundRect,0.250000X0.312500X0.625000X-0.312500X0.625000X-0.312500X-0.625000X0.312500X-0.625000X0*%
%ADD26R,2.000000X1.500000*%
%ADD27R,2.000000X3.800000*%
%ADD28RoundRect,0.150000X0.150000X-0.587500X0.150000X0.587500X-0.150000X0.587500X-0.150000X-0.587500X0*%
%ADD29RoundRect,0.150000X-0.150000X0.587500X-0.150000X-0.587500X0.150000X-0.587500X0.150000X0.587500X0*%
%ADD30RoundRect,0.250000X-0.650000X1.000000X-0.650000X-1.000000X0.650000X-1.000000X0.650000X1.000000X0*%
G04 APERTURE END LIST*
D10*
%TO.C,U5*%
X173750000Y-124950000D03*
X174250000Y-124950000D03*
X174750000Y-124950000D03*
X175250000Y-124950000D03*
X175250000Y-128050000D03*
X174750000Y-128050000D03*
X174250000Y-128050000D03*
X173750000Y-128050000D03*
%TD*%
D11*
%TO.C,R15*%
X111000000Y-75337500D03*
X111000000Y-78262500D03*
%TD*%
D12*
%TO.C,C2*%
X236550000Y-95325000D03*
X235000000Y-95325000D03*
%TD*%
D13*
%TO.C,C34*%
X167725000Y-109500000D03*
X169275000Y-109500000D03*
%TD*%
D14*
%TO.C,R14*%
X213487500Y-105500000D03*
X215312500Y-105500000D03*
%TD*%
D15*
%TO.C,R4*%
X195912500Y-68325000D03*
X194087500Y-68325000D03*
%TD*%
D16*
%TO.C,C39*%
X161200000Y-97725000D03*
X161200000Y-99275000D03*
%TD*%
D14*
%TO.C,R7*%
X182887500Y-119400000D03*
X184712500Y-119400000D03*
%TD*%
D17*
%TO.C,R18*%
X236000000Y-112112500D03*
X236000000Y-110287500D03*
%TD*%
D18*
%TO.C,D3*%
X168000000Y-75200000D03*
X172000000Y-75200000D03*
%TD*%
D10*
%TO.C,U7*%
X167250000Y-124950000D03*
X167750000Y-124950000D03*
X168250000Y-124950000D03*
X168750000Y-124950000D03*
X168750000Y-128050000D03*
X168250000Y-128050000D03*
X167750000Y-128050000D03*
X167250000Y-128050000D03*
%TD*%
D19*
%TO.C,C7*%
X187000000Y-76100000D03*
X187000000Y-74550000D03*
%TD*%
D14*
%TO.C,R35*%
X150387500Y-131600000D03*
X152212500Y-131600000D03*
%TD*%
D20*
%TO.C,U2*%
X187880000Y-120920000D03*
X189000000Y-120920000D03*
X190120000Y-120920000D03*
X187880000Y-119800000D03*
X189000000Y-119800000D03*
X190120000Y-119800000D03*
X187880000Y-118680000D03*
X189000000Y-118680000D03*
X190120000Y-118680000D03*
D21*
X190500000Y-122250000D03*
X190000000Y-122250000D03*
X189500000Y-122250000D03*
X189000000Y-122250000D03*
X188500000Y-122250000D03*
X188000000Y-122250000D03*
X187500000Y-122250000D03*
D22*
X186550000Y-121300000D03*
X186550000Y-120800000D03*
X186550000Y-120300000D03*
X186550000Y-119800000D03*
X186550000Y-119300000D03*
X186550000Y-118800000D03*
X186550000Y-118300000D03*
D21*
X187500000Y-117350000D03*
X188000000Y-117350000D03*
X188500000Y-117350000D03*
X189000000Y-117350000D03*
X189500000Y-117350000D03*
X190000000Y-117350000D03*
X190500000Y-117350000D03*
D22*
X191450000Y-118300000D03*
X191450000Y-118800000D03*
X191450000Y-119300000D03*
X191450000Y-119800000D03*
X191450000Y-120300000D03*
X191450000Y-120800000D03*
X191450000Y-121300000D03*
%TD*%
D23*
%TO.C,C22*%
X204800000Y-116525000D03*
X204800000Y-119475000D03*
%TD*%
D14*
%TO.C,R6*%
X185587500Y-123900000D03*
X187412500Y-123900000D03*
%TD*%
D16*
%TO.C,C4*%
X235190000Y-77625000D03*
X235190000Y-79175000D03*
%TD*%
D19*
%TO.C,C38*%
X145400000Y-132675000D03*
X145400000Y-131125000D03*
%TD*%
D24*
%TO.C,C13*%
X218700000Y-93775000D03*
X218700000Y-90825000D03*
%TD*%
D19*
%TO.C,C41*%
X171100000Y-101475000D03*
X171100000Y-99925000D03*
%TD*%
D23*
%TO.C,C5*%
X196000000Y-70850000D03*
X196000000Y-73800000D03*
%TD*%
D19*
%TO.C,C9*%
X184490000Y-76100000D03*
X184490000Y-74550000D03*
%TD*%
D12*
%TO.C,C8*%
X185675000Y-127100000D03*
X184125000Y-127100000D03*
%TD*%
D25*
%TO.C,R13*%
X116462500Y-71500000D03*
X113537500Y-71500000D03*
%TD*%
D23*
%TO.C,C23*%
X209050000Y-116525000D03*
X209050000Y-119475000D03*
%TD*%
D26*
%TO.C,U1*%
X199850000Y-72625000D03*
X199850000Y-70325000D03*
D27*
X206150000Y-70325000D03*
D26*
X199850000Y-68025000D03*
%TD*%
D28*
%TO.C,Q7*%
X146250000Y-125937500D03*
X144350000Y-125937500D03*
X145300000Y-124062500D03*
%TD*%
D16*
%TO.C,C18*%
X204600000Y-93025000D03*
X204600000Y-94575000D03*
%TD*%
D13*
%TO.C,C29*%
X223725000Y-107700000D03*
X225275000Y-107700000D03*
%TD*%
D12*
%TO.C,C10*%
X187375000Y-125600000D03*
X185825000Y-125600000D03*
%TD*%
%TO.C,C25*%
X235975000Y-108600000D03*
X234425000Y-108600000D03*
%TD*%
D19*
%TO.C,C43*%
X202400000Y-130275000D03*
X202400000Y-128725000D03*
%TD*%
D14*
%TO.C,R10*%
X120487500Y-67300000D03*
X122312500Y-67300000D03*
%TD*%
D15*
%TO.C,R27*%
X149912500Y-125000000D03*
X148087500Y-125000000D03*
%TD*%
D29*
%TO.C,Q12*%
X157550000Y-126162500D03*
X159450000Y-126162500D03*
X158500000Y-128037500D03*
%TD*%
D30*
%TO.C,D4*%
X160900000Y-71200000D03*
X160900000Y-75200000D03*
%TD*%
D17*
%TO.C,R26*%
X145400000Y-129612500D03*
X145400000Y-127787500D03*
%TD*%
D24*
%TO.C,C15*%
X214450000Y-93775000D03*
X214450000Y-90825000D03*
%TD*%
D16*
%TO.C,C1*%
X230500000Y-130025000D03*
X230500000Y-131575000D03*
%TD*%
D17*
%TO.C,R17*%
X126000000Y-98825000D03*
X126000000Y-97000000D03*
%TD*%
D19*
%TO.C,C40*%
X161100000Y-102475000D03*
X161100000Y-100925000D03*
%TD*%
D25*
%TO.C,R12*%
X121462500Y-71500000D03*
X118537500Y-71500000D03*
%TD*%
%TO.C,R11*%
X126462500Y-71500000D03*
X123537500Y-71500000D03*
%TD*%
M02*
