%TF.GenerationSoftware,KiCad,Pcbnew,7.0.6-7.0.6~ubuntu22.04.1*%
%TF.CreationDate,2023-08-10T14:04:47+03:00*%
%TF.ProjectId,xray-v2,78726179-2d76-4322-9e6b-696361645f70,rev?*%
%TF.SameCoordinates,Original*%
%TF.FileFunction,Legend,Bot*%
%TF.FilePolarity,Positive*%
%FSLAX46Y46*%
G04 Gerber Fmt 4.6, Leading zero omitted, Abs format (unit mm)*
G04 Created by KiCad (PCBNEW 7.0.6-7.0.6~ubuntu22.04.1) date 2023-08-10 14:04:47*
%MOMM*%
%LPD*%
G01*
G04 APERTURE LIST*
%ADD10C,0.150000*%
%ADD11C,0.120000*%
G04 APERTURE END LIST*
D10*
X233558458Y-67669819D02*
X233034649Y-67003152D01*
X233558458Y-67003152D02*
X233034649Y-67669819D01*
X232653696Y-67669819D02*
X232653696Y-67003152D01*
X232653696Y-67193628D02*
X232606077Y-67098390D01*
X232606077Y-67098390D02*
X232558458Y-67050771D01*
X232558458Y-67050771D02*
X232463220Y-67003152D01*
X232463220Y-67003152D02*
X232367982Y-67003152D01*
X231606077Y-67669819D02*
X231606077Y-67146009D01*
X231606077Y-67146009D02*
X231653696Y-67050771D01*
X231653696Y-67050771D02*
X231748934Y-67003152D01*
X231748934Y-67003152D02*
X231939410Y-67003152D01*
X231939410Y-67003152D02*
X232034648Y-67050771D01*
X231606077Y-67622200D02*
X231701315Y-67669819D01*
X231701315Y-67669819D02*
X231939410Y-67669819D01*
X231939410Y-67669819D02*
X232034648Y-67622200D01*
X232034648Y-67622200D02*
X232082267Y-67526961D01*
X232082267Y-67526961D02*
X232082267Y-67431723D01*
X232082267Y-67431723D02*
X232034648Y-67336485D01*
X232034648Y-67336485D02*
X231939410Y-67288866D01*
X231939410Y-67288866D02*
X231701315Y-67288866D01*
X231701315Y-67288866D02*
X231606077Y-67241247D01*
X231225124Y-67003152D02*
X230987029Y-67669819D01*
X230748934Y-67003152D02*
X230987029Y-67669819D01*
X230987029Y-67669819D02*
X231082267Y-67907914D01*
X231082267Y-67907914D02*
X231129886Y-67955533D01*
X231129886Y-67955533D02*
X231225124Y-68003152D01*
X229701314Y-67003152D02*
X229463219Y-67669819D01*
X229463219Y-67669819D02*
X229225124Y-67003152D01*
X228891790Y-66765057D02*
X228844171Y-66717438D01*
X228844171Y-66717438D02*
X228748933Y-66669819D01*
X228748933Y-66669819D02*
X228510838Y-66669819D01*
X228510838Y-66669819D02*
X228415600Y-66717438D01*
X228415600Y-66717438D02*
X228367981Y-66765057D01*
X228367981Y-66765057D02*
X228320362Y-66860295D01*
X228320362Y-66860295D02*
X228320362Y-66955533D01*
X228320362Y-66955533D02*
X228367981Y-67098390D01*
X228367981Y-67098390D02*
X228939409Y-67669819D01*
X228939409Y-67669819D02*
X228320362Y-67669819D01*
X227891790Y-67574580D02*
X227844171Y-67622200D01*
X227844171Y-67622200D02*
X227891790Y-67669819D01*
X227891790Y-67669819D02*
X227939409Y-67622200D01*
X227939409Y-67622200D02*
X227891790Y-67574580D01*
X227891790Y-67574580D02*
X227891790Y-67669819D01*
X227225124Y-66669819D02*
X227129886Y-66669819D01*
X227129886Y-66669819D02*
X227034648Y-66717438D01*
X227034648Y-66717438D02*
X226987029Y-66765057D01*
X226987029Y-66765057D02*
X226939410Y-66860295D01*
X226939410Y-66860295D02*
X226891791Y-67050771D01*
X226891791Y-67050771D02*
X226891791Y-67288866D01*
X226891791Y-67288866D02*
X226939410Y-67479342D01*
X226939410Y-67479342D02*
X226987029Y-67574580D01*
X226987029Y-67574580D02*
X227034648Y-67622200D01*
X227034648Y-67622200D02*
X227129886Y-67669819D01*
X227129886Y-67669819D02*
X227225124Y-67669819D01*
X227225124Y-67669819D02*
X227320362Y-67622200D01*
X227320362Y-67622200D02*
X227367981Y-67574580D01*
X227367981Y-67574580D02*
X227415600Y-67479342D01*
X227415600Y-67479342D02*
X227463219Y-67288866D01*
X227463219Y-67288866D02*
X227463219Y-67050771D01*
X227463219Y-67050771D02*
X227415600Y-66860295D01*
X227415600Y-66860295D02*
X227367981Y-66765057D01*
X227367981Y-66765057D02*
X227320362Y-66717438D01*
X227320362Y-66717438D02*
X227225124Y-66669819D01*
X177761904Y-125954819D02*
X177761904Y-126764342D01*
X177761904Y-126764342D02*
X177714285Y-126859580D01*
X177714285Y-126859580D02*
X177666666Y-126907200D01*
X177666666Y-126907200D02*
X177571428Y-126954819D01*
X177571428Y-126954819D02*
X177380952Y-126954819D01*
X177380952Y-126954819D02*
X177285714Y-126907200D01*
X177285714Y-126907200D02*
X177238095Y-126859580D01*
X177238095Y-126859580D02*
X177190476Y-126764342D01*
X177190476Y-126764342D02*
X177190476Y-125954819D01*
X176285714Y-126288152D02*
X176285714Y-126954819D01*
X176523809Y-125907200D02*
X176761904Y-126621485D01*
X176761904Y-126621485D02*
X176142857Y-126621485D01*
X114442857Y-77254819D02*
X114776190Y-76778628D01*
X115014285Y-77254819D02*
X115014285Y-76254819D01*
X115014285Y-76254819D02*
X114633333Y-76254819D01*
X114633333Y-76254819D02*
X114538095Y-76302438D01*
X114538095Y-76302438D02*
X114490476Y-76350057D01*
X114490476Y-76350057D02*
X114442857Y-76445295D01*
X114442857Y-76445295D02*
X114442857Y-76588152D01*
X114442857Y-76588152D02*
X114490476Y-76683390D01*
X114490476Y-76683390D02*
X114538095Y-76731009D01*
X114538095Y-76731009D02*
X114633333Y-76778628D01*
X114633333Y-76778628D02*
X115014285Y-76778628D01*
X113490476Y-77254819D02*
X114061904Y-77254819D01*
X113776190Y-77254819D02*
X113776190Y-76254819D01*
X113776190Y-76254819D02*
X113871428Y-76397676D01*
X113871428Y-76397676D02*
X113966666Y-76492914D01*
X113966666Y-76492914D02*
X114061904Y-76540533D01*
X113157142Y-76254819D02*
X112538095Y-76254819D01*
X112538095Y-76254819D02*
X112871428Y-76635771D01*
X112871428Y-76635771D02*
X112728571Y-76635771D01*
X112728571Y-76635771D02*
X112633333Y-76683390D01*
X112633333Y-76683390D02*
X112585714Y-76731009D01*
X112585714Y-76731009D02*
X112538095Y-76826247D01*
X112538095Y-76826247D02*
X112538095Y-77064342D01*
X112538095Y-77064342D02*
X112585714Y-77159580D01*
X112585714Y-77159580D02*
X112633333Y-77207200D01*
X112633333Y-77207200D02*
X112728571Y-77254819D01*
X112728571Y-77254819D02*
X113014285Y-77254819D01*
X113014285Y-77254819D02*
X113109523Y-77207200D01*
X113109523Y-77207200D02*
X113157142Y-77159580D01*
X235941666Y-94254580D02*
X235989285Y-94302200D01*
X235989285Y-94302200D02*
X236132142Y-94349819D01*
X236132142Y-94349819D02*
X236227380Y-94349819D01*
X236227380Y-94349819D02*
X236370237Y-94302200D01*
X236370237Y-94302200D02*
X236465475Y-94206961D01*
X236465475Y-94206961D02*
X236513094Y-94111723D01*
X236513094Y-94111723D02*
X236560713Y-93921247D01*
X236560713Y-93921247D02*
X236560713Y-93778390D01*
X236560713Y-93778390D02*
X236513094Y-93587914D01*
X236513094Y-93587914D02*
X236465475Y-93492676D01*
X236465475Y-93492676D02*
X236370237Y-93397438D01*
X236370237Y-93397438D02*
X236227380Y-93349819D01*
X236227380Y-93349819D02*
X236132142Y-93349819D01*
X236132142Y-93349819D02*
X235989285Y-93397438D01*
X235989285Y-93397438D02*
X235941666Y-93445057D01*
X235608332Y-93349819D02*
X234989285Y-93349819D01*
X234989285Y-93349819D02*
X235322618Y-93730771D01*
X235322618Y-93730771D02*
X235179761Y-93730771D01*
X235179761Y-93730771D02*
X235084523Y-93778390D01*
X235084523Y-93778390D02*
X235036904Y-93826009D01*
X235036904Y-93826009D02*
X234989285Y-93921247D01*
X234989285Y-93921247D02*
X234989285Y-94159342D01*
X234989285Y-94159342D02*
X235036904Y-94254580D01*
X235036904Y-94254580D02*
X235084523Y-94302200D01*
X235084523Y-94302200D02*
X235179761Y-94349819D01*
X235179761Y-94349819D02*
X235465475Y-94349819D01*
X235465475Y-94349819D02*
X235560713Y-94302200D01*
X235560713Y-94302200D02*
X235608332Y-94254580D01*
X166042857Y-109759580D02*
X166090476Y-109807200D01*
X166090476Y-109807200D02*
X166233333Y-109854819D01*
X166233333Y-109854819D02*
X166328571Y-109854819D01*
X166328571Y-109854819D02*
X166471428Y-109807200D01*
X166471428Y-109807200D02*
X166566666Y-109711961D01*
X166566666Y-109711961D02*
X166614285Y-109616723D01*
X166614285Y-109616723D02*
X166661904Y-109426247D01*
X166661904Y-109426247D02*
X166661904Y-109283390D01*
X166661904Y-109283390D02*
X166614285Y-109092914D01*
X166614285Y-109092914D02*
X166566666Y-108997676D01*
X166566666Y-108997676D02*
X166471428Y-108902438D01*
X166471428Y-108902438D02*
X166328571Y-108854819D01*
X166328571Y-108854819D02*
X166233333Y-108854819D01*
X166233333Y-108854819D02*
X166090476Y-108902438D01*
X166090476Y-108902438D02*
X166042857Y-108950057D01*
X165661904Y-108950057D02*
X165614285Y-108902438D01*
X165614285Y-108902438D02*
X165519047Y-108854819D01*
X165519047Y-108854819D02*
X165280952Y-108854819D01*
X165280952Y-108854819D02*
X165185714Y-108902438D01*
X165185714Y-108902438D02*
X165138095Y-108950057D01*
X165138095Y-108950057D02*
X165090476Y-109045295D01*
X165090476Y-109045295D02*
X165090476Y-109140533D01*
X165090476Y-109140533D02*
X165138095Y-109283390D01*
X165138095Y-109283390D02*
X165709523Y-109854819D01*
X165709523Y-109854819D02*
X165090476Y-109854819D01*
X164519047Y-109283390D02*
X164614285Y-109235771D01*
X164614285Y-109235771D02*
X164661904Y-109188152D01*
X164661904Y-109188152D02*
X164709523Y-109092914D01*
X164709523Y-109092914D02*
X164709523Y-109045295D01*
X164709523Y-109045295D02*
X164661904Y-108950057D01*
X164661904Y-108950057D02*
X164614285Y-108902438D01*
X164614285Y-108902438D02*
X164519047Y-108854819D01*
X164519047Y-108854819D02*
X164328571Y-108854819D01*
X164328571Y-108854819D02*
X164233333Y-108902438D01*
X164233333Y-108902438D02*
X164185714Y-108950057D01*
X164185714Y-108950057D02*
X164138095Y-109045295D01*
X164138095Y-109045295D02*
X164138095Y-109092914D01*
X164138095Y-109092914D02*
X164185714Y-109188152D01*
X164185714Y-109188152D02*
X164233333Y-109235771D01*
X164233333Y-109235771D02*
X164328571Y-109283390D01*
X164328571Y-109283390D02*
X164519047Y-109283390D01*
X164519047Y-109283390D02*
X164614285Y-109331009D01*
X164614285Y-109331009D02*
X164661904Y-109378628D01*
X164661904Y-109378628D02*
X164709523Y-109473866D01*
X164709523Y-109473866D02*
X164709523Y-109664342D01*
X164709523Y-109664342D02*
X164661904Y-109759580D01*
X164661904Y-109759580D02*
X164614285Y-109807200D01*
X164614285Y-109807200D02*
X164519047Y-109854819D01*
X164519047Y-109854819D02*
X164328571Y-109854819D01*
X164328571Y-109854819D02*
X164233333Y-109807200D01*
X164233333Y-109807200D02*
X164185714Y-109759580D01*
X164185714Y-109759580D02*
X164138095Y-109664342D01*
X164138095Y-109664342D02*
X164138095Y-109473866D01*
X164138095Y-109473866D02*
X164185714Y-109378628D01*
X164185714Y-109378628D02*
X164233333Y-109331009D01*
X164233333Y-109331009D02*
X164328571Y-109283390D01*
X215042857Y-107604819D02*
X215376190Y-107128628D01*
X215614285Y-107604819D02*
X215614285Y-106604819D01*
X215614285Y-106604819D02*
X215233333Y-106604819D01*
X215233333Y-106604819D02*
X215138095Y-106652438D01*
X215138095Y-106652438D02*
X215090476Y-106700057D01*
X215090476Y-106700057D02*
X215042857Y-106795295D01*
X215042857Y-106795295D02*
X215042857Y-106938152D01*
X215042857Y-106938152D02*
X215090476Y-107033390D01*
X215090476Y-107033390D02*
X215138095Y-107081009D01*
X215138095Y-107081009D02*
X215233333Y-107128628D01*
X215233333Y-107128628D02*
X215614285Y-107128628D01*
X214090476Y-107604819D02*
X214661904Y-107604819D01*
X214376190Y-107604819D02*
X214376190Y-106604819D01*
X214376190Y-106604819D02*
X214471428Y-106747676D01*
X214471428Y-106747676D02*
X214566666Y-106842914D01*
X214566666Y-106842914D02*
X214661904Y-106890533D01*
X213185714Y-106604819D02*
X213661904Y-106604819D01*
X213661904Y-106604819D02*
X213709523Y-107081009D01*
X213709523Y-107081009D02*
X213661904Y-107033390D01*
X213661904Y-107033390D02*
X213566666Y-106985771D01*
X213566666Y-106985771D02*
X213328571Y-106985771D01*
X213328571Y-106985771D02*
X213233333Y-107033390D01*
X213233333Y-107033390D02*
X213185714Y-107081009D01*
X213185714Y-107081009D02*
X213138095Y-107176247D01*
X213138095Y-107176247D02*
X213138095Y-107414342D01*
X213138095Y-107414342D02*
X213185714Y-107509580D01*
X213185714Y-107509580D02*
X213233333Y-107557200D01*
X213233333Y-107557200D02*
X213328571Y-107604819D01*
X213328571Y-107604819D02*
X213566666Y-107604819D01*
X213566666Y-107604819D02*
X213661904Y-107557200D01*
X213661904Y-107557200D02*
X213709523Y-107509580D01*
X195642857Y-67129819D02*
X195976190Y-66653628D01*
X196214285Y-67129819D02*
X196214285Y-66129819D01*
X196214285Y-66129819D02*
X195833333Y-66129819D01*
X195833333Y-66129819D02*
X195738095Y-66177438D01*
X195738095Y-66177438D02*
X195690476Y-66225057D01*
X195690476Y-66225057D02*
X195642857Y-66320295D01*
X195642857Y-66320295D02*
X195642857Y-66463152D01*
X195642857Y-66463152D02*
X195690476Y-66558390D01*
X195690476Y-66558390D02*
X195738095Y-66606009D01*
X195738095Y-66606009D02*
X195833333Y-66653628D01*
X195833333Y-66653628D02*
X196214285Y-66653628D01*
X194690476Y-67129819D02*
X195261904Y-67129819D01*
X194976190Y-67129819D02*
X194976190Y-66129819D01*
X194976190Y-66129819D02*
X195071428Y-66272676D01*
X195071428Y-66272676D02*
X195166666Y-66367914D01*
X195166666Y-66367914D02*
X195261904Y-66415533D01*
X194119047Y-66558390D02*
X194214285Y-66510771D01*
X194214285Y-66510771D02*
X194261904Y-66463152D01*
X194261904Y-66463152D02*
X194309523Y-66367914D01*
X194309523Y-66367914D02*
X194309523Y-66320295D01*
X194309523Y-66320295D02*
X194261904Y-66225057D01*
X194261904Y-66225057D02*
X194214285Y-66177438D01*
X194214285Y-66177438D02*
X194119047Y-66129819D01*
X194119047Y-66129819D02*
X193928571Y-66129819D01*
X193928571Y-66129819D02*
X193833333Y-66177438D01*
X193833333Y-66177438D02*
X193785714Y-66225057D01*
X193785714Y-66225057D02*
X193738095Y-66320295D01*
X193738095Y-66320295D02*
X193738095Y-66367914D01*
X193738095Y-66367914D02*
X193785714Y-66463152D01*
X193785714Y-66463152D02*
X193833333Y-66510771D01*
X193833333Y-66510771D02*
X193928571Y-66558390D01*
X193928571Y-66558390D02*
X194119047Y-66558390D01*
X194119047Y-66558390D02*
X194214285Y-66606009D01*
X194214285Y-66606009D02*
X194261904Y-66653628D01*
X194261904Y-66653628D02*
X194309523Y-66748866D01*
X194309523Y-66748866D02*
X194309523Y-66939342D01*
X194309523Y-66939342D02*
X194261904Y-67034580D01*
X194261904Y-67034580D02*
X194214285Y-67082200D01*
X194214285Y-67082200D02*
X194119047Y-67129819D01*
X194119047Y-67129819D02*
X193928571Y-67129819D01*
X193928571Y-67129819D02*
X193833333Y-67082200D01*
X193833333Y-67082200D02*
X193785714Y-67034580D01*
X193785714Y-67034580D02*
X193738095Y-66939342D01*
X193738095Y-66939342D02*
X193738095Y-66748866D01*
X193738095Y-66748866D02*
X193785714Y-66653628D01*
X193785714Y-66653628D02*
X193833333Y-66606009D01*
X193833333Y-66606009D02*
X193928571Y-66558390D01*
X164442857Y-98859580D02*
X164490476Y-98907200D01*
X164490476Y-98907200D02*
X164633333Y-98954819D01*
X164633333Y-98954819D02*
X164728571Y-98954819D01*
X164728571Y-98954819D02*
X164871428Y-98907200D01*
X164871428Y-98907200D02*
X164966666Y-98811961D01*
X164966666Y-98811961D02*
X165014285Y-98716723D01*
X165014285Y-98716723D02*
X165061904Y-98526247D01*
X165061904Y-98526247D02*
X165061904Y-98383390D01*
X165061904Y-98383390D02*
X165014285Y-98192914D01*
X165014285Y-98192914D02*
X164966666Y-98097676D01*
X164966666Y-98097676D02*
X164871428Y-98002438D01*
X164871428Y-98002438D02*
X164728571Y-97954819D01*
X164728571Y-97954819D02*
X164633333Y-97954819D01*
X164633333Y-97954819D02*
X164490476Y-98002438D01*
X164490476Y-98002438D02*
X164442857Y-98050057D01*
X164109523Y-97954819D02*
X163490476Y-97954819D01*
X163490476Y-97954819D02*
X163823809Y-98335771D01*
X163823809Y-98335771D02*
X163680952Y-98335771D01*
X163680952Y-98335771D02*
X163585714Y-98383390D01*
X163585714Y-98383390D02*
X163538095Y-98431009D01*
X163538095Y-98431009D02*
X163490476Y-98526247D01*
X163490476Y-98526247D02*
X163490476Y-98764342D01*
X163490476Y-98764342D02*
X163538095Y-98859580D01*
X163538095Y-98859580D02*
X163585714Y-98907200D01*
X163585714Y-98907200D02*
X163680952Y-98954819D01*
X163680952Y-98954819D02*
X163966666Y-98954819D01*
X163966666Y-98954819D02*
X164061904Y-98907200D01*
X164061904Y-98907200D02*
X164109523Y-98859580D01*
X162585714Y-97954819D02*
X163061904Y-97954819D01*
X163061904Y-97954819D02*
X163109523Y-98431009D01*
X163109523Y-98431009D02*
X163061904Y-98383390D01*
X163061904Y-98383390D02*
X162966666Y-98335771D01*
X162966666Y-98335771D02*
X162728571Y-98335771D01*
X162728571Y-98335771D02*
X162633333Y-98383390D01*
X162633333Y-98383390D02*
X162585714Y-98431009D01*
X162585714Y-98431009D02*
X162538095Y-98526247D01*
X162538095Y-98526247D02*
X162538095Y-98764342D01*
X162538095Y-98764342D02*
X162585714Y-98859580D01*
X162585714Y-98859580D02*
X162633333Y-98907200D01*
X162633333Y-98907200D02*
X162728571Y-98954819D01*
X162728571Y-98954819D02*
X162966666Y-98954819D01*
X162966666Y-98954819D02*
X163061904Y-98907200D01*
X163061904Y-98907200D02*
X163109523Y-98859580D01*
X234042857Y-111654819D02*
X234376190Y-111178628D01*
X234614285Y-111654819D02*
X234614285Y-110654819D01*
X234614285Y-110654819D02*
X234233333Y-110654819D01*
X234233333Y-110654819D02*
X234138095Y-110702438D01*
X234138095Y-110702438D02*
X234090476Y-110750057D01*
X234090476Y-110750057D02*
X234042857Y-110845295D01*
X234042857Y-110845295D02*
X234042857Y-110988152D01*
X234042857Y-110988152D02*
X234090476Y-111083390D01*
X234090476Y-111083390D02*
X234138095Y-111131009D01*
X234138095Y-111131009D02*
X234233333Y-111178628D01*
X234233333Y-111178628D02*
X234614285Y-111178628D01*
X233090476Y-111654819D02*
X233661904Y-111654819D01*
X233376190Y-111654819D02*
X233376190Y-110654819D01*
X233376190Y-110654819D02*
X233471428Y-110797676D01*
X233471428Y-110797676D02*
X233566666Y-110892914D01*
X233566666Y-110892914D02*
X233661904Y-110940533D01*
X232614285Y-111654819D02*
X232423809Y-111654819D01*
X232423809Y-111654819D02*
X232328571Y-111607200D01*
X232328571Y-111607200D02*
X232280952Y-111559580D01*
X232280952Y-111559580D02*
X232185714Y-111416723D01*
X232185714Y-111416723D02*
X232138095Y-111226247D01*
X232138095Y-111226247D02*
X232138095Y-110845295D01*
X232138095Y-110845295D02*
X232185714Y-110750057D01*
X232185714Y-110750057D02*
X232233333Y-110702438D01*
X232233333Y-110702438D02*
X232328571Y-110654819D01*
X232328571Y-110654819D02*
X232519047Y-110654819D01*
X232519047Y-110654819D02*
X232614285Y-110702438D01*
X232614285Y-110702438D02*
X232661904Y-110750057D01*
X232661904Y-110750057D02*
X232709523Y-110845295D01*
X232709523Y-110845295D02*
X232709523Y-111083390D01*
X232709523Y-111083390D02*
X232661904Y-111178628D01*
X232661904Y-111178628D02*
X232614285Y-111226247D01*
X232614285Y-111226247D02*
X232519047Y-111273866D01*
X232519047Y-111273866D02*
X232328571Y-111273866D01*
X232328571Y-111273866D02*
X232233333Y-111226247D01*
X232233333Y-111226247D02*
X232185714Y-111178628D01*
X232185714Y-111178628D02*
X232138095Y-111083390D01*
X170738094Y-78154819D02*
X170738094Y-77154819D01*
X170738094Y-77154819D02*
X170499999Y-77154819D01*
X170499999Y-77154819D02*
X170357142Y-77202438D01*
X170357142Y-77202438D02*
X170261904Y-77297676D01*
X170261904Y-77297676D02*
X170214285Y-77392914D01*
X170214285Y-77392914D02*
X170166666Y-77583390D01*
X170166666Y-77583390D02*
X170166666Y-77726247D01*
X170166666Y-77726247D02*
X170214285Y-77916723D01*
X170214285Y-77916723D02*
X170261904Y-78011961D01*
X170261904Y-78011961D02*
X170357142Y-78107200D01*
X170357142Y-78107200D02*
X170499999Y-78154819D01*
X170499999Y-78154819D02*
X170738094Y-78154819D01*
X169214285Y-78154819D02*
X169785713Y-78154819D01*
X169499999Y-78154819D02*
X169499999Y-77154819D01*
X169499999Y-77154819D02*
X169595237Y-77297676D01*
X169595237Y-77297676D02*
X169690475Y-77392914D01*
X169690475Y-77392914D02*
X169785713Y-77440533D01*
X166161904Y-126054819D02*
X166161904Y-126864342D01*
X166161904Y-126864342D02*
X166114285Y-126959580D01*
X166114285Y-126959580D02*
X166066666Y-127007200D01*
X166066666Y-127007200D02*
X165971428Y-127054819D01*
X165971428Y-127054819D02*
X165780952Y-127054819D01*
X165780952Y-127054819D02*
X165685714Y-127007200D01*
X165685714Y-127007200D02*
X165638095Y-126959580D01*
X165638095Y-126959580D02*
X165590476Y-126864342D01*
X165590476Y-126864342D02*
X165590476Y-126054819D01*
X164685714Y-126054819D02*
X164876190Y-126054819D01*
X164876190Y-126054819D02*
X164971428Y-126102438D01*
X164971428Y-126102438D02*
X165019047Y-126150057D01*
X165019047Y-126150057D02*
X165114285Y-126292914D01*
X165114285Y-126292914D02*
X165161904Y-126483390D01*
X165161904Y-126483390D02*
X165161904Y-126864342D01*
X165161904Y-126864342D02*
X165114285Y-126959580D01*
X165114285Y-126959580D02*
X165066666Y-127007200D01*
X165066666Y-127007200D02*
X164971428Y-127054819D01*
X164971428Y-127054819D02*
X164780952Y-127054819D01*
X164780952Y-127054819D02*
X164685714Y-127007200D01*
X164685714Y-127007200D02*
X164638095Y-126959580D01*
X164638095Y-126959580D02*
X164590476Y-126864342D01*
X164590476Y-126864342D02*
X164590476Y-126626247D01*
X164590476Y-126626247D02*
X164638095Y-126531009D01*
X164638095Y-126531009D02*
X164685714Y-126483390D01*
X164685714Y-126483390D02*
X164780952Y-126435771D01*
X164780952Y-126435771D02*
X164971428Y-126435771D01*
X164971428Y-126435771D02*
X165066666Y-126483390D01*
X165066666Y-126483390D02*
X165114285Y-126531009D01*
X165114285Y-126531009D02*
X165161904Y-126626247D01*
X187366666Y-78084580D02*
X187414285Y-78132200D01*
X187414285Y-78132200D02*
X187557142Y-78179819D01*
X187557142Y-78179819D02*
X187652380Y-78179819D01*
X187652380Y-78179819D02*
X187795237Y-78132200D01*
X187795237Y-78132200D02*
X187890475Y-78036961D01*
X187890475Y-78036961D02*
X187938094Y-77941723D01*
X187938094Y-77941723D02*
X187985713Y-77751247D01*
X187985713Y-77751247D02*
X187985713Y-77608390D01*
X187985713Y-77608390D02*
X187938094Y-77417914D01*
X187938094Y-77417914D02*
X187890475Y-77322676D01*
X187890475Y-77322676D02*
X187795237Y-77227438D01*
X187795237Y-77227438D02*
X187652380Y-77179819D01*
X187652380Y-77179819D02*
X187557142Y-77179819D01*
X187557142Y-77179819D02*
X187414285Y-77227438D01*
X187414285Y-77227438D02*
X187366666Y-77275057D01*
X186461904Y-77179819D02*
X186938094Y-77179819D01*
X186938094Y-77179819D02*
X186985713Y-77656009D01*
X186985713Y-77656009D02*
X186938094Y-77608390D01*
X186938094Y-77608390D02*
X186842856Y-77560771D01*
X186842856Y-77560771D02*
X186604761Y-77560771D01*
X186604761Y-77560771D02*
X186509523Y-77608390D01*
X186509523Y-77608390D02*
X186461904Y-77656009D01*
X186461904Y-77656009D02*
X186414285Y-77751247D01*
X186414285Y-77751247D02*
X186414285Y-77989342D01*
X186414285Y-77989342D02*
X186461904Y-78084580D01*
X186461904Y-78084580D02*
X186509523Y-78132200D01*
X186509523Y-78132200D02*
X186604761Y-78179819D01*
X186604761Y-78179819D02*
X186842856Y-78179819D01*
X186842856Y-78179819D02*
X186938094Y-78132200D01*
X186938094Y-78132200D02*
X186985713Y-78084580D01*
X151942857Y-133704819D02*
X152276190Y-133228628D01*
X152514285Y-133704819D02*
X152514285Y-132704819D01*
X152514285Y-132704819D02*
X152133333Y-132704819D01*
X152133333Y-132704819D02*
X152038095Y-132752438D01*
X152038095Y-132752438D02*
X151990476Y-132800057D01*
X151990476Y-132800057D02*
X151942857Y-132895295D01*
X151942857Y-132895295D02*
X151942857Y-133038152D01*
X151942857Y-133038152D02*
X151990476Y-133133390D01*
X151990476Y-133133390D02*
X152038095Y-133181009D01*
X152038095Y-133181009D02*
X152133333Y-133228628D01*
X152133333Y-133228628D02*
X152514285Y-133228628D01*
X151561904Y-132800057D02*
X151514285Y-132752438D01*
X151514285Y-132752438D02*
X151419047Y-132704819D01*
X151419047Y-132704819D02*
X151180952Y-132704819D01*
X151180952Y-132704819D02*
X151085714Y-132752438D01*
X151085714Y-132752438D02*
X151038095Y-132800057D01*
X151038095Y-132800057D02*
X150990476Y-132895295D01*
X150990476Y-132895295D02*
X150990476Y-132990533D01*
X150990476Y-132990533D02*
X151038095Y-133133390D01*
X151038095Y-133133390D02*
X151609523Y-133704819D01*
X151609523Y-133704819D02*
X150990476Y-133704819D01*
X150609523Y-132800057D02*
X150561904Y-132752438D01*
X150561904Y-132752438D02*
X150466666Y-132704819D01*
X150466666Y-132704819D02*
X150228571Y-132704819D01*
X150228571Y-132704819D02*
X150133333Y-132752438D01*
X150133333Y-132752438D02*
X150085714Y-132800057D01*
X150085714Y-132800057D02*
X150038095Y-132895295D01*
X150038095Y-132895295D02*
X150038095Y-132990533D01*
X150038095Y-132990533D02*
X150085714Y-133133390D01*
X150085714Y-133133390D02*
X150657142Y-133704819D01*
X150657142Y-133704819D02*
X150038095Y-133704819D01*
X189662401Y-119254819D02*
X189662401Y-120064342D01*
X189662401Y-120064342D02*
X189614782Y-120159580D01*
X189614782Y-120159580D02*
X189567163Y-120207200D01*
X189567163Y-120207200D02*
X189471925Y-120254819D01*
X189471925Y-120254819D02*
X189281449Y-120254819D01*
X189281449Y-120254819D02*
X189186211Y-120207200D01*
X189186211Y-120207200D02*
X189138592Y-120159580D01*
X189138592Y-120159580D02*
X189090973Y-120064342D01*
X189090973Y-120064342D02*
X189090973Y-119254819D01*
X188567163Y-120254819D02*
X188376687Y-120254819D01*
X188376687Y-120254819D02*
X188281449Y-120207200D01*
X188281449Y-120207200D02*
X188233830Y-120159580D01*
X188233830Y-120159580D02*
X188138592Y-120016723D01*
X188138592Y-120016723D02*
X188090973Y-119826247D01*
X188090973Y-119826247D02*
X188090973Y-119445295D01*
X188090973Y-119445295D02*
X188138592Y-119350057D01*
X188138592Y-119350057D02*
X188186211Y-119302438D01*
X188186211Y-119302438D02*
X188281449Y-119254819D01*
X188281449Y-119254819D02*
X188471925Y-119254819D01*
X188471925Y-119254819D02*
X188567163Y-119302438D01*
X188567163Y-119302438D02*
X188614782Y-119350057D01*
X188614782Y-119350057D02*
X188662401Y-119445295D01*
X188662401Y-119445295D02*
X188662401Y-119683390D01*
X188662401Y-119683390D02*
X188614782Y-119778628D01*
X188614782Y-119778628D02*
X188567163Y-119826247D01*
X188567163Y-119826247D02*
X188471925Y-119873866D01*
X188471925Y-119873866D02*
X188281449Y-119873866D01*
X188281449Y-119873866D02*
X188186211Y-119826247D01*
X188186211Y-119826247D02*
X188138592Y-119778628D01*
X188138592Y-119778628D02*
X188090973Y-119683390D01*
X132133333Y-67654819D02*
X132133333Y-68369104D01*
X132133333Y-68369104D02*
X132180952Y-68511961D01*
X132180952Y-68511961D02*
X132276190Y-68607200D01*
X132276190Y-68607200D02*
X132419047Y-68654819D01*
X132419047Y-68654819D02*
X132514285Y-68654819D01*
X131657142Y-68654819D02*
X131657142Y-67654819D01*
X131657142Y-67654819D02*
X131276190Y-67654819D01*
X131276190Y-67654819D02*
X131180952Y-67702438D01*
X131180952Y-67702438D02*
X131133333Y-67750057D01*
X131133333Y-67750057D02*
X131085714Y-67845295D01*
X131085714Y-67845295D02*
X131085714Y-67988152D01*
X131085714Y-67988152D02*
X131133333Y-68083390D01*
X131133333Y-68083390D02*
X131180952Y-68131009D01*
X131180952Y-68131009D02*
X131276190Y-68178628D01*
X131276190Y-68178628D02*
X131657142Y-68178628D01*
X130133333Y-68654819D02*
X130704761Y-68654819D01*
X130419047Y-68654819D02*
X130419047Y-67654819D01*
X130419047Y-67654819D02*
X130514285Y-67797676D01*
X130514285Y-67797676D02*
X130609523Y-67892914D01*
X130609523Y-67892914D02*
X130704761Y-67940533D01*
X205442857Y-121559580D02*
X205490476Y-121607200D01*
X205490476Y-121607200D02*
X205633333Y-121654819D01*
X205633333Y-121654819D02*
X205728571Y-121654819D01*
X205728571Y-121654819D02*
X205871428Y-121607200D01*
X205871428Y-121607200D02*
X205966666Y-121511961D01*
X205966666Y-121511961D02*
X206014285Y-121416723D01*
X206014285Y-121416723D02*
X206061904Y-121226247D01*
X206061904Y-121226247D02*
X206061904Y-121083390D01*
X206061904Y-121083390D02*
X206014285Y-120892914D01*
X206014285Y-120892914D02*
X205966666Y-120797676D01*
X205966666Y-120797676D02*
X205871428Y-120702438D01*
X205871428Y-120702438D02*
X205728571Y-120654819D01*
X205728571Y-120654819D02*
X205633333Y-120654819D01*
X205633333Y-120654819D02*
X205490476Y-120702438D01*
X205490476Y-120702438D02*
X205442857Y-120750057D01*
X205061904Y-120750057D02*
X205014285Y-120702438D01*
X205014285Y-120702438D02*
X204919047Y-120654819D01*
X204919047Y-120654819D02*
X204680952Y-120654819D01*
X204680952Y-120654819D02*
X204585714Y-120702438D01*
X204585714Y-120702438D02*
X204538095Y-120750057D01*
X204538095Y-120750057D02*
X204490476Y-120845295D01*
X204490476Y-120845295D02*
X204490476Y-120940533D01*
X204490476Y-120940533D02*
X204538095Y-121083390D01*
X204538095Y-121083390D02*
X205109523Y-121654819D01*
X205109523Y-121654819D02*
X204490476Y-121654819D01*
X203538095Y-121654819D02*
X204109523Y-121654819D01*
X203823809Y-121654819D02*
X203823809Y-120654819D01*
X203823809Y-120654819D02*
X203919047Y-120797676D01*
X203919047Y-120797676D02*
X204014285Y-120892914D01*
X204014285Y-120892914D02*
X204109523Y-120940533D01*
X233566666Y-78759580D02*
X233614285Y-78807200D01*
X233614285Y-78807200D02*
X233757142Y-78854819D01*
X233757142Y-78854819D02*
X233852380Y-78854819D01*
X233852380Y-78854819D02*
X233995237Y-78807200D01*
X233995237Y-78807200D02*
X234090475Y-78711961D01*
X234090475Y-78711961D02*
X234138094Y-78616723D01*
X234138094Y-78616723D02*
X234185713Y-78426247D01*
X234185713Y-78426247D02*
X234185713Y-78283390D01*
X234185713Y-78283390D02*
X234138094Y-78092914D01*
X234138094Y-78092914D02*
X234090475Y-77997676D01*
X234090475Y-77997676D02*
X233995237Y-77902438D01*
X233995237Y-77902438D02*
X233852380Y-77854819D01*
X233852380Y-77854819D02*
X233757142Y-77854819D01*
X233757142Y-77854819D02*
X233614285Y-77902438D01*
X233614285Y-77902438D02*
X233566666Y-77950057D01*
X232709523Y-78188152D02*
X232709523Y-78854819D01*
X232947618Y-77807200D02*
X233185713Y-78521485D01*
X233185713Y-78521485D02*
X232566666Y-78521485D01*
X109483332Y-68307200D02*
X109340475Y-68354819D01*
X109340475Y-68354819D02*
X109102380Y-68354819D01*
X109102380Y-68354819D02*
X109007142Y-68307200D01*
X109007142Y-68307200D02*
X108959523Y-68259580D01*
X108959523Y-68259580D02*
X108911904Y-68164342D01*
X108911904Y-68164342D02*
X108911904Y-68069104D01*
X108911904Y-68069104D02*
X108959523Y-67973866D01*
X108959523Y-67973866D02*
X109007142Y-67926247D01*
X109007142Y-67926247D02*
X109102380Y-67878628D01*
X109102380Y-67878628D02*
X109292856Y-67831009D01*
X109292856Y-67831009D02*
X109388094Y-67783390D01*
X109388094Y-67783390D02*
X109435713Y-67735771D01*
X109435713Y-67735771D02*
X109483332Y-67640533D01*
X109483332Y-67640533D02*
X109483332Y-67545295D01*
X109483332Y-67545295D02*
X109435713Y-67450057D01*
X109435713Y-67450057D02*
X109388094Y-67402438D01*
X109388094Y-67402438D02*
X109292856Y-67354819D01*
X109292856Y-67354819D02*
X109054761Y-67354819D01*
X109054761Y-67354819D02*
X108911904Y-67402438D01*
X108578570Y-67354819D02*
X108340475Y-68354819D01*
X108340475Y-68354819D02*
X108149999Y-67640533D01*
X108149999Y-67640533D02*
X107959523Y-68354819D01*
X107959523Y-68354819D02*
X107721428Y-67354819D01*
X107435713Y-67354819D02*
X106816666Y-67354819D01*
X106816666Y-67354819D02*
X107149999Y-67735771D01*
X107149999Y-67735771D02*
X107007142Y-67735771D01*
X107007142Y-67735771D02*
X106911904Y-67783390D01*
X106911904Y-67783390D02*
X106864285Y-67831009D01*
X106864285Y-67831009D02*
X106816666Y-67926247D01*
X106816666Y-67926247D02*
X106816666Y-68164342D01*
X106816666Y-68164342D02*
X106864285Y-68259580D01*
X106864285Y-68259580D02*
X106911904Y-68307200D01*
X106911904Y-68307200D02*
X107007142Y-68354819D01*
X107007142Y-68354819D02*
X107292856Y-68354819D01*
X107292856Y-68354819D02*
X107388094Y-68307200D01*
X107388094Y-68307200D02*
X107435713Y-68259580D01*
X142842857Y-133659580D02*
X142890476Y-133707200D01*
X142890476Y-133707200D02*
X143033333Y-133754819D01*
X143033333Y-133754819D02*
X143128571Y-133754819D01*
X143128571Y-133754819D02*
X143271428Y-133707200D01*
X143271428Y-133707200D02*
X143366666Y-133611961D01*
X143366666Y-133611961D02*
X143414285Y-133516723D01*
X143414285Y-133516723D02*
X143461904Y-133326247D01*
X143461904Y-133326247D02*
X143461904Y-133183390D01*
X143461904Y-133183390D02*
X143414285Y-132992914D01*
X143414285Y-132992914D02*
X143366666Y-132897676D01*
X143366666Y-132897676D02*
X143271428Y-132802438D01*
X143271428Y-132802438D02*
X143128571Y-132754819D01*
X143128571Y-132754819D02*
X143033333Y-132754819D01*
X143033333Y-132754819D02*
X142890476Y-132802438D01*
X142890476Y-132802438D02*
X142842857Y-132850057D01*
X142509523Y-132754819D02*
X141890476Y-132754819D01*
X141890476Y-132754819D02*
X142223809Y-133135771D01*
X142223809Y-133135771D02*
X142080952Y-133135771D01*
X142080952Y-133135771D02*
X141985714Y-133183390D01*
X141985714Y-133183390D02*
X141938095Y-133231009D01*
X141938095Y-133231009D02*
X141890476Y-133326247D01*
X141890476Y-133326247D02*
X141890476Y-133564342D01*
X141890476Y-133564342D02*
X141938095Y-133659580D01*
X141938095Y-133659580D02*
X141985714Y-133707200D01*
X141985714Y-133707200D02*
X142080952Y-133754819D01*
X142080952Y-133754819D02*
X142366666Y-133754819D01*
X142366666Y-133754819D02*
X142461904Y-133707200D01*
X142461904Y-133707200D02*
X142509523Y-133659580D01*
X141319047Y-133183390D02*
X141414285Y-133135771D01*
X141414285Y-133135771D02*
X141461904Y-133088152D01*
X141461904Y-133088152D02*
X141509523Y-132992914D01*
X141509523Y-132992914D02*
X141509523Y-132945295D01*
X141509523Y-132945295D02*
X141461904Y-132850057D01*
X141461904Y-132850057D02*
X141414285Y-132802438D01*
X141414285Y-132802438D02*
X141319047Y-132754819D01*
X141319047Y-132754819D02*
X141128571Y-132754819D01*
X141128571Y-132754819D02*
X141033333Y-132802438D01*
X141033333Y-132802438D02*
X140985714Y-132850057D01*
X140985714Y-132850057D02*
X140938095Y-132945295D01*
X140938095Y-132945295D02*
X140938095Y-132992914D01*
X140938095Y-132992914D02*
X140985714Y-133088152D01*
X140985714Y-133088152D02*
X141033333Y-133135771D01*
X141033333Y-133135771D02*
X141128571Y-133183390D01*
X141128571Y-133183390D02*
X141319047Y-133183390D01*
X141319047Y-133183390D02*
X141414285Y-133231009D01*
X141414285Y-133231009D02*
X141461904Y-133278628D01*
X141461904Y-133278628D02*
X141509523Y-133373866D01*
X141509523Y-133373866D02*
X141509523Y-133564342D01*
X141509523Y-133564342D02*
X141461904Y-133659580D01*
X141461904Y-133659580D02*
X141414285Y-133707200D01*
X141414285Y-133707200D02*
X141319047Y-133754819D01*
X141319047Y-133754819D02*
X141128571Y-133754819D01*
X141128571Y-133754819D02*
X141033333Y-133707200D01*
X141033333Y-133707200D02*
X140985714Y-133659580D01*
X140985714Y-133659580D02*
X140938095Y-133564342D01*
X140938095Y-133564342D02*
X140938095Y-133373866D01*
X140938095Y-133373866D02*
X140985714Y-133278628D01*
X140985714Y-133278628D02*
X141033333Y-133231009D01*
X141033333Y-133231009D02*
X141128571Y-133183390D01*
X210166666Y-94854819D02*
X210499999Y-94378628D01*
X210738094Y-94854819D02*
X210738094Y-93854819D01*
X210738094Y-93854819D02*
X210357142Y-93854819D01*
X210357142Y-93854819D02*
X210261904Y-93902438D01*
X210261904Y-93902438D02*
X210214285Y-93950057D01*
X210214285Y-93950057D02*
X210166666Y-94045295D01*
X210166666Y-94045295D02*
X210166666Y-94188152D01*
X210166666Y-94188152D02*
X210214285Y-94283390D01*
X210214285Y-94283390D02*
X210261904Y-94331009D01*
X210261904Y-94331009D02*
X210357142Y-94378628D01*
X210357142Y-94378628D02*
X210738094Y-94378628D01*
X209690475Y-94854819D02*
X209499999Y-94854819D01*
X209499999Y-94854819D02*
X209404761Y-94807200D01*
X209404761Y-94807200D02*
X209357142Y-94759580D01*
X209357142Y-94759580D02*
X209261904Y-94616723D01*
X209261904Y-94616723D02*
X209214285Y-94426247D01*
X209214285Y-94426247D02*
X209214285Y-94045295D01*
X209214285Y-94045295D02*
X209261904Y-93950057D01*
X209261904Y-93950057D02*
X209309523Y-93902438D01*
X209309523Y-93902438D02*
X209404761Y-93854819D01*
X209404761Y-93854819D02*
X209595237Y-93854819D01*
X209595237Y-93854819D02*
X209690475Y-93902438D01*
X209690475Y-93902438D02*
X209738094Y-93950057D01*
X209738094Y-93950057D02*
X209785713Y-94045295D01*
X209785713Y-94045295D02*
X209785713Y-94283390D01*
X209785713Y-94283390D02*
X209738094Y-94378628D01*
X209738094Y-94378628D02*
X209690475Y-94426247D01*
X209690475Y-94426247D02*
X209595237Y-94473866D01*
X209595237Y-94473866D02*
X209404761Y-94473866D01*
X209404761Y-94473866D02*
X209309523Y-94426247D01*
X209309523Y-94426247D02*
X209261904Y-94378628D01*
X209261904Y-94378628D02*
X209214285Y-94283390D01*
X219442857Y-95959580D02*
X219490476Y-96007200D01*
X219490476Y-96007200D02*
X219633333Y-96054819D01*
X219633333Y-96054819D02*
X219728571Y-96054819D01*
X219728571Y-96054819D02*
X219871428Y-96007200D01*
X219871428Y-96007200D02*
X219966666Y-95911961D01*
X219966666Y-95911961D02*
X220014285Y-95816723D01*
X220014285Y-95816723D02*
X220061904Y-95626247D01*
X220061904Y-95626247D02*
X220061904Y-95483390D01*
X220061904Y-95483390D02*
X220014285Y-95292914D01*
X220014285Y-95292914D02*
X219966666Y-95197676D01*
X219966666Y-95197676D02*
X219871428Y-95102438D01*
X219871428Y-95102438D02*
X219728571Y-95054819D01*
X219728571Y-95054819D02*
X219633333Y-95054819D01*
X219633333Y-95054819D02*
X219490476Y-95102438D01*
X219490476Y-95102438D02*
X219442857Y-95150057D01*
X218490476Y-96054819D02*
X219061904Y-96054819D01*
X218776190Y-96054819D02*
X218776190Y-95054819D01*
X218776190Y-95054819D02*
X218871428Y-95197676D01*
X218871428Y-95197676D02*
X218966666Y-95292914D01*
X218966666Y-95292914D02*
X219061904Y-95340533D01*
X218109523Y-95150057D02*
X218061904Y-95102438D01*
X218061904Y-95102438D02*
X217966666Y-95054819D01*
X217966666Y-95054819D02*
X217728571Y-95054819D01*
X217728571Y-95054819D02*
X217633333Y-95102438D01*
X217633333Y-95102438D02*
X217585714Y-95150057D01*
X217585714Y-95150057D02*
X217538095Y-95245295D01*
X217538095Y-95245295D02*
X217538095Y-95340533D01*
X217538095Y-95340533D02*
X217585714Y-95483390D01*
X217585714Y-95483390D02*
X218157142Y-96054819D01*
X218157142Y-96054819D02*
X217538095Y-96054819D01*
X169242857Y-100959580D02*
X169290476Y-101007200D01*
X169290476Y-101007200D02*
X169433333Y-101054819D01*
X169433333Y-101054819D02*
X169528571Y-101054819D01*
X169528571Y-101054819D02*
X169671428Y-101007200D01*
X169671428Y-101007200D02*
X169766666Y-100911961D01*
X169766666Y-100911961D02*
X169814285Y-100816723D01*
X169814285Y-100816723D02*
X169861904Y-100626247D01*
X169861904Y-100626247D02*
X169861904Y-100483390D01*
X169861904Y-100483390D02*
X169814285Y-100292914D01*
X169814285Y-100292914D02*
X169766666Y-100197676D01*
X169766666Y-100197676D02*
X169671428Y-100102438D01*
X169671428Y-100102438D02*
X169528571Y-100054819D01*
X169528571Y-100054819D02*
X169433333Y-100054819D01*
X169433333Y-100054819D02*
X169290476Y-100102438D01*
X169290476Y-100102438D02*
X169242857Y-100150057D01*
X168909523Y-100054819D02*
X168290476Y-100054819D01*
X168290476Y-100054819D02*
X168623809Y-100435771D01*
X168623809Y-100435771D02*
X168480952Y-100435771D01*
X168480952Y-100435771D02*
X168385714Y-100483390D01*
X168385714Y-100483390D02*
X168338095Y-100531009D01*
X168338095Y-100531009D02*
X168290476Y-100626247D01*
X168290476Y-100626247D02*
X168290476Y-100864342D01*
X168290476Y-100864342D02*
X168338095Y-100959580D01*
X168338095Y-100959580D02*
X168385714Y-101007200D01*
X168385714Y-101007200D02*
X168480952Y-101054819D01*
X168480952Y-101054819D02*
X168766666Y-101054819D01*
X168766666Y-101054819D02*
X168861904Y-101007200D01*
X168861904Y-101007200D02*
X168909523Y-100959580D01*
X167957142Y-100054819D02*
X167290476Y-100054819D01*
X167290476Y-100054819D02*
X167719047Y-101054819D01*
X196442857Y-75884580D02*
X196490476Y-75932200D01*
X196490476Y-75932200D02*
X196633333Y-75979819D01*
X196633333Y-75979819D02*
X196728571Y-75979819D01*
X196728571Y-75979819D02*
X196871428Y-75932200D01*
X196871428Y-75932200D02*
X196966666Y-75836961D01*
X196966666Y-75836961D02*
X197014285Y-75741723D01*
X197014285Y-75741723D02*
X197061904Y-75551247D01*
X197061904Y-75551247D02*
X197061904Y-75408390D01*
X197061904Y-75408390D02*
X197014285Y-75217914D01*
X197014285Y-75217914D02*
X196966666Y-75122676D01*
X196966666Y-75122676D02*
X196871428Y-75027438D01*
X196871428Y-75027438D02*
X196728571Y-74979819D01*
X196728571Y-74979819D02*
X196633333Y-74979819D01*
X196633333Y-74979819D02*
X196490476Y-75027438D01*
X196490476Y-75027438D02*
X196442857Y-75075057D01*
X195585714Y-75313152D02*
X195585714Y-75979819D01*
X195823809Y-74932200D02*
X196061904Y-75646485D01*
X196061904Y-75646485D02*
X195442857Y-75646485D01*
X194538095Y-75979819D02*
X195109523Y-75979819D01*
X194823809Y-75979819D02*
X194823809Y-74979819D01*
X194823809Y-74979819D02*
X194919047Y-75122676D01*
X194919047Y-75122676D02*
X195014285Y-75217914D01*
X195014285Y-75217914D02*
X195109523Y-75265533D01*
X184766666Y-78084580D02*
X184814285Y-78132200D01*
X184814285Y-78132200D02*
X184957142Y-78179819D01*
X184957142Y-78179819D02*
X185052380Y-78179819D01*
X185052380Y-78179819D02*
X185195237Y-78132200D01*
X185195237Y-78132200D02*
X185290475Y-78036961D01*
X185290475Y-78036961D02*
X185338094Y-77941723D01*
X185338094Y-77941723D02*
X185385713Y-77751247D01*
X185385713Y-77751247D02*
X185385713Y-77608390D01*
X185385713Y-77608390D02*
X185338094Y-77417914D01*
X185338094Y-77417914D02*
X185290475Y-77322676D01*
X185290475Y-77322676D02*
X185195237Y-77227438D01*
X185195237Y-77227438D02*
X185052380Y-77179819D01*
X185052380Y-77179819D02*
X184957142Y-77179819D01*
X184957142Y-77179819D02*
X184814285Y-77227438D01*
X184814285Y-77227438D02*
X184766666Y-77275057D01*
X183909523Y-77179819D02*
X184099999Y-77179819D01*
X184099999Y-77179819D02*
X184195237Y-77227438D01*
X184195237Y-77227438D02*
X184242856Y-77275057D01*
X184242856Y-77275057D02*
X184338094Y-77417914D01*
X184338094Y-77417914D02*
X184385713Y-77608390D01*
X184385713Y-77608390D02*
X184385713Y-77989342D01*
X184385713Y-77989342D02*
X184338094Y-78084580D01*
X184338094Y-78084580D02*
X184290475Y-78132200D01*
X184290475Y-78132200D02*
X184195237Y-78179819D01*
X184195237Y-78179819D02*
X184004761Y-78179819D01*
X184004761Y-78179819D02*
X183909523Y-78132200D01*
X183909523Y-78132200D02*
X183861904Y-78084580D01*
X183861904Y-78084580D02*
X183814285Y-77989342D01*
X183814285Y-77989342D02*
X183814285Y-77751247D01*
X183814285Y-77751247D02*
X183861904Y-77656009D01*
X183861904Y-77656009D02*
X183909523Y-77608390D01*
X183909523Y-77608390D02*
X184004761Y-77560771D01*
X184004761Y-77560771D02*
X184195237Y-77560771D01*
X184195237Y-77560771D02*
X184290475Y-77608390D01*
X184290475Y-77608390D02*
X184338094Y-77656009D01*
X184338094Y-77656009D02*
X184385713Y-77751247D01*
X181267163Y-125559580D02*
X181314782Y-125607200D01*
X181314782Y-125607200D02*
X181457639Y-125654819D01*
X181457639Y-125654819D02*
X181552877Y-125654819D01*
X181552877Y-125654819D02*
X181695734Y-125607200D01*
X181695734Y-125607200D02*
X181790972Y-125511961D01*
X181790972Y-125511961D02*
X181838591Y-125416723D01*
X181838591Y-125416723D02*
X181886210Y-125226247D01*
X181886210Y-125226247D02*
X181886210Y-125083390D01*
X181886210Y-125083390D02*
X181838591Y-124892914D01*
X181838591Y-124892914D02*
X181790972Y-124797676D01*
X181790972Y-124797676D02*
X181695734Y-124702438D01*
X181695734Y-124702438D02*
X181552877Y-124654819D01*
X181552877Y-124654819D02*
X181457639Y-124654819D01*
X181457639Y-124654819D02*
X181314782Y-124702438D01*
X181314782Y-124702438D02*
X181267163Y-124750057D01*
X180314782Y-125654819D02*
X180886210Y-125654819D01*
X180600496Y-125654819D02*
X180600496Y-124654819D01*
X180600496Y-124654819D02*
X180695734Y-124797676D01*
X180695734Y-124797676D02*
X180790972Y-124892914D01*
X180790972Y-124892914D02*
X180886210Y-124940533D01*
X115642857Y-73854819D02*
X115976190Y-73378628D01*
X116214285Y-73854819D02*
X116214285Y-72854819D01*
X116214285Y-72854819D02*
X115833333Y-72854819D01*
X115833333Y-72854819D02*
X115738095Y-72902438D01*
X115738095Y-72902438D02*
X115690476Y-72950057D01*
X115690476Y-72950057D02*
X115642857Y-73045295D01*
X115642857Y-73045295D02*
X115642857Y-73188152D01*
X115642857Y-73188152D02*
X115690476Y-73283390D01*
X115690476Y-73283390D02*
X115738095Y-73331009D01*
X115738095Y-73331009D02*
X115833333Y-73378628D01*
X115833333Y-73378628D02*
X116214285Y-73378628D01*
X114690476Y-73854819D02*
X115261904Y-73854819D01*
X114976190Y-73854819D02*
X114976190Y-72854819D01*
X114976190Y-72854819D02*
X115071428Y-72997676D01*
X115071428Y-72997676D02*
X115166666Y-73092914D01*
X115166666Y-73092914D02*
X115261904Y-73140533D01*
X114309523Y-72950057D02*
X114261904Y-72902438D01*
X114261904Y-72902438D02*
X114166666Y-72854819D01*
X114166666Y-72854819D02*
X113928571Y-72854819D01*
X113928571Y-72854819D02*
X113833333Y-72902438D01*
X113833333Y-72902438D02*
X113785714Y-72950057D01*
X113785714Y-72950057D02*
X113738095Y-73045295D01*
X113738095Y-73045295D02*
X113738095Y-73140533D01*
X113738095Y-73140533D02*
X113785714Y-73283390D01*
X113785714Y-73283390D02*
X114357142Y-73854819D01*
X114357142Y-73854819D02*
X113738095Y-73854819D01*
X209842857Y-121559580D02*
X209890476Y-121607200D01*
X209890476Y-121607200D02*
X210033333Y-121654819D01*
X210033333Y-121654819D02*
X210128571Y-121654819D01*
X210128571Y-121654819D02*
X210271428Y-121607200D01*
X210271428Y-121607200D02*
X210366666Y-121511961D01*
X210366666Y-121511961D02*
X210414285Y-121416723D01*
X210414285Y-121416723D02*
X210461904Y-121226247D01*
X210461904Y-121226247D02*
X210461904Y-121083390D01*
X210461904Y-121083390D02*
X210414285Y-120892914D01*
X210414285Y-120892914D02*
X210366666Y-120797676D01*
X210366666Y-120797676D02*
X210271428Y-120702438D01*
X210271428Y-120702438D02*
X210128571Y-120654819D01*
X210128571Y-120654819D02*
X210033333Y-120654819D01*
X210033333Y-120654819D02*
X209890476Y-120702438D01*
X209890476Y-120702438D02*
X209842857Y-120750057D01*
X209461904Y-120750057D02*
X209414285Y-120702438D01*
X209414285Y-120702438D02*
X209319047Y-120654819D01*
X209319047Y-120654819D02*
X209080952Y-120654819D01*
X209080952Y-120654819D02*
X208985714Y-120702438D01*
X208985714Y-120702438D02*
X208938095Y-120750057D01*
X208938095Y-120750057D02*
X208890476Y-120845295D01*
X208890476Y-120845295D02*
X208890476Y-120940533D01*
X208890476Y-120940533D02*
X208938095Y-121083390D01*
X208938095Y-121083390D02*
X209509523Y-121654819D01*
X209509523Y-121654819D02*
X208890476Y-121654819D01*
X208509523Y-120750057D02*
X208461904Y-120702438D01*
X208461904Y-120702438D02*
X208366666Y-120654819D01*
X208366666Y-120654819D02*
X208128571Y-120654819D01*
X208128571Y-120654819D02*
X208033333Y-120702438D01*
X208033333Y-120702438D02*
X207985714Y-120750057D01*
X207985714Y-120750057D02*
X207938095Y-120845295D01*
X207938095Y-120845295D02*
X207938095Y-120940533D01*
X207938095Y-120940533D02*
X207985714Y-121083390D01*
X207985714Y-121083390D02*
X208557142Y-121654819D01*
X208557142Y-121654819D02*
X207938095Y-121654819D01*
X203761904Y-74279819D02*
X203761904Y-75089342D01*
X203761904Y-75089342D02*
X203714285Y-75184580D01*
X203714285Y-75184580D02*
X203666666Y-75232200D01*
X203666666Y-75232200D02*
X203571428Y-75279819D01*
X203571428Y-75279819D02*
X203380952Y-75279819D01*
X203380952Y-75279819D02*
X203285714Y-75232200D01*
X203285714Y-75232200D02*
X203238095Y-75184580D01*
X203238095Y-75184580D02*
X203190476Y-75089342D01*
X203190476Y-75089342D02*
X203190476Y-74279819D01*
X202571428Y-74708390D02*
X202666666Y-74660771D01*
X202666666Y-74660771D02*
X202714285Y-74613152D01*
X202714285Y-74613152D02*
X202761904Y-74517914D01*
X202761904Y-74517914D02*
X202761904Y-74470295D01*
X202761904Y-74470295D02*
X202714285Y-74375057D01*
X202714285Y-74375057D02*
X202666666Y-74327438D01*
X202666666Y-74327438D02*
X202571428Y-74279819D01*
X202571428Y-74279819D02*
X202380952Y-74279819D01*
X202380952Y-74279819D02*
X202285714Y-74327438D01*
X202285714Y-74327438D02*
X202238095Y-74375057D01*
X202238095Y-74375057D02*
X202190476Y-74470295D01*
X202190476Y-74470295D02*
X202190476Y-74517914D01*
X202190476Y-74517914D02*
X202238095Y-74613152D01*
X202238095Y-74613152D02*
X202285714Y-74660771D01*
X202285714Y-74660771D02*
X202380952Y-74708390D01*
X202380952Y-74708390D02*
X202571428Y-74708390D01*
X202571428Y-74708390D02*
X202666666Y-74756009D01*
X202666666Y-74756009D02*
X202714285Y-74803628D01*
X202714285Y-74803628D02*
X202761904Y-74898866D01*
X202761904Y-74898866D02*
X202761904Y-75089342D01*
X202761904Y-75089342D02*
X202714285Y-75184580D01*
X202714285Y-75184580D02*
X202666666Y-75232200D01*
X202666666Y-75232200D02*
X202571428Y-75279819D01*
X202571428Y-75279819D02*
X202380952Y-75279819D01*
X202380952Y-75279819D02*
X202285714Y-75232200D01*
X202285714Y-75232200D02*
X202238095Y-75184580D01*
X202238095Y-75184580D02*
X202190476Y-75089342D01*
X202190476Y-75089342D02*
X202190476Y-74898866D01*
X202190476Y-74898866D02*
X202238095Y-74803628D01*
X202238095Y-74803628D02*
X202285714Y-74756009D01*
X202285714Y-74756009D02*
X202380952Y-74708390D01*
X142395238Y-124750057D02*
X142490476Y-124702438D01*
X142490476Y-124702438D02*
X142585714Y-124607200D01*
X142585714Y-124607200D02*
X142728571Y-124464342D01*
X142728571Y-124464342D02*
X142823809Y-124416723D01*
X142823809Y-124416723D02*
X142919047Y-124416723D01*
X142871428Y-124654819D02*
X142966666Y-124607200D01*
X142966666Y-124607200D02*
X143061904Y-124511961D01*
X143061904Y-124511961D02*
X143109523Y-124321485D01*
X143109523Y-124321485D02*
X143109523Y-123988152D01*
X143109523Y-123988152D02*
X143061904Y-123797676D01*
X143061904Y-123797676D02*
X142966666Y-123702438D01*
X142966666Y-123702438D02*
X142871428Y-123654819D01*
X142871428Y-123654819D02*
X142680952Y-123654819D01*
X142680952Y-123654819D02*
X142585714Y-123702438D01*
X142585714Y-123702438D02*
X142490476Y-123797676D01*
X142490476Y-123797676D02*
X142442857Y-123988152D01*
X142442857Y-123988152D02*
X142442857Y-124321485D01*
X142442857Y-124321485D02*
X142490476Y-124511961D01*
X142490476Y-124511961D02*
X142585714Y-124607200D01*
X142585714Y-124607200D02*
X142680952Y-124654819D01*
X142680952Y-124654819D02*
X142871428Y-124654819D01*
X141966666Y-124654819D02*
X141776190Y-124654819D01*
X141776190Y-124654819D02*
X141680952Y-124607200D01*
X141680952Y-124607200D02*
X141633333Y-124559580D01*
X141633333Y-124559580D02*
X141538095Y-124416723D01*
X141538095Y-124416723D02*
X141490476Y-124226247D01*
X141490476Y-124226247D02*
X141490476Y-123845295D01*
X141490476Y-123845295D02*
X141538095Y-123750057D01*
X141538095Y-123750057D02*
X141585714Y-123702438D01*
X141585714Y-123702438D02*
X141680952Y-123654819D01*
X141680952Y-123654819D02*
X141871428Y-123654819D01*
X141871428Y-123654819D02*
X141966666Y-123702438D01*
X141966666Y-123702438D02*
X142014285Y-123750057D01*
X142014285Y-123750057D02*
X142061904Y-123845295D01*
X142061904Y-123845295D02*
X142061904Y-124083390D01*
X142061904Y-124083390D02*
X142014285Y-124178628D01*
X142014285Y-124178628D02*
X141966666Y-124226247D01*
X141966666Y-124226247D02*
X141871428Y-124273866D01*
X141871428Y-124273866D02*
X141680952Y-124273866D01*
X141680952Y-124273866D02*
X141585714Y-124226247D01*
X141585714Y-124226247D02*
X141538095Y-124178628D01*
X141538095Y-124178628D02*
X141490476Y-124083390D01*
X203042857Y-94159580D02*
X203090476Y-94207200D01*
X203090476Y-94207200D02*
X203233333Y-94254819D01*
X203233333Y-94254819D02*
X203328571Y-94254819D01*
X203328571Y-94254819D02*
X203471428Y-94207200D01*
X203471428Y-94207200D02*
X203566666Y-94111961D01*
X203566666Y-94111961D02*
X203614285Y-94016723D01*
X203614285Y-94016723D02*
X203661904Y-93826247D01*
X203661904Y-93826247D02*
X203661904Y-93683390D01*
X203661904Y-93683390D02*
X203614285Y-93492914D01*
X203614285Y-93492914D02*
X203566666Y-93397676D01*
X203566666Y-93397676D02*
X203471428Y-93302438D01*
X203471428Y-93302438D02*
X203328571Y-93254819D01*
X203328571Y-93254819D02*
X203233333Y-93254819D01*
X203233333Y-93254819D02*
X203090476Y-93302438D01*
X203090476Y-93302438D02*
X203042857Y-93350057D01*
X202090476Y-94254819D02*
X202661904Y-94254819D01*
X202376190Y-94254819D02*
X202376190Y-93254819D01*
X202376190Y-93254819D02*
X202471428Y-93397676D01*
X202471428Y-93397676D02*
X202566666Y-93492914D01*
X202566666Y-93492914D02*
X202661904Y-93540533D01*
X201233333Y-93254819D02*
X201423809Y-93254819D01*
X201423809Y-93254819D02*
X201519047Y-93302438D01*
X201519047Y-93302438D02*
X201566666Y-93350057D01*
X201566666Y-93350057D02*
X201661904Y-93492914D01*
X201661904Y-93492914D02*
X201709523Y-93683390D01*
X201709523Y-93683390D02*
X201709523Y-94064342D01*
X201709523Y-94064342D02*
X201661904Y-94159580D01*
X201661904Y-94159580D02*
X201614285Y-94207200D01*
X201614285Y-94207200D02*
X201519047Y-94254819D01*
X201519047Y-94254819D02*
X201328571Y-94254819D01*
X201328571Y-94254819D02*
X201233333Y-94207200D01*
X201233333Y-94207200D02*
X201185714Y-94159580D01*
X201185714Y-94159580D02*
X201138095Y-94064342D01*
X201138095Y-94064342D02*
X201138095Y-93826247D01*
X201138095Y-93826247D02*
X201185714Y-93731009D01*
X201185714Y-93731009D02*
X201233333Y-93683390D01*
X201233333Y-93683390D02*
X201328571Y-93635771D01*
X201328571Y-93635771D02*
X201519047Y-93635771D01*
X201519047Y-93635771D02*
X201614285Y-93683390D01*
X201614285Y-93683390D02*
X201661904Y-93731009D01*
X201661904Y-93731009D02*
X201709523Y-93826247D01*
X225142857Y-109489580D02*
X225190476Y-109537200D01*
X225190476Y-109537200D02*
X225333333Y-109584819D01*
X225333333Y-109584819D02*
X225428571Y-109584819D01*
X225428571Y-109584819D02*
X225571428Y-109537200D01*
X225571428Y-109537200D02*
X225666666Y-109441961D01*
X225666666Y-109441961D02*
X225714285Y-109346723D01*
X225714285Y-109346723D02*
X225761904Y-109156247D01*
X225761904Y-109156247D02*
X225761904Y-109013390D01*
X225761904Y-109013390D02*
X225714285Y-108822914D01*
X225714285Y-108822914D02*
X225666666Y-108727676D01*
X225666666Y-108727676D02*
X225571428Y-108632438D01*
X225571428Y-108632438D02*
X225428571Y-108584819D01*
X225428571Y-108584819D02*
X225333333Y-108584819D01*
X225333333Y-108584819D02*
X225190476Y-108632438D01*
X225190476Y-108632438D02*
X225142857Y-108680057D01*
X224809523Y-108584819D02*
X224190476Y-108584819D01*
X224190476Y-108584819D02*
X224523809Y-108965771D01*
X224523809Y-108965771D02*
X224380952Y-108965771D01*
X224380952Y-108965771D02*
X224285714Y-109013390D01*
X224285714Y-109013390D02*
X224238095Y-109061009D01*
X224238095Y-109061009D02*
X224190476Y-109156247D01*
X224190476Y-109156247D02*
X224190476Y-109394342D01*
X224190476Y-109394342D02*
X224238095Y-109489580D01*
X224238095Y-109489580D02*
X224285714Y-109537200D01*
X224285714Y-109537200D02*
X224380952Y-109584819D01*
X224380952Y-109584819D02*
X224666666Y-109584819D01*
X224666666Y-109584819D02*
X224761904Y-109537200D01*
X224761904Y-109537200D02*
X224809523Y-109489580D01*
X223809523Y-108680057D02*
X223761904Y-108632438D01*
X223761904Y-108632438D02*
X223666666Y-108584819D01*
X223666666Y-108584819D02*
X223428571Y-108584819D01*
X223428571Y-108584819D02*
X223333333Y-108632438D01*
X223333333Y-108632438D02*
X223285714Y-108680057D01*
X223285714Y-108680057D02*
X223238095Y-108775295D01*
X223238095Y-108775295D02*
X223238095Y-108870533D01*
X223238095Y-108870533D02*
X223285714Y-109013390D01*
X223285714Y-109013390D02*
X223857142Y-109584819D01*
X223857142Y-109584819D02*
X223238095Y-109584819D01*
X120409523Y-96854819D02*
X120076190Y-97854819D01*
X120076190Y-97854819D02*
X119742857Y-96854819D01*
X119457142Y-96950057D02*
X119409523Y-96902438D01*
X119409523Y-96902438D02*
X119314285Y-96854819D01*
X119314285Y-96854819D02*
X119076190Y-96854819D01*
X119076190Y-96854819D02*
X118980952Y-96902438D01*
X118980952Y-96902438D02*
X118933333Y-96950057D01*
X118933333Y-96950057D02*
X118885714Y-97045295D01*
X118885714Y-97045295D02*
X118885714Y-97140533D01*
X118885714Y-97140533D02*
X118933333Y-97283390D01*
X118933333Y-97283390D02*
X119504761Y-97854819D01*
X119504761Y-97854819D02*
X118885714Y-97854819D01*
X113380951Y-80673866D02*
X112619047Y-80673866D01*
X112999999Y-81054819D02*
X112999999Y-80292914D01*
X125619048Y-91926133D02*
X126380953Y-91926133D01*
X235842857Y-107529580D02*
X235890476Y-107577200D01*
X235890476Y-107577200D02*
X236033333Y-107624819D01*
X236033333Y-107624819D02*
X236128571Y-107624819D01*
X236128571Y-107624819D02*
X236271428Y-107577200D01*
X236271428Y-107577200D02*
X236366666Y-107481961D01*
X236366666Y-107481961D02*
X236414285Y-107386723D01*
X236414285Y-107386723D02*
X236461904Y-107196247D01*
X236461904Y-107196247D02*
X236461904Y-107053390D01*
X236461904Y-107053390D02*
X236414285Y-106862914D01*
X236414285Y-106862914D02*
X236366666Y-106767676D01*
X236366666Y-106767676D02*
X236271428Y-106672438D01*
X236271428Y-106672438D02*
X236128571Y-106624819D01*
X236128571Y-106624819D02*
X236033333Y-106624819D01*
X236033333Y-106624819D02*
X235890476Y-106672438D01*
X235890476Y-106672438D02*
X235842857Y-106720057D01*
X235461904Y-106720057D02*
X235414285Y-106672438D01*
X235414285Y-106672438D02*
X235319047Y-106624819D01*
X235319047Y-106624819D02*
X235080952Y-106624819D01*
X235080952Y-106624819D02*
X234985714Y-106672438D01*
X234985714Y-106672438D02*
X234938095Y-106720057D01*
X234938095Y-106720057D02*
X234890476Y-106815295D01*
X234890476Y-106815295D02*
X234890476Y-106910533D01*
X234890476Y-106910533D02*
X234938095Y-107053390D01*
X234938095Y-107053390D02*
X235509523Y-107624819D01*
X235509523Y-107624819D02*
X234890476Y-107624819D01*
X234033333Y-106624819D02*
X234223809Y-106624819D01*
X234223809Y-106624819D02*
X234319047Y-106672438D01*
X234319047Y-106672438D02*
X234366666Y-106720057D01*
X234366666Y-106720057D02*
X234461904Y-106862914D01*
X234461904Y-106862914D02*
X234509523Y-107053390D01*
X234509523Y-107053390D02*
X234509523Y-107434342D01*
X234509523Y-107434342D02*
X234461904Y-107529580D01*
X234461904Y-107529580D02*
X234414285Y-107577200D01*
X234414285Y-107577200D02*
X234319047Y-107624819D01*
X234319047Y-107624819D02*
X234128571Y-107624819D01*
X234128571Y-107624819D02*
X234033333Y-107577200D01*
X234033333Y-107577200D02*
X233985714Y-107529580D01*
X233985714Y-107529580D02*
X233938095Y-107434342D01*
X233938095Y-107434342D02*
X233938095Y-107196247D01*
X233938095Y-107196247D02*
X233985714Y-107101009D01*
X233985714Y-107101009D02*
X234033333Y-107053390D01*
X234033333Y-107053390D02*
X234128571Y-107005771D01*
X234128571Y-107005771D02*
X234319047Y-107005771D01*
X234319047Y-107005771D02*
X234414285Y-107053390D01*
X234414285Y-107053390D02*
X234461904Y-107101009D01*
X234461904Y-107101009D02*
X234509523Y-107196247D01*
X205442857Y-129859580D02*
X205490476Y-129907200D01*
X205490476Y-129907200D02*
X205633333Y-129954819D01*
X205633333Y-129954819D02*
X205728571Y-129954819D01*
X205728571Y-129954819D02*
X205871428Y-129907200D01*
X205871428Y-129907200D02*
X205966666Y-129811961D01*
X205966666Y-129811961D02*
X206014285Y-129716723D01*
X206014285Y-129716723D02*
X206061904Y-129526247D01*
X206061904Y-129526247D02*
X206061904Y-129383390D01*
X206061904Y-129383390D02*
X206014285Y-129192914D01*
X206014285Y-129192914D02*
X205966666Y-129097676D01*
X205966666Y-129097676D02*
X205871428Y-129002438D01*
X205871428Y-129002438D02*
X205728571Y-128954819D01*
X205728571Y-128954819D02*
X205633333Y-128954819D01*
X205633333Y-128954819D02*
X205490476Y-129002438D01*
X205490476Y-129002438D02*
X205442857Y-129050057D01*
X205109523Y-128954819D02*
X204490476Y-128954819D01*
X204490476Y-128954819D02*
X204823809Y-129335771D01*
X204823809Y-129335771D02*
X204680952Y-129335771D01*
X204680952Y-129335771D02*
X204585714Y-129383390D01*
X204585714Y-129383390D02*
X204538095Y-129431009D01*
X204538095Y-129431009D02*
X204490476Y-129526247D01*
X204490476Y-129526247D02*
X204490476Y-129764342D01*
X204490476Y-129764342D02*
X204538095Y-129859580D01*
X204538095Y-129859580D02*
X204585714Y-129907200D01*
X204585714Y-129907200D02*
X204680952Y-129954819D01*
X204680952Y-129954819D02*
X204966666Y-129954819D01*
X204966666Y-129954819D02*
X205061904Y-129907200D01*
X205061904Y-129907200D02*
X205109523Y-129859580D01*
X204014285Y-129954819D02*
X203823809Y-129954819D01*
X203823809Y-129954819D02*
X203728571Y-129907200D01*
X203728571Y-129907200D02*
X203680952Y-129859580D01*
X203680952Y-129859580D02*
X203585714Y-129716723D01*
X203585714Y-129716723D02*
X203538095Y-129526247D01*
X203538095Y-129526247D02*
X203538095Y-129145295D01*
X203538095Y-129145295D02*
X203585714Y-129050057D01*
X203585714Y-129050057D02*
X203633333Y-129002438D01*
X203633333Y-129002438D02*
X203728571Y-128954819D01*
X203728571Y-128954819D02*
X203919047Y-128954819D01*
X203919047Y-128954819D02*
X204014285Y-129002438D01*
X204014285Y-129002438D02*
X204061904Y-129050057D01*
X204061904Y-129050057D02*
X204109523Y-129145295D01*
X204109523Y-129145295D02*
X204109523Y-129383390D01*
X204109523Y-129383390D02*
X204061904Y-129478628D01*
X204061904Y-129478628D02*
X204014285Y-129526247D01*
X204014285Y-129526247D02*
X203919047Y-129573866D01*
X203919047Y-129573866D02*
X203728571Y-129573866D01*
X203728571Y-129573866D02*
X203633333Y-129526247D01*
X203633333Y-129526247D02*
X203585714Y-129478628D01*
X203585714Y-129478628D02*
X203538095Y-129383390D01*
X121942857Y-69554819D02*
X122276190Y-69078628D01*
X122514285Y-69554819D02*
X122514285Y-68554819D01*
X122514285Y-68554819D02*
X122133333Y-68554819D01*
X122133333Y-68554819D02*
X122038095Y-68602438D01*
X122038095Y-68602438D02*
X121990476Y-68650057D01*
X121990476Y-68650057D02*
X121942857Y-68745295D01*
X121942857Y-68745295D02*
X121942857Y-68888152D01*
X121942857Y-68888152D02*
X121990476Y-68983390D01*
X121990476Y-68983390D02*
X122038095Y-69031009D01*
X122038095Y-69031009D02*
X122133333Y-69078628D01*
X122133333Y-69078628D02*
X122514285Y-69078628D01*
X120990476Y-69554819D02*
X121561904Y-69554819D01*
X121276190Y-69554819D02*
X121276190Y-68554819D01*
X121276190Y-68554819D02*
X121371428Y-68697676D01*
X121371428Y-68697676D02*
X121466666Y-68792914D01*
X121466666Y-68792914D02*
X121561904Y-68840533D01*
X120657142Y-68554819D02*
X119990476Y-68554819D01*
X119990476Y-68554819D02*
X120419047Y-69554819D01*
X149642857Y-123804819D02*
X149976190Y-123328628D01*
X150214285Y-123804819D02*
X150214285Y-122804819D01*
X150214285Y-122804819D02*
X149833333Y-122804819D01*
X149833333Y-122804819D02*
X149738095Y-122852438D01*
X149738095Y-122852438D02*
X149690476Y-122900057D01*
X149690476Y-122900057D02*
X149642857Y-122995295D01*
X149642857Y-122995295D02*
X149642857Y-123138152D01*
X149642857Y-123138152D02*
X149690476Y-123233390D01*
X149690476Y-123233390D02*
X149738095Y-123281009D01*
X149738095Y-123281009D02*
X149833333Y-123328628D01*
X149833333Y-123328628D02*
X150214285Y-123328628D01*
X149309523Y-122804819D02*
X148690476Y-122804819D01*
X148690476Y-122804819D02*
X149023809Y-123185771D01*
X149023809Y-123185771D02*
X148880952Y-123185771D01*
X148880952Y-123185771D02*
X148785714Y-123233390D01*
X148785714Y-123233390D02*
X148738095Y-123281009D01*
X148738095Y-123281009D02*
X148690476Y-123376247D01*
X148690476Y-123376247D02*
X148690476Y-123614342D01*
X148690476Y-123614342D02*
X148738095Y-123709580D01*
X148738095Y-123709580D02*
X148785714Y-123757200D01*
X148785714Y-123757200D02*
X148880952Y-123804819D01*
X148880952Y-123804819D02*
X149166666Y-123804819D01*
X149166666Y-123804819D02*
X149261904Y-123757200D01*
X149261904Y-123757200D02*
X149309523Y-123709580D01*
X147738095Y-123804819D02*
X148309523Y-123804819D01*
X148023809Y-123804819D02*
X148023809Y-122804819D01*
X148023809Y-122804819D02*
X148119047Y-122947676D01*
X148119047Y-122947676D02*
X148214285Y-123042914D01*
X148214285Y-123042914D02*
X148309523Y-123090533D01*
X158595238Y-124850057D02*
X158690476Y-124802438D01*
X158690476Y-124802438D02*
X158785714Y-124707200D01*
X158785714Y-124707200D02*
X158928571Y-124564342D01*
X158928571Y-124564342D02*
X159023809Y-124516723D01*
X159023809Y-124516723D02*
X159119047Y-124516723D01*
X159071428Y-124754819D02*
X159166666Y-124707200D01*
X159166666Y-124707200D02*
X159261904Y-124611961D01*
X159261904Y-124611961D02*
X159309523Y-124421485D01*
X159309523Y-124421485D02*
X159309523Y-124088152D01*
X159309523Y-124088152D02*
X159261904Y-123897676D01*
X159261904Y-123897676D02*
X159166666Y-123802438D01*
X159166666Y-123802438D02*
X159071428Y-123754819D01*
X159071428Y-123754819D02*
X158880952Y-123754819D01*
X158880952Y-123754819D02*
X158785714Y-123802438D01*
X158785714Y-123802438D02*
X158690476Y-123897676D01*
X158690476Y-123897676D02*
X158642857Y-124088152D01*
X158642857Y-124088152D02*
X158642857Y-124421485D01*
X158642857Y-124421485D02*
X158690476Y-124611961D01*
X158690476Y-124611961D02*
X158785714Y-124707200D01*
X158785714Y-124707200D02*
X158880952Y-124754819D01*
X158880952Y-124754819D02*
X159071428Y-124754819D01*
X157785714Y-123754819D02*
X157976190Y-123754819D01*
X157976190Y-123754819D02*
X158071428Y-123802438D01*
X158071428Y-123802438D02*
X158119047Y-123850057D01*
X158119047Y-123850057D02*
X158214285Y-123992914D01*
X158214285Y-123992914D02*
X158261904Y-124183390D01*
X158261904Y-124183390D02*
X158261904Y-124564342D01*
X158261904Y-124564342D02*
X158214285Y-124659580D01*
X158214285Y-124659580D02*
X158166666Y-124707200D01*
X158166666Y-124707200D02*
X158071428Y-124754819D01*
X158071428Y-124754819D02*
X157880952Y-124754819D01*
X157880952Y-124754819D02*
X157785714Y-124707200D01*
X157785714Y-124707200D02*
X157738095Y-124659580D01*
X157738095Y-124659580D02*
X157690476Y-124564342D01*
X157690476Y-124564342D02*
X157690476Y-124326247D01*
X157690476Y-124326247D02*
X157738095Y-124231009D01*
X157738095Y-124231009D02*
X157785714Y-124183390D01*
X157785714Y-124183390D02*
X157880952Y-124135771D01*
X157880952Y-124135771D02*
X158071428Y-124135771D01*
X158071428Y-124135771D02*
X158166666Y-124183390D01*
X158166666Y-124183390D02*
X158214285Y-124231009D01*
X158214285Y-124231009D02*
X158261904Y-124326247D01*
X145938094Y-72854819D02*
X145938094Y-71854819D01*
X145938094Y-71854819D02*
X145699999Y-71854819D01*
X145699999Y-71854819D02*
X145557142Y-71902438D01*
X145557142Y-71902438D02*
X145461904Y-71997676D01*
X145461904Y-71997676D02*
X145414285Y-72092914D01*
X145414285Y-72092914D02*
X145366666Y-72283390D01*
X145366666Y-72283390D02*
X145366666Y-72426247D01*
X145366666Y-72426247D02*
X145414285Y-72616723D01*
X145414285Y-72616723D02*
X145461904Y-72711961D01*
X145461904Y-72711961D02*
X145557142Y-72807200D01*
X145557142Y-72807200D02*
X145699999Y-72854819D01*
X145699999Y-72854819D02*
X145938094Y-72854819D01*
X145033332Y-71854819D02*
X144414285Y-71854819D01*
X144414285Y-71854819D02*
X144747618Y-72235771D01*
X144747618Y-72235771D02*
X144604761Y-72235771D01*
X144604761Y-72235771D02*
X144509523Y-72283390D01*
X144509523Y-72283390D02*
X144461904Y-72331009D01*
X144461904Y-72331009D02*
X144414285Y-72426247D01*
X144414285Y-72426247D02*
X144414285Y-72664342D01*
X144414285Y-72664342D02*
X144461904Y-72759580D01*
X144461904Y-72759580D02*
X144509523Y-72807200D01*
X144509523Y-72807200D02*
X144604761Y-72854819D01*
X144604761Y-72854819D02*
X144890475Y-72854819D01*
X144890475Y-72854819D02*
X144985713Y-72807200D01*
X144985713Y-72807200D02*
X145033332Y-72759580D01*
X145338094Y-74069104D02*
X144861904Y-74069104D01*
X145433332Y-74354819D02*
X145099999Y-73354819D01*
X145099999Y-73354819D02*
X144766666Y-74354819D01*
X158838094Y-73654819D02*
X158838094Y-72654819D01*
X158838094Y-72654819D02*
X158599999Y-72654819D01*
X158599999Y-72654819D02*
X158457142Y-72702438D01*
X158457142Y-72702438D02*
X158361904Y-72797676D01*
X158361904Y-72797676D02*
X158314285Y-72892914D01*
X158314285Y-72892914D02*
X158266666Y-73083390D01*
X158266666Y-73083390D02*
X158266666Y-73226247D01*
X158266666Y-73226247D02*
X158314285Y-73416723D01*
X158314285Y-73416723D02*
X158361904Y-73511961D01*
X158361904Y-73511961D02*
X158457142Y-73607200D01*
X158457142Y-73607200D02*
X158599999Y-73654819D01*
X158599999Y-73654819D02*
X158838094Y-73654819D01*
X157885713Y-72750057D02*
X157838094Y-72702438D01*
X157838094Y-72702438D02*
X157742856Y-72654819D01*
X157742856Y-72654819D02*
X157504761Y-72654819D01*
X157504761Y-72654819D02*
X157409523Y-72702438D01*
X157409523Y-72702438D02*
X157361904Y-72750057D01*
X157361904Y-72750057D02*
X157314285Y-72845295D01*
X157314285Y-72845295D02*
X157314285Y-72940533D01*
X157314285Y-72940533D02*
X157361904Y-73083390D01*
X157361904Y-73083390D02*
X157933332Y-73654819D01*
X157933332Y-73654819D02*
X157314285Y-73654819D01*
X142842857Y-127754819D02*
X143176190Y-127278628D01*
X143414285Y-127754819D02*
X143414285Y-126754819D01*
X143414285Y-126754819D02*
X143033333Y-126754819D01*
X143033333Y-126754819D02*
X142938095Y-126802438D01*
X142938095Y-126802438D02*
X142890476Y-126850057D01*
X142890476Y-126850057D02*
X142842857Y-126945295D01*
X142842857Y-126945295D02*
X142842857Y-127088152D01*
X142842857Y-127088152D02*
X142890476Y-127183390D01*
X142890476Y-127183390D02*
X142938095Y-127231009D01*
X142938095Y-127231009D02*
X143033333Y-127278628D01*
X143033333Y-127278628D02*
X143414285Y-127278628D01*
X142509523Y-126754819D02*
X141890476Y-126754819D01*
X141890476Y-126754819D02*
X142223809Y-127135771D01*
X142223809Y-127135771D02*
X142080952Y-127135771D01*
X142080952Y-127135771D02*
X141985714Y-127183390D01*
X141985714Y-127183390D02*
X141938095Y-127231009D01*
X141938095Y-127231009D02*
X141890476Y-127326247D01*
X141890476Y-127326247D02*
X141890476Y-127564342D01*
X141890476Y-127564342D02*
X141938095Y-127659580D01*
X141938095Y-127659580D02*
X141985714Y-127707200D01*
X141985714Y-127707200D02*
X142080952Y-127754819D01*
X142080952Y-127754819D02*
X142366666Y-127754819D01*
X142366666Y-127754819D02*
X142461904Y-127707200D01*
X142461904Y-127707200D02*
X142509523Y-127659580D01*
X141271428Y-126754819D02*
X141176190Y-126754819D01*
X141176190Y-126754819D02*
X141080952Y-126802438D01*
X141080952Y-126802438D02*
X141033333Y-126850057D01*
X141033333Y-126850057D02*
X140985714Y-126945295D01*
X140985714Y-126945295D02*
X140938095Y-127135771D01*
X140938095Y-127135771D02*
X140938095Y-127373866D01*
X140938095Y-127373866D02*
X140985714Y-127564342D01*
X140985714Y-127564342D02*
X141033333Y-127659580D01*
X141033333Y-127659580D02*
X141080952Y-127707200D01*
X141080952Y-127707200D02*
X141176190Y-127754819D01*
X141176190Y-127754819D02*
X141271428Y-127754819D01*
X141271428Y-127754819D02*
X141366666Y-127707200D01*
X141366666Y-127707200D02*
X141414285Y-127659580D01*
X141414285Y-127659580D02*
X141461904Y-127564342D01*
X141461904Y-127564342D02*
X141509523Y-127373866D01*
X141509523Y-127373866D02*
X141509523Y-127135771D01*
X141509523Y-127135771D02*
X141461904Y-126945295D01*
X141461904Y-126945295D02*
X141414285Y-126850057D01*
X141414285Y-126850057D02*
X141366666Y-126802438D01*
X141366666Y-126802438D02*
X141271428Y-126754819D01*
X215242857Y-95959580D02*
X215290476Y-96007200D01*
X215290476Y-96007200D02*
X215433333Y-96054819D01*
X215433333Y-96054819D02*
X215528571Y-96054819D01*
X215528571Y-96054819D02*
X215671428Y-96007200D01*
X215671428Y-96007200D02*
X215766666Y-95911961D01*
X215766666Y-95911961D02*
X215814285Y-95816723D01*
X215814285Y-95816723D02*
X215861904Y-95626247D01*
X215861904Y-95626247D02*
X215861904Y-95483390D01*
X215861904Y-95483390D02*
X215814285Y-95292914D01*
X215814285Y-95292914D02*
X215766666Y-95197676D01*
X215766666Y-95197676D02*
X215671428Y-95102438D01*
X215671428Y-95102438D02*
X215528571Y-95054819D01*
X215528571Y-95054819D02*
X215433333Y-95054819D01*
X215433333Y-95054819D02*
X215290476Y-95102438D01*
X215290476Y-95102438D02*
X215242857Y-95150057D01*
X214290476Y-96054819D02*
X214861904Y-96054819D01*
X214576190Y-96054819D02*
X214576190Y-95054819D01*
X214576190Y-95054819D02*
X214671428Y-95197676D01*
X214671428Y-95197676D02*
X214766666Y-95292914D01*
X214766666Y-95292914D02*
X214861904Y-95340533D01*
X213957142Y-95054819D02*
X213338095Y-95054819D01*
X213338095Y-95054819D02*
X213671428Y-95435771D01*
X213671428Y-95435771D02*
X213528571Y-95435771D01*
X213528571Y-95435771D02*
X213433333Y-95483390D01*
X213433333Y-95483390D02*
X213385714Y-95531009D01*
X213385714Y-95531009D02*
X213338095Y-95626247D01*
X213338095Y-95626247D02*
X213338095Y-95864342D01*
X213338095Y-95864342D02*
X213385714Y-95959580D01*
X213385714Y-95959580D02*
X213433333Y-96007200D01*
X213433333Y-96007200D02*
X213528571Y-96054819D01*
X213528571Y-96054819D02*
X213814285Y-96054819D01*
X213814285Y-96054819D02*
X213909523Y-96007200D01*
X213909523Y-96007200D02*
X213957142Y-95959580D01*
X228666666Y-131159580D02*
X228714285Y-131207200D01*
X228714285Y-131207200D02*
X228857142Y-131254819D01*
X228857142Y-131254819D02*
X228952380Y-131254819D01*
X228952380Y-131254819D02*
X229095237Y-131207200D01*
X229095237Y-131207200D02*
X229190475Y-131111961D01*
X229190475Y-131111961D02*
X229238094Y-131016723D01*
X229238094Y-131016723D02*
X229285713Y-130826247D01*
X229285713Y-130826247D02*
X229285713Y-130683390D01*
X229285713Y-130683390D02*
X229238094Y-130492914D01*
X229238094Y-130492914D02*
X229190475Y-130397676D01*
X229190475Y-130397676D02*
X229095237Y-130302438D01*
X229095237Y-130302438D02*
X228952380Y-130254819D01*
X228952380Y-130254819D02*
X228857142Y-130254819D01*
X228857142Y-130254819D02*
X228714285Y-130302438D01*
X228714285Y-130302438D02*
X228666666Y-130350057D01*
X228285713Y-130350057D02*
X228238094Y-130302438D01*
X228238094Y-130302438D02*
X228142856Y-130254819D01*
X228142856Y-130254819D02*
X227904761Y-130254819D01*
X227904761Y-130254819D02*
X227809523Y-130302438D01*
X227809523Y-130302438D02*
X227761904Y-130350057D01*
X227761904Y-130350057D02*
X227714285Y-130445295D01*
X227714285Y-130445295D02*
X227714285Y-130540533D01*
X227714285Y-130540533D02*
X227761904Y-130683390D01*
X227761904Y-130683390D02*
X228333332Y-131254819D01*
X228333332Y-131254819D02*
X227714285Y-131254819D01*
X129242857Y-98367319D02*
X129576190Y-97891128D01*
X129814285Y-98367319D02*
X129814285Y-97367319D01*
X129814285Y-97367319D02*
X129433333Y-97367319D01*
X129433333Y-97367319D02*
X129338095Y-97414938D01*
X129338095Y-97414938D02*
X129290476Y-97462557D01*
X129290476Y-97462557D02*
X129242857Y-97557795D01*
X129242857Y-97557795D02*
X129242857Y-97700652D01*
X129242857Y-97700652D02*
X129290476Y-97795890D01*
X129290476Y-97795890D02*
X129338095Y-97843509D01*
X129338095Y-97843509D02*
X129433333Y-97891128D01*
X129433333Y-97891128D02*
X129814285Y-97891128D01*
X128290476Y-98367319D02*
X128861904Y-98367319D01*
X128576190Y-98367319D02*
X128576190Y-97367319D01*
X128576190Y-97367319D02*
X128671428Y-97510176D01*
X128671428Y-97510176D02*
X128766666Y-97605414D01*
X128766666Y-97605414D02*
X128861904Y-97653033D01*
X127433333Y-97700652D02*
X127433333Y-98367319D01*
X127671428Y-97319700D02*
X127909523Y-98033985D01*
X127909523Y-98033985D02*
X127290476Y-98033985D01*
X164442857Y-101959580D02*
X164490476Y-102007200D01*
X164490476Y-102007200D02*
X164633333Y-102054819D01*
X164633333Y-102054819D02*
X164728571Y-102054819D01*
X164728571Y-102054819D02*
X164871428Y-102007200D01*
X164871428Y-102007200D02*
X164966666Y-101911961D01*
X164966666Y-101911961D02*
X165014285Y-101816723D01*
X165014285Y-101816723D02*
X165061904Y-101626247D01*
X165061904Y-101626247D02*
X165061904Y-101483390D01*
X165061904Y-101483390D02*
X165014285Y-101292914D01*
X165014285Y-101292914D02*
X164966666Y-101197676D01*
X164966666Y-101197676D02*
X164871428Y-101102438D01*
X164871428Y-101102438D02*
X164728571Y-101054819D01*
X164728571Y-101054819D02*
X164633333Y-101054819D01*
X164633333Y-101054819D02*
X164490476Y-101102438D01*
X164490476Y-101102438D02*
X164442857Y-101150057D01*
X164109523Y-101054819D02*
X163490476Y-101054819D01*
X163490476Y-101054819D02*
X163823809Y-101435771D01*
X163823809Y-101435771D02*
X163680952Y-101435771D01*
X163680952Y-101435771D02*
X163585714Y-101483390D01*
X163585714Y-101483390D02*
X163538095Y-101531009D01*
X163538095Y-101531009D02*
X163490476Y-101626247D01*
X163490476Y-101626247D02*
X163490476Y-101864342D01*
X163490476Y-101864342D02*
X163538095Y-101959580D01*
X163538095Y-101959580D02*
X163585714Y-102007200D01*
X163585714Y-102007200D02*
X163680952Y-102054819D01*
X163680952Y-102054819D02*
X163966666Y-102054819D01*
X163966666Y-102054819D02*
X164061904Y-102007200D01*
X164061904Y-102007200D02*
X164109523Y-101959580D01*
X162633333Y-101054819D02*
X162823809Y-101054819D01*
X162823809Y-101054819D02*
X162919047Y-101102438D01*
X162919047Y-101102438D02*
X162966666Y-101150057D01*
X162966666Y-101150057D02*
X163061904Y-101292914D01*
X163061904Y-101292914D02*
X163109523Y-101483390D01*
X163109523Y-101483390D02*
X163109523Y-101864342D01*
X163109523Y-101864342D02*
X163061904Y-101959580D01*
X163061904Y-101959580D02*
X163014285Y-102007200D01*
X163014285Y-102007200D02*
X162919047Y-102054819D01*
X162919047Y-102054819D02*
X162728571Y-102054819D01*
X162728571Y-102054819D02*
X162633333Y-102007200D01*
X162633333Y-102007200D02*
X162585714Y-101959580D01*
X162585714Y-101959580D02*
X162538095Y-101864342D01*
X162538095Y-101864342D02*
X162538095Y-101626247D01*
X162538095Y-101626247D02*
X162585714Y-101531009D01*
X162585714Y-101531009D02*
X162633333Y-101483390D01*
X162633333Y-101483390D02*
X162728571Y-101435771D01*
X162728571Y-101435771D02*
X162919047Y-101435771D01*
X162919047Y-101435771D02*
X163014285Y-101483390D01*
X163014285Y-101483390D02*
X163061904Y-101531009D01*
X163061904Y-101531009D02*
X163109523Y-101626247D01*
X120642857Y-73854819D02*
X120976190Y-73378628D01*
X121214285Y-73854819D02*
X121214285Y-72854819D01*
X121214285Y-72854819D02*
X120833333Y-72854819D01*
X120833333Y-72854819D02*
X120738095Y-72902438D01*
X120738095Y-72902438D02*
X120690476Y-72950057D01*
X120690476Y-72950057D02*
X120642857Y-73045295D01*
X120642857Y-73045295D02*
X120642857Y-73188152D01*
X120642857Y-73188152D02*
X120690476Y-73283390D01*
X120690476Y-73283390D02*
X120738095Y-73331009D01*
X120738095Y-73331009D02*
X120833333Y-73378628D01*
X120833333Y-73378628D02*
X121214285Y-73378628D01*
X119690476Y-73854819D02*
X120261904Y-73854819D01*
X119976190Y-73854819D02*
X119976190Y-72854819D01*
X119976190Y-72854819D02*
X120071428Y-72997676D01*
X120071428Y-72997676D02*
X120166666Y-73092914D01*
X120166666Y-73092914D02*
X120261904Y-73140533D01*
X118738095Y-73854819D02*
X119309523Y-73854819D01*
X119023809Y-73854819D02*
X119023809Y-72854819D01*
X119023809Y-72854819D02*
X119119047Y-72997676D01*
X119119047Y-72997676D02*
X119214285Y-73092914D01*
X119214285Y-73092914D02*
X119309523Y-73140533D01*
X125642857Y-73854819D02*
X125976190Y-73378628D01*
X126214285Y-73854819D02*
X126214285Y-72854819D01*
X126214285Y-72854819D02*
X125833333Y-72854819D01*
X125833333Y-72854819D02*
X125738095Y-72902438D01*
X125738095Y-72902438D02*
X125690476Y-72950057D01*
X125690476Y-72950057D02*
X125642857Y-73045295D01*
X125642857Y-73045295D02*
X125642857Y-73188152D01*
X125642857Y-73188152D02*
X125690476Y-73283390D01*
X125690476Y-73283390D02*
X125738095Y-73331009D01*
X125738095Y-73331009D02*
X125833333Y-73378628D01*
X125833333Y-73378628D02*
X126214285Y-73378628D01*
X124690476Y-73854819D02*
X125261904Y-73854819D01*
X124976190Y-73854819D02*
X124976190Y-72854819D01*
X124976190Y-72854819D02*
X125071428Y-72997676D01*
X125071428Y-72997676D02*
X125166666Y-73092914D01*
X125166666Y-73092914D02*
X125261904Y-73140533D01*
X124071428Y-72854819D02*
X123976190Y-72854819D01*
X123976190Y-72854819D02*
X123880952Y-72902438D01*
X123880952Y-72902438D02*
X123833333Y-72950057D01*
X123833333Y-72950057D02*
X123785714Y-73045295D01*
X123785714Y-73045295D02*
X123738095Y-73235771D01*
X123738095Y-73235771D02*
X123738095Y-73473866D01*
X123738095Y-73473866D02*
X123785714Y-73664342D01*
X123785714Y-73664342D02*
X123833333Y-73759580D01*
X123833333Y-73759580D02*
X123880952Y-73807200D01*
X123880952Y-73807200D02*
X123976190Y-73854819D01*
X123976190Y-73854819D02*
X124071428Y-73854819D01*
X124071428Y-73854819D02*
X124166666Y-73807200D01*
X124166666Y-73807200D02*
X124214285Y-73759580D01*
X124214285Y-73759580D02*
X124261904Y-73664342D01*
X124261904Y-73664342D02*
X124309523Y-73473866D01*
X124309523Y-73473866D02*
X124309523Y-73235771D01*
X124309523Y-73235771D02*
X124261904Y-73045295D01*
X124261904Y-73045295D02*
X124214285Y-72950057D01*
X124214285Y-72950057D02*
X124166666Y-72902438D01*
X124166666Y-72902438D02*
X124071428Y-72854819D01*
D11*
%TO.C,U4*%
X175700000Y-125200000D02*
X175500000Y-125200000D01*
X175700000Y-125200000D02*
X175700000Y-127800000D01*
X173400000Y-125200000D02*
X173400000Y-124800000D01*
X173300000Y-125200000D02*
X173400000Y-125200000D01*
X175700000Y-127800000D02*
X175500000Y-127800000D01*
X173500000Y-127800000D02*
X173300000Y-127800000D01*
X173300000Y-127800000D02*
X173300000Y-125200000D01*
%TO.C,R13*%
X111910000Y-76072936D02*
X111910000Y-77527064D01*
X110090000Y-76072936D02*
X110090000Y-77527064D01*
%TO.C,C3*%
X235915580Y-95835000D02*
X235634420Y-95835000D01*
X235915580Y-94815000D02*
X235634420Y-94815000D01*
%TO.C,C28*%
X168359420Y-108990000D02*
X168640580Y-108990000D01*
X168359420Y-110010000D02*
X168640580Y-110010000D01*
%TO.C,R15*%
X214172936Y-104765000D02*
X214627064Y-104765000D01*
X214172936Y-106235000D02*
X214627064Y-106235000D01*
%TO.C,R18*%
X195227064Y-69060000D02*
X194772936Y-69060000D01*
X195227064Y-67590000D02*
X194772936Y-67590000D01*
%TO.C,C35*%
X161710000Y-98359420D02*
X161710000Y-98640580D01*
X160690000Y-98359420D02*
X160690000Y-98640580D01*
%TO.C,R19*%
X235265000Y-111427064D02*
X235265000Y-110972936D01*
X236735000Y-111427064D02*
X236735000Y-110972936D01*
%TO.C,D1*%
X166490000Y-73550000D02*
X172000000Y-73550000D01*
X166490000Y-76850000D02*
X166490000Y-73550000D01*
X166490000Y-76850000D02*
X172000000Y-76850000D01*
%TO.C,U6*%
X169200000Y-125200000D02*
X169000000Y-125200000D01*
X169200000Y-125200000D02*
X169200000Y-127800000D01*
X166900000Y-125200000D02*
X166900000Y-124800000D01*
X166800000Y-125200000D02*
X166900000Y-125200000D01*
X169200000Y-127800000D02*
X169000000Y-127800000D01*
X167000000Y-127800000D02*
X166800000Y-127800000D01*
X166800000Y-127800000D02*
X166800000Y-125200000D01*
%TO.C,C5*%
X186490000Y-75465580D02*
X186490000Y-75184420D01*
X187510000Y-75465580D02*
X187510000Y-75184420D01*
%TO.C,R22*%
X151072936Y-130865000D02*
X151527064Y-130865000D01*
X151072936Y-132335000D02*
X151527064Y-132335000D01*
%TO.C,U9*%
X186190497Y-126260000D02*
X186915497Y-126260000D01*
X186190497Y-125535000D02*
X186190497Y-126260000D01*
X191410497Y-125535000D02*
X191410497Y-126260000D01*
X186190497Y-121765000D02*
X186190497Y-121040000D01*
X191410497Y-121765000D02*
X191410497Y-121040000D01*
X186190497Y-121040000D02*
X186915497Y-121040000D01*
X191410497Y-121040000D02*
X190685497Y-121040000D01*
%TO.C,JP1*%
X129600000Y-66700000D02*
X127600000Y-66700000D01*
X127600000Y-66700000D02*
X127600000Y-69500000D01*
X129600000Y-69500000D02*
X129600000Y-66700000D01*
X127600000Y-69500000D02*
X129600000Y-69500000D01*
%TO.C,C21*%
X206160000Y-117288748D02*
X206160000Y-118711252D01*
X203440000Y-117288748D02*
X203440000Y-118711252D01*
%TO.C,C4*%
X235700000Y-78259420D02*
X235700000Y-78540580D01*
X234680000Y-78259420D02*
X234680000Y-78540580D01*
%TO.C,SW3*%
X110330000Y-69205000D02*
X110330000Y-66545000D01*
X112930000Y-69205000D02*
X110330000Y-69205000D01*
X112930000Y-69205000D02*
X112930000Y-66545000D01*
X115530000Y-67875000D02*
X115530000Y-66545000D01*
X112930000Y-66545000D02*
X110330000Y-66545000D01*
X115530000Y-66545000D02*
X114200000Y-66545000D01*
%TO.C,C38*%
X144890000Y-132040580D02*
X144890000Y-131759420D01*
X145910000Y-132040580D02*
X145910000Y-131759420D01*
%TO.C,R9*%
X206880000Y-96320000D02*
X206880000Y-92480000D01*
X208720000Y-96320000D02*
X208720000Y-92480000D01*
%TO.C,C12*%
X217340000Y-93011252D02*
X217340000Y-91588748D01*
X220060000Y-93011252D02*
X220060000Y-91588748D01*
%TO.C,C37*%
X170590000Y-100840580D02*
X170590000Y-100559420D01*
X171610000Y-100840580D02*
X171610000Y-100559420D01*
%TO.C,C41*%
X197360000Y-71613748D02*
X197360000Y-73036252D01*
X194640000Y-71613748D02*
X194640000Y-73036252D01*
%TO.C,C6*%
X183980000Y-75465580D02*
X183980000Y-75184420D01*
X185000000Y-75465580D02*
X185000000Y-75184420D01*
%TO.C,C1*%
X183941077Y-125660000D02*
X183659917Y-125660000D01*
X183941077Y-124640000D02*
X183659917Y-124640000D01*
%TO.C,R12*%
X115727064Y-72410000D02*
X114272936Y-72410000D01*
X115727064Y-70590000D02*
X114272936Y-70590000D01*
%TO.C,C22*%
X210410000Y-117288748D02*
X210410000Y-118711252D01*
X207690000Y-117288748D02*
X207690000Y-118711252D01*
%TO.C,U8*%
X198900000Y-73735000D02*
X204910000Y-73735000D01*
X201150000Y-66915000D02*
X204910000Y-66915000D01*
X204910000Y-66915000D02*
X204910000Y-68175000D01*
X204910000Y-73735000D02*
X204910000Y-72475000D01*
%TO.C,Q9*%
X143740000Y-125000000D02*
X143740000Y-125650000D01*
X143740000Y-125000000D02*
X143740000Y-124350000D01*
X146860000Y-125000000D02*
X146860000Y-126675000D01*
X146860000Y-125000000D02*
X146860000Y-124350000D01*
%TO.C,C16*%
X205110000Y-93659420D02*
X205110000Y-93940580D01*
X204090000Y-93659420D02*
X204090000Y-93940580D01*
%TO.C,C32*%
X224359420Y-107190000D02*
X224640580Y-107190000D01*
X224359420Y-108210000D02*
X224640580Y-108210000D01*
%TO.C,V2*%
X105500000Y-70450000D02*
X105500000Y-125950000D01*
X105500000Y-125950000D02*
X134500000Y-125950000D01*
X108900000Y-108000000D02*
X108900000Y-74200000D01*
X108900000Y-108000000D02*
X131100000Y-108000000D01*
X131100000Y-74200000D02*
X108900000Y-74200000D01*
X131100000Y-108000000D02*
X131100000Y-74200000D01*
X134500000Y-70450000D02*
X105500000Y-70450000D01*
X134500000Y-125950000D02*
X134500000Y-70450000D01*
%TO.C,C26*%
X235340580Y-109110000D02*
X235059420Y-109110000D01*
X235340580Y-108090000D02*
X235059420Y-108090000D01*
%TO.C,C39*%
X201890000Y-129640580D02*
X201890000Y-129359420D01*
X202910000Y-129640580D02*
X202910000Y-129359420D01*
%TO.C,R17*%
X121172936Y-66565000D02*
X121627064Y-66565000D01*
X121172936Y-68035000D02*
X121627064Y-68035000D01*
%TO.C,R31*%
X149227064Y-125735000D02*
X148772936Y-125735000D01*
X149227064Y-124265000D02*
X148772936Y-124265000D01*
%TO.C,Q6*%
X160060000Y-127100000D02*
X160060000Y-126450000D01*
X160060000Y-127100000D02*
X160060000Y-127750000D01*
X156940000Y-127100000D02*
X156940000Y-125425000D01*
X156940000Y-127100000D02*
X156940000Y-127750000D01*
%TO.C,D3*%
X144814849Y-75300000D02*
X146019950Y-75300000D01*
X144814849Y-75300000D02*
G75*
G03*
X144814849Y-75300000I-2174899J0D01*
G01*
%TO.C,D2*%
X162550000Y-69690000D02*
X162550000Y-75200000D01*
X159250000Y-69690000D02*
X162550000Y-69690000D01*
X159250000Y-69690000D02*
X159250000Y-75200000D01*
%TO.C,R30*%
X144665000Y-128927064D02*
X144665000Y-128472936D01*
X146135000Y-128927064D02*
X146135000Y-128472936D01*
%TO.C,C13*%
X213090000Y-93011252D02*
X213090000Y-91588748D01*
X215810000Y-93011252D02*
X215810000Y-91588748D01*
%TO.C,C2*%
X231010000Y-130659420D02*
X231010000Y-130940580D01*
X229990000Y-130659420D02*
X229990000Y-130940580D01*
%TO.C,R14*%
X125265000Y-98139564D02*
X125265000Y-97685436D01*
X126735000Y-98139564D02*
X126735000Y-97685436D01*
%TO.C,C36*%
X160590000Y-101840580D02*
X160590000Y-101559420D01*
X161610000Y-101840580D02*
X161610000Y-101559420D01*
%TO.C,R11*%
X120727064Y-72410000D02*
X119272936Y-72410000D01*
X120727064Y-70590000D02*
X119272936Y-70590000D01*
%TO.C,R10*%
X125727064Y-72410000D02*
X124272936Y-72410000D01*
X125727064Y-70590000D02*
X124272936Y-70590000D01*
%TD*%
M02*
