%TF.GenerationSoftware,KiCad,Pcbnew,7.0.7-7.0.7~ubuntu22.04.1*%
%TF.CreationDate,2023-08-15T15:53:25+03:00*%
%TF.ProjectId,xray-v2,78726179-2d76-4322-9e6b-696361645f70,rev?*%
%TF.SameCoordinates,Original*%
%TF.FileFunction,Legend,Top*%
%TF.FilePolarity,Positive*%
%FSLAX46Y46*%
G04 Gerber Fmt 4.6, Leading zero omitted, Abs format (unit mm)*
G04 Created by KiCad (PCBNEW 7.0.7-7.0.7~ubuntu22.04.1) date 2023-08-15 15:53:25*
%MOMM*%
%LPD*%
G01*
G04 APERTURE LIST*
%ADD10C,0.150000*%
%ADD11C,0.300000*%
%ADD12C,0.120000*%
G04 APERTURE END LIST*
D10*
X216800000Y-128600000D02*
G75*
G03*
X216800000Y-128600000I-4609772J0D01*
G01*
X220400000Y-80400000D02*
G75*
G03*
X220400000Y-80400000I-7500000J0D01*
G01*
X115736779Y-67769819D02*
X115736779Y-68579342D01*
X115736779Y-68579342D02*
X115784398Y-68674580D01*
X115784398Y-68674580D02*
X115832017Y-68722200D01*
X115832017Y-68722200D02*
X115927255Y-68769819D01*
X115927255Y-68769819D02*
X116117731Y-68769819D01*
X116117731Y-68769819D02*
X116212969Y-68722200D01*
X116212969Y-68722200D02*
X116260588Y-68674580D01*
X116260588Y-68674580D02*
X116308207Y-68579342D01*
X116308207Y-68579342D02*
X116308207Y-67769819D01*
X116641541Y-67769819D02*
X116974874Y-68769819D01*
X116974874Y-68769819D02*
X117308207Y-67769819D01*
X177536779Y-88059819D02*
X177536779Y-88869342D01*
X177536779Y-88869342D02*
X177584398Y-88964580D01*
X177584398Y-88964580D02*
X177632017Y-89012200D01*
X177632017Y-89012200D02*
X177727255Y-89059819D01*
X177727255Y-89059819D02*
X177917731Y-89059819D01*
X177917731Y-89059819D02*
X178012969Y-89012200D01*
X178012969Y-89012200D02*
X178060588Y-88964580D01*
X178060588Y-88964580D02*
X178108207Y-88869342D01*
X178108207Y-88869342D02*
X178108207Y-88059819D01*
X178441541Y-88059819D02*
X178774874Y-89059819D01*
X178774874Y-89059819D02*
X179108207Y-88059819D01*
X177536779Y-90669819D02*
X177536779Y-89669819D01*
X177536779Y-89669819D02*
X177917731Y-89669819D01*
X177917731Y-89669819D02*
X178012969Y-89717438D01*
X178012969Y-89717438D02*
X178060588Y-89765057D01*
X178060588Y-89765057D02*
X178108207Y-89860295D01*
X178108207Y-89860295D02*
X178108207Y-90003152D01*
X178108207Y-90003152D02*
X178060588Y-90098390D01*
X178060588Y-90098390D02*
X178012969Y-90146009D01*
X178012969Y-90146009D02*
X177917731Y-90193628D01*
X177917731Y-90193628D02*
X177536779Y-90193628D01*
X178441541Y-89669819D02*
X178679636Y-90669819D01*
X178679636Y-90669819D02*
X178870112Y-89955533D01*
X178870112Y-89955533D02*
X179060588Y-90669819D01*
X179060588Y-90669819D02*
X179298684Y-89669819D01*
X179679636Y-90669819D02*
X179679636Y-89669819D01*
X179679636Y-89669819D02*
X180012969Y-90384104D01*
X180012969Y-90384104D02*
X180346302Y-89669819D01*
X180346302Y-89669819D02*
X180346302Y-90669819D01*
D11*
X209440225Y-127700828D02*
X209940225Y-129200828D01*
X209940225Y-129200828D02*
X210440225Y-127700828D01*
X210940224Y-129200828D02*
X210940224Y-128200828D01*
X210940224Y-127700828D02*
X210868796Y-127772257D01*
X210868796Y-127772257D02*
X210940224Y-127843685D01*
X210940224Y-127843685D02*
X211011653Y-127772257D01*
X211011653Y-127772257D02*
X210940224Y-127700828D01*
X210940224Y-127700828D02*
X210940224Y-127843685D01*
X211654510Y-129200828D02*
X211654510Y-127700828D01*
X211654510Y-128272257D02*
X211797368Y-128200828D01*
X211797368Y-128200828D02*
X212083082Y-128200828D01*
X212083082Y-128200828D02*
X212225939Y-128272257D01*
X212225939Y-128272257D02*
X212297368Y-128343685D01*
X212297368Y-128343685D02*
X212368796Y-128486542D01*
X212368796Y-128486542D02*
X212368796Y-128915114D01*
X212368796Y-128915114D02*
X212297368Y-129057971D01*
X212297368Y-129057971D02*
X212225939Y-129129400D01*
X212225939Y-129129400D02*
X212083082Y-129200828D01*
X212083082Y-129200828D02*
X211797368Y-129200828D01*
X211797368Y-129200828D02*
X211654510Y-129129400D01*
X213011653Y-129200828D02*
X213011653Y-128200828D01*
X213011653Y-128486542D02*
X213083082Y-128343685D01*
X213083082Y-128343685D02*
X213154511Y-128272257D01*
X213154511Y-128272257D02*
X213297368Y-128200828D01*
X213297368Y-128200828D02*
X213440225Y-128200828D01*
X214154510Y-129200828D02*
X214011653Y-129129400D01*
X214011653Y-129129400D02*
X213940224Y-129057971D01*
X213940224Y-129057971D02*
X213868796Y-128915114D01*
X213868796Y-128915114D02*
X213868796Y-128486542D01*
X213868796Y-128486542D02*
X213940224Y-128343685D01*
X213940224Y-128343685D02*
X214011653Y-128272257D01*
X214011653Y-128272257D02*
X214154510Y-128200828D01*
X214154510Y-128200828D02*
X214368796Y-128200828D01*
X214368796Y-128200828D02*
X214511653Y-128272257D01*
X214511653Y-128272257D02*
X214583082Y-128343685D01*
X214583082Y-128343685D02*
X214654510Y-128486542D01*
X214654510Y-128486542D02*
X214654510Y-128915114D01*
X214654510Y-128915114D02*
X214583082Y-129057971D01*
X214583082Y-129057971D02*
X214511653Y-129129400D01*
X214511653Y-129129400D02*
X214368796Y-129200828D01*
X214368796Y-129200828D02*
X214154510Y-129200828D01*
D10*
X210289160Y-80622200D02*
X210432017Y-80669819D01*
X210432017Y-80669819D02*
X210670112Y-80669819D01*
X210670112Y-80669819D02*
X210765350Y-80622200D01*
X210765350Y-80622200D02*
X210812969Y-80574580D01*
X210812969Y-80574580D02*
X210860588Y-80479342D01*
X210860588Y-80479342D02*
X210860588Y-80384104D01*
X210860588Y-80384104D02*
X210812969Y-80288866D01*
X210812969Y-80288866D02*
X210765350Y-80241247D01*
X210765350Y-80241247D02*
X210670112Y-80193628D01*
X210670112Y-80193628D02*
X210479636Y-80146009D01*
X210479636Y-80146009D02*
X210384398Y-80098390D01*
X210384398Y-80098390D02*
X210336779Y-80050771D01*
X210336779Y-80050771D02*
X210289160Y-79955533D01*
X210289160Y-79955533D02*
X210289160Y-79860295D01*
X210289160Y-79860295D02*
X210336779Y-79765057D01*
X210336779Y-79765057D02*
X210384398Y-79717438D01*
X210384398Y-79717438D02*
X210479636Y-79669819D01*
X210479636Y-79669819D02*
X210717731Y-79669819D01*
X210717731Y-79669819D02*
X210860588Y-79717438D01*
X211289160Y-80003152D02*
X211289160Y-81003152D01*
X211289160Y-80050771D02*
X211384398Y-80003152D01*
X211384398Y-80003152D02*
X211574874Y-80003152D01*
X211574874Y-80003152D02*
X211670112Y-80050771D01*
X211670112Y-80050771D02*
X211717731Y-80098390D01*
X211717731Y-80098390D02*
X211765350Y-80193628D01*
X211765350Y-80193628D02*
X211765350Y-80479342D01*
X211765350Y-80479342D02*
X211717731Y-80574580D01*
X211717731Y-80574580D02*
X211670112Y-80622200D01*
X211670112Y-80622200D02*
X211574874Y-80669819D01*
X211574874Y-80669819D02*
X211384398Y-80669819D01*
X211384398Y-80669819D02*
X211289160Y-80622200D01*
X212574874Y-80622200D02*
X212479636Y-80669819D01*
X212479636Y-80669819D02*
X212289160Y-80669819D01*
X212289160Y-80669819D02*
X212193922Y-80622200D01*
X212193922Y-80622200D02*
X212146303Y-80526961D01*
X212146303Y-80526961D02*
X212146303Y-80146009D01*
X212146303Y-80146009D02*
X212193922Y-80050771D01*
X212193922Y-80050771D02*
X212289160Y-80003152D01*
X212289160Y-80003152D02*
X212479636Y-80003152D01*
X212479636Y-80003152D02*
X212574874Y-80050771D01*
X212574874Y-80050771D02*
X212622493Y-80146009D01*
X212622493Y-80146009D02*
X212622493Y-80241247D01*
X212622493Y-80241247D02*
X212146303Y-80336485D01*
X213479636Y-80669819D02*
X213479636Y-80146009D01*
X213479636Y-80146009D02*
X213432017Y-80050771D01*
X213432017Y-80050771D02*
X213336779Y-80003152D01*
X213336779Y-80003152D02*
X213146303Y-80003152D01*
X213146303Y-80003152D02*
X213051065Y-80050771D01*
X213479636Y-80622200D02*
X213384398Y-80669819D01*
X213384398Y-80669819D02*
X213146303Y-80669819D01*
X213146303Y-80669819D02*
X213051065Y-80622200D01*
X213051065Y-80622200D02*
X213003446Y-80526961D01*
X213003446Y-80526961D02*
X213003446Y-80431723D01*
X213003446Y-80431723D02*
X213051065Y-80336485D01*
X213051065Y-80336485D02*
X213146303Y-80288866D01*
X213146303Y-80288866D02*
X213384398Y-80288866D01*
X213384398Y-80288866D02*
X213479636Y-80241247D01*
X213955827Y-80669819D02*
X213955827Y-79669819D01*
X214051065Y-80288866D02*
X214336779Y-80669819D01*
X214336779Y-80003152D02*
X213955827Y-80384104D01*
X215146303Y-80622200D02*
X215051065Y-80669819D01*
X215051065Y-80669819D02*
X214860589Y-80669819D01*
X214860589Y-80669819D02*
X214765351Y-80622200D01*
X214765351Y-80622200D02*
X214717732Y-80526961D01*
X214717732Y-80526961D02*
X214717732Y-80146009D01*
X214717732Y-80146009D02*
X214765351Y-80050771D01*
X214765351Y-80050771D02*
X214860589Y-80003152D01*
X214860589Y-80003152D02*
X215051065Y-80003152D01*
X215051065Y-80003152D02*
X215146303Y-80050771D01*
X215146303Y-80050771D02*
X215193922Y-80146009D01*
X215193922Y-80146009D02*
X215193922Y-80241247D01*
X215193922Y-80241247D02*
X214717732Y-80336485D01*
X215622494Y-80669819D02*
X215622494Y-80003152D01*
X215622494Y-80193628D02*
X215670113Y-80098390D01*
X215670113Y-80098390D02*
X215717732Y-80050771D01*
X215717732Y-80050771D02*
X215812970Y-80003152D01*
X215812970Y-80003152D02*
X215908208Y-80003152D01*
X145404761Y-99237557D02*
X145309523Y-99189938D01*
X145309523Y-99189938D02*
X145214285Y-99094700D01*
X145214285Y-99094700D02*
X145071428Y-98951842D01*
X145071428Y-98951842D02*
X144976190Y-98904223D01*
X144976190Y-98904223D02*
X144880952Y-98904223D01*
X144928571Y-99142319D02*
X144833333Y-99094700D01*
X144833333Y-99094700D02*
X144738095Y-98999461D01*
X144738095Y-98999461D02*
X144690476Y-98808985D01*
X144690476Y-98808985D02*
X144690476Y-98475652D01*
X144690476Y-98475652D02*
X144738095Y-98285176D01*
X144738095Y-98285176D02*
X144833333Y-98189938D01*
X144833333Y-98189938D02*
X144928571Y-98142319D01*
X144928571Y-98142319D02*
X145119047Y-98142319D01*
X145119047Y-98142319D02*
X145214285Y-98189938D01*
X145214285Y-98189938D02*
X145309523Y-98285176D01*
X145309523Y-98285176D02*
X145357142Y-98475652D01*
X145357142Y-98475652D02*
X145357142Y-98808985D01*
X145357142Y-98808985D02*
X145309523Y-98999461D01*
X145309523Y-98999461D02*
X145214285Y-99094700D01*
X145214285Y-99094700D02*
X145119047Y-99142319D01*
X145119047Y-99142319D02*
X144928571Y-99142319D01*
X146214285Y-98142319D02*
X146023809Y-98142319D01*
X146023809Y-98142319D02*
X145928571Y-98189938D01*
X145928571Y-98189938D02*
X145880952Y-98237557D01*
X145880952Y-98237557D02*
X145785714Y-98380414D01*
X145785714Y-98380414D02*
X145738095Y-98570890D01*
X145738095Y-98570890D02*
X145738095Y-98951842D01*
X145738095Y-98951842D02*
X145785714Y-99047080D01*
X145785714Y-99047080D02*
X145833333Y-99094700D01*
X145833333Y-99094700D02*
X145928571Y-99142319D01*
X145928571Y-99142319D02*
X146119047Y-99142319D01*
X146119047Y-99142319D02*
X146214285Y-99094700D01*
X146214285Y-99094700D02*
X146261904Y-99047080D01*
X146261904Y-99047080D02*
X146309523Y-98951842D01*
X146309523Y-98951842D02*
X146309523Y-98713747D01*
X146309523Y-98713747D02*
X146261904Y-98618509D01*
X146261904Y-98618509D02*
X146214285Y-98570890D01*
X146214285Y-98570890D02*
X146119047Y-98523271D01*
X146119047Y-98523271D02*
X145928571Y-98523271D01*
X145928571Y-98523271D02*
X145833333Y-98570890D01*
X145833333Y-98570890D02*
X145785714Y-98618509D01*
X145785714Y-98618509D02*
X145738095Y-98713747D01*
X193757142Y-109654819D02*
X193423809Y-109178628D01*
X193185714Y-109654819D02*
X193185714Y-108654819D01*
X193185714Y-108654819D02*
X193566666Y-108654819D01*
X193566666Y-108654819D02*
X193661904Y-108702438D01*
X193661904Y-108702438D02*
X193709523Y-108750057D01*
X193709523Y-108750057D02*
X193757142Y-108845295D01*
X193757142Y-108845295D02*
X193757142Y-108988152D01*
X193757142Y-108988152D02*
X193709523Y-109083390D01*
X193709523Y-109083390D02*
X193661904Y-109131009D01*
X193661904Y-109131009D02*
X193566666Y-109178628D01*
X193566666Y-109178628D02*
X193185714Y-109178628D01*
X194138095Y-108750057D02*
X194185714Y-108702438D01*
X194185714Y-108702438D02*
X194280952Y-108654819D01*
X194280952Y-108654819D02*
X194519047Y-108654819D01*
X194519047Y-108654819D02*
X194614285Y-108702438D01*
X194614285Y-108702438D02*
X194661904Y-108750057D01*
X194661904Y-108750057D02*
X194709523Y-108845295D01*
X194709523Y-108845295D02*
X194709523Y-108940533D01*
X194709523Y-108940533D02*
X194661904Y-109083390D01*
X194661904Y-109083390D02*
X194090476Y-109654819D01*
X194090476Y-109654819D02*
X194709523Y-109654819D01*
X195566666Y-108988152D02*
X195566666Y-109654819D01*
X195328571Y-108607200D02*
X195090476Y-109321485D01*
X195090476Y-109321485D02*
X195709523Y-109321485D01*
X191666666Y-94731009D02*
X191333333Y-94731009D01*
X191333333Y-95254819D02*
X191333333Y-94254819D01*
X191333333Y-94254819D02*
X191809523Y-94254819D01*
X192714285Y-95254819D02*
X192142857Y-95254819D01*
X192428571Y-95254819D02*
X192428571Y-94254819D01*
X192428571Y-94254819D02*
X192333333Y-94397676D01*
X192333333Y-94397676D02*
X192238095Y-94492914D01*
X192238095Y-94492914D02*
X192142857Y-94540533D01*
X188357142Y-116659580D02*
X188309523Y-116707200D01*
X188309523Y-116707200D02*
X188166666Y-116754819D01*
X188166666Y-116754819D02*
X188071428Y-116754819D01*
X188071428Y-116754819D02*
X187928571Y-116707200D01*
X187928571Y-116707200D02*
X187833333Y-116611961D01*
X187833333Y-116611961D02*
X187785714Y-116516723D01*
X187785714Y-116516723D02*
X187738095Y-116326247D01*
X187738095Y-116326247D02*
X187738095Y-116183390D01*
X187738095Y-116183390D02*
X187785714Y-115992914D01*
X187785714Y-115992914D02*
X187833333Y-115897676D01*
X187833333Y-115897676D02*
X187928571Y-115802438D01*
X187928571Y-115802438D02*
X188071428Y-115754819D01*
X188071428Y-115754819D02*
X188166666Y-115754819D01*
X188166666Y-115754819D02*
X188309523Y-115802438D01*
X188309523Y-115802438D02*
X188357142Y-115850057D01*
X188690476Y-115754819D02*
X189309523Y-115754819D01*
X189309523Y-115754819D02*
X188976190Y-116135771D01*
X188976190Y-116135771D02*
X189119047Y-116135771D01*
X189119047Y-116135771D02*
X189214285Y-116183390D01*
X189214285Y-116183390D02*
X189261904Y-116231009D01*
X189261904Y-116231009D02*
X189309523Y-116326247D01*
X189309523Y-116326247D02*
X189309523Y-116564342D01*
X189309523Y-116564342D02*
X189261904Y-116659580D01*
X189261904Y-116659580D02*
X189214285Y-116707200D01*
X189214285Y-116707200D02*
X189119047Y-116754819D01*
X189119047Y-116754819D02*
X188833333Y-116754819D01*
X188833333Y-116754819D02*
X188738095Y-116707200D01*
X188738095Y-116707200D02*
X188690476Y-116659580D01*
X189642857Y-115754819D02*
X190309523Y-115754819D01*
X190309523Y-115754819D02*
X189880952Y-116754819D01*
X195928571Y-132250057D02*
X195833333Y-132202438D01*
X195833333Y-132202438D02*
X195738095Y-132107200D01*
X195738095Y-132107200D02*
X195595238Y-131964342D01*
X195595238Y-131964342D02*
X195500000Y-131916723D01*
X195500000Y-131916723D02*
X195404762Y-131916723D01*
X195452381Y-132154819D02*
X195357143Y-132107200D01*
X195357143Y-132107200D02*
X195261905Y-132011961D01*
X195261905Y-132011961D02*
X195214286Y-131821485D01*
X195214286Y-131821485D02*
X195214286Y-131488152D01*
X195214286Y-131488152D02*
X195261905Y-131297676D01*
X195261905Y-131297676D02*
X195357143Y-131202438D01*
X195357143Y-131202438D02*
X195452381Y-131154819D01*
X195452381Y-131154819D02*
X195642857Y-131154819D01*
X195642857Y-131154819D02*
X195738095Y-131202438D01*
X195738095Y-131202438D02*
X195833333Y-131297676D01*
X195833333Y-131297676D02*
X195880952Y-131488152D01*
X195880952Y-131488152D02*
X195880952Y-131821485D01*
X195880952Y-131821485D02*
X195833333Y-132011961D01*
X195833333Y-132011961D02*
X195738095Y-132107200D01*
X195738095Y-132107200D02*
X195642857Y-132154819D01*
X195642857Y-132154819D02*
X195452381Y-132154819D01*
X196833333Y-132154819D02*
X196261905Y-132154819D01*
X196547619Y-132154819D02*
X196547619Y-131154819D01*
X196547619Y-131154819D02*
X196452381Y-131297676D01*
X196452381Y-131297676D02*
X196357143Y-131392914D01*
X196357143Y-131392914D02*
X196261905Y-131440533D01*
X197690476Y-131488152D02*
X197690476Y-132154819D01*
X197452381Y-131107200D02*
X197214286Y-131821485D01*
X197214286Y-131821485D02*
X197833333Y-131821485D01*
X146757142Y-112859580D02*
X146709523Y-112907200D01*
X146709523Y-112907200D02*
X146566666Y-112954819D01*
X146566666Y-112954819D02*
X146471428Y-112954819D01*
X146471428Y-112954819D02*
X146328571Y-112907200D01*
X146328571Y-112907200D02*
X146233333Y-112811961D01*
X146233333Y-112811961D02*
X146185714Y-112716723D01*
X146185714Y-112716723D02*
X146138095Y-112526247D01*
X146138095Y-112526247D02*
X146138095Y-112383390D01*
X146138095Y-112383390D02*
X146185714Y-112192914D01*
X146185714Y-112192914D02*
X146233333Y-112097676D01*
X146233333Y-112097676D02*
X146328571Y-112002438D01*
X146328571Y-112002438D02*
X146471428Y-111954819D01*
X146471428Y-111954819D02*
X146566666Y-111954819D01*
X146566666Y-111954819D02*
X146709523Y-112002438D01*
X146709523Y-112002438D02*
X146757142Y-112050057D01*
X147090476Y-111954819D02*
X147709523Y-111954819D01*
X147709523Y-111954819D02*
X147376190Y-112335771D01*
X147376190Y-112335771D02*
X147519047Y-112335771D01*
X147519047Y-112335771D02*
X147614285Y-112383390D01*
X147614285Y-112383390D02*
X147661904Y-112431009D01*
X147661904Y-112431009D02*
X147709523Y-112526247D01*
X147709523Y-112526247D02*
X147709523Y-112764342D01*
X147709523Y-112764342D02*
X147661904Y-112859580D01*
X147661904Y-112859580D02*
X147614285Y-112907200D01*
X147614285Y-112907200D02*
X147519047Y-112954819D01*
X147519047Y-112954819D02*
X147233333Y-112954819D01*
X147233333Y-112954819D02*
X147138095Y-112907200D01*
X147138095Y-112907200D02*
X147090476Y-112859580D01*
X148614285Y-111954819D02*
X148138095Y-111954819D01*
X148138095Y-111954819D02*
X148090476Y-112431009D01*
X148090476Y-112431009D02*
X148138095Y-112383390D01*
X148138095Y-112383390D02*
X148233333Y-112335771D01*
X148233333Y-112335771D02*
X148471428Y-112335771D01*
X148471428Y-112335771D02*
X148566666Y-112383390D01*
X148566666Y-112383390D02*
X148614285Y-112431009D01*
X148614285Y-112431009D02*
X148661904Y-112526247D01*
X148661904Y-112526247D02*
X148661904Y-112764342D01*
X148661904Y-112764342D02*
X148614285Y-112859580D01*
X148614285Y-112859580D02*
X148566666Y-112907200D01*
X148566666Y-112907200D02*
X148471428Y-112954819D01*
X148471428Y-112954819D02*
X148233333Y-112954819D01*
X148233333Y-112954819D02*
X148138095Y-112907200D01*
X148138095Y-112907200D02*
X148090476Y-112859580D01*
X135257142Y-124154819D02*
X134923809Y-123678628D01*
X134685714Y-124154819D02*
X134685714Y-123154819D01*
X134685714Y-123154819D02*
X135066666Y-123154819D01*
X135066666Y-123154819D02*
X135161904Y-123202438D01*
X135161904Y-123202438D02*
X135209523Y-123250057D01*
X135209523Y-123250057D02*
X135257142Y-123345295D01*
X135257142Y-123345295D02*
X135257142Y-123488152D01*
X135257142Y-123488152D02*
X135209523Y-123583390D01*
X135209523Y-123583390D02*
X135161904Y-123631009D01*
X135161904Y-123631009D02*
X135066666Y-123678628D01*
X135066666Y-123678628D02*
X134685714Y-123678628D01*
X135590476Y-123154819D02*
X136209523Y-123154819D01*
X136209523Y-123154819D02*
X135876190Y-123535771D01*
X135876190Y-123535771D02*
X136019047Y-123535771D01*
X136019047Y-123535771D02*
X136114285Y-123583390D01*
X136114285Y-123583390D02*
X136161904Y-123631009D01*
X136161904Y-123631009D02*
X136209523Y-123726247D01*
X136209523Y-123726247D02*
X136209523Y-123964342D01*
X136209523Y-123964342D02*
X136161904Y-124059580D01*
X136161904Y-124059580D02*
X136114285Y-124107200D01*
X136114285Y-124107200D02*
X136019047Y-124154819D01*
X136019047Y-124154819D02*
X135733333Y-124154819D01*
X135733333Y-124154819D02*
X135638095Y-124107200D01*
X135638095Y-124107200D02*
X135590476Y-124059580D01*
X137161904Y-124154819D02*
X136590476Y-124154819D01*
X136876190Y-124154819D02*
X136876190Y-123154819D01*
X136876190Y-123154819D02*
X136780952Y-123297676D01*
X136780952Y-123297676D02*
X136685714Y-123392914D01*
X136685714Y-123392914D02*
X136590476Y-123440533D01*
X179866071Y-98700057D02*
X179770833Y-98652438D01*
X179770833Y-98652438D02*
X179675595Y-98557200D01*
X179675595Y-98557200D02*
X179532738Y-98414342D01*
X179532738Y-98414342D02*
X179437500Y-98366723D01*
X179437500Y-98366723D02*
X179342262Y-98366723D01*
X179389881Y-98604819D02*
X179294643Y-98557200D01*
X179294643Y-98557200D02*
X179199405Y-98461961D01*
X179199405Y-98461961D02*
X179151786Y-98271485D01*
X179151786Y-98271485D02*
X179151786Y-97938152D01*
X179151786Y-97938152D02*
X179199405Y-97747676D01*
X179199405Y-97747676D02*
X179294643Y-97652438D01*
X179294643Y-97652438D02*
X179389881Y-97604819D01*
X179389881Y-97604819D02*
X179580357Y-97604819D01*
X179580357Y-97604819D02*
X179675595Y-97652438D01*
X179675595Y-97652438D02*
X179770833Y-97747676D01*
X179770833Y-97747676D02*
X179818452Y-97938152D01*
X179818452Y-97938152D02*
X179818452Y-98271485D01*
X179818452Y-98271485D02*
X179770833Y-98461961D01*
X179770833Y-98461961D02*
X179675595Y-98557200D01*
X179675595Y-98557200D02*
X179580357Y-98604819D01*
X179580357Y-98604819D02*
X179389881Y-98604819D01*
X180770833Y-98604819D02*
X180199405Y-98604819D01*
X180485119Y-98604819D02*
X180485119Y-97604819D01*
X180485119Y-97604819D02*
X180389881Y-97747676D01*
X180389881Y-97747676D02*
X180294643Y-97842914D01*
X180294643Y-97842914D02*
X180199405Y-97890533D01*
X181104167Y-97604819D02*
X181723214Y-97604819D01*
X181723214Y-97604819D02*
X181389881Y-97985771D01*
X181389881Y-97985771D02*
X181532738Y-97985771D01*
X181532738Y-97985771D02*
X181627976Y-98033390D01*
X181627976Y-98033390D02*
X181675595Y-98081009D01*
X181675595Y-98081009D02*
X181723214Y-98176247D01*
X181723214Y-98176247D02*
X181723214Y-98414342D01*
X181723214Y-98414342D02*
X181675595Y-98509580D01*
X181675595Y-98509580D02*
X181627976Y-98557200D01*
X181627976Y-98557200D02*
X181532738Y-98604819D01*
X181532738Y-98604819D02*
X181247024Y-98604819D01*
X181247024Y-98604819D02*
X181151786Y-98557200D01*
X181151786Y-98557200D02*
X181104167Y-98509580D01*
X159966667Y-93207200D02*
X160109524Y-93254819D01*
X160109524Y-93254819D02*
X160347619Y-93254819D01*
X160347619Y-93254819D02*
X160442857Y-93207200D01*
X160442857Y-93207200D02*
X160490476Y-93159580D01*
X160490476Y-93159580D02*
X160538095Y-93064342D01*
X160538095Y-93064342D02*
X160538095Y-92969104D01*
X160538095Y-92969104D02*
X160490476Y-92873866D01*
X160490476Y-92873866D02*
X160442857Y-92826247D01*
X160442857Y-92826247D02*
X160347619Y-92778628D01*
X160347619Y-92778628D02*
X160157143Y-92731009D01*
X160157143Y-92731009D02*
X160061905Y-92683390D01*
X160061905Y-92683390D02*
X160014286Y-92635771D01*
X160014286Y-92635771D02*
X159966667Y-92540533D01*
X159966667Y-92540533D02*
X159966667Y-92445295D01*
X159966667Y-92445295D02*
X160014286Y-92350057D01*
X160014286Y-92350057D02*
X160061905Y-92302438D01*
X160061905Y-92302438D02*
X160157143Y-92254819D01*
X160157143Y-92254819D02*
X160395238Y-92254819D01*
X160395238Y-92254819D02*
X160538095Y-92302438D01*
X160871429Y-92254819D02*
X161109524Y-93254819D01*
X161109524Y-93254819D02*
X161300000Y-92540533D01*
X161300000Y-92540533D02*
X161490476Y-93254819D01*
X161490476Y-93254819D02*
X161728572Y-92254819D01*
X162014286Y-92254819D02*
X162633333Y-92254819D01*
X162633333Y-92254819D02*
X162300000Y-92635771D01*
X162300000Y-92635771D02*
X162442857Y-92635771D01*
X162442857Y-92635771D02*
X162538095Y-92683390D01*
X162538095Y-92683390D02*
X162585714Y-92731009D01*
X162585714Y-92731009D02*
X162633333Y-92826247D01*
X162633333Y-92826247D02*
X162633333Y-93064342D01*
X162633333Y-93064342D02*
X162585714Y-93159580D01*
X162585714Y-93159580D02*
X162538095Y-93207200D01*
X162538095Y-93207200D02*
X162442857Y-93254819D01*
X162442857Y-93254819D02*
X162157143Y-93254819D01*
X162157143Y-93254819D02*
X162061905Y-93207200D01*
X162061905Y-93207200D02*
X162014286Y-93159580D01*
X112154761Y-102950057D02*
X112059523Y-102902438D01*
X112059523Y-102902438D02*
X111964285Y-102807200D01*
X111964285Y-102807200D02*
X111821428Y-102664342D01*
X111821428Y-102664342D02*
X111726190Y-102616723D01*
X111726190Y-102616723D02*
X111630952Y-102616723D01*
X111678571Y-102854819D02*
X111583333Y-102807200D01*
X111583333Y-102807200D02*
X111488095Y-102711961D01*
X111488095Y-102711961D02*
X111440476Y-102521485D01*
X111440476Y-102521485D02*
X111440476Y-102188152D01*
X111440476Y-102188152D02*
X111488095Y-101997676D01*
X111488095Y-101997676D02*
X111583333Y-101902438D01*
X111583333Y-101902438D02*
X111678571Y-101854819D01*
X111678571Y-101854819D02*
X111869047Y-101854819D01*
X111869047Y-101854819D02*
X111964285Y-101902438D01*
X111964285Y-101902438D02*
X112059523Y-101997676D01*
X112059523Y-101997676D02*
X112107142Y-102188152D01*
X112107142Y-102188152D02*
X112107142Y-102521485D01*
X112107142Y-102521485D02*
X112059523Y-102711961D01*
X112059523Y-102711961D02*
X111964285Y-102807200D01*
X111964285Y-102807200D02*
X111869047Y-102854819D01*
X111869047Y-102854819D02*
X111678571Y-102854819D01*
X112583333Y-102854819D02*
X112773809Y-102854819D01*
X112773809Y-102854819D02*
X112869047Y-102807200D01*
X112869047Y-102807200D02*
X112916666Y-102759580D01*
X112916666Y-102759580D02*
X113011904Y-102616723D01*
X113011904Y-102616723D02*
X113059523Y-102426247D01*
X113059523Y-102426247D02*
X113059523Y-102045295D01*
X113059523Y-102045295D02*
X113011904Y-101950057D01*
X113011904Y-101950057D02*
X112964285Y-101902438D01*
X112964285Y-101902438D02*
X112869047Y-101854819D01*
X112869047Y-101854819D02*
X112678571Y-101854819D01*
X112678571Y-101854819D02*
X112583333Y-101902438D01*
X112583333Y-101902438D02*
X112535714Y-101950057D01*
X112535714Y-101950057D02*
X112488095Y-102045295D01*
X112488095Y-102045295D02*
X112488095Y-102283390D01*
X112488095Y-102283390D02*
X112535714Y-102378628D01*
X112535714Y-102378628D02*
X112583333Y-102426247D01*
X112583333Y-102426247D02*
X112678571Y-102473866D01*
X112678571Y-102473866D02*
X112869047Y-102473866D01*
X112869047Y-102473866D02*
X112964285Y-102426247D01*
X112964285Y-102426247D02*
X113011904Y-102378628D01*
X113011904Y-102378628D02*
X113059523Y-102283390D01*
X179566666Y-123854819D02*
X179566666Y-124569104D01*
X179566666Y-124569104D02*
X179519047Y-124711961D01*
X179519047Y-124711961D02*
X179423809Y-124807200D01*
X179423809Y-124807200D02*
X179280952Y-124854819D01*
X179280952Y-124854819D02*
X179185714Y-124854819D01*
X180042857Y-124854819D02*
X180042857Y-123854819D01*
X180042857Y-123854819D02*
X180423809Y-123854819D01*
X180423809Y-123854819D02*
X180519047Y-123902438D01*
X180519047Y-123902438D02*
X180566666Y-123950057D01*
X180566666Y-123950057D02*
X180614285Y-124045295D01*
X180614285Y-124045295D02*
X180614285Y-124188152D01*
X180614285Y-124188152D02*
X180566666Y-124283390D01*
X180566666Y-124283390D02*
X180519047Y-124331009D01*
X180519047Y-124331009D02*
X180423809Y-124378628D01*
X180423809Y-124378628D02*
X180042857Y-124378628D01*
X180995238Y-123950057D02*
X181042857Y-123902438D01*
X181042857Y-123902438D02*
X181138095Y-123854819D01*
X181138095Y-123854819D02*
X181376190Y-123854819D01*
X181376190Y-123854819D02*
X181471428Y-123902438D01*
X181471428Y-123902438D02*
X181519047Y-123950057D01*
X181519047Y-123950057D02*
X181566666Y-124045295D01*
X181566666Y-124045295D02*
X181566666Y-124140533D01*
X181566666Y-124140533D02*
X181519047Y-124283390D01*
X181519047Y-124283390D02*
X180947619Y-124854819D01*
X180947619Y-124854819D02*
X181566666Y-124854819D01*
X177152381Y-125154819D02*
X177152381Y-125964342D01*
X177152381Y-125964342D02*
X177200000Y-126059580D01*
X177200000Y-126059580D02*
X177247619Y-126107200D01*
X177247619Y-126107200D02*
X177342857Y-126154819D01*
X177342857Y-126154819D02*
X177533333Y-126154819D01*
X177533333Y-126154819D02*
X177628571Y-126107200D01*
X177628571Y-126107200D02*
X177676190Y-126059580D01*
X177676190Y-126059580D02*
X177723809Y-125964342D01*
X177723809Y-125964342D02*
X177723809Y-125154819D01*
X178152381Y-126107200D02*
X178295238Y-126154819D01*
X178295238Y-126154819D02*
X178533333Y-126154819D01*
X178533333Y-126154819D02*
X178628571Y-126107200D01*
X178628571Y-126107200D02*
X178676190Y-126059580D01*
X178676190Y-126059580D02*
X178723809Y-125964342D01*
X178723809Y-125964342D02*
X178723809Y-125869104D01*
X178723809Y-125869104D02*
X178676190Y-125773866D01*
X178676190Y-125773866D02*
X178628571Y-125726247D01*
X178628571Y-125726247D02*
X178533333Y-125678628D01*
X178533333Y-125678628D02*
X178342857Y-125631009D01*
X178342857Y-125631009D02*
X178247619Y-125583390D01*
X178247619Y-125583390D02*
X178200000Y-125535771D01*
X178200000Y-125535771D02*
X178152381Y-125440533D01*
X178152381Y-125440533D02*
X178152381Y-125345295D01*
X178152381Y-125345295D02*
X178200000Y-125250057D01*
X178200000Y-125250057D02*
X178247619Y-125202438D01*
X178247619Y-125202438D02*
X178342857Y-125154819D01*
X178342857Y-125154819D02*
X178580952Y-125154819D01*
X178580952Y-125154819D02*
X178723809Y-125202438D01*
X179485714Y-125631009D02*
X179628571Y-125678628D01*
X179628571Y-125678628D02*
X179676190Y-125726247D01*
X179676190Y-125726247D02*
X179723809Y-125821485D01*
X179723809Y-125821485D02*
X179723809Y-125964342D01*
X179723809Y-125964342D02*
X179676190Y-126059580D01*
X179676190Y-126059580D02*
X179628571Y-126107200D01*
X179628571Y-126107200D02*
X179533333Y-126154819D01*
X179533333Y-126154819D02*
X179152381Y-126154819D01*
X179152381Y-126154819D02*
X179152381Y-125154819D01*
X179152381Y-125154819D02*
X179485714Y-125154819D01*
X179485714Y-125154819D02*
X179580952Y-125202438D01*
X179580952Y-125202438D02*
X179628571Y-125250057D01*
X179628571Y-125250057D02*
X179676190Y-125345295D01*
X179676190Y-125345295D02*
X179676190Y-125440533D01*
X179676190Y-125440533D02*
X179628571Y-125535771D01*
X179628571Y-125535771D02*
X179580952Y-125583390D01*
X179580952Y-125583390D02*
X179485714Y-125631009D01*
X179485714Y-125631009D02*
X179152381Y-125631009D01*
X180485714Y-125631009D02*
X180152381Y-125631009D01*
X180152381Y-126154819D02*
X180152381Y-125154819D01*
X180152381Y-125154819D02*
X180628571Y-125154819D01*
X180771429Y-126250057D02*
X181533333Y-126250057D01*
X181771429Y-125631009D02*
X182104762Y-125631009D01*
X182247619Y-126154819D02*
X181771429Y-126154819D01*
X181771429Y-126154819D02*
X181771429Y-125154819D01*
X181771429Y-125154819D02*
X182247619Y-125154819D01*
X182676191Y-126154819D02*
X182676191Y-125154819D01*
X182676191Y-125154819D02*
X183247619Y-126154819D01*
X183247619Y-126154819D02*
X183247619Y-125154819D01*
X221757142Y-117359580D02*
X221709523Y-117407200D01*
X221709523Y-117407200D02*
X221566666Y-117454819D01*
X221566666Y-117454819D02*
X221471428Y-117454819D01*
X221471428Y-117454819D02*
X221328571Y-117407200D01*
X221328571Y-117407200D02*
X221233333Y-117311961D01*
X221233333Y-117311961D02*
X221185714Y-117216723D01*
X221185714Y-117216723D02*
X221138095Y-117026247D01*
X221138095Y-117026247D02*
X221138095Y-116883390D01*
X221138095Y-116883390D02*
X221185714Y-116692914D01*
X221185714Y-116692914D02*
X221233333Y-116597676D01*
X221233333Y-116597676D02*
X221328571Y-116502438D01*
X221328571Y-116502438D02*
X221471428Y-116454819D01*
X221471428Y-116454819D02*
X221566666Y-116454819D01*
X221566666Y-116454819D02*
X221709523Y-116502438D01*
X221709523Y-116502438D02*
X221757142Y-116550057D01*
X222138095Y-116550057D02*
X222185714Y-116502438D01*
X222185714Y-116502438D02*
X222280952Y-116454819D01*
X222280952Y-116454819D02*
X222519047Y-116454819D01*
X222519047Y-116454819D02*
X222614285Y-116502438D01*
X222614285Y-116502438D02*
X222661904Y-116550057D01*
X222661904Y-116550057D02*
X222709523Y-116645295D01*
X222709523Y-116645295D02*
X222709523Y-116740533D01*
X222709523Y-116740533D02*
X222661904Y-116883390D01*
X222661904Y-116883390D02*
X222090476Y-117454819D01*
X222090476Y-117454819D02*
X222709523Y-117454819D01*
X223566666Y-116454819D02*
X223376190Y-116454819D01*
X223376190Y-116454819D02*
X223280952Y-116502438D01*
X223280952Y-116502438D02*
X223233333Y-116550057D01*
X223233333Y-116550057D02*
X223138095Y-116692914D01*
X223138095Y-116692914D02*
X223090476Y-116883390D01*
X223090476Y-116883390D02*
X223090476Y-117264342D01*
X223090476Y-117264342D02*
X223138095Y-117359580D01*
X223138095Y-117359580D02*
X223185714Y-117407200D01*
X223185714Y-117407200D02*
X223280952Y-117454819D01*
X223280952Y-117454819D02*
X223471428Y-117454819D01*
X223471428Y-117454819D02*
X223566666Y-117407200D01*
X223566666Y-117407200D02*
X223614285Y-117359580D01*
X223614285Y-117359580D02*
X223661904Y-117264342D01*
X223661904Y-117264342D02*
X223661904Y-117026247D01*
X223661904Y-117026247D02*
X223614285Y-116931009D01*
X223614285Y-116931009D02*
X223566666Y-116883390D01*
X223566666Y-116883390D02*
X223471428Y-116835771D01*
X223471428Y-116835771D02*
X223280952Y-116835771D01*
X223280952Y-116835771D02*
X223185714Y-116883390D01*
X223185714Y-116883390D02*
X223138095Y-116931009D01*
X223138095Y-116931009D02*
X223090476Y-117026247D01*
X188138095Y-108554819D02*
X188138095Y-109364342D01*
X188138095Y-109364342D02*
X188185714Y-109459580D01*
X188185714Y-109459580D02*
X188233333Y-109507200D01*
X188233333Y-109507200D02*
X188328571Y-109554819D01*
X188328571Y-109554819D02*
X188519047Y-109554819D01*
X188519047Y-109554819D02*
X188614285Y-109507200D01*
X188614285Y-109507200D02*
X188661904Y-109459580D01*
X188661904Y-109459580D02*
X188709523Y-109364342D01*
X188709523Y-109364342D02*
X188709523Y-108554819D01*
X189328571Y-108983390D02*
X189233333Y-108935771D01*
X189233333Y-108935771D02*
X189185714Y-108888152D01*
X189185714Y-108888152D02*
X189138095Y-108792914D01*
X189138095Y-108792914D02*
X189138095Y-108745295D01*
X189138095Y-108745295D02*
X189185714Y-108650057D01*
X189185714Y-108650057D02*
X189233333Y-108602438D01*
X189233333Y-108602438D02*
X189328571Y-108554819D01*
X189328571Y-108554819D02*
X189519047Y-108554819D01*
X189519047Y-108554819D02*
X189614285Y-108602438D01*
X189614285Y-108602438D02*
X189661904Y-108650057D01*
X189661904Y-108650057D02*
X189709523Y-108745295D01*
X189709523Y-108745295D02*
X189709523Y-108792914D01*
X189709523Y-108792914D02*
X189661904Y-108888152D01*
X189661904Y-108888152D02*
X189614285Y-108935771D01*
X189614285Y-108935771D02*
X189519047Y-108983390D01*
X189519047Y-108983390D02*
X189328571Y-108983390D01*
X189328571Y-108983390D02*
X189233333Y-109031009D01*
X189233333Y-109031009D02*
X189185714Y-109078628D01*
X189185714Y-109078628D02*
X189138095Y-109173866D01*
X189138095Y-109173866D02*
X189138095Y-109364342D01*
X189138095Y-109364342D02*
X189185714Y-109459580D01*
X189185714Y-109459580D02*
X189233333Y-109507200D01*
X189233333Y-109507200D02*
X189328571Y-109554819D01*
X189328571Y-109554819D02*
X189519047Y-109554819D01*
X189519047Y-109554819D02*
X189614285Y-109507200D01*
X189614285Y-109507200D02*
X189661904Y-109459580D01*
X189661904Y-109459580D02*
X189709523Y-109364342D01*
X189709523Y-109364342D02*
X189709523Y-109173866D01*
X189709523Y-109173866D02*
X189661904Y-109078628D01*
X189661904Y-109078628D02*
X189614285Y-109031009D01*
X189614285Y-109031009D02*
X189519047Y-108983390D01*
X199433333Y-79379819D02*
X199100000Y-78903628D01*
X198861905Y-79379819D02*
X198861905Y-78379819D01*
X198861905Y-78379819D02*
X199242857Y-78379819D01*
X199242857Y-78379819D02*
X199338095Y-78427438D01*
X199338095Y-78427438D02*
X199385714Y-78475057D01*
X199385714Y-78475057D02*
X199433333Y-78570295D01*
X199433333Y-78570295D02*
X199433333Y-78713152D01*
X199433333Y-78713152D02*
X199385714Y-78808390D01*
X199385714Y-78808390D02*
X199338095Y-78856009D01*
X199338095Y-78856009D02*
X199242857Y-78903628D01*
X199242857Y-78903628D02*
X198861905Y-78903628D01*
X200385714Y-79379819D02*
X199814286Y-79379819D01*
X200100000Y-79379819D02*
X200100000Y-78379819D01*
X200100000Y-78379819D02*
X200004762Y-78522676D01*
X200004762Y-78522676D02*
X199909524Y-78617914D01*
X199909524Y-78617914D02*
X199814286Y-78665533D01*
X151061905Y-132154819D02*
X151061905Y-131154819D01*
X151061905Y-131154819D02*
X151300000Y-131154819D01*
X151300000Y-131154819D02*
X151442857Y-131202438D01*
X151442857Y-131202438D02*
X151538095Y-131297676D01*
X151538095Y-131297676D02*
X151585714Y-131392914D01*
X151585714Y-131392914D02*
X151633333Y-131583390D01*
X151633333Y-131583390D02*
X151633333Y-131726247D01*
X151633333Y-131726247D02*
X151585714Y-131916723D01*
X151585714Y-131916723D02*
X151538095Y-132011961D01*
X151538095Y-132011961D02*
X151442857Y-132107200D01*
X151442857Y-132107200D02*
X151300000Y-132154819D01*
X151300000Y-132154819D02*
X151061905Y-132154819D01*
X152490476Y-131154819D02*
X152300000Y-131154819D01*
X152300000Y-131154819D02*
X152204762Y-131202438D01*
X152204762Y-131202438D02*
X152157143Y-131250057D01*
X152157143Y-131250057D02*
X152061905Y-131392914D01*
X152061905Y-131392914D02*
X152014286Y-131583390D01*
X152014286Y-131583390D02*
X152014286Y-131964342D01*
X152014286Y-131964342D02*
X152061905Y-132059580D01*
X152061905Y-132059580D02*
X152109524Y-132107200D01*
X152109524Y-132107200D02*
X152204762Y-132154819D01*
X152204762Y-132154819D02*
X152395238Y-132154819D01*
X152395238Y-132154819D02*
X152490476Y-132107200D01*
X152490476Y-132107200D02*
X152538095Y-132059580D01*
X152538095Y-132059580D02*
X152585714Y-131964342D01*
X152585714Y-131964342D02*
X152585714Y-131726247D01*
X152585714Y-131726247D02*
X152538095Y-131631009D01*
X152538095Y-131631009D02*
X152490476Y-131583390D01*
X152490476Y-131583390D02*
X152395238Y-131535771D01*
X152395238Y-131535771D02*
X152204762Y-131535771D01*
X152204762Y-131535771D02*
X152109524Y-131583390D01*
X152109524Y-131583390D02*
X152061905Y-131631009D01*
X152061905Y-131631009D02*
X152014286Y-131726247D01*
X206233333Y-71684580D02*
X206185714Y-71732200D01*
X206185714Y-71732200D02*
X206042857Y-71779819D01*
X206042857Y-71779819D02*
X205947619Y-71779819D01*
X205947619Y-71779819D02*
X205804762Y-71732200D01*
X205804762Y-71732200D02*
X205709524Y-71636961D01*
X205709524Y-71636961D02*
X205661905Y-71541723D01*
X205661905Y-71541723D02*
X205614286Y-71351247D01*
X205614286Y-71351247D02*
X205614286Y-71208390D01*
X205614286Y-71208390D02*
X205661905Y-71017914D01*
X205661905Y-71017914D02*
X205709524Y-70922676D01*
X205709524Y-70922676D02*
X205804762Y-70827438D01*
X205804762Y-70827438D02*
X205947619Y-70779819D01*
X205947619Y-70779819D02*
X206042857Y-70779819D01*
X206042857Y-70779819D02*
X206185714Y-70827438D01*
X206185714Y-70827438D02*
X206233333Y-70875057D01*
X206566667Y-70779819D02*
X207185714Y-70779819D01*
X207185714Y-70779819D02*
X206852381Y-71160771D01*
X206852381Y-71160771D02*
X206995238Y-71160771D01*
X206995238Y-71160771D02*
X207090476Y-71208390D01*
X207090476Y-71208390D02*
X207138095Y-71256009D01*
X207138095Y-71256009D02*
X207185714Y-71351247D01*
X207185714Y-71351247D02*
X207185714Y-71589342D01*
X207185714Y-71589342D02*
X207138095Y-71684580D01*
X207138095Y-71684580D02*
X207090476Y-71732200D01*
X207090476Y-71732200D02*
X206995238Y-71779819D01*
X206995238Y-71779819D02*
X206709524Y-71779819D01*
X206709524Y-71779819D02*
X206614286Y-71732200D01*
X206614286Y-71732200D02*
X206566667Y-71684580D01*
X206733333Y-100454819D02*
X206257143Y-100454819D01*
X206257143Y-100454819D02*
X206257143Y-99454819D01*
X207590476Y-100454819D02*
X207019048Y-100454819D01*
X207304762Y-100454819D02*
X207304762Y-99454819D01*
X207304762Y-99454819D02*
X207209524Y-99597676D01*
X207209524Y-99597676D02*
X207114286Y-99692914D01*
X207114286Y-99692914D02*
X207019048Y-99740533D01*
X164257142Y-85359580D02*
X164209523Y-85407200D01*
X164209523Y-85407200D02*
X164066666Y-85454819D01*
X164066666Y-85454819D02*
X163971428Y-85454819D01*
X163971428Y-85454819D02*
X163828571Y-85407200D01*
X163828571Y-85407200D02*
X163733333Y-85311961D01*
X163733333Y-85311961D02*
X163685714Y-85216723D01*
X163685714Y-85216723D02*
X163638095Y-85026247D01*
X163638095Y-85026247D02*
X163638095Y-84883390D01*
X163638095Y-84883390D02*
X163685714Y-84692914D01*
X163685714Y-84692914D02*
X163733333Y-84597676D01*
X163733333Y-84597676D02*
X163828571Y-84502438D01*
X163828571Y-84502438D02*
X163971428Y-84454819D01*
X163971428Y-84454819D02*
X164066666Y-84454819D01*
X164066666Y-84454819D02*
X164209523Y-84502438D01*
X164209523Y-84502438D02*
X164257142Y-84550057D01*
X165209523Y-85454819D02*
X164638095Y-85454819D01*
X164923809Y-85454819D02*
X164923809Y-84454819D01*
X164923809Y-84454819D02*
X164828571Y-84597676D01*
X164828571Y-84597676D02*
X164733333Y-84692914D01*
X164733333Y-84692914D02*
X164638095Y-84740533D01*
X165590476Y-84550057D02*
X165638095Y-84502438D01*
X165638095Y-84502438D02*
X165733333Y-84454819D01*
X165733333Y-84454819D02*
X165971428Y-84454819D01*
X165971428Y-84454819D02*
X166066666Y-84502438D01*
X166066666Y-84502438D02*
X166114285Y-84550057D01*
X166114285Y-84550057D02*
X166161904Y-84645295D01*
X166161904Y-84645295D02*
X166161904Y-84740533D01*
X166161904Y-84740533D02*
X166114285Y-84883390D01*
X166114285Y-84883390D02*
X165542857Y-85454819D01*
X165542857Y-85454819D02*
X166161904Y-85454819D01*
X174238095Y-84779819D02*
X174809523Y-84779819D01*
X174523809Y-85779819D02*
X174523809Y-84779819D01*
X175666666Y-85779819D02*
X175095238Y-85779819D01*
X175380952Y-85779819D02*
X175380952Y-84779819D01*
X175380952Y-84779819D02*
X175285714Y-84922676D01*
X175285714Y-84922676D02*
X175190476Y-85017914D01*
X175190476Y-85017914D02*
X175095238Y-85065533D01*
X175757142Y-98454819D02*
X175423809Y-97978628D01*
X175185714Y-98454819D02*
X175185714Y-97454819D01*
X175185714Y-97454819D02*
X175566666Y-97454819D01*
X175566666Y-97454819D02*
X175661904Y-97502438D01*
X175661904Y-97502438D02*
X175709523Y-97550057D01*
X175709523Y-97550057D02*
X175757142Y-97645295D01*
X175757142Y-97645295D02*
X175757142Y-97788152D01*
X175757142Y-97788152D02*
X175709523Y-97883390D01*
X175709523Y-97883390D02*
X175661904Y-97931009D01*
X175661904Y-97931009D02*
X175566666Y-97978628D01*
X175566666Y-97978628D02*
X175185714Y-97978628D01*
X176090476Y-97454819D02*
X176709523Y-97454819D01*
X176709523Y-97454819D02*
X176376190Y-97835771D01*
X176376190Y-97835771D02*
X176519047Y-97835771D01*
X176519047Y-97835771D02*
X176614285Y-97883390D01*
X176614285Y-97883390D02*
X176661904Y-97931009D01*
X176661904Y-97931009D02*
X176709523Y-98026247D01*
X176709523Y-98026247D02*
X176709523Y-98264342D01*
X176709523Y-98264342D02*
X176661904Y-98359580D01*
X176661904Y-98359580D02*
X176614285Y-98407200D01*
X176614285Y-98407200D02*
X176519047Y-98454819D01*
X176519047Y-98454819D02*
X176233333Y-98454819D01*
X176233333Y-98454819D02*
X176138095Y-98407200D01*
X176138095Y-98407200D02*
X176090476Y-98359580D01*
X177042857Y-97454819D02*
X177661904Y-97454819D01*
X177661904Y-97454819D02*
X177328571Y-97835771D01*
X177328571Y-97835771D02*
X177471428Y-97835771D01*
X177471428Y-97835771D02*
X177566666Y-97883390D01*
X177566666Y-97883390D02*
X177614285Y-97931009D01*
X177614285Y-97931009D02*
X177661904Y-98026247D01*
X177661904Y-98026247D02*
X177661904Y-98264342D01*
X177661904Y-98264342D02*
X177614285Y-98359580D01*
X177614285Y-98359580D02*
X177566666Y-98407200D01*
X177566666Y-98407200D02*
X177471428Y-98454819D01*
X177471428Y-98454819D02*
X177185714Y-98454819D01*
X177185714Y-98454819D02*
X177090476Y-98407200D01*
X177090476Y-98407200D02*
X177042857Y-98359580D01*
X115757142Y-97654819D02*
X115423809Y-97178628D01*
X115185714Y-97654819D02*
X115185714Y-96654819D01*
X115185714Y-96654819D02*
X115566666Y-96654819D01*
X115566666Y-96654819D02*
X115661904Y-96702438D01*
X115661904Y-96702438D02*
X115709523Y-96750057D01*
X115709523Y-96750057D02*
X115757142Y-96845295D01*
X115757142Y-96845295D02*
X115757142Y-96988152D01*
X115757142Y-96988152D02*
X115709523Y-97083390D01*
X115709523Y-97083390D02*
X115661904Y-97131009D01*
X115661904Y-97131009D02*
X115566666Y-97178628D01*
X115566666Y-97178628D02*
X115185714Y-97178628D01*
X116138095Y-96750057D02*
X116185714Y-96702438D01*
X116185714Y-96702438D02*
X116280952Y-96654819D01*
X116280952Y-96654819D02*
X116519047Y-96654819D01*
X116519047Y-96654819D02*
X116614285Y-96702438D01*
X116614285Y-96702438D02*
X116661904Y-96750057D01*
X116661904Y-96750057D02*
X116709523Y-96845295D01*
X116709523Y-96845295D02*
X116709523Y-96940533D01*
X116709523Y-96940533D02*
X116661904Y-97083390D01*
X116661904Y-97083390D02*
X116090476Y-97654819D01*
X116090476Y-97654819D02*
X116709523Y-97654819D01*
X117280952Y-97083390D02*
X117185714Y-97035771D01*
X117185714Y-97035771D02*
X117138095Y-96988152D01*
X117138095Y-96988152D02*
X117090476Y-96892914D01*
X117090476Y-96892914D02*
X117090476Y-96845295D01*
X117090476Y-96845295D02*
X117138095Y-96750057D01*
X117138095Y-96750057D02*
X117185714Y-96702438D01*
X117185714Y-96702438D02*
X117280952Y-96654819D01*
X117280952Y-96654819D02*
X117471428Y-96654819D01*
X117471428Y-96654819D02*
X117566666Y-96702438D01*
X117566666Y-96702438D02*
X117614285Y-96750057D01*
X117614285Y-96750057D02*
X117661904Y-96845295D01*
X117661904Y-96845295D02*
X117661904Y-96892914D01*
X117661904Y-96892914D02*
X117614285Y-96988152D01*
X117614285Y-96988152D02*
X117566666Y-97035771D01*
X117566666Y-97035771D02*
X117471428Y-97083390D01*
X117471428Y-97083390D02*
X117280952Y-97083390D01*
X117280952Y-97083390D02*
X117185714Y-97131009D01*
X117185714Y-97131009D02*
X117138095Y-97178628D01*
X117138095Y-97178628D02*
X117090476Y-97273866D01*
X117090476Y-97273866D02*
X117090476Y-97464342D01*
X117090476Y-97464342D02*
X117138095Y-97559580D01*
X117138095Y-97559580D02*
X117185714Y-97607200D01*
X117185714Y-97607200D02*
X117280952Y-97654819D01*
X117280952Y-97654819D02*
X117471428Y-97654819D01*
X117471428Y-97654819D02*
X117566666Y-97607200D01*
X117566666Y-97607200D02*
X117614285Y-97559580D01*
X117614285Y-97559580D02*
X117661904Y-97464342D01*
X117661904Y-97464342D02*
X117661904Y-97273866D01*
X117661904Y-97273866D02*
X117614285Y-97178628D01*
X117614285Y-97178628D02*
X117566666Y-97131009D01*
X117566666Y-97131009D02*
X117471428Y-97083390D01*
X196557142Y-109654819D02*
X196223809Y-109178628D01*
X195985714Y-109654819D02*
X195985714Y-108654819D01*
X195985714Y-108654819D02*
X196366666Y-108654819D01*
X196366666Y-108654819D02*
X196461904Y-108702438D01*
X196461904Y-108702438D02*
X196509523Y-108750057D01*
X196509523Y-108750057D02*
X196557142Y-108845295D01*
X196557142Y-108845295D02*
X196557142Y-108988152D01*
X196557142Y-108988152D02*
X196509523Y-109083390D01*
X196509523Y-109083390D02*
X196461904Y-109131009D01*
X196461904Y-109131009D02*
X196366666Y-109178628D01*
X196366666Y-109178628D02*
X195985714Y-109178628D01*
X196938095Y-108750057D02*
X196985714Y-108702438D01*
X196985714Y-108702438D02*
X197080952Y-108654819D01*
X197080952Y-108654819D02*
X197319047Y-108654819D01*
X197319047Y-108654819D02*
X197414285Y-108702438D01*
X197414285Y-108702438D02*
X197461904Y-108750057D01*
X197461904Y-108750057D02*
X197509523Y-108845295D01*
X197509523Y-108845295D02*
X197509523Y-108940533D01*
X197509523Y-108940533D02*
X197461904Y-109083390D01*
X197461904Y-109083390D02*
X196890476Y-109654819D01*
X196890476Y-109654819D02*
X197509523Y-109654819D01*
X197842857Y-108654819D02*
X198461904Y-108654819D01*
X198461904Y-108654819D02*
X198128571Y-109035771D01*
X198128571Y-109035771D02*
X198271428Y-109035771D01*
X198271428Y-109035771D02*
X198366666Y-109083390D01*
X198366666Y-109083390D02*
X198414285Y-109131009D01*
X198414285Y-109131009D02*
X198461904Y-109226247D01*
X198461904Y-109226247D02*
X198461904Y-109464342D01*
X198461904Y-109464342D02*
X198414285Y-109559580D01*
X198414285Y-109559580D02*
X198366666Y-109607200D01*
X198366666Y-109607200D02*
X198271428Y-109654819D01*
X198271428Y-109654819D02*
X197985714Y-109654819D01*
X197985714Y-109654819D02*
X197890476Y-109607200D01*
X197890476Y-109607200D02*
X197842857Y-109559580D01*
X230566666Y-130354819D02*
X230566666Y-131069104D01*
X230566666Y-131069104D02*
X230519047Y-131211961D01*
X230519047Y-131211961D02*
X230423809Y-131307200D01*
X230423809Y-131307200D02*
X230280952Y-131354819D01*
X230280952Y-131354819D02*
X230185714Y-131354819D01*
X230947619Y-130354819D02*
X231566666Y-130354819D01*
X231566666Y-130354819D02*
X231233333Y-130735771D01*
X231233333Y-130735771D02*
X231376190Y-130735771D01*
X231376190Y-130735771D02*
X231471428Y-130783390D01*
X231471428Y-130783390D02*
X231519047Y-130831009D01*
X231519047Y-130831009D02*
X231566666Y-130926247D01*
X231566666Y-130926247D02*
X231566666Y-131164342D01*
X231566666Y-131164342D02*
X231519047Y-131259580D01*
X231519047Y-131259580D02*
X231471428Y-131307200D01*
X231471428Y-131307200D02*
X231376190Y-131354819D01*
X231376190Y-131354819D02*
X231090476Y-131354819D01*
X231090476Y-131354819D02*
X230995238Y-131307200D01*
X230995238Y-131307200D02*
X230947619Y-131259580D01*
X160538095Y-127954819D02*
X161109523Y-127954819D01*
X160823809Y-128954819D02*
X160823809Y-127954819D01*
X161442857Y-128954819D02*
X161442857Y-127954819D01*
X161442857Y-127954819D02*
X161823809Y-127954819D01*
X161823809Y-127954819D02*
X161919047Y-128002438D01*
X161919047Y-128002438D02*
X161966666Y-128050057D01*
X161966666Y-128050057D02*
X162014285Y-128145295D01*
X162014285Y-128145295D02*
X162014285Y-128288152D01*
X162014285Y-128288152D02*
X161966666Y-128383390D01*
X161966666Y-128383390D02*
X161919047Y-128431009D01*
X161919047Y-128431009D02*
X161823809Y-128478628D01*
X161823809Y-128478628D02*
X161442857Y-128478628D01*
X162966666Y-128954819D02*
X162395238Y-128954819D01*
X162680952Y-128954819D02*
X162680952Y-127954819D01*
X162680952Y-127954819D02*
X162585714Y-128097676D01*
X162585714Y-128097676D02*
X162490476Y-128192914D01*
X162490476Y-128192914D02*
X162395238Y-128240533D01*
X161138095Y-129402438D02*
X161042857Y-129354819D01*
X161042857Y-129354819D02*
X160900000Y-129354819D01*
X160900000Y-129354819D02*
X160757143Y-129402438D01*
X160757143Y-129402438D02*
X160661905Y-129497676D01*
X160661905Y-129497676D02*
X160614286Y-129592914D01*
X160614286Y-129592914D02*
X160566667Y-129783390D01*
X160566667Y-129783390D02*
X160566667Y-129926247D01*
X160566667Y-129926247D02*
X160614286Y-130116723D01*
X160614286Y-130116723D02*
X160661905Y-130211961D01*
X160661905Y-130211961D02*
X160757143Y-130307200D01*
X160757143Y-130307200D02*
X160900000Y-130354819D01*
X160900000Y-130354819D02*
X160995238Y-130354819D01*
X160995238Y-130354819D02*
X161138095Y-130307200D01*
X161138095Y-130307200D02*
X161185714Y-130259580D01*
X161185714Y-130259580D02*
X161185714Y-129926247D01*
X161185714Y-129926247D02*
X160995238Y-129926247D01*
X161614286Y-130354819D02*
X161614286Y-129354819D01*
X161614286Y-129354819D02*
X162185714Y-130354819D01*
X162185714Y-130354819D02*
X162185714Y-129354819D01*
X162661905Y-130354819D02*
X162661905Y-129354819D01*
X162661905Y-129354819D02*
X162900000Y-129354819D01*
X162900000Y-129354819D02*
X163042857Y-129402438D01*
X163042857Y-129402438D02*
X163138095Y-129497676D01*
X163138095Y-129497676D02*
X163185714Y-129592914D01*
X163185714Y-129592914D02*
X163233333Y-129783390D01*
X163233333Y-129783390D02*
X163233333Y-129926247D01*
X163233333Y-129926247D02*
X163185714Y-130116723D01*
X163185714Y-130116723D02*
X163138095Y-130211961D01*
X163138095Y-130211961D02*
X163042857Y-130307200D01*
X163042857Y-130307200D02*
X162900000Y-130354819D01*
X162900000Y-130354819D02*
X162661905Y-130354819D01*
X214757142Y-110959580D02*
X214709523Y-111007200D01*
X214709523Y-111007200D02*
X214566666Y-111054819D01*
X214566666Y-111054819D02*
X214471428Y-111054819D01*
X214471428Y-111054819D02*
X214328571Y-111007200D01*
X214328571Y-111007200D02*
X214233333Y-110911961D01*
X214233333Y-110911961D02*
X214185714Y-110816723D01*
X214185714Y-110816723D02*
X214138095Y-110626247D01*
X214138095Y-110626247D02*
X214138095Y-110483390D01*
X214138095Y-110483390D02*
X214185714Y-110292914D01*
X214185714Y-110292914D02*
X214233333Y-110197676D01*
X214233333Y-110197676D02*
X214328571Y-110102438D01*
X214328571Y-110102438D02*
X214471428Y-110054819D01*
X214471428Y-110054819D02*
X214566666Y-110054819D01*
X214566666Y-110054819D02*
X214709523Y-110102438D01*
X214709523Y-110102438D02*
X214757142Y-110150057D01*
X215709523Y-111054819D02*
X215138095Y-111054819D01*
X215423809Y-111054819D02*
X215423809Y-110054819D01*
X215423809Y-110054819D02*
X215328571Y-110197676D01*
X215328571Y-110197676D02*
X215233333Y-110292914D01*
X215233333Y-110292914D02*
X215138095Y-110340533D01*
X216566666Y-110054819D02*
X216376190Y-110054819D01*
X216376190Y-110054819D02*
X216280952Y-110102438D01*
X216280952Y-110102438D02*
X216233333Y-110150057D01*
X216233333Y-110150057D02*
X216138095Y-110292914D01*
X216138095Y-110292914D02*
X216090476Y-110483390D01*
X216090476Y-110483390D02*
X216090476Y-110864342D01*
X216090476Y-110864342D02*
X216138095Y-110959580D01*
X216138095Y-110959580D02*
X216185714Y-111007200D01*
X216185714Y-111007200D02*
X216280952Y-111054819D01*
X216280952Y-111054819D02*
X216471428Y-111054819D01*
X216471428Y-111054819D02*
X216566666Y-111007200D01*
X216566666Y-111007200D02*
X216614285Y-110959580D01*
X216614285Y-110959580D02*
X216661904Y-110864342D01*
X216661904Y-110864342D02*
X216661904Y-110626247D01*
X216661904Y-110626247D02*
X216614285Y-110531009D01*
X216614285Y-110531009D02*
X216566666Y-110483390D01*
X216566666Y-110483390D02*
X216471428Y-110435771D01*
X216471428Y-110435771D02*
X216280952Y-110435771D01*
X216280952Y-110435771D02*
X216185714Y-110483390D01*
X216185714Y-110483390D02*
X216138095Y-110531009D01*
X216138095Y-110531009D02*
X216090476Y-110626247D01*
X150157142Y-124259580D02*
X150109523Y-124307200D01*
X150109523Y-124307200D02*
X149966666Y-124354819D01*
X149966666Y-124354819D02*
X149871428Y-124354819D01*
X149871428Y-124354819D02*
X149728571Y-124307200D01*
X149728571Y-124307200D02*
X149633333Y-124211961D01*
X149633333Y-124211961D02*
X149585714Y-124116723D01*
X149585714Y-124116723D02*
X149538095Y-123926247D01*
X149538095Y-123926247D02*
X149538095Y-123783390D01*
X149538095Y-123783390D02*
X149585714Y-123592914D01*
X149585714Y-123592914D02*
X149633333Y-123497676D01*
X149633333Y-123497676D02*
X149728571Y-123402438D01*
X149728571Y-123402438D02*
X149871428Y-123354819D01*
X149871428Y-123354819D02*
X149966666Y-123354819D01*
X149966666Y-123354819D02*
X150109523Y-123402438D01*
X150109523Y-123402438D02*
X150157142Y-123450057D01*
X151014285Y-123688152D02*
X151014285Y-124354819D01*
X150776190Y-123307200D02*
X150538095Y-124021485D01*
X150538095Y-124021485D02*
X151157142Y-124021485D01*
X151490476Y-123450057D02*
X151538095Y-123402438D01*
X151538095Y-123402438D02*
X151633333Y-123354819D01*
X151633333Y-123354819D02*
X151871428Y-123354819D01*
X151871428Y-123354819D02*
X151966666Y-123402438D01*
X151966666Y-123402438D02*
X152014285Y-123450057D01*
X152014285Y-123450057D02*
X152061904Y-123545295D01*
X152061904Y-123545295D02*
X152061904Y-123640533D01*
X152061904Y-123640533D02*
X152014285Y-123783390D01*
X152014285Y-123783390D02*
X151442857Y-124354819D01*
X151442857Y-124354819D02*
X152061904Y-124354819D01*
X177538095Y-86654819D02*
X178109523Y-86654819D01*
X177823809Y-87654819D02*
X177823809Y-86654819D01*
X178442857Y-87654819D02*
X178442857Y-86654819D01*
X178442857Y-86654819D02*
X178823809Y-86654819D01*
X178823809Y-86654819D02*
X178919047Y-86702438D01*
X178919047Y-86702438D02*
X178966666Y-86750057D01*
X178966666Y-86750057D02*
X179014285Y-86845295D01*
X179014285Y-86845295D02*
X179014285Y-86988152D01*
X179014285Y-86988152D02*
X178966666Y-87083390D01*
X178966666Y-87083390D02*
X178919047Y-87131009D01*
X178919047Y-87131009D02*
X178823809Y-87178628D01*
X178823809Y-87178628D02*
X178442857Y-87178628D01*
X179395238Y-86750057D02*
X179442857Y-86702438D01*
X179442857Y-86702438D02*
X179538095Y-86654819D01*
X179538095Y-86654819D02*
X179776190Y-86654819D01*
X179776190Y-86654819D02*
X179871428Y-86702438D01*
X179871428Y-86702438D02*
X179919047Y-86750057D01*
X179919047Y-86750057D02*
X179966666Y-86845295D01*
X179966666Y-86845295D02*
X179966666Y-86940533D01*
X179966666Y-86940533D02*
X179919047Y-87083390D01*
X179919047Y-87083390D02*
X179347619Y-87654819D01*
X179347619Y-87654819D02*
X179966666Y-87654819D01*
X174157142Y-119359580D02*
X174109523Y-119407200D01*
X174109523Y-119407200D02*
X173966666Y-119454819D01*
X173966666Y-119454819D02*
X173871428Y-119454819D01*
X173871428Y-119454819D02*
X173728571Y-119407200D01*
X173728571Y-119407200D02*
X173633333Y-119311961D01*
X173633333Y-119311961D02*
X173585714Y-119216723D01*
X173585714Y-119216723D02*
X173538095Y-119026247D01*
X173538095Y-119026247D02*
X173538095Y-118883390D01*
X173538095Y-118883390D02*
X173585714Y-118692914D01*
X173585714Y-118692914D02*
X173633333Y-118597676D01*
X173633333Y-118597676D02*
X173728571Y-118502438D01*
X173728571Y-118502438D02*
X173871428Y-118454819D01*
X173871428Y-118454819D02*
X173966666Y-118454819D01*
X173966666Y-118454819D02*
X174109523Y-118502438D01*
X174109523Y-118502438D02*
X174157142Y-118550057D01*
X174490476Y-118454819D02*
X175109523Y-118454819D01*
X175109523Y-118454819D02*
X174776190Y-118835771D01*
X174776190Y-118835771D02*
X174919047Y-118835771D01*
X174919047Y-118835771D02*
X175014285Y-118883390D01*
X175014285Y-118883390D02*
X175061904Y-118931009D01*
X175061904Y-118931009D02*
X175109523Y-119026247D01*
X175109523Y-119026247D02*
X175109523Y-119264342D01*
X175109523Y-119264342D02*
X175061904Y-119359580D01*
X175061904Y-119359580D02*
X175014285Y-119407200D01*
X175014285Y-119407200D02*
X174919047Y-119454819D01*
X174919047Y-119454819D02*
X174633333Y-119454819D01*
X174633333Y-119454819D02*
X174538095Y-119407200D01*
X174538095Y-119407200D02*
X174490476Y-119359580D01*
X176061904Y-119454819D02*
X175490476Y-119454819D01*
X175776190Y-119454819D02*
X175776190Y-118454819D01*
X175776190Y-118454819D02*
X175680952Y-118597676D01*
X175680952Y-118597676D02*
X175585714Y-118692914D01*
X175585714Y-118692914D02*
X175490476Y-118740533D01*
X226957142Y-106559580D02*
X226909523Y-106607200D01*
X226909523Y-106607200D02*
X226766666Y-106654819D01*
X226766666Y-106654819D02*
X226671428Y-106654819D01*
X226671428Y-106654819D02*
X226528571Y-106607200D01*
X226528571Y-106607200D02*
X226433333Y-106511961D01*
X226433333Y-106511961D02*
X226385714Y-106416723D01*
X226385714Y-106416723D02*
X226338095Y-106226247D01*
X226338095Y-106226247D02*
X226338095Y-106083390D01*
X226338095Y-106083390D02*
X226385714Y-105892914D01*
X226385714Y-105892914D02*
X226433333Y-105797676D01*
X226433333Y-105797676D02*
X226528571Y-105702438D01*
X226528571Y-105702438D02*
X226671428Y-105654819D01*
X226671428Y-105654819D02*
X226766666Y-105654819D01*
X226766666Y-105654819D02*
X226909523Y-105702438D01*
X226909523Y-105702438D02*
X226957142Y-105750057D01*
X227290476Y-105654819D02*
X227909523Y-105654819D01*
X227909523Y-105654819D02*
X227576190Y-106035771D01*
X227576190Y-106035771D02*
X227719047Y-106035771D01*
X227719047Y-106035771D02*
X227814285Y-106083390D01*
X227814285Y-106083390D02*
X227861904Y-106131009D01*
X227861904Y-106131009D02*
X227909523Y-106226247D01*
X227909523Y-106226247D02*
X227909523Y-106464342D01*
X227909523Y-106464342D02*
X227861904Y-106559580D01*
X227861904Y-106559580D02*
X227814285Y-106607200D01*
X227814285Y-106607200D02*
X227719047Y-106654819D01*
X227719047Y-106654819D02*
X227433333Y-106654819D01*
X227433333Y-106654819D02*
X227338095Y-106607200D01*
X227338095Y-106607200D02*
X227290476Y-106559580D01*
X228528571Y-105654819D02*
X228623809Y-105654819D01*
X228623809Y-105654819D02*
X228719047Y-105702438D01*
X228719047Y-105702438D02*
X228766666Y-105750057D01*
X228766666Y-105750057D02*
X228814285Y-105845295D01*
X228814285Y-105845295D02*
X228861904Y-106035771D01*
X228861904Y-106035771D02*
X228861904Y-106273866D01*
X228861904Y-106273866D02*
X228814285Y-106464342D01*
X228814285Y-106464342D02*
X228766666Y-106559580D01*
X228766666Y-106559580D02*
X228719047Y-106607200D01*
X228719047Y-106607200D02*
X228623809Y-106654819D01*
X228623809Y-106654819D02*
X228528571Y-106654819D01*
X228528571Y-106654819D02*
X228433333Y-106607200D01*
X228433333Y-106607200D02*
X228385714Y-106559580D01*
X228385714Y-106559580D02*
X228338095Y-106464342D01*
X228338095Y-106464342D02*
X228290476Y-106273866D01*
X228290476Y-106273866D02*
X228290476Y-106035771D01*
X228290476Y-106035771D02*
X228338095Y-105845295D01*
X228338095Y-105845295D02*
X228385714Y-105750057D01*
X228385714Y-105750057D02*
X228433333Y-105702438D01*
X228433333Y-105702438D02*
X228528571Y-105654819D01*
X225638095Y-119354819D02*
X226209523Y-119354819D01*
X225923809Y-120354819D02*
X225923809Y-119354819D01*
X226542857Y-120354819D02*
X226542857Y-119354819D01*
X226542857Y-119354819D02*
X226923809Y-119354819D01*
X226923809Y-119354819D02*
X227019047Y-119402438D01*
X227019047Y-119402438D02*
X227066666Y-119450057D01*
X227066666Y-119450057D02*
X227114285Y-119545295D01*
X227114285Y-119545295D02*
X227114285Y-119688152D01*
X227114285Y-119688152D02*
X227066666Y-119783390D01*
X227066666Y-119783390D02*
X227019047Y-119831009D01*
X227019047Y-119831009D02*
X226923809Y-119878628D01*
X226923809Y-119878628D02*
X226542857Y-119878628D01*
X228019047Y-119354819D02*
X227542857Y-119354819D01*
X227542857Y-119354819D02*
X227495238Y-119831009D01*
X227495238Y-119831009D02*
X227542857Y-119783390D01*
X227542857Y-119783390D02*
X227638095Y-119735771D01*
X227638095Y-119735771D02*
X227876190Y-119735771D01*
X227876190Y-119735771D02*
X227971428Y-119783390D01*
X227971428Y-119783390D02*
X228019047Y-119831009D01*
X228019047Y-119831009D02*
X228066666Y-119926247D01*
X228066666Y-119926247D02*
X228066666Y-120164342D01*
X228066666Y-120164342D02*
X228019047Y-120259580D01*
X228019047Y-120259580D02*
X227971428Y-120307200D01*
X227971428Y-120307200D02*
X227876190Y-120354819D01*
X227876190Y-120354819D02*
X227638095Y-120354819D01*
X227638095Y-120354819D02*
X227542857Y-120307200D01*
X227542857Y-120307200D02*
X227495238Y-120259580D01*
X225757143Y-121054819D02*
X226090476Y-122054819D01*
X226090476Y-122054819D02*
X226423809Y-121054819D01*
X226757143Y-122054819D02*
X226757143Y-121054819D01*
X226757143Y-121054819D02*
X227090476Y-121769104D01*
X227090476Y-121769104D02*
X227423809Y-121054819D01*
X227423809Y-121054819D02*
X227423809Y-122054819D01*
X227900000Y-122054819D02*
X227900000Y-121054819D01*
X228376190Y-122054819D02*
X228376190Y-121054819D01*
X228376190Y-121054819D02*
X228614285Y-121054819D01*
X228614285Y-121054819D02*
X228757142Y-121102438D01*
X228757142Y-121102438D02*
X228852380Y-121197676D01*
X228852380Y-121197676D02*
X228899999Y-121292914D01*
X228899999Y-121292914D02*
X228947618Y-121483390D01*
X228947618Y-121483390D02*
X228947618Y-121626247D01*
X228947618Y-121626247D02*
X228899999Y-121816723D01*
X228899999Y-121816723D02*
X228852380Y-121911961D01*
X228852380Y-121911961D02*
X228757142Y-122007200D01*
X228757142Y-122007200D02*
X228614285Y-122054819D01*
X228614285Y-122054819D02*
X228376190Y-122054819D01*
X238133333Y-83954819D02*
X237800000Y-83478628D01*
X237561905Y-83954819D02*
X237561905Y-82954819D01*
X237561905Y-82954819D02*
X237942857Y-82954819D01*
X237942857Y-82954819D02*
X238038095Y-83002438D01*
X238038095Y-83002438D02*
X238085714Y-83050057D01*
X238085714Y-83050057D02*
X238133333Y-83145295D01*
X238133333Y-83145295D02*
X238133333Y-83288152D01*
X238133333Y-83288152D02*
X238085714Y-83383390D01*
X238085714Y-83383390D02*
X238038095Y-83431009D01*
X238038095Y-83431009D02*
X237942857Y-83478628D01*
X237942857Y-83478628D02*
X237561905Y-83478628D01*
X238466667Y-82954819D02*
X239085714Y-82954819D01*
X239085714Y-82954819D02*
X238752381Y-83335771D01*
X238752381Y-83335771D02*
X238895238Y-83335771D01*
X238895238Y-83335771D02*
X238990476Y-83383390D01*
X238990476Y-83383390D02*
X239038095Y-83431009D01*
X239038095Y-83431009D02*
X239085714Y-83526247D01*
X239085714Y-83526247D02*
X239085714Y-83764342D01*
X239085714Y-83764342D02*
X239038095Y-83859580D01*
X239038095Y-83859580D02*
X238990476Y-83907200D01*
X238990476Y-83907200D02*
X238895238Y-83954819D01*
X238895238Y-83954819D02*
X238609524Y-83954819D01*
X238609524Y-83954819D02*
X238514286Y-83907200D01*
X238514286Y-83907200D02*
X238466667Y-83859580D01*
X241433333Y-106854819D02*
X241100000Y-106378628D01*
X240861905Y-106854819D02*
X240861905Y-105854819D01*
X240861905Y-105854819D02*
X241242857Y-105854819D01*
X241242857Y-105854819D02*
X241338095Y-105902438D01*
X241338095Y-105902438D02*
X241385714Y-105950057D01*
X241385714Y-105950057D02*
X241433333Y-106045295D01*
X241433333Y-106045295D02*
X241433333Y-106188152D01*
X241433333Y-106188152D02*
X241385714Y-106283390D01*
X241385714Y-106283390D02*
X241338095Y-106331009D01*
X241338095Y-106331009D02*
X241242857Y-106378628D01*
X241242857Y-106378628D02*
X240861905Y-106378628D01*
X241814286Y-105950057D02*
X241861905Y-105902438D01*
X241861905Y-105902438D02*
X241957143Y-105854819D01*
X241957143Y-105854819D02*
X242195238Y-105854819D01*
X242195238Y-105854819D02*
X242290476Y-105902438D01*
X242290476Y-105902438D02*
X242338095Y-105950057D01*
X242338095Y-105950057D02*
X242385714Y-106045295D01*
X242385714Y-106045295D02*
X242385714Y-106140533D01*
X242385714Y-106140533D02*
X242338095Y-106283390D01*
X242338095Y-106283390D02*
X241766667Y-106854819D01*
X241766667Y-106854819D02*
X242385714Y-106854819D01*
X217357142Y-117359580D02*
X217309523Y-117407200D01*
X217309523Y-117407200D02*
X217166666Y-117454819D01*
X217166666Y-117454819D02*
X217071428Y-117454819D01*
X217071428Y-117454819D02*
X216928571Y-117407200D01*
X216928571Y-117407200D02*
X216833333Y-117311961D01*
X216833333Y-117311961D02*
X216785714Y-117216723D01*
X216785714Y-117216723D02*
X216738095Y-117026247D01*
X216738095Y-117026247D02*
X216738095Y-116883390D01*
X216738095Y-116883390D02*
X216785714Y-116692914D01*
X216785714Y-116692914D02*
X216833333Y-116597676D01*
X216833333Y-116597676D02*
X216928571Y-116502438D01*
X216928571Y-116502438D02*
X217071428Y-116454819D01*
X217071428Y-116454819D02*
X217166666Y-116454819D01*
X217166666Y-116454819D02*
X217309523Y-116502438D01*
X217309523Y-116502438D02*
X217357142Y-116550057D01*
X217738095Y-116550057D02*
X217785714Y-116502438D01*
X217785714Y-116502438D02*
X217880952Y-116454819D01*
X217880952Y-116454819D02*
X218119047Y-116454819D01*
X218119047Y-116454819D02*
X218214285Y-116502438D01*
X218214285Y-116502438D02*
X218261904Y-116550057D01*
X218261904Y-116550057D02*
X218309523Y-116645295D01*
X218309523Y-116645295D02*
X218309523Y-116740533D01*
X218309523Y-116740533D02*
X218261904Y-116883390D01*
X218261904Y-116883390D02*
X217690476Y-117454819D01*
X217690476Y-117454819D02*
X218309523Y-117454819D01*
X219166666Y-116788152D02*
X219166666Y-117454819D01*
X218928571Y-116407200D02*
X218690476Y-117121485D01*
X218690476Y-117121485D02*
X219309523Y-117121485D01*
X203904761Y-79475057D02*
X203809523Y-79427438D01*
X203809523Y-79427438D02*
X203714285Y-79332200D01*
X203714285Y-79332200D02*
X203571428Y-79189342D01*
X203571428Y-79189342D02*
X203476190Y-79141723D01*
X203476190Y-79141723D02*
X203380952Y-79141723D01*
X203428571Y-79379819D02*
X203333333Y-79332200D01*
X203333333Y-79332200D02*
X203238095Y-79236961D01*
X203238095Y-79236961D02*
X203190476Y-79046485D01*
X203190476Y-79046485D02*
X203190476Y-78713152D01*
X203190476Y-78713152D02*
X203238095Y-78522676D01*
X203238095Y-78522676D02*
X203333333Y-78427438D01*
X203333333Y-78427438D02*
X203428571Y-78379819D01*
X203428571Y-78379819D02*
X203619047Y-78379819D01*
X203619047Y-78379819D02*
X203714285Y-78427438D01*
X203714285Y-78427438D02*
X203809523Y-78522676D01*
X203809523Y-78522676D02*
X203857142Y-78713152D01*
X203857142Y-78713152D02*
X203857142Y-79046485D01*
X203857142Y-79046485D02*
X203809523Y-79236961D01*
X203809523Y-79236961D02*
X203714285Y-79332200D01*
X203714285Y-79332200D02*
X203619047Y-79379819D01*
X203619047Y-79379819D02*
X203428571Y-79379819D01*
X204809523Y-79379819D02*
X204238095Y-79379819D01*
X204523809Y-79379819D02*
X204523809Y-78379819D01*
X204523809Y-78379819D02*
X204428571Y-78522676D01*
X204428571Y-78522676D02*
X204333333Y-78617914D01*
X204333333Y-78617914D02*
X204238095Y-78665533D01*
X141357142Y-104054819D02*
X141023809Y-103578628D01*
X140785714Y-104054819D02*
X140785714Y-103054819D01*
X140785714Y-103054819D02*
X141166666Y-103054819D01*
X141166666Y-103054819D02*
X141261904Y-103102438D01*
X141261904Y-103102438D02*
X141309523Y-103150057D01*
X141309523Y-103150057D02*
X141357142Y-103245295D01*
X141357142Y-103245295D02*
X141357142Y-103388152D01*
X141357142Y-103388152D02*
X141309523Y-103483390D01*
X141309523Y-103483390D02*
X141261904Y-103531009D01*
X141261904Y-103531009D02*
X141166666Y-103578628D01*
X141166666Y-103578628D02*
X140785714Y-103578628D01*
X142309523Y-104054819D02*
X141738095Y-104054819D01*
X142023809Y-104054819D02*
X142023809Y-103054819D01*
X142023809Y-103054819D02*
X141928571Y-103197676D01*
X141928571Y-103197676D02*
X141833333Y-103292914D01*
X141833333Y-103292914D02*
X141738095Y-103340533D01*
X142785714Y-104054819D02*
X142976190Y-104054819D01*
X142976190Y-104054819D02*
X143071428Y-104007200D01*
X143071428Y-104007200D02*
X143119047Y-103959580D01*
X143119047Y-103959580D02*
X143214285Y-103816723D01*
X143214285Y-103816723D02*
X143261904Y-103626247D01*
X143261904Y-103626247D02*
X143261904Y-103245295D01*
X143261904Y-103245295D02*
X143214285Y-103150057D01*
X143214285Y-103150057D02*
X143166666Y-103102438D01*
X143166666Y-103102438D02*
X143071428Y-103054819D01*
X143071428Y-103054819D02*
X142880952Y-103054819D01*
X142880952Y-103054819D02*
X142785714Y-103102438D01*
X142785714Y-103102438D02*
X142738095Y-103150057D01*
X142738095Y-103150057D02*
X142690476Y-103245295D01*
X142690476Y-103245295D02*
X142690476Y-103483390D01*
X142690476Y-103483390D02*
X142738095Y-103578628D01*
X142738095Y-103578628D02*
X142785714Y-103626247D01*
X142785714Y-103626247D02*
X142880952Y-103673866D01*
X142880952Y-103673866D02*
X143071428Y-103673866D01*
X143071428Y-103673866D02*
X143166666Y-103626247D01*
X143166666Y-103626247D02*
X143214285Y-103578628D01*
X143214285Y-103578628D02*
X143261904Y-103483390D01*
X132028571Y-124350057D02*
X131933333Y-124302438D01*
X131933333Y-124302438D02*
X131838095Y-124207200D01*
X131838095Y-124207200D02*
X131695238Y-124064342D01*
X131695238Y-124064342D02*
X131600000Y-124016723D01*
X131600000Y-124016723D02*
X131504762Y-124016723D01*
X131552381Y-124254819D02*
X131457143Y-124207200D01*
X131457143Y-124207200D02*
X131361905Y-124111961D01*
X131361905Y-124111961D02*
X131314286Y-123921485D01*
X131314286Y-123921485D02*
X131314286Y-123588152D01*
X131314286Y-123588152D02*
X131361905Y-123397676D01*
X131361905Y-123397676D02*
X131457143Y-123302438D01*
X131457143Y-123302438D02*
X131552381Y-123254819D01*
X131552381Y-123254819D02*
X131742857Y-123254819D01*
X131742857Y-123254819D02*
X131838095Y-123302438D01*
X131838095Y-123302438D02*
X131933333Y-123397676D01*
X131933333Y-123397676D02*
X131980952Y-123588152D01*
X131980952Y-123588152D02*
X131980952Y-123921485D01*
X131980952Y-123921485D02*
X131933333Y-124111961D01*
X131933333Y-124111961D02*
X131838095Y-124207200D01*
X131838095Y-124207200D02*
X131742857Y-124254819D01*
X131742857Y-124254819D02*
X131552381Y-124254819D01*
X132933333Y-124254819D02*
X132361905Y-124254819D01*
X132647619Y-124254819D02*
X132647619Y-123254819D01*
X132647619Y-123254819D02*
X132552381Y-123397676D01*
X132552381Y-123397676D02*
X132457143Y-123492914D01*
X132457143Y-123492914D02*
X132361905Y-123540533D01*
X133885714Y-124254819D02*
X133314286Y-124254819D01*
X133600000Y-124254819D02*
X133600000Y-123254819D01*
X133600000Y-123254819D02*
X133504762Y-123397676D01*
X133504762Y-123397676D02*
X133409524Y-123492914D01*
X133409524Y-123492914D02*
X133314286Y-123540533D01*
X203690476Y-124654819D02*
X203690476Y-123654819D01*
X203690476Y-123654819D02*
X204023809Y-124369104D01*
X204023809Y-124369104D02*
X204357142Y-123654819D01*
X204357142Y-123654819D02*
X204357142Y-124654819D01*
X205357142Y-124654819D02*
X204785714Y-124654819D01*
X205071428Y-124654819D02*
X205071428Y-123654819D01*
X205071428Y-123654819D02*
X204976190Y-123797676D01*
X204976190Y-123797676D02*
X204880952Y-123892914D01*
X204880952Y-123892914D02*
X204785714Y-123940533D01*
X220457142Y-88559580D02*
X220409523Y-88607200D01*
X220409523Y-88607200D02*
X220266666Y-88654819D01*
X220266666Y-88654819D02*
X220171428Y-88654819D01*
X220171428Y-88654819D02*
X220028571Y-88607200D01*
X220028571Y-88607200D02*
X219933333Y-88511961D01*
X219933333Y-88511961D02*
X219885714Y-88416723D01*
X219885714Y-88416723D02*
X219838095Y-88226247D01*
X219838095Y-88226247D02*
X219838095Y-88083390D01*
X219838095Y-88083390D02*
X219885714Y-87892914D01*
X219885714Y-87892914D02*
X219933333Y-87797676D01*
X219933333Y-87797676D02*
X220028571Y-87702438D01*
X220028571Y-87702438D02*
X220171428Y-87654819D01*
X220171428Y-87654819D02*
X220266666Y-87654819D01*
X220266666Y-87654819D02*
X220409523Y-87702438D01*
X220409523Y-87702438D02*
X220457142Y-87750057D01*
X221409523Y-88654819D02*
X220838095Y-88654819D01*
X221123809Y-88654819D02*
X221123809Y-87654819D01*
X221123809Y-87654819D02*
X221028571Y-87797676D01*
X221028571Y-87797676D02*
X220933333Y-87892914D01*
X220933333Y-87892914D02*
X220838095Y-87940533D01*
X222361904Y-88654819D02*
X221790476Y-88654819D01*
X222076190Y-88654819D02*
X222076190Y-87654819D01*
X222076190Y-87654819D02*
X221980952Y-87797676D01*
X221980952Y-87797676D02*
X221885714Y-87892914D01*
X221885714Y-87892914D02*
X221790476Y-87940533D01*
X120438095Y-129154819D02*
X120438095Y-129964342D01*
X120438095Y-129964342D02*
X120485714Y-130059580D01*
X120485714Y-130059580D02*
X120533333Y-130107200D01*
X120533333Y-130107200D02*
X120628571Y-130154819D01*
X120628571Y-130154819D02*
X120819047Y-130154819D01*
X120819047Y-130154819D02*
X120914285Y-130107200D01*
X120914285Y-130107200D02*
X120961904Y-130059580D01*
X120961904Y-130059580D02*
X121009523Y-129964342D01*
X121009523Y-129964342D02*
X121009523Y-129154819D01*
X121533333Y-130154819D02*
X121723809Y-130154819D01*
X121723809Y-130154819D02*
X121819047Y-130107200D01*
X121819047Y-130107200D02*
X121866666Y-130059580D01*
X121866666Y-130059580D02*
X121961904Y-129916723D01*
X121961904Y-129916723D02*
X122009523Y-129726247D01*
X122009523Y-129726247D02*
X122009523Y-129345295D01*
X122009523Y-129345295D02*
X121961904Y-129250057D01*
X121961904Y-129250057D02*
X121914285Y-129202438D01*
X121914285Y-129202438D02*
X121819047Y-129154819D01*
X121819047Y-129154819D02*
X121628571Y-129154819D01*
X121628571Y-129154819D02*
X121533333Y-129202438D01*
X121533333Y-129202438D02*
X121485714Y-129250057D01*
X121485714Y-129250057D02*
X121438095Y-129345295D01*
X121438095Y-129345295D02*
X121438095Y-129583390D01*
X121438095Y-129583390D02*
X121485714Y-129678628D01*
X121485714Y-129678628D02*
X121533333Y-129726247D01*
X121533333Y-129726247D02*
X121628571Y-129773866D01*
X121628571Y-129773866D02*
X121819047Y-129773866D01*
X121819047Y-129773866D02*
X121914285Y-129726247D01*
X121914285Y-129726247D02*
X121961904Y-129678628D01*
X121961904Y-129678628D02*
X122009523Y-129583390D01*
X193567163Y-126654819D02*
X193567163Y-127369104D01*
X193567163Y-127369104D02*
X193519544Y-127511961D01*
X193519544Y-127511961D02*
X193424306Y-127607200D01*
X193424306Y-127607200D02*
X193281449Y-127654819D01*
X193281449Y-127654819D02*
X193186211Y-127654819D01*
X194567163Y-127654819D02*
X193995735Y-127654819D01*
X194281449Y-127654819D02*
X194281449Y-126654819D01*
X194281449Y-126654819D02*
X194186211Y-126797676D01*
X194186211Y-126797676D02*
X194090973Y-126892914D01*
X194090973Y-126892914D02*
X193995735Y-126940533D01*
X148557142Y-105454819D02*
X148223809Y-104978628D01*
X147985714Y-105454819D02*
X147985714Y-104454819D01*
X147985714Y-104454819D02*
X148366666Y-104454819D01*
X148366666Y-104454819D02*
X148461904Y-104502438D01*
X148461904Y-104502438D02*
X148509523Y-104550057D01*
X148509523Y-104550057D02*
X148557142Y-104645295D01*
X148557142Y-104645295D02*
X148557142Y-104788152D01*
X148557142Y-104788152D02*
X148509523Y-104883390D01*
X148509523Y-104883390D02*
X148461904Y-104931009D01*
X148461904Y-104931009D02*
X148366666Y-104978628D01*
X148366666Y-104978628D02*
X147985714Y-104978628D01*
X148938095Y-104550057D02*
X148985714Y-104502438D01*
X148985714Y-104502438D02*
X149080952Y-104454819D01*
X149080952Y-104454819D02*
X149319047Y-104454819D01*
X149319047Y-104454819D02*
X149414285Y-104502438D01*
X149414285Y-104502438D02*
X149461904Y-104550057D01*
X149461904Y-104550057D02*
X149509523Y-104645295D01*
X149509523Y-104645295D02*
X149509523Y-104740533D01*
X149509523Y-104740533D02*
X149461904Y-104883390D01*
X149461904Y-104883390D02*
X148890476Y-105454819D01*
X148890476Y-105454819D02*
X149509523Y-105454819D01*
X150128571Y-104454819D02*
X150223809Y-104454819D01*
X150223809Y-104454819D02*
X150319047Y-104502438D01*
X150319047Y-104502438D02*
X150366666Y-104550057D01*
X150366666Y-104550057D02*
X150414285Y-104645295D01*
X150414285Y-104645295D02*
X150461904Y-104835771D01*
X150461904Y-104835771D02*
X150461904Y-105073866D01*
X150461904Y-105073866D02*
X150414285Y-105264342D01*
X150414285Y-105264342D02*
X150366666Y-105359580D01*
X150366666Y-105359580D02*
X150319047Y-105407200D01*
X150319047Y-105407200D02*
X150223809Y-105454819D01*
X150223809Y-105454819D02*
X150128571Y-105454819D01*
X150128571Y-105454819D02*
X150033333Y-105407200D01*
X150033333Y-105407200D02*
X149985714Y-105359580D01*
X149985714Y-105359580D02*
X149938095Y-105264342D01*
X149938095Y-105264342D02*
X149890476Y-105073866D01*
X149890476Y-105073866D02*
X149890476Y-104835771D01*
X149890476Y-104835771D02*
X149938095Y-104645295D01*
X149938095Y-104645295D02*
X149985714Y-104550057D01*
X149985714Y-104550057D02*
X150033333Y-104502438D01*
X150033333Y-104502438D02*
X150128571Y-104454819D01*
X179033333Y-112654819D02*
X178557143Y-112654819D01*
X178557143Y-112654819D02*
X178557143Y-111654819D01*
X179319048Y-111750057D02*
X179366667Y-111702438D01*
X179366667Y-111702438D02*
X179461905Y-111654819D01*
X179461905Y-111654819D02*
X179700000Y-111654819D01*
X179700000Y-111654819D02*
X179795238Y-111702438D01*
X179795238Y-111702438D02*
X179842857Y-111750057D01*
X179842857Y-111750057D02*
X179890476Y-111845295D01*
X179890476Y-111845295D02*
X179890476Y-111940533D01*
X179890476Y-111940533D02*
X179842857Y-112083390D01*
X179842857Y-112083390D02*
X179271429Y-112654819D01*
X179271429Y-112654819D02*
X179890476Y-112654819D01*
X157928571Y-125150057D02*
X157833333Y-125102438D01*
X157833333Y-125102438D02*
X157738095Y-125007200D01*
X157738095Y-125007200D02*
X157595238Y-124864342D01*
X157595238Y-124864342D02*
X157500000Y-124816723D01*
X157500000Y-124816723D02*
X157404762Y-124816723D01*
X157452381Y-125054819D02*
X157357143Y-125007200D01*
X157357143Y-125007200D02*
X157261905Y-124911961D01*
X157261905Y-124911961D02*
X157214286Y-124721485D01*
X157214286Y-124721485D02*
X157214286Y-124388152D01*
X157214286Y-124388152D02*
X157261905Y-124197676D01*
X157261905Y-124197676D02*
X157357143Y-124102438D01*
X157357143Y-124102438D02*
X157452381Y-124054819D01*
X157452381Y-124054819D02*
X157642857Y-124054819D01*
X157642857Y-124054819D02*
X157738095Y-124102438D01*
X157738095Y-124102438D02*
X157833333Y-124197676D01*
X157833333Y-124197676D02*
X157880952Y-124388152D01*
X157880952Y-124388152D02*
X157880952Y-124721485D01*
X157880952Y-124721485D02*
X157833333Y-124911961D01*
X157833333Y-124911961D02*
X157738095Y-125007200D01*
X157738095Y-125007200D02*
X157642857Y-125054819D01*
X157642857Y-125054819D02*
X157452381Y-125054819D01*
X158833333Y-125054819D02*
X158261905Y-125054819D01*
X158547619Y-125054819D02*
X158547619Y-124054819D01*
X158547619Y-124054819D02*
X158452381Y-124197676D01*
X158452381Y-124197676D02*
X158357143Y-124292914D01*
X158357143Y-124292914D02*
X158261905Y-124340533D01*
X159452381Y-124054819D02*
X159547619Y-124054819D01*
X159547619Y-124054819D02*
X159642857Y-124102438D01*
X159642857Y-124102438D02*
X159690476Y-124150057D01*
X159690476Y-124150057D02*
X159738095Y-124245295D01*
X159738095Y-124245295D02*
X159785714Y-124435771D01*
X159785714Y-124435771D02*
X159785714Y-124673866D01*
X159785714Y-124673866D02*
X159738095Y-124864342D01*
X159738095Y-124864342D02*
X159690476Y-124959580D01*
X159690476Y-124959580D02*
X159642857Y-125007200D01*
X159642857Y-125007200D02*
X159547619Y-125054819D01*
X159547619Y-125054819D02*
X159452381Y-125054819D01*
X159452381Y-125054819D02*
X159357143Y-125007200D01*
X159357143Y-125007200D02*
X159309524Y-124959580D01*
X159309524Y-124959580D02*
X159261905Y-124864342D01*
X159261905Y-124864342D02*
X159214286Y-124673866D01*
X159214286Y-124673866D02*
X159214286Y-124435771D01*
X159214286Y-124435771D02*
X159261905Y-124245295D01*
X159261905Y-124245295D02*
X159309524Y-124150057D01*
X159309524Y-124150057D02*
X159357143Y-124102438D01*
X159357143Y-124102438D02*
X159452381Y-124054819D01*
X159057142Y-113859580D02*
X159009523Y-113907200D01*
X159009523Y-113907200D02*
X158866666Y-113954819D01*
X158866666Y-113954819D02*
X158771428Y-113954819D01*
X158771428Y-113954819D02*
X158628571Y-113907200D01*
X158628571Y-113907200D02*
X158533333Y-113811961D01*
X158533333Y-113811961D02*
X158485714Y-113716723D01*
X158485714Y-113716723D02*
X158438095Y-113526247D01*
X158438095Y-113526247D02*
X158438095Y-113383390D01*
X158438095Y-113383390D02*
X158485714Y-113192914D01*
X158485714Y-113192914D02*
X158533333Y-113097676D01*
X158533333Y-113097676D02*
X158628571Y-113002438D01*
X158628571Y-113002438D02*
X158771428Y-112954819D01*
X158771428Y-112954819D02*
X158866666Y-112954819D01*
X158866666Y-112954819D02*
X159009523Y-113002438D01*
X159009523Y-113002438D02*
X159057142Y-113050057D01*
X159390476Y-112954819D02*
X160009523Y-112954819D01*
X160009523Y-112954819D02*
X159676190Y-113335771D01*
X159676190Y-113335771D02*
X159819047Y-113335771D01*
X159819047Y-113335771D02*
X159914285Y-113383390D01*
X159914285Y-113383390D02*
X159961904Y-113431009D01*
X159961904Y-113431009D02*
X160009523Y-113526247D01*
X160009523Y-113526247D02*
X160009523Y-113764342D01*
X160009523Y-113764342D02*
X159961904Y-113859580D01*
X159961904Y-113859580D02*
X159914285Y-113907200D01*
X159914285Y-113907200D02*
X159819047Y-113954819D01*
X159819047Y-113954819D02*
X159533333Y-113954819D01*
X159533333Y-113954819D02*
X159438095Y-113907200D01*
X159438095Y-113907200D02*
X159390476Y-113859580D01*
X160390476Y-113050057D02*
X160438095Y-113002438D01*
X160438095Y-113002438D02*
X160533333Y-112954819D01*
X160533333Y-112954819D02*
X160771428Y-112954819D01*
X160771428Y-112954819D02*
X160866666Y-113002438D01*
X160866666Y-113002438D02*
X160914285Y-113050057D01*
X160914285Y-113050057D02*
X160961904Y-113145295D01*
X160961904Y-113145295D02*
X160961904Y-113240533D01*
X160961904Y-113240533D02*
X160914285Y-113383390D01*
X160914285Y-113383390D02*
X160342857Y-113954819D01*
X160342857Y-113954819D02*
X160961904Y-113954819D01*
X154257142Y-85559580D02*
X154209523Y-85607200D01*
X154209523Y-85607200D02*
X154066666Y-85654819D01*
X154066666Y-85654819D02*
X153971428Y-85654819D01*
X153971428Y-85654819D02*
X153828571Y-85607200D01*
X153828571Y-85607200D02*
X153733333Y-85511961D01*
X153733333Y-85511961D02*
X153685714Y-85416723D01*
X153685714Y-85416723D02*
X153638095Y-85226247D01*
X153638095Y-85226247D02*
X153638095Y-85083390D01*
X153638095Y-85083390D02*
X153685714Y-84892914D01*
X153685714Y-84892914D02*
X153733333Y-84797676D01*
X153733333Y-84797676D02*
X153828571Y-84702438D01*
X153828571Y-84702438D02*
X153971428Y-84654819D01*
X153971428Y-84654819D02*
X154066666Y-84654819D01*
X154066666Y-84654819D02*
X154209523Y-84702438D01*
X154209523Y-84702438D02*
X154257142Y-84750057D01*
X155209523Y-85654819D02*
X154638095Y-85654819D01*
X154923809Y-85654819D02*
X154923809Y-84654819D01*
X154923809Y-84654819D02*
X154828571Y-84797676D01*
X154828571Y-84797676D02*
X154733333Y-84892914D01*
X154733333Y-84892914D02*
X154638095Y-84940533D01*
X156066666Y-84988152D02*
X156066666Y-85654819D01*
X155828571Y-84607200D02*
X155590476Y-85321485D01*
X155590476Y-85321485D02*
X156209523Y-85321485D01*
X197938095Y-113954819D02*
X198509523Y-113954819D01*
X198223809Y-114954819D02*
X198223809Y-113954819D01*
X198842857Y-114954819D02*
X198842857Y-113954819D01*
X198842857Y-113954819D02*
X199223809Y-113954819D01*
X199223809Y-113954819D02*
X199319047Y-114002438D01*
X199319047Y-114002438D02*
X199366666Y-114050057D01*
X199366666Y-114050057D02*
X199414285Y-114145295D01*
X199414285Y-114145295D02*
X199414285Y-114288152D01*
X199414285Y-114288152D02*
X199366666Y-114383390D01*
X199366666Y-114383390D02*
X199319047Y-114431009D01*
X199319047Y-114431009D02*
X199223809Y-114478628D01*
X199223809Y-114478628D02*
X198842857Y-114478628D01*
X200271428Y-114288152D02*
X200271428Y-114954819D01*
X200033333Y-113907200D02*
X199795238Y-114621485D01*
X199795238Y-114621485D02*
X200414285Y-114621485D01*
X197714286Y-115554819D02*
X198047619Y-116554819D01*
X198047619Y-116554819D02*
X198380952Y-115554819D01*
X199285714Y-116554819D02*
X198952381Y-116078628D01*
X198714286Y-116554819D02*
X198714286Y-115554819D01*
X198714286Y-115554819D02*
X199095238Y-115554819D01*
X199095238Y-115554819D02*
X199190476Y-115602438D01*
X199190476Y-115602438D02*
X199238095Y-115650057D01*
X199238095Y-115650057D02*
X199285714Y-115745295D01*
X199285714Y-115745295D02*
X199285714Y-115888152D01*
X199285714Y-115888152D02*
X199238095Y-115983390D01*
X199238095Y-115983390D02*
X199190476Y-116031009D01*
X199190476Y-116031009D02*
X199095238Y-116078628D01*
X199095238Y-116078628D02*
X198714286Y-116078628D01*
X199714286Y-116031009D02*
X200047619Y-116031009D01*
X200190476Y-116554819D02*
X199714286Y-116554819D01*
X199714286Y-116554819D02*
X199714286Y-115554819D01*
X199714286Y-115554819D02*
X200190476Y-115554819D01*
X201142857Y-115602438D02*
X201047619Y-115554819D01*
X201047619Y-115554819D02*
X200904762Y-115554819D01*
X200904762Y-115554819D02*
X200761905Y-115602438D01*
X200761905Y-115602438D02*
X200666667Y-115697676D01*
X200666667Y-115697676D02*
X200619048Y-115792914D01*
X200619048Y-115792914D02*
X200571429Y-115983390D01*
X200571429Y-115983390D02*
X200571429Y-116126247D01*
X200571429Y-116126247D02*
X200619048Y-116316723D01*
X200619048Y-116316723D02*
X200666667Y-116411961D01*
X200666667Y-116411961D02*
X200761905Y-116507200D01*
X200761905Y-116507200D02*
X200904762Y-116554819D01*
X200904762Y-116554819D02*
X201000000Y-116554819D01*
X201000000Y-116554819D02*
X201142857Y-116507200D01*
X201142857Y-116507200D02*
X201190476Y-116459580D01*
X201190476Y-116459580D02*
X201190476Y-116126247D01*
X201190476Y-116126247D02*
X201000000Y-116126247D01*
X188704761Y-87250057D02*
X188609523Y-87202438D01*
X188609523Y-87202438D02*
X188514285Y-87107200D01*
X188514285Y-87107200D02*
X188371428Y-86964342D01*
X188371428Y-86964342D02*
X188276190Y-86916723D01*
X188276190Y-86916723D02*
X188180952Y-86916723D01*
X188228571Y-87154819D02*
X188133333Y-87107200D01*
X188133333Y-87107200D02*
X188038095Y-87011961D01*
X188038095Y-87011961D02*
X187990476Y-86821485D01*
X187990476Y-86821485D02*
X187990476Y-86488152D01*
X187990476Y-86488152D02*
X188038095Y-86297676D01*
X188038095Y-86297676D02*
X188133333Y-86202438D01*
X188133333Y-86202438D02*
X188228571Y-86154819D01*
X188228571Y-86154819D02*
X188419047Y-86154819D01*
X188419047Y-86154819D02*
X188514285Y-86202438D01*
X188514285Y-86202438D02*
X188609523Y-86297676D01*
X188609523Y-86297676D02*
X188657142Y-86488152D01*
X188657142Y-86488152D02*
X188657142Y-86821485D01*
X188657142Y-86821485D02*
X188609523Y-87011961D01*
X188609523Y-87011961D02*
X188514285Y-87107200D01*
X188514285Y-87107200D02*
X188419047Y-87154819D01*
X188419047Y-87154819D02*
X188228571Y-87154819D01*
X189561904Y-86154819D02*
X189085714Y-86154819D01*
X189085714Y-86154819D02*
X189038095Y-86631009D01*
X189038095Y-86631009D02*
X189085714Y-86583390D01*
X189085714Y-86583390D02*
X189180952Y-86535771D01*
X189180952Y-86535771D02*
X189419047Y-86535771D01*
X189419047Y-86535771D02*
X189514285Y-86583390D01*
X189514285Y-86583390D02*
X189561904Y-86631009D01*
X189561904Y-86631009D02*
X189609523Y-86726247D01*
X189609523Y-86726247D02*
X189609523Y-86964342D01*
X189609523Y-86964342D02*
X189561904Y-87059580D01*
X189561904Y-87059580D02*
X189514285Y-87107200D01*
X189514285Y-87107200D02*
X189419047Y-87154819D01*
X189419047Y-87154819D02*
X189180952Y-87154819D01*
X189180952Y-87154819D02*
X189085714Y-87107200D01*
X189085714Y-87107200D02*
X189038095Y-87059580D01*
X196066666Y-80054819D02*
X196066666Y-80769104D01*
X196066666Y-80769104D02*
X196019047Y-80911961D01*
X196019047Y-80911961D02*
X195923809Y-81007200D01*
X195923809Y-81007200D02*
X195780952Y-81054819D01*
X195780952Y-81054819D02*
X195685714Y-81054819D01*
X196542857Y-81054819D02*
X196542857Y-80054819D01*
X196542857Y-80054819D02*
X196923809Y-80054819D01*
X196923809Y-80054819D02*
X197019047Y-80102438D01*
X197019047Y-80102438D02*
X197066666Y-80150057D01*
X197066666Y-80150057D02*
X197114285Y-80245295D01*
X197114285Y-80245295D02*
X197114285Y-80388152D01*
X197114285Y-80388152D02*
X197066666Y-80483390D01*
X197066666Y-80483390D02*
X197019047Y-80531009D01*
X197019047Y-80531009D02*
X196923809Y-80578628D01*
X196923809Y-80578628D02*
X196542857Y-80578628D01*
X198066666Y-81054819D02*
X197495238Y-81054819D01*
X197780952Y-81054819D02*
X197780952Y-80054819D01*
X197780952Y-80054819D02*
X197685714Y-80197676D01*
X197685714Y-80197676D02*
X197590476Y-80292914D01*
X197590476Y-80292914D02*
X197495238Y-80340533D01*
X195628571Y-81654819D02*
X195628571Y-82464342D01*
X195628571Y-82464342D02*
X195676190Y-82559580D01*
X195676190Y-82559580D02*
X195723809Y-82607200D01*
X195723809Y-82607200D02*
X195819047Y-82654819D01*
X195819047Y-82654819D02*
X196009523Y-82654819D01*
X196009523Y-82654819D02*
X196104761Y-82607200D01*
X196104761Y-82607200D02*
X196152380Y-82559580D01*
X196152380Y-82559580D02*
X196199999Y-82464342D01*
X196199999Y-82464342D02*
X196199999Y-81654819D01*
X196533333Y-81654819D02*
X196866666Y-82654819D01*
X196866666Y-82654819D02*
X197199999Y-81654819D01*
X197295238Y-82750057D02*
X198057142Y-82750057D01*
X198295238Y-82131009D02*
X198628571Y-82131009D01*
X198771428Y-82654819D02*
X198295238Y-82654819D01*
X198295238Y-82654819D02*
X198295238Y-81654819D01*
X198295238Y-81654819D02*
X198771428Y-81654819D01*
X199200000Y-82654819D02*
X199200000Y-81654819D01*
X199200000Y-81654819D02*
X199771428Y-82654819D01*
X199771428Y-82654819D02*
X199771428Y-81654819D01*
X104661905Y-107754819D02*
X104661905Y-106754819D01*
X104661905Y-106754819D02*
X104900000Y-106754819D01*
X104900000Y-106754819D02*
X105042857Y-106802438D01*
X105042857Y-106802438D02*
X105138095Y-106897676D01*
X105138095Y-106897676D02*
X105185714Y-106992914D01*
X105185714Y-106992914D02*
X105233333Y-107183390D01*
X105233333Y-107183390D02*
X105233333Y-107326247D01*
X105233333Y-107326247D02*
X105185714Y-107516723D01*
X105185714Y-107516723D02*
X105138095Y-107611961D01*
X105138095Y-107611961D02*
X105042857Y-107707200D01*
X105042857Y-107707200D02*
X104900000Y-107754819D01*
X104900000Y-107754819D02*
X104661905Y-107754819D01*
X106138095Y-106754819D02*
X105661905Y-106754819D01*
X105661905Y-106754819D02*
X105614286Y-107231009D01*
X105614286Y-107231009D02*
X105661905Y-107183390D01*
X105661905Y-107183390D02*
X105757143Y-107135771D01*
X105757143Y-107135771D02*
X105995238Y-107135771D01*
X105995238Y-107135771D02*
X106090476Y-107183390D01*
X106090476Y-107183390D02*
X106138095Y-107231009D01*
X106138095Y-107231009D02*
X106185714Y-107326247D01*
X106185714Y-107326247D02*
X106185714Y-107564342D01*
X106185714Y-107564342D02*
X106138095Y-107659580D01*
X106138095Y-107659580D02*
X106090476Y-107707200D01*
X106090476Y-107707200D02*
X105995238Y-107754819D01*
X105995238Y-107754819D02*
X105757143Y-107754819D01*
X105757143Y-107754819D02*
X105661905Y-107707200D01*
X105661905Y-107707200D02*
X105614286Y-107659580D01*
X144116667Y-129507200D02*
X144259524Y-129554819D01*
X144259524Y-129554819D02*
X144497619Y-129554819D01*
X144497619Y-129554819D02*
X144592857Y-129507200D01*
X144592857Y-129507200D02*
X144640476Y-129459580D01*
X144640476Y-129459580D02*
X144688095Y-129364342D01*
X144688095Y-129364342D02*
X144688095Y-129269104D01*
X144688095Y-129269104D02*
X144640476Y-129173866D01*
X144640476Y-129173866D02*
X144592857Y-129126247D01*
X144592857Y-129126247D02*
X144497619Y-129078628D01*
X144497619Y-129078628D02*
X144307143Y-129031009D01*
X144307143Y-129031009D02*
X144211905Y-128983390D01*
X144211905Y-128983390D02*
X144164286Y-128935771D01*
X144164286Y-128935771D02*
X144116667Y-128840533D01*
X144116667Y-128840533D02*
X144116667Y-128745295D01*
X144116667Y-128745295D02*
X144164286Y-128650057D01*
X144164286Y-128650057D02*
X144211905Y-128602438D01*
X144211905Y-128602438D02*
X144307143Y-128554819D01*
X144307143Y-128554819D02*
X144545238Y-128554819D01*
X144545238Y-128554819D02*
X144688095Y-128602438D01*
X145021429Y-128554819D02*
X145259524Y-129554819D01*
X145259524Y-129554819D02*
X145450000Y-128840533D01*
X145450000Y-128840533D02*
X145640476Y-129554819D01*
X145640476Y-129554819D02*
X145878572Y-128554819D01*
X146211905Y-128650057D02*
X146259524Y-128602438D01*
X146259524Y-128602438D02*
X146354762Y-128554819D01*
X146354762Y-128554819D02*
X146592857Y-128554819D01*
X146592857Y-128554819D02*
X146688095Y-128602438D01*
X146688095Y-128602438D02*
X146735714Y-128650057D01*
X146735714Y-128650057D02*
X146783333Y-128745295D01*
X146783333Y-128745295D02*
X146783333Y-128840533D01*
X146783333Y-128840533D02*
X146735714Y-128983390D01*
X146735714Y-128983390D02*
X146164286Y-129554819D01*
X146164286Y-129554819D02*
X146783333Y-129554819D01*
X146857142Y-119859580D02*
X146809523Y-119907200D01*
X146809523Y-119907200D02*
X146666666Y-119954819D01*
X146666666Y-119954819D02*
X146571428Y-119954819D01*
X146571428Y-119954819D02*
X146428571Y-119907200D01*
X146428571Y-119907200D02*
X146333333Y-119811961D01*
X146333333Y-119811961D02*
X146285714Y-119716723D01*
X146285714Y-119716723D02*
X146238095Y-119526247D01*
X146238095Y-119526247D02*
X146238095Y-119383390D01*
X146238095Y-119383390D02*
X146285714Y-119192914D01*
X146285714Y-119192914D02*
X146333333Y-119097676D01*
X146333333Y-119097676D02*
X146428571Y-119002438D01*
X146428571Y-119002438D02*
X146571428Y-118954819D01*
X146571428Y-118954819D02*
X146666666Y-118954819D01*
X146666666Y-118954819D02*
X146809523Y-119002438D01*
X146809523Y-119002438D02*
X146857142Y-119050057D01*
X147190476Y-118954819D02*
X147809523Y-118954819D01*
X147809523Y-118954819D02*
X147476190Y-119335771D01*
X147476190Y-119335771D02*
X147619047Y-119335771D01*
X147619047Y-119335771D02*
X147714285Y-119383390D01*
X147714285Y-119383390D02*
X147761904Y-119431009D01*
X147761904Y-119431009D02*
X147809523Y-119526247D01*
X147809523Y-119526247D02*
X147809523Y-119764342D01*
X147809523Y-119764342D02*
X147761904Y-119859580D01*
X147761904Y-119859580D02*
X147714285Y-119907200D01*
X147714285Y-119907200D02*
X147619047Y-119954819D01*
X147619047Y-119954819D02*
X147333333Y-119954819D01*
X147333333Y-119954819D02*
X147238095Y-119907200D01*
X147238095Y-119907200D02*
X147190476Y-119859580D01*
X148666666Y-118954819D02*
X148476190Y-118954819D01*
X148476190Y-118954819D02*
X148380952Y-119002438D01*
X148380952Y-119002438D02*
X148333333Y-119050057D01*
X148333333Y-119050057D02*
X148238095Y-119192914D01*
X148238095Y-119192914D02*
X148190476Y-119383390D01*
X148190476Y-119383390D02*
X148190476Y-119764342D01*
X148190476Y-119764342D02*
X148238095Y-119859580D01*
X148238095Y-119859580D02*
X148285714Y-119907200D01*
X148285714Y-119907200D02*
X148380952Y-119954819D01*
X148380952Y-119954819D02*
X148571428Y-119954819D01*
X148571428Y-119954819D02*
X148666666Y-119907200D01*
X148666666Y-119907200D02*
X148714285Y-119859580D01*
X148714285Y-119859580D02*
X148761904Y-119764342D01*
X148761904Y-119764342D02*
X148761904Y-119526247D01*
X148761904Y-119526247D02*
X148714285Y-119431009D01*
X148714285Y-119431009D02*
X148666666Y-119383390D01*
X148666666Y-119383390D02*
X148571428Y-119335771D01*
X148571428Y-119335771D02*
X148380952Y-119335771D01*
X148380952Y-119335771D02*
X148285714Y-119383390D01*
X148285714Y-119383390D02*
X148238095Y-119431009D01*
X148238095Y-119431009D02*
X148190476Y-119526247D01*
X192866666Y-121754819D02*
X192866666Y-122469104D01*
X192866666Y-122469104D02*
X192819047Y-122611961D01*
X192819047Y-122611961D02*
X192723809Y-122707200D01*
X192723809Y-122707200D02*
X192580952Y-122754819D01*
X192580952Y-122754819D02*
X192485714Y-122754819D01*
X193342857Y-122754819D02*
X193342857Y-121754819D01*
X193342857Y-121754819D02*
X193723809Y-121754819D01*
X193723809Y-121754819D02*
X193819047Y-121802438D01*
X193819047Y-121802438D02*
X193866666Y-121850057D01*
X193866666Y-121850057D02*
X193914285Y-121945295D01*
X193914285Y-121945295D02*
X193914285Y-122088152D01*
X193914285Y-122088152D02*
X193866666Y-122183390D01*
X193866666Y-122183390D02*
X193819047Y-122231009D01*
X193819047Y-122231009D02*
X193723809Y-122278628D01*
X193723809Y-122278628D02*
X193342857Y-122278628D01*
X194247619Y-121754819D02*
X194866666Y-121754819D01*
X194866666Y-121754819D02*
X194533333Y-122135771D01*
X194533333Y-122135771D02*
X194676190Y-122135771D01*
X194676190Y-122135771D02*
X194771428Y-122183390D01*
X194771428Y-122183390D02*
X194819047Y-122231009D01*
X194819047Y-122231009D02*
X194866666Y-122326247D01*
X194866666Y-122326247D02*
X194866666Y-122564342D01*
X194866666Y-122564342D02*
X194819047Y-122659580D01*
X194819047Y-122659580D02*
X194771428Y-122707200D01*
X194771428Y-122707200D02*
X194676190Y-122754819D01*
X194676190Y-122754819D02*
X194390476Y-122754819D01*
X194390476Y-122754819D02*
X194295238Y-122707200D01*
X194295238Y-122707200D02*
X194247619Y-122659580D01*
X192514285Y-123154819D02*
X192514285Y-123964342D01*
X192514285Y-123964342D02*
X192561904Y-124059580D01*
X192561904Y-124059580D02*
X192609523Y-124107200D01*
X192609523Y-124107200D02*
X192704761Y-124154819D01*
X192704761Y-124154819D02*
X192895237Y-124154819D01*
X192895237Y-124154819D02*
X192990475Y-124107200D01*
X192990475Y-124107200D02*
X193038094Y-124059580D01*
X193038094Y-124059580D02*
X193085713Y-123964342D01*
X193085713Y-123964342D02*
X193085713Y-123154819D01*
X193514285Y-124107200D02*
X193657142Y-124154819D01*
X193657142Y-124154819D02*
X193895237Y-124154819D01*
X193895237Y-124154819D02*
X193990475Y-124107200D01*
X193990475Y-124107200D02*
X194038094Y-124059580D01*
X194038094Y-124059580D02*
X194085713Y-123964342D01*
X194085713Y-123964342D02*
X194085713Y-123869104D01*
X194085713Y-123869104D02*
X194038094Y-123773866D01*
X194038094Y-123773866D02*
X193990475Y-123726247D01*
X193990475Y-123726247D02*
X193895237Y-123678628D01*
X193895237Y-123678628D02*
X193704761Y-123631009D01*
X193704761Y-123631009D02*
X193609523Y-123583390D01*
X193609523Y-123583390D02*
X193561904Y-123535771D01*
X193561904Y-123535771D02*
X193514285Y-123440533D01*
X193514285Y-123440533D02*
X193514285Y-123345295D01*
X193514285Y-123345295D02*
X193561904Y-123250057D01*
X193561904Y-123250057D02*
X193609523Y-123202438D01*
X193609523Y-123202438D02*
X193704761Y-123154819D01*
X193704761Y-123154819D02*
X193942856Y-123154819D01*
X193942856Y-123154819D02*
X194085713Y-123202438D01*
X194847618Y-123631009D02*
X194990475Y-123678628D01*
X194990475Y-123678628D02*
X195038094Y-123726247D01*
X195038094Y-123726247D02*
X195085713Y-123821485D01*
X195085713Y-123821485D02*
X195085713Y-123964342D01*
X195085713Y-123964342D02*
X195038094Y-124059580D01*
X195038094Y-124059580D02*
X194990475Y-124107200D01*
X194990475Y-124107200D02*
X194895237Y-124154819D01*
X194895237Y-124154819D02*
X194514285Y-124154819D01*
X194514285Y-124154819D02*
X194514285Y-123154819D01*
X194514285Y-123154819D02*
X194847618Y-123154819D01*
X194847618Y-123154819D02*
X194942856Y-123202438D01*
X194942856Y-123202438D02*
X194990475Y-123250057D01*
X194990475Y-123250057D02*
X195038094Y-123345295D01*
X195038094Y-123345295D02*
X195038094Y-123440533D01*
X195038094Y-123440533D02*
X194990475Y-123535771D01*
X194990475Y-123535771D02*
X194942856Y-123583390D01*
X194942856Y-123583390D02*
X194847618Y-123631009D01*
X194847618Y-123631009D02*
X194514285Y-123631009D01*
X195847618Y-123631009D02*
X195514285Y-123631009D01*
X195514285Y-124154819D02*
X195514285Y-123154819D01*
X195514285Y-123154819D02*
X195990475Y-123154819D01*
X196133333Y-124250057D02*
X196895237Y-124250057D01*
X197704761Y-124154819D02*
X197371428Y-123678628D01*
X197133333Y-124154819D02*
X197133333Y-123154819D01*
X197133333Y-123154819D02*
X197514285Y-123154819D01*
X197514285Y-123154819D02*
X197609523Y-123202438D01*
X197609523Y-123202438D02*
X197657142Y-123250057D01*
X197657142Y-123250057D02*
X197704761Y-123345295D01*
X197704761Y-123345295D02*
X197704761Y-123488152D01*
X197704761Y-123488152D02*
X197657142Y-123583390D01*
X197657142Y-123583390D02*
X197609523Y-123631009D01*
X197609523Y-123631009D02*
X197514285Y-123678628D01*
X197514285Y-123678628D02*
X197133333Y-123678628D01*
X198085714Y-124107200D02*
X198228571Y-124154819D01*
X198228571Y-124154819D02*
X198466666Y-124154819D01*
X198466666Y-124154819D02*
X198561904Y-124107200D01*
X198561904Y-124107200D02*
X198609523Y-124059580D01*
X198609523Y-124059580D02*
X198657142Y-123964342D01*
X198657142Y-123964342D02*
X198657142Y-123869104D01*
X198657142Y-123869104D02*
X198609523Y-123773866D01*
X198609523Y-123773866D02*
X198561904Y-123726247D01*
X198561904Y-123726247D02*
X198466666Y-123678628D01*
X198466666Y-123678628D02*
X198276190Y-123631009D01*
X198276190Y-123631009D02*
X198180952Y-123583390D01*
X198180952Y-123583390D02*
X198133333Y-123535771D01*
X198133333Y-123535771D02*
X198085714Y-123440533D01*
X198085714Y-123440533D02*
X198085714Y-123345295D01*
X198085714Y-123345295D02*
X198133333Y-123250057D01*
X198133333Y-123250057D02*
X198180952Y-123202438D01*
X198180952Y-123202438D02*
X198276190Y-123154819D01*
X198276190Y-123154819D02*
X198514285Y-123154819D01*
X198514285Y-123154819D02*
X198657142Y-123202438D01*
X198942857Y-123154819D02*
X199514285Y-123154819D01*
X199228571Y-124154819D02*
X199228571Y-123154819D01*
X199609524Y-124250057D02*
X200371428Y-124250057D01*
X200609524Y-123631009D02*
X200942857Y-123631009D01*
X201085714Y-124154819D02*
X200609524Y-124154819D01*
X200609524Y-124154819D02*
X200609524Y-123154819D01*
X200609524Y-123154819D02*
X201085714Y-123154819D01*
X201514286Y-124154819D02*
X201514286Y-123154819D01*
X201514286Y-123154819D02*
X202085714Y-124154819D01*
X202085714Y-124154819D02*
X202085714Y-123154819D01*
X196214285Y-98331009D02*
X196357142Y-98378628D01*
X196357142Y-98378628D02*
X196404761Y-98426247D01*
X196404761Y-98426247D02*
X196452380Y-98521485D01*
X196452380Y-98521485D02*
X196452380Y-98664342D01*
X196452380Y-98664342D02*
X196404761Y-98759580D01*
X196404761Y-98759580D02*
X196357142Y-98807200D01*
X196357142Y-98807200D02*
X196261904Y-98854819D01*
X196261904Y-98854819D02*
X195880952Y-98854819D01*
X195880952Y-98854819D02*
X195880952Y-97854819D01*
X195880952Y-97854819D02*
X196214285Y-97854819D01*
X196214285Y-97854819D02*
X196309523Y-97902438D01*
X196309523Y-97902438D02*
X196357142Y-97950057D01*
X196357142Y-97950057D02*
X196404761Y-98045295D01*
X196404761Y-98045295D02*
X196404761Y-98140533D01*
X196404761Y-98140533D02*
X196357142Y-98235771D01*
X196357142Y-98235771D02*
X196309523Y-98283390D01*
X196309523Y-98283390D02*
X196214285Y-98331009D01*
X196214285Y-98331009D02*
X195880952Y-98331009D01*
X196738095Y-97854819D02*
X197309523Y-97854819D01*
X197023809Y-98854819D02*
X197023809Y-97854819D01*
X198166666Y-98854819D02*
X197595238Y-98854819D01*
X197880952Y-98854819D02*
X197880952Y-97854819D01*
X197880952Y-97854819D02*
X197785714Y-97997676D01*
X197785714Y-97997676D02*
X197690476Y-98092914D01*
X197690476Y-98092914D02*
X197595238Y-98140533D01*
X201933333Y-94254819D02*
X201600000Y-93778628D01*
X201361905Y-94254819D02*
X201361905Y-93254819D01*
X201361905Y-93254819D02*
X201742857Y-93254819D01*
X201742857Y-93254819D02*
X201838095Y-93302438D01*
X201838095Y-93302438D02*
X201885714Y-93350057D01*
X201885714Y-93350057D02*
X201933333Y-93445295D01*
X201933333Y-93445295D02*
X201933333Y-93588152D01*
X201933333Y-93588152D02*
X201885714Y-93683390D01*
X201885714Y-93683390D02*
X201838095Y-93731009D01*
X201838095Y-93731009D02*
X201742857Y-93778628D01*
X201742857Y-93778628D02*
X201361905Y-93778628D01*
X202504762Y-93683390D02*
X202409524Y-93635771D01*
X202409524Y-93635771D02*
X202361905Y-93588152D01*
X202361905Y-93588152D02*
X202314286Y-93492914D01*
X202314286Y-93492914D02*
X202314286Y-93445295D01*
X202314286Y-93445295D02*
X202361905Y-93350057D01*
X202361905Y-93350057D02*
X202409524Y-93302438D01*
X202409524Y-93302438D02*
X202504762Y-93254819D01*
X202504762Y-93254819D02*
X202695238Y-93254819D01*
X202695238Y-93254819D02*
X202790476Y-93302438D01*
X202790476Y-93302438D02*
X202838095Y-93350057D01*
X202838095Y-93350057D02*
X202885714Y-93445295D01*
X202885714Y-93445295D02*
X202885714Y-93492914D01*
X202885714Y-93492914D02*
X202838095Y-93588152D01*
X202838095Y-93588152D02*
X202790476Y-93635771D01*
X202790476Y-93635771D02*
X202695238Y-93683390D01*
X202695238Y-93683390D02*
X202504762Y-93683390D01*
X202504762Y-93683390D02*
X202409524Y-93731009D01*
X202409524Y-93731009D02*
X202361905Y-93778628D01*
X202361905Y-93778628D02*
X202314286Y-93873866D01*
X202314286Y-93873866D02*
X202314286Y-94064342D01*
X202314286Y-94064342D02*
X202361905Y-94159580D01*
X202361905Y-94159580D02*
X202409524Y-94207200D01*
X202409524Y-94207200D02*
X202504762Y-94254819D01*
X202504762Y-94254819D02*
X202695238Y-94254819D01*
X202695238Y-94254819D02*
X202790476Y-94207200D01*
X202790476Y-94207200D02*
X202838095Y-94159580D01*
X202838095Y-94159580D02*
X202885714Y-94064342D01*
X202885714Y-94064342D02*
X202885714Y-93873866D01*
X202885714Y-93873866D02*
X202838095Y-93778628D01*
X202838095Y-93778628D02*
X202790476Y-93731009D01*
X202790476Y-93731009D02*
X202695238Y-93683390D01*
X144257142Y-85759580D02*
X144209523Y-85807200D01*
X144209523Y-85807200D02*
X144066666Y-85854819D01*
X144066666Y-85854819D02*
X143971428Y-85854819D01*
X143971428Y-85854819D02*
X143828571Y-85807200D01*
X143828571Y-85807200D02*
X143733333Y-85711961D01*
X143733333Y-85711961D02*
X143685714Y-85616723D01*
X143685714Y-85616723D02*
X143638095Y-85426247D01*
X143638095Y-85426247D02*
X143638095Y-85283390D01*
X143638095Y-85283390D02*
X143685714Y-85092914D01*
X143685714Y-85092914D02*
X143733333Y-84997676D01*
X143733333Y-84997676D02*
X143828571Y-84902438D01*
X143828571Y-84902438D02*
X143971428Y-84854819D01*
X143971428Y-84854819D02*
X144066666Y-84854819D01*
X144066666Y-84854819D02*
X144209523Y-84902438D01*
X144209523Y-84902438D02*
X144257142Y-84950057D01*
X145209523Y-85854819D02*
X144638095Y-85854819D01*
X144923809Y-85854819D02*
X144923809Y-84854819D01*
X144923809Y-84854819D02*
X144828571Y-84997676D01*
X144828571Y-84997676D02*
X144733333Y-85092914D01*
X144733333Y-85092914D02*
X144638095Y-85140533D01*
X145542857Y-84854819D02*
X146209523Y-84854819D01*
X146209523Y-84854819D02*
X145780952Y-85854819D01*
X208357142Y-121559580D02*
X208309523Y-121607200D01*
X208309523Y-121607200D02*
X208166666Y-121654819D01*
X208166666Y-121654819D02*
X208071428Y-121654819D01*
X208071428Y-121654819D02*
X207928571Y-121607200D01*
X207928571Y-121607200D02*
X207833333Y-121511961D01*
X207833333Y-121511961D02*
X207785714Y-121416723D01*
X207785714Y-121416723D02*
X207738095Y-121226247D01*
X207738095Y-121226247D02*
X207738095Y-121083390D01*
X207738095Y-121083390D02*
X207785714Y-120892914D01*
X207785714Y-120892914D02*
X207833333Y-120797676D01*
X207833333Y-120797676D02*
X207928571Y-120702438D01*
X207928571Y-120702438D02*
X208071428Y-120654819D01*
X208071428Y-120654819D02*
X208166666Y-120654819D01*
X208166666Y-120654819D02*
X208309523Y-120702438D01*
X208309523Y-120702438D02*
X208357142Y-120750057D01*
X208738095Y-120750057D02*
X208785714Y-120702438D01*
X208785714Y-120702438D02*
X208880952Y-120654819D01*
X208880952Y-120654819D02*
X209119047Y-120654819D01*
X209119047Y-120654819D02*
X209214285Y-120702438D01*
X209214285Y-120702438D02*
X209261904Y-120750057D01*
X209261904Y-120750057D02*
X209309523Y-120845295D01*
X209309523Y-120845295D02*
X209309523Y-120940533D01*
X209309523Y-120940533D02*
X209261904Y-121083390D01*
X209261904Y-121083390D02*
X208690476Y-121654819D01*
X208690476Y-121654819D02*
X209309523Y-121654819D01*
X209928571Y-120654819D02*
X210023809Y-120654819D01*
X210023809Y-120654819D02*
X210119047Y-120702438D01*
X210119047Y-120702438D02*
X210166666Y-120750057D01*
X210166666Y-120750057D02*
X210214285Y-120845295D01*
X210214285Y-120845295D02*
X210261904Y-121035771D01*
X210261904Y-121035771D02*
X210261904Y-121273866D01*
X210261904Y-121273866D02*
X210214285Y-121464342D01*
X210214285Y-121464342D02*
X210166666Y-121559580D01*
X210166666Y-121559580D02*
X210119047Y-121607200D01*
X210119047Y-121607200D02*
X210023809Y-121654819D01*
X210023809Y-121654819D02*
X209928571Y-121654819D01*
X209928571Y-121654819D02*
X209833333Y-121607200D01*
X209833333Y-121607200D02*
X209785714Y-121559580D01*
X209785714Y-121559580D02*
X209738095Y-121464342D01*
X209738095Y-121464342D02*
X209690476Y-121273866D01*
X209690476Y-121273866D02*
X209690476Y-121035771D01*
X209690476Y-121035771D02*
X209738095Y-120845295D01*
X209738095Y-120845295D02*
X209785714Y-120750057D01*
X209785714Y-120750057D02*
X209833333Y-120702438D01*
X209833333Y-120702438D02*
X209928571Y-120654819D01*
X178566666Y-132754819D02*
X178566666Y-133469104D01*
X178566666Y-133469104D02*
X178519047Y-133611961D01*
X178519047Y-133611961D02*
X178423809Y-133707200D01*
X178423809Y-133707200D02*
X178280952Y-133754819D01*
X178280952Y-133754819D02*
X178185714Y-133754819D01*
X179519047Y-132754819D02*
X179042857Y-132754819D01*
X179042857Y-132754819D02*
X178995238Y-133231009D01*
X178995238Y-133231009D02*
X179042857Y-133183390D01*
X179042857Y-133183390D02*
X179138095Y-133135771D01*
X179138095Y-133135771D02*
X179376190Y-133135771D01*
X179376190Y-133135771D02*
X179471428Y-133183390D01*
X179471428Y-133183390D02*
X179519047Y-133231009D01*
X179519047Y-133231009D02*
X179566666Y-133326247D01*
X179566666Y-133326247D02*
X179566666Y-133564342D01*
X179566666Y-133564342D02*
X179519047Y-133659580D01*
X179519047Y-133659580D02*
X179471428Y-133707200D01*
X179471428Y-133707200D02*
X179376190Y-133754819D01*
X179376190Y-133754819D02*
X179138095Y-133754819D01*
X179138095Y-133754819D02*
X179042857Y-133707200D01*
X179042857Y-133707200D02*
X178995238Y-133659580D01*
X219357142Y-110054819D02*
X219023809Y-109578628D01*
X218785714Y-110054819D02*
X218785714Y-109054819D01*
X218785714Y-109054819D02*
X219166666Y-109054819D01*
X219166666Y-109054819D02*
X219261904Y-109102438D01*
X219261904Y-109102438D02*
X219309523Y-109150057D01*
X219309523Y-109150057D02*
X219357142Y-109245295D01*
X219357142Y-109245295D02*
X219357142Y-109388152D01*
X219357142Y-109388152D02*
X219309523Y-109483390D01*
X219309523Y-109483390D02*
X219261904Y-109531009D01*
X219261904Y-109531009D02*
X219166666Y-109578628D01*
X219166666Y-109578628D02*
X218785714Y-109578628D01*
X220309523Y-110054819D02*
X219738095Y-110054819D01*
X220023809Y-110054819D02*
X220023809Y-109054819D01*
X220023809Y-109054819D02*
X219928571Y-109197676D01*
X219928571Y-109197676D02*
X219833333Y-109292914D01*
X219833333Y-109292914D02*
X219738095Y-109340533D01*
X221166666Y-109054819D02*
X220976190Y-109054819D01*
X220976190Y-109054819D02*
X220880952Y-109102438D01*
X220880952Y-109102438D02*
X220833333Y-109150057D01*
X220833333Y-109150057D02*
X220738095Y-109292914D01*
X220738095Y-109292914D02*
X220690476Y-109483390D01*
X220690476Y-109483390D02*
X220690476Y-109864342D01*
X220690476Y-109864342D02*
X220738095Y-109959580D01*
X220738095Y-109959580D02*
X220785714Y-110007200D01*
X220785714Y-110007200D02*
X220880952Y-110054819D01*
X220880952Y-110054819D02*
X221071428Y-110054819D01*
X221071428Y-110054819D02*
X221166666Y-110007200D01*
X221166666Y-110007200D02*
X221214285Y-109959580D01*
X221214285Y-109959580D02*
X221261904Y-109864342D01*
X221261904Y-109864342D02*
X221261904Y-109626247D01*
X221261904Y-109626247D02*
X221214285Y-109531009D01*
X221214285Y-109531009D02*
X221166666Y-109483390D01*
X221166666Y-109483390D02*
X221071428Y-109435771D01*
X221071428Y-109435771D02*
X220880952Y-109435771D01*
X220880952Y-109435771D02*
X220785714Y-109483390D01*
X220785714Y-109483390D02*
X220738095Y-109531009D01*
X220738095Y-109531009D02*
X220690476Y-109626247D01*
X106857142Y-105524819D02*
X106523809Y-105048628D01*
X106285714Y-105524819D02*
X106285714Y-104524819D01*
X106285714Y-104524819D02*
X106666666Y-104524819D01*
X106666666Y-104524819D02*
X106761904Y-104572438D01*
X106761904Y-104572438D02*
X106809523Y-104620057D01*
X106809523Y-104620057D02*
X106857142Y-104715295D01*
X106857142Y-104715295D02*
X106857142Y-104858152D01*
X106857142Y-104858152D02*
X106809523Y-104953390D01*
X106809523Y-104953390D02*
X106761904Y-105001009D01*
X106761904Y-105001009D02*
X106666666Y-105048628D01*
X106666666Y-105048628D02*
X106285714Y-105048628D01*
X107190476Y-104524819D02*
X107809523Y-104524819D01*
X107809523Y-104524819D02*
X107476190Y-104905771D01*
X107476190Y-104905771D02*
X107619047Y-104905771D01*
X107619047Y-104905771D02*
X107714285Y-104953390D01*
X107714285Y-104953390D02*
X107761904Y-105001009D01*
X107761904Y-105001009D02*
X107809523Y-105096247D01*
X107809523Y-105096247D02*
X107809523Y-105334342D01*
X107809523Y-105334342D02*
X107761904Y-105429580D01*
X107761904Y-105429580D02*
X107714285Y-105477200D01*
X107714285Y-105477200D02*
X107619047Y-105524819D01*
X107619047Y-105524819D02*
X107333333Y-105524819D01*
X107333333Y-105524819D02*
X107238095Y-105477200D01*
X107238095Y-105477200D02*
X107190476Y-105429580D01*
X108428571Y-104524819D02*
X108523809Y-104524819D01*
X108523809Y-104524819D02*
X108619047Y-104572438D01*
X108619047Y-104572438D02*
X108666666Y-104620057D01*
X108666666Y-104620057D02*
X108714285Y-104715295D01*
X108714285Y-104715295D02*
X108761904Y-104905771D01*
X108761904Y-104905771D02*
X108761904Y-105143866D01*
X108761904Y-105143866D02*
X108714285Y-105334342D01*
X108714285Y-105334342D02*
X108666666Y-105429580D01*
X108666666Y-105429580D02*
X108619047Y-105477200D01*
X108619047Y-105477200D02*
X108523809Y-105524819D01*
X108523809Y-105524819D02*
X108428571Y-105524819D01*
X108428571Y-105524819D02*
X108333333Y-105477200D01*
X108333333Y-105477200D02*
X108285714Y-105429580D01*
X108285714Y-105429580D02*
X108238095Y-105334342D01*
X108238095Y-105334342D02*
X108190476Y-105143866D01*
X108190476Y-105143866D02*
X108190476Y-104905771D01*
X108190476Y-104905771D02*
X108238095Y-104715295D01*
X108238095Y-104715295D02*
X108285714Y-104620057D01*
X108285714Y-104620057D02*
X108333333Y-104572438D01*
X108333333Y-104572438D02*
X108428571Y-104524819D01*
X214357142Y-100559580D02*
X214309523Y-100607200D01*
X214309523Y-100607200D02*
X214166666Y-100654819D01*
X214166666Y-100654819D02*
X214071428Y-100654819D01*
X214071428Y-100654819D02*
X213928571Y-100607200D01*
X213928571Y-100607200D02*
X213833333Y-100511961D01*
X213833333Y-100511961D02*
X213785714Y-100416723D01*
X213785714Y-100416723D02*
X213738095Y-100226247D01*
X213738095Y-100226247D02*
X213738095Y-100083390D01*
X213738095Y-100083390D02*
X213785714Y-99892914D01*
X213785714Y-99892914D02*
X213833333Y-99797676D01*
X213833333Y-99797676D02*
X213928571Y-99702438D01*
X213928571Y-99702438D02*
X214071428Y-99654819D01*
X214071428Y-99654819D02*
X214166666Y-99654819D01*
X214166666Y-99654819D02*
X214309523Y-99702438D01*
X214309523Y-99702438D02*
X214357142Y-99750057D01*
X215309523Y-100654819D02*
X214738095Y-100654819D01*
X215023809Y-100654819D02*
X215023809Y-99654819D01*
X215023809Y-99654819D02*
X214928571Y-99797676D01*
X214928571Y-99797676D02*
X214833333Y-99892914D01*
X214833333Y-99892914D02*
X214738095Y-99940533D01*
X215785714Y-100654819D02*
X215976190Y-100654819D01*
X215976190Y-100654819D02*
X216071428Y-100607200D01*
X216071428Y-100607200D02*
X216119047Y-100559580D01*
X216119047Y-100559580D02*
X216214285Y-100416723D01*
X216214285Y-100416723D02*
X216261904Y-100226247D01*
X216261904Y-100226247D02*
X216261904Y-99845295D01*
X216261904Y-99845295D02*
X216214285Y-99750057D01*
X216214285Y-99750057D02*
X216166666Y-99702438D01*
X216166666Y-99702438D02*
X216071428Y-99654819D01*
X216071428Y-99654819D02*
X215880952Y-99654819D01*
X215880952Y-99654819D02*
X215785714Y-99702438D01*
X215785714Y-99702438D02*
X215738095Y-99750057D01*
X215738095Y-99750057D02*
X215690476Y-99845295D01*
X215690476Y-99845295D02*
X215690476Y-100083390D01*
X215690476Y-100083390D02*
X215738095Y-100178628D01*
X215738095Y-100178628D02*
X215785714Y-100226247D01*
X215785714Y-100226247D02*
X215880952Y-100273866D01*
X215880952Y-100273866D02*
X216071428Y-100273866D01*
X216071428Y-100273866D02*
X216166666Y-100226247D01*
X216166666Y-100226247D02*
X216214285Y-100178628D01*
X216214285Y-100178628D02*
X216261904Y-100083390D01*
X225038095Y-102254819D02*
X225038095Y-103064342D01*
X225038095Y-103064342D02*
X225085714Y-103159580D01*
X225085714Y-103159580D02*
X225133333Y-103207200D01*
X225133333Y-103207200D02*
X225228571Y-103254819D01*
X225228571Y-103254819D02*
X225419047Y-103254819D01*
X225419047Y-103254819D02*
X225514285Y-103207200D01*
X225514285Y-103207200D02*
X225561904Y-103159580D01*
X225561904Y-103159580D02*
X225609523Y-103064342D01*
X225609523Y-103064342D02*
X225609523Y-102254819D01*
X225990476Y-102254819D02*
X226609523Y-102254819D01*
X226609523Y-102254819D02*
X226276190Y-102635771D01*
X226276190Y-102635771D02*
X226419047Y-102635771D01*
X226419047Y-102635771D02*
X226514285Y-102683390D01*
X226514285Y-102683390D02*
X226561904Y-102731009D01*
X226561904Y-102731009D02*
X226609523Y-102826247D01*
X226609523Y-102826247D02*
X226609523Y-103064342D01*
X226609523Y-103064342D02*
X226561904Y-103159580D01*
X226561904Y-103159580D02*
X226514285Y-103207200D01*
X226514285Y-103207200D02*
X226419047Y-103254819D01*
X226419047Y-103254819D02*
X226133333Y-103254819D01*
X226133333Y-103254819D02*
X226038095Y-103207200D01*
X226038095Y-103207200D02*
X225990476Y-103159580D01*
X234666666Y-67354819D02*
X234666666Y-68069104D01*
X234666666Y-68069104D02*
X234619047Y-68211961D01*
X234619047Y-68211961D02*
X234523809Y-68307200D01*
X234523809Y-68307200D02*
X234380952Y-68354819D01*
X234380952Y-68354819D02*
X234285714Y-68354819D01*
X235571428Y-67688152D02*
X235571428Y-68354819D01*
X235333333Y-67307200D02*
X235095238Y-68021485D01*
X235095238Y-68021485D02*
X235714285Y-68021485D01*
X223604761Y-133850057D02*
X223509523Y-133802438D01*
X223509523Y-133802438D02*
X223414285Y-133707200D01*
X223414285Y-133707200D02*
X223271428Y-133564342D01*
X223271428Y-133564342D02*
X223176190Y-133516723D01*
X223176190Y-133516723D02*
X223080952Y-133516723D01*
X223128571Y-133754819D02*
X223033333Y-133707200D01*
X223033333Y-133707200D02*
X222938095Y-133611961D01*
X222938095Y-133611961D02*
X222890476Y-133421485D01*
X222890476Y-133421485D02*
X222890476Y-133088152D01*
X222890476Y-133088152D02*
X222938095Y-132897676D01*
X222938095Y-132897676D02*
X223033333Y-132802438D01*
X223033333Y-132802438D02*
X223128571Y-132754819D01*
X223128571Y-132754819D02*
X223319047Y-132754819D01*
X223319047Y-132754819D02*
X223414285Y-132802438D01*
X223414285Y-132802438D02*
X223509523Y-132897676D01*
X223509523Y-132897676D02*
X223557142Y-133088152D01*
X223557142Y-133088152D02*
X223557142Y-133421485D01*
X223557142Y-133421485D02*
X223509523Y-133611961D01*
X223509523Y-133611961D02*
X223414285Y-133707200D01*
X223414285Y-133707200D02*
X223319047Y-133754819D01*
X223319047Y-133754819D02*
X223128571Y-133754819D01*
X223938095Y-132850057D02*
X223985714Y-132802438D01*
X223985714Y-132802438D02*
X224080952Y-132754819D01*
X224080952Y-132754819D02*
X224319047Y-132754819D01*
X224319047Y-132754819D02*
X224414285Y-132802438D01*
X224414285Y-132802438D02*
X224461904Y-132850057D01*
X224461904Y-132850057D02*
X224509523Y-132945295D01*
X224509523Y-132945295D02*
X224509523Y-133040533D01*
X224509523Y-133040533D02*
X224461904Y-133183390D01*
X224461904Y-133183390D02*
X223890476Y-133754819D01*
X223890476Y-133754819D02*
X224509523Y-133754819D01*
X196433333Y-69884580D02*
X196385714Y-69932200D01*
X196385714Y-69932200D02*
X196242857Y-69979819D01*
X196242857Y-69979819D02*
X196147619Y-69979819D01*
X196147619Y-69979819D02*
X196004762Y-69932200D01*
X196004762Y-69932200D02*
X195909524Y-69836961D01*
X195909524Y-69836961D02*
X195861905Y-69741723D01*
X195861905Y-69741723D02*
X195814286Y-69551247D01*
X195814286Y-69551247D02*
X195814286Y-69408390D01*
X195814286Y-69408390D02*
X195861905Y-69217914D01*
X195861905Y-69217914D02*
X195909524Y-69122676D01*
X195909524Y-69122676D02*
X196004762Y-69027438D01*
X196004762Y-69027438D02*
X196147619Y-68979819D01*
X196147619Y-68979819D02*
X196242857Y-68979819D01*
X196242857Y-68979819D02*
X196385714Y-69027438D01*
X196385714Y-69027438D02*
X196433333Y-69075057D01*
X197290476Y-68979819D02*
X197100000Y-68979819D01*
X197100000Y-68979819D02*
X197004762Y-69027438D01*
X197004762Y-69027438D02*
X196957143Y-69075057D01*
X196957143Y-69075057D02*
X196861905Y-69217914D01*
X196861905Y-69217914D02*
X196814286Y-69408390D01*
X196814286Y-69408390D02*
X196814286Y-69789342D01*
X196814286Y-69789342D02*
X196861905Y-69884580D01*
X196861905Y-69884580D02*
X196909524Y-69932200D01*
X196909524Y-69932200D02*
X197004762Y-69979819D01*
X197004762Y-69979819D02*
X197195238Y-69979819D01*
X197195238Y-69979819D02*
X197290476Y-69932200D01*
X197290476Y-69932200D02*
X197338095Y-69884580D01*
X197338095Y-69884580D02*
X197385714Y-69789342D01*
X197385714Y-69789342D02*
X197385714Y-69551247D01*
X197385714Y-69551247D02*
X197338095Y-69456009D01*
X197338095Y-69456009D02*
X197290476Y-69408390D01*
X197290476Y-69408390D02*
X197195238Y-69360771D01*
X197195238Y-69360771D02*
X197004762Y-69360771D01*
X197004762Y-69360771D02*
X196909524Y-69408390D01*
X196909524Y-69408390D02*
X196861905Y-69456009D01*
X196861905Y-69456009D02*
X196814286Y-69551247D01*
X180257142Y-107074819D02*
X179923809Y-106598628D01*
X179685714Y-107074819D02*
X179685714Y-106074819D01*
X179685714Y-106074819D02*
X180066666Y-106074819D01*
X180066666Y-106074819D02*
X180161904Y-106122438D01*
X180161904Y-106122438D02*
X180209523Y-106170057D01*
X180209523Y-106170057D02*
X180257142Y-106265295D01*
X180257142Y-106265295D02*
X180257142Y-106408152D01*
X180257142Y-106408152D02*
X180209523Y-106503390D01*
X180209523Y-106503390D02*
X180161904Y-106551009D01*
X180161904Y-106551009D02*
X180066666Y-106598628D01*
X180066666Y-106598628D02*
X179685714Y-106598628D01*
X180590476Y-106074819D02*
X181209523Y-106074819D01*
X181209523Y-106074819D02*
X180876190Y-106455771D01*
X180876190Y-106455771D02*
X181019047Y-106455771D01*
X181019047Y-106455771D02*
X181114285Y-106503390D01*
X181114285Y-106503390D02*
X181161904Y-106551009D01*
X181161904Y-106551009D02*
X181209523Y-106646247D01*
X181209523Y-106646247D02*
X181209523Y-106884342D01*
X181209523Y-106884342D02*
X181161904Y-106979580D01*
X181161904Y-106979580D02*
X181114285Y-107027200D01*
X181114285Y-107027200D02*
X181019047Y-107074819D01*
X181019047Y-107074819D02*
X180733333Y-107074819D01*
X180733333Y-107074819D02*
X180638095Y-107027200D01*
X180638095Y-107027200D02*
X180590476Y-106979580D01*
X181590476Y-106170057D02*
X181638095Y-106122438D01*
X181638095Y-106122438D02*
X181733333Y-106074819D01*
X181733333Y-106074819D02*
X181971428Y-106074819D01*
X181971428Y-106074819D02*
X182066666Y-106122438D01*
X182066666Y-106122438D02*
X182114285Y-106170057D01*
X182114285Y-106170057D02*
X182161904Y-106265295D01*
X182161904Y-106265295D02*
X182161904Y-106360533D01*
X182161904Y-106360533D02*
X182114285Y-106503390D01*
X182114285Y-106503390D02*
X181542857Y-107074819D01*
X181542857Y-107074819D02*
X182161904Y-107074819D01*
X145404761Y-124250057D02*
X145309523Y-124202438D01*
X145309523Y-124202438D02*
X145214285Y-124107200D01*
X145214285Y-124107200D02*
X145071428Y-123964342D01*
X145071428Y-123964342D02*
X144976190Y-123916723D01*
X144976190Y-123916723D02*
X144880952Y-123916723D01*
X144928571Y-124154819D02*
X144833333Y-124107200D01*
X144833333Y-124107200D02*
X144738095Y-124011961D01*
X144738095Y-124011961D02*
X144690476Y-123821485D01*
X144690476Y-123821485D02*
X144690476Y-123488152D01*
X144690476Y-123488152D02*
X144738095Y-123297676D01*
X144738095Y-123297676D02*
X144833333Y-123202438D01*
X144833333Y-123202438D02*
X144928571Y-123154819D01*
X144928571Y-123154819D02*
X145119047Y-123154819D01*
X145119047Y-123154819D02*
X145214285Y-123202438D01*
X145214285Y-123202438D02*
X145309523Y-123297676D01*
X145309523Y-123297676D02*
X145357142Y-123488152D01*
X145357142Y-123488152D02*
X145357142Y-123821485D01*
X145357142Y-123821485D02*
X145309523Y-124011961D01*
X145309523Y-124011961D02*
X145214285Y-124107200D01*
X145214285Y-124107200D02*
X145119047Y-124154819D01*
X145119047Y-124154819D02*
X144928571Y-124154819D01*
X145928571Y-123583390D02*
X145833333Y-123535771D01*
X145833333Y-123535771D02*
X145785714Y-123488152D01*
X145785714Y-123488152D02*
X145738095Y-123392914D01*
X145738095Y-123392914D02*
X145738095Y-123345295D01*
X145738095Y-123345295D02*
X145785714Y-123250057D01*
X145785714Y-123250057D02*
X145833333Y-123202438D01*
X145833333Y-123202438D02*
X145928571Y-123154819D01*
X145928571Y-123154819D02*
X146119047Y-123154819D01*
X146119047Y-123154819D02*
X146214285Y-123202438D01*
X146214285Y-123202438D02*
X146261904Y-123250057D01*
X146261904Y-123250057D02*
X146309523Y-123345295D01*
X146309523Y-123345295D02*
X146309523Y-123392914D01*
X146309523Y-123392914D02*
X146261904Y-123488152D01*
X146261904Y-123488152D02*
X146214285Y-123535771D01*
X146214285Y-123535771D02*
X146119047Y-123583390D01*
X146119047Y-123583390D02*
X145928571Y-123583390D01*
X145928571Y-123583390D02*
X145833333Y-123631009D01*
X145833333Y-123631009D02*
X145785714Y-123678628D01*
X145785714Y-123678628D02*
X145738095Y-123773866D01*
X145738095Y-123773866D02*
X145738095Y-123964342D01*
X145738095Y-123964342D02*
X145785714Y-124059580D01*
X145785714Y-124059580D02*
X145833333Y-124107200D01*
X145833333Y-124107200D02*
X145928571Y-124154819D01*
X145928571Y-124154819D02*
X146119047Y-124154819D01*
X146119047Y-124154819D02*
X146214285Y-124107200D01*
X146214285Y-124107200D02*
X146261904Y-124059580D01*
X146261904Y-124059580D02*
X146309523Y-123964342D01*
X146309523Y-123964342D02*
X146309523Y-123773866D01*
X146309523Y-123773866D02*
X146261904Y-123678628D01*
X146261904Y-123678628D02*
X146214285Y-123631009D01*
X146214285Y-123631009D02*
X146119047Y-123583390D01*
X171438095Y-110154819D02*
X171438095Y-110964342D01*
X171438095Y-110964342D02*
X171485714Y-111059580D01*
X171485714Y-111059580D02*
X171533333Y-111107200D01*
X171533333Y-111107200D02*
X171628571Y-111154819D01*
X171628571Y-111154819D02*
X171819047Y-111154819D01*
X171819047Y-111154819D02*
X171914285Y-111107200D01*
X171914285Y-111107200D02*
X171961904Y-111059580D01*
X171961904Y-111059580D02*
X172009523Y-110964342D01*
X172009523Y-110964342D02*
X172009523Y-110154819D01*
X172914285Y-110488152D02*
X172914285Y-111154819D01*
X172676190Y-110107200D02*
X172438095Y-110821485D01*
X172438095Y-110821485D02*
X173057142Y-110821485D01*
X168238095Y-125854819D02*
X168238095Y-126664342D01*
X168238095Y-126664342D02*
X168285714Y-126759580D01*
X168285714Y-126759580D02*
X168333333Y-126807200D01*
X168333333Y-126807200D02*
X168428571Y-126854819D01*
X168428571Y-126854819D02*
X168619047Y-126854819D01*
X168619047Y-126854819D02*
X168714285Y-126807200D01*
X168714285Y-126807200D02*
X168761904Y-126759580D01*
X168761904Y-126759580D02*
X168809523Y-126664342D01*
X168809523Y-126664342D02*
X168809523Y-125854819D01*
X169714285Y-125854819D02*
X169523809Y-125854819D01*
X169523809Y-125854819D02*
X169428571Y-125902438D01*
X169428571Y-125902438D02*
X169380952Y-125950057D01*
X169380952Y-125950057D02*
X169285714Y-126092914D01*
X169285714Y-126092914D02*
X169238095Y-126283390D01*
X169238095Y-126283390D02*
X169238095Y-126664342D01*
X169238095Y-126664342D02*
X169285714Y-126759580D01*
X169285714Y-126759580D02*
X169333333Y-126807200D01*
X169333333Y-126807200D02*
X169428571Y-126854819D01*
X169428571Y-126854819D02*
X169619047Y-126854819D01*
X169619047Y-126854819D02*
X169714285Y-126807200D01*
X169714285Y-126807200D02*
X169761904Y-126759580D01*
X169761904Y-126759580D02*
X169809523Y-126664342D01*
X169809523Y-126664342D02*
X169809523Y-126426247D01*
X169809523Y-126426247D02*
X169761904Y-126331009D01*
X169761904Y-126331009D02*
X169714285Y-126283390D01*
X169714285Y-126283390D02*
X169619047Y-126235771D01*
X169619047Y-126235771D02*
X169428571Y-126235771D01*
X169428571Y-126235771D02*
X169333333Y-126283390D01*
X169333333Y-126283390D02*
X169285714Y-126331009D01*
X169285714Y-126331009D02*
X169238095Y-126426247D01*
X236266666Y-88254819D02*
X236266666Y-88969104D01*
X236266666Y-88969104D02*
X236219047Y-89111961D01*
X236219047Y-89111961D02*
X236123809Y-89207200D01*
X236123809Y-89207200D02*
X235980952Y-89254819D01*
X235980952Y-89254819D02*
X235885714Y-89254819D01*
X236695238Y-88350057D02*
X236742857Y-88302438D01*
X236742857Y-88302438D02*
X236838095Y-88254819D01*
X236838095Y-88254819D02*
X237076190Y-88254819D01*
X237076190Y-88254819D02*
X237171428Y-88302438D01*
X237171428Y-88302438D02*
X237219047Y-88350057D01*
X237219047Y-88350057D02*
X237266666Y-88445295D01*
X237266666Y-88445295D02*
X237266666Y-88540533D01*
X237266666Y-88540533D02*
X237219047Y-88683390D01*
X237219047Y-88683390D02*
X236647619Y-89254819D01*
X236647619Y-89254819D02*
X237266666Y-89254819D01*
X199257142Y-126074819D02*
X198923809Y-125598628D01*
X198685714Y-126074819D02*
X198685714Y-125074819D01*
X198685714Y-125074819D02*
X199066666Y-125074819D01*
X199066666Y-125074819D02*
X199161904Y-125122438D01*
X199161904Y-125122438D02*
X199209523Y-125170057D01*
X199209523Y-125170057D02*
X199257142Y-125265295D01*
X199257142Y-125265295D02*
X199257142Y-125408152D01*
X199257142Y-125408152D02*
X199209523Y-125503390D01*
X199209523Y-125503390D02*
X199161904Y-125551009D01*
X199161904Y-125551009D02*
X199066666Y-125598628D01*
X199066666Y-125598628D02*
X198685714Y-125598628D01*
X199590476Y-125074819D02*
X200209523Y-125074819D01*
X200209523Y-125074819D02*
X199876190Y-125455771D01*
X199876190Y-125455771D02*
X200019047Y-125455771D01*
X200019047Y-125455771D02*
X200114285Y-125503390D01*
X200114285Y-125503390D02*
X200161904Y-125551009D01*
X200161904Y-125551009D02*
X200209523Y-125646247D01*
X200209523Y-125646247D02*
X200209523Y-125884342D01*
X200209523Y-125884342D02*
X200161904Y-125979580D01*
X200161904Y-125979580D02*
X200114285Y-126027200D01*
X200114285Y-126027200D02*
X200019047Y-126074819D01*
X200019047Y-126074819D02*
X199733333Y-126074819D01*
X199733333Y-126074819D02*
X199638095Y-126027200D01*
X199638095Y-126027200D02*
X199590476Y-125979580D01*
X201066666Y-125408152D02*
X201066666Y-126074819D01*
X200828571Y-125027200D02*
X200590476Y-125741485D01*
X200590476Y-125741485D02*
X201209523Y-125741485D01*
X188733333Y-91054819D02*
X188400000Y-90578628D01*
X188161905Y-91054819D02*
X188161905Y-90054819D01*
X188161905Y-90054819D02*
X188542857Y-90054819D01*
X188542857Y-90054819D02*
X188638095Y-90102438D01*
X188638095Y-90102438D02*
X188685714Y-90150057D01*
X188685714Y-90150057D02*
X188733333Y-90245295D01*
X188733333Y-90245295D02*
X188733333Y-90388152D01*
X188733333Y-90388152D02*
X188685714Y-90483390D01*
X188685714Y-90483390D02*
X188638095Y-90531009D01*
X188638095Y-90531009D02*
X188542857Y-90578628D01*
X188542857Y-90578628D02*
X188161905Y-90578628D01*
X189638095Y-90054819D02*
X189161905Y-90054819D01*
X189161905Y-90054819D02*
X189114286Y-90531009D01*
X189114286Y-90531009D02*
X189161905Y-90483390D01*
X189161905Y-90483390D02*
X189257143Y-90435771D01*
X189257143Y-90435771D02*
X189495238Y-90435771D01*
X189495238Y-90435771D02*
X189590476Y-90483390D01*
X189590476Y-90483390D02*
X189638095Y-90531009D01*
X189638095Y-90531009D02*
X189685714Y-90626247D01*
X189685714Y-90626247D02*
X189685714Y-90864342D01*
X189685714Y-90864342D02*
X189638095Y-90959580D01*
X189638095Y-90959580D02*
X189590476Y-91007200D01*
X189590476Y-91007200D02*
X189495238Y-91054819D01*
X189495238Y-91054819D02*
X189257143Y-91054819D01*
X189257143Y-91054819D02*
X189161905Y-91007200D01*
X189161905Y-91007200D02*
X189114286Y-90959580D01*
X184157142Y-115554819D02*
X183823809Y-115078628D01*
X183585714Y-115554819D02*
X183585714Y-114554819D01*
X183585714Y-114554819D02*
X183966666Y-114554819D01*
X183966666Y-114554819D02*
X184061904Y-114602438D01*
X184061904Y-114602438D02*
X184109523Y-114650057D01*
X184109523Y-114650057D02*
X184157142Y-114745295D01*
X184157142Y-114745295D02*
X184157142Y-114888152D01*
X184157142Y-114888152D02*
X184109523Y-114983390D01*
X184109523Y-114983390D02*
X184061904Y-115031009D01*
X184061904Y-115031009D02*
X183966666Y-115078628D01*
X183966666Y-115078628D02*
X183585714Y-115078628D01*
X184538095Y-114650057D02*
X184585714Y-114602438D01*
X184585714Y-114602438D02*
X184680952Y-114554819D01*
X184680952Y-114554819D02*
X184919047Y-114554819D01*
X184919047Y-114554819D02*
X185014285Y-114602438D01*
X185014285Y-114602438D02*
X185061904Y-114650057D01*
X185061904Y-114650057D02*
X185109523Y-114745295D01*
X185109523Y-114745295D02*
X185109523Y-114840533D01*
X185109523Y-114840533D02*
X185061904Y-114983390D01*
X185061904Y-114983390D02*
X184490476Y-115554819D01*
X184490476Y-115554819D02*
X185109523Y-115554819D01*
X186014285Y-114554819D02*
X185538095Y-114554819D01*
X185538095Y-114554819D02*
X185490476Y-115031009D01*
X185490476Y-115031009D02*
X185538095Y-114983390D01*
X185538095Y-114983390D02*
X185633333Y-114935771D01*
X185633333Y-114935771D02*
X185871428Y-114935771D01*
X185871428Y-114935771D02*
X185966666Y-114983390D01*
X185966666Y-114983390D02*
X186014285Y-115031009D01*
X186014285Y-115031009D02*
X186061904Y-115126247D01*
X186061904Y-115126247D02*
X186061904Y-115364342D01*
X186061904Y-115364342D02*
X186014285Y-115459580D01*
X186014285Y-115459580D02*
X185966666Y-115507200D01*
X185966666Y-115507200D02*
X185871428Y-115554819D01*
X185871428Y-115554819D02*
X185633333Y-115554819D01*
X185633333Y-115554819D02*
X185538095Y-115507200D01*
X185538095Y-115507200D02*
X185490476Y-115459580D01*
X228204761Y-83750057D02*
X228109523Y-83702438D01*
X228109523Y-83702438D02*
X228014285Y-83607200D01*
X228014285Y-83607200D02*
X227871428Y-83464342D01*
X227871428Y-83464342D02*
X227776190Y-83416723D01*
X227776190Y-83416723D02*
X227680952Y-83416723D01*
X227728571Y-83654819D02*
X227633333Y-83607200D01*
X227633333Y-83607200D02*
X227538095Y-83511961D01*
X227538095Y-83511961D02*
X227490476Y-83321485D01*
X227490476Y-83321485D02*
X227490476Y-82988152D01*
X227490476Y-82988152D02*
X227538095Y-82797676D01*
X227538095Y-82797676D02*
X227633333Y-82702438D01*
X227633333Y-82702438D02*
X227728571Y-82654819D01*
X227728571Y-82654819D02*
X227919047Y-82654819D01*
X227919047Y-82654819D02*
X228014285Y-82702438D01*
X228014285Y-82702438D02*
X228109523Y-82797676D01*
X228109523Y-82797676D02*
X228157142Y-82988152D01*
X228157142Y-82988152D02*
X228157142Y-83321485D01*
X228157142Y-83321485D02*
X228109523Y-83511961D01*
X228109523Y-83511961D02*
X228014285Y-83607200D01*
X228014285Y-83607200D02*
X227919047Y-83654819D01*
X227919047Y-83654819D02*
X227728571Y-83654819D01*
X229014285Y-82988152D02*
X229014285Y-83654819D01*
X228776190Y-82607200D02*
X228538095Y-83321485D01*
X228538095Y-83321485D02*
X229157142Y-83321485D01*
X223957142Y-110559580D02*
X223909523Y-110607200D01*
X223909523Y-110607200D02*
X223766666Y-110654819D01*
X223766666Y-110654819D02*
X223671428Y-110654819D01*
X223671428Y-110654819D02*
X223528571Y-110607200D01*
X223528571Y-110607200D02*
X223433333Y-110511961D01*
X223433333Y-110511961D02*
X223385714Y-110416723D01*
X223385714Y-110416723D02*
X223338095Y-110226247D01*
X223338095Y-110226247D02*
X223338095Y-110083390D01*
X223338095Y-110083390D02*
X223385714Y-109892914D01*
X223385714Y-109892914D02*
X223433333Y-109797676D01*
X223433333Y-109797676D02*
X223528571Y-109702438D01*
X223528571Y-109702438D02*
X223671428Y-109654819D01*
X223671428Y-109654819D02*
X223766666Y-109654819D01*
X223766666Y-109654819D02*
X223909523Y-109702438D01*
X223909523Y-109702438D02*
X223957142Y-109750057D01*
X224338095Y-109750057D02*
X224385714Y-109702438D01*
X224385714Y-109702438D02*
X224480952Y-109654819D01*
X224480952Y-109654819D02*
X224719047Y-109654819D01*
X224719047Y-109654819D02*
X224814285Y-109702438D01*
X224814285Y-109702438D02*
X224861904Y-109750057D01*
X224861904Y-109750057D02*
X224909523Y-109845295D01*
X224909523Y-109845295D02*
X224909523Y-109940533D01*
X224909523Y-109940533D02*
X224861904Y-110083390D01*
X224861904Y-110083390D02*
X224290476Y-110654819D01*
X224290476Y-110654819D02*
X224909523Y-110654819D01*
X225480952Y-110083390D02*
X225385714Y-110035771D01*
X225385714Y-110035771D02*
X225338095Y-109988152D01*
X225338095Y-109988152D02*
X225290476Y-109892914D01*
X225290476Y-109892914D02*
X225290476Y-109845295D01*
X225290476Y-109845295D02*
X225338095Y-109750057D01*
X225338095Y-109750057D02*
X225385714Y-109702438D01*
X225385714Y-109702438D02*
X225480952Y-109654819D01*
X225480952Y-109654819D02*
X225671428Y-109654819D01*
X225671428Y-109654819D02*
X225766666Y-109702438D01*
X225766666Y-109702438D02*
X225814285Y-109750057D01*
X225814285Y-109750057D02*
X225861904Y-109845295D01*
X225861904Y-109845295D02*
X225861904Y-109892914D01*
X225861904Y-109892914D02*
X225814285Y-109988152D01*
X225814285Y-109988152D02*
X225766666Y-110035771D01*
X225766666Y-110035771D02*
X225671428Y-110083390D01*
X225671428Y-110083390D02*
X225480952Y-110083390D01*
X225480952Y-110083390D02*
X225385714Y-110131009D01*
X225385714Y-110131009D02*
X225338095Y-110178628D01*
X225338095Y-110178628D02*
X225290476Y-110273866D01*
X225290476Y-110273866D02*
X225290476Y-110464342D01*
X225290476Y-110464342D02*
X225338095Y-110559580D01*
X225338095Y-110559580D02*
X225385714Y-110607200D01*
X225385714Y-110607200D02*
X225480952Y-110654819D01*
X225480952Y-110654819D02*
X225671428Y-110654819D01*
X225671428Y-110654819D02*
X225766666Y-110607200D01*
X225766666Y-110607200D02*
X225814285Y-110559580D01*
X225814285Y-110559580D02*
X225861904Y-110464342D01*
X225861904Y-110464342D02*
X225861904Y-110273866D01*
X225861904Y-110273866D02*
X225814285Y-110178628D01*
X225814285Y-110178628D02*
X225766666Y-110131009D01*
X225766666Y-110131009D02*
X225671428Y-110083390D01*
X144357142Y-95359580D02*
X144309523Y-95407200D01*
X144309523Y-95407200D02*
X144166666Y-95454819D01*
X144166666Y-95454819D02*
X144071428Y-95454819D01*
X144071428Y-95454819D02*
X143928571Y-95407200D01*
X143928571Y-95407200D02*
X143833333Y-95311961D01*
X143833333Y-95311961D02*
X143785714Y-95216723D01*
X143785714Y-95216723D02*
X143738095Y-95026247D01*
X143738095Y-95026247D02*
X143738095Y-94883390D01*
X143738095Y-94883390D02*
X143785714Y-94692914D01*
X143785714Y-94692914D02*
X143833333Y-94597676D01*
X143833333Y-94597676D02*
X143928571Y-94502438D01*
X143928571Y-94502438D02*
X144071428Y-94454819D01*
X144071428Y-94454819D02*
X144166666Y-94454819D01*
X144166666Y-94454819D02*
X144309523Y-94502438D01*
X144309523Y-94502438D02*
X144357142Y-94550057D01*
X144738095Y-94550057D02*
X144785714Y-94502438D01*
X144785714Y-94502438D02*
X144880952Y-94454819D01*
X144880952Y-94454819D02*
X145119047Y-94454819D01*
X145119047Y-94454819D02*
X145214285Y-94502438D01*
X145214285Y-94502438D02*
X145261904Y-94550057D01*
X145261904Y-94550057D02*
X145309523Y-94645295D01*
X145309523Y-94645295D02*
X145309523Y-94740533D01*
X145309523Y-94740533D02*
X145261904Y-94883390D01*
X145261904Y-94883390D02*
X144690476Y-95454819D01*
X144690476Y-95454819D02*
X145309523Y-95454819D01*
X145642857Y-94454819D02*
X146309523Y-94454819D01*
X146309523Y-94454819D02*
X145880952Y-95454819D01*
X204157142Y-121559580D02*
X204109523Y-121607200D01*
X204109523Y-121607200D02*
X203966666Y-121654819D01*
X203966666Y-121654819D02*
X203871428Y-121654819D01*
X203871428Y-121654819D02*
X203728571Y-121607200D01*
X203728571Y-121607200D02*
X203633333Y-121511961D01*
X203633333Y-121511961D02*
X203585714Y-121416723D01*
X203585714Y-121416723D02*
X203538095Y-121226247D01*
X203538095Y-121226247D02*
X203538095Y-121083390D01*
X203538095Y-121083390D02*
X203585714Y-120892914D01*
X203585714Y-120892914D02*
X203633333Y-120797676D01*
X203633333Y-120797676D02*
X203728571Y-120702438D01*
X203728571Y-120702438D02*
X203871428Y-120654819D01*
X203871428Y-120654819D02*
X203966666Y-120654819D01*
X203966666Y-120654819D02*
X204109523Y-120702438D01*
X204109523Y-120702438D02*
X204157142Y-120750057D01*
X204538095Y-120750057D02*
X204585714Y-120702438D01*
X204585714Y-120702438D02*
X204680952Y-120654819D01*
X204680952Y-120654819D02*
X204919047Y-120654819D01*
X204919047Y-120654819D02*
X205014285Y-120702438D01*
X205014285Y-120702438D02*
X205061904Y-120750057D01*
X205061904Y-120750057D02*
X205109523Y-120845295D01*
X205109523Y-120845295D02*
X205109523Y-120940533D01*
X205109523Y-120940533D02*
X205061904Y-121083390D01*
X205061904Y-121083390D02*
X204490476Y-121654819D01*
X204490476Y-121654819D02*
X205109523Y-121654819D01*
X206061904Y-121654819D02*
X205490476Y-121654819D01*
X205776190Y-121654819D02*
X205776190Y-120654819D01*
X205776190Y-120654819D02*
X205680952Y-120797676D01*
X205680952Y-120797676D02*
X205585714Y-120892914D01*
X205585714Y-120892914D02*
X205490476Y-120940533D01*
X177757142Y-119359580D02*
X177709523Y-119407200D01*
X177709523Y-119407200D02*
X177566666Y-119454819D01*
X177566666Y-119454819D02*
X177471428Y-119454819D01*
X177471428Y-119454819D02*
X177328571Y-119407200D01*
X177328571Y-119407200D02*
X177233333Y-119311961D01*
X177233333Y-119311961D02*
X177185714Y-119216723D01*
X177185714Y-119216723D02*
X177138095Y-119026247D01*
X177138095Y-119026247D02*
X177138095Y-118883390D01*
X177138095Y-118883390D02*
X177185714Y-118692914D01*
X177185714Y-118692914D02*
X177233333Y-118597676D01*
X177233333Y-118597676D02*
X177328571Y-118502438D01*
X177328571Y-118502438D02*
X177471428Y-118454819D01*
X177471428Y-118454819D02*
X177566666Y-118454819D01*
X177566666Y-118454819D02*
X177709523Y-118502438D01*
X177709523Y-118502438D02*
X177757142Y-118550057D01*
X178090476Y-118454819D02*
X178709523Y-118454819D01*
X178709523Y-118454819D02*
X178376190Y-118835771D01*
X178376190Y-118835771D02*
X178519047Y-118835771D01*
X178519047Y-118835771D02*
X178614285Y-118883390D01*
X178614285Y-118883390D02*
X178661904Y-118931009D01*
X178661904Y-118931009D02*
X178709523Y-119026247D01*
X178709523Y-119026247D02*
X178709523Y-119264342D01*
X178709523Y-119264342D02*
X178661904Y-119359580D01*
X178661904Y-119359580D02*
X178614285Y-119407200D01*
X178614285Y-119407200D02*
X178519047Y-119454819D01*
X178519047Y-119454819D02*
X178233333Y-119454819D01*
X178233333Y-119454819D02*
X178138095Y-119407200D01*
X178138095Y-119407200D02*
X178090476Y-119359580D01*
X179042857Y-118454819D02*
X179661904Y-118454819D01*
X179661904Y-118454819D02*
X179328571Y-118835771D01*
X179328571Y-118835771D02*
X179471428Y-118835771D01*
X179471428Y-118835771D02*
X179566666Y-118883390D01*
X179566666Y-118883390D02*
X179614285Y-118931009D01*
X179614285Y-118931009D02*
X179661904Y-119026247D01*
X179661904Y-119026247D02*
X179661904Y-119264342D01*
X179661904Y-119264342D02*
X179614285Y-119359580D01*
X179614285Y-119359580D02*
X179566666Y-119407200D01*
X179566666Y-119407200D02*
X179471428Y-119454819D01*
X179471428Y-119454819D02*
X179185714Y-119454819D01*
X179185714Y-119454819D02*
X179090476Y-119407200D01*
X179090476Y-119407200D02*
X179042857Y-119359580D01*
X184757142Y-97854819D02*
X184280952Y-97854819D01*
X184280952Y-97854819D02*
X184280952Y-96854819D01*
X185042857Y-97807200D02*
X185185714Y-97854819D01*
X185185714Y-97854819D02*
X185423809Y-97854819D01*
X185423809Y-97854819D02*
X185519047Y-97807200D01*
X185519047Y-97807200D02*
X185566666Y-97759580D01*
X185566666Y-97759580D02*
X185614285Y-97664342D01*
X185614285Y-97664342D02*
X185614285Y-97569104D01*
X185614285Y-97569104D02*
X185566666Y-97473866D01*
X185566666Y-97473866D02*
X185519047Y-97426247D01*
X185519047Y-97426247D02*
X185423809Y-97378628D01*
X185423809Y-97378628D02*
X185233333Y-97331009D01*
X185233333Y-97331009D02*
X185138095Y-97283390D01*
X185138095Y-97283390D02*
X185090476Y-97235771D01*
X185090476Y-97235771D02*
X185042857Y-97140533D01*
X185042857Y-97140533D02*
X185042857Y-97045295D01*
X185042857Y-97045295D02*
X185090476Y-96950057D01*
X185090476Y-96950057D02*
X185138095Y-96902438D01*
X185138095Y-96902438D02*
X185233333Y-96854819D01*
X185233333Y-96854819D02*
X185471428Y-96854819D01*
X185471428Y-96854819D02*
X185614285Y-96902438D01*
X186566666Y-97854819D02*
X185995238Y-97854819D01*
X186280952Y-97854819D02*
X186280952Y-96854819D01*
X186280952Y-96854819D02*
X186185714Y-96997676D01*
X186185714Y-96997676D02*
X186090476Y-97092914D01*
X186090476Y-97092914D02*
X185995238Y-97140533D01*
X104661905Y-92954819D02*
X104661905Y-91954819D01*
X104661905Y-91954819D02*
X104900000Y-91954819D01*
X104900000Y-91954819D02*
X105042857Y-92002438D01*
X105042857Y-92002438D02*
X105138095Y-92097676D01*
X105138095Y-92097676D02*
X105185714Y-92192914D01*
X105185714Y-92192914D02*
X105233333Y-92383390D01*
X105233333Y-92383390D02*
X105233333Y-92526247D01*
X105233333Y-92526247D02*
X105185714Y-92716723D01*
X105185714Y-92716723D02*
X105138095Y-92811961D01*
X105138095Y-92811961D02*
X105042857Y-92907200D01*
X105042857Y-92907200D02*
X104900000Y-92954819D01*
X104900000Y-92954819D02*
X104661905Y-92954819D01*
X106090476Y-92288152D02*
X106090476Y-92954819D01*
X105852381Y-91907200D02*
X105614286Y-92621485D01*
X105614286Y-92621485D02*
X106233333Y-92621485D01*
X181757142Y-119654819D02*
X181423809Y-119178628D01*
X181185714Y-119654819D02*
X181185714Y-118654819D01*
X181185714Y-118654819D02*
X181566666Y-118654819D01*
X181566666Y-118654819D02*
X181661904Y-118702438D01*
X181661904Y-118702438D02*
X181709523Y-118750057D01*
X181709523Y-118750057D02*
X181757142Y-118845295D01*
X181757142Y-118845295D02*
X181757142Y-118988152D01*
X181757142Y-118988152D02*
X181709523Y-119083390D01*
X181709523Y-119083390D02*
X181661904Y-119131009D01*
X181661904Y-119131009D02*
X181566666Y-119178628D01*
X181566666Y-119178628D02*
X181185714Y-119178628D01*
X182138095Y-118750057D02*
X182185714Y-118702438D01*
X182185714Y-118702438D02*
X182280952Y-118654819D01*
X182280952Y-118654819D02*
X182519047Y-118654819D01*
X182519047Y-118654819D02*
X182614285Y-118702438D01*
X182614285Y-118702438D02*
X182661904Y-118750057D01*
X182661904Y-118750057D02*
X182709523Y-118845295D01*
X182709523Y-118845295D02*
X182709523Y-118940533D01*
X182709523Y-118940533D02*
X182661904Y-119083390D01*
X182661904Y-119083390D02*
X182090476Y-119654819D01*
X182090476Y-119654819D02*
X182709523Y-119654819D01*
X183661904Y-119654819D02*
X183090476Y-119654819D01*
X183376190Y-119654819D02*
X183376190Y-118654819D01*
X183376190Y-118654819D02*
X183280952Y-118797676D01*
X183280952Y-118797676D02*
X183185714Y-118892914D01*
X183185714Y-118892914D02*
X183090476Y-118940533D01*
X106857142Y-98024819D02*
X106523809Y-97548628D01*
X106285714Y-98024819D02*
X106285714Y-97024819D01*
X106285714Y-97024819D02*
X106666666Y-97024819D01*
X106666666Y-97024819D02*
X106761904Y-97072438D01*
X106761904Y-97072438D02*
X106809523Y-97120057D01*
X106809523Y-97120057D02*
X106857142Y-97215295D01*
X106857142Y-97215295D02*
X106857142Y-97358152D01*
X106857142Y-97358152D02*
X106809523Y-97453390D01*
X106809523Y-97453390D02*
X106761904Y-97501009D01*
X106761904Y-97501009D02*
X106666666Y-97548628D01*
X106666666Y-97548628D02*
X106285714Y-97548628D01*
X107238095Y-97120057D02*
X107285714Y-97072438D01*
X107285714Y-97072438D02*
X107380952Y-97024819D01*
X107380952Y-97024819D02*
X107619047Y-97024819D01*
X107619047Y-97024819D02*
X107714285Y-97072438D01*
X107714285Y-97072438D02*
X107761904Y-97120057D01*
X107761904Y-97120057D02*
X107809523Y-97215295D01*
X107809523Y-97215295D02*
X107809523Y-97310533D01*
X107809523Y-97310533D02*
X107761904Y-97453390D01*
X107761904Y-97453390D02*
X107190476Y-98024819D01*
X107190476Y-98024819D02*
X107809523Y-98024819D01*
X108285714Y-98024819D02*
X108476190Y-98024819D01*
X108476190Y-98024819D02*
X108571428Y-97977200D01*
X108571428Y-97977200D02*
X108619047Y-97929580D01*
X108619047Y-97929580D02*
X108714285Y-97786723D01*
X108714285Y-97786723D02*
X108761904Y-97596247D01*
X108761904Y-97596247D02*
X108761904Y-97215295D01*
X108761904Y-97215295D02*
X108714285Y-97120057D01*
X108714285Y-97120057D02*
X108666666Y-97072438D01*
X108666666Y-97072438D02*
X108571428Y-97024819D01*
X108571428Y-97024819D02*
X108380952Y-97024819D01*
X108380952Y-97024819D02*
X108285714Y-97072438D01*
X108285714Y-97072438D02*
X108238095Y-97120057D01*
X108238095Y-97120057D02*
X108190476Y-97215295D01*
X108190476Y-97215295D02*
X108190476Y-97453390D01*
X108190476Y-97453390D02*
X108238095Y-97548628D01*
X108238095Y-97548628D02*
X108285714Y-97596247D01*
X108285714Y-97596247D02*
X108380952Y-97643866D01*
X108380952Y-97643866D02*
X108571428Y-97643866D01*
X108571428Y-97643866D02*
X108666666Y-97596247D01*
X108666666Y-97596247D02*
X108714285Y-97548628D01*
X108714285Y-97548628D02*
X108761904Y-97453390D01*
X237304761Y-108550057D02*
X237209523Y-108502438D01*
X237209523Y-108502438D02*
X237114285Y-108407200D01*
X237114285Y-108407200D02*
X236971428Y-108264342D01*
X236971428Y-108264342D02*
X236876190Y-108216723D01*
X236876190Y-108216723D02*
X236780952Y-108216723D01*
X236828571Y-108454819D02*
X236733333Y-108407200D01*
X236733333Y-108407200D02*
X236638095Y-108311961D01*
X236638095Y-108311961D02*
X236590476Y-108121485D01*
X236590476Y-108121485D02*
X236590476Y-107788152D01*
X236590476Y-107788152D02*
X236638095Y-107597676D01*
X236638095Y-107597676D02*
X236733333Y-107502438D01*
X236733333Y-107502438D02*
X236828571Y-107454819D01*
X236828571Y-107454819D02*
X237019047Y-107454819D01*
X237019047Y-107454819D02*
X237114285Y-107502438D01*
X237114285Y-107502438D02*
X237209523Y-107597676D01*
X237209523Y-107597676D02*
X237257142Y-107788152D01*
X237257142Y-107788152D02*
X237257142Y-108121485D01*
X237257142Y-108121485D02*
X237209523Y-108311961D01*
X237209523Y-108311961D02*
X237114285Y-108407200D01*
X237114285Y-108407200D02*
X237019047Y-108454819D01*
X237019047Y-108454819D02*
X236828571Y-108454819D01*
X237590476Y-107454819D02*
X238209523Y-107454819D01*
X238209523Y-107454819D02*
X237876190Y-107835771D01*
X237876190Y-107835771D02*
X238019047Y-107835771D01*
X238019047Y-107835771D02*
X238114285Y-107883390D01*
X238114285Y-107883390D02*
X238161904Y-107931009D01*
X238161904Y-107931009D02*
X238209523Y-108026247D01*
X238209523Y-108026247D02*
X238209523Y-108264342D01*
X238209523Y-108264342D02*
X238161904Y-108359580D01*
X238161904Y-108359580D02*
X238114285Y-108407200D01*
X238114285Y-108407200D02*
X238019047Y-108454819D01*
X238019047Y-108454819D02*
X237733333Y-108454819D01*
X237733333Y-108454819D02*
X237638095Y-108407200D01*
X237638095Y-108407200D02*
X237590476Y-108359580D01*
X163557142Y-109454819D02*
X163223809Y-108978628D01*
X162985714Y-109454819D02*
X162985714Y-108454819D01*
X162985714Y-108454819D02*
X163366666Y-108454819D01*
X163366666Y-108454819D02*
X163461904Y-108502438D01*
X163461904Y-108502438D02*
X163509523Y-108550057D01*
X163509523Y-108550057D02*
X163557142Y-108645295D01*
X163557142Y-108645295D02*
X163557142Y-108788152D01*
X163557142Y-108788152D02*
X163509523Y-108883390D01*
X163509523Y-108883390D02*
X163461904Y-108931009D01*
X163461904Y-108931009D02*
X163366666Y-108978628D01*
X163366666Y-108978628D02*
X162985714Y-108978628D01*
X163938095Y-108550057D02*
X163985714Y-108502438D01*
X163985714Y-108502438D02*
X164080952Y-108454819D01*
X164080952Y-108454819D02*
X164319047Y-108454819D01*
X164319047Y-108454819D02*
X164414285Y-108502438D01*
X164414285Y-108502438D02*
X164461904Y-108550057D01*
X164461904Y-108550057D02*
X164509523Y-108645295D01*
X164509523Y-108645295D02*
X164509523Y-108740533D01*
X164509523Y-108740533D02*
X164461904Y-108883390D01*
X164461904Y-108883390D02*
X163890476Y-109454819D01*
X163890476Y-109454819D02*
X164509523Y-109454819D01*
X164890476Y-108550057D02*
X164938095Y-108502438D01*
X164938095Y-108502438D02*
X165033333Y-108454819D01*
X165033333Y-108454819D02*
X165271428Y-108454819D01*
X165271428Y-108454819D02*
X165366666Y-108502438D01*
X165366666Y-108502438D02*
X165414285Y-108550057D01*
X165414285Y-108550057D02*
X165461904Y-108645295D01*
X165461904Y-108645295D02*
X165461904Y-108740533D01*
X165461904Y-108740533D02*
X165414285Y-108883390D01*
X165414285Y-108883390D02*
X164842857Y-109454819D01*
X164842857Y-109454819D02*
X165461904Y-109454819D01*
X157423809Y-120178628D02*
X157423809Y-120654819D01*
X157090476Y-119654819D02*
X157423809Y-120178628D01*
X157423809Y-120178628D02*
X157757142Y-119654819D01*
X158614285Y-120654819D02*
X158042857Y-120654819D01*
X158328571Y-120654819D02*
X158328571Y-119654819D01*
X158328571Y-119654819D02*
X158233333Y-119797676D01*
X158233333Y-119797676D02*
X158138095Y-119892914D01*
X158138095Y-119892914D02*
X158042857Y-119940533D01*
X215038095Y-106154819D02*
X215609523Y-106154819D01*
X215323809Y-107154819D02*
X215323809Y-106154819D01*
X215942857Y-107154819D02*
X215942857Y-106154819D01*
X215942857Y-106154819D02*
X216323809Y-106154819D01*
X216323809Y-106154819D02*
X216419047Y-106202438D01*
X216419047Y-106202438D02*
X216466666Y-106250057D01*
X216466666Y-106250057D02*
X216514285Y-106345295D01*
X216514285Y-106345295D02*
X216514285Y-106488152D01*
X216514285Y-106488152D02*
X216466666Y-106583390D01*
X216466666Y-106583390D02*
X216419047Y-106631009D01*
X216419047Y-106631009D02*
X216323809Y-106678628D01*
X216323809Y-106678628D02*
X215942857Y-106678628D01*
X216847619Y-106154819D02*
X217466666Y-106154819D01*
X217466666Y-106154819D02*
X217133333Y-106535771D01*
X217133333Y-106535771D02*
X217276190Y-106535771D01*
X217276190Y-106535771D02*
X217371428Y-106583390D01*
X217371428Y-106583390D02*
X217419047Y-106631009D01*
X217419047Y-106631009D02*
X217466666Y-106726247D01*
X217466666Y-106726247D02*
X217466666Y-106964342D01*
X217466666Y-106964342D02*
X217419047Y-107059580D01*
X217419047Y-107059580D02*
X217371428Y-107107200D01*
X217371428Y-107107200D02*
X217276190Y-107154819D01*
X217276190Y-107154819D02*
X216990476Y-107154819D01*
X216990476Y-107154819D02*
X216895238Y-107107200D01*
X216895238Y-107107200D02*
X216847619Y-107059580D01*
X215785714Y-108554819D02*
X215309524Y-108554819D01*
X215309524Y-108554819D02*
X215309524Y-107554819D01*
X215880953Y-108650057D02*
X216642857Y-108650057D01*
X216880953Y-108554819D02*
X216880953Y-107554819D01*
X216880953Y-107554819D02*
X217261905Y-107554819D01*
X217261905Y-107554819D02*
X217357143Y-107602438D01*
X217357143Y-107602438D02*
X217404762Y-107650057D01*
X217404762Y-107650057D02*
X217452381Y-107745295D01*
X217452381Y-107745295D02*
X217452381Y-107888152D01*
X217452381Y-107888152D02*
X217404762Y-107983390D01*
X217404762Y-107983390D02*
X217357143Y-108031009D01*
X217357143Y-108031009D02*
X217261905Y-108078628D01*
X217261905Y-108078628D02*
X216880953Y-108078628D01*
X217785715Y-107554819D02*
X218023810Y-108554819D01*
X218023810Y-108554819D02*
X218214286Y-107840533D01*
X218214286Y-107840533D02*
X218404762Y-108554819D01*
X218404762Y-108554819D02*
X218642858Y-107554819D01*
X219023810Y-108554819D02*
X219023810Y-107554819D01*
X219023810Y-107554819D02*
X219357143Y-108269104D01*
X219357143Y-108269104D02*
X219690476Y-107554819D01*
X219690476Y-107554819D02*
X219690476Y-108554819D01*
D12*
%TO.C,Q6*%
X145500000Y-99527500D02*
X143825000Y-99527500D01*
X145500000Y-99527500D02*
X146150000Y-99527500D01*
X145500000Y-102647500D02*
X144850000Y-102647500D01*
X145500000Y-102647500D02*
X146150000Y-102647500D01*
%TO.C,R24*%
X194065000Y-111927064D02*
X194065000Y-111472936D01*
X195535000Y-111927064D02*
X195535000Y-111472936D01*
%TO.C,F1*%
X195200000Y-95765000D02*
X194200000Y-95765000D01*
X194200000Y-95765000D02*
X189200000Y-95765000D01*
X189200000Y-95765000D02*
X189200000Y-107765000D01*
X195200000Y-107765000D02*
X195200000Y-95765000D01*
X189200000Y-107765000D02*
X195200000Y-107765000D01*
%TO.C,C37*%
X189140580Y-115110000D02*
X188859420Y-115110000D01*
X189140580Y-114090000D02*
X188859420Y-114090000D01*
%TO.C,Q14*%
X201360000Y-131600000D02*
X201360000Y-129925000D01*
X201360000Y-131600000D02*
X201360000Y-132250000D01*
X198240000Y-131600000D02*
X198240000Y-130950000D01*
X198240000Y-131600000D02*
X198240000Y-132250000D01*
%TO.C,C35*%
X150110000Y-112359420D02*
X150110000Y-112640580D01*
X149090000Y-112359420D02*
X149090000Y-112640580D01*
%TO.C,R31*%
X135165000Y-126327064D02*
X135165000Y-125872936D01*
X136635000Y-126327064D02*
X136635000Y-125872936D01*
%TO.C,Q13*%
X180437500Y-98990000D02*
X178762500Y-98990000D01*
X180437500Y-98990000D02*
X181087500Y-98990000D01*
X180437500Y-102110000D02*
X179787500Y-102110000D01*
X180437500Y-102110000D02*
X181087500Y-102110000D01*
%TO.C,SW3*%
X158200000Y-95900000D02*
X158800000Y-95900000D01*
X158500000Y-96200000D02*
X158200000Y-95900000D01*
X158800000Y-95900000D02*
X158500000Y-96200000D01*
X159900000Y-94100000D02*
X159900000Y-105900000D01*
X164000000Y-94100000D02*
X159900000Y-94100000D01*
X164000000Y-105900000D02*
X159900000Y-105900000D01*
X165500000Y-100000000D02*
X166500000Y-100000000D01*
X166000000Y-99500000D02*
X166000000Y-100500000D01*
X168000000Y-94100000D02*
X172100000Y-94100000D01*
X172100000Y-94100000D02*
X172100000Y-96500000D01*
X172100000Y-98700000D02*
X172100000Y-101300000D01*
X172100000Y-103500000D02*
X172100000Y-105900000D01*
X172100000Y-105900000D02*
X168000000Y-105900000D01*
X169000000Y-100000000D02*
G75*
G03*
X169000000Y-100000000I-3000000J0D01*
G01*
%TO.C,Q9*%
X112250000Y-101560000D02*
X113925000Y-101560000D01*
X112250000Y-101560000D02*
X111600000Y-101560000D01*
X112250000Y-98440000D02*
X112900000Y-98440000D01*
X112250000Y-98440000D02*
X111600000Y-98440000D01*
%TO.C,JP2*%
X178900000Y-126600000D02*
X181700000Y-126600000D01*
X178900000Y-128600000D02*
X178900000Y-126600000D01*
X181700000Y-126600000D02*
X181700000Y-128600000D01*
X181700000Y-128600000D02*
X178900000Y-128600000D01*
%TO.C,C26*%
X222010000Y-114359420D02*
X222010000Y-114640580D01*
X220990000Y-114359420D02*
X220990000Y-114640580D01*
%TO.C,U8*%
X189000000Y-113410000D02*
X191925000Y-113410000D01*
X189000000Y-113410000D02*
X187500000Y-113410000D01*
X189000000Y-110190000D02*
X190500000Y-110190000D01*
X189000000Y-110190000D02*
X187500000Y-110190000D01*
%TO.C,R1*%
X200335000Y-76197936D02*
X200335000Y-76652064D01*
X198865000Y-76197936D02*
X198865000Y-76652064D01*
%TO.C,D6*%
X153685000Y-130340000D02*
X153685000Y-130520000D01*
X153685000Y-130340000D02*
X157105000Y-130340000D01*
X153685000Y-132680000D02*
X153685000Y-132860000D01*
X153685000Y-132860000D02*
X157105000Y-132860000D01*
X153805000Y-130340000D02*
X153805000Y-130520000D01*
X153805000Y-132680000D02*
X153805000Y-132860000D01*
X153925000Y-130340000D02*
X153925000Y-130520000D01*
X153925000Y-132680000D02*
X153925000Y-132860000D01*
X157105000Y-130340000D02*
X157105000Y-130505000D01*
X157105000Y-132695000D02*
X157105000Y-132860000D01*
%TO.C,C3*%
X204360000Y-70613748D02*
X204360000Y-72036252D01*
X201640000Y-70613748D02*
X201640000Y-72036252D01*
%TO.C,L1*%
X201800000Y-112900000D02*
X203800000Y-112900000D01*
X211800000Y-112900000D02*
X209800000Y-112900000D01*
X201800000Y-107900000D02*
X201800000Y-112900000D01*
X201800000Y-107900000D02*
X201800000Y-102900000D01*
X211800000Y-107900000D02*
X211800000Y-112900000D01*
X211800000Y-107900000D02*
X211800000Y-102900000D01*
X201800000Y-102900000D02*
X203800000Y-102900000D01*
X211800000Y-102900000D02*
X209800000Y-102900000D01*
%TO.C,C12*%
X160280000Y-83570000D02*
X163796000Y-83570000D01*
X160280000Y-83570000D02*
X160280000Y-66830000D01*
X166004000Y-83570000D02*
X169520000Y-83570000D01*
X169520000Y-83570000D02*
X169520000Y-66830000D01*
X160280000Y-66830000D02*
X163796000Y-66830000D01*
X166004000Y-66830000D02*
X169520000Y-66830000D01*
%TO.C,T1*%
X188750000Y-66825000D02*
X188750000Y-83825000D01*
X171250000Y-66825000D02*
X188750000Y-66825000D01*
X183722184Y-68664335D02*
X182362184Y-68664335D01*
X176639668Y-68668729D02*
X177999668Y-68668729D01*
X183712848Y-81959074D02*
X182352848Y-81959074D01*
X176630332Y-81963468D02*
X177990332Y-81963468D01*
X188750000Y-83825000D02*
X171250000Y-83825000D01*
X171250000Y-83825000D02*
X171250000Y-66825000D01*
X177989834Y-71990766D02*
G75*
G03*
X177989668Y-68666532I-50352J1662114D01*
G01*
X182362184Y-68664335D02*
G75*
G03*
X182362350Y-71988569I50352J-1662114D01*
G01*
X177990000Y-75315000D02*
G75*
G03*
X177989834Y-71990766I-50352J1662114D01*
G01*
X182362350Y-71988569D02*
G75*
G03*
X182362516Y-75312803I50352J-1662114D01*
G01*
X177990166Y-78639234D02*
G75*
G03*
X177990000Y-75315001I-50356J1662114D01*
G01*
X182362516Y-75312803D02*
G75*
G03*
X182362682Y-78637037I50352J-1662114D01*
G01*
X177990332Y-81963468D02*
G75*
G03*
X177990166Y-78639234I-50352J1662114D01*
G01*
X182362682Y-78637035D02*
G75*
G03*
X182362848Y-81961270I50358J-1662115D01*
G01*
%TO.C,R33*%
X175872500Y-100777064D02*
X175872500Y-100322936D01*
X177342500Y-100777064D02*
X177342500Y-100322936D01*
%TO.C,R28*%
X116235000Y-99860436D02*
X116235000Y-100314564D01*
X114765000Y-99860436D02*
X114765000Y-100314564D01*
%TO.C,R23*%
X196265000Y-111927064D02*
X196265000Y-111472936D01*
X197735000Y-111927064D02*
X197735000Y-111472936D01*
%TO.C,J3*%
X232152500Y-131760000D02*
X234132500Y-131760000D01*
X232152500Y-131760000D02*
X232152500Y-117040000D01*
X237832500Y-131760000D02*
X246372500Y-131760000D01*
X246372500Y-131760000D02*
X246372500Y-117040000D01*
X231272500Y-128400000D02*
X231772500Y-127900000D01*
X231772500Y-127900000D02*
X231272500Y-127400000D01*
X231272500Y-127400000D02*
X231272500Y-128400000D01*
X234132500Y-117040000D02*
X232152500Y-117040000D01*
X237832500Y-117040000D02*
X246372500Y-117040000D01*
%TO.C,TP1*%
X163500000Y-132400000D02*
G75*
G03*
X163500000Y-132400000I-1700000J0D01*
G01*
%TO.C,C16*%
X216860000Y-113188748D02*
X216860000Y-114611252D01*
X214140000Y-113188748D02*
X214140000Y-114611252D01*
%TO.C,C42*%
X154975000Y-124240113D02*
X154975000Y-124740113D01*
X155225000Y-124490113D02*
X154725000Y-124490113D01*
X156080000Y-127044888D02*
X150920000Y-127044888D01*
X156080000Y-127084888D02*
X150920000Y-127084888D01*
X156079000Y-127124888D02*
X150921000Y-127124888D01*
X156078000Y-127164888D02*
X150922000Y-127164888D01*
X156076000Y-127204888D02*
X150924000Y-127204888D01*
X156073000Y-127244888D02*
X150927000Y-127244888D01*
X156069000Y-127284888D02*
X154540000Y-127284888D01*
X152460000Y-127284888D02*
X150931000Y-127284888D01*
X156065000Y-127324888D02*
X154540000Y-127324888D01*
X152460000Y-127324888D02*
X150935000Y-127324888D01*
X156061000Y-127364888D02*
X154540000Y-127364888D01*
X152460000Y-127364888D02*
X150939000Y-127364888D01*
X156056000Y-127404888D02*
X154540000Y-127404888D01*
X152460000Y-127404888D02*
X150944000Y-127404888D01*
X156050000Y-127444888D02*
X154540000Y-127444888D01*
X152460000Y-127444888D02*
X150950000Y-127444888D01*
X156043000Y-127484888D02*
X154540000Y-127484888D01*
X152460000Y-127484888D02*
X150957000Y-127484888D01*
X156036000Y-127524888D02*
X154540000Y-127524888D01*
X152460000Y-127524888D02*
X150964000Y-127524888D01*
X156028000Y-127564888D02*
X154540000Y-127564888D01*
X152460000Y-127564888D02*
X150972000Y-127564888D01*
X156020000Y-127604888D02*
X154540000Y-127604888D01*
X152460000Y-127604888D02*
X150980000Y-127604888D01*
X156011000Y-127644888D02*
X154540000Y-127644888D01*
X152460000Y-127644888D02*
X150989000Y-127644888D01*
X156001000Y-127684888D02*
X154540000Y-127684888D01*
X152460000Y-127684888D02*
X150999000Y-127684888D01*
X155991000Y-127724888D02*
X154540000Y-127724888D01*
X152460000Y-127724888D02*
X151009000Y-127724888D01*
X155980000Y-127765888D02*
X154540000Y-127765888D01*
X152460000Y-127765888D02*
X151020000Y-127765888D01*
X155968000Y-127805888D02*
X154540000Y-127805888D01*
X152460000Y-127805888D02*
X151032000Y-127805888D01*
X155955000Y-127845888D02*
X154540000Y-127845888D01*
X152460000Y-127845888D02*
X151045000Y-127845888D01*
X155942000Y-127885888D02*
X154540000Y-127885888D01*
X152460000Y-127885888D02*
X151058000Y-127885888D01*
X155928000Y-127925888D02*
X154540000Y-127925888D01*
X152460000Y-127925888D02*
X151072000Y-127925888D01*
X155914000Y-127965888D02*
X154540000Y-127965888D01*
X152460000Y-127965888D02*
X151086000Y-127965888D01*
X155898000Y-128005888D02*
X154540000Y-128005888D01*
X152460000Y-128005888D02*
X151102000Y-128005888D01*
X155882000Y-128045888D02*
X154540000Y-128045888D01*
X152460000Y-128045888D02*
X151118000Y-128045888D01*
X155865000Y-128085888D02*
X154540000Y-128085888D01*
X152460000Y-128085888D02*
X151135000Y-128085888D01*
X155848000Y-128125888D02*
X154540000Y-128125888D01*
X152460000Y-128125888D02*
X151152000Y-128125888D01*
X155829000Y-128165888D02*
X154540000Y-128165888D01*
X152460000Y-128165888D02*
X151171000Y-128165888D01*
X155810000Y-128205888D02*
X154540000Y-128205888D01*
X152460000Y-128205888D02*
X151190000Y-128205888D01*
X155790000Y-128245888D02*
X154540000Y-128245888D01*
X152460000Y-128245888D02*
X151210000Y-128245888D01*
X155768000Y-128285888D02*
X154540000Y-128285888D01*
X152460000Y-128285888D02*
X151232000Y-128285888D01*
X155747000Y-128325888D02*
X154540000Y-128325888D01*
X152460000Y-128325888D02*
X151253000Y-128325888D01*
X155724000Y-128365888D02*
X154540000Y-128365888D01*
X152460000Y-128365888D02*
X151276000Y-128365888D01*
X155700000Y-128405888D02*
X154540000Y-128405888D01*
X152460000Y-128405888D02*
X151300000Y-128405888D01*
X155675000Y-128445888D02*
X154540000Y-128445888D01*
X152460000Y-128445888D02*
X151325000Y-128445888D01*
X155649000Y-128485888D02*
X154540000Y-128485888D01*
X152460000Y-128485888D02*
X151351000Y-128485888D01*
X155622000Y-128525888D02*
X154540000Y-128525888D01*
X152460000Y-128525888D02*
X151378000Y-128525888D01*
X155595000Y-128565888D02*
X154540000Y-128565888D01*
X152460000Y-128565888D02*
X151405000Y-128565888D01*
X155565000Y-128605888D02*
X154540000Y-128605888D01*
X152460000Y-128605888D02*
X151435000Y-128605888D01*
X155535000Y-128645888D02*
X154540000Y-128645888D01*
X152460000Y-128645888D02*
X151465000Y-128645888D01*
X155504000Y-128685888D02*
X154540000Y-128685888D01*
X152460000Y-128685888D02*
X151496000Y-128685888D01*
X155471000Y-128725888D02*
X154540000Y-128725888D01*
X152460000Y-128725888D02*
X151529000Y-128725888D01*
X155437000Y-128765888D02*
X154540000Y-128765888D01*
X152460000Y-128765888D02*
X151563000Y-128765888D01*
X155401000Y-128805888D02*
X154540000Y-128805888D01*
X152460000Y-128805888D02*
X151599000Y-128805888D01*
X155364000Y-128845888D02*
X154540000Y-128845888D01*
X152460000Y-128845888D02*
X151636000Y-128845888D01*
X155326000Y-128885888D02*
X154540000Y-128885888D01*
X152460000Y-128885888D02*
X151674000Y-128885888D01*
X155285000Y-128925888D02*
X154540000Y-128925888D01*
X152460000Y-128925888D02*
X151715000Y-128925888D01*
X155243000Y-128965888D02*
X154540000Y-128965888D01*
X152460000Y-128965888D02*
X151757000Y-128965888D01*
X155199000Y-129005888D02*
X154540000Y-129005888D01*
X152460000Y-129005888D02*
X151801000Y-129005888D01*
X155153000Y-129045888D02*
X154540000Y-129045888D01*
X152460000Y-129045888D02*
X151847000Y-129045888D01*
X155105000Y-129085888D02*
X154540000Y-129085888D01*
X152460000Y-129085888D02*
X151895000Y-129085888D01*
X155054000Y-129125888D02*
X154540000Y-129125888D01*
X152460000Y-129125888D02*
X151946000Y-129125888D01*
X155000000Y-129165888D02*
X154540000Y-129165888D01*
X152460000Y-129165888D02*
X152000000Y-129165888D01*
X154943000Y-129205888D02*
X154540000Y-129205888D01*
X152460000Y-129205888D02*
X152057000Y-129205888D01*
X154883000Y-129245888D02*
X154540000Y-129245888D01*
X152460000Y-129245888D02*
X152117000Y-129245888D01*
X154819000Y-129285888D02*
X154540000Y-129285888D01*
X152460000Y-129285888D02*
X152181000Y-129285888D01*
X154751000Y-129325888D02*
X154540000Y-129325888D01*
X152460000Y-129325888D02*
X152249000Y-129325888D01*
X154678000Y-129365888D02*
X152322000Y-129365888D01*
X154598000Y-129405888D02*
X152402000Y-129405888D01*
X154511000Y-129445888D02*
X152489000Y-129445888D01*
X154415000Y-129485888D02*
X152585000Y-129485888D01*
X154305000Y-129525888D02*
X152695000Y-129525888D01*
X154177000Y-129565888D02*
X152823000Y-129565888D01*
X154018000Y-129605888D02*
X152982000Y-129605888D01*
X153784000Y-129645888D02*
X153216000Y-129645888D01*
X156120000Y-127044888D02*
G75*
G03*
X156120000Y-127044888I-2620000J0D01*
G01*
%TO.C,TP2*%
X181200000Y-88100000D02*
X182600000Y-88100000D01*
X181200000Y-89500000D02*
X181200000Y-88100000D01*
X182600000Y-88100000D02*
X182600000Y-89500000D01*
X182600000Y-89500000D02*
X181200000Y-89500000D01*
%TO.C,C31*%
X174490000Y-116540580D02*
X174490000Y-116259420D01*
X175510000Y-116540580D02*
X175510000Y-116259420D01*
%TO.C,C30*%
X224359420Y-105590000D02*
X224640580Y-105590000D01*
X224359420Y-106610000D02*
X224640580Y-106610000D01*
%TO.C,TP5*%
X223700000Y-120500000D02*
X225100000Y-120500000D01*
X223700000Y-121900000D02*
X223700000Y-120500000D01*
X225100000Y-120500000D02*
X225100000Y-121900000D01*
X225100000Y-121900000D02*
X223700000Y-121900000D01*
%TO.C,R3*%
X235465000Y-83727064D02*
X235465000Y-83272936D01*
X236935000Y-83727064D02*
X236935000Y-83272936D01*
%TO.C,R2*%
X240290000Y-104007064D02*
X240290000Y-103552936D01*
X241760000Y-104007064D02*
X241760000Y-103552936D01*
%TO.C,C24*%
X219010000Y-114359420D02*
X219010000Y-114640580D01*
X217990000Y-114359420D02*
X217990000Y-114640580D01*
%TO.C,Q1*%
X204000000Y-74765000D02*
X202325000Y-74765000D01*
X204000000Y-74765000D02*
X204650000Y-74765000D01*
X204000000Y-77885000D02*
X203350000Y-77885000D01*
X204000000Y-77885000D02*
X204650000Y-77885000D01*
%TO.C,R19*%
X141265000Y-101227064D02*
X141265000Y-100772936D01*
X142735000Y-101227064D02*
X142735000Y-100772936D01*
%TO.C,Q11*%
X132600000Y-127760000D02*
X134275000Y-127760000D01*
X132600000Y-127760000D02*
X131950000Y-127760000D01*
X132600000Y-124640000D02*
X133250000Y-124640000D01*
X132600000Y-124640000D02*
X131950000Y-124640000D01*
%TO.C,C11*%
X214285000Y-96812349D02*
X214285000Y-96012349D01*
X213885000Y-96412349D02*
X214685000Y-96412349D01*
X212520000Y-92402651D02*
X220680000Y-92402651D01*
X212520000Y-92362651D02*
X220680000Y-92362651D01*
X212520000Y-92322651D02*
X220680000Y-92322651D01*
X212521000Y-92282651D02*
X220679000Y-92282651D01*
X212523000Y-92242651D02*
X220677000Y-92242651D01*
X212524000Y-92202651D02*
X220676000Y-92202651D01*
X212526000Y-92162651D02*
X220674000Y-92162651D01*
X212529000Y-92122651D02*
X220671000Y-92122651D01*
X212532000Y-92082651D02*
X220668000Y-92082651D01*
X212535000Y-92042651D02*
X220665000Y-92042651D01*
X212539000Y-92002651D02*
X220661000Y-92002651D01*
X212543000Y-91962651D02*
X220657000Y-91962651D01*
X212548000Y-91922651D02*
X220652000Y-91922651D01*
X212552000Y-91882651D02*
X220648000Y-91882651D01*
X212558000Y-91842651D02*
X220642000Y-91842651D01*
X212563000Y-91802651D02*
X220637000Y-91802651D01*
X212570000Y-91762651D02*
X220630000Y-91762651D01*
X212576000Y-91722651D02*
X220624000Y-91722651D01*
X212583000Y-91681651D02*
X215560000Y-91681651D01*
X217640000Y-91681651D02*
X220617000Y-91681651D01*
X212590000Y-91641651D02*
X215560000Y-91641651D01*
X217640000Y-91641651D02*
X220610000Y-91641651D01*
X212598000Y-91601651D02*
X215560000Y-91601651D01*
X217640000Y-91601651D02*
X220602000Y-91601651D01*
X212606000Y-91561651D02*
X215560000Y-91561651D01*
X217640000Y-91561651D02*
X220594000Y-91561651D01*
X212615000Y-91521651D02*
X215560000Y-91521651D01*
X217640000Y-91521651D02*
X220585000Y-91521651D01*
X212624000Y-91481651D02*
X215560000Y-91481651D01*
X217640000Y-91481651D02*
X220576000Y-91481651D01*
X212633000Y-91441651D02*
X215560000Y-91441651D01*
X217640000Y-91441651D02*
X220567000Y-91441651D01*
X212643000Y-91401651D02*
X215560000Y-91401651D01*
X217640000Y-91401651D02*
X220557000Y-91401651D01*
X212653000Y-91361651D02*
X215560000Y-91361651D01*
X217640000Y-91361651D02*
X220547000Y-91361651D01*
X212664000Y-91321651D02*
X215560000Y-91321651D01*
X217640000Y-91321651D02*
X220536000Y-91321651D01*
X212675000Y-91281651D02*
X215560000Y-91281651D01*
X217640000Y-91281651D02*
X220525000Y-91281651D01*
X212686000Y-91241651D02*
X215560000Y-91241651D01*
X217640000Y-91241651D02*
X220514000Y-91241651D01*
X212698000Y-91201651D02*
X215560000Y-91201651D01*
X217640000Y-91201651D02*
X220502000Y-91201651D01*
X212711000Y-91161651D02*
X215560000Y-91161651D01*
X217640000Y-91161651D02*
X220489000Y-91161651D01*
X212723000Y-91121651D02*
X215560000Y-91121651D01*
X217640000Y-91121651D02*
X220477000Y-91121651D01*
X212737000Y-91081651D02*
X215560000Y-91081651D01*
X217640000Y-91081651D02*
X220463000Y-91081651D01*
X212750000Y-91041651D02*
X215560000Y-91041651D01*
X217640000Y-91041651D02*
X220450000Y-91041651D01*
X212765000Y-91001651D02*
X215560000Y-91001651D01*
X217640000Y-91001651D02*
X220435000Y-91001651D01*
X212779000Y-90961651D02*
X215560000Y-90961651D01*
X217640000Y-90961651D02*
X220421000Y-90961651D01*
X212795000Y-90921651D02*
X215560000Y-90921651D01*
X217640000Y-90921651D02*
X220405000Y-90921651D01*
X212810000Y-90881651D02*
X215560000Y-90881651D01*
X217640000Y-90881651D02*
X220390000Y-90881651D01*
X212826000Y-90841651D02*
X215560000Y-90841651D01*
X217640000Y-90841651D02*
X220374000Y-90841651D01*
X212843000Y-90801651D02*
X215560000Y-90801651D01*
X217640000Y-90801651D02*
X220357000Y-90801651D01*
X212860000Y-90761651D02*
X215560000Y-90761651D01*
X217640000Y-90761651D02*
X220340000Y-90761651D01*
X212878000Y-90721651D02*
X215560000Y-90721651D01*
X217640000Y-90721651D02*
X220322000Y-90721651D01*
X212896000Y-90681651D02*
X215560000Y-90681651D01*
X217640000Y-90681651D02*
X220304000Y-90681651D01*
X212914000Y-90641651D02*
X215560000Y-90641651D01*
X217640000Y-90641651D02*
X220286000Y-90641651D01*
X212934000Y-90601651D02*
X215560000Y-90601651D01*
X217640000Y-90601651D02*
X220266000Y-90601651D01*
X212953000Y-90561651D02*
X215560000Y-90561651D01*
X217640000Y-90561651D02*
X220247000Y-90561651D01*
X212973000Y-90521651D02*
X215560000Y-90521651D01*
X217640000Y-90521651D02*
X220227000Y-90521651D01*
X212994000Y-90481651D02*
X215560000Y-90481651D01*
X217640000Y-90481651D02*
X220206000Y-90481651D01*
X213016000Y-90441651D02*
X215560000Y-90441651D01*
X217640000Y-90441651D02*
X220184000Y-90441651D01*
X213038000Y-90401651D02*
X215560000Y-90401651D01*
X217640000Y-90401651D02*
X220162000Y-90401651D01*
X213060000Y-90361651D02*
X215560000Y-90361651D01*
X217640000Y-90361651D02*
X220140000Y-90361651D01*
X213083000Y-90321651D02*
X215560000Y-90321651D01*
X217640000Y-90321651D02*
X220117000Y-90321651D01*
X213107000Y-90281651D02*
X215560000Y-90281651D01*
X217640000Y-90281651D02*
X220093000Y-90281651D01*
X213131000Y-90241651D02*
X215560000Y-90241651D01*
X217640000Y-90241651D02*
X220069000Y-90241651D01*
X213156000Y-90201651D02*
X215560000Y-90201651D01*
X217640000Y-90201651D02*
X220044000Y-90201651D01*
X213182000Y-90161651D02*
X215560000Y-90161651D01*
X217640000Y-90161651D02*
X220018000Y-90161651D01*
X213208000Y-90121651D02*
X215560000Y-90121651D01*
X217640000Y-90121651D02*
X219992000Y-90121651D01*
X213235000Y-90081651D02*
X215560000Y-90081651D01*
X217640000Y-90081651D02*
X219965000Y-90081651D01*
X213262000Y-90041651D02*
X215560000Y-90041651D01*
X217640000Y-90041651D02*
X219938000Y-90041651D01*
X213291000Y-90001651D02*
X215560000Y-90001651D01*
X217640000Y-90001651D02*
X219909000Y-90001651D01*
X213320000Y-89961651D02*
X215560000Y-89961651D01*
X217640000Y-89961651D02*
X219880000Y-89961651D01*
X213350000Y-89921651D02*
X215560000Y-89921651D01*
X217640000Y-89921651D02*
X219850000Y-89921651D01*
X213380000Y-89881651D02*
X215560000Y-89881651D01*
X217640000Y-89881651D02*
X219820000Y-89881651D01*
X213411000Y-89841651D02*
X215560000Y-89841651D01*
X217640000Y-89841651D02*
X219789000Y-89841651D01*
X213444000Y-89801651D02*
X215560000Y-89801651D01*
X217640000Y-89801651D02*
X219756000Y-89801651D01*
X213476000Y-89761651D02*
X215560000Y-89761651D01*
X217640000Y-89761651D02*
X219724000Y-89761651D01*
X213510000Y-89721651D02*
X215560000Y-89721651D01*
X217640000Y-89721651D02*
X219690000Y-89721651D01*
X213545000Y-89681651D02*
X215560000Y-89681651D01*
X217640000Y-89681651D02*
X219655000Y-89681651D01*
X213581000Y-89641651D02*
X215560000Y-89641651D01*
X217640000Y-89641651D02*
X219619000Y-89641651D01*
X213617000Y-89601651D02*
X219583000Y-89601651D01*
X213655000Y-89561651D02*
X219545000Y-89561651D01*
X213693000Y-89521651D02*
X219507000Y-89521651D01*
X213733000Y-89481651D02*
X219467000Y-89481651D01*
X213774000Y-89441651D02*
X219426000Y-89441651D01*
X213816000Y-89401651D02*
X219384000Y-89401651D01*
X213859000Y-89361651D02*
X219341000Y-89361651D01*
X213903000Y-89321651D02*
X219297000Y-89321651D01*
X213949000Y-89281651D02*
X219251000Y-89281651D01*
X213996000Y-89241651D02*
X219204000Y-89241651D01*
X214044000Y-89201651D02*
X219156000Y-89201651D01*
X214095000Y-89161651D02*
X219105000Y-89161651D01*
X214146000Y-89121651D02*
X219054000Y-89121651D01*
X214200000Y-89081651D02*
X219000000Y-89081651D01*
X214255000Y-89041651D02*
X218945000Y-89041651D01*
X214313000Y-89001651D02*
X218887000Y-89001651D01*
X214372000Y-88961651D02*
X218828000Y-88961651D01*
X214434000Y-88921651D02*
X218766000Y-88921651D01*
X214498000Y-88881651D02*
X218702000Y-88881651D01*
X214566000Y-88841651D02*
X218634000Y-88841651D01*
X214636000Y-88801651D02*
X218564000Y-88801651D01*
X214710000Y-88761651D02*
X218490000Y-88761651D01*
X214787000Y-88721651D02*
X218413000Y-88721651D01*
X214869000Y-88681651D02*
X218331000Y-88681651D01*
X214955000Y-88641651D02*
X218245000Y-88641651D01*
X215048000Y-88601651D02*
X218152000Y-88601651D01*
X215147000Y-88561651D02*
X218053000Y-88561651D01*
X215254000Y-88521651D02*
X217946000Y-88521651D01*
X215371000Y-88481651D02*
X217829000Y-88481651D01*
X215502000Y-88441651D02*
X217698000Y-88441651D01*
X215652000Y-88401651D02*
X217548000Y-88401651D01*
X215832000Y-88361651D02*
X217368000Y-88361651D01*
X216067000Y-88321651D02*
X217133000Y-88321651D01*
X220720000Y-92402651D02*
G75*
G03*
X220720000Y-92402651I-4120000J0D01*
G01*
%TO.C,U9*%
X120150000Y-100000000D02*
X120150000Y-100400000D01*
X120150000Y-100000000D02*
X119750000Y-100000000D01*
X120150000Y-100000000D02*
X120550000Y-100000000D01*
X120150000Y-100000000D02*
X120150000Y-99600000D01*
X100100000Y-134200000D02*
X140100000Y-134200000D01*
X140100000Y-134200000D02*
X140100000Y-66800000D01*
X140100000Y-66800000D02*
X100100000Y-66800000D01*
X100100000Y-66800000D02*
X100100000Y-134200000D01*
D10*
%TO.C,J1*%
X184750497Y-130495000D02*
X184750497Y-131695000D01*
X186900497Y-128345000D02*
X186900497Y-128895000D01*
X186900497Y-128895000D02*
X185900497Y-128895000D01*
X187825497Y-128345000D02*
X186900497Y-128345000D01*
X190900497Y-128895000D02*
X191900497Y-128895000D01*
X193050497Y-131695000D02*
X193050497Y-130495000D01*
D12*
%TO.C,R20*%
X147235000Y-104772936D02*
X147235000Y-105227064D01*
X145765000Y-104772936D02*
X145765000Y-105227064D01*
%TO.C,L2*%
X177940000Y-115902064D02*
X177940000Y-114697936D01*
X180660000Y-115902064D02*
X180660000Y-114697936D01*
%TO.C,Q10*%
X158500000Y-125440000D02*
X156825000Y-125440000D01*
X158500000Y-125440000D02*
X159150000Y-125440000D01*
X158500000Y-128560000D02*
X157850000Y-128560000D01*
X158500000Y-128560000D02*
X159150000Y-128560000D01*
%TO.C,C32*%
X159559420Y-114590000D02*
X159840580Y-114590000D01*
X159559420Y-115610000D02*
X159840580Y-115610000D01*
%TO.C,C14*%
X159520000Y-66830000D02*
X156004000Y-66830000D01*
X159520000Y-66830000D02*
X159520000Y-83570000D01*
X153796000Y-66830000D02*
X150280000Y-66830000D01*
X150280000Y-66830000D02*
X150280000Y-83570000D01*
X159520000Y-83570000D02*
X156004000Y-83570000D01*
X153796000Y-83570000D02*
X150280000Y-83570000D01*
%TO.C,TP4*%
X199000000Y-111800000D02*
X200400000Y-111800000D01*
X199000000Y-113200000D02*
X199000000Y-111800000D01*
X200400000Y-111800000D02*
X200400000Y-113200000D01*
X200400000Y-113200000D02*
X199000000Y-113200000D01*
%TO.C,Q5*%
X184352500Y-86800000D02*
X184352500Y-88475000D01*
X184352500Y-86800000D02*
X184352500Y-86150000D01*
X187472500Y-86800000D02*
X187472500Y-87450000D01*
X187472500Y-86800000D02*
X187472500Y-86150000D01*
D10*
%TO.C,JP1*%
X193600000Y-82380000D02*
X193100000Y-81880000D01*
X194400000Y-82380000D02*
X193600000Y-82380000D01*
X193100000Y-81880000D02*
X193100000Y-78280000D01*
X194900000Y-81880000D02*
X194400000Y-82380000D01*
X193100000Y-78280000D02*
X193600000Y-77780000D01*
X194900000Y-78280000D02*
X194900000Y-81880000D01*
X193600000Y-77780000D02*
X194400000Y-77780000D01*
X194400000Y-77780000D02*
X194900000Y-78280000D01*
D12*
%TO.C,SW2*%
X149320000Y-134270000D02*
X149320000Y-130420000D01*
X149320000Y-127780000D02*
X149320000Y-127480000D01*
X148430000Y-127480000D02*
X149320000Y-127480000D01*
X148430000Y-127480000D02*
X148430000Y-127830000D01*
X147940000Y-130030000D02*
X142960000Y-130030000D01*
X142470000Y-127480000D02*
X142470000Y-127830000D01*
X141580000Y-134270000D02*
X149320000Y-134270000D01*
X141580000Y-130420000D02*
X141580000Y-134270000D01*
X141580000Y-127780000D02*
X141580000Y-127480000D01*
X141580000Y-127480000D02*
X142470000Y-127480000D01*
%TO.C,C36*%
X149090000Y-119640580D02*
X149090000Y-119359420D01*
X150110000Y-119640580D02*
X150110000Y-119359420D01*
%TO.C,JP3*%
X191900000Y-123300000D02*
X191900000Y-126100000D01*
X189900000Y-123300000D02*
X191900000Y-123300000D01*
X191900000Y-126100000D02*
X189900000Y-126100000D01*
X189900000Y-126100000D02*
X189900000Y-123300000D01*
%TO.C,R8*%
X203965000Y-94027064D02*
X203965000Y-93572936D01*
X205435000Y-94027064D02*
X205435000Y-93572936D01*
%TO.C,C17*%
X140280000Y-83570000D02*
X143796000Y-83570000D01*
X140280000Y-83570000D02*
X140280000Y-66830000D01*
X146004000Y-83570000D02*
X149520000Y-83570000D01*
X149520000Y-83570000D02*
X149520000Y-66830000D01*
X140280000Y-66830000D02*
X143796000Y-66830000D01*
X146004000Y-66830000D02*
X149520000Y-66830000D01*
%TO.C,C20*%
X210410000Y-117288748D02*
X210410000Y-118711252D01*
X207690000Y-117288748D02*
X207690000Y-118711252D01*
%TO.C,J5*%
X177405000Y-129195000D02*
X177405000Y-130525000D01*
X176075000Y-129195000D02*
X177405000Y-129195000D01*
X174805000Y-129195000D02*
X164585000Y-129195000D01*
X174805000Y-129195000D02*
X174805000Y-131795000D01*
X164585000Y-129195000D02*
X164585000Y-134395000D01*
X177405000Y-131795000D02*
X177405000Y-134395000D01*
X174805000Y-131795000D02*
X177405000Y-131795000D01*
X177405000Y-134395000D02*
X164585000Y-134395000D01*
%TO.C,R16*%
X220627064Y-112310000D02*
X219172936Y-112310000D01*
X220627064Y-110490000D02*
X219172936Y-110490000D01*
%TO.C,R30*%
X108227064Y-104160000D02*
X106772936Y-104160000D01*
X108227064Y-102340000D02*
X106772936Y-102340000D01*
%TO.C,C19*%
X214690000Y-102840580D02*
X214690000Y-102559420D01*
X215710000Y-102840580D02*
X215710000Y-102559420D01*
%TO.C,U3*%
X217990000Y-98090000D02*
X218465000Y-98090000D01*
X224210000Y-98565000D02*
X224210000Y-98090000D01*
X217990000Y-98565000D02*
X217990000Y-98090000D01*
X224210000Y-103835000D02*
X224210000Y-104310000D01*
X217990000Y-103835000D02*
X217990000Y-104310000D01*
X224210000Y-104310000D02*
X223735000Y-104310000D01*
X217990000Y-104310000D02*
X218465000Y-104310000D01*
%TO.C,Q2*%
X223700000Y-132460000D02*
X227150000Y-132460000D01*
X223700000Y-132460000D02*
X221750000Y-132460000D01*
X223700000Y-127340000D02*
X225650000Y-127340000D01*
X223700000Y-127340000D02*
X221750000Y-127340000D01*
%TO.C,C6*%
X193475000Y-66770225D02*
X193475000Y-67270225D01*
X193725000Y-67020225D02*
X193225000Y-67020225D01*
X194580000Y-69575000D02*
X189420000Y-69575000D01*
X194580000Y-69615000D02*
X189420000Y-69615000D01*
X194579000Y-69655000D02*
X189421000Y-69655000D01*
X194578000Y-69695000D02*
X189422000Y-69695000D01*
X194576000Y-69735000D02*
X189424000Y-69735000D01*
X194573000Y-69775000D02*
X189427000Y-69775000D01*
X194569000Y-69815000D02*
X193040000Y-69815000D01*
X190960000Y-69815000D02*
X189431000Y-69815000D01*
X194565000Y-69855000D02*
X193040000Y-69855000D01*
X190960000Y-69855000D02*
X189435000Y-69855000D01*
X194561000Y-69895000D02*
X193040000Y-69895000D01*
X190960000Y-69895000D02*
X189439000Y-69895000D01*
X194556000Y-69935000D02*
X193040000Y-69935000D01*
X190960000Y-69935000D02*
X189444000Y-69935000D01*
X194550000Y-69975000D02*
X193040000Y-69975000D01*
X190960000Y-69975000D02*
X189450000Y-69975000D01*
X194543000Y-70015000D02*
X193040000Y-70015000D01*
X190960000Y-70015000D02*
X189457000Y-70015000D01*
X194536000Y-70055000D02*
X193040000Y-70055000D01*
X190960000Y-70055000D02*
X189464000Y-70055000D01*
X194528000Y-70095000D02*
X193040000Y-70095000D01*
X190960000Y-70095000D02*
X189472000Y-70095000D01*
X194520000Y-70135000D02*
X193040000Y-70135000D01*
X190960000Y-70135000D02*
X189480000Y-70135000D01*
X194511000Y-70175000D02*
X193040000Y-70175000D01*
X190960000Y-70175000D02*
X189489000Y-70175000D01*
X194501000Y-70215000D02*
X193040000Y-70215000D01*
X190960000Y-70215000D02*
X189499000Y-70215000D01*
X194491000Y-70255000D02*
X193040000Y-70255000D01*
X190960000Y-70255000D02*
X189509000Y-70255000D01*
X194480000Y-70296000D02*
X193040000Y-70296000D01*
X190960000Y-70296000D02*
X189520000Y-70296000D01*
X194468000Y-70336000D02*
X193040000Y-70336000D01*
X190960000Y-70336000D02*
X189532000Y-70336000D01*
X194455000Y-70376000D02*
X193040000Y-70376000D01*
X190960000Y-70376000D02*
X189545000Y-70376000D01*
X194442000Y-70416000D02*
X193040000Y-70416000D01*
X190960000Y-70416000D02*
X189558000Y-70416000D01*
X194428000Y-70456000D02*
X193040000Y-70456000D01*
X190960000Y-70456000D02*
X189572000Y-70456000D01*
X194414000Y-70496000D02*
X193040000Y-70496000D01*
X190960000Y-70496000D02*
X189586000Y-70496000D01*
X194398000Y-70536000D02*
X193040000Y-70536000D01*
X190960000Y-70536000D02*
X189602000Y-70536000D01*
X194382000Y-70576000D02*
X193040000Y-70576000D01*
X190960000Y-70576000D02*
X189618000Y-70576000D01*
X194365000Y-70616000D02*
X193040000Y-70616000D01*
X190960000Y-70616000D02*
X189635000Y-70616000D01*
X194348000Y-70656000D02*
X193040000Y-70656000D01*
X190960000Y-70656000D02*
X189652000Y-70656000D01*
X194329000Y-70696000D02*
X193040000Y-70696000D01*
X190960000Y-70696000D02*
X189671000Y-70696000D01*
X194310000Y-70736000D02*
X193040000Y-70736000D01*
X190960000Y-70736000D02*
X189690000Y-70736000D01*
X194290000Y-70776000D02*
X193040000Y-70776000D01*
X190960000Y-70776000D02*
X189710000Y-70776000D01*
X194268000Y-70816000D02*
X193040000Y-70816000D01*
X190960000Y-70816000D02*
X189732000Y-70816000D01*
X194247000Y-70856000D02*
X193040000Y-70856000D01*
X190960000Y-70856000D02*
X189753000Y-70856000D01*
X194224000Y-70896000D02*
X193040000Y-70896000D01*
X190960000Y-70896000D02*
X189776000Y-70896000D01*
X194200000Y-70936000D02*
X193040000Y-70936000D01*
X190960000Y-70936000D02*
X189800000Y-70936000D01*
X194175000Y-70976000D02*
X193040000Y-70976000D01*
X190960000Y-70976000D02*
X189825000Y-70976000D01*
X194149000Y-71016000D02*
X193040000Y-71016000D01*
X190960000Y-71016000D02*
X189851000Y-71016000D01*
X194122000Y-71056000D02*
X193040000Y-71056000D01*
X190960000Y-71056000D02*
X189878000Y-71056000D01*
X194095000Y-71096000D02*
X193040000Y-71096000D01*
X190960000Y-71096000D02*
X189905000Y-71096000D01*
X194065000Y-71136000D02*
X193040000Y-71136000D01*
X190960000Y-71136000D02*
X189935000Y-71136000D01*
X194035000Y-71176000D02*
X193040000Y-71176000D01*
X190960000Y-71176000D02*
X189965000Y-71176000D01*
X194004000Y-71216000D02*
X193040000Y-71216000D01*
X190960000Y-71216000D02*
X189996000Y-71216000D01*
X193971000Y-71256000D02*
X193040000Y-71256000D01*
X190960000Y-71256000D02*
X190029000Y-71256000D01*
X193937000Y-71296000D02*
X193040000Y-71296000D01*
X190960000Y-71296000D02*
X190063000Y-71296000D01*
X193901000Y-71336000D02*
X193040000Y-71336000D01*
X190960000Y-71336000D02*
X190099000Y-71336000D01*
X193864000Y-71376000D02*
X193040000Y-71376000D01*
X190960000Y-71376000D02*
X190136000Y-71376000D01*
X193826000Y-71416000D02*
X193040000Y-71416000D01*
X190960000Y-71416000D02*
X190174000Y-71416000D01*
X193785000Y-71456000D02*
X193040000Y-71456000D01*
X190960000Y-71456000D02*
X190215000Y-71456000D01*
X193743000Y-71496000D02*
X193040000Y-71496000D01*
X190960000Y-71496000D02*
X190257000Y-71496000D01*
X193699000Y-71536000D02*
X193040000Y-71536000D01*
X190960000Y-71536000D02*
X190301000Y-71536000D01*
X193653000Y-71576000D02*
X193040000Y-71576000D01*
X190960000Y-71576000D02*
X190347000Y-71576000D01*
X193605000Y-71616000D02*
X193040000Y-71616000D01*
X190960000Y-71616000D02*
X190395000Y-71616000D01*
X193554000Y-71656000D02*
X193040000Y-71656000D01*
X190960000Y-71656000D02*
X190446000Y-71656000D01*
X193500000Y-71696000D02*
X193040000Y-71696000D01*
X190960000Y-71696000D02*
X190500000Y-71696000D01*
X193443000Y-71736000D02*
X193040000Y-71736000D01*
X190960000Y-71736000D02*
X190557000Y-71736000D01*
X193383000Y-71776000D02*
X193040000Y-71776000D01*
X190960000Y-71776000D02*
X190617000Y-71776000D01*
X193319000Y-71816000D02*
X193040000Y-71816000D01*
X190960000Y-71816000D02*
X190681000Y-71816000D01*
X193251000Y-71856000D02*
X193040000Y-71856000D01*
X190960000Y-71856000D02*
X190749000Y-71856000D01*
X193178000Y-71896000D02*
X190822000Y-71896000D01*
X193098000Y-71936000D02*
X190902000Y-71936000D01*
X193011000Y-71976000D02*
X190989000Y-71976000D01*
X192915000Y-72016000D02*
X191085000Y-72016000D01*
X192805000Y-72056000D02*
X191195000Y-72056000D01*
X192677000Y-72096000D02*
X191323000Y-72096000D01*
X192518000Y-72136000D02*
X191482000Y-72136000D01*
X192284000Y-72176000D02*
X191716000Y-72176000D01*
X194620000Y-69575000D02*
G75*
G03*
X194620000Y-69575000I-2620000J0D01*
G01*
%TO.C,R32*%
X181627064Y-105710000D02*
X180172936Y-105710000D01*
X181627064Y-103890000D02*
X180172936Y-103890000D01*
%TO.C,Q8*%
X145500000Y-124540000D02*
X143825000Y-124540000D01*
X145500000Y-124540000D02*
X146150000Y-124540000D01*
X145500000Y-127660000D02*
X144850000Y-127660000D01*
X145500000Y-127660000D02*
X146150000Y-127660000D01*
D10*
%TO.C,U4*%
X164175000Y-113125000D02*
X164175000Y-113350000D01*
X164175000Y-113125000D02*
X164500000Y-113125000D01*
X164175000Y-113350000D02*
X162750000Y-113350000D01*
X164175000Y-120375000D02*
X164175000Y-120050000D01*
X164175000Y-120375000D02*
X164500000Y-120375000D01*
X171425000Y-113125000D02*
X171100000Y-113125000D01*
X171425000Y-113125000D02*
X171425000Y-113450000D01*
X171425000Y-120375000D02*
X171100000Y-120375000D01*
X171425000Y-120375000D02*
X171425000Y-120050000D01*
D12*
%TO.C,U6*%
X172700000Y-125000000D02*
X172600000Y-125000000D01*
X172600000Y-125000000D02*
X172600000Y-124600000D01*
X170300000Y-125000000D02*
X170500000Y-125000000D01*
X170300000Y-125000000D02*
X170300000Y-127600000D01*
X172700000Y-127600000D02*
X172700000Y-125000000D01*
X172500000Y-127600000D02*
X172700000Y-127600000D01*
X170300000Y-127600000D02*
X170500000Y-127600000D01*
D10*
%TO.C,J2*%
X240015000Y-95925000D02*
X241215000Y-95925000D01*
X237865000Y-93775000D02*
X238415000Y-93775000D01*
X238415000Y-93775000D02*
X238415000Y-94775000D01*
X237865000Y-92850000D02*
X237865000Y-93775000D01*
X238415000Y-89775000D02*
X238415000Y-88775000D01*
X241215000Y-87625000D02*
X240015000Y-87625000D01*
D12*
%TO.C,R34*%
X199672936Y-126535000D02*
X200127064Y-126535000D01*
X199672936Y-128005000D02*
X200127064Y-128005000D01*
%TO.C,R5*%
X186114564Y-91345000D02*
X185660436Y-91345000D01*
X186114564Y-89875000D02*
X185660436Y-89875000D01*
%TO.C,R25*%
X183472936Y-112365000D02*
X183927064Y-112365000D01*
X183472936Y-113835000D02*
X183927064Y-113835000D01*
%TO.C,Q4*%
X229740000Y-83200000D02*
X229740000Y-86650000D01*
X229740000Y-83200000D02*
X229740000Y-81250000D01*
X234860000Y-83200000D02*
X234860000Y-85150000D01*
X234860000Y-83200000D02*
X234860000Y-81250000D01*
%TO.C,C28*%
X226160000Y-112688748D02*
X226160000Y-114111252D01*
X223440000Y-112688748D02*
X223440000Y-114111252D01*
%TO.C,C27*%
X143370000Y-91130000D02*
X140630000Y-91130000D01*
X143370000Y-91130000D02*
X143370000Y-98870000D01*
X140630000Y-91130000D02*
X140630000Y-98870000D01*
X143370000Y-98870000D02*
X140630000Y-98870000D01*
%TO.C,C21*%
X206160000Y-117288748D02*
X206160000Y-118711252D01*
X203440000Y-117288748D02*
X203440000Y-118711252D01*
%TO.C,C33*%
X176290000Y-116540580D02*
X176290000Y-116259420D01*
X177310000Y-116540580D02*
X177310000Y-116259420D01*
%TO.C,R21*%
X182935000Y-116372936D02*
X182935000Y-116827064D01*
X181465000Y-116372936D02*
X181465000Y-116827064D01*
%TO.C,R29*%
X108227064Y-96660000D02*
X106772936Y-96660000D01*
X108227064Y-94840000D02*
X106772936Y-94840000D01*
%TO.C,Q3*%
X234640000Y-103525000D02*
X234640000Y-106975000D01*
X234640000Y-103525000D02*
X234640000Y-101575000D01*
X239760000Y-103525000D02*
X239760000Y-105475000D01*
X239760000Y-103525000D02*
X239760000Y-101575000D01*
%TO.C,R22*%
X167827064Y-109635000D02*
X167372936Y-109635000D01*
X167827064Y-108165000D02*
X167372936Y-108165000D01*
%TO.C,Y1*%
X151550000Y-122700000D02*
X156650000Y-122700000D01*
X156650000Y-122700000D02*
X156650000Y-110100000D01*
X151550000Y-110100000D02*
X151550000Y-122700000D01*
%TO.C,TP3*%
X213000000Y-107400000D02*
X214400000Y-107400000D01*
X213000000Y-108800000D02*
X213000000Y-107400000D01*
X214400000Y-107400000D02*
X214400000Y-108800000D01*
X214400000Y-108800000D02*
X213000000Y-108800000D01*
%TD*%
M02*
