M48
; DRILL file {KiCad 7.0.9-7.0.9~ubuntu22.04.1} date Сб 25 ноя 2023 10:37:07
; FORMAT={-:-/ absolute / inch / decimal}
; #@! TF.CreationDate,2023-11-25T10:37:07+03:00
; #@! TF.GenerationSoftware,Kicad,Pcbnew,7.0.9-7.0.9~ubuntu22.04.1
; #@! TF.FileFunction,Plated,1,4,PTH
FMAT,2
INCH
; #@! TA.AperFunction,Plated,PTH,ComponentDrill
T1C0.0079
; #@! TA.AperFunction,Plated,PTH,ViaDrill
T2C0.0157
; #@! TA.AperFunction,Plated,PTH,ComponentDrill
T3C0.0276
; #@! TA.AperFunction,Plated,PTH,ComponentDrill
T4C0.0315
; #@! TA.AperFunction,Plated,PTH,ComponentDrill
T5C0.0354
; #@! TA.AperFunction,Plated,PTH,ComponentDrill
T6C0.0362
; #@! TA.AperFunction,Plated,PTH,ComponentDrill
T7C0.0394
; #@! TA.AperFunction,Plated,PTH,ComponentDrill
T8C0.0433
; #@! TA.AperFunction,Plated,PTH,ComponentDrill
T9C0.0512
; #@! TA.AperFunction,Plated,PTH,ComponentDrill
T10C0.0551
; #@! TA.AperFunction,Plated,PTH,ComponentDrill
T11C0.0591
; #@! TA.AperFunction,Plated,PTH,ComponentDrill
T12C0.0906
; #@! TA.AperFunction,Plated,PTH,ComponentDrill
T13C0.1024
; #@! TA.AperFunction,Plated,PTH,ComponentDrill
T14C0.1575
%
G90
G05
T1
X8.6232Y-3.9035
X8.6232Y-3.9439
X8.6232Y-3.9843
X8.6232Y-4.0246
X8.6232Y-4.065
X8.6636Y-3.9035
X8.6636Y-3.9439
X8.6636Y-3.9843
X8.6636Y-4.0246
X8.6636Y-4.065
X8.7039Y-3.9035
X8.7039Y-3.9439
X8.7039Y-3.9843
X8.7039Y-4.0246
X8.7039Y-4.065
X8.7443Y-3.9035
X8.7443Y-3.9439
X8.7443Y-3.9843
X8.7443Y-4.0246
X8.7443Y-4.065
X8.7846Y-3.9035
X8.7846Y-3.9439
X8.7846Y-3.9843
X8.7846Y-4.0246
X8.7846Y-4.065
T2
X4.6134Y-4.9331
X4.7157Y-4.9331
X5.1316Y-4.9685
X5.5504Y-4.7323
X5.763Y-4.0394
X5.8181Y-4.2402
X5.889Y-4.5669
X6.0622Y-2.9567
X6.1173Y-2.9567
X6.3378Y-5.0
X6.3457Y-4.2362
X6.3772Y-4.5768
X6.3968Y-4.3347
X6.4933Y-4.5001
X6.5543Y-4.5099
X6.5622Y-4.2874
X6.5839Y-4.9606
X6.5839Y-5.0
X6.5898Y-4.689
X6.5937Y-4.3602
X6.5976Y-4.8661
X6.6252Y-4.6299
X6.6429Y-4.872
X6.6625Y-4.4972
X6.6685Y-4.6535
X6.6823Y-4.5374
X6.702Y-4.6949
X6.7217Y-4.9803
X6.763Y-4.2992
X6.7807Y-4.9606
X6.8142Y-4.3031
X6.815Y-4.8582
X6.8268Y-4.7756
X6.8398Y-4.9606
X6.8398Y-5.0
X6.8515Y-4.4783
X6.878Y-4.8543
X6.8781Y-4.2785
X7.0071Y-3.9213
X7.0787Y-4.9926
X7.1724Y-4.5551
X7.1724Y-4.6265
X7.2549Y-4.3782
X7.2827Y-4.3504
X7.3535Y-5.0276
X7.3811Y-4.878
X7.4047Y-5.0276
X7.4441Y-5.0276
X7.5189Y-4.5039
X7.5307Y-3.8386
X7.5346Y-3.9173
X7.5396Y-4.9055
X7.5976Y-3.8386
X7.5976Y-3.9173
X7.6016Y-4.7559
X7.6488Y-4.748
X7.6528Y-3.4882
X7.6724Y-4.3622
X7.6882Y-4.8415
X7.7118Y-4.437
X7.81Y-4.3462
X7.8339Y-5.0748
X7.9047Y-5.0748
X8.0307Y-4.5866
X8.0346Y-4.7047
X8.0858Y-4.7047
X8.0898Y-4.5906
X8.0937Y-4.3937
X8.122Y-2.6732
X8.1409Y-4.3937
X8.1843Y-4.3937
X8.2Y-4.5866
X8.2039Y-4.7047
X8.2551Y-4.5866
X8.2551Y-4.7047
X8.3373Y-3.0669
X8.4067Y-2.9818
X8.452Y-4.4291
X8.4761Y-4.1535
X8.4835Y-4.5394
X8.4874Y-4.4291
X8.5228Y-4.4291
X8.6016Y-4.5433
X8.7197Y-3.6732
X8.7197Y-4.5433
X8.759Y-3.673
X8.8063Y-4.2402
X8.8073Y-4.1772
X8.8496Y-4.5236
X8.8693Y-4.1772
X8.8732Y-3.9843
X8.9008Y-4.9843
X8.9047Y-3.9528
X8.9598Y-3.937
X8.9725Y-3.9891
X8.9913Y-3.9134
X9.015Y-2.9488
X9.0189Y-3.5551
X9.0307Y-4.0827
X9.0679Y-4.1102
X9.1252Y-2.7992
X9.1567Y-2.8386
X9.1961Y-2.9094
X9.2433Y-3.6103
X9.2433Y-3.6496
X9.2598Y-4.5
X9.263Y-3.3622
X9.2665Y-2.7953
X9.2665Y-3.0079
X9.2953Y-4.5
X9.3102Y-3.753
X9.3142Y-3.9764
X9.448Y-4.1654
T3
X7.7551Y-3.9724
X7.7551Y-4.1299
X8.1803Y-3.6165
X8.1803Y-3.8165
T4
X6.0425Y-4.9526
X6.0425Y-5.051
X7.8063Y-2.6939
X7.8063Y-2.7923
X7.885Y-3.1067
X7.885Y-3.2067
X8.5268Y-3.569
X8.5268Y-3.7068
T5
X4.3142Y-5.2244
X4.4142Y-5.2244
X4.5142Y-5.2244
X4.6142Y-5.2244
X4.7142Y-5.2244
X4.8142Y-5.2244
X4.9142Y-5.2244
X5.0142Y-5.2244
X5.1142Y-5.2244
X6.0671Y-5.1811
X6.1671Y-5.1811
T6
X9.1832Y-4.7598
X9.1832Y-4.8583
X9.1832Y-4.937
X9.1832Y-5.0354
T7
X4.3953Y-2.6722
X4.448Y-3.1181
X4.4953Y-2.6722
X5.0386Y-3.6299
X5.5898Y-3.6417
X5.5898Y-3.8386
X5.637Y-5.1811
X5.8142Y-5.1811
X6.2394Y-3.8386
X6.2394Y-3.937
X6.2394Y-4.0354
X6.5313Y-5.1388
X6.5313Y-5.2388
X6.6313Y-5.1388
X6.6313Y-5.2388
X6.7313Y-5.1388
X6.7313Y-5.2388
X6.8102Y-3.8386
X6.8102Y-4.0354
X6.8313Y-5.1388
X6.8313Y-5.2388
X6.9313Y-5.1388
X6.9313Y-5.2388
X7.0583Y-2.7136
X7.0583Y-3.2254
X7.6094Y-2.7136
X7.6094Y-3.2254
T8
X4.0346Y-3.6457
X4.0346Y-3.8268
X4.0346Y-4.0472
X4.0346Y-4.2283
X5.8024Y-2.6417
X5.8024Y-3.2323
X6.1331Y-2.6417
X6.1331Y-3.2323
X6.4559Y-2.6417
X6.4559Y-3.2323
X6.763Y-2.6417
X6.763Y-3.2323
X7.3024Y-3.9409
X7.3024Y-4.1299
X8.0504Y-4.9961
X8.0504Y-5.185
T9
X5.5878Y-5.0827
X5.8634Y-5.0827
T10
X5.5866Y-2.722
X5.5866Y-2.922
T11
X6.3732Y-5.2126
T12
X9.2899Y-4.6122
X9.2899Y-5.1831
T13
X6.5346Y-3.7165
X6.5346Y-4.1575
T14
X4.7236Y-4.0945
T4
G00X9.3848Y-2.6693
M15
G01X9.3533Y-2.6693
M16
G05
G00X9.3848Y-3.1102
M15
G01X9.3533Y-3.1102
M16
G05
G00X9.5472Y-2.6693
M15
G01X9.5Y-2.6693
M16
G05
G00X9.5472Y-3.1102
M15
G01X9.5Y-3.1102
M16
G05
T7
G00X7.2453Y-5.0827
M15
G01X7.2453Y-5.1102
M16
G05
G00X7.2453Y-5.2126
M15
G01X7.2453Y-5.2402
M16
G05
G00X7.6272Y-5.0827
M15
G01X7.6272Y-5.1102
M16
G05
G00X7.6272Y-5.2126
M15
G01X7.6272Y-5.2402
M16
G05
G00X9.3935Y-3.4222
M15
G01X9.4211Y-3.4222
M16
G05
G00X9.3935Y-3.8041
M15
G01X9.4211Y-3.8041
M16
G05
G00X9.5234Y-3.4222
M15
G01X9.551Y-3.4222
M16
G05
G00X9.5234Y-3.8041
M15
G01X9.551Y-3.8041
M16
G05
T0
M30
