%TF.GenerationSoftware,KiCad,Pcbnew,7.0.7-7.0.7~ubuntu22.04.1*%
%TF.CreationDate,2023-08-14T16:39:56+03:00*%
%TF.ProjectId,xray-v2,78726179-2d76-4322-9e6b-696361645f70,rev?*%
%TF.SameCoordinates,Original*%
%TF.FileFunction,Copper,L3,Inr*%
%TF.FilePolarity,Positive*%
%FSLAX46Y46*%
G04 Gerber Fmt 4.6, Leading zero omitted, Abs format (unit mm)*
G04 Created by KiCad (PCBNEW 7.0.7-7.0.7~ubuntu22.04.1) date 2023-08-14 16:39:56*
%MOMM*%
%LPD*%
G01*
G04 APERTURE LIST*
G04 Aperture macros list*
%AMRoundRect*
0 Rectangle with rounded corners*
0 $1 Rounding radius*
0 $2 $3 $4 $5 $6 $7 $8 $9 X,Y pos of 4 corners*
0 Add a 4 corners polygon primitive as box body*
4,1,4,$2,$3,$4,$5,$6,$7,$8,$9,$2,$3,0*
0 Add four circle primitives for the rounded corners*
1,1,$1+$1,$2,$3*
1,1,$1+$1,$4,$5*
1,1,$1+$1,$6,$7*
1,1,$1+$1,$8,$9*
0 Add four rect primitives between the rounded corners*
20,1,$1+$1,$2,$3,$4,$5,0*
20,1,$1+$1,$4,$5,$6,$7,0*
20,1,$1+$1,$6,$7,$8,$9,0*
20,1,$1+$1,$8,$9,$2,$3,0*%
G04 Aperture macros list end*
%TA.AperFunction,ComponentPad*%
%ADD10R,2.000000X2.000000*%
%TD*%
%TA.AperFunction,ComponentPad*%
%ADD11C,2.000000*%
%TD*%
%TA.AperFunction,ComponentPad*%
%ADD12C,3.200000*%
%TD*%
%TA.AperFunction,ComponentPad*%
%ADD13R,1.800000X1.800000*%
%TD*%
%TA.AperFunction,ComponentPad*%
%ADD14C,1.800000*%
%TD*%
%TA.AperFunction,ComponentPad*%
%ADD15C,2.200000*%
%TD*%
%TA.AperFunction,ComponentPad*%
%ADD16R,1.524000X1.524000*%
%TD*%
%TA.AperFunction,ComponentPad*%
%ADD17C,1.524000*%
%TD*%
%TA.AperFunction,ComponentPad*%
%ADD18C,3.500000*%
%TD*%
%TA.AperFunction,ComponentPad*%
%ADD19C,3.000000*%
%TD*%
%TA.AperFunction,ComponentPad*%
%ADD20R,1.600000X1.600000*%
%TD*%
%TA.AperFunction,ComponentPad*%
%ADD21C,1.600000*%
%TD*%
%TA.AperFunction,ComponentPad*%
%ADD22RoundRect,0.250001X-0.899999X0.899999X-0.899999X-0.899999X0.899999X-0.899999X0.899999X0.899999X0*%
%TD*%
%TA.AperFunction,ComponentPad*%
%ADD23C,2.300000*%
%TD*%
%TA.AperFunction,ComponentPad*%
%ADD24C,1.500000*%
%TD*%
%TA.AperFunction,ComponentPad*%
%ADD25O,1.400000X2.300000*%
%TD*%
%TA.AperFunction,ComponentPad*%
%ADD26C,1.400000*%
%TD*%
%TA.AperFunction,ComponentPad*%
%ADD27RoundRect,0.250001X0.799999X-0.799999X0.799999X0.799999X-0.799999X0.799999X-0.799999X-0.799999X0*%
%TD*%
%TA.AperFunction,ComponentPad*%
%ADD28C,2.100000*%
%TD*%
%TA.AperFunction,ComponentPad*%
%ADD29C,1.700000*%
%TD*%
%TA.AperFunction,ComponentPad*%
%ADD30RoundRect,0.250000X0.600000X-0.600000X0.600000X0.600000X-0.600000X0.600000X-0.600000X-0.600000X0*%
%TD*%
%TA.AperFunction,ComponentPad*%
%ADD31R,1.700000X1.700000*%
%TD*%
%TA.AperFunction,ComponentPad*%
%ADD32O,1.700000X1.700000*%
%TD*%
%TA.AperFunction,ComponentPad*%
%ADD33C,0.500000*%
%TD*%
%TA.AperFunction,ComponentPad*%
%ADD34O,2.000000X1.200000*%
%TD*%
%TA.AperFunction,ComponentPad*%
%ADD35O,2.400000X1.000000*%
%TD*%
%TA.AperFunction,ComponentPad*%
%ADD36O,2.300000X1.400000*%
%TD*%
%TA.AperFunction,ComponentPad*%
%ADD37RoundRect,0.250001X0.899999X-0.899999X0.899999X0.899999X-0.899999X0.899999X-0.899999X-0.899999X0*%
%TD*%
%TA.AperFunction,ComponentPad*%
%ADD38RoundRect,0.250001X-0.799999X0.799999X-0.799999X-0.799999X0.799999X-0.799999X0.799999X0.799999X0*%
%TD*%
%TA.AperFunction,ComponentPad*%
%ADD39O,1.400000X1.400000*%
%TD*%
%TA.AperFunction,ComponentPad*%
%ADD40C,5.000000*%
%TD*%
%TA.AperFunction,ComponentPad*%
%ADD41R,2.800000X2.800000*%
%TD*%
%TA.AperFunction,ComponentPad*%
%ADD42O,2.800000X2.800000*%
%TD*%
%TA.AperFunction,ViaPad*%
%ADD43C,0.800000*%
%TD*%
%TA.AperFunction,Conductor*%
%ADD44C,0.200000*%
%TD*%
%TA.AperFunction,Conductor*%
%ADD45C,1.000000*%
%TD*%
%TA.AperFunction,Conductor*%
%ADD46C,1.500000*%
%TD*%
%TA.AperFunction,Conductor*%
%ADD47C,0.500000*%
%TD*%
G04 APERTURE END LIST*
D10*
%TO.N,ENCODER_A*%
%TO.C,SW3*%
X158500000Y-97500000D03*
D11*
%TO.N,ENCODER_B*%
X158500000Y-102500000D03*
%TO.N,GND*%
X158500000Y-100000000D03*
D12*
%TO.N,N/C*%
X166000000Y-94400000D03*
X166000000Y-105600000D03*
D11*
%TO.N,ENCODER_CLICK*%
X173000000Y-102500000D03*
%TO.N,GND*%
X173000000Y-97500000D03*
%TD*%
D13*
%TO.N,Net-(D6-K)*%
%TO.C,D6*%
X154125000Y-131600000D03*
D14*
%TO.N,Net-(D6-A)*%
X156665000Y-131600000D03*
%TD*%
D15*
%TO.N,Net-(D1-A)*%
%TO.C,C12*%
X164900000Y-82700000D03*
%TO.N,Net-(D2-K)*%
X164900000Y-67700000D03*
%TD*%
D14*
%TO.N,Net-(T1-AA)*%
%TO.C,T1*%
X187000000Y-68825000D03*
%TO.N,Net-(Q5-D)*%
X187000000Y-81825000D03*
%TO.N,GND*%
X173000000Y-81825000D03*
%TO.N,Net-(D1-A)*%
X173000000Y-68825000D03*
%TD*%
D16*
%TO.N,USB_OUT_VBUS*%
%TO.C,J3*%
X233272500Y-127900000D03*
D17*
%TO.N,USB_OUT_D-*%
X233272500Y-125400000D03*
%TO.N,USB_OUT_D+*%
X233272500Y-123400000D03*
%TO.N,GND*%
X233272500Y-120900000D03*
D18*
X235982500Y-131650000D03*
X235982500Y-117150000D03*
%TD*%
D19*
%TO.N,GND*%
%TO.C,TP1*%
X161800000Y-132400000D03*
%TD*%
D20*
%TO.N,Net-(Q10-G)*%
%TO.C,C42*%
X153500000Y-125794888D03*
D21*
%TO.N,GND*%
X153500000Y-128294888D03*
%TD*%
D22*
%TO.N,VCC*%
%TO.C,M1*%
X204500000Y-126900000D03*
D23*
%TO.N,Net-(M1--)*%
X204500000Y-131700000D03*
%TD*%
D20*
%TO.N,USB_VSYS*%
%TO.C,C11*%
X216600000Y-94152651D03*
D21*
%TO.N,GND*%
X216600000Y-90652651D03*
%TD*%
D24*
%TO.N,Net-(Q11-D)*%
%TO.C,U9*%
X109600000Y-132700000D03*
%TO.N,GND*%
X112140000Y-132700000D03*
X114680000Y-132700000D03*
%TO.N,Net-(Q11-D)*%
X117220000Y-132700000D03*
%TO.N,TFT_DC*%
X119760000Y-132700000D03*
%TO.N,MOSI*%
X122300000Y-132700000D03*
%TO.N,SCK*%
X124840000Y-132700000D03*
%TO.N,Net-(Q11-D)*%
X127380000Y-132700000D03*
%TO.N,MISO*%
X129920000Y-132700000D03*
%TD*%
D25*
%TO.N,GND*%
%TO.C,J1*%
X184050497Y-129445000D03*
X184050497Y-132745000D03*
X193750497Y-129445000D03*
X193750497Y-132745000D03*
%TD*%
D15*
%TO.N,Net-(D1-K)*%
%TO.C,C14*%
X154900000Y-67700000D03*
%TO.N,GND*%
X154900000Y-82700000D03*
%TD*%
D26*
%TO.N,UV_ENABLE#*%
%TO.C,JP1*%
X194000000Y-81350000D03*
%TO.N,Net-(JP1-B)*%
X194000000Y-78810000D03*
%TD*%
D27*
%TO.N,Net-(D5-K)*%
%TO.C,D5*%
X102500000Y-107400000D03*
D28*
%TO.N,VCC*%
X102500000Y-102800000D03*
%TD*%
D15*
%TO.N,*%
%TO.C,SW2*%
X148950000Y-129100000D03*
X141950000Y-129100000D03*
D29*
%TO.N,WAKEUP_BUTTON*%
X147700000Y-131600000D03*
%TO.N,GND*%
X143200000Y-131600000D03*
%TD*%
D30*
%TO.N,Net-(BT1-+)*%
%TO.C,BT1*%
X197000000Y-104900000D03*
D29*
%TO.N,GND*%
X197000000Y-100900000D03*
%TD*%
D15*
%TO.N,GND*%
%TO.C,C17*%
X144900000Y-82700000D03*
%TO.N,Net-(D3-K)*%
X144900000Y-67700000D03*
%TD*%
D31*
%TO.N,Net-(J5-Pin_1)*%
%TO.C,J5*%
X176075000Y-130525000D03*
D32*
%TO.N,+5V*%
X176075000Y-133065000D03*
%TO.N,unconnected-(J5-Pin_3-Pad3)*%
X173535000Y-130525000D03*
%TO.N,RXD_5V*%
X173535000Y-133065000D03*
%TO.N,Net-(J5-Pin_5)*%
X170995000Y-130525000D03*
%TO.N,TXD_5V*%
X170995000Y-133065000D03*
%TO.N,Net-(J5-Pin_7)*%
X168455000Y-130525000D03*
%TO.N,GND*%
X168455000Y-133065000D03*
%TO.N,Net-(J5-Pin_9)*%
X165915000Y-130525000D03*
%TO.N,GND*%
X165915000Y-133065000D03*
%TD*%
D33*
%TO.N,GND*%
%TO.C,U3*%
X223150000Y-99150000D03*
X222125000Y-99150000D03*
X221100000Y-99150000D03*
X220075000Y-99150000D03*
X219050000Y-99150000D03*
X223150000Y-100175000D03*
X222125000Y-100175000D03*
X221100000Y-100175000D03*
X220075000Y-100175000D03*
X219050000Y-100175000D03*
X223150000Y-101200000D03*
X222125000Y-101200000D03*
X221100000Y-101200000D03*
X220075000Y-101200000D03*
X219050000Y-101200000D03*
X223150000Y-102225000D03*
X222125000Y-102225000D03*
X221100000Y-102225000D03*
X220075000Y-102225000D03*
X219050000Y-102225000D03*
X223150000Y-103250000D03*
X222125000Y-103250000D03*
X221100000Y-103250000D03*
X220075000Y-103250000D03*
X219050000Y-103250000D03*
%TD*%
D34*
%TO.N,GND*%
%TO.C,J4*%
X237995000Y-79000000D03*
D35*
X241920000Y-79000000D03*
D34*
X237995000Y-67800000D03*
D35*
X241920000Y-67800000D03*
%TD*%
D20*
%TO.N,Net-(T1-AA)*%
%TO.C,C6*%
X192000000Y-68325000D03*
D21*
%TO.N,GND*%
X192000000Y-70825000D03*
%TD*%
D36*
%TO.N,GND*%
%TO.C,J2*%
X238965000Y-96625000D03*
X242265000Y-96625000D03*
X238965000Y-86925000D03*
X242265000Y-86925000D03*
%TD*%
D11*
%TO.N,Net-(V1-C)*%
%TO.C,C27*%
X142000000Y-92500000D03*
%TO.N,Net-(Q6-B)*%
X142000000Y-97500000D03*
%TD*%
D37*
%TO.N,Net-(LS1-Pad1)*%
%TO.C,LS1*%
X185500000Y-104900000D03*
D23*
%TO.N,Net-(Q13-D)*%
X185500000Y-100100000D03*
%TD*%
D38*
%TO.N,Net-(D4-K)*%
%TO.C,D4*%
X102500000Y-92600000D03*
D28*
%TO.N,VCC*%
X102500000Y-97200000D03*
%TD*%
D31*
%TO.N,Net-(R10-Pad1)*%
%TO.C,SW1*%
X114200000Y-67875000D03*
D32*
%TO.N,GND*%
X111660000Y-67875000D03*
%TD*%
D26*
%TO.N,Net-(U3-NTC)*%
%TO.C,R9*%
X207800000Y-96940000D03*
D39*
%TO.N,GND*%
X207800000Y-91860000D03*
%TD*%
D24*
%TO.N,Net-(V1-A)*%
%TO.C,V1*%
X113000000Y-79200000D03*
%TO.N,Net-(V1-C)*%
X128000000Y-92200000D03*
D40*
%TO.N,GND*%
X120000000Y-104000000D03*
%TD*%
D41*
%TO.N,Net-(D3-K)*%
%TO.C,D3*%
X142639950Y-75300000D03*
D42*
%TO.N,Net-(D2-K)*%
X147719950Y-75300000D03*
%TD*%
D43*
%TO.N,GND*%
X205400000Y-119500000D03*
X186812500Y-88800000D03*
X209700000Y-119500000D03*
X208400000Y-119500000D03*
X221500000Y-115400000D03*
X170750000Y-126500000D03*
X198700000Y-73725000D03*
X191000000Y-114400000D03*
X218500000Y-115400000D03*
X215500000Y-115300000D03*
X204100000Y-119500000D03*
X199000000Y-128900000D03*
X224800000Y-114900000D03*
X225300000Y-106100000D03*
X162000000Y-116250000D03*
X149600000Y-116000000D03*
X169750000Y-115250000D03*
X182200000Y-117512500D03*
%TO.N,FLUSH_VBUS*%
X186800000Y-127700000D03*
%TO.N,USB_OUT_VBUS*%
X226200000Y-100400000D03*
%TO.N,USB_M_IN_VBUS*%
X236600000Y-101000000D03*
X230345500Y-104400000D03*
X236500000Y-95325000D03*
%TO.N,USB_IN_VBUS*%
X235390000Y-76400000D03*
X235390000Y-71000000D03*
%TO.N,USB_VSYS*%
X215600000Y-112500000D03*
X216500000Y-112500000D03*
X214700000Y-112500000D03*
%TO.N,VCC*%
X193000000Y-99500000D03*
X167250000Y-126000000D03*
X191400000Y-99500000D03*
X204000000Y-116500000D03*
X205500000Y-116600000D03*
X206800000Y-111600000D03*
X205600000Y-111600000D03*
X166700000Y-108900000D03*
X191300000Y-97500000D03*
X208300000Y-116500000D03*
X147800000Y-107700000D03*
X207900000Y-111600000D03*
X140500000Y-123300000D03*
X193000000Y-97500000D03*
X172250000Y-126000000D03*
X209700000Y-116500000D03*
X173750000Y-126000000D03*
X223725000Y-106100000D03*
%TO.N,USB_OUT_VOUT2*%
X227922535Y-101322535D03*
%TO.N,RESET*%
X167500000Y-110750000D03*
X172400000Y-123399500D03*
X161000000Y-127000000D03*
X190900000Y-125700000D03*
%TO.N,VREG*%
X223700000Y-107700000D03*
X195900000Y-112700000D03*
%TO.N,ENCODER_CLICK*%
X167400000Y-119100000D03*
%TO.N,Net-(Q11-D)*%
X129400000Y-126200000D03*
%TO.N,USB_M_IN_D-*%
X222499488Y-93294596D03*
X234800000Y-92700000D03*
%TO.N,USB_M_IN_D+*%
X221500000Y-93300000D03*
X234800000Y-91700497D03*
%TO.N,USB_OUT_D-*%
X227600000Y-100000000D03*
%TO.N,USB_OUT_D+*%
X228400000Y-99400000D03*
%TO.N,USB_IN_D+*%
X233600000Y-73900000D03*
X232600000Y-72100000D03*
%TO.N,USB_IN_CC2*%
X229000000Y-74900000D03*
X231800000Y-71100000D03*
%TO.N,+5V*%
X172250000Y-127000000D03*
X167250000Y-127000000D03*
X173750000Y-127000000D03*
%TO.N,FLUSH_D-*%
X188100000Y-127700000D03*
%TO.N,FLUSH_D+*%
X189100000Y-127700000D03*
%TO.N,UV_ENABLE#*%
X174723624Y-108675000D03*
%TO.N,Net-(JP3-A)*%
X191000000Y-124000000D03*
%TO.N,USB_OUT_VBUS_G*%
X225400000Y-101200000D03*
X226100000Y-126600000D03*
%TO.N,USB_M_IN_VBUS_G*%
X240000000Y-105800000D03*
X229400000Y-103700500D03*
%TO.N,UV_PWM*%
X169400000Y-118200000D03*
X184912500Y-88900000D03*
%TO.N,USB_IN_VBUS_G*%
X235300000Y-85400000D03*
X229100000Y-90300000D03*
%TO.N,RADIATION_VALUE*%
X146400000Y-102600000D03*
X161200000Y-107600000D03*
%TO.N,SPEAKER*%
X178000000Y-99600000D03*
X162499312Y-110100688D03*
%TO.N,VIBRO*%
X200800000Y-128900000D03*
X174049062Y-113749562D03*
%TO.N,USB_I2C_SDA*%
X194900000Y-110800000D03*
X198394622Y-110394622D03*
%TO.N,USB_INT*%
X168300000Y-117600000D03*
X182200000Y-115700000D03*
%TO.N,MCU_I2C_SDA*%
X185000000Y-110500000D03*
X173100000Y-109300000D03*
%TO.N,MCU_I2C_SCL*%
X184293245Y-111206755D03*
X171800000Y-109200000D03*
%TO.N,MOSI*%
X174500000Y-122750000D03*
X170250000Y-119250000D03*
%TO.N,MISO*%
X167250000Y-123750000D03*
%TO.N,TFT_DC*%
X169247180Y-114227820D03*
%TO.N,RXD*%
X166499500Y-114550500D03*
X173750000Y-123750000D03*
%TO.N,TXD*%
X164949301Y-114302872D03*
X168750000Y-123750000D03*
%TO.N,RXD_5V*%
X193100000Y-120800000D03*
%TO.N,TXD_5V*%
X194300000Y-120600000D03*
%TO.N,Net-(Q1-D)*%
X202100000Y-68125000D03*
%TO.N,Net-(U3-RSET)*%
X215312500Y-105500000D03*
%TD*%
D44*
%TO.N,USB_M_IN_VBUS*%
X230345500Y-104400000D02*
X233200000Y-104400000D01*
X233200000Y-104400000D02*
X236600000Y-101000000D01*
D45*
%TO.N,USB_IN_VBUS*%
X235390000Y-76400000D02*
X235390000Y-71100000D01*
D46*
%TO.N,USB_VSYS*%
X214700000Y-112500000D02*
X216500000Y-112500000D01*
X213962500Y-96790151D02*
X213962500Y-111762500D01*
X216600000Y-94152651D02*
X213962500Y-96790151D01*
X213962500Y-111762500D02*
X214700000Y-112500000D01*
%TO.N,VCC*%
X158000000Y-91500000D02*
X185800000Y-91500000D01*
D47*
X190000000Y-100000000D02*
X190400000Y-99600000D01*
X176002082Y-126000000D02*
X190000000Y-112002082D01*
X149000000Y-108900000D02*
X166700000Y-108900000D01*
D46*
X193000000Y-106200000D02*
X194800000Y-108000000D01*
D47*
X171900000Y-125650000D02*
X172050000Y-125800000D01*
D46*
X150100000Y-105400000D02*
X150100000Y-99400000D01*
D47*
X173750000Y-126000000D02*
X176002082Y-126000000D01*
D45*
X140400000Y-123300000D02*
X140500000Y-123200000D01*
D46*
X201600000Y-111600000D02*
X205600000Y-111600000D01*
X150100000Y-99400000D02*
X158000000Y-91500000D01*
X194800000Y-108000000D02*
X198000000Y-108000000D01*
D45*
X147750000Y-107750000D02*
X147750000Y-117550000D01*
D46*
X147750000Y-107750000D02*
X147800000Y-107700000D01*
D45*
X147750000Y-117550000D02*
X142100000Y-123200000D01*
X191300000Y-99600000D02*
X191300000Y-112755635D01*
D46*
X185800000Y-91500000D02*
X191800000Y-97500000D01*
X193000000Y-99500000D02*
X193000000Y-106200000D01*
D47*
X190400000Y-99600000D02*
X191300000Y-99600000D01*
X172250000Y-126000000D02*
X173750000Y-126000000D01*
X102500000Y-97300000D02*
X102500000Y-102900000D01*
D46*
X207900000Y-111600000D02*
X206800000Y-111600000D01*
D47*
X147800000Y-107700000D02*
X149000000Y-108900000D01*
X167600000Y-125650000D02*
X171900000Y-125650000D01*
D46*
X198000000Y-108000000D02*
X201600000Y-111600000D01*
X147800000Y-107700000D02*
X150100000Y-105400000D01*
D47*
X167450000Y-125800000D02*
X167600000Y-125650000D01*
D46*
X205600000Y-111600000D02*
X205700000Y-111600000D01*
X205700000Y-111600000D02*
X207900000Y-111600000D01*
D47*
X147300000Y-107200000D02*
X147800000Y-107700000D01*
X190000000Y-112002082D02*
X190000000Y-100000000D01*
X102500000Y-102900000D02*
X106800000Y-107200000D01*
D46*
X191800000Y-97500000D02*
X193000000Y-97500000D01*
D45*
X140500000Y-123300000D02*
X140400000Y-123300000D01*
D47*
X106800000Y-107200000D02*
X147300000Y-107200000D01*
D45*
X142100000Y-123200000D02*
X140500000Y-123200000D01*
X191300000Y-112755635D02*
X204500000Y-125955635D01*
X204500000Y-125955635D02*
X204500000Y-126900000D01*
X140500000Y-123200000D02*
X140500000Y-123300000D01*
D44*
%TO.N,RESET*%
X172400000Y-123399500D02*
X172400000Y-124100000D01*
X172400000Y-124100000D02*
X171500000Y-125000000D01*
X163000000Y-125000000D02*
X161000000Y-127000000D01*
X171500000Y-125000000D02*
X163000000Y-125000000D01*
%TO.N,USB_IN_D+*%
X232800000Y-73900000D02*
X232600000Y-73700000D01*
X233600000Y-73900000D02*
X232800000Y-73900000D01*
X232600000Y-73700000D02*
X232600000Y-72100000D01*
%TO.N,USB_IN_CC2*%
X229000000Y-73900000D02*
X231800000Y-71100000D01*
X229000000Y-74900000D02*
X229000000Y-73900000D01*
%TO.N,USB_M_IN_VBUS_G*%
X230000000Y-105800000D02*
X240000000Y-105800000D01*
X229400000Y-103700500D02*
X229400000Y-105200000D01*
X229400000Y-105200000D02*
X230000000Y-105800000D01*
%TO.N,USB_IN_VBUS_G*%
X229100000Y-90300000D02*
X229100000Y-88300000D01*
X232000000Y-85400000D02*
X235300000Y-85400000D01*
X229100000Y-88300000D02*
X232000000Y-85400000D01*
D47*
%TO.N,USB_INT*%
X168797918Y-117600000D02*
X168300000Y-117600000D01*
X170697918Y-115700000D02*
X168797918Y-117600000D01*
X182200000Y-115700000D02*
X170697918Y-115700000D01*
D44*
%TO.N,MCU_I2C_SDA*%
X173100000Y-109300000D02*
X174300000Y-110500000D01*
X174300000Y-110500000D02*
X185000000Y-110500000D01*
%TO.N,MCU_I2C_SCL*%
X173700000Y-111200000D02*
X184286490Y-111200000D01*
X171800000Y-109200000D02*
X171800000Y-109300000D01*
X171800000Y-109300000D02*
X173700000Y-111200000D01*
X184286490Y-111200000D02*
X184293245Y-111206755D01*
D47*
%TO.N,TFT_DC*%
X139400000Y-128400000D02*
X122700000Y-128400000D01*
X160075000Y-123400000D02*
X144400000Y-123400000D01*
X144400000Y-123400000D02*
X139400000Y-128400000D01*
X119760000Y-131340000D02*
X119760000Y-132700000D01*
X122700000Y-128400000D02*
X119760000Y-131340000D01*
X169247180Y-114227820D02*
X160075000Y-123400000D01*
D44*
%TO.N,TXD_5V*%
X172145000Y-134215000D02*
X177385000Y-134215000D01*
X170995000Y-133065000D02*
X172145000Y-134215000D01*
X193700000Y-126400000D02*
X194300000Y-125800000D01*
X194300000Y-125800000D02*
X194300000Y-120600000D01*
X177385000Y-134215000D02*
X185200000Y-126400000D01*
X185200000Y-126400000D02*
X193700000Y-126400000D01*
%TD*%
M02*
