%TF.GenerationSoftware,KiCad,Pcbnew,7.0.6-7.0.6~ubuntu22.04.1*%
%TF.CreationDate,2023-08-07T17:22:59+03:00*%
%TF.ProjectId,xray-v2,78726179-2d76-4322-9e6b-696361645f70,rev?*%
%TF.SameCoordinates,Original*%
%TF.FileFunction,Soldermask,Bot*%
%TF.FilePolarity,Negative*%
%FSLAX46Y46*%
G04 Gerber Fmt 4.6, Leading zero omitted, Abs format (unit mm)*
G04 Created by KiCad (PCBNEW 7.0.6-7.0.6~ubuntu22.04.1) date 2023-08-07 17:22:59*
%MOMM*%
%LPD*%
G01*
G04 APERTURE LIST*
G04 Aperture macros list*
%AMRoundRect*
0 Rectangle with rounded corners*
0 $1 Rounding radius*
0 $2 $3 $4 $5 $6 $7 $8 $9 X,Y pos of 4 corners*
0 Add a 4 corners polygon primitive as box body*
4,1,4,$2,$3,$4,$5,$6,$7,$8,$9,$2,$3,0*
0 Add four circle primitives for the rounded corners*
1,1,$1+$1,$2,$3*
1,1,$1+$1,$4,$5*
1,1,$1+$1,$6,$7*
1,1,$1+$1,$8,$9*
0 Add four rect primitives between the rounded corners*
20,1,$1+$1,$2,$3,$4,$5,0*
20,1,$1+$1,$4,$5,$6,$7,0*
20,1,$1+$1,$6,$7,$8,$9,0*
20,1,$1+$1,$8,$9,$2,$3,0*%
G04 Aperture macros list end*
%ADD10C,2.200000*%
%ADD11R,2.000000X2.000000*%
%ADD12C,2.000000*%
%ADD13C,3.200000*%
%ADD14R,1.800000X1.800000*%
%ADD15C,1.800000*%
%ADD16R,1.524000X1.524000*%
%ADD17C,1.524000*%
%ADD18C,3.500000*%
%ADD19R,1.700000X1.700000*%
%ADD20O,1.700000X1.700000*%
%ADD21C,3.000000*%
%ADD22R,1.600000X1.600000*%
%ADD23C,1.600000*%
%ADD24RoundRect,0.250001X-0.899999X0.899999X-0.899999X-0.899999X0.899999X-0.899999X0.899999X0.899999X0*%
%ADD25C,2.300000*%
%ADD26O,1.400000X2.300000*%
%ADD27C,1.400000*%
%ADD28RoundRect,0.250001X0.799999X-0.799999X0.799999X0.799999X-0.799999X0.799999X-0.799999X-0.799999X0*%
%ADD29C,2.100000*%
%ADD30C,1.700000*%
%ADD31RoundRect,0.250000X0.600000X-0.600000X0.600000X0.600000X-0.600000X0.600000X-0.600000X-0.600000X0*%
%ADD32O,2.000000X1.200000*%
%ADD33O,2.400000X1.000000*%
%ADD34R,2.800000X2.800000*%
%ADD35O,2.800000X2.800000*%
%ADD36O,2.300000X1.400000*%
%ADD37RoundRect,0.250001X0.899999X-0.899999X0.899999X0.899999X-0.899999X0.899999X-0.899999X-0.899999X0*%
%ADD38RoundRect,0.250001X-0.799999X0.799999X-0.799999X-0.799999X0.799999X-0.799999X0.799999X0.799999X0*%
%ADD39R,0.250000X0.750000*%
%ADD40RoundRect,0.250000X-0.625000X0.312500X-0.625000X-0.312500X0.625000X-0.312500X0.625000X0.312500X0*%
%ADD41RoundRect,0.225000X0.225000X0.250000X-0.225000X0.250000X-0.225000X-0.250000X0.225000X-0.250000X0*%
%ADD42RoundRect,0.225000X-0.225000X-0.250000X0.225000X-0.250000X0.225000X0.250000X-0.225000X0.250000X0*%
%ADD43RoundRect,0.250000X-0.262500X-0.450000X0.262500X-0.450000X0.262500X0.450000X-0.262500X0.450000X0*%
%ADD44RoundRect,0.250000X0.262500X0.450000X-0.262500X0.450000X-0.262500X-0.450000X0.262500X-0.450000X0*%
%ADD45RoundRect,0.225000X-0.250000X0.225000X-0.250000X-0.225000X0.250000X-0.225000X0.250000X0.225000X0*%
%ADD46RoundRect,0.250000X0.450000X-0.262500X0.450000X0.262500X-0.450000X0.262500X-0.450000X-0.262500X0*%
%ADD47RoundRect,0.250000X-1.000000X-0.650000X1.000000X-0.650000X1.000000X0.650000X-1.000000X0.650000X0*%
%ADD48RoundRect,0.225000X0.250000X-0.225000X0.250000X0.225000X-0.250000X0.225000X-0.250000X-0.225000X0*%
%ADD49RoundRect,0.062500X0.062500X-0.337500X0.062500X0.337500X-0.062500X0.337500X-0.062500X-0.337500X0*%
%ADD50RoundRect,0.062500X0.337500X-0.062500X0.337500X0.062500X-0.337500X0.062500X-0.337500X-0.062500X0*%
%ADD51R,3.350000X3.350000*%
%ADD52RoundRect,0.250000X-1.100000X0.325000X-1.100000X-0.325000X1.100000X-0.325000X1.100000X0.325000X0*%
%ADD53O,1.400000X1.400000*%
%ADD54RoundRect,0.250000X1.100000X-0.325000X1.100000X0.325000X-1.100000X0.325000X-1.100000X-0.325000X0*%
%ADD55RoundRect,0.250000X0.312500X0.625000X-0.312500X0.625000X-0.312500X-0.625000X0.312500X-0.625000X0*%
%ADD56R,2.000000X1.500000*%
%ADD57R,2.000000X3.800000*%
%ADD58RoundRect,0.150000X0.150000X-0.587500X0.150000X0.587500X-0.150000X0.587500X-0.150000X-0.587500X0*%
%ADD59C,1.500000*%
%ADD60C,5.000000*%
%ADD61RoundRect,0.150000X-0.150000X0.587500X-0.150000X-0.587500X0.150000X-0.587500X0.150000X0.587500X0*%
%ADD62RoundRect,0.250000X-0.650000X1.000000X-0.650000X-1.000000X0.650000X-1.000000X0.650000X1.000000X0*%
G04 APERTURE END LIST*
D10*
%TO.C,H4*%
X241000000Y-83000000D03*
%TD*%
D11*
%TO.C,SW1*%
X158500000Y-97500000D03*
D12*
X158500000Y-102500000D03*
X158500000Y-100000000D03*
D13*
X166000000Y-94400000D03*
X166000000Y-105600000D03*
D12*
X173000000Y-102500000D03*
X173000000Y-97500000D03*
%TD*%
D14*
%TO.C,D5*%
X154125000Y-131600000D03*
D15*
X156665000Y-131600000D03*
%TD*%
D10*
%TO.C,C8*%
X164900000Y-82700000D03*
X164900000Y-67700000D03*
%TD*%
D15*
%TO.C,T1*%
X187000000Y-68825000D03*
X187000000Y-81825000D03*
X173000000Y-81825000D03*
X173000000Y-68825000D03*
%TD*%
D16*
%TO.C,J2*%
X233272500Y-127900000D03*
D17*
X233272500Y-125400000D03*
X233272500Y-123400000D03*
X233272500Y-120900000D03*
D18*
X235982500Y-131650000D03*
X235982500Y-117150000D03*
%TD*%
D19*
%TO.C,SW3*%
X114525000Y-68200000D03*
D20*
X111985000Y-68200000D03*
%TD*%
D21*
%TO.C,TP1*%
X161800000Y-132400000D03*
%TD*%
D10*
%TO.C,H3*%
X143000000Y-113000000D03*
%TD*%
D22*
%TO.C,C40*%
X153500000Y-125794888D03*
D23*
X153500000Y-128294888D03*
%TD*%
D21*
%TO.C,U7*%
X103450000Y-131560000D03*
X136550000Y-131540000D03*
X103450000Y-74060000D03*
X136550000Y-74060000D03*
D15*
X107250000Y-131500000D03*
X109790000Y-131500000D03*
X112330000Y-131500000D03*
X114870000Y-131500000D03*
X117410000Y-131500000D03*
X119950000Y-131500000D03*
X122490000Y-131500000D03*
X125030000Y-131500000D03*
X127570000Y-131500000D03*
X130110000Y-131500000D03*
X132650000Y-131500000D03*
%TD*%
D10*
%TO.C,H8*%
X149000000Y-94000000D03*
%TD*%
D24*
%TO.C,M1*%
X204500000Y-126900000D03*
D25*
X204500000Y-131700000D03*
%TD*%
D22*
%TO.C,C10*%
X216600000Y-94152651D03*
D23*
X216600000Y-90652651D03*
%TD*%
D26*
%TO.C,J5*%
X184050497Y-129445000D03*
X184050497Y-132745000D03*
X193750497Y-129445000D03*
X193750497Y-132745000D03*
%TD*%
D10*
%TO.C,C9*%
X154900000Y-67700000D03*
X154900000Y-82700000D03*
%TD*%
%TO.C,H7*%
X103000000Y-68000000D03*
%TD*%
D27*
%TO.C,JP2*%
X194000000Y-81350000D03*
X194000000Y-78810000D03*
%TD*%
D28*
%TO.C,D6*%
X102500000Y-107400000D03*
D29*
X102500000Y-102800000D03*
%TD*%
D10*
%TO.C,SW2*%
X148950000Y-129100000D03*
X141950000Y-129100000D03*
D30*
X147700000Y-131600000D03*
X143200000Y-131600000D03*
%TD*%
D31*
%TO.C,BT1*%
X197000000Y-104900000D03*
D30*
X197000000Y-100900000D03*
%TD*%
D10*
%TO.C,C11*%
X144900000Y-82700000D03*
X144900000Y-67700000D03*
%TD*%
D19*
%TO.C,J4*%
X176075000Y-130525000D03*
D20*
X176075000Y-133065000D03*
X173535000Y-130525000D03*
X173535000Y-133065000D03*
X170995000Y-130525000D03*
X170995000Y-133065000D03*
X168455000Y-130525000D03*
X168455000Y-133065000D03*
X165915000Y-130525000D03*
X165915000Y-133065000D03*
%TD*%
D32*
%TO.C,J3*%
X237995000Y-79000000D03*
D33*
X241920000Y-79000000D03*
D32*
X237995000Y-67800000D03*
D33*
X241920000Y-67800000D03*
%TD*%
D34*
%TO.C,D3*%
X132839950Y-68600000D03*
D35*
X137919950Y-68600000D03*
%TD*%
D22*
%TO.C,C42*%
X192000000Y-68325000D03*
D23*
X192000000Y-70825000D03*
%TD*%
D10*
%TO.C,H2*%
X220000000Y-122000000D03*
%TD*%
D36*
%TO.C,J1*%
X238965000Y-96625000D03*
X242265000Y-96625000D03*
X238965000Y-86925000D03*
X242265000Y-86925000D03*
%TD*%
D10*
%TO.C,H1*%
X222000000Y-70000000D03*
%TD*%
D12*
%TO.C,C24*%
X142000000Y-92500000D03*
X142000000Y-97500000D03*
%TD*%
D37*
%TO.C,LS1*%
X185500000Y-104900000D03*
D25*
X185500000Y-100100000D03*
%TD*%
D38*
%TO.C,D4*%
X102500000Y-92600000D03*
D29*
X102500000Y-97200000D03*
%TD*%
D10*
%TO.C,H6*%
X193000000Y-89000000D03*
%TD*%
%TO.C,H5*%
X240000000Y-111000000D03*
%TD*%
D39*
%TO.C,U4*%
X173750000Y-124950000D03*
X174250000Y-124950000D03*
X174750000Y-124950000D03*
X175250000Y-124950000D03*
X175250000Y-128050000D03*
X174750000Y-128050000D03*
X174250000Y-128050000D03*
X173750000Y-128050000D03*
%TD*%
D40*
%TO.C,R13*%
X111000000Y-75337500D03*
X111000000Y-78262500D03*
%TD*%
D41*
%TO.C,C3*%
X236550000Y-95325000D03*
X235000000Y-95325000D03*
%TD*%
D42*
%TO.C,C28*%
X167725000Y-109500000D03*
X169275000Y-109500000D03*
%TD*%
D43*
%TO.C,R15*%
X213487500Y-105500000D03*
X215312500Y-105500000D03*
%TD*%
D44*
%TO.C,R18*%
X195912500Y-68325000D03*
X194087500Y-68325000D03*
%TD*%
D45*
%TO.C,C35*%
X161200000Y-97725000D03*
X161200000Y-99275000D03*
%TD*%
D46*
%TO.C,R19*%
X236000000Y-112112500D03*
X236000000Y-110287500D03*
%TD*%
D47*
%TO.C,D1*%
X168000000Y-75200000D03*
X172000000Y-75200000D03*
%TD*%
D39*
%TO.C,U6*%
X167250000Y-124950000D03*
X167750000Y-124950000D03*
X168250000Y-124950000D03*
X168750000Y-124950000D03*
X168750000Y-128050000D03*
X168250000Y-128050000D03*
X167750000Y-128050000D03*
X167250000Y-128050000D03*
%TD*%
D48*
%TO.C,C5*%
X187000000Y-76100000D03*
X187000000Y-74550000D03*
%TD*%
D43*
%TO.C,R22*%
X150387500Y-131600000D03*
X152212500Y-131600000D03*
%TD*%
D49*
%TO.C,U9*%
X190300497Y-126100000D03*
X189800497Y-126100000D03*
X189300497Y-126100000D03*
X188800497Y-126100000D03*
X188300497Y-126100000D03*
X187800497Y-126100000D03*
X187300497Y-126100000D03*
D50*
X186350497Y-125150000D03*
X186350497Y-124650000D03*
X186350497Y-124150000D03*
X186350497Y-123650000D03*
X186350497Y-123150000D03*
X186350497Y-122650000D03*
X186350497Y-122150000D03*
D49*
X187300497Y-121200000D03*
X187800497Y-121200000D03*
X188300497Y-121200000D03*
X188800497Y-121200000D03*
X189300497Y-121200000D03*
X189800497Y-121200000D03*
X190300497Y-121200000D03*
D50*
X191250497Y-122150000D03*
X191250497Y-122650000D03*
X191250497Y-123150000D03*
X191250497Y-123650000D03*
X191250497Y-124150000D03*
X191250497Y-124650000D03*
X191250497Y-125150000D03*
D51*
X188800497Y-123650000D03*
%TD*%
D52*
%TO.C,C21*%
X204800000Y-116525000D03*
X204800000Y-119475000D03*
%TD*%
D45*
%TO.C,C4*%
X235190000Y-77625000D03*
X235190000Y-79175000D03*
%TD*%
D48*
%TO.C,C38*%
X145400000Y-132675000D03*
X145400000Y-131125000D03*
%TD*%
D27*
%TO.C,R9*%
X207800000Y-96940000D03*
D53*
X207800000Y-91860000D03*
%TD*%
D54*
%TO.C,C12*%
X218700000Y-93775000D03*
X218700000Y-90825000D03*
%TD*%
D48*
%TO.C,C37*%
X171100000Y-101475000D03*
X171100000Y-99925000D03*
%TD*%
D52*
%TO.C,C41*%
X196000000Y-70850000D03*
X196000000Y-73800000D03*
%TD*%
D48*
%TO.C,C6*%
X184490000Y-76100000D03*
X184490000Y-74550000D03*
%TD*%
D41*
%TO.C,C1*%
X184575497Y-125150000D03*
X183025497Y-125150000D03*
%TD*%
D55*
%TO.C,R12*%
X116462500Y-71500000D03*
X113537500Y-71500000D03*
%TD*%
D52*
%TO.C,C22*%
X209050000Y-116525000D03*
X209050000Y-119475000D03*
%TD*%
D56*
%TO.C,U8*%
X199850000Y-72625000D03*
X199850000Y-70325000D03*
D57*
X206150000Y-70325000D03*
D56*
X199850000Y-68025000D03*
%TD*%
D58*
%TO.C,Q9*%
X146250000Y-125937500D03*
X144350000Y-125937500D03*
X145300000Y-124062500D03*
%TD*%
D45*
%TO.C,C16*%
X204600000Y-93025000D03*
X204600000Y-94575000D03*
%TD*%
D42*
%TO.C,C32*%
X223725000Y-107700000D03*
X225275000Y-107700000D03*
%TD*%
D59*
%TO.C,V2*%
X113000000Y-79200000D03*
X128000000Y-92200000D03*
D60*
X120000000Y-104000000D03*
%TD*%
D41*
%TO.C,C26*%
X235975000Y-108600000D03*
X234425000Y-108600000D03*
%TD*%
D48*
%TO.C,C39*%
X202400000Y-130275000D03*
X202400000Y-128725000D03*
%TD*%
D44*
%TO.C,R31*%
X149912500Y-125000000D03*
X148087500Y-125000000D03*
%TD*%
D61*
%TO.C,Q6*%
X157550000Y-126162500D03*
X159450000Y-126162500D03*
X158500000Y-128037500D03*
%TD*%
D62*
%TO.C,D2*%
X160900000Y-71200000D03*
X160900000Y-75200000D03*
%TD*%
D46*
%TO.C,R30*%
X145400000Y-129612500D03*
X145400000Y-127787500D03*
%TD*%
D54*
%TO.C,C13*%
X214450000Y-93775000D03*
X214450000Y-90825000D03*
%TD*%
D45*
%TO.C,C2*%
X230500000Y-130025000D03*
X230500000Y-131575000D03*
%TD*%
D46*
%TO.C,R14*%
X126000000Y-98825000D03*
X126000000Y-97000000D03*
%TD*%
D48*
%TO.C,C36*%
X161100000Y-102475000D03*
X161100000Y-100925000D03*
%TD*%
D55*
%TO.C,R11*%
X121462500Y-71500000D03*
X118537500Y-71500000D03*
%TD*%
%TO.C,R10*%
X126462500Y-71500000D03*
X123537500Y-71500000D03*
%TD*%
M02*
