%TF.GenerationSoftware,KiCad,Pcbnew,7.0.9-7.0.9~ubuntu22.04.1*%
%TF.CreationDate,2023-11-25T10:37:05+03:00*%
%TF.ProjectId,xray-v2,78726179-2d76-4322-9e6b-696361645f70,rev?*%
%TF.SameCoordinates,Original*%
%TF.FileFunction,Soldermask,Top*%
%TF.FilePolarity,Negative*%
%FSLAX46Y46*%
G04 Gerber Fmt 4.6, Leading zero omitted, Abs format (unit mm)*
G04 Created by KiCad (PCBNEW 7.0.9-7.0.9~ubuntu22.04.1) date 2023-11-25 10:37:05*
%MOMM*%
%LPD*%
G01*
G04 APERTURE LIST*
G04 Aperture macros list*
%AMRoundRect*
0 Rectangle with rounded corners*
0 $1 Rounding radius*
0 $2 $3 $4 $5 $6 $7 $8 $9 X,Y pos of 4 corners*
0 Add a 4 corners polygon primitive as box body*
4,1,4,$2,$3,$4,$5,$6,$7,$8,$9,$2,$3,0*
0 Add four circle primitives for the rounded corners*
1,1,$1+$1,$2,$3*
1,1,$1+$1,$4,$5*
1,1,$1+$1,$6,$7*
1,1,$1+$1,$8,$9*
0 Add four rect primitives between the rounded corners*
20,1,$1+$1,$2,$3,$4,$5,0*
20,1,$1+$1,$4,$5,$6,$7,0*
20,1,$1+$1,$6,$7,$8,$9,0*
20,1,$1+$1,$8,$9,$2,$3,0*%
%AMFreePoly0*
4,1,6,1.000000,0.000000,0.500000,-0.750000,-0.500000,-0.750000,-0.500000,0.750000,0.500000,0.750000,1.000000,0.000000,1.000000,0.000000,$1*%
%AMFreePoly1*
4,1,6,0.500000,-0.750000,-0.650000,-0.750000,-0.150000,0.000000,-0.650000,0.750000,0.500000,0.750000,0.500000,-0.750000,0.500000,-0.750000,$1*%
G04 Aperture macros list end*
%ADD10R,0.700000X1.000000*%
%ADD11R,0.700000X0.600000*%
%ADD12RoundRect,0.250000X-0.650000X1.000000X-0.650000X-1.000000X0.650000X-1.000000X0.650000X1.000000X0*%
%ADD13RoundRect,0.225000X-0.225000X-0.375000X0.225000X-0.375000X0.225000X0.375000X-0.225000X0.375000X0*%
%ADD14RoundRect,0.125000X-0.125000X-0.125000X0.125000X-0.125000X0.125000X0.125000X-0.125000X0.125000X0*%
%ADD15RoundRect,0.150000X-0.587500X-0.150000X0.587500X-0.150000X0.587500X0.150000X-0.587500X0.150000X0*%
%ADD16RoundRect,0.250000X0.450000X-0.262500X0.450000X0.262500X-0.450000X0.262500X-0.450000X-0.262500X0*%
%ADD17RoundRect,0.952500X-0.952500X1.167500X-0.952500X-1.167500X0.952500X-1.167500X0.952500X1.167500X0*%
%ADD18RoundRect,0.225000X0.225000X0.250000X-0.225000X0.250000X-0.225000X-0.250000X0.225000X-0.250000X0*%
%ADD19C,2.200000*%
%ADD20RoundRect,0.150000X-0.150000X0.587500X-0.150000X-0.587500X0.150000X-0.587500X0.150000X0.587500X0*%
%ADD21RoundRect,0.225000X-0.250000X0.225000X-0.250000X-0.225000X0.250000X-0.225000X0.250000X0.225000X0*%
%ADD22R,2.000000X2.000000*%
%ADD23C,2.000000*%
%ADD24C,3.200000*%
%ADD25RoundRect,0.150000X0.587500X0.150000X-0.587500X0.150000X-0.587500X-0.150000X0.587500X-0.150000X0*%
%ADD26RoundRect,0.100000X0.712500X0.100000X-0.712500X0.100000X-0.712500X-0.100000X0.712500X-0.100000X0*%
%ADD27FreePoly0,90.000000*%
%ADD28FreePoly1,90.000000*%
%ADD29R,1.800000X1.800000*%
%ADD30C,1.800000*%
%ADD31RoundRect,1.025000X1.025000X1.025000X-1.025000X1.025000X-1.025000X-1.025000X1.025000X-1.025000X0*%
%ADD32RoundRect,0.250000X-0.450000X0.262500X-0.450000X-0.262500X0.450000X-0.262500X0.450000X0.262500X0*%
%ADD33R,1.524000X1.524000*%
%ADD34C,1.524000*%
%ADD35C,3.500000*%
%ADD36C,3.000000*%
%ADD37RoundRect,0.250000X-1.100000X0.325000X-1.100000X-0.325000X1.100000X-0.325000X1.100000X0.325000X0*%
%ADD38R,1.600000X1.600000*%
%ADD39C,1.600000*%
%ADD40R,1.000000X1.000000*%
%ADD41RoundRect,0.225000X0.250000X-0.225000X0.250000X0.225000X-0.250000X0.225000X-0.250000X-0.225000X0*%
%ADD42RoundRect,0.225000X-0.225000X-0.250000X0.225000X-0.250000X0.225000X0.250000X-0.225000X0.250000X0*%
%ADD43RoundRect,0.125000X0.125000X-0.125000X0.125000X0.125000X-0.125000X0.125000X-0.125000X-0.125000X0*%
%ADD44RoundRect,0.250001X-0.899999X0.899999X-0.899999X-0.899999X0.899999X-0.899999X0.899999X0.899999X0*%
%ADD45C,2.300000*%
%ADD46C,1.500000*%
%ADD47R,0.450000X1.050000*%
%ADD48O,1.400000X2.300000*%
%ADD49RoundRect,0.250000X1.075000X-0.375000X1.075000X0.375000X-1.075000X0.375000X-1.075000X-0.375000X0*%
%ADD50C,1.400000*%
%ADD51RoundRect,0.250001X0.799999X-0.799999X0.799999X0.799999X-0.799999X0.799999X-0.799999X-0.799999X0*%
%ADD52C,2.100000*%
%ADD53C,1.700000*%
%ADD54FreePoly0,270.000000*%
%ADD55FreePoly1,270.000000*%
%ADD56RoundRect,0.250000X0.600000X-0.600000X0.600000X0.600000X-0.600000X0.600000X-0.600000X-0.600000X0*%
%ADD57R,1.700000X1.700000*%
%ADD58O,1.700000X1.700000*%
%ADD59RoundRect,0.250000X0.312500X0.625000X-0.312500X0.625000X-0.312500X-0.625000X0.312500X-0.625000X0*%
%ADD60RoundRect,0.062500X-0.062500X0.350000X-0.062500X-0.350000X0.062500X-0.350000X0.062500X0.350000X0*%
%ADD61RoundRect,0.062500X-0.350000X0.062500X-0.350000X-0.062500X0.350000X-0.062500X0.350000X0.062500X0*%
%ADD62R,4.600000X4.600000*%
%ADD63R,1.160000X0.600000*%
%ADD64R,1.160000X0.300000*%
%ADD65O,2.000000X1.200000*%
%ADD66O,2.400000X1.000000*%
%ADD67RoundRect,0.150000X0.825000X0.150000X-0.825000X0.150000X-0.825000X-0.150000X0.825000X-0.150000X0*%
%ADD68R,1.600000X0.550000*%
%ADD69R,0.550000X1.600000*%
%ADD70R,0.250000X0.750000*%
%ADD71R,1.050000X0.450000*%
%ADD72O,2.300000X1.400000*%
%ADD73RoundRect,0.250000X-0.262500X-0.450000X0.262500X-0.450000X0.262500X0.450000X-0.262500X0.450000X0*%
%ADD74RoundRect,0.150000X0.150000X-0.825000X0.150000X0.825000X-0.150000X0.825000X-0.150000X-0.825000X0*%
%ADD75RoundRect,0.250001X0.899999X-0.899999X0.899999X0.899999X-0.899999X0.899999X-0.899999X-0.899999X0*%
%ADD76RoundRect,0.250001X-0.799999X0.799999X-0.799999X-0.799999X0.799999X-0.799999X0.799999X0.799999X0*%
%ADD77RoundRect,0.250000X0.262500X0.450000X-0.262500X0.450000X-0.262500X-0.450000X0.262500X-0.450000X0*%
%ADD78R,2.000000X4.500000*%
%ADD79O,1.400000X1.400000*%
%ADD80C,6.000000*%
%ADD81R,2.800000X2.800000*%
%ADD82O,2.800000X2.800000*%
G04 APERTURE END LIST*
D10*
%TO.C,D2*%
X189080000Y-119749000D03*
D11*
X189080000Y-121449000D03*
X191080000Y-121449000D03*
X191080000Y-119549000D03*
%TD*%
D12*
%TO.C,D1*%
X235700000Y-109600000D03*
X235700000Y-113600000D03*
%TD*%
D13*
%TO.C,D3*%
X182050000Y-125100000D03*
X185350000Y-125100000D03*
%TD*%
D14*
%TO.C,D10*%
X124700000Y-127000000D03*
X126900000Y-127000000D03*
%TD*%
D15*
%TO.C,Q6*%
X144542500Y-100137500D03*
X144542500Y-102037500D03*
X146417500Y-101087500D03*
%TD*%
D16*
%TO.C,R24*%
X194780000Y-112612500D03*
X194780000Y-110787500D03*
%TD*%
D17*
%TO.C,F1*%
X192180000Y-98540000D03*
X192180000Y-104950000D03*
%TD*%
D18*
%TO.C,C39*%
X189755000Y-114600000D03*
X188205000Y-114600000D03*
%TD*%
D19*
%TO.C,H4*%
X241000000Y-83000000D03*
%TD*%
D20*
%TO.C,Q14*%
X200730000Y-130662500D03*
X198830000Y-130662500D03*
X199780000Y-132537500D03*
%TD*%
D21*
%TO.C,C37*%
X149580000Y-111725000D03*
X149580000Y-113275000D03*
%TD*%
D16*
%TO.C,R31*%
X134580000Y-127112500D03*
X134580000Y-125287500D03*
%TD*%
D15*
%TO.C,Q13*%
X179480000Y-99600000D03*
X179480000Y-101500000D03*
X181355000Y-100550000D03*
%TD*%
D22*
%TO.C,SW3*%
X158480000Y-97500000D03*
D23*
X158480000Y-102500000D03*
X158480000Y-100000000D03*
D24*
X165980000Y-94400000D03*
X165980000Y-105600000D03*
D23*
X172980000Y-102500000D03*
X172980000Y-97500000D03*
%TD*%
D25*
%TO.C,Q9*%
X110967500Y-100462500D03*
X110967500Y-98562500D03*
X109092500Y-99512500D03*
%TD*%
D21*
%TO.C,C28*%
X221480000Y-113725000D03*
X221480000Y-115275000D03*
%TD*%
D26*
%TO.C,U8*%
X191092500Y-112775000D03*
X191092500Y-112125000D03*
X191092500Y-111475000D03*
X191092500Y-110825000D03*
X186867500Y-110825000D03*
X186867500Y-111475000D03*
X186867500Y-112125000D03*
X186867500Y-112775000D03*
%TD*%
D18*
%TO.C,C15*%
X193055000Y-124600000D03*
X191505000Y-124600000D03*
%TD*%
D27*
%TO.C,JP3*%
X175700000Y-127625000D03*
D28*
X175700000Y-126175000D03*
%TD*%
D29*
%TO.C,D14*%
X154105000Y-131600000D03*
D30*
X156645000Y-131600000D03*
%TD*%
D31*
%TO.C,L1*%
X206780000Y-112700000D03*
X206780000Y-103100000D03*
%TD*%
D16*
%TO.C,R25*%
X179800000Y-126812500D03*
X179800000Y-124987500D03*
%TD*%
D19*
%TO.C,C13*%
X171780000Y-82100000D03*
X171780000Y-67100000D03*
%TD*%
D30*
%TO.C,T1*%
X193280000Y-68925000D03*
X193280000Y-81925000D03*
X179280000Y-81925000D03*
X179280000Y-68925000D03*
%TD*%
D16*
%TO.C,R37*%
X176587500Y-101462500D03*
X176587500Y-99637500D03*
%TD*%
D32*
%TO.C,R29*%
X113280000Y-98687500D03*
X113280000Y-100512500D03*
%TD*%
D16*
%TO.C,R23*%
X196980000Y-112612500D03*
X196980000Y-110787500D03*
%TD*%
D33*
%TO.C,J3*%
X233252500Y-127900000D03*
D34*
X233252500Y-125400000D03*
X233252500Y-123400000D03*
X233252500Y-120900000D03*
D35*
X235962500Y-131650000D03*
X235962500Y-117150000D03*
%TD*%
D19*
%TO.C,C18*%
X163980000Y-67100000D03*
X163980000Y-82100000D03*
%TD*%
D36*
%TO.C,TP1*%
X161880000Y-132400000D03*
%TD*%
D19*
%TO.C,H3*%
X143000000Y-113000000D03*
%TD*%
D37*
%TO.C,C17*%
X215480000Y-112425000D03*
X215480000Y-115375000D03*
%TD*%
D38*
%TO.C,C44*%
X153480000Y-125794888D03*
D39*
X153480000Y-128294888D03*
%TD*%
D40*
%TO.C,TP3*%
X194380000Y-88600000D03*
%TD*%
D41*
%TO.C,C32*%
X174980000Y-117175000D03*
X174980000Y-115625000D03*
%TD*%
D42*
%TO.C,C31*%
X223705000Y-106100000D03*
X225255000Y-106100000D03*
%TD*%
D40*
%TO.C,TP6*%
X224380000Y-121200000D03*
%TD*%
D43*
%TO.C,D11*%
X122380000Y-127500000D03*
X122380000Y-125300000D03*
%TD*%
D16*
%TO.C,R3*%
X236180000Y-84412500D03*
X236180000Y-82587500D03*
%TD*%
D19*
%TO.C,H7*%
X149000000Y-94000000D03*
%TD*%
D16*
%TO.C,R2*%
X241005000Y-104692500D03*
X241005000Y-102867500D03*
%TD*%
D21*
%TO.C,C26*%
X218480000Y-113725000D03*
X218480000Y-115275000D03*
%TD*%
D16*
%TO.C,R20*%
X141980000Y-101912500D03*
X141980000Y-100087500D03*
%TD*%
D25*
%TO.C,Q10*%
X132217500Y-127150000D03*
X132217500Y-125250000D03*
X130342500Y-126200000D03*
%TD*%
D44*
%TO.C,M1*%
X204480000Y-126900000D03*
D45*
X204480000Y-131700000D03*
%TD*%
D38*
%TO.C,C11*%
X216580000Y-94152651D03*
D39*
X216580000Y-90652651D03*
%TD*%
D36*
%TO.C,U9*%
X102580000Y-131700000D03*
X137580000Y-131700000D03*
X102580000Y-69300000D03*
X137580000Y-69300000D03*
D46*
X109580000Y-132700000D03*
X112120000Y-132700000D03*
X114660000Y-132700000D03*
X117200000Y-132700000D03*
X119740000Y-132700000D03*
X122280000Y-132700000D03*
X124820000Y-132700000D03*
X127360000Y-132700000D03*
X129900000Y-132700000D03*
%TD*%
D47*
%TO.C,J1*%
X187580497Y-129225000D03*
X188230497Y-129225000D03*
X188880497Y-129225000D03*
X189530497Y-129225000D03*
X190180497Y-129225000D03*
D48*
X184030497Y-129450000D03*
X184030497Y-132750000D03*
X193730497Y-129450000D03*
X193730497Y-132750000D03*
%TD*%
D32*
%TO.C,R21*%
X146480000Y-104087500D03*
X146480000Y-105912500D03*
%TD*%
D49*
%TO.C,L2*%
X179280000Y-116700000D03*
X179280000Y-113900000D03*
%TD*%
D43*
%TO.C,D13*%
X117180000Y-127500000D03*
X117180000Y-125300000D03*
%TD*%
D15*
%TO.C,Q11*%
X157542500Y-126050000D03*
X157542500Y-127950000D03*
X159417500Y-127000000D03*
%TD*%
D42*
%TO.C,C34*%
X158905000Y-115100000D03*
X160455000Y-115100000D03*
%TD*%
D19*
%TO.C,C16*%
X155780000Y-67100000D03*
X155780000Y-82100000D03*
%TD*%
D40*
%TO.C,TP5*%
X199680000Y-112500000D03*
%TD*%
D50*
%TO.C,JP1*%
X200280000Y-81450000D03*
X200280000Y-78910000D03*
%TD*%
D51*
%TO.C,D9*%
X102480000Y-107400000D03*
D52*
X102480000Y-102800000D03*
%TD*%
D19*
%TO.C,SW2*%
X148930000Y-129100000D03*
X141930000Y-129100000D03*
D53*
X147680000Y-131600000D03*
X143180000Y-131600000D03*
%TD*%
D41*
%TO.C,C38*%
X149580000Y-120275000D03*
X149580000Y-118725000D03*
%TD*%
D54*
%TO.C,JP2*%
X195280000Y-122975000D03*
D55*
X195280000Y-124425000D03*
%TD*%
D56*
%TO.C,BT1*%
X196980000Y-104900000D03*
D53*
X196980000Y-100900000D03*
%TD*%
D43*
%TO.C,D12*%
X119780000Y-127500000D03*
X119780000Y-125300000D03*
%TD*%
D16*
%TO.C,R8*%
X204680000Y-94712500D03*
X204680000Y-92887500D03*
%TD*%
D19*
%TO.C,C20*%
X147380000Y-82100000D03*
X147380000Y-67100000D03*
%TD*%
D37*
%TO.C,C22*%
X209030000Y-116525000D03*
X209030000Y-119475000D03*
%TD*%
D57*
%TO.C,J5*%
X176055000Y-130525000D03*
D58*
X176055000Y-133065000D03*
X173515000Y-130525000D03*
X173515000Y-133065000D03*
X170975000Y-130525000D03*
X170975000Y-133065000D03*
X168435000Y-130525000D03*
X168435000Y-133065000D03*
X165895000Y-130525000D03*
X165895000Y-133065000D03*
%TD*%
D59*
%TO.C,R13*%
X221342500Y-111400000D03*
X218417500Y-111400000D03*
%TD*%
%TO.C,R32*%
X108942500Y-103250000D03*
X106017500Y-103250000D03*
%TD*%
D41*
%TO.C,C21*%
X215180000Y-103475000D03*
X215180000Y-101925000D03*
%TD*%
D60*
%TO.C,U3*%
X223330000Y-98262500D03*
X222830000Y-98262500D03*
X222330000Y-98262500D03*
X221830000Y-98262500D03*
X221330000Y-98262500D03*
X220830000Y-98262500D03*
X220330000Y-98262500D03*
X219830000Y-98262500D03*
X219330000Y-98262500D03*
X218830000Y-98262500D03*
D61*
X218142500Y-98950000D03*
X218142500Y-99450000D03*
X218142500Y-99950000D03*
X218142500Y-100450000D03*
X218142500Y-100950000D03*
X218142500Y-101450000D03*
X218142500Y-101950000D03*
X218142500Y-102450000D03*
X218142500Y-102950000D03*
X218142500Y-103450000D03*
D60*
X218830000Y-104137500D03*
X219330000Y-104137500D03*
X219830000Y-104137500D03*
X220330000Y-104137500D03*
X220830000Y-104137500D03*
X221330000Y-104137500D03*
X221830000Y-104137500D03*
X222330000Y-104137500D03*
X222830000Y-104137500D03*
X223330000Y-104137500D03*
D61*
X224017500Y-103450000D03*
X224017500Y-102950000D03*
X224017500Y-102450000D03*
X224017500Y-101950000D03*
X224017500Y-101450000D03*
X224017500Y-100950000D03*
X224017500Y-100450000D03*
X224017500Y-99950000D03*
X224017500Y-99450000D03*
X224017500Y-98950000D03*
D62*
X221080000Y-101200000D03*
%TD*%
D40*
%TO.C,TP2*%
X206300000Y-67900000D03*
%TD*%
D63*
%TO.C,J4*%
X237090000Y-76600000D03*
X237090000Y-75800000D03*
D64*
X237090000Y-74650000D03*
X237090000Y-73650000D03*
X237090000Y-73150000D03*
X237090000Y-72150000D03*
D63*
X237090000Y-71000000D03*
X237090000Y-70200000D03*
X237090000Y-70200000D03*
X237090000Y-71000000D03*
D64*
X237090000Y-71650000D03*
X237090000Y-72650000D03*
X237090000Y-74150000D03*
X237090000Y-75150000D03*
D63*
X237090000Y-75800000D03*
X237090000Y-76600000D03*
D65*
X237975000Y-79000000D03*
D66*
X241900000Y-79000000D03*
D65*
X237975000Y-67800000D03*
D66*
X241900000Y-67800000D03*
%TD*%
D67*
%TO.C,Q2*%
X226155000Y-131805000D03*
X226155000Y-130535000D03*
X226155000Y-129265000D03*
X226155000Y-127995000D03*
X221205000Y-127995000D03*
X221205000Y-129265000D03*
X221205000Y-130535000D03*
X221205000Y-131805000D03*
%TD*%
D38*
%TO.C,C6*%
X198280000Y-68425000D03*
D39*
X198280000Y-70925000D03*
%TD*%
D59*
%TO.C,R36*%
X182342500Y-104800000D03*
X179417500Y-104800000D03*
%TD*%
D15*
%TO.C,Q8*%
X144542500Y-125150000D03*
X144542500Y-127050000D03*
X146417500Y-126100000D03*
%TD*%
D68*
%TO.C,U4*%
X163530000Y-113950000D03*
X163530000Y-114750000D03*
X163530000Y-115550000D03*
X163530000Y-116350000D03*
X163530000Y-117150000D03*
X163530000Y-117950000D03*
X163530000Y-118750000D03*
X163530000Y-119550000D03*
D69*
X164980000Y-121000000D03*
X165780000Y-121000000D03*
X166580000Y-121000000D03*
X167380000Y-121000000D03*
X168180000Y-121000000D03*
X168980000Y-121000000D03*
X169780000Y-121000000D03*
X170580000Y-121000000D03*
D68*
X172030000Y-119550000D03*
X172030000Y-118750000D03*
X172030000Y-117950000D03*
X172030000Y-117150000D03*
X172030000Y-116350000D03*
X172030000Y-115550000D03*
X172030000Y-114750000D03*
X172030000Y-113950000D03*
D69*
X170580000Y-112500000D03*
X169780000Y-112500000D03*
X168980000Y-112500000D03*
X168180000Y-112500000D03*
X167380000Y-112500000D03*
X166580000Y-112500000D03*
X165780000Y-112500000D03*
X164980000Y-112500000D03*
%TD*%
D70*
%TO.C,U6*%
X172230000Y-124750000D03*
X171730000Y-124750000D03*
X171230000Y-124750000D03*
X170730000Y-124750000D03*
X170730000Y-127850000D03*
X171230000Y-127850000D03*
X171730000Y-127850000D03*
X172230000Y-127850000D03*
%TD*%
D19*
%TO.C,H2*%
X220000000Y-122000000D03*
%TD*%
D71*
%TO.C,J2*%
X238720000Y-93075000D03*
X238720000Y-92425000D03*
X238720000Y-91775000D03*
X238720000Y-91125000D03*
X238720000Y-90475000D03*
D72*
X238945000Y-96625000D03*
X242245000Y-96625000D03*
X238945000Y-86925000D03*
X242245000Y-86925000D03*
%TD*%
D73*
%TO.C,R38*%
X198967500Y-127270000D03*
X200792500Y-127270000D03*
%TD*%
%TO.C,R26*%
X182767500Y-113100000D03*
X184592500Y-113100000D03*
%TD*%
D19*
%TO.C,H1*%
X222000000Y-70000000D03*
%TD*%
D74*
%TO.C,Q4*%
X230375000Y-85675000D03*
X231645000Y-85675000D03*
X232915000Y-85675000D03*
X234185000Y-85675000D03*
X234185000Y-80725000D03*
X232915000Y-80725000D03*
X231645000Y-80725000D03*
X230375000Y-80725000D03*
%TD*%
D37*
%TO.C,C29*%
X224780000Y-111925000D03*
X224780000Y-114875000D03*
%TD*%
D23*
%TO.C,C33*%
X141980000Y-92500000D03*
X141980000Y-97500000D03*
%TD*%
D37*
%TO.C,C23*%
X204780000Y-116525000D03*
X204780000Y-119475000D03*
%TD*%
D41*
%TO.C,C35*%
X176780000Y-117175000D03*
X176780000Y-115625000D03*
%TD*%
D75*
%TO.C,LS1*%
X185480000Y-104900000D03*
D45*
X185480000Y-100100000D03*
%TD*%
D76*
%TO.C,D8*%
X102480000Y-92600000D03*
D52*
X102480000Y-97200000D03*
%TD*%
D32*
%TO.C,R19*%
X182180000Y-115687500D03*
X182180000Y-117512500D03*
%TD*%
D19*
%TO.C,H6*%
X204500000Y-88000000D03*
%TD*%
D59*
%TO.C,R30*%
X108942500Y-95750000D03*
X106017500Y-95750000D03*
%TD*%
D74*
%TO.C,Q3*%
X235275000Y-106000000D03*
X236545000Y-106000000D03*
X237815000Y-106000000D03*
X239085000Y-106000000D03*
X239085000Y-101050000D03*
X237815000Y-101050000D03*
X236545000Y-101050000D03*
X235275000Y-101050000D03*
%TD*%
D77*
%TO.C,R22*%
X168492500Y-108900000D03*
X166667500Y-108900000D03*
%TD*%
D78*
%TO.C,Y1*%
X154080000Y-120250000D03*
X154080000Y-111750000D03*
%TD*%
D19*
%TO.C,H5*%
X240000000Y-111000000D03*
%TD*%
D40*
%TO.C,TP4*%
X213680000Y-108100000D03*
%TD*%
D57*
%TO.C,SW1*%
X114180000Y-67875000D03*
D58*
X111640000Y-67875000D03*
%TD*%
D50*
%TO.C,R9*%
X207780000Y-96940000D03*
D79*
X207780000Y-91860000D03*
%TD*%
D46*
%TO.C,V1*%
X112980000Y-79200000D03*
X127980000Y-92200000D03*
D80*
X119980000Y-104000000D03*
%TD*%
D81*
%TO.C,D7*%
X141900000Y-69139950D03*
D82*
X141900000Y-74219950D03*
%TD*%
M02*
