%TF.GenerationSoftware,KiCad,Pcbnew,7.0.9-7.0.9~ubuntu22.04.1*%
%TF.CreationDate,2023-11-25T10:37:05+03:00*%
%TF.ProjectId,xray-v2,78726179-2d76-4322-9e6b-696361645f70,rev?*%
%TF.SameCoordinates,Original*%
%TF.FileFunction,Paste,Bot*%
%TF.FilePolarity,Positive*%
%FSLAX46Y46*%
G04 Gerber Fmt 4.6, Leading zero omitted, Abs format (unit mm)*
G04 Created by KiCad (PCBNEW 7.0.9-7.0.9~ubuntu22.04.1) date 2023-11-25 10:37:05*
%MOMM*%
%LPD*%
G01*
G04 APERTURE LIST*
G04 Aperture macros list*
%AMRoundRect*
0 Rectangle with rounded corners*
0 $1 Rounding radius*
0 $2 $3 $4 $5 $6 $7 $8 $9 X,Y pos of 4 corners*
0 Add a 4 corners polygon primitive as box body*
4,1,4,$2,$3,$4,$5,$6,$7,$8,$9,$2,$3,0*
0 Add four circle primitives for the rounded corners*
1,1,$1+$1,$2,$3*
1,1,$1+$1,$4,$5*
1,1,$1+$1,$6,$7*
1,1,$1+$1,$8,$9*
0 Add four rect primitives between the rounded corners*
20,1,$1+$1,$2,$3,$4,$5,0*
20,1,$1+$1,$4,$5,$6,$7,0*
20,1,$1+$1,$6,$7,$8,$9,0*
20,1,$1+$1,$8,$9,$2,$3,0*%
G04 Aperture macros list end*
%ADD10R,0.250000X0.750000*%
%ADD11RoundRect,0.250000X-0.625000X0.312500X-0.625000X-0.312500X0.625000X-0.312500X0.625000X0.312500X0*%
%ADD12RoundRect,0.225000X0.225000X0.250000X-0.225000X0.250000X-0.225000X-0.250000X0.225000X-0.250000X0*%
%ADD13RoundRect,0.225000X-0.225000X-0.250000X0.225000X-0.250000X0.225000X0.250000X-0.225000X0.250000X0*%
%ADD14RoundRect,0.250000X-0.262500X-0.450000X0.262500X-0.450000X0.262500X0.450000X-0.262500X0.450000X0*%
%ADD15RoundRect,0.250000X0.262500X0.450000X-0.262500X0.450000X-0.262500X-0.450000X0.262500X-0.450000X0*%
%ADD16RoundRect,0.225000X-0.250000X0.225000X-0.250000X-0.225000X0.250000X-0.225000X0.250000X0.225000X0*%
%ADD17RoundRect,0.250000X0.450000X-0.262500X0.450000X0.262500X-0.450000X0.262500X-0.450000X-0.262500X0*%
%ADD18RoundRect,0.250000X-1.000000X-0.650000X1.000000X-0.650000X1.000000X0.650000X-1.000000X0.650000X0*%
%ADD19RoundRect,0.250000X-0.325000X-1.100000X0.325000X-1.100000X0.325000X1.100000X-0.325000X1.100000X0*%
%ADD20RoundRect,0.225000X0.250000X-0.225000X0.250000X0.225000X-0.250000X0.225000X-0.250000X-0.225000X0*%
%ADD21RoundRect,0.225000X0.225000X-0.225000X0.225000X0.225000X-0.225000X0.225000X-0.225000X-0.225000X0*%
%ADD22RoundRect,0.062500X0.062500X-0.337500X0.062500X0.337500X-0.062500X0.337500X-0.062500X-0.337500X0*%
%ADD23RoundRect,0.062500X0.337500X-0.062500X0.337500X0.062500X-0.337500X0.062500X-0.337500X-0.062500X0*%
%ADD24RoundRect,0.250000X-1.100000X0.325000X-1.100000X-0.325000X1.100000X-0.325000X1.100000X0.325000X0*%
%ADD25RoundRect,0.250000X1.100000X-0.325000X1.100000X0.325000X-1.100000X0.325000X-1.100000X-0.325000X0*%
%ADD26RoundRect,0.250000X0.312500X0.625000X-0.312500X0.625000X-0.312500X-0.625000X0.312500X-0.625000X0*%
%ADD27RoundRect,0.150000X0.150000X-0.587500X0.150000X0.587500X-0.150000X0.587500X-0.150000X-0.587500X0*%
%ADD28RoundRect,0.150000X-0.150000X0.587500X-0.150000X-0.587500X0.150000X-0.587500X0.150000X0.587500X0*%
%ADD29RoundRect,0.150000X-0.512500X-0.150000X0.512500X-0.150000X0.512500X0.150000X-0.512500X0.150000X0*%
G04 APERTURE END LIST*
D10*
%TO.C,U5*%
X173730000Y-124950000D03*
X174230000Y-124950000D03*
X174730000Y-124950000D03*
X175230000Y-124950000D03*
X175230000Y-128050000D03*
X174730000Y-128050000D03*
X174230000Y-128050000D03*
X173730000Y-128050000D03*
%TD*%
D11*
%TO.C,R17*%
X110980000Y-75337500D03*
X110980000Y-78262500D03*
%TD*%
D12*
%TO.C,C2*%
X236530000Y-95325000D03*
X234980000Y-95325000D03*
%TD*%
D13*
%TO.C,C36*%
X167705000Y-109500000D03*
X169255000Y-109500000D03*
%TD*%
D14*
%TO.C,R11*%
X213467500Y-105500000D03*
X215292500Y-105500000D03*
%TD*%
D15*
%TO.C,R4*%
X202192500Y-68425000D03*
X200367500Y-68425000D03*
%TD*%
D16*
%TO.C,C41*%
X161180000Y-97725000D03*
X161180000Y-99275000D03*
%TD*%
D14*
%TO.C,R7*%
X182867500Y-119400000D03*
X184692500Y-119400000D03*
%TD*%
D15*
%TO.C,R1*%
X213592500Y-77900000D03*
X211767500Y-77900000D03*
%TD*%
D17*
%TO.C,R16*%
X235980000Y-112112500D03*
X235980000Y-110287500D03*
%TD*%
D18*
%TO.C,D6*%
X154780000Y-75100000D03*
X158780000Y-75100000D03*
%TD*%
D19*
%TO.C,C3*%
X211305000Y-70900000D03*
X214255000Y-70900000D03*
%TD*%
D10*
%TO.C,U7*%
X167230000Y-124950000D03*
X167730000Y-124950000D03*
X168230000Y-124950000D03*
X168730000Y-124950000D03*
X168730000Y-128050000D03*
X168230000Y-128050000D03*
X167730000Y-128050000D03*
X167230000Y-128050000D03*
%TD*%
D20*
%TO.C,C7*%
X193280000Y-76200000D03*
X193280000Y-74650000D03*
%TD*%
D14*
%TO.C,R39*%
X150367500Y-131600000D03*
X152192500Y-131600000D03*
%TD*%
D21*
%TO.C,U2*%
X187860000Y-120920000D03*
X188980000Y-120920000D03*
X190100000Y-120920000D03*
X187860000Y-119800000D03*
X188980000Y-119800000D03*
X190100000Y-119800000D03*
X187860000Y-118680000D03*
X188980000Y-118680000D03*
X190100000Y-118680000D03*
D22*
X190480000Y-122250000D03*
X189980000Y-122250000D03*
X189480000Y-122250000D03*
X188980000Y-122250000D03*
X188480000Y-122250000D03*
X187980000Y-122250000D03*
X187480000Y-122250000D03*
D23*
X186530000Y-121300000D03*
X186530000Y-120800000D03*
X186530000Y-120300000D03*
X186530000Y-119800000D03*
X186530000Y-119300000D03*
X186530000Y-118800000D03*
X186530000Y-118300000D03*
D22*
X187480000Y-117350000D03*
X187980000Y-117350000D03*
X188480000Y-117350000D03*
X188980000Y-117350000D03*
X189480000Y-117350000D03*
X189980000Y-117350000D03*
X190480000Y-117350000D03*
D23*
X191430000Y-118300000D03*
X191430000Y-118800000D03*
X191430000Y-119300000D03*
X191430000Y-119800000D03*
X191430000Y-120300000D03*
X191430000Y-120800000D03*
X191430000Y-121300000D03*
%TD*%
D24*
%TO.C,C24*%
X204780000Y-116525000D03*
X204780000Y-119475000D03*
%TD*%
D14*
%TO.C,R6*%
X185567500Y-123900000D03*
X187392500Y-123900000D03*
%TD*%
D16*
%TO.C,C4*%
X235170000Y-77625000D03*
X235170000Y-79175000D03*
%TD*%
D20*
%TO.C,C40*%
X145380000Y-132675000D03*
X145380000Y-131125000D03*
%TD*%
D17*
%TO.C,R35*%
X124780000Y-130712500D03*
X124780000Y-128887500D03*
%TD*%
%TO.C,R33*%
X119780000Y-130712500D03*
X119780000Y-128887500D03*
%TD*%
D25*
%TO.C,C12*%
X218680000Y-93775000D03*
X218680000Y-90825000D03*
%TD*%
D20*
%TO.C,C43*%
X171080000Y-101475000D03*
X171080000Y-99925000D03*
%TD*%
D24*
%TO.C,C5*%
X202280000Y-70950000D03*
X202280000Y-73900000D03*
%TD*%
D20*
%TO.C,C9*%
X190770000Y-76200000D03*
X190770000Y-74650000D03*
%TD*%
D12*
%TO.C,C8*%
X185655000Y-127100000D03*
X184105000Y-127100000D03*
%TD*%
D26*
%TO.C,R15*%
X116442500Y-71500000D03*
X113517500Y-71500000D03*
%TD*%
D24*
%TO.C,C25*%
X209030000Y-116525000D03*
X209030000Y-119475000D03*
%TD*%
D27*
%TO.C,Q1*%
X213530000Y-75737500D03*
X211630000Y-75737500D03*
X212580000Y-73862500D03*
%TD*%
%TO.C,Q7*%
X146230000Y-125937500D03*
X144330000Y-125937500D03*
X145280000Y-124062500D03*
%TD*%
D16*
%TO.C,C19*%
X204580000Y-93025000D03*
X204580000Y-94575000D03*
%TD*%
D13*
%TO.C,C30*%
X223705000Y-107700000D03*
X225255000Y-107700000D03*
%TD*%
D12*
%TO.C,C10*%
X187355000Y-125600000D03*
X185805000Y-125600000D03*
%TD*%
%TO.C,C27*%
X235955000Y-108600000D03*
X234405000Y-108600000D03*
%TD*%
D17*
%TO.C,R34*%
X122280000Y-130712500D03*
X122280000Y-128887500D03*
%TD*%
D18*
%TO.C,D5*%
X163680000Y-75200000D03*
X167680000Y-75200000D03*
%TD*%
D20*
%TO.C,C45*%
X202380000Y-130275000D03*
X202380000Y-128725000D03*
%TD*%
D27*
%TO.C,Q5*%
X194330000Y-87337500D03*
X192430000Y-87337500D03*
X193380000Y-85462500D03*
%TD*%
D14*
%TO.C,R10*%
X120467500Y-67300000D03*
X122292500Y-67300000D03*
%TD*%
D15*
%TO.C,R28*%
X149892500Y-125000000D03*
X148067500Y-125000000D03*
%TD*%
D28*
%TO.C,Q12*%
X157530000Y-126162500D03*
X159430000Y-126162500D03*
X158480000Y-128037500D03*
%TD*%
D18*
%TO.C,D4*%
X171880000Y-75200000D03*
X175880000Y-75200000D03*
%TD*%
D17*
%TO.C,R27*%
X145380000Y-129612500D03*
X145380000Y-127787500D03*
%TD*%
D14*
%TO.C,R5*%
X192492500Y-90210000D03*
X194317500Y-90210000D03*
%TD*%
D25*
%TO.C,C14*%
X214430000Y-93775000D03*
X214430000Y-90825000D03*
%TD*%
D16*
%TO.C,C1*%
X230480000Y-130025000D03*
X230480000Y-131575000D03*
%TD*%
D17*
%TO.C,R18*%
X125980000Y-98825000D03*
X125980000Y-97000000D03*
%TD*%
D20*
%TO.C,C42*%
X161080000Y-102475000D03*
X161080000Y-100925000D03*
%TD*%
D26*
%TO.C,R14*%
X121442500Y-71500000D03*
X118517500Y-71500000D03*
%TD*%
%TO.C,R12*%
X126442500Y-71500000D03*
X123517500Y-71500000D03*
%TD*%
D29*
%TO.C,U1*%
X207042500Y-71850000D03*
X207042500Y-69950000D03*
X209317500Y-70900000D03*
%TD*%
M02*
