%TF.GenerationSoftware,KiCad,Pcbnew,7.0.9-7.0.9~ubuntu22.04.1*%
%TF.CreationDate,2023-11-25T10:37:05+03:00*%
%TF.ProjectId,xray-v2,78726179-2d76-4322-9e6b-696361645f70,rev?*%
%TF.SameCoordinates,Original*%
%TF.FileFunction,Copper,L3,Inr*%
%TF.FilePolarity,Positive*%
%FSLAX46Y46*%
G04 Gerber Fmt 4.6, Leading zero omitted, Abs format (unit mm)*
G04 Created by KiCad (PCBNEW 7.0.9-7.0.9~ubuntu22.04.1) date 2023-11-25 10:37:05*
%MOMM*%
%LPD*%
G01*
G04 APERTURE LIST*
G04 Aperture macros list*
%AMRoundRect*
0 Rectangle with rounded corners*
0 $1 Rounding radius*
0 $2 $3 $4 $5 $6 $7 $8 $9 X,Y pos of 4 corners*
0 Add a 4 corners polygon primitive as box body*
4,1,4,$2,$3,$4,$5,$6,$7,$8,$9,$2,$3,0*
0 Add four circle primitives for the rounded corners*
1,1,$1+$1,$2,$3*
1,1,$1+$1,$4,$5*
1,1,$1+$1,$6,$7*
1,1,$1+$1,$8,$9*
0 Add four rect primitives between the rounded corners*
20,1,$1+$1,$2,$3,$4,$5,0*
20,1,$1+$1,$4,$5,$6,$7,0*
20,1,$1+$1,$6,$7,$8,$9,0*
20,1,$1+$1,$8,$9,$2,$3,0*%
G04 Aperture macros list end*
%TA.AperFunction,ComponentPad*%
%ADD10R,2.000000X2.000000*%
%TD*%
%TA.AperFunction,ComponentPad*%
%ADD11C,2.000000*%
%TD*%
%TA.AperFunction,ComponentPad*%
%ADD12C,3.200000*%
%TD*%
%TA.AperFunction,ComponentPad*%
%ADD13R,1.800000X1.800000*%
%TD*%
%TA.AperFunction,ComponentPad*%
%ADD14C,1.800000*%
%TD*%
%TA.AperFunction,ComponentPad*%
%ADD15C,2.200000*%
%TD*%
%TA.AperFunction,ComponentPad*%
%ADD16R,1.524000X1.524000*%
%TD*%
%TA.AperFunction,ComponentPad*%
%ADD17C,1.524000*%
%TD*%
%TA.AperFunction,ComponentPad*%
%ADD18C,3.500000*%
%TD*%
%TA.AperFunction,ComponentPad*%
%ADD19C,3.000000*%
%TD*%
%TA.AperFunction,ComponentPad*%
%ADD20R,1.600000X1.600000*%
%TD*%
%TA.AperFunction,ComponentPad*%
%ADD21C,1.600000*%
%TD*%
%TA.AperFunction,ComponentPad*%
%ADD22RoundRect,0.250001X-0.899999X0.899999X-0.899999X-0.899999X0.899999X-0.899999X0.899999X0.899999X0*%
%TD*%
%TA.AperFunction,ComponentPad*%
%ADD23C,2.300000*%
%TD*%
%TA.AperFunction,ComponentPad*%
%ADD24C,1.500000*%
%TD*%
%TA.AperFunction,ComponentPad*%
%ADD25O,1.400000X2.300000*%
%TD*%
%TA.AperFunction,ComponentPad*%
%ADD26C,1.400000*%
%TD*%
%TA.AperFunction,ComponentPad*%
%ADD27RoundRect,0.250001X0.799999X-0.799999X0.799999X0.799999X-0.799999X0.799999X-0.799999X-0.799999X0*%
%TD*%
%TA.AperFunction,ComponentPad*%
%ADD28C,2.100000*%
%TD*%
%TA.AperFunction,ComponentPad*%
%ADD29C,1.700000*%
%TD*%
%TA.AperFunction,ComponentPad*%
%ADD30RoundRect,0.250000X0.600000X-0.600000X0.600000X0.600000X-0.600000X0.600000X-0.600000X-0.600000X0*%
%TD*%
%TA.AperFunction,ComponentPad*%
%ADD31R,1.700000X1.700000*%
%TD*%
%TA.AperFunction,ComponentPad*%
%ADD32O,1.700000X1.700000*%
%TD*%
%TA.AperFunction,ComponentPad*%
%ADD33C,0.500000*%
%TD*%
%TA.AperFunction,ComponentPad*%
%ADD34O,2.000000X1.200000*%
%TD*%
%TA.AperFunction,ComponentPad*%
%ADD35O,2.400000X1.000000*%
%TD*%
%TA.AperFunction,ComponentPad*%
%ADD36O,2.300000X1.400000*%
%TD*%
%TA.AperFunction,ComponentPad*%
%ADD37RoundRect,0.250001X0.899999X-0.899999X0.899999X0.899999X-0.899999X0.899999X-0.899999X-0.899999X0*%
%TD*%
%TA.AperFunction,ComponentPad*%
%ADD38RoundRect,0.250001X-0.799999X0.799999X-0.799999X-0.799999X0.799999X-0.799999X0.799999X0.799999X0*%
%TD*%
%TA.AperFunction,ComponentPad*%
%ADD39O,1.400000X1.400000*%
%TD*%
%TA.AperFunction,ComponentPad*%
%ADD40C,6.000000*%
%TD*%
%TA.AperFunction,ComponentPad*%
%ADD41R,2.800000X2.800000*%
%TD*%
%TA.AperFunction,ComponentPad*%
%ADD42O,2.800000X2.800000*%
%TD*%
%TA.AperFunction,ViaPad*%
%ADD43C,0.800000*%
%TD*%
%TA.AperFunction,Conductor*%
%ADD44C,1.000000*%
%TD*%
%TA.AperFunction,Conductor*%
%ADD45C,0.200000*%
%TD*%
%TA.AperFunction,Conductor*%
%ADD46C,1.500000*%
%TD*%
%TA.AperFunction,Conductor*%
%ADD47C,0.500000*%
%TD*%
%TA.AperFunction,Conductor*%
%ADD48C,0.250000*%
%TD*%
G04 APERTURE END LIST*
D10*
%TO.N,ENCODER_A*%
%TO.C,SW3*%
X158480000Y-97500000D03*
D11*
%TO.N,ENCODER_B*%
X158480000Y-102500000D03*
%TO.N,GND*%
X158480000Y-100000000D03*
D12*
%TO.N,N/C*%
X165980000Y-94400000D03*
X165980000Y-105600000D03*
D11*
%TO.N,ENCODER_CLICK*%
X172980000Y-102500000D03*
%TO.N,GND*%
X172980000Y-97500000D03*
%TD*%
D13*
%TO.N,Net-(D14-K)*%
%TO.C,D14*%
X154105000Y-131600000D03*
D14*
%TO.N,Net-(D14-A)*%
X156645000Y-131600000D03*
%TD*%
D15*
%TO.N,Net-(D4-K)*%
%TO.C,C13*%
X171780000Y-82100000D03*
%TO.N,Net-(T1-SB)*%
X171780000Y-67100000D03*
%TD*%
D14*
%TO.N,Net-(T1-AA)*%
%TO.C,T1*%
X193280000Y-68925000D03*
%TO.N,Net-(Q5-D)*%
X193280000Y-81925000D03*
%TO.N,GND*%
X179280000Y-81925000D03*
%TO.N,Net-(T1-SB)*%
X179280000Y-68925000D03*
%TD*%
D16*
%TO.N,USB_OUT_VBUS*%
%TO.C,J3*%
X233252500Y-127900000D03*
D17*
%TO.N,USB_OUT_D-*%
X233252500Y-125400000D03*
%TO.N,USB_OUT_D+*%
X233252500Y-123400000D03*
%TO.N,GND*%
X233252500Y-120900000D03*
D18*
X235962500Y-131650000D03*
X235962500Y-117150000D03*
%TD*%
D15*
%TO.N,Net-(T1-SB)*%
%TO.C,C18*%
X163980000Y-67100000D03*
%TO.N,Net-(D6-K)*%
X163980000Y-82100000D03*
%TD*%
D19*
%TO.N,GND*%
%TO.C,TP1*%
X161880000Y-132400000D03*
%TD*%
D20*
%TO.N,Net-(Q11-G)*%
%TO.C,C44*%
X153480000Y-125794888D03*
D21*
%TO.N,GND*%
X153480000Y-128294888D03*
%TD*%
D22*
%TO.N,VCC*%
%TO.C,M1*%
X204480000Y-126900000D03*
D23*
%TO.N,Net-(M1--)*%
X204480000Y-131700000D03*
%TD*%
D20*
%TO.N,USB_VSYS*%
%TO.C,C11*%
X216580000Y-94152651D03*
D21*
%TO.N,GND*%
X216580000Y-90652651D03*
%TD*%
D24*
%TO.N,/DISPLAY_VCC*%
%TO.C,U9*%
X109580000Y-132700000D03*
%TO.N,GND*%
X112120000Y-132700000D03*
X114660000Y-132700000D03*
%TO.N,Net-(D13-K)*%
X117200000Y-132700000D03*
%TO.N,Net-(D12-K)*%
X119740000Y-132700000D03*
%TO.N,Net-(D11-K)*%
X122280000Y-132700000D03*
%TO.N,Net-(D10-K)*%
X124820000Y-132700000D03*
%TO.N,/DISPLAY_VCC*%
X127360000Y-132700000D03*
%TO.N,unconnected-(U9-MISO-Pad9)*%
X129900000Y-132700000D03*
%TD*%
D25*
%TO.N,GND*%
%TO.C,J1*%
X184030497Y-129450000D03*
X184030497Y-132750000D03*
X193730497Y-129450000D03*
X193730497Y-132750000D03*
%TD*%
D15*
%TO.N,GND*%
%TO.C,C16*%
X155780000Y-67100000D03*
%TO.N,Net-(D5-K)*%
X155780000Y-82100000D03*
%TD*%
D26*
%TO.N,UV_ENABLE#*%
%TO.C,JP1*%
X200280000Y-81450000D03*
%TO.N,Net-(JP1-B)*%
X200280000Y-78910000D03*
%TD*%
D27*
%TO.N,Net-(D9-K)*%
%TO.C,D9*%
X102480000Y-107400000D03*
D28*
%TO.N,VCC*%
X102480000Y-102800000D03*
%TD*%
D15*
%TO.N,*%
%TO.C,SW2*%
X148930000Y-129100000D03*
X141930000Y-129100000D03*
D29*
%TO.N,WAKEUP_BUTTON*%
X147680000Y-131600000D03*
%TO.N,GND*%
X143180000Y-131600000D03*
%TD*%
D30*
%TO.N,Net-(BT1-+)*%
%TO.C,BT1*%
X196980000Y-104900000D03*
D29*
%TO.N,GND*%
X196980000Y-100900000D03*
%TD*%
D15*
%TO.N,GND*%
%TO.C,C20*%
X147380000Y-82100000D03*
%TO.N,Net-(D7-K)*%
X147380000Y-67100000D03*
%TD*%
D31*
%TO.N,Net-(J5-Pin_1)*%
%TO.C,J5*%
X176055000Y-130525000D03*
D32*
%TO.N,+5V*%
X176055000Y-133065000D03*
%TO.N,unconnected-(J5-Pin_3-Pad3)*%
X173515000Y-130525000D03*
%TO.N,RXD_V*%
X173515000Y-133065000D03*
%TO.N,RESET_V*%
X170975000Y-130525000D03*
%TO.N,TXD_V*%
X170975000Y-133065000D03*
%TO.N,Net-(J5-Pin_7)*%
X168435000Y-130525000D03*
%TO.N,GND*%
X168435000Y-133065000D03*
%TO.N,Net-(J5-Pin_9)*%
X165895000Y-130525000D03*
%TO.N,GND*%
X165895000Y-133065000D03*
%TD*%
D33*
%TO.N,GND*%
%TO.C,U3*%
X223130000Y-99150000D03*
X222105000Y-99150000D03*
X221080000Y-99150000D03*
X220055000Y-99150000D03*
X219030000Y-99150000D03*
X223130000Y-100175000D03*
X222105000Y-100175000D03*
X221080000Y-100175000D03*
X220055000Y-100175000D03*
X219030000Y-100175000D03*
X223130000Y-101200000D03*
X222105000Y-101200000D03*
X221080000Y-101200000D03*
X220055000Y-101200000D03*
X219030000Y-101200000D03*
X223130000Y-102225000D03*
X222105000Y-102225000D03*
X221080000Y-102225000D03*
X220055000Y-102225000D03*
X219030000Y-102225000D03*
X223130000Y-103250000D03*
X222105000Y-103250000D03*
X221080000Y-103250000D03*
X220055000Y-103250000D03*
X219030000Y-103250000D03*
%TD*%
D34*
%TO.N,GND*%
%TO.C,J4*%
X237975000Y-79000000D03*
D35*
X241900000Y-79000000D03*
D34*
X237975000Y-67800000D03*
D35*
X241900000Y-67800000D03*
%TD*%
D20*
%TO.N,Net-(T1-AA)*%
%TO.C,C6*%
X198280000Y-68425000D03*
D21*
%TO.N,GND*%
X198280000Y-70925000D03*
%TD*%
D36*
%TO.N,GND*%
%TO.C,J2*%
X238945000Y-96625000D03*
X242245000Y-96625000D03*
X238945000Y-86925000D03*
X242245000Y-86925000D03*
%TD*%
D11*
%TO.N,Net-(V1-C)*%
%TO.C,C33*%
X141980000Y-92500000D03*
%TO.N,Net-(Q6-B)*%
X141980000Y-97500000D03*
%TD*%
D37*
%TO.N,Net-(LS1-Pad1)*%
%TO.C,LS1*%
X185480000Y-104900000D03*
D23*
%TO.N,Net-(Q13-D)*%
X185480000Y-100100000D03*
%TD*%
D38*
%TO.N,Net-(D8-K)*%
%TO.C,D8*%
X102480000Y-92600000D03*
D28*
%TO.N,VCC*%
X102480000Y-97200000D03*
%TD*%
D31*
%TO.N,Net-(R10-Pad1)*%
%TO.C,SW1*%
X114180000Y-67875000D03*
D32*
%TO.N,GND*%
X111640000Y-67875000D03*
%TD*%
D26*
%TO.N,Net-(U3-NTC)*%
%TO.C,R9*%
X207780000Y-96940000D03*
D39*
%TO.N,GND*%
X207780000Y-91860000D03*
%TD*%
D24*
%TO.N,Net-(V1-A)*%
%TO.C,V1*%
X112980000Y-79200000D03*
%TO.N,Net-(V1-C)*%
X127980000Y-92200000D03*
D40*
%TO.N,GND*%
X119980000Y-104000000D03*
%TD*%
D41*
%TO.N,Net-(D7-K)*%
%TO.C,D7*%
X141900000Y-69139950D03*
D42*
%TO.N,Net-(D6-K)*%
X141900000Y-74219950D03*
%TD*%
D43*
%TO.N,FLUSH_VBUS*%
X186780000Y-127700000D03*
X236100000Y-114300000D03*
X235200000Y-114300000D03*
%TO.N,GND*%
X205380000Y-119500000D03*
X209680000Y-119500000D03*
X208380000Y-119500000D03*
X221480000Y-115400000D03*
X170730000Y-126500000D03*
X190980000Y-114400000D03*
X218480000Y-115400000D03*
X215480000Y-115300000D03*
X204080000Y-119500000D03*
X198980000Y-128900000D03*
X224780000Y-114900000D03*
X225280000Y-106100000D03*
X161980000Y-116250000D03*
X149580000Y-116000000D03*
X169730000Y-115250000D03*
X182180000Y-117512500D03*
%TO.N,USB_OUT_VBUS*%
X226180000Y-100400000D03*
%TO.N,USB_M_IN_VBUS*%
X236580000Y-101000000D03*
X230325500Y-104400000D03*
X236480000Y-95325000D03*
%TO.N,USB_IN_VBUS*%
X235370000Y-76400000D03*
X235370000Y-71000000D03*
%TO.N,USB_VSYS*%
X215580000Y-112500000D03*
X216480000Y-112500000D03*
X214680000Y-112500000D03*
%TO.N,VCC*%
X192980000Y-99500000D03*
X167230000Y-126000000D03*
X191380000Y-99500000D03*
X203980000Y-116500000D03*
X205480000Y-116600000D03*
X206780000Y-111600000D03*
X205580000Y-111600000D03*
X166680000Y-108900000D03*
X191280000Y-97500000D03*
X211767500Y-77900000D03*
X208280000Y-116500000D03*
X147780000Y-107700000D03*
X207880000Y-111600000D03*
X192980000Y-97500000D03*
X172230000Y-126000000D03*
X209680000Y-116500000D03*
X173730000Y-126000000D03*
X140980000Y-120200000D03*
X223705000Y-106100000D03*
%TO.N,USB_OUT_VOUT2*%
X227902535Y-101322535D03*
%TO.N,RESET*%
X167480000Y-110750000D03*
X173100000Y-123399500D03*
X160980000Y-127000000D03*
%TO.N,VREG*%
X223680000Y-107700000D03*
X195880000Y-112700000D03*
%TO.N,ENCODER_CLICK*%
X167380000Y-119100000D03*
%TO.N,CP2102_VREG*%
X187480000Y-123900000D03*
%TO.N,USB_M_IN_D-*%
X222479488Y-93294596D03*
X234780000Y-92700000D03*
%TO.N,USB_M_IN_D+*%
X221480000Y-93300000D03*
X234780000Y-91700497D03*
%TO.N,USB_OUT_D-*%
X227580000Y-100000000D03*
%TO.N,USB_OUT_D+*%
X228380000Y-99400000D03*
%TO.N,USB_IN_D+*%
X233580000Y-73900000D03*
X232580000Y-72100000D03*
%TO.N,USB_IN_CC2*%
X228980000Y-74900000D03*
X231780000Y-71100000D03*
%TO.N,+5V*%
X167230000Y-127000000D03*
X173730000Y-127000000D03*
%TO.N,FLUSH_D-*%
X188080000Y-127700000D03*
%TO.N,FLUSH_D+*%
X189080000Y-127700000D03*
%TO.N,Net-(JP1-B)*%
X213530000Y-75737500D03*
%TO.N,UV_ENABLE#*%
X174703624Y-108675000D03*
%TO.N,Net-(JP2-A)*%
X195280000Y-122975000D03*
%TO.N,USB_OUT_VBUS_G*%
X225380000Y-101200000D03*
X226080000Y-126600000D03*
%TO.N,USB_M_IN_VBUS_G*%
X239980000Y-105800000D03*
X229380000Y-103700500D03*
%TO.N,UV_PWM*%
X169380000Y-118200000D03*
X194380000Y-88600000D03*
%TO.N,USB_IN_VBUS_G*%
X235280000Y-85400000D03*
X229080000Y-90300000D03*
%TO.N,RADIATION_VALUE*%
X146380000Y-102600000D03*
X161180000Y-107600000D03*
%TO.N,SPEAKER*%
X177980000Y-99600000D03*
X162479312Y-110100688D03*
%TO.N,VIBRO*%
X200780000Y-128900000D03*
X174029062Y-113749562D03*
%TO.N,USB_I2C_SDA*%
X194880000Y-110800000D03*
X198374622Y-110394622D03*
%TO.N,USB_INT*%
X168280000Y-117600000D03*
X182180000Y-115700000D03*
%TO.N,MCU_I2C_SDA*%
X184980000Y-110500000D03*
X173080000Y-109300000D03*
%TO.N,MCU_I2C_SCL*%
X184273245Y-111206755D03*
X171780000Y-109200000D03*
%TO.N,MOSI*%
X173400000Y-121300000D03*
X170230000Y-119250000D03*
%TO.N,MISO*%
X167580000Y-123600000D03*
%TO.N,TFT_DC*%
X119780000Y-125300000D03*
X169227180Y-114227820D03*
%TO.N,RXD*%
X166479500Y-114550500D03*
X174700000Y-123300000D03*
%TO.N,TXD*%
X164929301Y-114302872D03*
X168730000Y-123750000D03*
%TO.N,RXD_V*%
X193080000Y-120800000D03*
%TO.N,TXD_V*%
X194280000Y-120600000D03*
%TO.N,Net-(U1-VO)*%
X206300000Y-67900000D03*
%TO.N,Net-(D6-K)*%
X153980000Y-75100000D03*
X155380000Y-75100000D03*
%TO.N,Net-(U3-RSET)*%
X215292500Y-105500000D03*
%TO.N,/DISPLAY_VCC*%
X130342500Y-126200000D03*
X117180000Y-125300000D03*
%TO.N,RESET_V*%
X179800000Y-126812500D03*
X191505000Y-124600000D03*
%TD*%
D44*
%TO.N,FLUSH_VBUS*%
X236100000Y-114300000D02*
X232600000Y-114300000D01*
X203000000Y-128750000D02*
X201450000Y-127200000D01*
X232600000Y-114300000D02*
X218150000Y-128750000D01*
X218150000Y-128750000D02*
X203000000Y-128750000D01*
X187300000Y-129200000D02*
X186780000Y-128680000D01*
X201450000Y-127200000D02*
X192200000Y-127200000D01*
X192200000Y-127200000D02*
X190200000Y-129200000D01*
X190200000Y-129200000D02*
X187300000Y-129200000D01*
X186780000Y-128680000D02*
X186780000Y-127700000D01*
D45*
%TO.N,USB_M_IN_VBUS*%
X230325500Y-104400000D02*
X233180000Y-104400000D01*
X233180000Y-104400000D02*
X236580000Y-101000000D01*
D44*
%TO.N,USB_IN_VBUS*%
X235370000Y-76400000D02*
X235370000Y-71100000D01*
D46*
%TO.N,USB_VSYS*%
X214680000Y-112500000D02*
X216480000Y-112500000D01*
X213942500Y-96790151D02*
X213942500Y-111762500D01*
X216580000Y-94152651D02*
X213942500Y-96790151D01*
X213942500Y-111762500D02*
X214680000Y-112500000D01*
%TO.N,VCC*%
X157980000Y-91500000D02*
X185780000Y-91500000D01*
D47*
X189980000Y-100000000D02*
X190380000Y-99600000D01*
X175982082Y-126000000D02*
X189980000Y-112002082D01*
X148980000Y-108900000D02*
X166680000Y-108900000D01*
D46*
X192980000Y-106200000D02*
X194780000Y-108000000D01*
D47*
X171880000Y-125650000D02*
X172030000Y-125800000D01*
D46*
X150080000Y-105400000D02*
X150080000Y-99400000D01*
D47*
X173730000Y-126000000D02*
X175982082Y-126000000D01*
D46*
X201580000Y-111600000D02*
X205580000Y-111600000D01*
X150080000Y-99400000D02*
X157980000Y-91500000D01*
X194780000Y-108000000D02*
X197980000Y-108000000D01*
D47*
X147680000Y-107800000D02*
X147780000Y-107700000D01*
D44*
X147730000Y-113450000D02*
X140980000Y-120200000D01*
D46*
X147730000Y-107750000D02*
X147780000Y-107700000D01*
D44*
X191280000Y-99600000D02*
X191280000Y-112755635D01*
D46*
X185780000Y-91500000D02*
X191780000Y-97500000D01*
X192980000Y-99500000D02*
X192980000Y-106200000D01*
D47*
X190380000Y-99600000D02*
X191280000Y-99600000D01*
X172230000Y-126000000D02*
X173730000Y-126000000D01*
D46*
X207880000Y-111600000D02*
X206780000Y-111600000D01*
D44*
X147730000Y-107750000D02*
X147730000Y-113450000D01*
D47*
X147780000Y-107700000D02*
X148980000Y-108900000D01*
X167580000Y-125650000D02*
X171880000Y-125650000D01*
D46*
X197980000Y-108000000D02*
X201580000Y-111600000D01*
X147780000Y-107700000D02*
X150080000Y-105400000D01*
D47*
X167430000Y-125800000D02*
X167580000Y-125650000D01*
X102480000Y-97300000D02*
X102480000Y-102900000D01*
D46*
X205580000Y-111600000D02*
X205680000Y-111600000D01*
X205680000Y-111600000D02*
X207880000Y-111600000D01*
D47*
X189980000Y-112002082D02*
X189980000Y-100000000D01*
D46*
X191780000Y-97500000D02*
X192980000Y-97500000D01*
D47*
X107380000Y-107800000D02*
X147680000Y-107800000D01*
X102480000Y-102900000D02*
X107380000Y-107800000D01*
D44*
X191280000Y-112755635D02*
X204480000Y-125955635D01*
X204480000Y-125955635D02*
X204480000Y-126900000D01*
D45*
%TO.N,USB_IN_D+*%
X232780000Y-73900000D02*
X232580000Y-73700000D01*
X233580000Y-73900000D02*
X232780000Y-73900000D01*
X232580000Y-73700000D02*
X232580000Y-72100000D01*
%TO.N,USB_IN_CC2*%
X228980000Y-73900000D02*
X231780000Y-71100000D01*
X228980000Y-74900000D02*
X228980000Y-73900000D01*
%TO.N,USB_M_IN_VBUS_G*%
X229980000Y-105800000D02*
X239980000Y-105800000D01*
X229380000Y-103700500D02*
X229380000Y-105200000D01*
X229380000Y-105200000D02*
X229980000Y-105800000D01*
%TO.N,USB_IN_VBUS_G*%
X229080000Y-90300000D02*
X229080000Y-88300000D01*
X231980000Y-85400000D02*
X235280000Y-85400000D01*
X229080000Y-88300000D02*
X231980000Y-85400000D01*
D47*
%TO.N,USB_INT*%
X168777918Y-117600000D02*
X168280000Y-117600000D01*
X170677918Y-115700000D02*
X168777918Y-117600000D01*
X182180000Y-115700000D02*
X170677918Y-115700000D01*
D45*
%TO.N,MCU_I2C_SDA*%
X173080000Y-109300000D02*
X174280000Y-110500000D01*
X174280000Y-110500000D02*
X184980000Y-110500000D01*
%TO.N,MCU_I2C_SCL*%
X173680000Y-111200000D02*
X184266490Y-111200000D01*
X171780000Y-109200000D02*
X171780000Y-109300000D01*
X171780000Y-109300000D02*
X173680000Y-111200000D01*
X184266490Y-111200000D02*
X184273245Y-111206755D01*
D47*
%TO.N,TFT_DC*%
X169227180Y-114227820D02*
X160055000Y-123400000D01*
X160055000Y-123400000D02*
X121680000Y-123400000D01*
X121680000Y-123400000D02*
X119780000Y-125300000D01*
D45*
%TO.N,TXD_V*%
X172125000Y-134215000D02*
X177365000Y-134215000D01*
X170975000Y-133065000D02*
X172125000Y-134215000D01*
X193680000Y-126400000D02*
X194280000Y-125800000D01*
X194280000Y-125800000D02*
X194280000Y-120600000D01*
X177365000Y-134215000D02*
X185180000Y-126400000D01*
X185180000Y-126400000D02*
X193680000Y-126400000D01*
D44*
%TO.N,Net-(D6-K)*%
X157680000Y-75100000D02*
X163980000Y-81400000D01*
X155380000Y-75100000D02*
X157680000Y-75100000D01*
X163980000Y-81400000D02*
X163980000Y-82100000D01*
X153980000Y-75100000D02*
X155380000Y-75100000D01*
D45*
%TO.N,RESET_V*%
X184480000Y-125700000D02*
X190405000Y-125700000D01*
X190405000Y-125700000D02*
X191505000Y-124600000D01*
X181680000Y-128500000D02*
X184480000Y-125700000D01*
X179880000Y-128500000D02*
X172980000Y-128500000D01*
X179880000Y-128500000D02*
X181680000Y-128500000D01*
X172980000Y-128500000D02*
X170975000Y-130505000D01*
D48*
X179880000Y-128500000D02*
X179880000Y-126892500D01*
X179880000Y-126892500D02*
X179800000Y-126812500D01*
%TD*%
%TA.AperFunction,Conductor*%
%TO.N,USB_M_IN_VBUS*%
G36*
X230489368Y-104034945D02*
G01*
X231118300Y-104297000D01*
X231124619Y-104303345D01*
X231125500Y-104307800D01*
X231125500Y-104492199D01*
X231122073Y-104500472D01*
X231118300Y-104502999D01*
X230489370Y-104765053D01*
X230480415Y-104765072D01*
X230474071Y-104758755D01*
X230326375Y-104404499D01*
X230326355Y-104395550D01*
X230474072Y-104041242D01*
X230480418Y-104034926D01*
X230489368Y-104034945D01*
G37*
%TD.AperFunction*%
%TD*%
%TA.AperFunction,Conductor*%
%TO.N,USB_M_IN_VBUS*%
G36*
X236576195Y-100997436D02*
G01*
X236582542Y-101003754D01*
X236582563Y-101003804D01*
X236728621Y-101358734D01*
X236728600Y-101367688D01*
X236722256Y-101374005D01*
X236092237Y-101633426D01*
X236083282Y-101633407D01*
X236079509Y-101630880D01*
X235949119Y-101500490D01*
X235945692Y-101492217D01*
X235946572Y-101487766D01*
X236205994Y-100857742D01*
X236212313Y-100851398D01*
X236221264Y-100851378D01*
X236576195Y-100997436D01*
G37*
%TD.AperFunction*%
%TD*%
%TA.AperFunction,Conductor*%
%TO.N,VCC*%
G36*
X166674942Y-108504435D02*
G01*
X166679835Y-108511935D01*
X166680035Y-108514062D01*
X166681000Y-108900000D01*
X166680035Y-109285937D01*
X166676587Y-109294202D01*
X166668306Y-109297608D01*
X166666179Y-109297408D01*
X165889544Y-109151789D01*
X165882044Y-109146896D01*
X165880000Y-109140289D01*
X165880000Y-108659710D01*
X165883427Y-108651437D01*
X165889542Y-108648210D01*
X166666180Y-108502591D01*
X166674942Y-108504435D01*
G37*
%TD.AperFunction*%
%TD*%
%TA.AperFunction,Conductor*%
%TO.N,VCC*%
G36*
X171589878Y-125404250D02*
G01*
X172370478Y-125626856D01*
X172377494Y-125632420D01*
X172378520Y-125641316D01*
X172378089Y-125642559D01*
X172231895Y-125997823D01*
X172229334Y-126001659D01*
X171955548Y-126274481D01*
X171947268Y-126277893D01*
X171939001Y-126274452D01*
X171938900Y-126274349D01*
X171578285Y-125903405D01*
X171574974Y-125895249D01*
X171574974Y-125415502D01*
X171578401Y-125407229D01*
X171586674Y-125403802D01*
X171589878Y-125404250D01*
G37*
%TD.AperFunction*%
%TD*%
%TA.AperFunction,Conductor*%
%TO.N,VCC*%
G36*
X173743817Y-125602590D02*
G01*
X174520457Y-125748210D01*
X174527956Y-125753103D01*
X174530000Y-125759710D01*
X174530000Y-126240289D01*
X174526573Y-126248562D01*
X174520456Y-126251789D01*
X173749635Y-126396317D01*
X173745952Y-126396417D01*
X173740132Y-126395651D01*
X173732377Y-126391174D01*
X173729960Y-126384083D01*
X173729000Y-126000000D01*
X173729964Y-125614059D01*
X173733412Y-125605797D01*
X173741693Y-125602391D01*
X173743817Y-125602590D01*
G37*
%TD.AperFunction*%
%TD*%
%TA.AperFunction,Conductor*%
%TO.N,VCC*%
G36*
X191225449Y-99134596D02*
G01*
X191231174Y-99140636D01*
X191380093Y-99497824D01*
X191380994Y-99502355D01*
X191380031Y-99887557D01*
X191376583Y-99895822D01*
X191368302Y-99899228D01*
X191367583Y-99899204D01*
X190610843Y-99850701D01*
X190602806Y-99846752D01*
X190599891Y-99839025D01*
X190599891Y-99358300D01*
X190603318Y-99350027D01*
X190607722Y-99347257D01*
X191216510Y-99134095D01*
X191225449Y-99134596D01*
G37*
%TD.AperFunction*%
%TD*%
%TA.AperFunction,Conductor*%
%TO.N,VCC*%
G36*
X172243817Y-125602590D02*
G01*
X173020457Y-125748210D01*
X173027956Y-125753103D01*
X173030000Y-125759710D01*
X173030000Y-126240289D01*
X173026573Y-126248562D01*
X173020456Y-126251789D01*
X172243820Y-126397408D01*
X172235057Y-126395564D01*
X172230164Y-126388064D01*
X172229964Y-126385946D01*
X172229000Y-126000000D01*
X172229964Y-125614059D01*
X172233412Y-125605797D01*
X172241693Y-125602391D01*
X172243817Y-125602590D01*
G37*
%TD.AperFunction*%
%TD*%
%TA.AperFunction,Conductor*%
%TO.N,VCC*%
G36*
X173724942Y-125604435D02*
G01*
X173729835Y-125611935D01*
X173730035Y-125614062D01*
X173731000Y-126000000D01*
X173730039Y-126384080D01*
X173726591Y-126392345D01*
X173719866Y-126395651D01*
X173714046Y-126396417D01*
X173710363Y-126396317D01*
X172939544Y-126251789D01*
X172932044Y-126246896D01*
X172930000Y-126240289D01*
X172930000Y-125759710D01*
X172933427Y-125751437D01*
X172939542Y-125748210D01*
X173716180Y-125602591D01*
X173724942Y-125604435D01*
G37*
%TD.AperFunction*%
%TD*%
%TA.AperFunction,Conductor*%
%TO.N,VCC*%
G36*
X148069421Y-107427117D02*
G01*
X148070783Y-107428762D01*
X148516978Y-108080895D01*
X148518822Y-108089658D01*
X148515595Y-108095775D01*
X148175775Y-108435595D01*
X148167502Y-108439022D01*
X148160895Y-108436978D01*
X147508762Y-107990783D01*
X147503869Y-107983283D01*
X147505713Y-107974520D01*
X147507075Y-107972875D01*
X147779293Y-107699293D01*
X148052875Y-107427075D01*
X148061156Y-107423669D01*
X148069421Y-107427117D01*
G37*
%TD.AperFunction*%
%TD*%
%TA.AperFunction,Conductor*%
%TO.N,VCC*%
G36*
X167879013Y-125405277D02*
G01*
X167884577Y-125412293D01*
X167885026Y-125415502D01*
X167885026Y-125895249D01*
X167881715Y-125903405D01*
X167521099Y-126274349D01*
X167512875Y-126277892D01*
X167504554Y-126274582D01*
X167504451Y-126274481D01*
X167230665Y-126001659D01*
X167228104Y-125997823D01*
X167081910Y-125642557D01*
X167081931Y-125633605D01*
X167088278Y-125627287D01*
X167089512Y-125626858D01*
X167870118Y-125404251D01*
X167879013Y-125405277D01*
G37*
%TD.AperFunction*%
%TD*%
%TA.AperFunction,Conductor*%
%TO.N,VCC*%
G36*
X102730617Y-100753427D02*
G01*
X102733065Y-100757016D01*
X103445303Y-102387262D01*
X103445475Y-102396215D01*
X103439266Y-102402667D01*
X103439069Y-102402751D01*
X102484487Y-102799136D01*
X102475532Y-102799144D01*
X102475513Y-102799136D01*
X101520930Y-102402751D01*
X101514604Y-102396414D01*
X101514612Y-102387459D01*
X101514661Y-102387341D01*
X102226935Y-100757016D01*
X102233387Y-100750807D01*
X102237656Y-100750000D01*
X102722344Y-100750000D01*
X102730617Y-100753427D01*
G37*
%TD.AperFunction*%
%TD*%
%TA.AperFunction,Conductor*%
%TO.N,VCC*%
G36*
X103439069Y-97597248D02*
G01*
X103445395Y-97603585D01*
X103445387Y-97612540D01*
X103445303Y-97612737D01*
X102733065Y-99242984D01*
X102726613Y-99249193D01*
X102722344Y-99250000D01*
X102237656Y-99250000D01*
X102229383Y-99246573D01*
X102226935Y-99242984D01*
X101514696Y-97612737D01*
X101514524Y-97603784D01*
X101520733Y-97597332D01*
X101520871Y-97597272D01*
X102475513Y-97200862D01*
X102484467Y-97200855D01*
X103439069Y-97597248D01*
G37*
%TD.AperFunction*%
%TD*%
%TA.AperFunction,Conductor*%
%TO.N,VCC*%
G36*
X147625449Y-107334596D02*
G01*
X147631174Y-107340636D01*
X147780093Y-107697824D01*
X147780994Y-107702355D01*
X147780031Y-108087557D01*
X147776583Y-108095822D01*
X147768302Y-108099228D01*
X147767583Y-108099204D01*
X147010843Y-108050701D01*
X147002806Y-108046752D01*
X146999891Y-108039025D01*
X146999891Y-107558300D01*
X147003318Y-107550027D01*
X147007722Y-107547257D01*
X147616510Y-107334095D01*
X147625449Y-107334596D01*
G37*
%TD.AperFunction*%
%TD*%
%TA.AperFunction,Conductor*%
%TO.N,VCC*%
G36*
X103447579Y-102402920D02*
G01*
X103453905Y-102409257D01*
X103454143Y-102409882D01*
X104043989Y-104105917D01*
X104043470Y-104114857D01*
X104041211Y-104118033D01*
X103698461Y-104460783D01*
X103690188Y-104464210D01*
X103685555Y-104463254D01*
X102088762Y-103774636D01*
X102082522Y-103768213D01*
X102082582Y-103759424D01*
X102477439Y-102803779D01*
X102483761Y-102797446D01*
X103438626Y-102402912D01*
X103447579Y-102402920D01*
G37*
%TD.AperFunction*%
%TD*%
%TA.AperFunction,Conductor*%
%TO.N,VCC*%
G36*
X203929082Y-124697253D02*
G01*
X205023152Y-125744150D01*
X205026760Y-125752345D01*
X205025624Y-125757638D01*
X204484115Y-126893557D01*
X204477462Y-126899550D01*
X204472803Y-126900198D01*
X203340091Y-126827385D01*
X203332055Y-126823434D01*
X203329180Y-126816657D01*
X203214144Y-125401839D01*
X203216890Y-125393318D01*
X203217521Y-125392632D01*
X203912721Y-124697432D01*
X203920993Y-124694006D01*
X203929082Y-124697253D01*
G37*
%TD.AperFunction*%
%TD*%
%TA.AperFunction,Conductor*%
%TO.N,USB_IN_D+*%
G36*
X233431428Y-73541244D02*
G01*
X233579123Y-73895498D01*
X233579144Y-73904452D01*
X233579123Y-73904502D01*
X233431428Y-74258755D01*
X233425081Y-74265073D01*
X233416129Y-74265053D01*
X232787200Y-74002999D01*
X232780881Y-73996654D01*
X232780000Y-73992199D01*
X232780000Y-73807800D01*
X232783427Y-73799527D01*
X232787200Y-73797000D01*
X233416131Y-73534945D01*
X233425084Y-73534927D01*
X233431428Y-73541244D01*
G37*
%TD.AperFunction*%
%TD*%
%TA.AperFunction,Conductor*%
%TO.N,USB_IN_D+*%
G36*
X232938755Y-72248571D02*
G01*
X232945073Y-72254918D01*
X232945053Y-72263870D01*
X232683000Y-72892800D01*
X232676655Y-72899119D01*
X232672200Y-72900000D01*
X232487800Y-72900000D01*
X232479527Y-72896573D01*
X232477000Y-72892800D01*
X232214945Y-72263868D01*
X232214927Y-72254915D01*
X232221242Y-72248572D01*
X232575500Y-72100875D01*
X232584449Y-72100855D01*
X232938755Y-72248571D01*
G37*
%TD.AperFunction*%
%TD*%
%TA.AperFunction,Conductor*%
%TO.N,USB_IN_CC2*%
G36*
X231776195Y-71097436D02*
G01*
X231782542Y-71103754D01*
X231782563Y-71103804D01*
X231928621Y-71458734D01*
X231928600Y-71467688D01*
X231922256Y-71474005D01*
X231292237Y-71733426D01*
X231283282Y-71733407D01*
X231279509Y-71730880D01*
X231149119Y-71600490D01*
X231145692Y-71592217D01*
X231146572Y-71587766D01*
X231405994Y-70957742D01*
X231412313Y-70951398D01*
X231421264Y-70951378D01*
X231776195Y-71097436D01*
G37*
%TD.AperFunction*%
%TD*%
%TA.AperFunction,Conductor*%
%TO.N,USB_IN_CC2*%
G36*
X229080473Y-74103427D02*
G01*
X229083000Y-74107200D01*
X229345053Y-74736129D01*
X229345072Y-74745084D01*
X229338755Y-74751428D01*
X228984502Y-74899123D01*
X228975548Y-74899144D01*
X228975498Y-74899123D01*
X228621244Y-74751428D01*
X228614926Y-74745081D01*
X228614945Y-74736131D01*
X228877000Y-74107199D01*
X228883345Y-74100881D01*
X228887800Y-74100000D01*
X229072200Y-74100000D01*
X229080473Y-74103427D01*
G37*
%TD.AperFunction*%
%TD*%
%TA.AperFunction,Conductor*%
%TO.N,USB_M_IN_VBUS_G*%
G36*
X239831428Y-105441244D02*
G01*
X239979123Y-105795498D01*
X239979144Y-105804452D01*
X239979123Y-105804502D01*
X239831428Y-106158755D01*
X239825081Y-106165073D01*
X239816129Y-106165053D01*
X239187200Y-105902999D01*
X239180881Y-105896654D01*
X239180000Y-105892199D01*
X239180000Y-105707800D01*
X239183427Y-105699527D01*
X239187200Y-105697000D01*
X239816131Y-105434945D01*
X239825084Y-105434927D01*
X239831428Y-105441244D01*
G37*
%TD.AperFunction*%
%TD*%
%TA.AperFunction,Conductor*%
%TO.N,USB_M_IN_VBUS_G*%
G36*
X229738755Y-103849071D02*
G01*
X229745073Y-103855418D01*
X229745053Y-103864370D01*
X229483000Y-104493300D01*
X229476655Y-104499619D01*
X229472200Y-104500500D01*
X229287800Y-104500500D01*
X229279527Y-104497073D01*
X229277000Y-104493300D01*
X229014945Y-103864368D01*
X229014927Y-103855415D01*
X229021242Y-103849072D01*
X229375500Y-103701375D01*
X229384449Y-103701355D01*
X229738755Y-103849071D01*
G37*
%TD.AperFunction*%
%TD*%
%TA.AperFunction,Conductor*%
%TO.N,USB_IN_VBUS_G*%
G36*
X229180473Y-89503427D02*
G01*
X229183000Y-89507200D01*
X229445053Y-90136129D01*
X229445072Y-90145084D01*
X229438755Y-90151428D01*
X229084502Y-90299123D01*
X229075548Y-90299144D01*
X229075498Y-90299123D01*
X228721244Y-90151428D01*
X228714926Y-90145081D01*
X228714945Y-90136131D01*
X228977000Y-89507199D01*
X228983345Y-89500881D01*
X228987800Y-89500000D01*
X229172200Y-89500000D01*
X229180473Y-89503427D01*
G37*
%TD.AperFunction*%
%TD*%
%TA.AperFunction,Conductor*%
%TO.N,USB_IN_VBUS_G*%
G36*
X235131428Y-85041244D02*
G01*
X235279123Y-85395498D01*
X235279144Y-85404452D01*
X235279123Y-85404502D01*
X235131428Y-85758755D01*
X235125081Y-85765073D01*
X235116129Y-85765053D01*
X234487200Y-85502999D01*
X234480881Y-85496654D01*
X234480000Y-85492199D01*
X234480000Y-85307800D01*
X234483427Y-85299527D01*
X234487200Y-85297000D01*
X235116131Y-85034945D01*
X235125084Y-85034927D01*
X235131428Y-85041244D01*
G37*
%TD.AperFunction*%
%TD*%
%TA.AperFunction,Conductor*%
%TO.N,USB_INT*%
G36*
X168810022Y-117209535D02*
G01*
X168818085Y-117212960D01*
X169157305Y-117552180D01*
X169160732Y-117560453D01*
X169157305Y-117568726D01*
X169154692Y-117570693D01*
X168444505Y-117963233D01*
X168435606Y-117964236D01*
X168428605Y-117958653D01*
X168428046Y-117957495D01*
X168280198Y-117602878D01*
X168279297Y-117598355D01*
X168279379Y-117552180D01*
X168279979Y-117211889D01*
X168283420Y-117203623D01*
X168291700Y-117200211D01*
X168291769Y-117200211D01*
X168810022Y-117209535D01*
G37*
%TD.AperFunction*%
%TD*%
%TA.AperFunction,Conductor*%
%TO.N,USB_INT*%
G36*
X182174942Y-115304435D02*
G01*
X182179835Y-115311935D01*
X182180035Y-115314062D01*
X182181000Y-115700000D01*
X182180035Y-116085937D01*
X182176587Y-116094202D01*
X182168306Y-116097608D01*
X182166179Y-116097408D01*
X181389544Y-115951789D01*
X181382044Y-115946896D01*
X181380000Y-115940289D01*
X181380000Y-115459710D01*
X181383427Y-115451437D01*
X181389542Y-115448210D01*
X182166180Y-115302591D01*
X182174942Y-115304435D01*
G37*
%TD.AperFunction*%
%TD*%
%TA.AperFunction,Conductor*%
%TO.N,MCU_I2C_SDA*%
G36*
X173447688Y-109151399D02*
G01*
X173454005Y-109157743D01*
X173713426Y-109787762D01*
X173713407Y-109796717D01*
X173710880Y-109800490D01*
X173580490Y-109930880D01*
X173572217Y-109934307D01*
X173567762Y-109933426D01*
X172937743Y-109674005D01*
X172931398Y-109667686D01*
X172931378Y-109658735D01*
X173077437Y-109303802D01*
X173083753Y-109297457D01*
X173438735Y-109151378D01*
X173447688Y-109151399D01*
G37*
%TD.AperFunction*%
%TD*%
%TA.AperFunction,Conductor*%
%TO.N,MCU_I2C_SDA*%
G36*
X184831428Y-110141244D02*
G01*
X184979123Y-110495498D01*
X184979144Y-110504452D01*
X184979123Y-110504502D01*
X184831428Y-110858755D01*
X184825081Y-110865073D01*
X184816129Y-110865053D01*
X184748204Y-110836751D01*
X184743424Y-110833074D01*
X184701527Y-110778473D01*
X184576086Y-110682219D01*
X184576083Y-110682218D01*
X184576077Y-110682214D01*
X184430013Y-110621713D01*
X184430004Y-110621710D01*
X184273245Y-110601073D01*
X184207465Y-110609732D01*
X184201438Y-110608932D01*
X184187200Y-110602999D01*
X184180881Y-110596653D01*
X184180000Y-110592199D01*
X184180000Y-110407800D01*
X184183427Y-110399527D01*
X184187200Y-110397000D01*
X184816131Y-110134945D01*
X184825084Y-110134927D01*
X184831428Y-110141244D01*
G37*
%TD.AperFunction*%
%TD*%
%TA.AperFunction,Conductor*%
%TO.N,MCU_I2C_SCL*%
G36*
X184118380Y-110841632D02*
G01*
X184124636Y-110847912D01*
X184272368Y-111202253D01*
X184272389Y-111211207D01*
X184272368Y-111211257D01*
X184124716Y-111565405D01*
X184118369Y-111571723D01*
X184109415Y-111571702D01*
X184109313Y-111571659D01*
X183481685Y-111303037D01*
X183475428Y-111296632D01*
X183474589Y-111292281D01*
X183474589Y-111107869D01*
X183478016Y-111099596D01*
X183481874Y-111097034D01*
X184109426Y-110841577D01*
X184118380Y-110841632D01*
G37*
%TD.AperFunction*%
%TD*%
%TA.AperFunction,Conductor*%
%TO.N,MCU_I2C_SCL*%
G36*
X172146567Y-109051860D02*
G01*
X172152885Y-109058207D01*
X172153269Y-109059290D01*
X172354436Y-109728331D01*
X172353537Y-109737241D01*
X172351505Y-109739973D01*
X172221101Y-109870377D01*
X172212828Y-109873804D01*
X172207416Y-109872477D01*
X171931192Y-109728331D01*
X171636400Y-109574495D01*
X171630651Y-109567629D01*
X171630992Y-109559671D01*
X171777437Y-109203802D01*
X171783753Y-109197457D01*
X172137615Y-109051839D01*
X172146567Y-109051860D01*
G37*
%TD.AperFunction*%
%TD*%
%TA.AperFunction,Conductor*%
%TO.N,TFT_DC*%
G36*
X168952659Y-113953533D02*
G01*
X168954304Y-113954895D01*
X169227887Y-114227113D01*
X169500104Y-114500695D01*
X169503510Y-114508976D01*
X169500062Y-114517241D01*
X169498417Y-114518603D01*
X168846284Y-114964798D01*
X168837521Y-114966642D01*
X168831404Y-114963415D01*
X168491584Y-114623595D01*
X168488157Y-114615322D01*
X168490201Y-114608715D01*
X168936397Y-113956581D01*
X168943896Y-113951689D01*
X168952659Y-113953533D01*
G37*
%TD.AperFunction*%
%TD*%
%TA.AperFunction,Conductor*%
%TO.N,TFT_DC*%
G36*
X120175775Y-124564404D02*
G01*
X120515595Y-124904224D01*
X120519022Y-124912497D01*
X120516978Y-124919104D01*
X120070783Y-125571237D01*
X120063283Y-125576130D01*
X120054520Y-125574286D01*
X120052875Y-125572924D01*
X119779293Y-125300707D01*
X119507075Y-125027124D01*
X119503669Y-125018843D01*
X119507117Y-125010578D01*
X119508756Y-125009220D01*
X120160895Y-124563020D01*
X120169658Y-124561177D01*
X120175775Y-124564404D01*
G37*
%TD.AperFunction*%
%TD*%
%TA.AperFunction,Conductor*%
%TO.N,TXD_V*%
G36*
X171757496Y-132744586D02*
G01*
X171763825Y-132750920D01*
X171764161Y-132751840D01*
X172198102Y-134113265D01*
X172198655Y-134116818D01*
X172198655Y-134299274D01*
X172195228Y-134307547D01*
X172186955Y-134310974D01*
X172183593Y-134310481D01*
X170662108Y-133854014D01*
X170655168Y-133848354D01*
X170654263Y-133839445D01*
X170654652Y-133838350D01*
X170972147Y-133069486D01*
X170978468Y-133063151D01*
X171748542Y-132744582D01*
X171757496Y-132744586D01*
G37*
%TD.AperFunction*%
%TD*%
%TA.AperFunction,Conductor*%
%TO.N,TXD_V*%
G36*
X194638755Y-120748571D02*
G01*
X194645073Y-120754918D01*
X194645053Y-120763870D01*
X194383000Y-121392800D01*
X194376655Y-121399119D01*
X194372200Y-121400000D01*
X194187800Y-121400000D01*
X194179527Y-121396573D01*
X194177000Y-121392800D01*
X193914945Y-120763868D01*
X193914927Y-120754915D01*
X193921242Y-120748572D01*
X194275500Y-120600875D01*
X194284449Y-120600855D01*
X194638755Y-120748571D01*
G37*
%TD.AperFunction*%
%TD*%
%TA.AperFunction,Conductor*%
%TO.N,Net-(D6-K)*%
G36*
X163301069Y-80013309D02*
G01*
X163932808Y-80595069D01*
X164620936Y-81228757D01*
X164624700Y-81236883D01*
X164622373Y-81244380D01*
X163983580Y-82096872D01*
X163975970Y-82101424D01*
X162923265Y-82260943D01*
X162914572Y-82258794D01*
X162910064Y-82251788D01*
X162877413Y-82096872D01*
X162587012Y-80719014D01*
X162588659Y-80710213D01*
X162590182Y-80708334D01*
X163284873Y-80013643D01*
X163293145Y-80010217D01*
X163301069Y-80013309D01*
G37*
%TD.AperFunction*%
%TD*%
%TA.AperFunction,Conductor*%
%TO.N,RESET_V*%
G36*
X191501195Y-124597436D02*
G01*
X191507542Y-124603754D01*
X191507563Y-124603804D01*
X191653621Y-124958734D01*
X191653600Y-124967688D01*
X191647256Y-124974005D01*
X191017237Y-125233426D01*
X191008282Y-125233407D01*
X191004509Y-125230880D01*
X190874119Y-125100490D01*
X190870692Y-125092217D01*
X190871572Y-125087766D01*
X191130994Y-124457742D01*
X191137313Y-124451398D01*
X191146264Y-124451378D01*
X191501195Y-124597436D01*
G37*
%TD.AperFunction*%
%TD*%
%TA.AperFunction,Conductor*%
%TO.N,RESET_V*%
G36*
X172096413Y-129247122D02*
G01*
X172099544Y-129249359D01*
X172230734Y-129380549D01*
X172234161Y-129388822D01*
X172233589Y-129392435D01*
X171764202Y-130838253D01*
X171758388Y-130845063D01*
X171749461Y-130845768D01*
X171748614Y-130845456D01*
X170978784Y-130527561D01*
X170972447Y-130521238D01*
X170654466Y-129751197D01*
X170654475Y-129742244D01*
X170660814Y-129735919D01*
X170661463Y-129735673D01*
X172087477Y-129246565D01*
X172096413Y-129247122D01*
G37*
%TD.AperFunction*%
%TD*%
%TA.AperFunction,Conductor*%
%TO.N,RESET_V*%
G36*
X180160167Y-126961660D02*
G01*
X180166485Y-126968007D01*
X180166986Y-126975411D01*
X180007281Y-127587839D01*
X180001878Y-127594980D01*
X179995960Y-127596587D01*
X179762138Y-127596587D01*
X179753865Y-127593160D01*
X179751734Y-127590238D01*
X179436244Y-126976843D01*
X179435508Y-126967921D01*
X179441298Y-126961090D01*
X179442137Y-126960699D01*
X179795500Y-126813375D01*
X179804449Y-126813355D01*
X180160167Y-126961660D01*
G37*
%TD.AperFunction*%
%TD*%
M02*
