%TF.GenerationSoftware,KiCad,Pcbnew,7.0.6-7.0.6~ubuntu22.04.1*%
%TF.CreationDate,2023-08-07T17:23:03+03:00*%
%TF.ProjectId,xray-v2,78726179-2d76-4322-9e6b-696361645f70,rev?*%
%TF.SameCoordinates,Original*%
%TF.FileFunction,Drillmap*%
%TF.FilePolarity,Positive*%
%FSLAX45Y45*%
G04 Gerber Fmt 4.5, Leading zero omitted, Abs format (unit mm)*
G04 Created by KiCad (PCBNEW 7.0.6-7.0.6~ubuntu22.04.1) date 2023-08-07 17:23:03*
%MOMM*%
%LPD*%
G01*
G04 APERTURE LIST*
%ADD10C,0.100000*%
%ADD11C,0.200000*%
%ADD12C,0.220000*%
%ADD13C,0.300000*%
G04 APERTURE END LIST*
D10*
X10000000Y-6550000D02*
X24402000Y-6550000D01*
X19485050Y-13449500D02*
X24402000Y-13450000D01*
X24402000Y-13450000D02*
X24402000Y-9772500D01*
X10000000Y-13450000D02*
X10000000Y-6550000D01*
X24402000Y-6700000D02*
X24402000Y-6550000D01*
X24402000Y-8582500D02*
X24402000Y-7960000D01*
X18295050Y-13449500D02*
X10000000Y-13450000D01*
D11*
D12*
X10190000Y-6690000D02*
X10410000Y-6910000D01*
X10410000Y-6690000D02*
X10190000Y-6910000D01*
X14190000Y-11190000D02*
X14410000Y-11410000D01*
X14410000Y-11190000D02*
X14190000Y-11410000D01*
X14790000Y-9290000D02*
X15010000Y-9510000D01*
X15010000Y-9290000D02*
X14790000Y-9510000D01*
X19190000Y-8790000D02*
X19410000Y-9010000D01*
X19410000Y-8790000D02*
X19190000Y-9010000D01*
X21890000Y-12090000D02*
X22110000Y-12310000D01*
X22110000Y-12090000D02*
X21890000Y-12310000D01*
X22090000Y-6890000D02*
X22310000Y-7110000D01*
X22310000Y-6890000D02*
X22090000Y-7110000D01*
X23890000Y-10990000D02*
X24110000Y-11210000D01*
X24110000Y-10990000D02*
X23890000Y-11210000D01*
X23990000Y-8190000D02*
X24210000Y-8410000D01*
X24210000Y-8190000D02*
X23990000Y-8410000D01*
D13*
X10495000Y-7406000D02*
G75*
G03*
X10495000Y-7406000I-150000J0D01*
G01*
X10495000Y-13156000D02*
G75*
G03*
X10495000Y-13156000I-150000J0D01*
G01*
X13805000Y-7406000D02*
G75*
G03*
X13805000Y-7406000I-150000J0D01*
G01*
X13805000Y-13154000D02*
G75*
G03*
X13805000Y-13154000I-150000J0D01*
G01*
D11*
X10255777Y-13766984D02*
X10255777Y-13566984D01*
X10255777Y-13566984D02*
X10303396Y-13566984D01*
X10303396Y-13566984D02*
X10331967Y-13576508D01*
X10331967Y-13576508D02*
X10351015Y-13595555D01*
X10351015Y-13595555D02*
X10360539Y-13614603D01*
X10360539Y-13614603D02*
X10370063Y-13652698D01*
X10370063Y-13652698D02*
X10370063Y-13681269D01*
X10370063Y-13681269D02*
X10360539Y-13719365D01*
X10360539Y-13719365D02*
X10351015Y-13738412D01*
X10351015Y-13738412D02*
X10331967Y-13757460D01*
X10331967Y-13757460D02*
X10303396Y-13766984D01*
X10303396Y-13766984D02*
X10255777Y-13766984D01*
X10455777Y-13766984D02*
X10455777Y-13633650D01*
X10455777Y-13671746D02*
X10465301Y-13652698D01*
X10465301Y-13652698D02*
X10474824Y-13643174D01*
X10474824Y-13643174D02*
X10493872Y-13633650D01*
X10493872Y-13633650D02*
X10512920Y-13633650D01*
X10579586Y-13766984D02*
X10579586Y-13633650D01*
X10579586Y-13566984D02*
X10570063Y-13576508D01*
X10570063Y-13576508D02*
X10579586Y-13586031D01*
X10579586Y-13586031D02*
X10589110Y-13576508D01*
X10589110Y-13576508D02*
X10579586Y-13566984D01*
X10579586Y-13566984D02*
X10579586Y-13586031D01*
X10703396Y-13766984D02*
X10684348Y-13757460D01*
X10684348Y-13757460D02*
X10674824Y-13738412D01*
X10674824Y-13738412D02*
X10674824Y-13566984D01*
X10808158Y-13766984D02*
X10789110Y-13757460D01*
X10789110Y-13757460D02*
X10779586Y-13738412D01*
X10779586Y-13738412D02*
X10779586Y-13566984D01*
X11036729Y-13766984D02*
X11036729Y-13566984D01*
X11036729Y-13566984D02*
X11103396Y-13709841D01*
X11103396Y-13709841D02*
X11170063Y-13566984D01*
X11170063Y-13566984D02*
X11170063Y-13766984D01*
X11351015Y-13766984D02*
X11351015Y-13662222D01*
X11351015Y-13662222D02*
X11341491Y-13643174D01*
X11341491Y-13643174D02*
X11322443Y-13633650D01*
X11322443Y-13633650D02*
X11284348Y-13633650D01*
X11284348Y-13633650D02*
X11265301Y-13643174D01*
X11351015Y-13757460D02*
X11331967Y-13766984D01*
X11331967Y-13766984D02*
X11284348Y-13766984D01*
X11284348Y-13766984D02*
X11265301Y-13757460D01*
X11265301Y-13757460D02*
X11255777Y-13738412D01*
X11255777Y-13738412D02*
X11255777Y-13719365D01*
X11255777Y-13719365D02*
X11265301Y-13700317D01*
X11265301Y-13700317D02*
X11284348Y-13690793D01*
X11284348Y-13690793D02*
X11331967Y-13690793D01*
X11331967Y-13690793D02*
X11351015Y-13681269D01*
X11446253Y-13633650D02*
X11446253Y-13833650D01*
X11446253Y-13643174D02*
X11465301Y-13633650D01*
X11465301Y-13633650D02*
X11503396Y-13633650D01*
X11503396Y-13633650D02*
X11522443Y-13643174D01*
X11522443Y-13643174D02*
X11531967Y-13652698D01*
X11531967Y-13652698D02*
X11541491Y-13671746D01*
X11541491Y-13671746D02*
X11541491Y-13728888D01*
X11541491Y-13728888D02*
X11531967Y-13747936D01*
X11531967Y-13747936D02*
X11522443Y-13757460D01*
X11522443Y-13757460D02*
X11503396Y-13766984D01*
X11503396Y-13766984D02*
X11465301Y-13766984D01*
X11465301Y-13766984D02*
X11446253Y-13757460D01*
X11627205Y-13747936D02*
X11636729Y-13757460D01*
X11636729Y-13757460D02*
X11627205Y-13766984D01*
X11627205Y-13766984D02*
X11617682Y-13757460D01*
X11617682Y-13757460D02*
X11627205Y-13747936D01*
X11627205Y-13747936D02*
X11627205Y-13766984D01*
X11627205Y-13643174D02*
X11636729Y-13652698D01*
X11636729Y-13652698D02*
X11627205Y-13662222D01*
X11627205Y-13662222D02*
X11617682Y-13652698D01*
X11617682Y-13652698D02*
X11627205Y-13643174D01*
X11627205Y-13643174D02*
X11627205Y-13662222D01*
X9795000Y-13995500D02*
X9995000Y-14195500D01*
X9995000Y-13995500D02*
X9795000Y-14195500D01*
X10246253Y-14006031D02*
X10255777Y-13996508D01*
X10255777Y-13996508D02*
X10274824Y-13986984D01*
X10274824Y-13986984D02*
X10322444Y-13986984D01*
X10322444Y-13986984D02*
X10341491Y-13996508D01*
X10341491Y-13996508D02*
X10351015Y-14006031D01*
X10351015Y-14006031D02*
X10360539Y-14025079D01*
X10360539Y-14025079D02*
X10360539Y-14044127D01*
X10360539Y-14044127D02*
X10351015Y-14072698D01*
X10351015Y-14072698D02*
X10236729Y-14186984D01*
X10236729Y-14186984D02*
X10360539Y-14186984D01*
X10446253Y-14167936D02*
X10455777Y-14177460D01*
X10455777Y-14177460D02*
X10446253Y-14186984D01*
X10446253Y-14186984D02*
X10436729Y-14177460D01*
X10436729Y-14177460D02*
X10446253Y-14167936D01*
X10446253Y-14167936D02*
X10446253Y-14186984D01*
X10531967Y-14006031D02*
X10541491Y-13996508D01*
X10541491Y-13996508D02*
X10560539Y-13986984D01*
X10560539Y-13986984D02*
X10608158Y-13986984D01*
X10608158Y-13986984D02*
X10627205Y-13996508D01*
X10627205Y-13996508D02*
X10636729Y-14006031D01*
X10636729Y-14006031D02*
X10646253Y-14025079D01*
X10646253Y-14025079D02*
X10646253Y-14044127D01*
X10646253Y-14044127D02*
X10636729Y-14072698D01*
X10636729Y-14072698D02*
X10522444Y-14186984D01*
X10522444Y-14186984D02*
X10646253Y-14186984D01*
X10770063Y-13986984D02*
X10789110Y-13986984D01*
X10789110Y-13986984D02*
X10808158Y-13996508D01*
X10808158Y-13996508D02*
X10817682Y-14006031D01*
X10817682Y-14006031D02*
X10827205Y-14025079D01*
X10827205Y-14025079D02*
X10836729Y-14063174D01*
X10836729Y-14063174D02*
X10836729Y-14110793D01*
X10836729Y-14110793D02*
X10827205Y-14148888D01*
X10827205Y-14148888D02*
X10817682Y-14167936D01*
X10817682Y-14167936D02*
X10808158Y-14177460D01*
X10808158Y-14177460D02*
X10789110Y-14186984D01*
X10789110Y-14186984D02*
X10770063Y-14186984D01*
X10770063Y-14186984D02*
X10751015Y-14177460D01*
X10751015Y-14177460D02*
X10741491Y-14167936D01*
X10741491Y-14167936D02*
X10731967Y-14148888D01*
X10731967Y-14148888D02*
X10722444Y-14110793D01*
X10722444Y-14110793D02*
X10722444Y-14063174D01*
X10722444Y-14063174D02*
X10731967Y-14025079D01*
X10731967Y-14025079D02*
X10741491Y-14006031D01*
X10741491Y-14006031D02*
X10751015Y-13996508D01*
X10751015Y-13996508D02*
X10770063Y-13986984D01*
X10960539Y-13986984D02*
X10979586Y-13986984D01*
X10979586Y-13986984D02*
X10998634Y-13996508D01*
X10998634Y-13996508D02*
X11008158Y-14006031D01*
X11008158Y-14006031D02*
X11017682Y-14025079D01*
X11017682Y-14025079D02*
X11027205Y-14063174D01*
X11027205Y-14063174D02*
X11027205Y-14110793D01*
X11027205Y-14110793D02*
X11017682Y-14148888D01*
X11017682Y-14148888D02*
X11008158Y-14167936D01*
X11008158Y-14167936D02*
X10998634Y-14177460D01*
X10998634Y-14177460D02*
X10979586Y-14186984D01*
X10979586Y-14186984D02*
X10960539Y-14186984D01*
X10960539Y-14186984D02*
X10941491Y-14177460D01*
X10941491Y-14177460D02*
X10931967Y-14167936D01*
X10931967Y-14167936D02*
X10922444Y-14148888D01*
X10922444Y-14148888D02*
X10912920Y-14110793D01*
X10912920Y-14110793D02*
X10912920Y-14063174D01*
X10912920Y-14063174D02*
X10922444Y-14025079D01*
X10922444Y-14025079D02*
X10931967Y-14006031D01*
X10931967Y-14006031D02*
X10941491Y-13996508D01*
X10941491Y-13996508D02*
X10960539Y-13986984D01*
X11112920Y-14186984D02*
X11112920Y-14053650D01*
X11112920Y-14072698D02*
X11122444Y-14063174D01*
X11122444Y-14063174D02*
X11141491Y-14053650D01*
X11141491Y-14053650D02*
X11170063Y-14053650D01*
X11170063Y-14053650D02*
X11189110Y-14063174D01*
X11189110Y-14063174D02*
X11198634Y-14082222D01*
X11198634Y-14082222D02*
X11198634Y-14186984D01*
X11198634Y-14082222D02*
X11208158Y-14063174D01*
X11208158Y-14063174D02*
X11227205Y-14053650D01*
X11227205Y-14053650D02*
X11255777Y-14053650D01*
X11255777Y-14053650D02*
X11274824Y-14063174D01*
X11274824Y-14063174D02*
X11284348Y-14082222D01*
X11284348Y-14082222D02*
X11284348Y-14186984D01*
X11379586Y-14186984D02*
X11379586Y-14053650D01*
X11379586Y-14072698D02*
X11389110Y-14063174D01*
X11389110Y-14063174D02*
X11408158Y-14053650D01*
X11408158Y-14053650D02*
X11436729Y-14053650D01*
X11436729Y-14053650D02*
X11455777Y-14063174D01*
X11455777Y-14063174D02*
X11465301Y-14082222D01*
X11465301Y-14082222D02*
X11465301Y-14186984D01*
X11465301Y-14082222D02*
X11474824Y-14063174D01*
X11474824Y-14063174D02*
X11493872Y-14053650D01*
X11493872Y-14053650D02*
X11522443Y-14053650D01*
X11522443Y-14053650D02*
X11541491Y-14063174D01*
X11541491Y-14063174D02*
X11551015Y-14082222D01*
X11551015Y-14082222D02*
X11551015Y-14186984D01*
X11941491Y-13977460D02*
X11770063Y-14234603D01*
X12198634Y-13986984D02*
X12217682Y-13986984D01*
X12217682Y-13986984D02*
X12236729Y-13996508D01*
X12236729Y-13996508D02*
X12246253Y-14006031D01*
X12246253Y-14006031D02*
X12255777Y-14025079D01*
X12255777Y-14025079D02*
X12265301Y-14063174D01*
X12265301Y-14063174D02*
X12265301Y-14110793D01*
X12265301Y-14110793D02*
X12255777Y-14148888D01*
X12255777Y-14148888D02*
X12246253Y-14167936D01*
X12246253Y-14167936D02*
X12236729Y-14177460D01*
X12236729Y-14177460D02*
X12217682Y-14186984D01*
X12217682Y-14186984D02*
X12198634Y-14186984D01*
X12198634Y-14186984D02*
X12179586Y-14177460D01*
X12179586Y-14177460D02*
X12170063Y-14167936D01*
X12170063Y-14167936D02*
X12160539Y-14148888D01*
X12160539Y-14148888D02*
X12151015Y-14110793D01*
X12151015Y-14110793D02*
X12151015Y-14063174D01*
X12151015Y-14063174D02*
X12160539Y-14025079D01*
X12160539Y-14025079D02*
X12170063Y-14006031D01*
X12170063Y-14006031D02*
X12179586Y-13996508D01*
X12179586Y-13996508D02*
X12198634Y-13986984D01*
X12351015Y-14167936D02*
X12360539Y-14177460D01*
X12360539Y-14177460D02*
X12351015Y-14186984D01*
X12351015Y-14186984D02*
X12341491Y-14177460D01*
X12341491Y-14177460D02*
X12351015Y-14167936D01*
X12351015Y-14167936D02*
X12351015Y-14186984D01*
X12484348Y-13986984D02*
X12503396Y-13986984D01*
X12503396Y-13986984D02*
X12522444Y-13996508D01*
X12522444Y-13996508D02*
X12531967Y-14006031D01*
X12531967Y-14006031D02*
X12541491Y-14025079D01*
X12541491Y-14025079D02*
X12551015Y-14063174D01*
X12551015Y-14063174D02*
X12551015Y-14110793D01*
X12551015Y-14110793D02*
X12541491Y-14148888D01*
X12541491Y-14148888D02*
X12531967Y-14167936D01*
X12531967Y-14167936D02*
X12522444Y-14177460D01*
X12522444Y-14177460D02*
X12503396Y-14186984D01*
X12503396Y-14186984D02*
X12484348Y-14186984D01*
X12484348Y-14186984D02*
X12465301Y-14177460D01*
X12465301Y-14177460D02*
X12455777Y-14167936D01*
X12455777Y-14167936D02*
X12446253Y-14148888D01*
X12446253Y-14148888D02*
X12436729Y-14110793D01*
X12436729Y-14110793D02*
X12436729Y-14063174D01*
X12436729Y-14063174D02*
X12446253Y-14025079D01*
X12446253Y-14025079D02*
X12455777Y-14006031D01*
X12455777Y-14006031D02*
X12465301Y-13996508D01*
X12465301Y-13996508D02*
X12484348Y-13986984D01*
X12665301Y-14072698D02*
X12646253Y-14063174D01*
X12646253Y-14063174D02*
X12636729Y-14053650D01*
X12636729Y-14053650D02*
X12627206Y-14034603D01*
X12627206Y-14034603D02*
X12627206Y-14025079D01*
X12627206Y-14025079D02*
X12636729Y-14006031D01*
X12636729Y-14006031D02*
X12646253Y-13996508D01*
X12646253Y-13996508D02*
X12665301Y-13986984D01*
X12665301Y-13986984D02*
X12703396Y-13986984D01*
X12703396Y-13986984D02*
X12722444Y-13996508D01*
X12722444Y-13996508D02*
X12731967Y-14006031D01*
X12731967Y-14006031D02*
X12741491Y-14025079D01*
X12741491Y-14025079D02*
X12741491Y-14034603D01*
X12741491Y-14034603D02*
X12731967Y-14053650D01*
X12731967Y-14053650D02*
X12722444Y-14063174D01*
X12722444Y-14063174D02*
X12703396Y-14072698D01*
X12703396Y-14072698D02*
X12665301Y-14072698D01*
X12665301Y-14072698D02*
X12646253Y-14082222D01*
X12646253Y-14082222D02*
X12636729Y-14091746D01*
X12636729Y-14091746D02*
X12627206Y-14110793D01*
X12627206Y-14110793D02*
X12627206Y-14148888D01*
X12627206Y-14148888D02*
X12636729Y-14167936D01*
X12636729Y-14167936D02*
X12646253Y-14177460D01*
X12646253Y-14177460D02*
X12665301Y-14186984D01*
X12665301Y-14186984D02*
X12703396Y-14186984D01*
X12703396Y-14186984D02*
X12722444Y-14177460D01*
X12722444Y-14177460D02*
X12731967Y-14167936D01*
X12731967Y-14167936D02*
X12741491Y-14148888D01*
X12741491Y-14148888D02*
X12741491Y-14110793D01*
X12741491Y-14110793D02*
X12731967Y-14091746D01*
X12731967Y-14091746D02*
X12722444Y-14082222D01*
X12722444Y-14082222D02*
X12703396Y-14072698D01*
X12912920Y-13986984D02*
X12874825Y-13986984D01*
X12874825Y-13986984D02*
X12855777Y-13996508D01*
X12855777Y-13996508D02*
X12846253Y-14006031D01*
X12846253Y-14006031D02*
X12827206Y-14034603D01*
X12827206Y-14034603D02*
X12817682Y-14072698D01*
X12817682Y-14072698D02*
X12817682Y-14148888D01*
X12817682Y-14148888D02*
X12827206Y-14167936D01*
X12827206Y-14167936D02*
X12836729Y-14177460D01*
X12836729Y-14177460D02*
X12855777Y-14186984D01*
X12855777Y-14186984D02*
X12893872Y-14186984D01*
X12893872Y-14186984D02*
X12912920Y-14177460D01*
X12912920Y-14177460D02*
X12922444Y-14167936D01*
X12922444Y-14167936D02*
X12931967Y-14148888D01*
X12931967Y-14148888D02*
X12931967Y-14101269D01*
X12931967Y-14101269D02*
X12922444Y-14082222D01*
X12922444Y-14082222D02*
X12912920Y-14072698D01*
X12912920Y-14072698D02*
X12893872Y-14063174D01*
X12893872Y-14063174D02*
X12855777Y-14063174D01*
X12855777Y-14063174D02*
X12836729Y-14072698D01*
X12836729Y-14072698D02*
X12827206Y-14082222D01*
X12827206Y-14082222D02*
X12817682Y-14101269D01*
X13103396Y-13986984D02*
X13065301Y-13986984D01*
X13065301Y-13986984D02*
X13046253Y-13996508D01*
X13046253Y-13996508D02*
X13036729Y-14006031D01*
X13036729Y-14006031D02*
X13017682Y-14034603D01*
X13017682Y-14034603D02*
X13008158Y-14072698D01*
X13008158Y-14072698D02*
X13008158Y-14148888D01*
X13008158Y-14148888D02*
X13017682Y-14167936D01*
X13017682Y-14167936D02*
X13027206Y-14177460D01*
X13027206Y-14177460D02*
X13046253Y-14186984D01*
X13046253Y-14186984D02*
X13084348Y-14186984D01*
X13084348Y-14186984D02*
X13103396Y-14177460D01*
X13103396Y-14177460D02*
X13112920Y-14167936D01*
X13112920Y-14167936D02*
X13122444Y-14148888D01*
X13122444Y-14148888D02*
X13122444Y-14101269D01*
X13122444Y-14101269D02*
X13112920Y-14082222D01*
X13112920Y-14082222D02*
X13103396Y-14072698D01*
X13103396Y-14072698D02*
X13084348Y-14063174D01*
X13084348Y-14063174D02*
X13046253Y-14063174D01*
X13046253Y-14063174D02*
X13027206Y-14072698D01*
X13027206Y-14072698D02*
X13017682Y-14082222D01*
X13017682Y-14082222D02*
X13008158Y-14101269D01*
X13198634Y-13986984D02*
X13198634Y-14025079D01*
X13274825Y-13986984D02*
X13274825Y-14025079D01*
X13570063Y-14263174D02*
X13560539Y-14253650D01*
X13560539Y-14253650D02*
X13541491Y-14225079D01*
X13541491Y-14225079D02*
X13531968Y-14206031D01*
X13531968Y-14206031D02*
X13522444Y-14177460D01*
X13522444Y-14177460D02*
X13512920Y-14129841D01*
X13512920Y-14129841D02*
X13512920Y-14091746D01*
X13512920Y-14091746D02*
X13522444Y-14044127D01*
X13522444Y-14044127D02*
X13531968Y-14015555D01*
X13531968Y-14015555D02*
X13541491Y-13996508D01*
X13541491Y-13996508D02*
X13560539Y-13967936D01*
X13560539Y-13967936D02*
X13570063Y-13958412D01*
X13674825Y-14072698D02*
X13655777Y-14063174D01*
X13655777Y-14063174D02*
X13646253Y-14053650D01*
X13646253Y-14053650D02*
X13636729Y-14034603D01*
X13636729Y-14034603D02*
X13636729Y-14025079D01*
X13636729Y-14025079D02*
X13646253Y-14006031D01*
X13646253Y-14006031D02*
X13655777Y-13996508D01*
X13655777Y-13996508D02*
X13674825Y-13986984D01*
X13674825Y-13986984D02*
X13712920Y-13986984D01*
X13712920Y-13986984D02*
X13731968Y-13996508D01*
X13731968Y-13996508D02*
X13741491Y-14006031D01*
X13741491Y-14006031D02*
X13751015Y-14025079D01*
X13751015Y-14025079D02*
X13751015Y-14034603D01*
X13751015Y-14034603D02*
X13741491Y-14053650D01*
X13741491Y-14053650D02*
X13731968Y-14063174D01*
X13731968Y-14063174D02*
X13712920Y-14072698D01*
X13712920Y-14072698D02*
X13674825Y-14072698D01*
X13674825Y-14072698D02*
X13655777Y-14082222D01*
X13655777Y-14082222D02*
X13646253Y-14091746D01*
X13646253Y-14091746D02*
X13636729Y-14110793D01*
X13636729Y-14110793D02*
X13636729Y-14148888D01*
X13636729Y-14148888D02*
X13646253Y-14167936D01*
X13646253Y-14167936D02*
X13655777Y-14177460D01*
X13655777Y-14177460D02*
X13674825Y-14186984D01*
X13674825Y-14186984D02*
X13712920Y-14186984D01*
X13712920Y-14186984D02*
X13731968Y-14177460D01*
X13731968Y-14177460D02*
X13741491Y-14167936D01*
X13741491Y-14167936D02*
X13751015Y-14148888D01*
X13751015Y-14148888D02*
X13751015Y-14110793D01*
X13751015Y-14110793D02*
X13741491Y-14091746D01*
X13741491Y-14091746D02*
X13731968Y-14082222D01*
X13731968Y-14082222D02*
X13712920Y-14072698D01*
X13989110Y-14186984D02*
X13989110Y-13986984D01*
X14074825Y-14186984D02*
X14074825Y-14082222D01*
X14074825Y-14082222D02*
X14065301Y-14063174D01*
X14065301Y-14063174D02*
X14046253Y-14053650D01*
X14046253Y-14053650D02*
X14017682Y-14053650D01*
X14017682Y-14053650D02*
X13998634Y-14063174D01*
X13998634Y-14063174D02*
X13989110Y-14072698D01*
X14198634Y-14186984D02*
X14179587Y-14177460D01*
X14179587Y-14177460D02*
X14170063Y-14167936D01*
X14170063Y-14167936D02*
X14160539Y-14148888D01*
X14160539Y-14148888D02*
X14160539Y-14091746D01*
X14160539Y-14091746D02*
X14170063Y-14072698D01*
X14170063Y-14072698D02*
X14179587Y-14063174D01*
X14179587Y-14063174D02*
X14198634Y-14053650D01*
X14198634Y-14053650D02*
X14227206Y-14053650D01*
X14227206Y-14053650D02*
X14246253Y-14063174D01*
X14246253Y-14063174D02*
X14255777Y-14072698D01*
X14255777Y-14072698D02*
X14265301Y-14091746D01*
X14265301Y-14091746D02*
X14265301Y-14148888D01*
X14265301Y-14148888D02*
X14255777Y-14167936D01*
X14255777Y-14167936D02*
X14246253Y-14177460D01*
X14246253Y-14177460D02*
X14227206Y-14186984D01*
X14227206Y-14186984D02*
X14198634Y-14186984D01*
X14379587Y-14186984D02*
X14360539Y-14177460D01*
X14360539Y-14177460D02*
X14351015Y-14158412D01*
X14351015Y-14158412D02*
X14351015Y-13986984D01*
X14531968Y-14177460D02*
X14512920Y-14186984D01*
X14512920Y-14186984D02*
X14474825Y-14186984D01*
X14474825Y-14186984D02*
X14455777Y-14177460D01*
X14455777Y-14177460D02*
X14446253Y-14158412D01*
X14446253Y-14158412D02*
X14446253Y-14082222D01*
X14446253Y-14082222D02*
X14455777Y-14063174D01*
X14455777Y-14063174D02*
X14474825Y-14053650D01*
X14474825Y-14053650D02*
X14512920Y-14053650D01*
X14512920Y-14053650D02*
X14531968Y-14063174D01*
X14531968Y-14063174D02*
X14541491Y-14082222D01*
X14541491Y-14082222D02*
X14541491Y-14101269D01*
X14541491Y-14101269D02*
X14446253Y-14120317D01*
X14617682Y-14177460D02*
X14636730Y-14186984D01*
X14636730Y-14186984D02*
X14674825Y-14186984D01*
X14674825Y-14186984D02*
X14693872Y-14177460D01*
X14693872Y-14177460D02*
X14703396Y-14158412D01*
X14703396Y-14158412D02*
X14703396Y-14148888D01*
X14703396Y-14148888D02*
X14693872Y-14129841D01*
X14693872Y-14129841D02*
X14674825Y-14120317D01*
X14674825Y-14120317D02*
X14646253Y-14120317D01*
X14646253Y-14120317D02*
X14627206Y-14110793D01*
X14627206Y-14110793D02*
X14617682Y-14091746D01*
X14617682Y-14091746D02*
X14617682Y-14082222D01*
X14617682Y-14082222D02*
X14627206Y-14063174D01*
X14627206Y-14063174D02*
X14646253Y-14053650D01*
X14646253Y-14053650D02*
X14674825Y-14053650D01*
X14674825Y-14053650D02*
X14693872Y-14063174D01*
X14770063Y-14263174D02*
X14779587Y-14253650D01*
X14779587Y-14253650D02*
X14798634Y-14225079D01*
X14798634Y-14225079D02*
X14808158Y-14206031D01*
X14808158Y-14206031D02*
X14817682Y-14177460D01*
X14817682Y-14177460D02*
X14827206Y-14129841D01*
X14827206Y-14129841D02*
X14827206Y-14091746D01*
X14827206Y-14091746D02*
X14817682Y-14044127D01*
X14817682Y-14044127D02*
X14808158Y-14015555D01*
X14808158Y-14015555D02*
X14798634Y-13996508D01*
X14798634Y-13996508D02*
X14779587Y-13967936D01*
X14779587Y-13967936D02*
X14770063Y-13958412D01*
X15131968Y-14263174D02*
X15122444Y-14253650D01*
X15122444Y-14253650D02*
X15103396Y-14225079D01*
X15103396Y-14225079D02*
X15093872Y-14206031D01*
X15093872Y-14206031D02*
X15084349Y-14177460D01*
X15084349Y-14177460D02*
X15074825Y-14129841D01*
X15074825Y-14129841D02*
X15074825Y-14091746D01*
X15074825Y-14091746D02*
X15084349Y-14044127D01*
X15084349Y-14044127D02*
X15093872Y-14015555D01*
X15093872Y-14015555D02*
X15103396Y-13996508D01*
X15103396Y-13996508D02*
X15122444Y-13967936D01*
X15122444Y-13967936D02*
X15131968Y-13958412D01*
X15208158Y-14053650D02*
X15208158Y-14186984D01*
X15208158Y-14072698D02*
X15217682Y-14063174D01*
X15217682Y-14063174D02*
X15236730Y-14053650D01*
X15236730Y-14053650D02*
X15265301Y-14053650D01*
X15265301Y-14053650D02*
X15284349Y-14063174D01*
X15284349Y-14063174D02*
X15293872Y-14082222D01*
X15293872Y-14082222D02*
X15293872Y-14186984D01*
X15417682Y-14186984D02*
X15398634Y-14177460D01*
X15398634Y-14177460D02*
X15389111Y-14167936D01*
X15389111Y-14167936D02*
X15379587Y-14148888D01*
X15379587Y-14148888D02*
X15379587Y-14091746D01*
X15379587Y-14091746D02*
X15389111Y-14072698D01*
X15389111Y-14072698D02*
X15398634Y-14063174D01*
X15398634Y-14063174D02*
X15417682Y-14053650D01*
X15417682Y-14053650D02*
X15446253Y-14053650D01*
X15446253Y-14053650D02*
X15465301Y-14063174D01*
X15465301Y-14063174D02*
X15474825Y-14072698D01*
X15474825Y-14072698D02*
X15484349Y-14091746D01*
X15484349Y-14091746D02*
X15484349Y-14148888D01*
X15484349Y-14148888D02*
X15474825Y-14167936D01*
X15474825Y-14167936D02*
X15465301Y-14177460D01*
X15465301Y-14177460D02*
X15446253Y-14186984D01*
X15446253Y-14186984D02*
X15417682Y-14186984D01*
X15541492Y-14053650D02*
X15617682Y-14053650D01*
X15570063Y-13986984D02*
X15570063Y-14158412D01*
X15570063Y-14158412D02*
X15579587Y-14177460D01*
X15579587Y-14177460D02*
X15598634Y-14186984D01*
X15598634Y-14186984D02*
X15617682Y-14186984D01*
X15836730Y-14053650D02*
X15836730Y-14253650D01*
X15836730Y-14063174D02*
X15855777Y-14053650D01*
X15855777Y-14053650D02*
X15893873Y-14053650D01*
X15893873Y-14053650D02*
X15912920Y-14063174D01*
X15912920Y-14063174D02*
X15922444Y-14072698D01*
X15922444Y-14072698D02*
X15931968Y-14091746D01*
X15931968Y-14091746D02*
X15931968Y-14148888D01*
X15931968Y-14148888D02*
X15922444Y-14167936D01*
X15922444Y-14167936D02*
X15912920Y-14177460D01*
X15912920Y-14177460D02*
X15893873Y-14186984D01*
X15893873Y-14186984D02*
X15855777Y-14186984D01*
X15855777Y-14186984D02*
X15836730Y-14177460D01*
X16046253Y-14186984D02*
X16027206Y-14177460D01*
X16027206Y-14177460D02*
X16017682Y-14158412D01*
X16017682Y-14158412D02*
X16017682Y-13986984D01*
X16208158Y-14186984D02*
X16208158Y-14082222D01*
X16208158Y-14082222D02*
X16198634Y-14063174D01*
X16198634Y-14063174D02*
X16179587Y-14053650D01*
X16179587Y-14053650D02*
X16141492Y-14053650D01*
X16141492Y-14053650D02*
X16122444Y-14063174D01*
X16208158Y-14177460D02*
X16189111Y-14186984D01*
X16189111Y-14186984D02*
X16141492Y-14186984D01*
X16141492Y-14186984D02*
X16122444Y-14177460D01*
X16122444Y-14177460D02*
X16112920Y-14158412D01*
X16112920Y-14158412D02*
X16112920Y-14139365D01*
X16112920Y-14139365D02*
X16122444Y-14120317D01*
X16122444Y-14120317D02*
X16141492Y-14110793D01*
X16141492Y-14110793D02*
X16189111Y-14110793D01*
X16189111Y-14110793D02*
X16208158Y-14101269D01*
X16274825Y-14053650D02*
X16351015Y-14053650D01*
X16303396Y-13986984D02*
X16303396Y-14158412D01*
X16303396Y-14158412D02*
X16312920Y-14177460D01*
X16312920Y-14177460D02*
X16331968Y-14186984D01*
X16331968Y-14186984D02*
X16351015Y-14186984D01*
X16493873Y-14177460D02*
X16474825Y-14186984D01*
X16474825Y-14186984D02*
X16436730Y-14186984D01*
X16436730Y-14186984D02*
X16417682Y-14177460D01*
X16417682Y-14177460D02*
X16408158Y-14158412D01*
X16408158Y-14158412D02*
X16408158Y-14082222D01*
X16408158Y-14082222D02*
X16417682Y-14063174D01*
X16417682Y-14063174D02*
X16436730Y-14053650D01*
X16436730Y-14053650D02*
X16474825Y-14053650D01*
X16474825Y-14053650D02*
X16493873Y-14063174D01*
X16493873Y-14063174D02*
X16503396Y-14082222D01*
X16503396Y-14082222D02*
X16503396Y-14101269D01*
X16503396Y-14101269D02*
X16408158Y-14120317D01*
X16674825Y-14186984D02*
X16674825Y-13986984D01*
X16674825Y-14177460D02*
X16655777Y-14186984D01*
X16655777Y-14186984D02*
X16617682Y-14186984D01*
X16617682Y-14186984D02*
X16598634Y-14177460D01*
X16598634Y-14177460D02*
X16589111Y-14167936D01*
X16589111Y-14167936D02*
X16579587Y-14148888D01*
X16579587Y-14148888D02*
X16579587Y-14091746D01*
X16579587Y-14091746D02*
X16589111Y-14072698D01*
X16589111Y-14072698D02*
X16598634Y-14063174D01*
X16598634Y-14063174D02*
X16617682Y-14053650D01*
X16617682Y-14053650D02*
X16655777Y-14053650D01*
X16655777Y-14053650D02*
X16674825Y-14063174D01*
X16751015Y-14263174D02*
X16760539Y-14253650D01*
X16760539Y-14253650D02*
X16779587Y-14225079D01*
X16779587Y-14225079D02*
X16789111Y-14206031D01*
X16789111Y-14206031D02*
X16798635Y-14177460D01*
X16798635Y-14177460D02*
X16808158Y-14129841D01*
X16808158Y-14129841D02*
X16808158Y-14091746D01*
X16808158Y-14091746D02*
X16798635Y-14044127D01*
X16798635Y-14044127D02*
X16789111Y-14015555D01*
X16789111Y-14015555D02*
X16779587Y-13996508D01*
X16779587Y-13996508D02*
X16760539Y-13967936D01*
X16760539Y-13967936D02*
X16751015Y-13958412D01*
X9995000Y-14415500D02*
G75*
G03*
X9995000Y-14415500I-100000J0D01*
G01*
X10236729Y-14306984D02*
X10360539Y-14306984D01*
X10360539Y-14306984D02*
X10293872Y-14383174D01*
X10293872Y-14383174D02*
X10322444Y-14383174D01*
X10322444Y-14383174D02*
X10341491Y-14392698D01*
X10341491Y-14392698D02*
X10351015Y-14402222D01*
X10351015Y-14402222D02*
X10360539Y-14421269D01*
X10360539Y-14421269D02*
X10360539Y-14468888D01*
X10360539Y-14468888D02*
X10351015Y-14487936D01*
X10351015Y-14487936D02*
X10341491Y-14497460D01*
X10341491Y-14497460D02*
X10322444Y-14506984D01*
X10322444Y-14506984D02*
X10265301Y-14506984D01*
X10265301Y-14506984D02*
X10246253Y-14497460D01*
X10246253Y-14497460D02*
X10236729Y-14487936D01*
X10446253Y-14487936D02*
X10455777Y-14497460D01*
X10455777Y-14497460D02*
X10446253Y-14506984D01*
X10446253Y-14506984D02*
X10436729Y-14497460D01*
X10436729Y-14497460D02*
X10446253Y-14487936D01*
X10446253Y-14487936D02*
X10446253Y-14506984D01*
X10579586Y-14306984D02*
X10598634Y-14306984D01*
X10598634Y-14306984D02*
X10617682Y-14316508D01*
X10617682Y-14316508D02*
X10627205Y-14326031D01*
X10627205Y-14326031D02*
X10636729Y-14345079D01*
X10636729Y-14345079D02*
X10646253Y-14383174D01*
X10646253Y-14383174D02*
X10646253Y-14430793D01*
X10646253Y-14430793D02*
X10636729Y-14468888D01*
X10636729Y-14468888D02*
X10627205Y-14487936D01*
X10627205Y-14487936D02*
X10617682Y-14497460D01*
X10617682Y-14497460D02*
X10598634Y-14506984D01*
X10598634Y-14506984D02*
X10579586Y-14506984D01*
X10579586Y-14506984D02*
X10560539Y-14497460D01*
X10560539Y-14497460D02*
X10551015Y-14487936D01*
X10551015Y-14487936D02*
X10541491Y-14468888D01*
X10541491Y-14468888D02*
X10531967Y-14430793D01*
X10531967Y-14430793D02*
X10531967Y-14383174D01*
X10531967Y-14383174D02*
X10541491Y-14345079D01*
X10541491Y-14345079D02*
X10551015Y-14326031D01*
X10551015Y-14326031D02*
X10560539Y-14316508D01*
X10560539Y-14316508D02*
X10579586Y-14306984D01*
X10770063Y-14306984D02*
X10789110Y-14306984D01*
X10789110Y-14306984D02*
X10808158Y-14316508D01*
X10808158Y-14316508D02*
X10817682Y-14326031D01*
X10817682Y-14326031D02*
X10827205Y-14345079D01*
X10827205Y-14345079D02*
X10836729Y-14383174D01*
X10836729Y-14383174D02*
X10836729Y-14430793D01*
X10836729Y-14430793D02*
X10827205Y-14468888D01*
X10827205Y-14468888D02*
X10817682Y-14487936D01*
X10817682Y-14487936D02*
X10808158Y-14497460D01*
X10808158Y-14497460D02*
X10789110Y-14506984D01*
X10789110Y-14506984D02*
X10770063Y-14506984D01*
X10770063Y-14506984D02*
X10751015Y-14497460D01*
X10751015Y-14497460D02*
X10741491Y-14487936D01*
X10741491Y-14487936D02*
X10731967Y-14468888D01*
X10731967Y-14468888D02*
X10722444Y-14430793D01*
X10722444Y-14430793D02*
X10722444Y-14383174D01*
X10722444Y-14383174D02*
X10731967Y-14345079D01*
X10731967Y-14345079D02*
X10741491Y-14326031D01*
X10741491Y-14326031D02*
X10751015Y-14316508D01*
X10751015Y-14316508D02*
X10770063Y-14306984D01*
X10960539Y-14306984D02*
X10979586Y-14306984D01*
X10979586Y-14306984D02*
X10998634Y-14316508D01*
X10998634Y-14316508D02*
X11008158Y-14326031D01*
X11008158Y-14326031D02*
X11017682Y-14345079D01*
X11017682Y-14345079D02*
X11027205Y-14383174D01*
X11027205Y-14383174D02*
X11027205Y-14430793D01*
X11027205Y-14430793D02*
X11017682Y-14468888D01*
X11017682Y-14468888D02*
X11008158Y-14487936D01*
X11008158Y-14487936D02*
X10998634Y-14497460D01*
X10998634Y-14497460D02*
X10979586Y-14506984D01*
X10979586Y-14506984D02*
X10960539Y-14506984D01*
X10960539Y-14506984D02*
X10941491Y-14497460D01*
X10941491Y-14497460D02*
X10931967Y-14487936D01*
X10931967Y-14487936D02*
X10922444Y-14468888D01*
X10922444Y-14468888D02*
X10912920Y-14430793D01*
X10912920Y-14430793D02*
X10912920Y-14383174D01*
X10912920Y-14383174D02*
X10922444Y-14345079D01*
X10922444Y-14345079D02*
X10931967Y-14326031D01*
X10931967Y-14326031D02*
X10941491Y-14316508D01*
X10941491Y-14316508D02*
X10960539Y-14306984D01*
X11112920Y-14506984D02*
X11112920Y-14373650D01*
X11112920Y-14392698D02*
X11122444Y-14383174D01*
X11122444Y-14383174D02*
X11141491Y-14373650D01*
X11141491Y-14373650D02*
X11170063Y-14373650D01*
X11170063Y-14373650D02*
X11189110Y-14383174D01*
X11189110Y-14383174D02*
X11198634Y-14402222D01*
X11198634Y-14402222D02*
X11198634Y-14506984D01*
X11198634Y-14402222D02*
X11208158Y-14383174D01*
X11208158Y-14383174D02*
X11227205Y-14373650D01*
X11227205Y-14373650D02*
X11255777Y-14373650D01*
X11255777Y-14373650D02*
X11274824Y-14383174D01*
X11274824Y-14383174D02*
X11284348Y-14402222D01*
X11284348Y-14402222D02*
X11284348Y-14506984D01*
X11379586Y-14506984D02*
X11379586Y-14373650D01*
X11379586Y-14392698D02*
X11389110Y-14383174D01*
X11389110Y-14383174D02*
X11408158Y-14373650D01*
X11408158Y-14373650D02*
X11436729Y-14373650D01*
X11436729Y-14373650D02*
X11455777Y-14383174D01*
X11455777Y-14383174D02*
X11465301Y-14402222D01*
X11465301Y-14402222D02*
X11465301Y-14506984D01*
X11465301Y-14402222D02*
X11474824Y-14383174D01*
X11474824Y-14383174D02*
X11493872Y-14373650D01*
X11493872Y-14373650D02*
X11522443Y-14373650D01*
X11522443Y-14373650D02*
X11541491Y-14383174D01*
X11541491Y-14383174D02*
X11551015Y-14402222D01*
X11551015Y-14402222D02*
X11551015Y-14506984D01*
X11941491Y-14297460D02*
X11770063Y-14554603D01*
X12198634Y-14306984D02*
X12217682Y-14306984D01*
X12217682Y-14306984D02*
X12236729Y-14316508D01*
X12236729Y-14316508D02*
X12246253Y-14326031D01*
X12246253Y-14326031D02*
X12255777Y-14345079D01*
X12255777Y-14345079D02*
X12265301Y-14383174D01*
X12265301Y-14383174D02*
X12265301Y-14430793D01*
X12265301Y-14430793D02*
X12255777Y-14468888D01*
X12255777Y-14468888D02*
X12246253Y-14487936D01*
X12246253Y-14487936D02*
X12236729Y-14497460D01*
X12236729Y-14497460D02*
X12217682Y-14506984D01*
X12217682Y-14506984D02*
X12198634Y-14506984D01*
X12198634Y-14506984D02*
X12179586Y-14497460D01*
X12179586Y-14497460D02*
X12170063Y-14487936D01*
X12170063Y-14487936D02*
X12160539Y-14468888D01*
X12160539Y-14468888D02*
X12151015Y-14430793D01*
X12151015Y-14430793D02*
X12151015Y-14383174D01*
X12151015Y-14383174D02*
X12160539Y-14345079D01*
X12160539Y-14345079D02*
X12170063Y-14326031D01*
X12170063Y-14326031D02*
X12179586Y-14316508D01*
X12179586Y-14316508D02*
X12198634Y-14306984D01*
X12351015Y-14487936D02*
X12360539Y-14497460D01*
X12360539Y-14497460D02*
X12351015Y-14506984D01*
X12351015Y-14506984D02*
X12341491Y-14497460D01*
X12341491Y-14497460D02*
X12351015Y-14487936D01*
X12351015Y-14487936D02*
X12351015Y-14506984D01*
X12551015Y-14506984D02*
X12436729Y-14506984D01*
X12493872Y-14506984D02*
X12493872Y-14306984D01*
X12493872Y-14306984D02*
X12474825Y-14335555D01*
X12474825Y-14335555D02*
X12455777Y-14354603D01*
X12455777Y-14354603D02*
X12436729Y-14364127D01*
X12741491Y-14506984D02*
X12627206Y-14506984D01*
X12684348Y-14506984D02*
X12684348Y-14306984D01*
X12684348Y-14306984D02*
X12665301Y-14335555D01*
X12665301Y-14335555D02*
X12646253Y-14354603D01*
X12646253Y-14354603D02*
X12627206Y-14364127D01*
X12855777Y-14392698D02*
X12836729Y-14383174D01*
X12836729Y-14383174D02*
X12827206Y-14373650D01*
X12827206Y-14373650D02*
X12817682Y-14354603D01*
X12817682Y-14354603D02*
X12817682Y-14345079D01*
X12817682Y-14345079D02*
X12827206Y-14326031D01*
X12827206Y-14326031D02*
X12836729Y-14316508D01*
X12836729Y-14316508D02*
X12855777Y-14306984D01*
X12855777Y-14306984D02*
X12893872Y-14306984D01*
X12893872Y-14306984D02*
X12912920Y-14316508D01*
X12912920Y-14316508D02*
X12922444Y-14326031D01*
X12922444Y-14326031D02*
X12931967Y-14345079D01*
X12931967Y-14345079D02*
X12931967Y-14354603D01*
X12931967Y-14354603D02*
X12922444Y-14373650D01*
X12922444Y-14373650D02*
X12912920Y-14383174D01*
X12912920Y-14383174D02*
X12893872Y-14392698D01*
X12893872Y-14392698D02*
X12855777Y-14392698D01*
X12855777Y-14392698D02*
X12836729Y-14402222D01*
X12836729Y-14402222D02*
X12827206Y-14411746D01*
X12827206Y-14411746D02*
X12817682Y-14430793D01*
X12817682Y-14430793D02*
X12817682Y-14468888D01*
X12817682Y-14468888D02*
X12827206Y-14487936D01*
X12827206Y-14487936D02*
X12836729Y-14497460D01*
X12836729Y-14497460D02*
X12855777Y-14506984D01*
X12855777Y-14506984D02*
X12893872Y-14506984D01*
X12893872Y-14506984D02*
X12912920Y-14497460D01*
X12912920Y-14497460D02*
X12922444Y-14487936D01*
X12922444Y-14487936D02*
X12931967Y-14468888D01*
X12931967Y-14468888D02*
X12931967Y-14430793D01*
X12931967Y-14430793D02*
X12922444Y-14411746D01*
X12922444Y-14411746D02*
X12912920Y-14402222D01*
X12912920Y-14402222D02*
X12893872Y-14392698D01*
X13122444Y-14506984D02*
X13008158Y-14506984D01*
X13065301Y-14506984D02*
X13065301Y-14306984D01*
X13065301Y-14306984D02*
X13046253Y-14335555D01*
X13046253Y-14335555D02*
X13027206Y-14354603D01*
X13027206Y-14354603D02*
X13008158Y-14364127D01*
X13198634Y-14306984D02*
X13198634Y-14345079D01*
X13274825Y-14306984D02*
X13274825Y-14345079D01*
X13570063Y-14583174D02*
X13560539Y-14573650D01*
X13560539Y-14573650D02*
X13541491Y-14545079D01*
X13541491Y-14545079D02*
X13531968Y-14526031D01*
X13531968Y-14526031D02*
X13522444Y-14497460D01*
X13522444Y-14497460D02*
X13512920Y-14449841D01*
X13512920Y-14449841D02*
X13512920Y-14411746D01*
X13512920Y-14411746D02*
X13522444Y-14364127D01*
X13522444Y-14364127D02*
X13531968Y-14335555D01*
X13531968Y-14335555D02*
X13541491Y-14316508D01*
X13541491Y-14316508D02*
X13560539Y-14287936D01*
X13560539Y-14287936D02*
X13570063Y-14278412D01*
X13731968Y-14373650D02*
X13731968Y-14506984D01*
X13684348Y-14297460D02*
X13636729Y-14440317D01*
X13636729Y-14440317D02*
X13760539Y-14440317D01*
X13989110Y-14506984D02*
X13989110Y-14306984D01*
X14074825Y-14506984D02*
X14074825Y-14402222D01*
X14074825Y-14402222D02*
X14065301Y-14383174D01*
X14065301Y-14383174D02*
X14046253Y-14373650D01*
X14046253Y-14373650D02*
X14017682Y-14373650D01*
X14017682Y-14373650D02*
X13998634Y-14383174D01*
X13998634Y-14383174D02*
X13989110Y-14392698D01*
X14198634Y-14506984D02*
X14179587Y-14497460D01*
X14179587Y-14497460D02*
X14170063Y-14487936D01*
X14170063Y-14487936D02*
X14160539Y-14468888D01*
X14160539Y-14468888D02*
X14160539Y-14411746D01*
X14160539Y-14411746D02*
X14170063Y-14392698D01*
X14170063Y-14392698D02*
X14179587Y-14383174D01*
X14179587Y-14383174D02*
X14198634Y-14373650D01*
X14198634Y-14373650D02*
X14227206Y-14373650D01*
X14227206Y-14373650D02*
X14246253Y-14383174D01*
X14246253Y-14383174D02*
X14255777Y-14392698D01*
X14255777Y-14392698D02*
X14265301Y-14411746D01*
X14265301Y-14411746D02*
X14265301Y-14468888D01*
X14265301Y-14468888D02*
X14255777Y-14487936D01*
X14255777Y-14487936D02*
X14246253Y-14497460D01*
X14246253Y-14497460D02*
X14227206Y-14506984D01*
X14227206Y-14506984D02*
X14198634Y-14506984D01*
X14379587Y-14506984D02*
X14360539Y-14497460D01*
X14360539Y-14497460D02*
X14351015Y-14478412D01*
X14351015Y-14478412D02*
X14351015Y-14306984D01*
X14531968Y-14497460D02*
X14512920Y-14506984D01*
X14512920Y-14506984D02*
X14474825Y-14506984D01*
X14474825Y-14506984D02*
X14455777Y-14497460D01*
X14455777Y-14497460D02*
X14446253Y-14478412D01*
X14446253Y-14478412D02*
X14446253Y-14402222D01*
X14446253Y-14402222D02*
X14455777Y-14383174D01*
X14455777Y-14383174D02*
X14474825Y-14373650D01*
X14474825Y-14373650D02*
X14512920Y-14373650D01*
X14512920Y-14373650D02*
X14531968Y-14383174D01*
X14531968Y-14383174D02*
X14541491Y-14402222D01*
X14541491Y-14402222D02*
X14541491Y-14421269D01*
X14541491Y-14421269D02*
X14446253Y-14440317D01*
X14617682Y-14497460D02*
X14636730Y-14506984D01*
X14636730Y-14506984D02*
X14674825Y-14506984D01*
X14674825Y-14506984D02*
X14693872Y-14497460D01*
X14693872Y-14497460D02*
X14703396Y-14478412D01*
X14703396Y-14478412D02*
X14703396Y-14468888D01*
X14703396Y-14468888D02*
X14693872Y-14449841D01*
X14693872Y-14449841D02*
X14674825Y-14440317D01*
X14674825Y-14440317D02*
X14646253Y-14440317D01*
X14646253Y-14440317D02*
X14627206Y-14430793D01*
X14627206Y-14430793D02*
X14617682Y-14411746D01*
X14617682Y-14411746D02*
X14617682Y-14402222D01*
X14617682Y-14402222D02*
X14627206Y-14383174D01*
X14627206Y-14383174D02*
X14646253Y-14373650D01*
X14646253Y-14373650D02*
X14674825Y-14373650D01*
X14674825Y-14373650D02*
X14693872Y-14383174D01*
X14770063Y-14583174D02*
X14779587Y-14573650D01*
X14779587Y-14573650D02*
X14798634Y-14545079D01*
X14798634Y-14545079D02*
X14808158Y-14526031D01*
X14808158Y-14526031D02*
X14817682Y-14497460D01*
X14817682Y-14497460D02*
X14827206Y-14449841D01*
X14827206Y-14449841D02*
X14827206Y-14411746D01*
X14827206Y-14411746D02*
X14817682Y-14364127D01*
X14817682Y-14364127D02*
X14808158Y-14335555D01*
X14808158Y-14335555D02*
X14798634Y-14316508D01*
X14798634Y-14316508D02*
X14779587Y-14287936D01*
X14779587Y-14287936D02*
X14770063Y-14278412D01*
X15131968Y-14583174D02*
X15122444Y-14573650D01*
X15122444Y-14573650D02*
X15103396Y-14545079D01*
X15103396Y-14545079D02*
X15093872Y-14526031D01*
X15093872Y-14526031D02*
X15084349Y-14497460D01*
X15084349Y-14497460D02*
X15074825Y-14449841D01*
X15074825Y-14449841D02*
X15074825Y-14411746D01*
X15074825Y-14411746D02*
X15084349Y-14364127D01*
X15084349Y-14364127D02*
X15093872Y-14335555D01*
X15093872Y-14335555D02*
X15103396Y-14316508D01*
X15103396Y-14316508D02*
X15122444Y-14287936D01*
X15122444Y-14287936D02*
X15131968Y-14278412D01*
X15208158Y-14373650D02*
X15208158Y-14506984D01*
X15208158Y-14392698D02*
X15217682Y-14383174D01*
X15217682Y-14383174D02*
X15236730Y-14373650D01*
X15236730Y-14373650D02*
X15265301Y-14373650D01*
X15265301Y-14373650D02*
X15284349Y-14383174D01*
X15284349Y-14383174D02*
X15293872Y-14402222D01*
X15293872Y-14402222D02*
X15293872Y-14506984D01*
X15417682Y-14506984D02*
X15398634Y-14497460D01*
X15398634Y-14497460D02*
X15389111Y-14487936D01*
X15389111Y-14487936D02*
X15379587Y-14468888D01*
X15379587Y-14468888D02*
X15379587Y-14411746D01*
X15379587Y-14411746D02*
X15389111Y-14392698D01*
X15389111Y-14392698D02*
X15398634Y-14383174D01*
X15398634Y-14383174D02*
X15417682Y-14373650D01*
X15417682Y-14373650D02*
X15446253Y-14373650D01*
X15446253Y-14373650D02*
X15465301Y-14383174D01*
X15465301Y-14383174D02*
X15474825Y-14392698D01*
X15474825Y-14392698D02*
X15484349Y-14411746D01*
X15484349Y-14411746D02*
X15484349Y-14468888D01*
X15484349Y-14468888D02*
X15474825Y-14487936D01*
X15474825Y-14487936D02*
X15465301Y-14497460D01*
X15465301Y-14497460D02*
X15446253Y-14506984D01*
X15446253Y-14506984D02*
X15417682Y-14506984D01*
X15541492Y-14373650D02*
X15617682Y-14373650D01*
X15570063Y-14306984D02*
X15570063Y-14478412D01*
X15570063Y-14478412D02*
X15579587Y-14497460D01*
X15579587Y-14497460D02*
X15598634Y-14506984D01*
X15598634Y-14506984D02*
X15617682Y-14506984D01*
X15836730Y-14373650D02*
X15836730Y-14573650D01*
X15836730Y-14383174D02*
X15855777Y-14373650D01*
X15855777Y-14373650D02*
X15893873Y-14373650D01*
X15893873Y-14373650D02*
X15912920Y-14383174D01*
X15912920Y-14383174D02*
X15922444Y-14392698D01*
X15922444Y-14392698D02*
X15931968Y-14411746D01*
X15931968Y-14411746D02*
X15931968Y-14468888D01*
X15931968Y-14468888D02*
X15922444Y-14487936D01*
X15922444Y-14487936D02*
X15912920Y-14497460D01*
X15912920Y-14497460D02*
X15893873Y-14506984D01*
X15893873Y-14506984D02*
X15855777Y-14506984D01*
X15855777Y-14506984D02*
X15836730Y-14497460D01*
X16046253Y-14506984D02*
X16027206Y-14497460D01*
X16027206Y-14497460D02*
X16017682Y-14478412D01*
X16017682Y-14478412D02*
X16017682Y-14306984D01*
X16208158Y-14506984D02*
X16208158Y-14402222D01*
X16208158Y-14402222D02*
X16198634Y-14383174D01*
X16198634Y-14383174D02*
X16179587Y-14373650D01*
X16179587Y-14373650D02*
X16141492Y-14373650D01*
X16141492Y-14373650D02*
X16122444Y-14383174D01*
X16208158Y-14497460D02*
X16189111Y-14506984D01*
X16189111Y-14506984D02*
X16141492Y-14506984D01*
X16141492Y-14506984D02*
X16122444Y-14497460D01*
X16122444Y-14497460D02*
X16112920Y-14478412D01*
X16112920Y-14478412D02*
X16112920Y-14459365D01*
X16112920Y-14459365D02*
X16122444Y-14440317D01*
X16122444Y-14440317D02*
X16141492Y-14430793D01*
X16141492Y-14430793D02*
X16189111Y-14430793D01*
X16189111Y-14430793D02*
X16208158Y-14421269D01*
X16274825Y-14373650D02*
X16351015Y-14373650D01*
X16303396Y-14306984D02*
X16303396Y-14478412D01*
X16303396Y-14478412D02*
X16312920Y-14497460D01*
X16312920Y-14497460D02*
X16331968Y-14506984D01*
X16331968Y-14506984D02*
X16351015Y-14506984D01*
X16493873Y-14497460D02*
X16474825Y-14506984D01*
X16474825Y-14506984D02*
X16436730Y-14506984D01*
X16436730Y-14506984D02*
X16417682Y-14497460D01*
X16417682Y-14497460D02*
X16408158Y-14478412D01*
X16408158Y-14478412D02*
X16408158Y-14402222D01*
X16408158Y-14402222D02*
X16417682Y-14383174D01*
X16417682Y-14383174D02*
X16436730Y-14373650D01*
X16436730Y-14373650D02*
X16474825Y-14373650D01*
X16474825Y-14373650D02*
X16493873Y-14383174D01*
X16493873Y-14383174D02*
X16503396Y-14402222D01*
X16503396Y-14402222D02*
X16503396Y-14421269D01*
X16503396Y-14421269D02*
X16408158Y-14440317D01*
X16674825Y-14506984D02*
X16674825Y-14306984D01*
X16674825Y-14497460D02*
X16655777Y-14506984D01*
X16655777Y-14506984D02*
X16617682Y-14506984D01*
X16617682Y-14506984D02*
X16598634Y-14497460D01*
X16598634Y-14497460D02*
X16589111Y-14487936D01*
X16589111Y-14487936D02*
X16579587Y-14468888D01*
X16579587Y-14468888D02*
X16579587Y-14411746D01*
X16579587Y-14411746D02*
X16589111Y-14392698D01*
X16589111Y-14392698D02*
X16598634Y-14383174D01*
X16598634Y-14383174D02*
X16617682Y-14373650D01*
X16617682Y-14373650D02*
X16655777Y-14373650D01*
X16655777Y-14373650D02*
X16674825Y-14383174D01*
X16751015Y-14583174D02*
X16760539Y-14573650D01*
X16760539Y-14573650D02*
X16779587Y-14545079D01*
X16779587Y-14545079D02*
X16789111Y-14526031D01*
X16789111Y-14526031D02*
X16798635Y-14497460D01*
X16798635Y-14497460D02*
X16808158Y-14449841D01*
X16808158Y-14449841D02*
X16808158Y-14411746D01*
X16808158Y-14411746D02*
X16798635Y-14364127D01*
X16798635Y-14364127D02*
X16789111Y-14335555D01*
X16789111Y-14335555D02*
X16779587Y-14316508D01*
X16779587Y-14316508D02*
X16760539Y-14287936D01*
X16760539Y-14287936D02*
X16751015Y-14278412D01*
M02*
