%TF.GenerationSoftware,KiCad,Pcbnew,7.0.9-7.0.9~ubuntu22.04.1*%
%TF.CreationDate,2023-11-25T10:37:05+03:00*%
%TF.ProjectId,xray-v2,78726179-2d76-4322-9e6b-696361645f70,rev?*%
%TF.SameCoordinates,Original*%
%TF.FileFunction,Legend,Bot*%
%TF.FilePolarity,Positive*%
%FSLAX46Y46*%
G04 Gerber Fmt 4.6, Leading zero omitted, Abs format (unit mm)*
G04 Created by KiCad (PCBNEW 7.0.9-7.0.9~ubuntu22.04.1) date 2023-11-25 10:37:05*
%MOMM*%
%LPD*%
G01*
G04 APERTURE LIST*
%ADD10C,0.150000*%
%ADD11C,0.120000*%
G04 APERTURE END LIST*
D10*
X107714649Y-67559819D02*
X107714649Y-68369342D01*
X107714649Y-68369342D02*
X107762268Y-68464580D01*
X107762268Y-68464580D02*
X107809887Y-68512200D01*
X107809887Y-68512200D02*
X107905125Y-68559819D01*
X107905125Y-68559819D02*
X108095601Y-68559819D01*
X108095601Y-68559819D02*
X108190839Y-68512200D01*
X108190839Y-68512200D02*
X108238458Y-68464580D01*
X108238458Y-68464580D02*
X108286077Y-68369342D01*
X108286077Y-68369342D02*
X108286077Y-67559819D01*
X108619411Y-67559819D02*
X108952744Y-68559819D01*
X108952744Y-68559819D02*
X109286077Y-67559819D01*
X107190840Y-70169819D02*
X107190840Y-69169819D01*
X107190840Y-69169819D02*
X107428935Y-69169819D01*
X107428935Y-69169819D02*
X107571792Y-69217438D01*
X107571792Y-69217438D02*
X107667030Y-69312676D01*
X107667030Y-69312676D02*
X107714649Y-69407914D01*
X107714649Y-69407914D02*
X107762268Y-69598390D01*
X107762268Y-69598390D02*
X107762268Y-69741247D01*
X107762268Y-69741247D02*
X107714649Y-69931723D01*
X107714649Y-69931723D02*
X107667030Y-70026961D01*
X107667030Y-70026961D02*
X107571792Y-70122200D01*
X107571792Y-70122200D02*
X107428935Y-70169819D01*
X107428935Y-70169819D02*
X107190840Y-70169819D01*
X108190840Y-70169819D02*
X108190840Y-69169819D01*
X108619411Y-70122200D02*
X108762268Y-70169819D01*
X108762268Y-70169819D02*
X109000363Y-70169819D01*
X109000363Y-70169819D02*
X109095601Y-70122200D01*
X109095601Y-70122200D02*
X109143220Y-70074580D01*
X109143220Y-70074580D02*
X109190839Y-69979342D01*
X109190839Y-69979342D02*
X109190839Y-69884104D01*
X109190839Y-69884104D02*
X109143220Y-69788866D01*
X109143220Y-69788866D02*
X109095601Y-69741247D01*
X109095601Y-69741247D02*
X109000363Y-69693628D01*
X109000363Y-69693628D02*
X108809887Y-69646009D01*
X108809887Y-69646009D02*
X108714649Y-69598390D01*
X108714649Y-69598390D02*
X108667030Y-69550771D01*
X108667030Y-69550771D02*
X108619411Y-69455533D01*
X108619411Y-69455533D02*
X108619411Y-69360295D01*
X108619411Y-69360295D02*
X108667030Y-69265057D01*
X108667030Y-69265057D02*
X108714649Y-69217438D01*
X108714649Y-69217438D02*
X108809887Y-69169819D01*
X108809887Y-69169819D02*
X109047982Y-69169819D01*
X109047982Y-69169819D02*
X109190839Y-69217438D01*
X233538458Y-67669819D02*
X233014649Y-67003152D01*
X233538458Y-67003152D02*
X233014649Y-67669819D01*
X232633696Y-67669819D02*
X232633696Y-67003152D01*
X232633696Y-67193628D02*
X232586077Y-67098390D01*
X232586077Y-67098390D02*
X232538458Y-67050771D01*
X232538458Y-67050771D02*
X232443220Y-67003152D01*
X232443220Y-67003152D02*
X232347982Y-67003152D01*
X231586077Y-67669819D02*
X231586077Y-67146009D01*
X231586077Y-67146009D02*
X231633696Y-67050771D01*
X231633696Y-67050771D02*
X231728934Y-67003152D01*
X231728934Y-67003152D02*
X231919410Y-67003152D01*
X231919410Y-67003152D02*
X232014648Y-67050771D01*
X231586077Y-67622200D02*
X231681315Y-67669819D01*
X231681315Y-67669819D02*
X231919410Y-67669819D01*
X231919410Y-67669819D02*
X232014648Y-67622200D01*
X232014648Y-67622200D02*
X232062267Y-67526961D01*
X232062267Y-67526961D02*
X232062267Y-67431723D01*
X232062267Y-67431723D02*
X232014648Y-67336485D01*
X232014648Y-67336485D02*
X231919410Y-67288866D01*
X231919410Y-67288866D02*
X231681315Y-67288866D01*
X231681315Y-67288866D02*
X231586077Y-67241247D01*
X231205124Y-67003152D02*
X230967029Y-67669819D01*
X230728934Y-67003152D02*
X230967029Y-67669819D01*
X230967029Y-67669819D02*
X231062267Y-67907914D01*
X231062267Y-67907914D02*
X231109886Y-67955533D01*
X231109886Y-67955533D02*
X231205124Y-68003152D01*
X229681314Y-67003152D02*
X229443219Y-67669819D01*
X229443219Y-67669819D02*
X229205124Y-67003152D01*
X228871790Y-66765057D02*
X228824171Y-66717438D01*
X228824171Y-66717438D02*
X228728933Y-66669819D01*
X228728933Y-66669819D02*
X228490838Y-66669819D01*
X228490838Y-66669819D02*
X228395600Y-66717438D01*
X228395600Y-66717438D02*
X228347981Y-66765057D01*
X228347981Y-66765057D02*
X228300362Y-66860295D01*
X228300362Y-66860295D02*
X228300362Y-66955533D01*
X228300362Y-66955533D02*
X228347981Y-67098390D01*
X228347981Y-67098390D02*
X228919409Y-67669819D01*
X228919409Y-67669819D02*
X228300362Y-67669819D01*
X227871790Y-67574580D02*
X227824171Y-67622200D01*
X227824171Y-67622200D02*
X227871790Y-67669819D01*
X227871790Y-67669819D02*
X227919409Y-67622200D01*
X227919409Y-67622200D02*
X227871790Y-67574580D01*
X227871790Y-67574580D02*
X227871790Y-67669819D01*
X227443219Y-66765057D02*
X227395600Y-66717438D01*
X227395600Y-66717438D02*
X227300362Y-66669819D01*
X227300362Y-66669819D02*
X227062267Y-66669819D01*
X227062267Y-66669819D02*
X226967029Y-66717438D01*
X226967029Y-66717438D02*
X226919410Y-66765057D01*
X226919410Y-66765057D02*
X226871791Y-66860295D01*
X226871791Y-66860295D02*
X226871791Y-66955533D01*
X226871791Y-66955533D02*
X226919410Y-67098390D01*
X226919410Y-67098390D02*
X227490838Y-67669819D01*
X227490838Y-67669819D02*
X226871791Y-67669819D01*
X226443219Y-67574580D02*
X226395600Y-67622200D01*
X226395600Y-67622200D02*
X226443219Y-67669819D01*
X226443219Y-67669819D02*
X226490838Y-67622200D01*
X226490838Y-67622200D02*
X226443219Y-67574580D01*
X226443219Y-67574580D02*
X226443219Y-67669819D01*
X226014648Y-66765057D02*
X225967029Y-66717438D01*
X225967029Y-66717438D02*
X225871791Y-66669819D01*
X225871791Y-66669819D02*
X225633696Y-66669819D01*
X225633696Y-66669819D02*
X225538458Y-66717438D01*
X225538458Y-66717438D02*
X225490839Y-66765057D01*
X225490839Y-66765057D02*
X225443220Y-66860295D01*
X225443220Y-66860295D02*
X225443220Y-66955533D01*
X225443220Y-66955533D02*
X225490839Y-67098390D01*
X225490839Y-67098390D02*
X226062267Y-67669819D01*
X226062267Y-67669819D02*
X225443220Y-67669819D01*
X177741904Y-125954819D02*
X177741904Y-126764342D01*
X177741904Y-126764342D02*
X177694285Y-126859580D01*
X177694285Y-126859580D02*
X177646666Y-126907200D01*
X177646666Y-126907200D02*
X177551428Y-126954819D01*
X177551428Y-126954819D02*
X177360952Y-126954819D01*
X177360952Y-126954819D02*
X177265714Y-126907200D01*
X177265714Y-126907200D02*
X177218095Y-126859580D01*
X177218095Y-126859580D02*
X177170476Y-126764342D01*
X177170476Y-126764342D02*
X177170476Y-125954819D01*
X176218095Y-125954819D02*
X176694285Y-125954819D01*
X176694285Y-125954819D02*
X176741904Y-126431009D01*
X176741904Y-126431009D02*
X176694285Y-126383390D01*
X176694285Y-126383390D02*
X176599047Y-126335771D01*
X176599047Y-126335771D02*
X176360952Y-126335771D01*
X176360952Y-126335771D02*
X176265714Y-126383390D01*
X176265714Y-126383390D02*
X176218095Y-126431009D01*
X176218095Y-126431009D02*
X176170476Y-126526247D01*
X176170476Y-126526247D02*
X176170476Y-126764342D01*
X176170476Y-126764342D02*
X176218095Y-126859580D01*
X176218095Y-126859580D02*
X176265714Y-126907200D01*
X176265714Y-126907200D02*
X176360952Y-126954819D01*
X176360952Y-126954819D02*
X176599047Y-126954819D01*
X176599047Y-126954819D02*
X176694285Y-126907200D01*
X176694285Y-126907200D02*
X176741904Y-126859580D01*
X114422857Y-77254819D02*
X114756190Y-76778628D01*
X114994285Y-77254819D02*
X114994285Y-76254819D01*
X114994285Y-76254819D02*
X114613333Y-76254819D01*
X114613333Y-76254819D02*
X114518095Y-76302438D01*
X114518095Y-76302438D02*
X114470476Y-76350057D01*
X114470476Y-76350057D02*
X114422857Y-76445295D01*
X114422857Y-76445295D02*
X114422857Y-76588152D01*
X114422857Y-76588152D02*
X114470476Y-76683390D01*
X114470476Y-76683390D02*
X114518095Y-76731009D01*
X114518095Y-76731009D02*
X114613333Y-76778628D01*
X114613333Y-76778628D02*
X114994285Y-76778628D01*
X113470476Y-77254819D02*
X114041904Y-77254819D01*
X113756190Y-77254819D02*
X113756190Y-76254819D01*
X113756190Y-76254819D02*
X113851428Y-76397676D01*
X113851428Y-76397676D02*
X113946666Y-76492914D01*
X113946666Y-76492914D02*
X114041904Y-76540533D01*
X113137142Y-76254819D02*
X112470476Y-76254819D01*
X112470476Y-76254819D02*
X112899047Y-77254819D01*
X235921666Y-94254580D02*
X235969285Y-94302200D01*
X235969285Y-94302200D02*
X236112142Y-94349819D01*
X236112142Y-94349819D02*
X236207380Y-94349819D01*
X236207380Y-94349819D02*
X236350237Y-94302200D01*
X236350237Y-94302200D02*
X236445475Y-94206961D01*
X236445475Y-94206961D02*
X236493094Y-94111723D01*
X236493094Y-94111723D02*
X236540713Y-93921247D01*
X236540713Y-93921247D02*
X236540713Y-93778390D01*
X236540713Y-93778390D02*
X236493094Y-93587914D01*
X236493094Y-93587914D02*
X236445475Y-93492676D01*
X236445475Y-93492676D02*
X236350237Y-93397438D01*
X236350237Y-93397438D02*
X236207380Y-93349819D01*
X236207380Y-93349819D02*
X236112142Y-93349819D01*
X236112142Y-93349819D02*
X235969285Y-93397438D01*
X235969285Y-93397438D02*
X235921666Y-93445057D01*
X235540713Y-93445057D02*
X235493094Y-93397438D01*
X235493094Y-93397438D02*
X235397856Y-93349819D01*
X235397856Y-93349819D02*
X235159761Y-93349819D01*
X235159761Y-93349819D02*
X235064523Y-93397438D01*
X235064523Y-93397438D02*
X235016904Y-93445057D01*
X235016904Y-93445057D02*
X234969285Y-93540295D01*
X234969285Y-93540295D02*
X234969285Y-93635533D01*
X234969285Y-93635533D02*
X235016904Y-93778390D01*
X235016904Y-93778390D02*
X235588332Y-94349819D01*
X235588332Y-94349819D02*
X234969285Y-94349819D01*
X166022857Y-109759580D02*
X166070476Y-109807200D01*
X166070476Y-109807200D02*
X166213333Y-109854819D01*
X166213333Y-109854819D02*
X166308571Y-109854819D01*
X166308571Y-109854819D02*
X166451428Y-109807200D01*
X166451428Y-109807200D02*
X166546666Y-109711961D01*
X166546666Y-109711961D02*
X166594285Y-109616723D01*
X166594285Y-109616723D02*
X166641904Y-109426247D01*
X166641904Y-109426247D02*
X166641904Y-109283390D01*
X166641904Y-109283390D02*
X166594285Y-109092914D01*
X166594285Y-109092914D02*
X166546666Y-108997676D01*
X166546666Y-108997676D02*
X166451428Y-108902438D01*
X166451428Y-108902438D02*
X166308571Y-108854819D01*
X166308571Y-108854819D02*
X166213333Y-108854819D01*
X166213333Y-108854819D02*
X166070476Y-108902438D01*
X166070476Y-108902438D02*
X166022857Y-108950057D01*
X165689523Y-108854819D02*
X165070476Y-108854819D01*
X165070476Y-108854819D02*
X165403809Y-109235771D01*
X165403809Y-109235771D02*
X165260952Y-109235771D01*
X165260952Y-109235771D02*
X165165714Y-109283390D01*
X165165714Y-109283390D02*
X165118095Y-109331009D01*
X165118095Y-109331009D02*
X165070476Y-109426247D01*
X165070476Y-109426247D02*
X165070476Y-109664342D01*
X165070476Y-109664342D02*
X165118095Y-109759580D01*
X165118095Y-109759580D02*
X165165714Y-109807200D01*
X165165714Y-109807200D02*
X165260952Y-109854819D01*
X165260952Y-109854819D02*
X165546666Y-109854819D01*
X165546666Y-109854819D02*
X165641904Y-109807200D01*
X165641904Y-109807200D02*
X165689523Y-109759580D01*
X164213333Y-108854819D02*
X164403809Y-108854819D01*
X164403809Y-108854819D02*
X164499047Y-108902438D01*
X164499047Y-108902438D02*
X164546666Y-108950057D01*
X164546666Y-108950057D02*
X164641904Y-109092914D01*
X164641904Y-109092914D02*
X164689523Y-109283390D01*
X164689523Y-109283390D02*
X164689523Y-109664342D01*
X164689523Y-109664342D02*
X164641904Y-109759580D01*
X164641904Y-109759580D02*
X164594285Y-109807200D01*
X164594285Y-109807200D02*
X164499047Y-109854819D01*
X164499047Y-109854819D02*
X164308571Y-109854819D01*
X164308571Y-109854819D02*
X164213333Y-109807200D01*
X164213333Y-109807200D02*
X164165714Y-109759580D01*
X164165714Y-109759580D02*
X164118095Y-109664342D01*
X164118095Y-109664342D02*
X164118095Y-109426247D01*
X164118095Y-109426247D02*
X164165714Y-109331009D01*
X164165714Y-109331009D02*
X164213333Y-109283390D01*
X164213333Y-109283390D02*
X164308571Y-109235771D01*
X164308571Y-109235771D02*
X164499047Y-109235771D01*
X164499047Y-109235771D02*
X164594285Y-109283390D01*
X164594285Y-109283390D02*
X164641904Y-109331009D01*
X164641904Y-109331009D02*
X164689523Y-109426247D01*
X215022857Y-107604819D02*
X215356190Y-107128628D01*
X215594285Y-107604819D02*
X215594285Y-106604819D01*
X215594285Y-106604819D02*
X215213333Y-106604819D01*
X215213333Y-106604819D02*
X215118095Y-106652438D01*
X215118095Y-106652438D02*
X215070476Y-106700057D01*
X215070476Y-106700057D02*
X215022857Y-106795295D01*
X215022857Y-106795295D02*
X215022857Y-106938152D01*
X215022857Y-106938152D02*
X215070476Y-107033390D01*
X215070476Y-107033390D02*
X215118095Y-107081009D01*
X215118095Y-107081009D02*
X215213333Y-107128628D01*
X215213333Y-107128628D02*
X215594285Y-107128628D01*
X214070476Y-107604819D02*
X214641904Y-107604819D01*
X214356190Y-107604819D02*
X214356190Y-106604819D01*
X214356190Y-106604819D02*
X214451428Y-106747676D01*
X214451428Y-106747676D02*
X214546666Y-106842914D01*
X214546666Y-106842914D02*
X214641904Y-106890533D01*
X213118095Y-107604819D02*
X213689523Y-107604819D01*
X213403809Y-107604819D02*
X213403809Y-106604819D01*
X213403809Y-106604819D02*
X213499047Y-106747676D01*
X213499047Y-106747676D02*
X213594285Y-106842914D01*
X213594285Y-106842914D02*
X213689523Y-106890533D01*
X201446666Y-67229819D02*
X201779999Y-66753628D01*
X202018094Y-67229819D02*
X202018094Y-66229819D01*
X202018094Y-66229819D02*
X201637142Y-66229819D01*
X201637142Y-66229819D02*
X201541904Y-66277438D01*
X201541904Y-66277438D02*
X201494285Y-66325057D01*
X201494285Y-66325057D02*
X201446666Y-66420295D01*
X201446666Y-66420295D02*
X201446666Y-66563152D01*
X201446666Y-66563152D02*
X201494285Y-66658390D01*
X201494285Y-66658390D02*
X201541904Y-66706009D01*
X201541904Y-66706009D02*
X201637142Y-66753628D01*
X201637142Y-66753628D02*
X202018094Y-66753628D01*
X200589523Y-66563152D02*
X200589523Y-67229819D01*
X200827618Y-66182200D02*
X201065713Y-66896485D01*
X201065713Y-66896485D02*
X200446666Y-66896485D01*
X164422857Y-98859580D02*
X164470476Y-98907200D01*
X164470476Y-98907200D02*
X164613333Y-98954819D01*
X164613333Y-98954819D02*
X164708571Y-98954819D01*
X164708571Y-98954819D02*
X164851428Y-98907200D01*
X164851428Y-98907200D02*
X164946666Y-98811961D01*
X164946666Y-98811961D02*
X164994285Y-98716723D01*
X164994285Y-98716723D02*
X165041904Y-98526247D01*
X165041904Y-98526247D02*
X165041904Y-98383390D01*
X165041904Y-98383390D02*
X164994285Y-98192914D01*
X164994285Y-98192914D02*
X164946666Y-98097676D01*
X164946666Y-98097676D02*
X164851428Y-98002438D01*
X164851428Y-98002438D02*
X164708571Y-97954819D01*
X164708571Y-97954819D02*
X164613333Y-97954819D01*
X164613333Y-97954819D02*
X164470476Y-98002438D01*
X164470476Y-98002438D02*
X164422857Y-98050057D01*
X163565714Y-98288152D02*
X163565714Y-98954819D01*
X163803809Y-97907200D02*
X164041904Y-98621485D01*
X164041904Y-98621485D02*
X163422857Y-98621485D01*
X162518095Y-98954819D02*
X163089523Y-98954819D01*
X162803809Y-98954819D02*
X162803809Y-97954819D01*
X162803809Y-97954819D02*
X162899047Y-98097676D01*
X162899047Y-98097676D02*
X162994285Y-98192914D01*
X162994285Y-98192914D02*
X163089523Y-98240533D01*
X183946666Y-121504819D02*
X184279999Y-121028628D01*
X184518094Y-121504819D02*
X184518094Y-120504819D01*
X184518094Y-120504819D02*
X184137142Y-120504819D01*
X184137142Y-120504819D02*
X184041904Y-120552438D01*
X184041904Y-120552438D02*
X183994285Y-120600057D01*
X183994285Y-120600057D02*
X183946666Y-120695295D01*
X183946666Y-120695295D02*
X183946666Y-120838152D01*
X183946666Y-120838152D02*
X183994285Y-120933390D01*
X183994285Y-120933390D02*
X184041904Y-120981009D01*
X184041904Y-120981009D02*
X184137142Y-121028628D01*
X184137142Y-121028628D02*
X184518094Y-121028628D01*
X183613332Y-120504819D02*
X182946666Y-120504819D01*
X182946666Y-120504819D02*
X183375237Y-121504819D01*
X215746666Y-78154819D02*
X216079999Y-77678628D01*
X216318094Y-78154819D02*
X216318094Y-77154819D01*
X216318094Y-77154819D02*
X215937142Y-77154819D01*
X215937142Y-77154819D02*
X215841904Y-77202438D01*
X215841904Y-77202438D02*
X215794285Y-77250057D01*
X215794285Y-77250057D02*
X215746666Y-77345295D01*
X215746666Y-77345295D02*
X215746666Y-77488152D01*
X215746666Y-77488152D02*
X215794285Y-77583390D01*
X215794285Y-77583390D02*
X215841904Y-77631009D01*
X215841904Y-77631009D02*
X215937142Y-77678628D01*
X215937142Y-77678628D02*
X216318094Y-77678628D01*
X214794285Y-78154819D02*
X215365713Y-78154819D01*
X215079999Y-78154819D02*
X215079999Y-77154819D01*
X215079999Y-77154819D02*
X215175237Y-77297676D01*
X215175237Y-77297676D02*
X215270475Y-77392914D01*
X215270475Y-77392914D02*
X215365713Y-77440533D01*
X234022857Y-111654819D02*
X234356190Y-111178628D01*
X234594285Y-111654819D02*
X234594285Y-110654819D01*
X234594285Y-110654819D02*
X234213333Y-110654819D01*
X234213333Y-110654819D02*
X234118095Y-110702438D01*
X234118095Y-110702438D02*
X234070476Y-110750057D01*
X234070476Y-110750057D02*
X234022857Y-110845295D01*
X234022857Y-110845295D02*
X234022857Y-110988152D01*
X234022857Y-110988152D02*
X234070476Y-111083390D01*
X234070476Y-111083390D02*
X234118095Y-111131009D01*
X234118095Y-111131009D02*
X234213333Y-111178628D01*
X234213333Y-111178628D02*
X234594285Y-111178628D01*
X233070476Y-111654819D02*
X233641904Y-111654819D01*
X233356190Y-111654819D02*
X233356190Y-110654819D01*
X233356190Y-110654819D02*
X233451428Y-110797676D01*
X233451428Y-110797676D02*
X233546666Y-110892914D01*
X233546666Y-110892914D02*
X233641904Y-110940533D01*
X232213333Y-110654819D02*
X232403809Y-110654819D01*
X232403809Y-110654819D02*
X232499047Y-110702438D01*
X232499047Y-110702438D02*
X232546666Y-110750057D01*
X232546666Y-110750057D02*
X232641904Y-110892914D01*
X232641904Y-110892914D02*
X232689523Y-111083390D01*
X232689523Y-111083390D02*
X232689523Y-111464342D01*
X232689523Y-111464342D02*
X232641904Y-111559580D01*
X232641904Y-111559580D02*
X232594285Y-111607200D01*
X232594285Y-111607200D02*
X232499047Y-111654819D01*
X232499047Y-111654819D02*
X232308571Y-111654819D01*
X232308571Y-111654819D02*
X232213333Y-111607200D01*
X232213333Y-111607200D02*
X232165714Y-111559580D01*
X232165714Y-111559580D02*
X232118095Y-111464342D01*
X232118095Y-111464342D02*
X232118095Y-111226247D01*
X232118095Y-111226247D02*
X232165714Y-111131009D01*
X232165714Y-111131009D02*
X232213333Y-111083390D01*
X232213333Y-111083390D02*
X232308571Y-111035771D01*
X232308571Y-111035771D02*
X232499047Y-111035771D01*
X232499047Y-111035771D02*
X232594285Y-111083390D01*
X232594285Y-111083390D02*
X232641904Y-111131009D01*
X232641904Y-111131009D02*
X232689523Y-111226247D01*
X157518094Y-78254819D02*
X157518094Y-77254819D01*
X157518094Y-77254819D02*
X157279999Y-77254819D01*
X157279999Y-77254819D02*
X157137142Y-77302438D01*
X157137142Y-77302438D02*
X157041904Y-77397676D01*
X157041904Y-77397676D02*
X156994285Y-77492914D01*
X156994285Y-77492914D02*
X156946666Y-77683390D01*
X156946666Y-77683390D02*
X156946666Y-77826247D01*
X156946666Y-77826247D02*
X156994285Y-78016723D01*
X156994285Y-78016723D02*
X157041904Y-78111961D01*
X157041904Y-78111961D02*
X157137142Y-78207200D01*
X157137142Y-78207200D02*
X157279999Y-78254819D01*
X157279999Y-78254819D02*
X157518094Y-78254819D01*
X156089523Y-77254819D02*
X156279999Y-77254819D01*
X156279999Y-77254819D02*
X156375237Y-77302438D01*
X156375237Y-77302438D02*
X156422856Y-77350057D01*
X156422856Y-77350057D02*
X156518094Y-77492914D01*
X156518094Y-77492914D02*
X156565713Y-77683390D01*
X156565713Y-77683390D02*
X156565713Y-78064342D01*
X156565713Y-78064342D02*
X156518094Y-78159580D01*
X156518094Y-78159580D02*
X156470475Y-78207200D01*
X156470475Y-78207200D02*
X156375237Y-78254819D01*
X156375237Y-78254819D02*
X156184761Y-78254819D01*
X156184761Y-78254819D02*
X156089523Y-78207200D01*
X156089523Y-78207200D02*
X156041904Y-78159580D01*
X156041904Y-78159580D02*
X155994285Y-78064342D01*
X155994285Y-78064342D02*
X155994285Y-77826247D01*
X155994285Y-77826247D02*
X156041904Y-77731009D01*
X156041904Y-77731009D02*
X156089523Y-77683390D01*
X156089523Y-77683390D02*
X156184761Y-77635771D01*
X156184761Y-77635771D02*
X156375237Y-77635771D01*
X156375237Y-77635771D02*
X156470475Y-77683390D01*
X156470475Y-77683390D02*
X156518094Y-77731009D01*
X156518094Y-77731009D02*
X156565713Y-77826247D01*
X216346666Y-71259580D02*
X216394285Y-71307200D01*
X216394285Y-71307200D02*
X216537142Y-71354819D01*
X216537142Y-71354819D02*
X216632380Y-71354819D01*
X216632380Y-71354819D02*
X216775237Y-71307200D01*
X216775237Y-71307200D02*
X216870475Y-71211961D01*
X216870475Y-71211961D02*
X216918094Y-71116723D01*
X216918094Y-71116723D02*
X216965713Y-70926247D01*
X216965713Y-70926247D02*
X216965713Y-70783390D01*
X216965713Y-70783390D02*
X216918094Y-70592914D01*
X216918094Y-70592914D02*
X216870475Y-70497676D01*
X216870475Y-70497676D02*
X216775237Y-70402438D01*
X216775237Y-70402438D02*
X216632380Y-70354819D01*
X216632380Y-70354819D02*
X216537142Y-70354819D01*
X216537142Y-70354819D02*
X216394285Y-70402438D01*
X216394285Y-70402438D02*
X216346666Y-70450057D01*
X216013332Y-70354819D02*
X215394285Y-70354819D01*
X215394285Y-70354819D02*
X215727618Y-70735771D01*
X215727618Y-70735771D02*
X215584761Y-70735771D01*
X215584761Y-70735771D02*
X215489523Y-70783390D01*
X215489523Y-70783390D02*
X215441904Y-70831009D01*
X215441904Y-70831009D02*
X215394285Y-70926247D01*
X215394285Y-70926247D02*
X215394285Y-71164342D01*
X215394285Y-71164342D02*
X215441904Y-71259580D01*
X215441904Y-71259580D02*
X215489523Y-71307200D01*
X215489523Y-71307200D02*
X215584761Y-71354819D01*
X215584761Y-71354819D02*
X215870475Y-71354819D01*
X215870475Y-71354819D02*
X215965713Y-71307200D01*
X215965713Y-71307200D02*
X216013332Y-71259580D01*
X166141904Y-126054819D02*
X166141904Y-126864342D01*
X166141904Y-126864342D02*
X166094285Y-126959580D01*
X166094285Y-126959580D02*
X166046666Y-127007200D01*
X166046666Y-127007200D02*
X165951428Y-127054819D01*
X165951428Y-127054819D02*
X165760952Y-127054819D01*
X165760952Y-127054819D02*
X165665714Y-127007200D01*
X165665714Y-127007200D02*
X165618095Y-126959580D01*
X165618095Y-126959580D02*
X165570476Y-126864342D01*
X165570476Y-126864342D02*
X165570476Y-126054819D01*
X165189523Y-126054819D02*
X164522857Y-126054819D01*
X164522857Y-126054819D02*
X164951428Y-127054819D01*
X193646666Y-78184580D02*
X193694285Y-78232200D01*
X193694285Y-78232200D02*
X193837142Y-78279819D01*
X193837142Y-78279819D02*
X193932380Y-78279819D01*
X193932380Y-78279819D02*
X194075237Y-78232200D01*
X194075237Y-78232200D02*
X194170475Y-78136961D01*
X194170475Y-78136961D02*
X194218094Y-78041723D01*
X194218094Y-78041723D02*
X194265713Y-77851247D01*
X194265713Y-77851247D02*
X194265713Y-77708390D01*
X194265713Y-77708390D02*
X194218094Y-77517914D01*
X194218094Y-77517914D02*
X194170475Y-77422676D01*
X194170475Y-77422676D02*
X194075237Y-77327438D01*
X194075237Y-77327438D02*
X193932380Y-77279819D01*
X193932380Y-77279819D02*
X193837142Y-77279819D01*
X193837142Y-77279819D02*
X193694285Y-77327438D01*
X193694285Y-77327438D02*
X193646666Y-77375057D01*
X193313332Y-77279819D02*
X192646666Y-77279819D01*
X192646666Y-77279819D02*
X193075237Y-78279819D01*
X151922857Y-133704819D02*
X152256190Y-133228628D01*
X152494285Y-133704819D02*
X152494285Y-132704819D01*
X152494285Y-132704819D02*
X152113333Y-132704819D01*
X152113333Y-132704819D02*
X152018095Y-132752438D01*
X152018095Y-132752438D02*
X151970476Y-132800057D01*
X151970476Y-132800057D02*
X151922857Y-132895295D01*
X151922857Y-132895295D02*
X151922857Y-133038152D01*
X151922857Y-133038152D02*
X151970476Y-133133390D01*
X151970476Y-133133390D02*
X152018095Y-133181009D01*
X152018095Y-133181009D02*
X152113333Y-133228628D01*
X152113333Y-133228628D02*
X152494285Y-133228628D01*
X151589523Y-132704819D02*
X150970476Y-132704819D01*
X150970476Y-132704819D02*
X151303809Y-133085771D01*
X151303809Y-133085771D02*
X151160952Y-133085771D01*
X151160952Y-133085771D02*
X151065714Y-133133390D01*
X151065714Y-133133390D02*
X151018095Y-133181009D01*
X151018095Y-133181009D02*
X150970476Y-133276247D01*
X150970476Y-133276247D02*
X150970476Y-133514342D01*
X150970476Y-133514342D02*
X151018095Y-133609580D01*
X151018095Y-133609580D02*
X151065714Y-133657200D01*
X151065714Y-133657200D02*
X151160952Y-133704819D01*
X151160952Y-133704819D02*
X151446666Y-133704819D01*
X151446666Y-133704819D02*
X151541904Y-133657200D01*
X151541904Y-133657200D02*
X151589523Y-133609580D01*
X150494285Y-133704819D02*
X150303809Y-133704819D01*
X150303809Y-133704819D02*
X150208571Y-133657200D01*
X150208571Y-133657200D02*
X150160952Y-133609580D01*
X150160952Y-133609580D02*
X150065714Y-133466723D01*
X150065714Y-133466723D02*
X150018095Y-133276247D01*
X150018095Y-133276247D02*
X150018095Y-132895295D01*
X150018095Y-132895295D02*
X150065714Y-132800057D01*
X150065714Y-132800057D02*
X150113333Y-132752438D01*
X150113333Y-132752438D02*
X150208571Y-132704819D01*
X150208571Y-132704819D02*
X150399047Y-132704819D01*
X150399047Y-132704819D02*
X150494285Y-132752438D01*
X150494285Y-132752438D02*
X150541904Y-132800057D01*
X150541904Y-132800057D02*
X150589523Y-132895295D01*
X150589523Y-132895295D02*
X150589523Y-133133390D01*
X150589523Y-133133390D02*
X150541904Y-133228628D01*
X150541904Y-133228628D02*
X150494285Y-133276247D01*
X150494285Y-133276247D02*
X150399047Y-133323866D01*
X150399047Y-133323866D02*
X150208571Y-133323866D01*
X150208571Y-133323866D02*
X150113333Y-133276247D01*
X150113333Y-133276247D02*
X150065714Y-133228628D01*
X150065714Y-133228628D02*
X150018095Y-133133390D01*
X189841904Y-115404819D02*
X189841904Y-116214342D01*
X189841904Y-116214342D02*
X189794285Y-116309580D01*
X189794285Y-116309580D02*
X189746666Y-116357200D01*
X189746666Y-116357200D02*
X189651428Y-116404819D01*
X189651428Y-116404819D02*
X189460952Y-116404819D01*
X189460952Y-116404819D02*
X189365714Y-116357200D01*
X189365714Y-116357200D02*
X189318095Y-116309580D01*
X189318095Y-116309580D02*
X189270476Y-116214342D01*
X189270476Y-116214342D02*
X189270476Y-115404819D01*
X188841904Y-115500057D02*
X188794285Y-115452438D01*
X188794285Y-115452438D02*
X188699047Y-115404819D01*
X188699047Y-115404819D02*
X188460952Y-115404819D01*
X188460952Y-115404819D02*
X188365714Y-115452438D01*
X188365714Y-115452438D02*
X188318095Y-115500057D01*
X188318095Y-115500057D02*
X188270476Y-115595295D01*
X188270476Y-115595295D02*
X188270476Y-115690533D01*
X188270476Y-115690533D02*
X188318095Y-115833390D01*
X188318095Y-115833390D02*
X188889523Y-116404819D01*
X188889523Y-116404819D02*
X188270476Y-116404819D01*
X205422857Y-121559580D02*
X205470476Y-121607200D01*
X205470476Y-121607200D02*
X205613333Y-121654819D01*
X205613333Y-121654819D02*
X205708571Y-121654819D01*
X205708571Y-121654819D02*
X205851428Y-121607200D01*
X205851428Y-121607200D02*
X205946666Y-121511961D01*
X205946666Y-121511961D02*
X205994285Y-121416723D01*
X205994285Y-121416723D02*
X206041904Y-121226247D01*
X206041904Y-121226247D02*
X206041904Y-121083390D01*
X206041904Y-121083390D02*
X205994285Y-120892914D01*
X205994285Y-120892914D02*
X205946666Y-120797676D01*
X205946666Y-120797676D02*
X205851428Y-120702438D01*
X205851428Y-120702438D02*
X205708571Y-120654819D01*
X205708571Y-120654819D02*
X205613333Y-120654819D01*
X205613333Y-120654819D02*
X205470476Y-120702438D01*
X205470476Y-120702438D02*
X205422857Y-120750057D01*
X205041904Y-120750057D02*
X204994285Y-120702438D01*
X204994285Y-120702438D02*
X204899047Y-120654819D01*
X204899047Y-120654819D02*
X204660952Y-120654819D01*
X204660952Y-120654819D02*
X204565714Y-120702438D01*
X204565714Y-120702438D02*
X204518095Y-120750057D01*
X204518095Y-120750057D02*
X204470476Y-120845295D01*
X204470476Y-120845295D02*
X204470476Y-120940533D01*
X204470476Y-120940533D02*
X204518095Y-121083390D01*
X204518095Y-121083390D02*
X205089523Y-121654819D01*
X205089523Y-121654819D02*
X204470476Y-121654819D01*
X203613333Y-120988152D02*
X203613333Y-121654819D01*
X203851428Y-120607200D02*
X204089523Y-121321485D01*
X204089523Y-121321485D02*
X203470476Y-121321485D01*
X183746666Y-124304819D02*
X184079999Y-123828628D01*
X184318094Y-124304819D02*
X184318094Y-123304819D01*
X184318094Y-123304819D02*
X183937142Y-123304819D01*
X183937142Y-123304819D02*
X183841904Y-123352438D01*
X183841904Y-123352438D02*
X183794285Y-123400057D01*
X183794285Y-123400057D02*
X183746666Y-123495295D01*
X183746666Y-123495295D02*
X183746666Y-123638152D01*
X183746666Y-123638152D02*
X183794285Y-123733390D01*
X183794285Y-123733390D02*
X183841904Y-123781009D01*
X183841904Y-123781009D02*
X183937142Y-123828628D01*
X183937142Y-123828628D02*
X184318094Y-123828628D01*
X182889523Y-123304819D02*
X183079999Y-123304819D01*
X183079999Y-123304819D02*
X183175237Y-123352438D01*
X183175237Y-123352438D02*
X183222856Y-123400057D01*
X183222856Y-123400057D02*
X183318094Y-123542914D01*
X183318094Y-123542914D02*
X183365713Y-123733390D01*
X183365713Y-123733390D02*
X183365713Y-124114342D01*
X183365713Y-124114342D02*
X183318094Y-124209580D01*
X183318094Y-124209580D02*
X183270475Y-124257200D01*
X183270475Y-124257200D02*
X183175237Y-124304819D01*
X183175237Y-124304819D02*
X182984761Y-124304819D01*
X182984761Y-124304819D02*
X182889523Y-124257200D01*
X182889523Y-124257200D02*
X182841904Y-124209580D01*
X182841904Y-124209580D02*
X182794285Y-124114342D01*
X182794285Y-124114342D02*
X182794285Y-123876247D01*
X182794285Y-123876247D02*
X182841904Y-123781009D01*
X182841904Y-123781009D02*
X182889523Y-123733390D01*
X182889523Y-123733390D02*
X182984761Y-123685771D01*
X182984761Y-123685771D02*
X183175237Y-123685771D01*
X183175237Y-123685771D02*
X183270475Y-123733390D01*
X183270475Y-123733390D02*
X183318094Y-123781009D01*
X183318094Y-123781009D02*
X183365713Y-123876247D01*
X233546666Y-78759580D02*
X233594285Y-78807200D01*
X233594285Y-78807200D02*
X233737142Y-78854819D01*
X233737142Y-78854819D02*
X233832380Y-78854819D01*
X233832380Y-78854819D02*
X233975237Y-78807200D01*
X233975237Y-78807200D02*
X234070475Y-78711961D01*
X234070475Y-78711961D02*
X234118094Y-78616723D01*
X234118094Y-78616723D02*
X234165713Y-78426247D01*
X234165713Y-78426247D02*
X234165713Y-78283390D01*
X234165713Y-78283390D02*
X234118094Y-78092914D01*
X234118094Y-78092914D02*
X234070475Y-77997676D01*
X234070475Y-77997676D02*
X233975237Y-77902438D01*
X233975237Y-77902438D02*
X233832380Y-77854819D01*
X233832380Y-77854819D02*
X233737142Y-77854819D01*
X233737142Y-77854819D02*
X233594285Y-77902438D01*
X233594285Y-77902438D02*
X233546666Y-77950057D01*
X232689523Y-78188152D02*
X232689523Y-78854819D01*
X232927618Y-77807200D02*
X233165713Y-78521485D01*
X233165713Y-78521485D02*
X232546666Y-78521485D01*
X109313332Y-67107200D02*
X109170475Y-67154819D01*
X109170475Y-67154819D02*
X108932380Y-67154819D01*
X108932380Y-67154819D02*
X108837142Y-67107200D01*
X108837142Y-67107200D02*
X108789523Y-67059580D01*
X108789523Y-67059580D02*
X108741904Y-66964342D01*
X108741904Y-66964342D02*
X108741904Y-66869104D01*
X108741904Y-66869104D02*
X108789523Y-66773866D01*
X108789523Y-66773866D02*
X108837142Y-66726247D01*
X108837142Y-66726247D02*
X108932380Y-66678628D01*
X108932380Y-66678628D02*
X109122856Y-66631009D01*
X109122856Y-66631009D02*
X109218094Y-66583390D01*
X109218094Y-66583390D02*
X109265713Y-66535771D01*
X109265713Y-66535771D02*
X109313332Y-66440533D01*
X109313332Y-66440533D02*
X109313332Y-66345295D01*
X109313332Y-66345295D02*
X109265713Y-66250057D01*
X109265713Y-66250057D02*
X109218094Y-66202438D01*
X109218094Y-66202438D02*
X109122856Y-66154819D01*
X109122856Y-66154819D02*
X108884761Y-66154819D01*
X108884761Y-66154819D02*
X108741904Y-66202438D01*
X108408570Y-66154819D02*
X108170475Y-67154819D01*
X108170475Y-67154819D02*
X107979999Y-66440533D01*
X107979999Y-66440533D02*
X107789523Y-67154819D01*
X107789523Y-67154819D02*
X107551428Y-66154819D01*
X106646666Y-67154819D02*
X107218094Y-67154819D01*
X106932380Y-67154819D02*
X106932380Y-66154819D01*
X106932380Y-66154819D02*
X107027618Y-66297676D01*
X107027618Y-66297676D02*
X107122856Y-66392914D01*
X107122856Y-66392914D02*
X107218094Y-66440533D01*
X142822857Y-133659580D02*
X142870476Y-133707200D01*
X142870476Y-133707200D02*
X143013333Y-133754819D01*
X143013333Y-133754819D02*
X143108571Y-133754819D01*
X143108571Y-133754819D02*
X143251428Y-133707200D01*
X143251428Y-133707200D02*
X143346666Y-133611961D01*
X143346666Y-133611961D02*
X143394285Y-133516723D01*
X143394285Y-133516723D02*
X143441904Y-133326247D01*
X143441904Y-133326247D02*
X143441904Y-133183390D01*
X143441904Y-133183390D02*
X143394285Y-132992914D01*
X143394285Y-132992914D02*
X143346666Y-132897676D01*
X143346666Y-132897676D02*
X143251428Y-132802438D01*
X143251428Y-132802438D02*
X143108571Y-132754819D01*
X143108571Y-132754819D02*
X143013333Y-132754819D01*
X143013333Y-132754819D02*
X142870476Y-132802438D01*
X142870476Y-132802438D02*
X142822857Y-132850057D01*
X141965714Y-133088152D02*
X141965714Y-133754819D01*
X142203809Y-132707200D02*
X142441904Y-133421485D01*
X142441904Y-133421485D02*
X141822857Y-133421485D01*
X141251428Y-132754819D02*
X141156190Y-132754819D01*
X141156190Y-132754819D02*
X141060952Y-132802438D01*
X141060952Y-132802438D02*
X141013333Y-132850057D01*
X141013333Y-132850057D02*
X140965714Y-132945295D01*
X140965714Y-132945295D02*
X140918095Y-133135771D01*
X140918095Y-133135771D02*
X140918095Y-133373866D01*
X140918095Y-133373866D02*
X140965714Y-133564342D01*
X140965714Y-133564342D02*
X141013333Y-133659580D01*
X141013333Y-133659580D02*
X141060952Y-133707200D01*
X141060952Y-133707200D02*
X141156190Y-133754819D01*
X141156190Y-133754819D02*
X141251428Y-133754819D01*
X141251428Y-133754819D02*
X141346666Y-133707200D01*
X141346666Y-133707200D02*
X141394285Y-133659580D01*
X141394285Y-133659580D02*
X141441904Y-133564342D01*
X141441904Y-133564342D02*
X141489523Y-133373866D01*
X141489523Y-133373866D02*
X141489523Y-133135771D01*
X141489523Y-133135771D02*
X141441904Y-132945295D01*
X141441904Y-132945295D02*
X141394285Y-132850057D01*
X141394285Y-132850057D02*
X141346666Y-132802438D01*
X141346666Y-132802438D02*
X141251428Y-132754819D01*
X210546666Y-94854819D02*
X210879999Y-94378628D01*
X211118094Y-94854819D02*
X211118094Y-93854819D01*
X211118094Y-93854819D02*
X210737142Y-93854819D01*
X210737142Y-93854819D02*
X210641904Y-93902438D01*
X210641904Y-93902438D02*
X210594285Y-93950057D01*
X210594285Y-93950057D02*
X210546666Y-94045295D01*
X210546666Y-94045295D02*
X210546666Y-94188152D01*
X210546666Y-94188152D02*
X210594285Y-94283390D01*
X210594285Y-94283390D02*
X210641904Y-94331009D01*
X210641904Y-94331009D02*
X210737142Y-94378628D01*
X210737142Y-94378628D02*
X211118094Y-94378628D01*
X210070475Y-94854819D02*
X209879999Y-94854819D01*
X209879999Y-94854819D02*
X209784761Y-94807200D01*
X209784761Y-94807200D02*
X209737142Y-94759580D01*
X209737142Y-94759580D02*
X209641904Y-94616723D01*
X209641904Y-94616723D02*
X209594285Y-94426247D01*
X209594285Y-94426247D02*
X209594285Y-94045295D01*
X209594285Y-94045295D02*
X209641904Y-93950057D01*
X209641904Y-93950057D02*
X209689523Y-93902438D01*
X209689523Y-93902438D02*
X209784761Y-93854819D01*
X209784761Y-93854819D02*
X209975237Y-93854819D01*
X209975237Y-93854819D02*
X210070475Y-93902438D01*
X210070475Y-93902438D02*
X210118094Y-93950057D01*
X210118094Y-93950057D02*
X210165713Y-94045295D01*
X210165713Y-94045295D02*
X210165713Y-94283390D01*
X210165713Y-94283390D02*
X210118094Y-94378628D01*
X210118094Y-94378628D02*
X210070475Y-94426247D01*
X210070475Y-94426247D02*
X209975237Y-94473866D01*
X209975237Y-94473866D02*
X209784761Y-94473866D01*
X209784761Y-94473866D02*
X209689523Y-94426247D01*
X209689523Y-94426247D02*
X209641904Y-94378628D01*
X209641904Y-94378628D02*
X209594285Y-94283390D01*
X117522857Y-131154819D02*
X117856190Y-130678628D01*
X118094285Y-131154819D02*
X118094285Y-130154819D01*
X118094285Y-130154819D02*
X117713333Y-130154819D01*
X117713333Y-130154819D02*
X117618095Y-130202438D01*
X117618095Y-130202438D02*
X117570476Y-130250057D01*
X117570476Y-130250057D02*
X117522857Y-130345295D01*
X117522857Y-130345295D02*
X117522857Y-130488152D01*
X117522857Y-130488152D02*
X117570476Y-130583390D01*
X117570476Y-130583390D02*
X117618095Y-130631009D01*
X117618095Y-130631009D02*
X117713333Y-130678628D01*
X117713333Y-130678628D02*
X118094285Y-130678628D01*
X117189523Y-130154819D02*
X116570476Y-130154819D01*
X116570476Y-130154819D02*
X116903809Y-130535771D01*
X116903809Y-130535771D02*
X116760952Y-130535771D01*
X116760952Y-130535771D02*
X116665714Y-130583390D01*
X116665714Y-130583390D02*
X116618095Y-130631009D01*
X116618095Y-130631009D02*
X116570476Y-130726247D01*
X116570476Y-130726247D02*
X116570476Y-130964342D01*
X116570476Y-130964342D02*
X116618095Y-131059580D01*
X116618095Y-131059580D02*
X116665714Y-131107200D01*
X116665714Y-131107200D02*
X116760952Y-131154819D01*
X116760952Y-131154819D02*
X117046666Y-131154819D01*
X117046666Y-131154819D02*
X117141904Y-131107200D01*
X117141904Y-131107200D02*
X117189523Y-131059580D01*
X115665714Y-130154819D02*
X116141904Y-130154819D01*
X116141904Y-130154819D02*
X116189523Y-130631009D01*
X116189523Y-130631009D02*
X116141904Y-130583390D01*
X116141904Y-130583390D02*
X116046666Y-130535771D01*
X116046666Y-130535771D02*
X115808571Y-130535771D01*
X115808571Y-130535771D02*
X115713333Y-130583390D01*
X115713333Y-130583390D02*
X115665714Y-130631009D01*
X115665714Y-130631009D02*
X115618095Y-130726247D01*
X115618095Y-130726247D02*
X115618095Y-130964342D01*
X115618095Y-130964342D02*
X115665714Y-131059580D01*
X115665714Y-131059580D02*
X115713333Y-131107200D01*
X115713333Y-131107200D02*
X115808571Y-131154819D01*
X115808571Y-131154819D02*
X116046666Y-131154819D01*
X116046666Y-131154819D02*
X116141904Y-131107200D01*
X116141904Y-131107200D02*
X116189523Y-131059580D01*
X117522857Y-128654819D02*
X117856190Y-128178628D01*
X118094285Y-128654819D02*
X118094285Y-127654819D01*
X118094285Y-127654819D02*
X117713333Y-127654819D01*
X117713333Y-127654819D02*
X117618095Y-127702438D01*
X117618095Y-127702438D02*
X117570476Y-127750057D01*
X117570476Y-127750057D02*
X117522857Y-127845295D01*
X117522857Y-127845295D02*
X117522857Y-127988152D01*
X117522857Y-127988152D02*
X117570476Y-128083390D01*
X117570476Y-128083390D02*
X117618095Y-128131009D01*
X117618095Y-128131009D02*
X117713333Y-128178628D01*
X117713333Y-128178628D02*
X118094285Y-128178628D01*
X117189523Y-127654819D02*
X116570476Y-127654819D01*
X116570476Y-127654819D02*
X116903809Y-128035771D01*
X116903809Y-128035771D02*
X116760952Y-128035771D01*
X116760952Y-128035771D02*
X116665714Y-128083390D01*
X116665714Y-128083390D02*
X116618095Y-128131009D01*
X116618095Y-128131009D02*
X116570476Y-128226247D01*
X116570476Y-128226247D02*
X116570476Y-128464342D01*
X116570476Y-128464342D02*
X116618095Y-128559580D01*
X116618095Y-128559580D02*
X116665714Y-128607200D01*
X116665714Y-128607200D02*
X116760952Y-128654819D01*
X116760952Y-128654819D02*
X117046666Y-128654819D01*
X117046666Y-128654819D02*
X117141904Y-128607200D01*
X117141904Y-128607200D02*
X117189523Y-128559580D01*
X116237142Y-127654819D02*
X115618095Y-127654819D01*
X115618095Y-127654819D02*
X115951428Y-128035771D01*
X115951428Y-128035771D02*
X115808571Y-128035771D01*
X115808571Y-128035771D02*
X115713333Y-128083390D01*
X115713333Y-128083390D02*
X115665714Y-128131009D01*
X115665714Y-128131009D02*
X115618095Y-128226247D01*
X115618095Y-128226247D02*
X115618095Y-128464342D01*
X115618095Y-128464342D02*
X115665714Y-128559580D01*
X115665714Y-128559580D02*
X115713333Y-128607200D01*
X115713333Y-128607200D02*
X115808571Y-128654819D01*
X115808571Y-128654819D02*
X116094285Y-128654819D01*
X116094285Y-128654819D02*
X116189523Y-128607200D01*
X116189523Y-128607200D02*
X116237142Y-128559580D01*
X219422857Y-95959580D02*
X219470476Y-96007200D01*
X219470476Y-96007200D02*
X219613333Y-96054819D01*
X219613333Y-96054819D02*
X219708571Y-96054819D01*
X219708571Y-96054819D02*
X219851428Y-96007200D01*
X219851428Y-96007200D02*
X219946666Y-95911961D01*
X219946666Y-95911961D02*
X219994285Y-95816723D01*
X219994285Y-95816723D02*
X220041904Y-95626247D01*
X220041904Y-95626247D02*
X220041904Y-95483390D01*
X220041904Y-95483390D02*
X219994285Y-95292914D01*
X219994285Y-95292914D02*
X219946666Y-95197676D01*
X219946666Y-95197676D02*
X219851428Y-95102438D01*
X219851428Y-95102438D02*
X219708571Y-95054819D01*
X219708571Y-95054819D02*
X219613333Y-95054819D01*
X219613333Y-95054819D02*
X219470476Y-95102438D01*
X219470476Y-95102438D02*
X219422857Y-95150057D01*
X218470476Y-96054819D02*
X219041904Y-96054819D01*
X218756190Y-96054819D02*
X218756190Y-95054819D01*
X218756190Y-95054819D02*
X218851428Y-95197676D01*
X218851428Y-95197676D02*
X218946666Y-95292914D01*
X218946666Y-95292914D02*
X219041904Y-95340533D01*
X218089523Y-95150057D02*
X218041904Y-95102438D01*
X218041904Y-95102438D02*
X217946666Y-95054819D01*
X217946666Y-95054819D02*
X217708571Y-95054819D01*
X217708571Y-95054819D02*
X217613333Y-95102438D01*
X217613333Y-95102438D02*
X217565714Y-95150057D01*
X217565714Y-95150057D02*
X217518095Y-95245295D01*
X217518095Y-95245295D02*
X217518095Y-95340533D01*
X217518095Y-95340533D02*
X217565714Y-95483390D01*
X217565714Y-95483390D02*
X218137142Y-96054819D01*
X218137142Y-96054819D02*
X217518095Y-96054819D01*
X169222857Y-100959580D02*
X169270476Y-101007200D01*
X169270476Y-101007200D02*
X169413333Y-101054819D01*
X169413333Y-101054819D02*
X169508571Y-101054819D01*
X169508571Y-101054819D02*
X169651428Y-101007200D01*
X169651428Y-101007200D02*
X169746666Y-100911961D01*
X169746666Y-100911961D02*
X169794285Y-100816723D01*
X169794285Y-100816723D02*
X169841904Y-100626247D01*
X169841904Y-100626247D02*
X169841904Y-100483390D01*
X169841904Y-100483390D02*
X169794285Y-100292914D01*
X169794285Y-100292914D02*
X169746666Y-100197676D01*
X169746666Y-100197676D02*
X169651428Y-100102438D01*
X169651428Y-100102438D02*
X169508571Y-100054819D01*
X169508571Y-100054819D02*
X169413333Y-100054819D01*
X169413333Y-100054819D02*
X169270476Y-100102438D01*
X169270476Y-100102438D02*
X169222857Y-100150057D01*
X168365714Y-100388152D02*
X168365714Y-101054819D01*
X168603809Y-100007200D02*
X168841904Y-100721485D01*
X168841904Y-100721485D02*
X168222857Y-100721485D01*
X167937142Y-100054819D02*
X167318095Y-100054819D01*
X167318095Y-100054819D02*
X167651428Y-100435771D01*
X167651428Y-100435771D02*
X167508571Y-100435771D01*
X167508571Y-100435771D02*
X167413333Y-100483390D01*
X167413333Y-100483390D02*
X167365714Y-100531009D01*
X167365714Y-100531009D02*
X167318095Y-100626247D01*
X167318095Y-100626247D02*
X167318095Y-100864342D01*
X167318095Y-100864342D02*
X167365714Y-100959580D01*
X167365714Y-100959580D02*
X167413333Y-101007200D01*
X167413333Y-101007200D02*
X167508571Y-101054819D01*
X167508571Y-101054819D02*
X167794285Y-101054819D01*
X167794285Y-101054819D02*
X167889523Y-101007200D01*
X167889523Y-101007200D02*
X167937142Y-100959580D01*
X202246666Y-75984580D02*
X202294285Y-76032200D01*
X202294285Y-76032200D02*
X202437142Y-76079819D01*
X202437142Y-76079819D02*
X202532380Y-76079819D01*
X202532380Y-76079819D02*
X202675237Y-76032200D01*
X202675237Y-76032200D02*
X202770475Y-75936961D01*
X202770475Y-75936961D02*
X202818094Y-75841723D01*
X202818094Y-75841723D02*
X202865713Y-75651247D01*
X202865713Y-75651247D02*
X202865713Y-75508390D01*
X202865713Y-75508390D02*
X202818094Y-75317914D01*
X202818094Y-75317914D02*
X202770475Y-75222676D01*
X202770475Y-75222676D02*
X202675237Y-75127438D01*
X202675237Y-75127438D02*
X202532380Y-75079819D01*
X202532380Y-75079819D02*
X202437142Y-75079819D01*
X202437142Y-75079819D02*
X202294285Y-75127438D01*
X202294285Y-75127438D02*
X202246666Y-75175057D01*
X201341904Y-75079819D02*
X201818094Y-75079819D01*
X201818094Y-75079819D02*
X201865713Y-75556009D01*
X201865713Y-75556009D02*
X201818094Y-75508390D01*
X201818094Y-75508390D02*
X201722856Y-75460771D01*
X201722856Y-75460771D02*
X201484761Y-75460771D01*
X201484761Y-75460771D02*
X201389523Y-75508390D01*
X201389523Y-75508390D02*
X201341904Y-75556009D01*
X201341904Y-75556009D02*
X201294285Y-75651247D01*
X201294285Y-75651247D02*
X201294285Y-75889342D01*
X201294285Y-75889342D02*
X201341904Y-75984580D01*
X201341904Y-75984580D02*
X201389523Y-76032200D01*
X201389523Y-76032200D02*
X201484761Y-76079819D01*
X201484761Y-76079819D02*
X201722856Y-76079819D01*
X201722856Y-76079819D02*
X201818094Y-76032200D01*
X201818094Y-76032200D02*
X201865713Y-75984580D01*
X191046666Y-78184580D02*
X191094285Y-78232200D01*
X191094285Y-78232200D02*
X191237142Y-78279819D01*
X191237142Y-78279819D02*
X191332380Y-78279819D01*
X191332380Y-78279819D02*
X191475237Y-78232200D01*
X191475237Y-78232200D02*
X191570475Y-78136961D01*
X191570475Y-78136961D02*
X191618094Y-78041723D01*
X191618094Y-78041723D02*
X191665713Y-77851247D01*
X191665713Y-77851247D02*
X191665713Y-77708390D01*
X191665713Y-77708390D02*
X191618094Y-77517914D01*
X191618094Y-77517914D02*
X191570475Y-77422676D01*
X191570475Y-77422676D02*
X191475237Y-77327438D01*
X191475237Y-77327438D02*
X191332380Y-77279819D01*
X191332380Y-77279819D02*
X191237142Y-77279819D01*
X191237142Y-77279819D02*
X191094285Y-77327438D01*
X191094285Y-77327438D02*
X191046666Y-77375057D01*
X190570475Y-78279819D02*
X190379999Y-78279819D01*
X190379999Y-78279819D02*
X190284761Y-78232200D01*
X190284761Y-78232200D02*
X190237142Y-78184580D01*
X190237142Y-78184580D02*
X190141904Y-78041723D01*
X190141904Y-78041723D02*
X190094285Y-77851247D01*
X190094285Y-77851247D02*
X190094285Y-77470295D01*
X190094285Y-77470295D02*
X190141904Y-77375057D01*
X190141904Y-77375057D02*
X190189523Y-77327438D01*
X190189523Y-77327438D02*
X190284761Y-77279819D01*
X190284761Y-77279819D02*
X190475237Y-77279819D01*
X190475237Y-77279819D02*
X190570475Y-77327438D01*
X190570475Y-77327438D02*
X190618094Y-77375057D01*
X190618094Y-77375057D02*
X190665713Y-77470295D01*
X190665713Y-77470295D02*
X190665713Y-77708390D01*
X190665713Y-77708390D02*
X190618094Y-77803628D01*
X190618094Y-77803628D02*
X190570475Y-77851247D01*
X190570475Y-77851247D02*
X190475237Y-77898866D01*
X190475237Y-77898866D02*
X190284761Y-77898866D01*
X190284761Y-77898866D02*
X190189523Y-77851247D01*
X190189523Y-77851247D02*
X190141904Y-77803628D01*
X190141904Y-77803628D02*
X190094285Y-77708390D01*
X182346666Y-127509580D02*
X182394285Y-127557200D01*
X182394285Y-127557200D02*
X182537142Y-127604819D01*
X182537142Y-127604819D02*
X182632380Y-127604819D01*
X182632380Y-127604819D02*
X182775237Y-127557200D01*
X182775237Y-127557200D02*
X182870475Y-127461961D01*
X182870475Y-127461961D02*
X182918094Y-127366723D01*
X182918094Y-127366723D02*
X182965713Y-127176247D01*
X182965713Y-127176247D02*
X182965713Y-127033390D01*
X182965713Y-127033390D02*
X182918094Y-126842914D01*
X182918094Y-126842914D02*
X182870475Y-126747676D01*
X182870475Y-126747676D02*
X182775237Y-126652438D01*
X182775237Y-126652438D02*
X182632380Y-126604819D01*
X182632380Y-126604819D02*
X182537142Y-126604819D01*
X182537142Y-126604819D02*
X182394285Y-126652438D01*
X182394285Y-126652438D02*
X182346666Y-126700057D01*
X181775237Y-127033390D02*
X181870475Y-126985771D01*
X181870475Y-126985771D02*
X181918094Y-126938152D01*
X181918094Y-126938152D02*
X181965713Y-126842914D01*
X181965713Y-126842914D02*
X181965713Y-126795295D01*
X181965713Y-126795295D02*
X181918094Y-126700057D01*
X181918094Y-126700057D02*
X181870475Y-126652438D01*
X181870475Y-126652438D02*
X181775237Y-126604819D01*
X181775237Y-126604819D02*
X181584761Y-126604819D01*
X181584761Y-126604819D02*
X181489523Y-126652438D01*
X181489523Y-126652438D02*
X181441904Y-126700057D01*
X181441904Y-126700057D02*
X181394285Y-126795295D01*
X181394285Y-126795295D02*
X181394285Y-126842914D01*
X181394285Y-126842914D02*
X181441904Y-126938152D01*
X181441904Y-126938152D02*
X181489523Y-126985771D01*
X181489523Y-126985771D02*
X181584761Y-127033390D01*
X181584761Y-127033390D02*
X181775237Y-127033390D01*
X181775237Y-127033390D02*
X181870475Y-127081009D01*
X181870475Y-127081009D02*
X181918094Y-127128628D01*
X181918094Y-127128628D02*
X181965713Y-127223866D01*
X181965713Y-127223866D02*
X181965713Y-127414342D01*
X181965713Y-127414342D02*
X181918094Y-127509580D01*
X181918094Y-127509580D02*
X181870475Y-127557200D01*
X181870475Y-127557200D02*
X181775237Y-127604819D01*
X181775237Y-127604819D02*
X181584761Y-127604819D01*
X181584761Y-127604819D02*
X181489523Y-127557200D01*
X181489523Y-127557200D02*
X181441904Y-127509580D01*
X181441904Y-127509580D02*
X181394285Y-127414342D01*
X181394285Y-127414342D02*
X181394285Y-127223866D01*
X181394285Y-127223866D02*
X181441904Y-127128628D01*
X181441904Y-127128628D02*
X181489523Y-127081009D01*
X181489523Y-127081009D02*
X181584761Y-127033390D01*
X115622857Y-73854819D02*
X115956190Y-73378628D01*
X116194285Y-73854819D02*
X116194285Y-72854819D01*
X116194285Y-72854819D02*
X115813333Y-72854819D01*
X115813333Y-72854819D02*
X115718095Y-72902438D01*
X115718095Y-72902438D02*
X115670476Y-72950057D01*
X115670476Y-72950057D02*
X115622857Y-73045295D01*
X115622857Y-73045295D02*
X115622857Y-73188152D01*
X115622857Y-73188152D02*
X115670476Y-73283390D01*
X115670476Y-73283390D02*
X115718095Y-73331009D01*
X115718095Y-73331009D02*
X115813333Y-73378628D01*
X115813333Y-73378628D02*
X116194285Y-73378628D01*
X114670476Y-73854819D02*
X115241904Y-73854819D01*
X114956190Y-73854819D02*
X114956190Y-72854819D01*
X114956190Y-72854819D02*
X115051428Y-72997676D01*
X115051428Y-72997676D02*
X115146666Y-73092914D01*
X115146666Y-73092914D02*
X115241904Y-73140533D01*
X113765714Y-72854819D02*
X114241904Y-72854819D01*
X114241904Y-72854819D02*
X114289523Y-73331009D01*
X114289523Y-73331009D02*
X114241904Y-73283390D01*
X114241904Y-73283390D02*
X114146666Y-73235771D01*
X114146666Y-73235771D02*
X113908571Y-73235771D01*
X113908571Y-73235771D02*
X113813333Y-73283390D01*
X113813333Y-73283390D02*
X113765714Y-73331009D01*
X113765714Y-73331009D02*
X113718095Y-73426247D01*
X113718095Y-73426247D02*
X113718095Y-73664342D01*
X113718095Y-73664342D02*
X113765714Y-73759580D01*
X113765714Y-73759580D02*
X113813333Y-73807200D01*
X113813333Y-73807200D02*
X113908571Y-73854819D01*
X113908571Y-73854819D02*
X114146666Y-73854819D01*
X114146666Y-73854819D02*
X114241904Y-73807200D01*
X114241904Y-73807200D02*
X114289523Y-73759580D01*
X209822857Y-121559580D02*
X209870476Y-121607200D01*
X209870476Y-121607200D02*
X210013333Y-121654819D01*
X210013333Y-121654819D02*
X210108571Y-121654819D01*
X210108571Y-121654819D02*
X210251428Y-121607200D01*
X210251428Y-121607200D02*
X210346666Y-121511961D01*
X210346666Y-121511961D02*
X210394285Y-121416723D01*
X210394285Y-121416723D02*
X210441904Y-121226247D01*
X210441904Y-121226247D02*
X210441904Y-121083390D01*
X210441904Y-121083390D02*
X210394285Y-120892914D01*
X210394285Y-120892914D02*
X210346666Y-120797676D01*
X210346666Y-120797676D02*
X210251428Y-120702438D01*
X210251428Y-120702438D02*
X210108571Y-120654819D01*
X210108571Y-120654819D02*
X210013333Y-120654819D01*
X210013333Y-120654819D02*
X209870476Y-120702438D01*
X209870476Y-120702438D02*
X209822857Y-120750057D01*
X209441904Y-120750057D02*
X209394285Y-120702438D01*
X209394285Y-120702438D02*
X209299047Y-120654819D01*
X209299047Y-120654819D02*
X209060952Y-120654819D01*
X209060952Y-120654819D02*
X208965714Y-120702438D01*
X208965714Y-120702438D02*
X208918095Y-120750057D01*
X208918095Y-120750057D02*
X208870476Y-120845295D01*
X208870476Y-120845295D02*
X208870476Y-120940533D01*
X208870476Y-120940533D02*
X208918095Y-121083390D01*
X208918095Y-121083390D02*
X209489523Y-121654819D01*
X209489523Y-121654819D02*
X208870476Y-121654819D01*
X207965714Y-120654819D02*
X208441904Y-120654819D01*
X208441904Y-120654819D02*
X208489523Y-121131009D01*
X208489523Y-121131009D02*
X208441904Y-121083390D01*
X208441904Y-121083390D02*
X208346666Y-121035771D01*
X208346666Y-121035771D02*
X208108571Y-121035771D01*
X208108571Y-121035771D02*
X208013333Y-121083390D01*
X208013333Y-121083390D02*
X207965714Y-121131009D01*
X207965714Y-121131009D02*
X207918095Y-121226247D01*
X207918095Y-121226247D02*
X207918095Y-121464342D01*
X207918095Y-121464342D02*
X207965714Y-121559580D01*
X207965714Y-121559580D02*
X208013333Y-121607200D01*
X208013333Y-121607200D02*
X208108571Y-121654819D01*
X208108571Y-121654819D02*
X208346666Y-121654819D01*
X208346666Y-121654819D02*
X208441904Y-121607200D01*
X208441904Y-121607200D02*
X208489523Y-121559580D01*
X215475238Y-75350057D02*
X215570476Y-75302438D01*
X215570476Y-75302438D02*
X215665714Y-75207200D01*
X215665714Y-75207200D02*
X215808571Y-75064342D01*
X215808571Y-75064342D02*
X215903809Y-75016723D01*
X215903809Y-75016723D02*
X215999047Y-75016723D01*
X215951428Y-75254819D02*
X216046666Y-75207200D01*
X216046666Y-75207200D02*
X216141904Y-75111961D01*
X216141904Y-75111961D02*
X216189523Y-74921485D01*
X216189523Y-74921485D02*
X216189523Y-74588152D01*
X216189523Y-74588152D02*
X216141904Y-74397676D01*
X216141904Y-74397676D02*
X216046666Y-74302438D01*
X216046666Y-74302438D02*
X215951428Y-74254819D01*
X215951428Y-74254819D02*
X215760952Y-74254819D01*
X215760952Y-74254819D02*
X215665714Y-74302438D01*
X215665714Y-74302438D02*
X215570476Y-74397676D01*
X215570476Y-74397676D02*
X215522857Y-74588152D01*
X215522857Y-74588152D02*
X215522857Y-74921485D01*
X215522857Y-74921485D02*
X215570476Y-75111961D01*
X215570476Y-75111961D02*
X215665714Y-75207200D01*
X215665714Y-75207200D02*
X215760952Y-75254819D01*
X215760952Y-75254819D02*
X215951428Y-75254819D01*
X214570476Y-75254819D02*
X215141904Y-75254819D01*
X214856190Y-75254819D02*
X214856190Y-74254819D01*
X214856190Y-74254819D02*
X214951428Y-74397676D01*
X214951428Y-74397676D02*
X215046666Y-74492914D01*
X215046666Y-74492914D02*
X215141904Y-74540533D01*
X142375238Y-124750057D02*
X142470476Y-124702438D01*
X142470476Y-124702438D02*
X142565714Y-124607200D01*
X142565714Y-124607200D02*
X142708571Y-124464342D01*
X142708571Y-124464342D02*
X142803809Y-124416723D01*
X142803809Y-124416723D02*
X142899047Y-124416723D01*
X142851428Y-124654819D02*
X142946666Y-124607200D01*
X142946666Y-124607200D02*
X143041904Y-124511961D01*
X143041904Y-124511961D02*
X143089523Y-124321485D01*
X143089523Y-124321485D02*
X143089523Y-123988152D01*
X143089523Y-123988152D02*
X143041904Y-123797676D01*
X143041904Y-123797676D02*
X142946666Y-123702438D01*
X142946666Y-123702438D02*
X142851428Y-123654819D01*
X142851428Y-123654819D02*
X142660952Y-123654819D01*
X142660952Y-123654819D02*
X142565714Y-123702438D01*
X142565714Y-123702438D02*
X142470476Y-123797676D01*
X142470476Y-123797676D02*
X142422857Y-123988152D01*
X142422857Y-123988152D02*
X142422857Y-124321485D01*
X142422857Y-124321485D02*
X142470476Y-124511961D01*
X142470476Y-124511961D02*
X142565714Y-124607200D01*
X142565714Y-124607200D02*
X142660952Y-124654819D01*
X142660952Y-124654819D02*
X142851428Y-124654819D01*
X142089523Y-123654819D02*
X141422857Y-123654819D01*
X141422857Y-123654819D02*
X141851428Y-124654819D01*
X203022857Y-94159580D02*
X203070476Y-94207200D01*
X203070476Y-94207200D02*
X203213333Y-94254819D01*
X203213333Y-94254819D02*
X203308571Y-94254819D01*
X203308571Y-94254819D02*
X203451428Y-94207200D01*
X203451428Y-94207200D02*
X203546666Y-94111961D01*
X203546666Y-94111961D02*
X203594285Y-94016723D01*
X203594285Y-94016723D02*
X203641904Y-93826247D01*
X203641904Y-93826247D02*
X203641904Y-93683390D01*
X203641904Y-93683390D02*
X203594285Y-93492914D01*
X203594285Y-93492914D02*
X203546666Y-93397676D01*
X203546666Y-93397676D02*
X203451428Y-93302438D01*
X203451428Y-93302438D02*
X203308571Y-93254819D01*
X203308571Y-93254819D02*
X203213333Y-93254819D01*
X203213333Y-93254819D02*
X203070476Y-93302438D01*
X203070476Y-93302438D02*
X203022857Y-93350057D01*
X202070476Y-94254819D02*
X202641904Y-94254819D01*
X202356190Y-94254819D02*
X202356190Y-93254819D01*
X202356190Y-93254819D02*
X202451428Y-93397676D01*
X202451428Y-93397676D02*
X202546666Y-93492914D01*
X202546666Y-93492914D02*
X202641904Y-93540533D01*
X201594285Y-94254819D02*
X201403809Y-94254819D01*
X201403809Y-94254819D02*
X201308571Y-94207200D01*
X201308571Y-94207200D02*
X201260952Y-94159580D01*
X201260952Y-94159580D02*
X201165714Y-94016723D01*
X201165714Y-94016723D02*
X201118095Y-93826247D01*
X201118095Y-93826247D02*
X201118095Y-93445295D01*
X201118095Y-93445295D02*
X201165714Y-93350057D01*
X201165714Y-93350057D02*
X201213333Y-93302438D01*
X201213333Y-93302438D02*
X201308571Y-93254819D01*
X201308571Y-93254819D02*
X201499047Y-93254819D01*
X201499047Y-93254819D02*
X201594285Y-93302438D01*
X201594285Y-93302438D02*
X201641904Y-93350057D01*
X201641904Y-93350057D02*
X201689523Y-93445295D01*
X201689523Y-93445295D02*
X201689523Y-93683390D01*
X201689523Y-93683390D02*
X201641904Y-93778628D01*
X201641904Y-93778628D02*
X201594285Y-93826247D01*
X201594285Y-93826247D02*
X201499047Y-93873866D01*
X201499047Y-93873866D02*
X201308571Y-93873866D01*
X201308571Y-93873866D02*
X201213333Y-93826247D01*
X201213333Y-93826247D02*
X201165714Y-93778628D01*
X201165714Y-93778628D02*
X201118095Y-93683390D01*
X225122857Y-109489580D02*
X225170476Y-109537200D01*
X225170476Y-109537200D02*
X225313333Y-109584819D01*
X225313333Y-109584819D02*
X225408571Y-109584819D01*
X225408571Y-109584819D02*
X225551428Y-109537200D01*
X225551428Y-109537200D02*
X225646666Y-109441961D01*
X225646666Y-109441961D02*
X225694285Y-109346723D01*
X225694285Y-109346723D02*
X225741904Y-109156247D01*
X225741904Y-109156247D02*
X225741904Y-109013390D01*
X225741904Y-109013390D02*
X225694285Y-108822914D01*
X225694285Y-108822914D02*
X225646666Y-108727676D01*
X225646666Y-108727676D02*
X225551428Y-108632438D01*
X225551428Y-108632438D02*
X225408571Y-108584819D01*
X225408571Y-108584819D02*
X225313333Y-108584819D01*
X225313333Y-108584819D02*
X225170476Y-108632438D01*
X225170476Y-108632438D02*
X225122857Y-108680057D01*
X224789523Y-108584819D02*
X224170476Y-108584819D01*
X224170476Y-108584819D02*
X224503809Y-108965771D01*
X224503809Y-108965771D02*
X224360952Y-108965771D01*
X224360952Y-108965771D02*
X224265714Y-109013390D01*
X224265714Y-109013390D02*
X224218095Y-109061009D01*
X224218095Y-109061009D02*
X224170476Y-109156247D01*
X224170476Y-109156247D02*
X224170476Y-109394342D01*
X224170476Y-109394342D02*
X224218095Y-109489580D01*
X224218095Y-109489580D02*
X224265714Y-109537200D01*
X224265714Y-109537200D02*
X224360952Y-109584819D01*
X224360952Y-109584819D02*
X224646666Y-109584819D01*
X224646666Y-109584819D02*
X224741904Y-109537200D01*
X224741904Y-109537200D02*
X224789523Y-109489580D01*
X223551428Y-108584819D02*
X223456190Y-108584819D01*
X223456190Y-108584819D02*
X223360952Y-108632438D01*
X223360952Y-108632438D02*
X223313333Y-108680057D01*
X223313333Y-108680057D02*
X223265714Y-108775295D01*
X223265714Y-108775295D02*
X223218095Y-108965771D01*
X223218095Y-108965771D02*
X223218095Y-109203866D01*
X223218095Y-109203866D02*
X223265714Y-109394342D01*
X223265714Y-109394342D02*
X223313333Y-109489580D01*
X223313333Y-109489580D02*
X223360952Y-109537200D01*
X223360952Y-109537200D02*
X223456190Y-109584819D01*
X223456190Y-109584819D02*
X223551428Y-109584819D01*
X223551428Y-109584819D02*
X223646666Y-109537200D01*
X223646666Y-109537200D02*
X223694285Y-109489580D01*
X223694285Y-109489580D02*
X223741904Y-109394342D01*
X223741904Y-109394342D02*
X223789523Y-109203866D01*
X223789523Y-109203866D02*
X223789523Y-108965771D01*
X223789523Y-108965771D02*
X223741904Y-108775295D01*
X223741904Y-108775295D02*
X223694285Y-108680057D01*
X223694285Y-108680057D02*
X223646666Y-108632438D01*
X223646666Y-108632438D02*
X223551428Y-108584819D01*
X183722857Y-125959580D02*
X183770476Y-126007200D01*
X183770476Y-126007200D02*
X183913333Y-126054819D01*
X183913333Y-126054819D02*
X184008571Y-126054819D01*
X184008571Y-126054819D02*
X184151428Y-126007200D01*
X184151428Y-126007200D02*
X184246666Y-125911961D01*
X184246666Y-125911961D02*
X184294285Y-125816723D01*
X184294285Y-125816723D02*
X184341904Y-125626247D01*
X184341904Y-125626247D02*
X184341904Y-125483390D01*
X184341904Y-125483390D02*
X184294285Y-125292914D01*
X184294285Y-125292914D02*
X184246666Y-125197676D01*
X184246666Y-125197676D02*
X184151428Y-125102438D01*
X184151428Y-125102438D02*
X184008571Y-125054819D01*
X184008571Y-125054819D02*
X183913333Y-125054819D01*
X183913333Y-125054819D02*
X183770476Y-125102438D01*
X183770476Y-125102438D02*
X183722857Y-125150057D01*
X182770476Y-126054819D02*
X183341904Y-126054819D01*
X183056190Y-126054819D02*
X183056190Y-125054819D01*
X183056190Y-125054819D02*
X183151428Y-125197676D01*
X183151428Y-125197676D02*
X183246666Y-125292914D01*
X183246666Y-125292914D02*
X183341904Y-125340533D01*
X182151428Y-125054819D02*
X182056190Y-125054819D01*
X182056190Y-125054819D02*
X181960952Y-125102438D01*
X181960952Y-125102438D02*
X181913333Y-125150057D01*
X181913333Y-125150057D02*
X181865714Y-125245295D01*
X181865714Y-125245295D02*
X181818095Y-125435771D01*
X181818095Y-125435771D02*
X181818095Y-125673866D01*
X181818095Y-125673866D02*
X181865714Y-125864342D01*
X181865714Y-125864342D02*
X181913333Y-125959580D01*
X181913333Y-125959580D02*
X181960952Y-126007200D01*
X181960952Y-126007200D02*
X182056190Y-126054819D01*
X182056190Y-126054819D02*
X182151428Y-126054819D01*
X182151428Y-126054819D02*
X182246666Y-126007200D01*
X182246666Y-126007200D02*
X182294285Y-125959580D01*
X182294285Y-125959580D02*
X182341904Y-125864342D01*
X182341904Y-125864342D02*
X182389523Y-125673866D01*
X182389523Y-125673866D02*
X182389523Y-125435771D01*
X182389523Y-125435771D02*
X182341904Y-125245295D01*
X182341904Y-125245295D02*
X182294285Y-125150057D01*
X182294285Y-125150057D02*
X182246666Y-125102438D01*
X182246666Y-125102438D02*
X182151428Y-125054819D01*
X120389523Y-96854819D02*
X120056190Y-97854819D01*
X120056190Y-97854819D02*
X119722857Y-96854819D01*
X118865714Y-97854819D02*
X119437142Y-97854819D01*
X119151428Y-97854819D02*
X119151428Y-96854819D01*
X119151428Y-96854819D02*
X119246666Y-96997676D01*
X119246666Y-96997676D02*
X119341904Y-97092914D01*
X119341904Y-97092914D02*
X119437142Y-97140533D01*
X113360951Y-80673866D02*
X112599047Y-80673866D01*
X112979999Y-81054819D02*
X112979999Y-80292914D01*
X125599048Y-91926133D02*
X126360953Y-91926133D01*
X235822857Y-107529580D02*
X235870476Y-107577200D01*
X235870476Y-107577200D02*
X236013333Y-107624819D01*
X236013333Y-107624819D02*
X236108571Y-107624819D01*
X236108571Y-107624819D02*
X236251428Y-107577200D01*
X236251428Y-107577200D02*
X236346666Y-107481961D01*
X236346666Y-107481961D02*
X236394285Y-107386723D01*
X236394285Y-107386723D02*
X236441904Y-107196247D01*
X236441904Y-107196247D02*
X236441904Y-107053390D01*
X236441904Y-107053390D02*
X236394285Y-106862914D01*
X236394285Y-106862914D02*
X236346666Y-106767676D01*
X236346666Y-106767676D02*
X236251428Y-106672438D01*
X236251428Y-106672438D02*
X236108571Y-106624819D01*
X236108571Y-106624819D02*
X236013333Y-106624819D01*
X236013333Y-106624819D02*
X235870476Y-106672438D01*
X235870476Y-106672438D02*
X235822857Y-106720057D01*
X235441904Y-106720057D02*
X235394285Y-106672438D01*
X235394285Y-106672438D02*
X235299047Y-106624819D01*
X235299047Y-106624819D02*
X235060952Y-106624819D01*
X235060952Y-106624819D02*
X234965714Y-106672438D01*
X234965714Y-106672438D02*
X234918095Y-106720057D01*
X234918095Y-106720057D02*
X234870476Y-106815295D01*
X234870476Y-106815295D02*
X234870476Y-106910533D01*
X234870476Y-106910533D02*
X234918095Y-107053390D01*
X234918095Y-107053390D02*
X235489523Y-107624819D01*
X235489523Y-107624819D02*
X234870476Y-107624819D01*
X234537142Y-106624819D02*
X233870476Y-106624819D01*
X233870476Y-106624819D02*
X234299047Y-107624819D01*
X117522857Y-129954819D02*
X117856190Y-129478628D01*
X118094285Y-129954819D02*
X118094285Y-128954819D01*
X118094285Y-128954819D02*
X117713333Y-128954819D01*
X117713333Y-128954819D02*
X117618095Y-129002438D01*
X117618095Y-129002438D02*
X117570476Y-129050057D01*
X117570476Y-129050057D02*
X117522857Y-129145295D01*
X117522857Y-129145295D02*
X117522857Y-129288152D01*
X117522857Y-129288152D02*
X117570476Y-129383390D01*
X117570476Y-129383390D02*
X117618095Y-129431009D01*
X117618095Y-129431009D02*
X117713333Y-129478628D01*
X117713333Y-129478628D02*
X118094285Y-129478628D01*
X117189523Y-128954819D02*
X116570476Y-128954819D01*
X116570476Y-128954819D02*
X116903809Y-129335771D01*
X116903809Y-129335771D02*
X116760952Y-129335771D01*
X116760952Y-129335771D02*
X116665714Y-129383390D01*
X116665714Y-129383390D02*
X116618095Y-129431009D01*
X116618095Y-129431009D02*
X116570476Y-129526247D01*
X116570476Y-129526247D02*
X116570476Y-129764342D01*
X116570476Y-129764342D02*
X116618095Y-129859580D01*
X116618095Y-129859580D02*
X116665714Y-129907200D01*
X116665714Y-129907200D02*
X116760952Y-129954819D01*
X116760952Y-129954819D02*
X117046666Y-129954819D01*
X117046666Y-129954819D02*
X117141904Y-129907200D01*
X117141904Y-129907200D02*
X117189523Y-129859580D01*
X115713333Y-129288152D02*
X115713333Y-129954819D01*
X115951428Y-128907200D02*
X116189523Y-129621485D01*
X116189523Y-129621485D02*
X115570476Y-129621485D01*
X166418094Y-78154819D02*
X166418094Y-77154819D01*
X166418094Y-77154819D02*
X166179999Y-77154819D01*
X166179999Y-77154819D02*
X166037142Y-77202438D01*
X166037142Y-77202438D02*
X165941904Y-77297676D01*
X165941904Y-77297676D02*
X165894285Y-77392914D01*
X165894285Y-77392914D02*
X165846666Y-77583390D01*
X165846666Y-77583390D02*
X165846666Y-77726247D01*
X165846666Y-77726247D02*
X165894285Y-77916723D01*
X165894285Y-77916723D02*
X165941904Y-78011961D01*
X165941904Y-78011961D02*
X166037142Y-78107200D01*
X166037142Y-78107200D02*
X166179999Y-78154819D01*
X166179999Y-78154819D02*
X166418094Y-78154819D01*
X164941904Y-77154819D02*
X165418094Y-77154819D01*
X165418094Y-77154819D02*
X165465713Y-77631009D01*
X165465713Y-77631009D02*
X165418094Y-77583390D01*
X165418094Y-77583390D02*
X165322856Y-77535771D01*
X165322856Y-77535771D02*
X165084761Y-77535771D01*
X165084761Y-77535771D02*
X164989523Y-77583390D01*
X164989523Y-77583390D02*
X164941904Y-77631009D01*
X164941904Y-77631009D02*
X164894285Y-77726247D01*
X164894285Y-77726247D02*
X164894285Y-77964342D01*
X164894285Y-77964342D02*
X164941904Y-78059580D01*
X164941904Y-78059580D02*
X164989523Y-78107200D01*
X164989523Y-78107200D02*
X165084761Y-78154819D01*
X165084761Y-78154819D02*
X165322856Y-78154819D01*
X165322856Y-78154819D02*
X165418094Y-78107200D01*
X165418094Y-78107200D02*
X165465713Y-78059580D01*
X205422857Y-129859580D02*
X205470476Y-129907200D01*
X205470476Y-129907200D02*
X205613333Y-129954819D01*
X205613333Y-129954819D02*
X205708571Y-129954819D01*
X205708571Y-129954819D02*
X205851428Y-129907200D01*
X205851428Y-129907200D02*
X205946666Y-129811961D01*
X205946666Y-129811961D02*
X205994285Y-129716723D01*
X205994285Y-129716723D02*
X206041904Y-129526247D01*
X206041904Y-129526247D02*
X206041904Y-129383390D01*
X206041904Y-129383390D02*
X205994285Y-129192914D01*
X205994285Y-129192914D02*
X205946666Y-129097676D01*
X205946666Y-129097676D02*
X205851428Y-129002438D01*
X205851428Y-129002438D02*
X205708571Y-128954819D01*
X205708571Y-128954819D02*
X205613333Y-128954819D01*
X205613333Y-128954819D02*
X205470476Y-129002438D01*
X205470476Y-129002438D02*
X205422857Y-129050057D01*
X204565714Y-129288152D02*
X204565714Y-129954819D01*
X204803809Y-128907200D02*
X205041904Y-129621485D01*
X205041904Y-129621485D02*
X204422857Y-129621485D01*
X203565714Y-128954819D02*
X204041904Y-128954819D01*
X204041904Y-128954819D02*
X204089523Y-129431009D01*
X204089523Y-129431009D02*
X204041904Y-129383390D01*
X204041904Y-129383390D02*
X203946666Y-129335771D01*
X203946666Y-129335771D02*
X203708571Y-129335771D01*
X203708571Y-129335771D02*
X203613333Y-129383390D01*
X203613333Y-129383390D02*
X203565714Y-129431009D01*
X203565714Y-129431009D02*
X203518095Y-129526247D01*
X203518095Y-129526247D02*
X203518095Y-129764342D01*
X203518095Y-129764342D02*
X203565714Y-129859580D01*
X203565714Y-129859580D02*
X203613333Y-129907200D01*
X203613333Y-129907200D02*
X203708571Y-129954819D01*
X203708571Y-129954819D02*
X203946666Y-129954819D01*
X203946666Y-129954819D02*
X204041904Y-129907200D01*
X204041904Y-129907200D02*
X204089523Y-129859580D01*
X190587738Y-86850057D02*
X190682976Y-86802438D01*
X190682976Y-86802438D02*
X190778214Y-86707200D01*
X190778214Y-86707200D02*
X190921071Y-86564342D01*
X190921071Y-86564342D02*
X191016309Y-86516723D01*
X191016309Y-86516723D02*
X191111547Y-86516723D01*
X191063928Y-86754819D02*
X191159166Y-86707200D01*
X191159166Y-86707200D02*
X191254404Y-86611961D01*
X191254404Y-86611961D02*
X191302023Y-86421485D01*
X191302023Y-86421485D02*
X191302023Y-86088152D01*
X191302023Y-86088152D02*
X191254404Y-85897676D01*
X191254404Y-85897676D02*
X191159166Y-85802438D01*
X191159166Y-85802438D02*
X191063928Y-85754819D01*
X191063928Y-85754819D02*
X190873452Y-85754819D01*
X190873452Y-85754819D02*
X190778214Y-85802438D01*
X190778214Y-85802438D02*
X190682976Y-85897676D01*
X190682976Y-85897676D02*
X190635357Y-86088152D01*
X190635357Y-86088152D02*
X190635357Y-86421485D01*
X190635357Y-86421485D02*
X190682976Y-86611961D01*
X190682976Y-86611961D02*
X190778214Y-86707200D01*
X190778214Y-86707200D02*
X190873452Y-86754819D01*
X190873452Y-86754819D02*
X191063928Y-86754819D01*
X189730595Y-85754819D02*
X190206785Y-85754819D01*
X190206785Y-85754819D02*
X190254404Y-86231009D01*
X190254404Y-86231009D02*
X190206785Y-86183390D01*
X190206785Y-86183390D02*
X190111547Y-86135771D01*
X190111547Y-86135771D02*
X189873452Y-86135771D01*
X189873452Y-86135771D02*
X189778214Y-86183390D01*
X189778214Y-86183390D02*
X189730595Y-86231009D01*
X189730595Y-86231009D02*
X189682976Y-86326247D01*
X189682976Y-86326247D02*
X189682976Y-86564342D01*
X189682976Y-86564342D02*
X189730595Y-86659580D01*
X189730595Y-86659580D02*
X189778214Y-86707200D01*
X189778214Y-86707200D02*
X189873452Y-86754819D01*
X189873452Y-86754819D02*
X190111547Y-86754819D01*
X190111547Y-86754819D02*
X190206785Y-86707200D01*
X190206785Y-86707200D02*
X190254404Y-86659580D01*
X121922857Y-69554819D02*
X122256190Y-69078628D01*
X122494285Y-69554819D02*
X122494285Y-68554819D01*
X122494285Y-68554819D02*
X122113333Y-68554819D01*
X122113333Y-68554819D02*
X122018095Y-68602438D01*
X122018095Y-68602438D02*
X121970476Y-68650057D01*
X121970476Y-68650057D02*
X121922857Y-68745295D01*
X121922857Y-68745295D02*
X121922857Y-68888152D01*
X121922857Y-68888152D02*
X121970476Y-68983390D01*
X121970476Y-68983390D02*
X122018095Y-69031009D01*
X122018095Y-69031009D02*
X122113333Y-69078628D01*
X122113333Y-69078628D02*
X122494285Y-69078628D01*
X120970476Y-69554819D02*
X121541904Y-69554819D01*
X121256190Y-69554819D02*
X121256190Y-68554819D01*
X121256190Y-68554819D02*
X121351428Y-68697676D01*
X121351428Y-68697676D02*
X121446666Y-68792914D01*
X121446666Y-68792914D02*
X121541904Y-68840533D01*
X120351428Y-68554819D02*
X120256190Y-68554819D01*
X120256190Y-68554819D02*
X120160952Y-68602438D01*
X120160952Y-68602438D02*
X120113333Y-68650057D01*
X120113333Y-68650057D02*
X120065714Y-68745295D01*
X120065714Y-68745295D02*
X120018095Y-68935771D01*
X120018095Y-68935771D02*
X120018095Y-69173866D01*
X120018095Y-69173866D02*
X120065714Y-69364342D01*
X120065714Y-69364342D02*
X120113333Y-69459580D01*
X120113333Y-69459580D02*
X120160952Y-69507200D01*
X120160952Y-69507200D02*
X120256190Y-69554819D01*
X120256190Y-69554819D02*
X120351428Y-69554819D01*
X120351428Y-69554819D02*
X120446666Y-69507200D01*
X120446666Y-69507200D02*
X120494285Y-69459580D01*
X120494285Y-69459580D02*
X120541904Y-69364342D01*
X120541904Y-69364342D02*
X120589523Y-69173866D01*
X120589523Y-69173866D02*
X120589523Y-68935771D01*
X120589523Y-68935771D02*
X120541904Y-68745295D01*
X120541904Y-68745295D02*
X120494285Y-68650057D01*
X120494285Y-68650057D02*
X120446666Y-68602438D01*
X120446666Y-68602438D02*
X120351428Y-68554819D01*
X149622857Y-123804819D02*
X149956190Y-123328628D01*
X150194285Y-123804819D02*
X150194285Y-122804819D01*
X150194285Y-122804819D02*
X149813333Y-122804819D01*
X149813333Y-122804819D02*
X149718095Y-122852438D01*
X149718095Y-122852438D02*
X149670476Y-122900057D01*
X149670476Y-122900057D02*
X149622857Y-122995295D01*
X149622857Y-122995295D02*
X149622857Y-123138152D01*
X149622857Y-123138152D02*
X149670476Y-123233390D01*
X149670476Y-123233390D02*
X149718095Y-123281009D01*
X149718095Y-123281009D02*
X149813333Y-123328628D01*
X149813333Y-123328628D02*
X150194285Y-123328628D01*
X149241904Y-122900057D02*
X149194285Y-122852438D01*
X149194285Y-122852438D02*
X149099047Y-122804819D01*
X149099047Y-122804819D02*
X148860952Y-122804819D01*
X148860952Y-122804819D02*
X148765714Y-122852438D01*
X148765714Y-122852438D02*
X148718095Y-122900057D01*
X148718095Y-122900057D02*
X148670476Y-122995295D01*
X148670476Y-122995295D02*
X148670476Y-123090533D01*
X148670476Y-123090533D02*
X148718095Y-123233390D01*
X148718095Y-123233390D02*
X149289523Y-123804819D01*
X149289523Y-123804819D02*
X148670476Y-123804819D01*
X148099047Y-123233390D02*
X148194285Y-123185771D01*
X148194285Y-123185771D02*
X148241904Y-123138152D01*
X148241904Y-123138152D02*
X148289523Y-123042914D01*
X148289523Y-123042914D02*
X148289523Y-122995295D01*
X148289523Y-122995295D02*
X148241904Y-122900057D01*
X148241904Y-122900057D02*
X148194285Y-122852438D01*
X148194285Y-122852438D02*
X148099047Y-122804819D01*
X148099047Y-122804819D02*
X147908571Y-122804819D01*
X147908571Y-122804819D02*
X147813333Y-122852438D01*
X147813333Y-122852438D02*
X147765714Y-122900057D01*
X147765714Y-122900057D02*
X147718095Y-122995295D01*
X147718095Y-122995295D02*
X147718095Y-123042914D01*
X147718095Y-123042914D02*
X147765714Y-123138152D01*
X147765714Y-123138152D02*
X147813333Y-123185771D01*
X147813333Y-123185771D02*
X147908571Y-123233390D01*
X147908571Y-123233390D02*
X148099047Y-123233390D01*
X148099047Y-123233390D02*
X148194285Y-123281009D01*
X148194285Y-123281009D02*
X148241904Y-123328628D01*
X148241904Y-123328628D02*
X148289523Y-123423866D01*
X148289523Y-123423866D02*
X148289523Y-123614342D01*
X148289523Y-123614342D02*
X148241904Y-123709580D01*
X148241904Y-123709580D02*
X148194285Y-123757200D01*
X148194285Y-123757200D02*
X148099047Y-123804819D01*
X148099047Y-123804819D02*
X147908571Y-123804819D01*
X147908571Y-123804819D02*
X147813333Y-123757200D01*
X147813333Y-123757200D02*
X147765714Y-123709580D01*
X147765714Y-123709580D02*
X147718095Y-123614342D01*
X147718095Y-123614342D02*
X147718095Y-123423866D01*
X147718095Y-123423866D02*
X147765714Y-123328628D01*
X147765714Y-123328628D02*
X147813333Y-123281009D01*
X147813333Y-123281009D02*
X147908571Y-123233390D01*
X159051428Y-124850057D02*
X159146666Y-124802438D01*
X159146666Y-124802438D02*
X159241904Y-124707200D01*
X159241904Y-124707200D02*
X159384761Y-124564342D01*
X159384761Y-124564342D02*
X159479999Y-124516723D01*
X159479999Y-124516723D02*
X159575237Y-124516723D01*
X159527618Y-124754819D02*
X159622856Y-124707200D01*
X159622856Y-124707200D02*
X159718094Y-124611961D01*
X159718094Y-124611961D02*
X159765713Y-124421485D01*
X159765713Y-124421485D02*
X159765713Y-124088152D01*
X159765713Y-124088152D02*
X159718094Y-123897676D01*
X159718094Y-123897676D02*
X159622856Y-123802438D01*
X159622856Y-123802438D02*
X159527618Y-123754819D01*
X159527618Y-123754819D02*
X159337142Y-123754819D01*
X159337142Y-123754819D02*
X159241904Y-123802438D01*
X159241904Y-123802438D02*
X159146666Y-123897676D01*
X159146666Y-123897676D02*
X159099047Y-124088152D01*
X159099047Y-124088152D02*
X159099047Y-124421485D01*
X159099047Y-124421485D02*
X159146666Y-124611961D01*
X159146666Y-124611961D02*
X159241904Y-124707200D01*
X159241904Y-124707200D02*
X159337142Y-124754819D01*
X159337142Y-124754819D02*
X159527618Y-124754819D01*
X158146666Y-124754819D02*
X158718094Y-124754819D01*
X158432380Y-124754819D02*
X158432380Y-123754819D01*
X158432380Y-123754819D02*
X158527618Y-123897676D01*
X158527618Y-123897676D02*
X158622856Y-123992914D01*
X158622856Y-123992914D02*
X158718094Y-124040533D01*
X157765713Y-123850057D02*
X157718094Y-123802438D01*
X157718094Y-123802438D02*
X157622856Y-123754819D01*
X157622856Y-123754819D02*
X157384761Y-123754819D01*
X157384761Y-123754819D02*
X157289523Y-123802438D01*
X157289523Y-123802438D02*
X157241904Y-123850057D01*
X157241904Y-123850057D02*
X157194285Y-123945295D01*
X157194285Y-123945295D02*
X157194285Y-124040533D01*
X157194285Y-124040533D02*
X157241904Y-124183390D01*
X157241904Y-124183390D02*
X157813332Y-124754819D01*
X157813332Y-124754819D02*
X157194285Y-124754819D01*
X146338094Y-72354819D02*
X146338094Y-71354819D01*
X146338094Y-71354819D02*
X146099999Y-71354819D01*
X146099999Y-71354819D02*
X145957142Y-71402438D01*
X145957142Y-71402438D02*
X145861904Y-71497676D01*
X145861904Y-71497676D02*
X145814285Y-71592914D01*
X145814285Y-71592914D02*
X145766666Y-71783390D01*
X145766666Y-71783390D02*
X145766666Y-71926247D01*
X145766666Y-71926247D02*
X145814285Y-72116723D01*
X145814285Y-72116723D02*
X145861904Y-72211961D01*
X145861904Y-72211961D02*
X145957142Y-72307200D01*
X145957142Y-72307200D02*
X146099999Y-72354819D01*
X146099999Y-72354819D02*
X146338094Y-72354819D01*
X145433332Y-71354819D02*
X144766666Y-71354819D01*
X144766666Y-71354819D02*
X145195237Y-72354819D01*
X142138094Y-76869104D02*
X141661904Y-76869104D01*
X142233332Y-77154819D02*
X141899999Y-76154819D01*
X141899999Y-76154819D02*
X141566666Y-77154819D01*
X174618094Y-78454819D02*
X174618094Y-77454819D01*
X174618094Y-77454819D02*
X174379999Y-77454819D01*
X174379999Y-77454819D02*
X174237142Y-77502438D01*
X174237142Y-77502438D02*
X174141904Y-77597676D01*
X174141904Y-77597676D02*
X174094285Y-77692914D01*
X174094285Y-77692914D02*
X174046666Y-77883390D01*
X174046666Y-77883390D02*
X174046666Y-78026247D01*
X174046666Y-78026247D02*
X174094285Y-78216723D01*
X174094285Y-78216723D02*
X174141904Y-78311961D01*
X174141904Y-78311961D02*
X174237142Y-78407200D01*
X174237142Y-78407200D02*
X174379999Y-78454819D01*
X174379999Y-78454819D02*
X174618094Y-78454819D01*
X173189523Y-77788152D02*
X173189523Y-78454819D01*
X173427618Y-77407200D02*
X173665713Y-78121485D01*
X173665713Y-78121485D02*
X173046666Y-78121485D01*
X142822857Y-127754819D02*
X143156190Y-127278628D01*
X143394285Y-127754819D02*
X143394285Y-126754819D01*
X143394285Y-126754819D02*
X143013333Y-126754819D01*
X143013333Y-126754819D02*
X142918095Y-126802438D01*
X142918095Y-126802438D02*
X142870476Y-126850057D01*
X142870476Y-126850057D02*
X142822857Y-126945295D01*
X142822857Y-126945295D02*
X142822857Y-127088152D01*
X142822857Y-127088152D02*
X142870476Y-127183390D01*
X142870476Y-127183390D02*
X142918095Y-127231009D01*
X142918095Y-127231009D02*
X143013333Y-127278628D01*
X143013333Y-127278628D02*
X143394285Y-127278628D01*
X142441904Y-126850057D02*
X142394285Y-126802438D01*
X142394285Y-126802438D02*
X142299047Y-126754819D01*
X142299047Y-126754819D02*
X142060952Y-126754819D01*
X142060952Y-126754819D02*
X141965714Y-126802438D01*
X141965714Y-126802438D02*
X141918095Y-126850057D01*
X141918095Y-126850057D02*
X141870476Y-126945295D01*
X141870476Y-126945295D02*
X141870476Y-127040533D01*
X141870476Y-127040533D02*
X141918095Y-127183390D01*
X141918095Y-127183390D02*
X142489523Y-127754819D01*
X142489523Y-127754819D02*
X141870476Y-127754819D01*
X141537142Y-126754819D02*
X140870476Y-126754819D01*
X140870476Y-126754819D02*
X141299047Y-127754819D01*
X190559166Y-90654819D02*
X190892499Y-90178628D01*
X191130594Y-90654819D02*
X191130594Y-89654819D01*
X191130594Y-89654819D02*
X190749642Y-89654819D01*
X190749642Y-89654819D02*
X190654404Y-89702438D01*
X190654404Y-89702438D02*
X190606785Y-89750057D01*
X190606785Y-89750057D02*
X190559166Y-89845295D01*
X190559166Y-89845295D02*
X190559166Y-89988152D01*
X190559166Y-89988152D02*
X190606785Y-90083390D01*
X190606785Y-90083390D02*
X190654404Y-90131009D01*
X190654404Y-90131009D02*
X190749642Y-90178628D01*
X190749642Y-90178628D02*
X191130594Y-90178628D01*
X189654404Y-89654819D02*
X190130594Y-89654819D01*
X190130594Y-89654819D02*
X190178213Y-90131009D01*
X190178213Y-90131009D02*
X190130594Y-90083390D01*
X190130594Y-90083390D02*
X190035356Y-90035771D01*
X190035356Y-90035771D02*
X189797261Y-90035771D01*
X189797261Y-90035771D02*
X189702023Y-90083390D01*
X189702023Y-90083390D02*
X189654404Y-90131009D01*
X189654404Y-90131009D02*
X189606785Y-90226247D01*
X189606785Y-90226247D02*
X189606785Y-90464342D01*
X189606785Y-90464342D02*
X189654404Y-90559580D01*
X189654404Y-90559580D02*
X189702023Y-90607200D01*
X189702023Y-90607200D02*
X189797261Y-90654819D01*
X189797261Y-90654819D02*
X190035356Y-90654819D01*
X190035356Y-90654819D02*
X190130594Y-90607200D01*
X190130594Y-90607200D02*
X190178213Y-90559580D01*
X215222857Y-95959580D02*
X215270476Y-96007200D01*
X215270476Y-96007200D02*
X215413333Y-96054819D01*
X215413333Y-96054819D02*
X215508571Y-96054819D01*
X215508571Y-96054819D02*
X215651428Y-96007200D01*
X215651428Y-96007200D02*
X215746666Y-95911961D01*
X215746666Y-95911961D02*
X215794285Y-95816723D01*
X215794285Y-95816723D02*
X215841904Y-95626247D01*
X215841904Y-95626247D02*
X215841904Y-95483390D01*
X215841904Y-95483390D02*
X215794285Y-95292914D01*
X215794285Y-95292914D02*
X215746666Y-95197676D01*
X215746666Y-95197676D02*
X215651428Y-95102438D01*
X215651428Y-95102438D02*
X215508571Y-95054819D01*
X215508571Y-95054819D02*
X215413333Y-95054819D01*
X215413333Y-95054819D02*
X215270476Y-95102438D01*
X215270476Y-95102438D02*
X215222857Y-95150057D01*
X214270476Y-96054819D02*
X214841904Y-96054819D01*
X214556190Y-96054819D02*
X214556190Y-95054819D01*
X214556190Y-95054819D02*
X214651428Y-95197676D01*
X214651428Y-95197676D02*
X214746666Y-95292914D01*
X214746666Y-95292914D02*
X214841904Y-95340533D01*
X213413333Y-95388152D02*
X213413333Y-96054819D01*
X213651428Y-95007200D02*
X213889523Y-95721485D01*
X213889523Y-95721485D02*
X213270476Y-95721485D01*
X228646666Y-131159580D02*
X228694285Y-131207200D01*
X228694285Y-131207200D02*
X228837142Y-131254819D01*
X228837142Y-131254819D02*
X228932380Y-131254819D01*
X228932380Y-131254819D02*
X229075237Y-131207200D01*
X229075237Y-131207200D02*
X229170475Y-131111961D01*
X229170475Y-131111961D02*
X229218094Y-131016723D01*
X229218094Y-131016723D02*
X229265713Y-130826247D01*
X229265713Y-130826247D02*
X229265713Y-130683390D01*
X229265713Y-130683390D02*
X229218094Y-130492914D01*
X229218094Y-130492914D02*
X229170475Y-130397676D01*
X229170475Y-130397676D02*
X229075237Y-130302438D01*
X229075237Y-130302438D02*
X228932380Y-130254819D01*
X228932380Y-130254819D02*
X228837142Y-130254819D01*
X228837142Y-130254819D02*
X228694285Y-130302438D01*
X228694285Y-130302438D02*
X228646666Y-130350057D01*
X227694285Y-131254819D02*
X228265713Y-131254819D01*
X227979999Y-131254819D02*
X227979999Y-130254819D01*
X227979999Y-130254819D02*
X228075237Y-130397676D01*
X228075237Y-130397676D02*
X228170475Y-130492914D01*
X228170475Y-130492914D02*
X228265713Y-130540533D01*
X129222857Y-98367319D02*
X129556190Y-97891128D01*
X129794285Y-98367319D02*
X129794285Y-97367319D01*
X129794285Y-97367319D02*
X129413333Y-97367319D01*
X129413333Y-97367319D02*
X129318095Y-97414938D01*
X129318095Y-97414938D02*
X129270476Y-97462557D01*
X129270476Y-97462557D02*
X129222857Y-97557795D01*
X129222857Y-97557795D02*
X129222857Y-97700652D01*
X129222857Y-97700652D02*
X129270476Y-97795890D01*
X129270476Y-97795890D02*
X129318095Y-97843509D01*
X129318095Y-97843509D02*
X129413333Y-97891128D01*
X129413333Y-97891128D02*
X129794285Y-97891128D01*
X128270476Y-98367319D02*
X128841904Y-98367319D01*
X128556190Y-98367319D02*
X128556190Y-97367319D01*
X128556190Y-97367319D02*
X128651428Y-97510176D01*
X128651428Y-97510176D02*
X128746666Y-97605414D01*
X128746666Y-97605414D02*
X128841904Y-97653033D01*
X127699047Y-97795890D02*
X127794285Y-97748271D01*
X127794285Y-97748271D02*
X127841904Y-97700652D01*
X127841904Y-97700652D02*
X127889523Y-97605414D01*
X127889523Y-97605414D02*
X127889523Y-97557795D01*
X127889523Y-97557795D02*
X127841904Y-97462557D01*
X127841904Y-97462557D02*
X127794285Y-97414938D01*
X127794285Y-97414938D02*
X127699047Y-97367319D01*
X127699047Y-97367319D02*
X127508571Y-97367319D01*
X127508571Y-97367319D02*
X127413333Y-97414938D01*
X127413333Y-97414938D02*
X127365714Y-97462557D01*
X127365714Y-97462557D02*
X127318095Y-97557795D01*
X127318095Y-97557795D02*
X127318095Y-97605414D01*
X127318095Y-97605414D02*
X127365714Y-97700652D01*
X127365714Y-97700652D02*
X127413333Y-97748271D01*
X127413333Y-97748271D02*
X127508571Y-97795890D01*
X127508571Y-97795890D02*
X127699047Y-97795890D01*
X127699047Y-97795890D02*
X127794285Y-97843509D01*
X127794285Y-97843509D02*
X127841904Y-97891128D01*
X127841904Y-97891128D02*
X127889523Y-97986366D01*
X127889523Y-97986366D02*
X127889523Y-98176842D01*
X127889523Y-98176842D02*
X127841904Y-98272080D01*
X127841904Y-98272080D02*
X127794285Y-98319700D01*
X127794285Y-98319700D02*
X127699047Y-98367319D01*
X127699047Y-98367319D02*
X127508571Y-98367319D01*
X127508571Y-98367319D02*
X127413333Y-98319700D01*
X127413333Y-98319700D02*
X127365714Y-98272080D01*
X127365714Y-98272080D02*
X127318095Y-98176842D01*
X127318095Y-98176842D02*
X127318095Y-97986366D01*
X127318095Y-97986366D02*
X127365714Y-97891128D01*
X127365714Y-97891128D02*
X127413333Y-97843509D01*
X127413333Y-97843509D02*
X127508571Y-97795890D01*
X164422857Y-101959580D02*
X164470476Y-102007200D01*
X164470476Y-102007200D02*
X164613333Y-102054819D01*
X164613333Y-102054819D02*
X164708571Y-102054819D01*
X164708571Y-102054819D02*
X164851428Y-102007200D01*
X164851428Y-102007200D02*
X164946666Y-101911961D01*
X164946666Y-101911961D02*
X164994285Y-101816723D01*
X164994285Y-101816723D02*
X165041904Y-101626247D01*
X165041904Y-101626247D02*
X165041904Y-101483390D01*
X165041904Y-101483390D02*
X164994285Y-101292914D01*
X164994285Y-101292914D02*
X164946666Y-101197676D01*
X164946666Y-101197676D02*
X164851428Y-101102438D01*
X164851428Y-101102438D02*
X164708571Y-101054819D01*
X164708571Y-101054819D02*
X164613333Y-101054819D01*
X164613333Y-101054819D02*
X164470476Y-101102438D01*
X164470476Y-101102438D02*
X164422857Y-101150057D01*
X163565714Y-101388152D02*
X163565714Y-102054819D01*
X163803809Y-101007200D02*
X164041904Y-101721485D01*
X164041904Y-101721485D02*
X163422857Y-101721485D01*
X163089523Y-101150057D02*
X163041904Y-101102438D01*
X163041904Y-101102438D02*
X162946666Y-101054819D01*
X162946666Y-101054819D02*
X162708571Y-101054819D01*
X162708571Y-101054819D02*
X162613333Y-101102438D01*
X162613333Y-101102438D02*
X162565714Y-101150057D01*
X162565714Y-101150057D02*
X162518095Y-101245295D01*
X162518095Y-101245295D02*
X162518095Y-101340533D01*
X162518095Y-101340533D02*
X162565714Y-101483390D01*
X162565714Y-101483390D02*
X163137142Y-102054819D01*
X163137142Y-102054819D02*
X162518095Y-102054819D01*
X120622857Y-73854819D02*
X120956190Y-73378628D01*
X121194285Y-73854819D02*
X121194285Y-72854819D01*
X121194285Y-72854819D02*
X120813333Y-72854819D01*
X120813333Y-72854819D02*
X120718095Y-72902438D01*
X120718095Y-72902438D02*
X120670476Y-72950057D01*
X120670476Y-72950057D02*
X120622857Y-73045295D01*
X120622857Y-73045295D02*
X120622857Y-73188152D01*
X120622857Y-73188152D02*
X120670476Y-73283390D01*
X120670476Y-73283390D02*
X120718095Y-73331009D01*
X120718095Y-73331009D02*
X120813333Y-73378628D01*
X120813333Y-73378628D02*
X121194285Y-73378628D01*
X119670476Y-73854819D02*
X120241904Y-73854819D01*
X119956190Y-73854819D02*
X119956190Y-72854819D01*
X119956190Y-72854819D02*
X120051428Y-72997676D01*
X120051428Y-72997676D02*
X120146666Y-73092914D01*
X120146666Y-73092914D02*
X120241904Y-73140533D01*
X118813333Y-73188152D02*
X118813333Y-73854819D01*
X119051428Y-72807200D02*
X119289523Y-73521485D01*
X119289523Y-73521485D02*
X118670476Y-73521485D01*
X125622857Y-73854819D02*
X125956190Y-73378628D01*
X126194285Y-73854819D02*
X126194285Y-72854819D01*
X126194285Y-72854819D02*
X125813333Y-72854819D01*
X125813333Y-72854819D02*
X125718095Y-72902438D01*
X125718095Y-72902438D02*
X125670476Y-72950057D01*
X125670476Y-72950057D02*
X125622857Y-73045295D01*
X125622857Y-73045295D02*
X125622857Y-73188152D01*
X125622857Y-73188152D02*
X125670476Y-73283390D01*
X125670476Y-73283390D02*
X125718095Y-73331009D01*
X125718095Y-73331009D02*
X125813333Y-73378628D01*
X125813333Y-73378628D02*
X126194285Y-73378628D01*
X124670476Y-73854819D02*
X125241904Y-73854819D01*
X124956190Y-73854819D02*
X124956190Y-72854819D01*
X124956190Y-72854819D02*
X125051428Y-72997676D01*
X125051428Y-72997676D02*
X125146666Y-73092914D01*
X125146666Y-73092914D02*
X125241904Y-73140533D01*
X124289523Y-72950057D02*
X124241904Y-72902438D01*
X124241904Y-72902438D02*
X124146666Y-72854819D01*
X124146666Y-72854819D02*
X123908571Y-72854819D01*
X123908571Y-72854819D02*
X123813333Y-72902438D01*
X123813333Y-72902438D02*
X123765714Y-72950057D01*
X123765714Y-72950057D02*
X123718095Y-73045295D01*
X123718095Y-73045295D02*
X123718095Y-73140533D01*
X123718095Y-73140533D02*
X123765714Y-73283390D01*
X123765714Y-73283390D02*
X124337142Y-73854819D01*
X124337142Y-73854819D02*
X123718095Y-73854819D01*
X208941904Y-72754819D02*
X208941904Y-73564342D01*
X208941904Y-73564342D02*
X208894285Y-73659580D01*
X208894285Y-73659580D02*
X208846666Y-73707200D01*
X208846666Y-73707200D02*
X208751428Y-73754819D01*
X208751428Y-73754819D02*
X208560952Y-73754819D01*
X208560952Y-73754819D02*
X208465714Y-73707200D01*
X208465714Y-73707200D02*
X208418095Y-73659580D01*
X208418095Y-73659580D02*
X208370476Y-73564342D01*
X208370476Y-73564342D02*
X208370476Y-72754819D01*
X207370476Y-73754819D02*
X207941904Y-73754819D01*
X207656190Y-73754819D02*
X207656190Y-72754819D01*
X207656190Y-72754819D02*
X207751428Y-72897676D01*
X207751428Y-72897676D02*
X207846666Y-72992914D01*
X207846666Y-72992914D02*
X207941904Y-73040533D01*
D11*
%TO.C,U5*%
X175680000Y-125200000D02*
X175480000Y-125200000D01*
X175680000Y-125200000D02*
X175680000Y-127800000D01*
X173380000Y-125200000D02*
X173380000Y-124800000D01*
X173280000Y-125200000D02*
X173380000Y-125200000D01*
X175680000Y-127800000D02*
X175480000Y-127800000D01*
X173480000Y-127800000D02*
X173280000Y-127800000D01*
X173280000Y-127800000D02*
X173280000Y-125200000D01*
%TO.C,R17*%
X111890000Y-76072936D02*
X111890000Y-77527064D01*
X110070000Y-76072936D02*
X110070000Y-77527064D01*
%TO.C,C2*%
X235895580Y-95835000D02*
X235614420Y-95835000D01*
X235895580Y-94815000D02*
X235614420Y-94815000D01*
%TO.C,C36*%
X168339420Y-108990000D02*
X168620580Y-108990000D01*
X168339420Y-110010000D02*
X168620580Y-110010000D01*
%TO.C,R11*%
X214152936Y-104765000D02*
X214607064Y-104765000D01*
X214152936Y-106235000D02*
X214607064Y-106235000D01*
%TO.C,R4*%
X201507064Y-69160000D02*
X201052936Y-69160000D01*
X201507064Y-67690000D02*
X201052936Y-67690000D01*
%TO.C,C41*%
X161690000Y-98359420D02*
X161690000Y-98640580D01*
X160670000Y-98359420D02*
X160670000Y-98640580D01*
%TO.C,R7*%
X183552936Y-118665000D02*
X184007064Y-118665000D01*
X183552936Y-120135000D02*
X184007064Y-120135000D01*
%TO.C,R1*%
X212907064Y-78635000D02*
X212452936Y-78635000D01*
X212907064Y-77165000D02*
X212452936Y-77165000D01*
%TO.C,R16*%
X235245000Y-111427064D02*
X235245000Y-110972936D01*
X236715000Y-111427064D02*
X236715000Y-110972936D01*
%TO.C,D6*%
X153270000Y-73450000D02*
X158780000Y-73450000D01*
X153270000Y-76750000D02*
X153270000Y-73450000D01*
X153270000Y-76750000D02*
X158780000Y-76750000D01*
%TO.C,C3*%
X212068748Y-69540000D02*
X213491252Y-69540000D01*
X212068748Y-72260000D02*
X213491252Y-72260000D01*
%TO.C,U7*%
X169180000Y-125200000D02*
X168980000Y-125200000D01*
X169180000Y-125200000D02*
X169180000Y-127800000D01*
X166880000Y-125200000D02*
X166880000Y-124800000D01*
X166780000Y-125200000D02*
X166880000Y-125200000D01*
X169180000Y-127800000D02*
X168980000Y-127800000D01*
X166980000Y-127800000D02*
X166780000Y-127800000D01*
X166780000Y-127800000D02*
X166780000Y-125200000D01*
%TO.C,C7*%
X192770000Y-75565580D02*
X192770000Y-75284420D01*
X193790000Y-75565580D02*
X193790000Y-75284420D01*
%TO.C,R39*%
X151052936Y-130865000D02*
X151507064Y-130865000D01*
X151052936Y-132335000D02*
X151507064Y-132335000D01*
%TO.C,U2*%
X186370000Y-122410000D02*
X187095000Y-122410000D01*
X186370000Y-121685000D02*
X186370000Y-122410000D01*
X191590000Y-121685000D02*
X191590000Y-122410000D01*
X186370000Y-117915000D02*
X186370000Y-117190000D01*
X191590000Y-117915000D02*
X191590000Y-117190000D01*
X186370000Y-117190000D02*
X187095000Y-117190000D01*
X191590000Y-117190000D02*
X190865000Y-117190000D01*
%TO.C,C24*%
X206140000Y-117288748D02*
X206140000Y-118711252D01*
X203420000Y-117288748D02*
X203420000Y-118711252D01*
%TO.C,R6*%
X186252936Y-123165000D02*
X186707064Y-123165000D01*
X186252936Y-124635000D02*
X186707064Y-124635000D01*
%TO.C,C4*%
X235680000Y-78259420D02*
X235680000Y-78540580D01*
X234660000Y-78259420D02*
X234660000Y-78540580D01*
%TO.C,SW1*%
X110310000Y-69205000D02*
X110310000Y-66545000D01*
X112910000Y-69205000D02*
X110310000Y-69205000D01*
X112910000Y-69205000D02*
X112910000Y-66545000D01*
X115510000Y-67875000D02*
X115510000Y-66545000D01*
X112910000Y-66545000D02*
X110310000Y-66545000D01*
X115510000Y-66545000D02*
X114180000Y-66545000D01*
%TO.C,C40*%
X144870000Y-132040580D02*
X144870000Y-131759420D01*
X145890000Y-132040580D02*
X145890000Y-131759420D01*
%TO.C,R9*%
X206860000Y-96320000D02*
X206860000Y-92480000D01*
X208700000Y-96320000D02*
X208700000Y-92480000D01*
%TO.C,R35*%
X124045000Y-130027064D02*
X124045000Y-129572936D01*
X125515000Y-130027064D02*
X125515000Y-129572936D01*
%TO.C,R33*%
X119045000Y-130027064D02*
X119045000Y-129572936D01*
X120515000Y-130027064D02*
X120515000Y-129572936D01*
%TO.C,C12*%
X217320000Y-93011252D02*
X217320000Y-91588748D01*
X220040000Y-93011252D02*
X220040000Y-91588748D01*
%TO.C,C43*%
X170570000Y-100840580D02*
X170570000Y-100559420D01*
X171590000Y-100840580D02*
X171590000Y-100559420D01*
%TO.C,C5*%
X203640000Y-71713748D02*
X203640000Y-73136252D01*
X200920000Y-71713748D02*
X200920000Y-73136252D01*
%TO.C,C9*%
X190260000Y-75565580D02*
X190260000Y-75284420D01*
X191280000Y-75565580D02*
X191280000Y-75284420D01*
%TO.C,C8*%
X185020580Y-127610000D02*
X184739420Y-127610000D01*
X185020580Y-126590000D02*
X184739420Y-126590000D01*
%TO.C,R15*%
X115707064Y-72410000D02*
X114252936Y-72410000D01*
X115707064Y-70590000D02*
X114252936Y-70590000D01*
%TO.C,C25*%
X210390000Y-117288748D02*
X210390000Y-118711252D01*
X207670000Y-117288748D02*
X207670000Y-118711252D01*
%TO.C,Q1*%
X211020000Y-74800000D02*
X211020000Y-75450000D01*
X211020000Y-74800000D02*
X211020000Y-74150000D01*
X214140000Y-74800000D02*
X214140000Y-76475000D01*
X214140000Y-74800000D02*
X214140000Y-74150000D01*
%TO.C,Q7*%
X143720000Y-125000000D02*
X143720000Y-125650000D01*
X143720000Y-125000000D02*
X143720000Y-124350000D01*
X146840000Y-125000000D02*
X146840000Y-126675000D01*
X146840000Y-125000000D02*
X146840000Y-124350000D01*
%TO.C,C19*%
X205090000Y-93659420D02*
X205090000Y-93940580D01*
X204070000Y-93659420D02*
X204070000Y-93940580D01*
%TO.C,C30*%
X224339420Y-107190000D02*
X224620580Y-107190000D01*
X224339420Y-108210000D02*
X224620580Y-108210000D01*
%TO.C,C10*%
X186720580Y-126110000D02*
X186439420Y-126110000D01*
X186720580Y-125090000D02*
X186439420Y-125090000D01*
%TO.C,V1*%
X105480000Y-70450000D02*
X105480000Y-125950000D01*
X105480000Y-125950000D02*
X134480000Y-125950000D01*
X108880000Y-108000000D02*
X108880000Y-74200000D01*
X108880000Y-108000000D02*
X131080000Y-108000000D01*
X131080000Y-74200000D02*
X108880000Y-74200000D01*
X131080000Y-108000000D02*
X131080000Y-74200000D01*
X134480000Y-70450000D02*
X105480000Y-70450000D01*
X134480000Y-125950000D02*
X134480000Y-70450000D01*
%TO.C,C27*%
X235320580Y-109110000D02*
X235039420Y-109110000D01*
X235320580Y-108090000D02*
X235039420Y-108090000D01*
%TO.C,R34*%
X121545000Y-130027064D02*
X121545000Y-129572936D01*
X123015000Y-130027064D02*
X123015000Y-129572936D01*
%TO.C,D5*%
X162170000Y-73550000D02*
X167680000Y-73550000D01*
X162170000Y-76850000D02*
X162170000Y-73550000D01*
X162170000Y-76850000D02*
X167680000Y-76850000D01*
%TO.C,C45*%
X201870000Y-129640580D02*
X201870000Y-129359420D01*
X202890000Y-129640580D02*
X202890000Y-129359420D01*
%TO.C,Q5*%
X191820000Y-86400000D02*
X191820000Y-87050000D01*
X191820000Y-86400000D02*
X191820000Y-85750000D01*
X194940000Y-86400000D02*
X194940000Y-88075000D01*
X194940000Y-86400000D02*
X194940000Y-85750000D01*
%TO.C,R10*%
X121152936Y-66565000D02*
X121607064Y-66565000D01*
X121152936Y-68035000D02*
X121607064Y-68035000D01*
%TO.C,R28*%
X149207064Y-125735000D02*
X148752936Y-125735000D01*
X149207064Y-124265000D02*
X148752936Y-124265000D01*
%TO.C,Q12*%
X160040000Y-127100000D02*
X160040000Y-126450000D01*
X160040000Y-127100000D02*
X160040000Y-127750000D01*
X156920000Y-127100000D02*
X156920000Y-125425000D01*
X156920000Y-127100000D02*
X156920000Y-127750000D01*
%TO.C,D7*%
X141900000Y-71314849D02*
X141900000Y-72519950D01*
X144074899Y-69139950D02*
G75*
G03*
X144074899Y-69139950I-2174899J0D01*
G01*
%TO.C,D4*%
X170370000Y-73550000D02*
X175880000Y-73550000D01*
X170370000Y-76850000D02*
X170370000Y-73550000D01*
X170370000Y-76850000D02*
X175880000Y-76850000D01*
%TO.C,R27*%
X144645000Y-128927064D02*
X144645000Y-128472936D01*
X146115000Y-128927064D02*
X146115000Y-128472936D01*
%TO.C,R5*%
X193177936Y-89475000D02*
X193632064Y-89475000D01*
X193177936Y-90945000D02*
X193632064Y-90945000D01*
%TO.C,C14*%
X213070000Y-93011252D02*
X213070000Y-91588748D01*
X215790000Y-93011252D02*
X215790000Y-91588748D01*
%TO.C,C1*%
X230990000Y-130659420D02*
X230990000Y-130940580D01*
X229970000Y-130659420D02*
X229970000Y-130940580D01*
%TO.C,R18*%
X125245000Y-98139564D02*
X125245000Y-97685436D01*
X126715000Y-98139564D02*
X126715000Y-97685436D01*
%TO.C,C42*%
X160570000Y-101840580D02*
X160570000Y-101559420D01*
X161590000Y-101840580D02*
X161590000Y-101559420D01*
%TO.C,R14*%
X120707064Y-72410000D02*
X119252936Y-72410000D01*
X120707064Y-70590000D02*
X119252936Y-70590000D01*
%TO.C,R12*%
X125707064Y-72410000D02*
X124252936Y-72410000D01*
X125707064Y-70590000D02*
X124252936Y-70590000D01*
%TO.C,U1*%
X208180000Y-69340000D02*
X207380000Y-69340000D01*
X208180000Y-69340000D02*
X208980000Y-69340000D01*
X208180000Y-72460000D02*
X206380000Y-72460000D01*
X208180000Y-72460000D02*
X208980000Y-72460000D01*
%TD*%
M02*
