%TF.GenerationSoftware,KiCad,Pcbnew,7.0.9-7.0.9~ubuntu22.04.1*%
%TF.CreationDate,2023-11-25T10:37:07+03:00*%
%TF.ProjectId,xray-v2,78726179-2d76-4322-9e6b-696361645f70,rev?*%
%TF.SameCoordinates,Original*%
%TF.FileFunction,Drillmap*%
%TF.FilePolarity,Positive*%
%FSLAX45Y45*%
G04 Gerber Fmt 4.5, Leading zero omitted, Abs format (unit mm)*
G04 Created by KiCad (PCBNEW 7.0.9-7.0.9~ubuntu22.04.1) date 2023-11-25 10:37:07*
%MOMM*%
%LPD*%
G01*
G04 APERTURE LIST*
%ADD10C,0.100000*%
%ADD11C,0.200000*%
%ADD12C,0.220000*%
%ADD13C,0.300000*%
G04 APERTURE END LIST*
D10*
X10000000Y-6550000D02*
X24400000Y-6550000D01*
X24400000Y-13450000D02*
X24400000Y-9772500D01*
X19483050Y-13450000D02*
X24400000Y-13450000D01*
X10000000Y-13450000D02*
X10000000Y-6550000D01*
X18293050Y-13450000D02*
X10000000Y-13450000D01*
X24400000Y-6700000D02*
X24400000Y-6550000D01*
X24400000Y-8582500D02*
X24400000Y-7960000D01*
D11*
D12*
X14190000Y-11190000D02*
X14410000Y-11410000D01*
X14410000Y-11190000D02*
X14190000Y-11410000D01*
X14790000Y-9290000D02*
X15010000Y-9510000D01*
X15010000Y-9290000D02*
X14790000Y-9510000D01*
X20340000Y-8690000D02*
X20560000Y-8910000D01*
X20560000Y-8690000D02*
X20340000Y-8910000D01*
X21890000Y-12090000D02*
X22110000Y-12310000D01*
X22110000Y-12090000D02*
X21890000Y-12310000D01*
X22090000Y-6890000D02*
X22310000Y-7110000D01*
X22310000Y-6890000D02*
X22090000Y-7110000D01*
X23890000Y-10990000D02*
X24110000Y-11210000D01*
X24110000Y-10990000D02*
X23890000Y-11210000D01*
X23990000Y-8190000D02*
X24210000Y-8410000D01*
X24210000Y-8190000D02*
X23990000Y-8410000D01*
D13*
X10408000Y-6930000D02*
G75*
G03*
X10408000Y-6930000I-150000J0D01*
G01*
X10408000Y-13170000D02*
G75*
G03*
X10408000Y-13170000I-150000J0D01*
G01*
X13908000Y-6930000D02*
G75*
G03*
X13908000Y-6930000I-150000J0D01*
G01*
X13908000Y-13170000D02*
G75*
G03*
X13908000Y-13170000I-150000J0D01*
G01*
D11*
X10255777Y-13767484D02*
X10255777Y-13567484D01*
X10255777Y-13567484D02*
X10303396Y-13567484D01*
X10303396Y-13567484D02*
X10331967Y-13577008D01*
X10331967Y-13577008D02*
X10351015Y-13596055D01*
X10351015Y-13596055D02*
X10360539Y-13615103D01*
X10360539Y-13615103D02*
X10370063Y-13653198D01*
X10370063Y-13653198D02*
X10370063Y-13681769D01*
X10370063Y-13681769D02*
X10360539Y-13719865D01*
X10360539Y-13719865D02*
X10351015Y-13738912D01*
X10351015Y-13738912D02*
X10331967Y-13757960D01*
X10331967Y-13757960D02*
X10303396Y-13767484D01*
X10303396Y-13767484D02*
X10255777Y-13767484D01*
X10455777Y-13767484D02*
X10455777Y-13634150D01*
X10455777Y-13672246D02*
X10465301Y-13653198D01*
X10465301Y-13653198D02*
X10474824Y-13643674D01*
X10474824Y-13643674D02*
X10493872Y-13634150D01*
X10493872Y-13634150D02*
X10512920Y-13634150D01*
X10579586Y-13767484D02*
X10579586Y-13634150D01*
X10579586Y-13567484D02*
X10570063Y-13577008D01*
X10570063Y-13577008D02*
X10579586Y-13586531D01*
X10579586Y-13586531D02*
X10589110Y-13577008D01*
X10589110Y-13577008D02*
X10579586Y-13567484D01*
X10579586Y-13567484D02*
X10579586Y-13586531D01*
X10703396Y-13767484D02*
X10684348Y-13757960D01*
X10684348Y-13757960D02*
X10674824Y-13738912D01*
X10674824Y-13738912D02*
X10674824Y-13567484D01*
X10808158Y-13767484D02*
X10789110Y-13757960D01*
X10789110Y-13757960D02*
X10779586Y-13738912D01*
X10779586Y-13738912D02*
X10779586Y-13567484D01*
X11036729Y-13767484D02*
X11036729Y-13567484D01*
X11036729Y-13567484D02*
X11103396Y-13710341D01*
X11103396Y-13710341D02*
X11170063Y-13567484D01*
X11170063Y-13567484D02*
X11170063Y-13767484D01*
X11351015Y-13767484D02*
X11351015Y-13662722D01*
X11351015Y-13662722D02*
X11341491Y-13643674D01*
X11341491Y-13643674D02*
X11322443Y-13634150D01*
X11322443Y-13634150D02*
X11284348Y-13634150D01*
X11284348Y-13634150D02*
X11265301Y-13643674D01*
X11351015Y-13757960D02*
X11331967Y-13767484D01*
X11331967Y-13767484D02*
X11284348Y-13767484D01*
X11284348Y-13767484D02*
X11265301Y-13757960D01*
X11265301Y-13757960D02*
X11255777Y-13738912D01*
X11255777Y-13738912D02*
X11255777Y-13719865D01*
X11255777Y-13719865D02*
X11265301Y-13700817D01*
X11265301Y-13700817D02*
X11284348Y-13691293D01*
X11284348Y-13691293D02*
X11331967Y-13691293D01*
X11331967Y-13691293D02*
X11351015Y-13681769D01*
X11446253Y-13634150D02*
X11446253Y-13834150D01*
X11446253Y-13643674D02*
X11465301Y-13634150D01*
X11465301Y-13634150D02*
X11503396Y-13634150D01*
X11503396Y-13634150D02*
X11522443Y-13643674D01*
X11522443Y-13643674D02*
X11531967Y-13653198D01*
X11531967Y-13653198D02*
X11541491Y-13672246D01*
X11541491Y-13672246D02*
X11541491Y-13729388D01*
X11541491Y-13729388D02*
X11531967Y-13748436D01*
X11531967Y-13748436D02*
X11522443Y-13757960D01*
X11522443Y-13757960D02*
X11503396Y-13767484D01*
X11503396Y-13767484D02*
X11465301Y-13767484D01*
X11465301Y-13767484D02*
X11446253Y-13757960D01*
X11627205Y-13748436D02*
X11636729Y-13757960D01*
X11636729Y-13757960D02*
X11627205Y-13767484D01*
X11627205Y-13767484D02*
X11617682Y-13757960D01*
X11617682Y-13757960D02*
X11627205Y-13748436D01*
X11627205Y-13748436D02*
X11627205Y-13767484D01*
X11627205Y-13643674D02*
X11636729Y-13653198D01*
X11636729Y-13653198D02*
X11627205Y-13662722D01*
X11627205Y-13662722D02*
X11617682Y-13653198D01*
X11617682Y-13653198D02*
X11627205Y-13643674D01*
X11627205Y-13643674D02*
X11627205Y-13662722D01*
X9795000Y-13996000D02*
X9995000Y-14196000D01*
X9995000Y-13996000D02*
X9795000Y-14196000D01*
X10246253Y-14006531D02*
X10255777Y-13997008D01*
X10255777Y-13997008D02*
X10274824Y-13987484D01*
X10274824Y-13987484D02*
X10322444Y-13987484D01*
X10322444Y-13987484D02*
X10341491Y-13997008D01*
X10341491Y-13997008D02*
X10351015Y-14006531D01*
X10351015Y-14006531D02*
X10360539Y-14025579D01*
X10360539Y-14025579D02*
X10360539Y-14044627D01*
X10360539Y-14044627D02*
X10351015Y-14073198D01*
X10351015Y-14073198D02*
X10236729Y-14187484D01*
X10236729Y-14187484D02*
X10360539Y-14187484D01*
X10446253Y-14168436D02*
X10455777Y-14177960D01*
X10455777Y-14177960D02*
X10446253Y-14187484D01*
X10446253Y-14187484D02*
X10436729Y-14177960D01*
X10436729Y-14177960D02*
X10446253Y-14168436D01*
X10446253Y-14168436D02*
X10446253Y-14187484D01*
X10531967Y-14006531D02*
X10541491Y-13997008D01*
X10541491Y-13997008D02*
X10560539Y-13987484D01*
X10560539Y-13987484D02*
X10608158Y-13987484D01*
X10608158Y-13987484D02*
X10627205Y-13997008D01*
X10627205Y-13997008D02*
X10636729Y-14006531D01*
X10636729Y-14006531D02*
X10646253Y-14025579D01*
X10646253Y-14025579D02*
X10646253Y-14044627D01*
X10646253Y-14044627D02*
X10636729Y-14073198D01*
X10636729Y-14073198D02*
X10522444Y-14187484D01*
X10522444Y-14187484D02*
X10646253Y-14187484D01*
X10770063Y-13987484D02*
X10789110Y-13987484D01*
X10789110Y-13987484D02*
X10808158Y-13997008D01*
X10808158Y-13997008D02*
X10817682Y-14006531D01*
X10817682Y-14006531D02*
X10827205Y-14025579D01*
X10827205Y-14025579D02*
X10836729Y-14063674D01*
X10836729Y-14063674D02*
X10836729Y-14111293D01*
X10836729Y-14111293D02*
X10827205Y-14149388D01*
X10827205Y-14149388D02*
X10817682Y-14168436D01*
X10817682Y-14168436D02*
X10808158Y-14177960D01*
X10808158Y-14177960D02*
X10789110Y-14187484D01*
X10789110Y-14187484D02*
X10770063Y-14187484D01*
X10770063Y-14187484D02*
X10751015Y-14177960D01*
X10751015Y-14177960D02*
X10741491Y-14168436D01*
X10741491Y-14168436D02*
X10731967Y-14149388D01*
X10731967Y-14149388D02*
X10722444Y-14111293D01*
X10722444Y-14111293D02*
X10722444Y-14063674D01*
X10722444Y-14063674D02*
X10731967Y-14025579D01*
X10731967Y-14025579D02*
X10741491Y-14006531D01*
X10741491Y-14006531D02*
X10751015Y-13997008D01*
X10751015Y-13997008D02*
X10770063Y-13987484D01*
X10960539Y-13987484D02*
X10979586Y-13987484D01*
X10979586Y-13987484D02*
X10998634Y-13997008D01*
X10998634Y-13997008D02*
X11008158Y-14006531D01*
X11008158Y-14006531D02*
X11017682Y-14025579D01*
X11017682Y-14025579D02*
X11027205Y-14063674D01*
X11027205Y-14063674D02*
X11027205Y-14111293D01*
X11027205Y-14111293D02*
X11017682Y-14149388D01*
X11017682Y-14149388D02*
X11008158Y-14168436D01*
X11008158Y-14168436D02*
X10998634Y-14177960D01*
X10998634Y-14177960D02*
X10979586Y-14187484D01*
X10979586Y-14187484D02*
X10960539Y-14187484D01*
X10960539Y-14187484D02*
X10941491Y-14177960D01*
X10941491Y-14177960D02*
X10931967Y-14168436D01*
X10931967Y-14168436D02*
X10922444Y-14149388D01*
X10922444Y-14149388D02*
X10912920Y-14111293D01*
X10912920Y-14111293D02*
X10912920Y-14063674D01*
X10912920Y-14063674D02*
X10922444Y-14025579D01*
X10922444Y-14025579D02*
X10931967Y-14006531D01*
X10931967Y-14006531D02*
X10941491Y-13997008D01*
X10941491Y-13997008D02*
X10960539Y-13987484D01*
X11112920Y-14187484D02*
X11112920Y-14054150D01*
X11112920Y-14073198D02*
X11122444Y-14063674D01*
X11122444Y-14063674D02*
X11141491Y-14054150D01*
X11141491Y-14054150D02*
X11170063Y-14054150D01*
X11170063Y-14054150D02*
X11189110Y-14063674D01*
X11189110Y-14063674D02*
X11198634Y-14082722D01*
X11198634Y-14082722D02*
X11198634Y-14187484D01*
X11198634Y-14082722D02*
X11208158Y-14063674D01*
X11208158Y-14063674D02*
X11227205Y-14054150D01*
X11227205Y-14054150D02*
X11255777Y-14054150D01*
X11255777Y-14054150D02*
X11274824Y-14063674D01*
X11274824Y-14063674D02*
X11284348Y-14082722D01*
X11284348Y-14082722D02*
X11284348Y-14187484D01*
X11379586Y-14187484D02*
X11379586Y-14054150D01*
X11379586Y-14073198D02*
X11389110Y-14063674D01*
X11389110Y-14063674D02*
X11408158Y-14054150D01*
X11408158Y-14054150D02*
X11436729Y-14054150D01*
X11436729Y-14054150D02*
X11455777Y-14063674D01*
X11455777Y-14063674D02*
X11465301Y-14082722D01*
X11465301Y-14082722D02*
X11465301Y-14187484D01*
X11465301Y-14082722D02*
X11474824Y-14063674D01*
X11474824Y-14063674D02*
X11493872Y-14054150D01*
X11493872Y-14054150D02*
X11522443Y-14054150D01*
X11522443Y-14054150D02*
X11541491Y-14063674D01*
X11541491Y-14063674D02*
X11551015Y-14082722D01*
X11551015Y-14082722D02*
X11551015Y-14187484D01*
X11941491Y-13977960D02*
X11770063Y-14235103D01*
X12198634Y-13987484D02*
X12217682Y-13987484D01*
X12217682Y-13987484D02*
X12236729Y-13997008D01*
X12236729Y-13997008D02*
X12246253Y-14006531D01*
X12246253Y-14006531D02*
X12255777Y-14025579D01*
X12255777Y-14025579D02*
X12265301Y-14063674D01*
X12265301Y-14063674D02*
X12265301Y-14111293D01*
X12265301Y-14111293D02*
X12255777Y-14149388D01*
X12255777Y-14149388D02*
X12246253Y-14168436D01*
X12246253Y-14168436D02*
X12236729Y-14177960D01*
X12236729Y-14177960D02*
X12217682Y-14187484D01*
X12217682Y-14187484D02*
X12198634Y-14187484D01*
X12198634Y-14187484D02*
X12179586Y-14177960D01*
X12179586Y-14177960D02*
X12170063Y-14168436D01*
X12170063Y-14168436D02*
X12160539Y-14149388D01*
X12160539Y-14149388D02*
X12151015Y-14111293D01*
X12151015Y-14111293D02*
X12151015Y-14063674D01*
X12151015Y-14063674D02*
X12160539Y-14025579D01*
X12160539Y-14025579D02*
X12170063Y-14006531D01*
X12170063Y-14006531D02*
X12179586Y-13997008D01*
X12179586Y-13997008D02*
X12198634Y-13987484D01*
X12351015Y-14168436D02*
X12360539Y-14177960D01*
X12360539Y-14177960D02*
X12351015Y-14187484D01*
X12351015Y-14187484D02*
X12341491Y-14177960D01*
X12341491Y-14177960D02*
X12351015Y-14168436D01*
X12351015Y-14168436D02*
X12351015Y-14187484D01*
X12484348Y-13987484D02*
X12503396Y-13987484D01*
X12503396Y-13987484D02*
X12522444Y-13997008D01*
X12522444Y-13997008D02*
X12531967Y-14006531D01*
X12531967Y-14006531D02*
X12541491Y-14025579D01*
X12541491Y-14025579D02*
X12551015Y-14063674D01*
X12551015Y-14063674D02*
X12551015Y-14111293D01*
X12551015Y-14111293D02*
X12541491Y-14149388D01*
X12541491Y-14149388D02*
X12531967Y-14168436D01*
X12531967Y-14168436D02*
X12522444Y-14177960D01*
X12522444Y-14177960D02*
X12503396Y-14187484D01*
X12503396Y-14187484D02*
X12484348Y-14187484D01*
X12484348Y-14187484D02*
X12465301Y-14177960D01*
X12465301Y-14177960D02*
X12455777Y-14168436D01*
X12455777Y-14168436D02*
X12446253Y-14149388D01*
X12446253Y-14149388D02*
X12436729Y-14111293D01*
X12436729Y-14111293D02*
X12436729Y-14063674D01*
X12436729Y-14063674D02*
X12446253Y-14025579D01*
X12446253Y-14025579D02*
X12455777Y-14006531D01*
X12455777Y-14006531D02*
X12465301Y-13997008D01*
X12465301Y-13997008D02*
X12484348Y-13987484D01*
X12665301Y-14073198D02*
X12646253Y-14063674D01*
X12646253Y-14063674D02*
X12636729Y-14054150D01*
X12636729Y-14054150D02*
X12627206Y-14035103D01*
X12627206Y-14035103D02*
X12627206Y-14025579D01*
X12627206Y-14025579D02*
X12636729Y-14006531D01*
X12636729Y-14006531D02*
X12646253Y-13997008D01*
X12646253Y-13997008D02*
X12665301Y-13987484D01*
X12665301Y-13987484D02*
X12703396Y-13987484D01*
X12703396Y-13987484D02*
X12722444Y-13997008D01*
X12722444Y-13997008D02*
X12731967Y-14006531D01*
X12731967Y-14006531D02*
X12741491Y-14025579D01*
X12741491Y-14025579D02*
X12741491Y-14035103D01*
X12741491Y-14035103D02*
X12731967Y-14054150D01*
X12731967Y-14054150D02*
X12722444Y-14063674D01*
X12722444Y-14063674D02*
X12703396Y-14073198D01*
X12703396Y-14073198D02*
X12665301Y-14073198D01*
X12665301Y-14073198D02*
X12646253Y-14082722D01*
X12646253Y-14082722D02*
X12636729Y-14092246D01*
X12636729Y-14092246D02*
X12627206Y-14111293D01*
X12627206Y-14111293D02*
X12627206Y-14149388D01*
X12627206Y-14149388D02*
X12636729Y-14168436D01*
X12636729Y-14168436D02*
X12646253Y-14177960D01*
X12646253Y-14177960D02*
X12665301Y-14187484D01*
X12665301Y-14187484D02*
X12703396Y-14187484D01*
X12703396Y-14187484D02*
X12722444Y-14177960D01*
X12722444Y-14177960D02*
X12731967Y-14168436D01*
X12731967Y-14168436D02*
X12741491Y-14149388D01*
X12741491Y-14149388D02*
X12741491Y-14111293D01*
X12741491Y-14111293D02*
X12731967Y-14092246D01*
X12731967Y-14092246D02*
X12722444Y-14082722D01*
X12722444Y-14082722D02*
X12703396Y-14073198D01*
X12912920Y-13987484D02*
X12874825Y-13987484D01*
X12874825Y-13987484D02*
X12855777Y-13997008D01*
X12855777Y-13997008D02*
X12846253Y-14006531D01*
X12846253Y-14006531D02*
X12827206Y-14035103D01*
X12827206Y-14035103D02*
X12817682Y-14073198D01*
X12817682Y-14073198D02*
X12817682Y-14149388D01*
X12817682Y-14149388D02*
X12827206Y-14168436D01*
X12827206Y-14168436D02*
X12836729Y-14177960D01*
X12836729Y-14177960D02*
X12855777Y-14187484D01*
X12855777Y-14187484D02*
X12893872Y-14187484D01*
X12893872Y-14187484D02*
X12912920Y-14177960D01*
X12912920Y-14177960D02*
X12922444Y-14168436D01*
X12922444Y-14168436D02*
X12931967Y-14149388D01*
X12931967Y-14149388D02*
X12931967Y-14101769D01*
X12931967Y-14101769D02*
X12922444Y-14082722D01*
X12922444Y-14082722D02*
X12912920Y-14073198D01*
X12912920Y-14073198D02*
X12893872Y-14063674D01*
X12893872Y-14063674D02*
X12855777Y-14063674D01*
X12855777Y-14063674D02*
X12836729Y-14073198D01*
X12836729Y-14073198D02*
X12827206Y-14082722D01*
X12827206Y-14082722D02*
X12817682Y-14101769D01*
X13103396Y-13987484D02*
X13065301Y-13987484D01*
X13065301Y-13987484D02*
X13046253Y-13997008D01*
X13046253Y-13997008D02*
X13036729Y-14006531D01*
X13036729Y-14006531D02*
X13017682Y-14035103D01*
X13017682Y-14035103D02*
X13008158Y-14073198D01*
X13008158Y-14073198D02*
X13008158Y-14149388D01*
X13008158Y-14149388D02*
X13017682Y-14168436D01*
X13017682Y-14168436D02*
X13027206Y-14177960D01*
X13027206Y-14177960D02*
X13046253Y-14187484D01*
X13046253Y-14187484D02*
X13084348Y-14187484D01*
X13084348Y-14187484D02*
X13103396Y-14177960D01*
X13103396Y-14177960D02*
X13112920Y-14168436D01*
X13112920Y-14168436D02*
X13122444Y-14149388D01*
X13122444Y-14149388D02*
X13122444Y-14101769D01*
X13122444Y-14101769D02*
X13112920Y-14082722D01*
X13112920Y-14082722D02*
X13103396Y-14073198D01*
X13103396Y-14073198D02*
X13084348Y-14063674D01*
X13084348Y-14063674D02*
X13046253Y-14063674D01*
X13046253Y-14063674D02*
X13027206Y-14073198D01*
X13027206Y-14073198D02*
X13017682Y-14082722D01*
X13017682Y-14082722D02*
X13008158Y-14101769D01*
X13198634Y-13987484D02*
X13198634Y-14025579D01*
X13274825Y-13987484D02*
X13274825Y-14025579D01*
X13570063Y-14263674D02*
X13560539Y-14254150D01*
X13560539Y-14254150D02*
X13541491Y-14225579D01*
X13541491Y-14225579D02*
X13531968Y-14206531D01*
X13531968Y-14206531D02*
X13522444Y-14177960D01*
X13522444Y-14177960D02*
X13512920Y-14130341D01*
X13512920Y-14130341D02*
X13512920Y-14092246D01*
X13512920Y-14092246D02*
X13522444Y-14044627D01*
X13522444Y-14044627D02*
X13531968Y-14016055D01*
X13531968Y-14016055D02*
X13541491Y-13997008D01*
X13541491Y-13997008D02*
X13560539Y-13968436D01*
X13560539Y-13968436D02*
X13570063Y-13958912D01*
X13627206Y-13987484D02*
X13760539Y-13987484D01*
X13760539Y-13987484D02*
X13674825Y-14187484D01*
X13989110Y-14187484D02*
X13989110Y-13987484D01*
X14074825Y-14187484D02*
X14074825Y-14082722D01*
X14074825Y-14082722D02*
X14065301Y-14063674D01*
X14065301Y-14063674D02*
X14046253Y-14054150D01*
X14046253Y-14054150D02*
X14017682Y-14054150D01*
X14017682Y-14054150D02*
X13998634Y-14063674D01*
X13998634Y-14063674D02*
X13989110Y-14073198D01*
X14198634Y-14187484D02*
X14179587Y-14177960D01*
X14179587Y-14177960D02*
X14170063Y-14168436D01*
X14170063Y-14168436D02*
X14160539Y-14149388D01*
X14160539Y-14149388D02*
X14160539Y-14092246D01*
X14160539Y-14092246D02*
X14170063Y-14073198D01*
X14170063Y-14073198D02*
X14179587Y-14063674D01*
X14179587Y-14063674D02*
X14198634Y-14054150D01*
X14198634Y-14054150D02*
X14227206Y-14054150D01*
X14227206Y-14054150D02*
X14246253Y-14063674D01*
X14246253Y-14063674D02*
X14255777Y-14073198D01*
X14255777Y-14073198D02*
X14265301Y-14092246D01*
X14265301Y-14092246D02*
X14265301Y-14149388D01*
X14265301Y-14149388D02*
X14255777Y-14168436D01*
X14255777Y-14168436D02*
X14246253Y-14177960D01*
X14246253Y-14177960D02*
X14227206Y-14187484D01*
X14227206Y-14187484D02*
X14198634Y-14187484D01*
X14379587Y-14187484D02*
X14360539Y-14177960D01*
X14360539Y-14177960D02*
X14351015Y-14158912D01*
X14351015Y-14158912D02*
X14351015Y-13987484D01*
X14531968Y-14177960D02*
X14512920Y-14187484D01*
X14512920Y-14187484D02*
X14474825Y-14187484D01*
X14474825Y-14187484D02*
X14455777Y-14177960D01*
X14455777Y-14177960D02*
X14446253Y-14158912D01*
X14446253Y-14158912D02*
X14446253Y-14082722D01*
X14446253Y-14082722D02*
X14455777Y-14063674D01*
X14455777Y-14063674D02*
X14474825Y-14054150D01*
X14474825Y-14054150D02*
X14512920Y-14054150D01*
X14512920Y-14054150D02*
X14531968Y-14063674D01*
X14531968Y-14063674D02*
X14541491Y-14082722D01*
X14541491Y-14082722D02*
X14541491Y-14101769D01*
X14541491Y-14101769D02*
X14446253Y-14120817D01*
X14617682Y-14177960D02*
X14636730Y-14187484D01*
X14636730Y-14187484D02*
X14674825Y-14187484D01*
X14674825Y-14187484D02*
X14693872Y-14177960D01*
X14693872Y-14177960D02*
X14703396Y-14158912D01*
X14703396Y-14158912D02*
X14703396Y-14149388D01*
X14703396Y-14149388D02*
X14693872Y-14130341D01*
X14693872Y-14130341D02*
X14674825Y-14120817D01*
X14674825Y-14120817D02*
X14646253Y-14120817D01*
X14646253Y-14120817D02*
X14627206Y-14111293D01*
X14627206Y-14111293D02*
X14617682Y-14092246D01*
X14617682Y-14092246D02*
X14617682Y-14082722D01*
X14617682Y-14082722D02*
X14627206Y-14063674D01*
X14627206Y-14063674D02*
X14646253Y-14054150D01*
X14646253Y-14054150D02*
X14674825Y-14054150D01*
X14674825Y-14054150D02*
X14693872Y-14063674D01*
X14770063Y-14263674D02*
X14779587Y-14254150D01*
X14779587Y-14254150D02*
X14798634Y-14225579D01*
X14798634Y-14225579D02*
X14808158Y-14206531D01*
X14808158Y-14206531D02*
X14817682Y-14177960D01*
X14817682Y-14177960D02*
X14827206Y-14130341D01*
X14827206Y-14130341D02*
X14827206Y-14092246D01*
X14827206Y-14092246D02*
X14817682Y-14044627D01*
X14817682Y-14044627D02*
X14808158Y-14016055D01*
X14808158Y-14016055D02*
X14798634Y-13997008D01*
X14798634Y-13997008D02*
X14779587Y-13968436D01*
X14779587Y-13968436D02*
X14770063Y-13958912D01*
X15131968Y-14263674D02*
X15122444Y-14254150D01*
X15122444Y-14254150D02*
X15103396Y-14225579D01*
X15103396Y-14225579D02*
X15093872Y-14206531D01*
X15093872Y-14206531D02*
X15084349Y-14177960D01*
X15084349Y-14177960D02*
X15074825Y-14130341D01*
X15074825Y-14130341D02*
X15074825Y-14092246D01*
X15074825Y-14092246D02*
X15084349Y-14044627D01*
X15084349Y-14044627D02*
X15093872Y-14016055D01*
X15093872Y-14016055D02*
X15103396Y-13997008D01*
X15103396Y-13997008D02*
X15122444Y-13968436D01*
X15122444Y-13968436D02*
X15131968Y-13958912D01*
X15208158Y-14054150D02*
X15208158Y-14187484D01*
X15208158Y-14073198D02*
X15217682Y-14063674D01*
X15217682Y-14063674D02*
X15236730Y-14054150D01*
X15236730Y-14054150D02*
X15265301Y-14054150D01*
X15265301Y-14054150D02*
X15284349Y-14063674D01*
X15284349Y-14063674D02*
X15293872Y-14082722D01*
X15293872Y-14082722D02*
X15293872Y-14187484D01*
X15417682Y-14187484D02*
X15398634Y-14177960D01*
X15398634Y-14177960D02*
X15389111Y-14168436D01*
X15389111Y-14168436D02*
X15379587Y-14149388D01*
X15379587Y-14149388D02*
X15379587Y-14092246D01*
X15379587Y-14092246D02*
X15389111Y-14073198D01*
X15389111Y-14073198D02*
X15398634Y-14063674D01*
X15398634Y-14063674D02*
X15417682Y-14054150D01*
X15417682Y-14054150D02*
X15446253Y-14054150D01*
X15446253Y-14054150D02*
X15465301Y-14063674D01*
X15465301Y-14063674D02*
X15474825Y-14073198D01*
X15474825Y-14073198D02*
X15484349Y-14092246D01*
X15484349Y-14092246D02*
X15484349Y-14149388D01*
X15484349Y-14149388D02*
X15474825Y-14168436D01*
X15474825Y-14168436D02*
X15465301Y-14177960D01*
X15465301Y-14177960D02*
X15446253Y-14187484D01*
X15446253Y-14187484D02*
X15417682Y-14187484D01*
X15541492Y-14054150D02*
X15617682Y-14054150D01*
X15570063Y-13987484D02*
X15570063Y-14158912D01*
X15570063Y-14158912D02*
X15579587Y-14177960D01*
X15579587Y-14177960D02*
X15598634Y-14187484D01*
X15598634Y-14187484D02*
X15617682Y-14187484D01*
X15836730Y-14054150D02*
X15836730Y-14254150D01*
X15836730Y-14063674D02*
X15855777Y-14054150D01*
X15855777Y-14054150D02*
X15893873Y-14054150D01*
X15893873Y-14054150D02*
X15912920Y-14063674D01*
X15912920Y-14063674D02*
X15922444Y-14073198D01*
X15922444Y-14073198D02*
X15931968Y-14092246D01*
X15931968Y-14092246D02*
X15931968Y-14149388D01*
X15931968Y-14149388D02*
X15922444Y-14168436D01*
X15922444Y-14168436D02*
X15912920Y-14177960D01*
X15912920Y-14177960D02*
X15893873Y-14187484D01*
X15893873Y-14187484D02*
X15855777Y-14187484D01*
X15855777Y-14187484D02*
X15836730Y-14177960D01*
X16046253Y-14187484D02*
X16027206Y-14177960D01*
X16027206Y-14177960D02*
X16017682Y-14158912D01*
X16017682Y-14158912D02*
X16017682Y-13987484D01*
X16208158Y-14187484D02*
X16208158Y-14082722D01*
X16208158Y-14082722D02*
X16198634Y-14063674D01*
X16198634Y-14063674D02*
X16179587Y-14054150D01*
X16179587Y-14054150D02*
X16141492Y-14054150D01*
X16141492Y-14054150D02*
X16122444Y-14063674D01*
X16208158Y-14177960D02*
X16189111Y-14187484D01*
X16189111Y-14187484D02*
X16141492Y-14187484D01*
X16141492Y-14187484D02*
X16122444Y-14177960D01*
X16122444Y-14177960D02*
X16112920Y-14158912D01*
X16112920Y-14158912D02*
X16112920Y-14139865D01*
X16112920Y-14139865D02*
X16122444Y-14120817D01*
X16122444Y-14120817D02*
X16141492Y-14111293D01*
X16141492Y-14111293D02*
X16189111Y-14111293D01*
X16189111Y-14111293D02*
X16208158Y-14101769D01*
X16274825Y-14054150D02*
X16351015Y-14054150D01*
X16303396Y-13987484D02*
X16303396Y-14158912D01*
X16303396Y-14158912D02*
X16312920Y-14177960D01*
X16312920Y-14177960D02*
X16331968Y-14187484D01*
X16331968Y-14187484D02*
X16351015Y-14187484D01*
X16493873Y-14177960D02*
X16474825Y-14187484D01*
X16474825Y-14187484D02*
X16436730Y-14187484D01*
X16436730Y-14187484D02*
X16417682Y-14177960D01*
X16417682Y-14177960D02*
X16408158Y-14158912D01*
X16408158Y-14158912D02*
X16408158Y-14082722D01*
X16408158Y-14082722D02*
X16417682Y-14063674D01*
X16417682Y-14063674D02*
X16436730Y-14054150D01*
X16436730Y-14054150D02*
X16474825Y-14054150D01*
X16474825Y-14054150D02*
X16493873Y-14063674D01*
X16493873Y-14063674D02*
X16503396Y-14082722D01*
X16503396Y-14082722D02*
X16503396Y-14101769D01*
X16503396Y-14101769D02*
X16408158Y-14120817D01*
X16674825Y-14187484D02*
X16674825Y-13987484D01*
X16674825Y-14177960D02*
X16655777Y-14187484D01*
X16655777Y-14187484D02*
X16617682Y-14187484D01*
X16617682Y-14187484D02*
X16598634Y-14177960D01*
X16598634Y-14177960D02*
X16589111Y-14168436D01*
X16589111Y-14168436D02*
X16579587Y-14149388D01*
X16579587Y-14149388D02*
X16579587Y-14092246D01*
X16579587Y-14092246D02*
X16589111Y-14073198D01*
X16589111Y-14073198D02*
X16598634Y-14063674D01*
X16598634Y-14063674D02*
X16617682Y-14054150D01*
X16617682Y-14054150D02*
X16655777Y-14054150D01*
X16655777Y-14054150D02*
X16674825Y-14063674D01*
X16751015Y-14263674D02*
X16760539Y-14254150D01*
X16760539Y-14254150D02*
X16779587Y-14225579D01*
X16779587Y-14225579D02*
X16789111Y-14206531D01*
X16789111Y-14206531D02*
X16798635Y-14177960D01*
X16798635Y-14177960D02*
X16808158Y-14130341D01*
X16808158Y-14130341D02*
X16808158Y-14092246D01*
X16808158Y-14092246D02*
X16798635Y-14044627D01*
X16798635Y-14044627D02*
X16789111Y-14016055D01*
X16789111Y-14016055D02*
X16779587Y-13997008D01*
X16779587Y-13997008D02*
X16760539Y-13968436D01*
X16760539Y-13968436D02*
X16751015Y-13958912D01*
X9995000Y-14416000D02*
G75*
G03*
X9995000Y-14416000I-100000J0D01*
G01*
X10236729Y-14307484D02*
X10360539Y-14307484D01*
X10360539Y-14307484D02*
X10293872Y-14383674D01*
X10293872Y-14383674D02*
X10322444Y-14383674D01*
X10322444Y-14383674D02*
X10341491Y-14393198D01*
X10341491Y-14393198D02*
X10351015Y-14402722D01*
X10351015Y-14402722D02*
X10360539Y-14421769D01*
X10360539Y-14421769D02*
X10360539Y-14469388D01*
X10360539Y-14469388D02*
X10351015Y-14488436D01*
X10351015Y-14488436D02*
X10341491Y-14497960D01*
X10341491Y-14497960D02*
X10322444Y-14507484D01*
X10322444Y-14507484D02*
X10265301Y-14507484D01*
X10265301Y-14507484D02*
X10246253Y-14497960D01*
X10246253Y-14497960D02*
X10236729Y-14488436D01*
X10446253Y-14488436D02*
X10455777Y-14497960D01*
X10455777Y-14497960D02*
X10446253Y-14507484D01*
X10446253Y-14507484D02*
X10436729Y-14497960D01*
X10436729Y-14497960D02*
X10446253Y-14488436D01*
X10446253Y-14488436D02*
X10446253Y-14507484D01*
X10579586Y-14307484D02*
X10598634Y-14307484D01*
X10598634Y-14307484D02*
X10617682Y-14317008D01*
X10617682Y-14317008D02*
X10627205Y-14326531D01*
X10627205Y-14326531D02*
X10636729Y-14345579D01*
X10636729Y-14345579D02*
X10646253Y-14383674D01*
X10646253Y-14383674D02*
X10646253Y-14431293D01*
X10646253Y-14431293D02*
X10636729Y-14469388D01*
X10636729Y-14469388D02*
X10627205Y-14488436D01*
X10627205Y-14488436D02*
X10617682Y-14497960D01*
X10617682Y-14497960D02*
X10598634Y-14507484D01*
X10598634Y-14507484D02*
X10579586Y-14507484D01*
X10579586Y-14507484D02*
X10560539Y-14497960D01*
X10560539Y-14497960D02*
X10551015Y-14488436D01*
X10551015Y-14488436D02*
X10541491Y-14469388D01*
X10541491Y-14469388D02*
X10531967Y-14431293D01*
X10531967Y-14431293D02*
X10531967Y-14383674D01*
X10531967Y-14383674D02*
X10541491Y-14345579D01*
X10541491Y-14345579D02*
X10551015Y-14326531D01*
X10551015Y-14326531D02*
X10560539Y-14317008D01*
X10560539Y-14317008D02*
X10579586Y-14307484D01*
X10770063Y-14307484D02*
X10789110Y-14307484D01*
X10789110Y-14307484D02*
X10808158Y-14317008D01*
X10808158Y-14317008D02*
X10817682Y-14326531D01*
X10817682Y-14326531D02*
X10827205Y-14345579D01*
X10827205Y-14345579D02*
X10836729Y-14383674D01*
X10836729Y-14383674D02*
X10836729Y-14431293D01*
X10836729Y-14431293D02*
X10827205Y-14469388D01*
X10827205Y-14469388D02*
X10817682Y-14488436D01*
X10817682Y-14488436D02*
X10808158Y-14497960D01*
X10808158Y-14497960D02*
X10789110Y-14507484D01*
X10789110Y-14507484D02*
X10770063Y-14507484D01*
X10770063Y-14507484D02*
X10751015Y-14497960D01*
X10751015Y-14497960D02*
X10741491Y-14488436D01*
X10741491Y-14488436D02*
X10731967Y-14469388D01*
X10731967Y-14469388D02*
X10722444Y-14431293D01*
X10722444Y-14431293D02*
X10722444Y-14383674D01*
X10722444Y-14383674D02*
X10731967Y-14345579D01*
X10731967Y-14345579D02*
X10741491Y-14326531D01*
X10741491Y-14326531D02*
X10751015Y-14317008D01*
X10751015Y-14317008D02*
X10770063Y-14307484D01*
X10960539Y-14307484D02*
X10979586Y-14307484D01*
X10979586Y-14307484D02*
X10998634Y-14317008D01*
X10998634Y-14317008D02*
X11008158Y-14326531D01*
X11008158Y-14326531D02*
X11017682Y-14345579D01*
X11017682Y-14345579D02*
X11027205Y-14383674D01*
X11027205Y-14383674D02*
X11027205Y-14431293D01*
X11027205Y-14431293D02*
X11017682Y-14469388D01*
X11017682Y-14469388D02*
X11008158Y-14488436D01*
X11008158Y-14488436D02*
X10998634Y-14497960D01*
X10998634Y-14497960D02*
X10979586Y-14507484D01*
X10979586Y-14507484D02*
X10960539Y-14507484D01*
X10960539Y-14507484D02*
X10941491Y-14497960D01*
X10941491Y-14497960D02*
X10931967Y-14488436D01*
X10931967Y-14488436D02*
X10922444Y-14469388D01*
X10922444Y-14469388D02*
X10912920Y-14431293D01*
X10912920Y-14431293D02*
X10912920Y-14383674D01*
X10912920Y-14383674D02*
X10922444Y-14345579D01*
X10922444Y-14345579D02*
X10931967Y-14326531D01*
X10931967Y-14326531D02*
X10941491Y-14317008D01*
X10941491Y-14317008D02*
X10960539Y-14307484D01*
X11112920Y-14507484D02*
X11112920Y-14374150D01*
X11112920Y-14393198D02*
X11122444Y-14383674D01*
X11122444Y-14383674D02*
X11141491Y-14374150D01*
X11141491Y-14374150D02*
X11170063Y-14374150D01*
X11170063Y-14374150D02*
X11189110Y-14383674D01*
X11189110Y-14383674D02*
X11198634Y-14402722D01*
X11198634Y-14402722D02*
X11198634Y-14507484D01*
X11198634Y-14402722D02*
X11208158Y-14383674D01*
X11208158Y-14383674D02*
X11227205Y-14374150D01*
X11227205Y-14374150D02*
X11255777Y-14374150D01*
X11255777Y-14374150D02*
X11274824Y-14383674D01*
X11274824Y-14383674D02*
X11284348Y-14402722D01*
X11284348Y-14402722D02*
X11284348Y-14507484D01*
X11379586Y-14507484D02*
X11379586Y-14374150D01*
X11379586Y-14393198D02*
X11389110Y-14383674D01*
X11389110Y-14383674D02*
X11408158Y-14374150D01*
X11408158Y-14374150D02*
X11436729Y-14374150D01*
X11436729Y-14374150D02*
X11455777Y-14383674D01*
X11455777Y-14383674D02*
X11465301Y-14402722D01*
X11465301Y-14402722D02*
X11465301Y-14507484D01*
X11465301Y-14402722D02*
X11474824Y-14383674D01*
X11474824Y-14383674D02*
X11493872Y-14374150D01*
X11493872Y-14374150D02*
X11522443Y-14374150D01*
X11522443Y-14374150D02*
X11541491Y-14383674D01*
X11541491Y-14383674D02*
X11551015Y-14402722D01*
X11551015Y-14402722D02*
X11551015Y-14507484D01*
X11941491Y-14297960D02*
X11770063Y-14555103D01*
X12198634Y-14307484D02*
X12217682Y-14307484D01*
X12217682Y-14307484D02*
X12236729Y-14317008D01*
X12236729Y-14317008D02*
X12246253Y-14326531D01*
X12246253Y-14326531D02*
X12255777Y-14345579D01*
X12255777Y-14345579D02*
X12265301Y-14383674D01*
X12265301Y-14383674D02*
X12265301Y-14431293D01*
X12265301Y-14431293D02*
X12255777Y-14469388D01*
X12255777Y-14469388D02*
X12246253Y-14488436D01*
X12246253Y-14488436D02*
X12236729Y-14497960D01*
X12236729Y-14497960D02*
X12217682Y-14507484D01*
X12217682Y-14507484D02*
X12198634Y-14507484D01*
X12198634Y-14507484D02*
X12179586Y-14497960D01*
X12179586Y-14497960D02*
X12170063Y-14488436D01*
X12170063Y-14488436D02*
X12160539Y-14469388D01*
X12160539Y-14469388D02*
X12151015Y-14431293D01*
X12151015Y-14431293D02*
X12151015Y-14383674D01*
X12151015Y-14383674D02*
X12160539Y-14345579D01*
X12160539Y-14345579D02*
X12170063Y-14326531D01*
X12170063Y-14326531D02*
X12179586Y-14317008D01*
X12179586Y-14317008D02*
X12198634Y-14307484D01*
X12351015Y-14488436D02*
X12360539Y-14497960D01*
X12360539Y-14497960D02*
X12351015Y-14507484D01*
X12351015Y-14507484D02*
X12341491Y-14497960D01*
X12341491Y-14497960D02*
X12351015Y-14488436D01*
X12351015Y-14488436D02*
X12351015Y-14507484D01*
X12551015Y-14507484D02*
X12436729Y-14507484D01*
X12493872Y-14507484D02*
X12493872Y-14307484D01*
X12493872Y-14307484D02*
X12474825Y-14336055D01*
X12474825Y-14336055D02*
X12455777Y-14355103D01*
X12455777Y-14355103D02*
X12436729Y-14364627D01*
X12741491Y-14507484D02*
X12627206Y-14507484D01*
X12684348Y-14507484D02*
X12684348Y-14307484D01*
X12684348Y-14307484D02*
X12665301Y-14336055D01*
X12665301Y-14336055D02*
X12646253Y-14355103D01*
X12646253Y-14355103D02*
X12627206Y-14364627D01*
X12855777Y-14393198D02*
X12836729Y-14383674D01*
X12836729Y-14383674D02*
X12827206Y-14374150D01*
X12827206Y-14374150D02*
X12817682Y-14355103D01*
X12817682Y-14355103D02*
X12817682Y-14345579D01*
X12817682Y-14345579D02*
X12827206Y-14326531D01*
X12827206Y-14326531D02*
X12836729Y-14317008D01*
X12836729Y-14317008D02*
X12855777Y-14307484D01*
X12855777Y-14307484D02*
X12893872Y-14307484D01*
X12893872Y-14307484D02*
X12912920Y-14317008D01*
X12912920Y-14317008D02*
X12922444Y-14326531D01*
X12922444Y-14326531D02*
X12931967Y-14345579D01*
X12931967Y-14345579D02*
X12931967Y-14355103D01*
X12931967Y-14355103D02*
X12922444Y-14374150D01*
X12922444Y-14374150D02*
X12912920Y-14383674D01*
X12912920Y-14383674D02*
X12893872Y-14393198D01*
X12893872Y-14393198D02*
X12855777Y-14393198D01*
X12855777Y-14393198D02*
X12836729Y-14402722D01*
X12836729Y-14402722D02*
X12827206Y-14412246D01*
X12827206Y-14412246D02*
X12817682Y-14431293D01*
X12817682Y-14431293D02*
X12817682Y-14469388D01*
X12817682Y-14469388D02*
X12827206Y-14488436D01*
X12827206Y-14488436D02*
X12836729Y-14497960D01*
X12836729Y-14497960D02*
X12855777Y-14507484D01*
X12855777Y-14507484D02*
X12893872Y-14507484D01*
X12893872Y-14507484D02*
X12912920Y-14497960D01*
X12912920Y-14497960D02*
X12922444Y-14488436D01*
X12922444Y-14488436D02*
X12931967Y-14469388D01*
X12931967Y-14469388D02*
X12931967Y-14431293D01*
X12931967Y-14431293D02*
X12922444Y-14412246D01*
X12922444Y-14412246D02*
X12912920Y-14402722D01*
X12912920Y-14402722D02*
X12893872Y-14393198D01*
X13122444Y-14507484D02*
X13008158Y-14507484D01*
X13065301Y-14507484D02*
X13065301Y-14307484D01*
X13065301Y-14307484D02*
X13046253Y-14336055D01*
X13046253Y-14336055D02*
X13027206Y-14355103D01*
X13027206Y-14355103D02*
X13008158Y-14364627D01*
X13198634Y-14307484D02*
X13198634Y-14345579D01*
X13274825Y-14307484D02*
X13274825Y-14345579D01*
X13570063Y-14583674D02*
X13560539Y-14574150D01*
X13560539Y-14574150D02*
X13541491Y-14545579D01*
X13541491Y-14545579D02*
X13531968Y-14526531D01*
X13531968Y-14526531D02*
X13522444Y-14497960D01*
X13522444Y-14497960D02*
X13512920Y-14450341D01*
X13512920Y-14450341D02*
X13512920Y-14412246D01*
X13512920Y-14412246D02*
X13522444Y-14364627D01*
X13522444Y-14364627D02*
X13531968Y-14336055D01*
X13531968Y-14336055D02*
X13541491Y-14317008D01*
X13541491Y-14317008D02*
X13560539Y-14288436D01*
X13560539Y-14288436D02*
X13570063Y-14278912D01*
X13731968Y-14374150D02*
X13731968Y-14507484D01*
X13684348Y-14297960D02*
X13636729Y-14440817D01*
X13636729Y-14440817D02*
X13760539Y-14440817D01*
X13989110Y-14507484D02*
X13989110Y-14307484D01*
X14074825Y-14507484D02*
X14074825Y-14402722D01*
X14074825Y-14402722D02*
X14065301Y-14383674D01*
X14065301Y-14383674D02*
X14046253Y-14374150D01*
X14046253Y-14374150D02*
X14017682Y-14374150D01*
X14017682Y-14374150D02*
X13998634Y-14383674D01*
X13998634Y-14383674D02*
X13989110Y-14393198D01*
X14198634Y-14507484D02*
X14179587Y-14497960D01*
X14179587Y-14497960D02*
X14170063Y-14488436D01*
X14170063Y-14488436D02*
X14160539Y-14469388D01*
X14160539Y-14469388D02*
X14160539Y-14412246D01*
X14160539Y-14412246D02*
X14170063Y-14393198D01*
X14170063Y-14393198D02*
X14179587Y-14383674D01*
X14179587Y-14383674D02*
X14198634Y-14374150D01*
X14198634Y-14374150D02*
X14227206Y-14374150D01*
X14227206Y-14374150D02*
X14246253Y-14383674D01*
X14246253Y-14383674D02*
X14255777Y-14393198D01*
X14255777Y-14393198D02*
X14265301Y-14412246D01*
X14265301Y-14412246D02*
X14265301Y-14469388D01*
X14265301Y-14469388D02*
X14255777Y-14488436D01*
X14255777Y-14488436D02*
X14246253Y-14497960D01*
X14246253Y-14497960D02*
X14227206Y-14507484D01*
X14227206Y-14507484D02*
X14198634Y-14507484D01*
X14379587Y-14507484D02*
X14360539Y-14497960D01*
X14360539Y-14497960D02*
X14351015Y-14478912D01*
X14351015Y-14478912D02*
X14351015Y-14307484D01*
X14531968Y-14497960D02*
X14512920Y-14507484D01*
X14512920Y-14507484D02*
X14474825Y-14507484D01*
X14474825Y-14507484D02*
X14455777Y-14497960D01*
X14455777Y-14497960D02*
X14446253Y-14478912D01*
X14446253Y-14478912D02*
X14446253Y-14402722D01*
X14446253Y-14402722D02*
X14455777Y-14383674D01*
X14455777Y-14383674D02*
X14474825Y-14374150D01*
X14474825Y-14374150D02*
X14512920Y-14374150D01*
X14512920Y-14374150D02*
X14531968Y-14383674D01*
X14531968Y-14383674D02*
X14541491Y-14402722D01*
X14541491Y-14402722D02*
X14541491Y-14421769D01*
X14541491Y-14421769D02*
X14446253Y-14440817D01*
X14617682Y-14497960D02*
X14636730Y-14507484D01*
X14636730Y-14507484D02*
X14674825Y-14507484D01*
X14674825Y-14507484D02*
X14693872Y-14497960D01*
X14693872Y-14497960D02*
X14703396Y-14478912D01*
X14703396Y-14478912D02*
X14703396Y-14469388D01*
X14703396Y-14469388D02*
X14693872Y-14450341D01*
X14693872Y-14450341D02*
X14674825Y-14440817D01*
X14674825Y-14440817D02*
X14646253Y-14440817D01*
X14646253Y-14440817D02*
X14627206Y-14431293D01*
X14627206Y-14431293D02*
X14617682Y-14412246D01*
X14617682Y-14412246D02*
X14617682Y-14402722D01*
X14617682Y-14402722D02*
X14627206Y-14383674D01*
X14627206Y-14383674D02*
X14646253Y-14374150D01*
X14646253Y-14374150D02*
X14674825Y-14374150D01*
X14674825Y-14374150D02*
X14693872Y-14383674D01*
X14770063Y-14583674D02*
X14779587Y-14574150D01*
X14779587Y-14574150D02*
X14798634Y-14545579D01*
X14798634Y-14545579D02*
X14808158Y-14526531D01*
X14808158Y-14526531D02*
X14817682Y-14497960D01*
X14817682Y-14497960D02*
X14827206Y-14450341D01*
X14827206Y-14450341D02*
X14827206Y-14412246D01*
X14827206Y-14412246D02*
X14817682Y-14364627D01*
X14817682Y-14364627D02*
X14808158Y-14336055D01*
X14808158Y-14336055D02*
X14798634Y-14317008D01*
X14798634Y-14317008D02*
X14779587Y-14288436D01*
X14779587Y-14288436D02*
X14770063Y-14278912D01*
X15131968Y-14583674D02*
X15122444Y-14574150D01*
X15122444Y-14574150D02*
X15103396Y-14545579D01*
X15103396Y-14545579D02*
X15093872Y-14526531D01*
X15093872Y-14526531D02*
X15084349Y-14497960D01*
X15084349Y-14497960D02*
X15074825Y-14450341D01*
X15074825Y-14450341D02*
X15074825Y-14412246D01*
X15074825Y-14412246D02*
X15084349Y-14364627D01*
X15084349Y-14364627D02*
X15093872Y-14336055D01*
X15093872Y-14336055D02*
X15103396Y-14317008D01*
X15103396Y-14317008D02*
X15122444Y-14288436D01*
X15122444Y-14288436D02*
X15131968Y-14278912D01*
X15208158Y-14374150D02*
X15208158Y-14507484D01*
X15208158Y-14393198D02*
X15217682Y-14383674D01*
X15217682Y-14383674D02*
X15236730Y-14374150D01*
X15236730Y-14374150D02*
X15265301Y-14374150D01*
X15265301Y-14374150D02*
X15284349Y-14383674D01*
X15284349Y-14383674D02*
X15293872Y-14402722D01*
X15293872Y-14402722D02*
X15293872Y-14507484D01*
X15417682Y-14507484D02*
X15398634Y-14497960D01*
X15398634Y-14497960D02*
X15389111Y-14488436D01*
X15389111Y-14488436D02*
X15379587Y-14469388D01*
X15379587Y-14469388D02*
X15379587Y-14412246D01*
X15379587Y-14412246D02*
X15389111Y-14393198D01*
X15389111Y-14393198D02*
X15398634Y-14383674D01*
X15398634Y-14383674D02*
X15417682Y-14374150D01*
X15417682Y-14374150D02*
X15446253Y-14374150D01*
X15446253Y-14374150D02*
X15465301Y-14383674D01*
X15465301Y-14383674D02*
X15474825Y-14393198D01*
X15474825Y-14393198D02*
X15484349Y-14412246D01*
X15484349Y-14412246D02*
X15484349Y-14469388D01*
X15484349Y-14469388D02*
X15474825Y-14488436D01*
X15474825Y-14488436D02*
X15465301Y-14497960D01*
X15465301Y-14497960D02*
X15446253Y-14507484D01*
X15446253Y-14507484D02*
X15417682Y-14507484D01*
X15541492Y-14374150D02*
X15617682Y-14374150D01*
X15570063Y-14307484D02*
X15570063Y-14478912D01*
X15570063Y-14478912D02*
X15579587Y-14497960D01*
X15579587Y-14497960D02*
X15598634Y-14507484D01*
X15598634Y-14507484D02*
X15617682Y-14507484D01*
X15836730Y-14374150D02*
X15836730Y-14574150D01*
X15836730Y-14383674D02*
X15855777Y-14374150D01*
X15855777Y-14374150D02*
X15893873Y-14374150D01*
X15893873Y-14374150D02*
X15912920Y-14383674D01*
X15912920Y-14383674D02*
X15922444Y-14393198D01*
X15922444Y-14393198D02*
X15931968Y-14412246D01*
X15931968Y-14412246D02*
X15931968Y-14469388D01*
X15931968Y-14469388D02*
X15922444Y-14488436D01*
X15922444Y-14488436D02*
X15912920Y-14497960D01*
X15912920Y-14497960D02*
X15893873Y-14507484D01*
X15893873Y-14507484D02*
X15855777Y-14507484D01*
X15855777Y-14507484D02*
X15836730Y-14497960D01*
X16046253Y-14507484D02*
X16027206Y-14497960D01*
X16027206Y-14497960D02*
X16017682Y-14478912D01*
X16017682Y-14478912D02*
X16017682Y-14307484D01*
X16208158Y-14507484D02*
X16208158Y-14402722D01*
X16208158Y-14402722D02*
X16198634Y-14383674D01*
X16198634Y-14383674D02*
X16179587Y-14374150D01*
X16179587Y-14374150D02*
X16141492Y-14374150D01*
X16141492Y-14374150D02*
X16122444Y-14383674D01*
X16208158Y-14497960D02*
X16189111Y-14507484D01*
X16189111Y-14507484D02*
X16141492Y-14507484D01*
X16141492Y-14507484D02*
X16122444Y-14497960D01*
X16122444Y-14497960D02*
X16112920Y-14478912D01*
X16112920Y-14478912D02*
X16112920Y-14459865D01*
X16112920Y-14459865D02*
X16122444Y-14440817D01*
X16122444Y-14440817D02*
X16141492Y-14431293D01*
X16141492Y-14431293D02*
X16189111Y-14431293D01*
X16189111Y-14431293D02*
X16208158Y-14421769D01*
X16274825Y-14374150D02*
X16351015Y-14374150D01*
X16303396Y-14307484D02*
X16303396Y-14478912D01*
X16303396Y-14478912D02*
X16312920Y-14497960D01*
X16312920Y-14497960D02*
X16331968Y-14507484D01*
X16331968Y-14507484D02*
X16351015Y-14507484D01*
X16493873Y-14497960D02*
X16474825Y-14507484D01*
X16474825Y-14507484D02*
X16436730Y-14507484D01*
X16436730Y-14507484D02*
X16417682Y-14497960D01*
X16417682Y-14497960D02*
X16408158Y-14478912D01*
X16408158Y-14478912D02*
X16408158Y-14402722D01*
X16408158Y-14402722D02*
X16417682Y-14383674D01*
X16417682Y-14383674D02*
X16436730Y-14374150D01*
X16436730Y-14374150D02*
X16474825Y-14374150D01*
X16474825Y-14374150D02*
X16493873Y-14383674D01*
X16493873Y-14383674D02*
X16503396Y-14402722D01*
X16503396Y-14402722D02*
X16503396Y-14421769D01*
X16503396Y-14421769D02*
X16408158Y-14440817D01*
X16674825Y-14507484D02*
X16674825Y-14307484D01*
X16674825Y-14497960D02*
X16655777Y-14507484D01*
X16655777Y-14507484D02*
X16617682Y-14507484D01*
X16617682Y-14507484D02*
X16598634Y-14497960D01*
X16598634Y-14497960D02*
X16589111Y-14488436D01*
X16589111Y-14488436D02*
X16579587Y-14469388D01*
X16579587Y-14469388D02*
X16579587Y-14412246D01*
X16579587Y-14412246D02*
X16589111Y-14393198D01*
X16589111Y-14393198D02*
X16598634Y-14383674D01*
X16598634Y-14383674D02*
X16617682Y-14374150D01*
X16617682Y-14374150D02*
X16655777Y-14374150D01*
X16655777Y-14374150D02*
X16674825Y-14383674D01*
X16751015Y-14583674D02*
X16760539Y-14574150D01*
X16760539Y-14574150D02*
X16779587Y-14545579D01*
X16779587Y-14545579D02*
X16789111Y-14526531D01*
X16789111Y-14526531D02*
X16798635Y-14497960D01*
X16798635Y-14497960D02*
X16808158Y-14450341D01*
X16808158Y-14450341D02*
X16808158Y-14412246D01*
X16808158Y-14412246D02*
X16798635Y-14364627D01*
X16798635Y-14364627D02*
X16789111Y-14336055D01*
X16789111Y-14336055D02*
X16779587Y-14317008D01*
X16779587Y-14317008D02*
X16760539Y-14288436D01*
X16760539Y-14288436D02*
X16751015Y-14278912D01*
M02*
