%TF.GenerationSoftware,KiCad,Pcbnew,7.0.6-7.0.6~ubuntu22.04.1*%
%TF.CreationDate,2023-08-07T17:22:58+03:00*%
%TF.ProjectId,xray-v2,78726179-2d76-4322-9e6b-696361645f70,rev?*%
%TF.SameCoordinates,Original*%
%TF.FileFunction,Copper,L1,Top*%
%TF.FilePolarity,Positive*%
%FSLAX46Y46*%
G04 Gerber Fmt 4.6, Leading zero omitted, Abs format (unit mm)*
G04 Created by KiCad (PCBNEW 7.0.6-7.0.6~ubuntu22.04.1) date 2023-08-07 17:22:58*
%MOMM*%
%LPD*%
G01*
G04 APERTURE LIST*
G04 Aperture macros list*
%AMRoundRect*
0 Rectangle with rounded corners*
0 $1 Rounding radius*
0 $2 $3 $4 $5 $6 $7 $8 $9 X,Y pos of 4 corners*
0 Add a 4 corners polygon primitive as box body*
4,1,4,$2,$3,$4,$5,$6,$7,$8,$9,$2,$3,0*
0 Add four circle primitives for the rounded corners*
1,1,$1+$1,$2,$3*
1,1,$1+$1,$4,$5*
1,1,$1+$1,$6,$7*
1,1,$1+$1,$8,$9*
0 Add four rect primitives between the rounded corners*
20,1,$1+$1,$2,$3,$4,$5,0*
20,1,$1+$1,$4,$5,$6,$7,0*
20,1,$1+$1,$6,$7,$8,$9,0*
20,1,$1+$1,$8,$9,$2,$3,0*%
%AMFreePoly0*
4,1,6,1.000000,0.000000,0.500000,-0.750000,-0.500000,-0.750000,-0.500000,0.750000,0.500000,0.750000,1.000000,0.000000,1.000000,0.000000,$1*%
%AMFreePoly1*
4,1,6,0.500000,-0.750000,-0.650000,-0.750000,-0.150000,0.000000,-0.650000,0.750000,0.500000,0.750000,0.500000,-0.750000,0.500000,-0.750000,$1*%
G04 Aperture macros list end*
%TA.AperFunction,SMDPad,CuDef*%
%ADD10RoundRect,0.150000X-0.587500X-0.150000X0.587500X-0.150000X0.587500X0.150000X-0.587500X0.150000X0*%
%TD*%
%TA.AperFunction,SMDPad,CuDef*%
%ADD11RoundRect,0.250000X0.450000X-0.262500X0.450000X0.262500X-0.450000X0.262500X-0.450000X-0.262500X0*%
%TD*%
%TA.AperFunction,SMDPad,CuDef*%
%ADD12RoundRect,0.952500X-0.952500X1.167500X-0.952500X-1.167500X0.952500X-1.167500X0.952500X1.167500X0*%
%TD*%
%TA.AperFunction,SMDPad,CuDef*%
%ADD13RoundRect,0.225000X0.225000X0.250000X-0.225000X0.250000X-0.225000X-0.250000X0.225000X-0.250000X0*%
%TD*%
%TA.AperFunction,SMDPad,CuDef*%
%ADD14RoundRect,0.150000X-0.150000X0.587500X-0.150000X-0.587500X0.150000X-0.587500X0.150000X0.587500X0*%
%TD*%
%TA.AperFunction,SMDPad,CuDef*%
%ADD15RoundRect,0.225000X-0.250000X0.225000X-0.250000X-0.225000X0.250000X-0.225000X0.250000X0.225000X0*%
%TD*%
%TA.AperFunction,ComponentPad*%
%ADD16R,2.000000X2.000000*%
%TD*%
%TA.AperFunction,ComponentPad*%
%ADD17C,2.000000*%
%TD*%
%TA.AperFunction,ComponentPad*%
%ADD18C,3.200000*%
%TD*%
%TA.AperFunction,SMDPad,CuDef*%
%ADD19RoundRect,0.150000X0.587500X0.150000X-0.587500X0.150000X-0.587500X-0.150000X0.587500X-0.150000X0*%
%TD*%
%TA.AperFunction,SMDPad,CuDef*%
%ADD20RoundRect,0.100000X0.712500X0.100000X-0.712500X0.100000X-0.712500X-0.100000X0.712500X-0.100000X0*%
%TD*%
%TA.AperFunction,SMDPad,CuDef*%
%ADD21RoundRect,0.225000X-0.225000X-0.250000X0.225000X-0.250000X0.225000X0.250000X-0.225000X0.250000X0*%
%TD*%
%TA.AperFunction,SMDPad,CuDef*%
%ADD22RoundRect,0.250000X-0.450000X0.262500X-0.450000X-0.262500X0.450000X-0.262500X0.450000X0.262500X0*%
%TD*%
%TA.AperFunction,ComponentPad*%
%ADD23R,1.800000X1.800000*%
%TD*%
%TA.AperFunction,ComponentPad*%
%ADD24C,1.800000*%
%TD*%
%TA.AperFunction,SMDPad,CuDef*%
%ADD25RoundRect,0.250000X-1.100000X0.325000X-1.100000X-0.325000X1.100000X-0.325000X1.100000X0.325000X0*%
%TD*%
%TA.AperFunction,SMDPad,CuDef*%
%ADD26RoundRect,1.025000X1.025000X1.025000X-1.025000X1.025000X-1.025000X-1.025000X1.025000X-1.025000X0*%
%TD*%
%TA.AperFunction,ComponentPad*%
%ADD27C,2.200000*%
%TD*%
%TA.AperFunction,SMDPad,CuDef*%
%ADD28FreePoly0,180.000000*%
%TD*%
%TA.AperFunction,SMDPad,CuDef*%
%ADD29FreePoly1,180.000000*%
%TD*%
%TA.AperFunction,SMDPad,CuDef*%
%ADD30RoundRect,0.250000X-0.262500X-0.450000X0.262500X-0.450000X0.262500X0.450000X-0.262500X0.450000X0*%
%TD*%
%TA.AperFunction,ComponentPad*%
%ADD31R,1.524000X1.524000*%
%TD*%
%TA.AperFunction,ComponentPad*%
%ADD32C,1.524000*%
%TD*%
%TA.AperFunction,ComponentPad*%
%ADD33C,3.500000*%
%TD*%
%TA.AperFunction,ComponentPad*%
%ADD34R,1.700000X1.700000*%
%TD*%
%TA.AperFunction,ComponentPad*%
%ADD35O,1.700000X1.700000*%
%TD*%
%TA.AperFunction,ComponentPad*%
%ADD36C,3.000000*%
%TD*%
%TA.AperFunction,ComponentPad*%
%ADD37R,1.600000X1.600000*%
%TD*%
%TA.AperFunction,ComponentPad*%
%ADD38C,1.600000*%
%TD*%
%TA.AperFunction,SMDPad,CuDef*%
%ADD39RoundRect,0.225000X0.250000X-0.225000X0.250000X0.225000X-0.250000X0.225000X-0.250000X-0.225000X0*%
%TD*%
%TA.AperFunction,ComponentPad*%
%ADD40RoundRect,0.250001X-0.899999X0.899999X-0.899999X-0.899999X0.899999X-0.899999X0.899999X0.899999X0*%
%TD*%
%TA.AperFunction,ComponentPad*%
%ADD41C,2.300000*%
%TD*%
%TA.AperFunction,SMDPad,CuDef*%
%ADD42R,0.450000X1.050000*%
%TD*%
%TA.AperFunction,ComponentPad*%
%ADD43O,1.400000X2.300000*%
%TD*%
%TA.AperFunction,SMDPad,CuDef*%
%ADD44RoundRect,0.250000X1.075000X-0.375000X1.075000X0.375000X-1.075000X0.375000X-1.075000X-0.375000X0*%
%TD*%
%TA.AperFunction,SMDPad,CuDef*%
%ADD45RoundRect,0.150000X0.150000X-0.587500X0.150000X0.587500X-0.150000X0.587500X-0.150000X-0.587500X0*%
%TD*%
%TA.AperFunction,ComponentPad*%
%ADD46C,1.400000*%
%TD*%
%TA.AperFunction,ComponentPad*%
%ADD47RoundRect,0.250001X0.799999X-0.799999X0.799999X0.799999X-0.799999X0.799999X-0.799999X-0.799999X0*%
%TD*%
%TA.AperFunction,ComponentPad*%
%ADD48C,2.100000*%
%TD*%
%TA.AperFunction,ComponentPad*%
%ADD49C,1.700000*%
%TD*%
%TA.AperFunction,ComponentPad*%
%ADD50RoundRect,0.250000X0.600000X-0.600000X0.600000X0.600000X-0.600000X0.600000X-0.600000X-0.600000X0*%
%TD*%
%TA.AperFunction,SMDPad,CuDef*%
%ADD51RoundRect,0.250000X0.312500X0.625000X-0.312500X0.625000X-0.312500X-0.625000X0.312500X-0.625000X0*%
%TD*%
%TA.AperFunction,SMDPad,CuDef*%
%ADD52RoundRect,0.062500X-0.062500X0.350000X-0.062500X-0.350000X0.062500X-0.350000X0.062500X0.350000X0*%
%TD*%
%TA.AperFunction,SMDPad,CuDef*%
%ADD53RoundRect,0.062500X-0.350000X0.062500X-0.350000X-0.062500X0.350000X-0.062500X0.350000X0.062500X0*%
%TD*%
%TA.AperFunction,ComponentPad*%
%ADD54C,0.500000*%
%TD*%
%TA.AperFunction,SMDPad,CuDef*%
%ADD55R,4.600000X4.600000*%
%TD*%
%TA.AperFunction,SMDPad,CuDef*%
%ADD56R,1.160000X0.600000*%
%TD*%
%TA.AperFunction,SMDPad,CuDef*%
%ADD57R,1.160000X0.300000*%
%TD*%
%TA.AperFunction,ComponentPad*%
%ADD58O,2.000000X1.200000*%
%TD*%
%TA.AperFunction,ComponentPad*%
%ADD59O,2.400000X1.000000*%
%TD*%
%TA.AperFunction,SMDPad,CuDef*%
%ADD60RoundRect,0.150000X0.825000X0.150000X-0.825000X0.150000X-0.825000X-0.150000X0.825000X-0.150000X0*%
%TD*%
%TA.AperFunction,ComponentPad*%
%ADD61R,2.800000X2.800000*%
%TD*%
%TA.AperFunction,ComponentPad*%
%ADD62O,2.800000X2.800000*%
%TD*%
%TA.AperFunction,SMDPad,CuDef*%
%ADD63R,1.600000X0.550000*%
%TD*%
%TA.AperFunction,SMDPad,CuDef*%
%ADD64R,0.550000X1.600000*%
%TD*%
%TA.AperFunction,SMDPad,CuDef*%
%ADD65R,0.250000X0.750000*%
%TD*%
%TA.AperFunction,SMDPad,CuDef*%
%ADD66R,1.050000X0.450000*%
%TD*%
%TA.AperFunction,ComponentPad*%
%ADD67O,2.300000X1.400000*%
%TD*%
%TA.AperFunction,SMDPad,CuDef*%
%ADD68RoundRect,0.250000X0.262500X0.450000X-0.262500X0.450000X-0.262500X-0.450000X0.262500X-0.450000X0*%
%TD*%
%TA.AperFunction,SMDPad,CuDef*%
%ADD69RoundRect,0.150000X0.150000X-0.825000X0.150000X0.825000X-0.150000X0.825000X-0.150000X-0.825000X0*%
%TD*%
%TA.AperFunction,ComponentPad*%
%ADD70RoundRect,0.250001X0.899999X-0.899999X0.899999X0.899999X-0.899999X0.899999X-0.899999X-0.899999X0*%
%TD*%
%TA.AperFunction,ComponentPad*%
%ADD71RoundRect,0.250001X-0.799999X0.799999X-0.799999X-0.799999X0.799999X-0.799999X0.799999X0.799999X0*%
%TD*%
%TA.AperFunction,SMDPad,CuDef*%
%ADD72R,2.000000X4.500000*%
%TD*%
%TA.AperFunction,ComponentPad*%
%ADD73O,1.400000X1.400000*%
%TD*%
%TA.AperFunction,ComponentPad*%
%ADD74C,1.500000*%
%TD*%
%TA.AperFunction,ComponentPad*%
%ADD75C,5.000000*%
%TD*%
%TA.AperFunction,ViaPad*%
%ADD76C,0.800000*%
%TD*%
%TA.AperFunction,Conductor*%
%ADD77C,1.500000*%
%TD*%
%TA.AperFunction,Conductor*%
%ADD78C,0.500000*%
%TD*%
%TA.AperFunction,Conductor*%
%ADD79C,1.000000*%
%TD*%
%TA.AperFunction,Conductor*%
%ADD80C,0.200000*%
%TD*%
%TA.AperFunction,Conductor*%
%ADD81C,0.600000*%
%TD*%
%TA.AperFunction,Conductor*%
%ADD82C,0.780000*%
%TD*%
%TA.AperFunction,Conductor*%
%ADD83C,0.900000*%
%TD*%
%TA.AperFunction,Conductor*%
%ADD84C,2.000000*%
%TD*%
G04 APERTURE END LIST*
D10*
%TO.P,Q7,1,B*%
%TO.N,Net-(Q7-B)*%
X144562500Y-100137500D03*
%TO.P,Q7,2,E*%
%TO.N,GND*%
X144562500Y-102037500D03*
%TO.P,Q7,3,C*%
%TO.N,RADIATION_VALUE*%
X146437500Y-101087500D03*
%TD*%
D11*
%TO.P,R3,1*%
%TO.N,VREG*%
X194800000Y-112612500D03*
%TO.P,R3,2*%
%TO.N,USB_I2C_SDA*%
X194800000Y-110787500D03*
%TD*%
D12*
%TO.P,F1,1*%
%TO.N,VCC*%
X192200000Y-98540000D03*
%TO.P,F1,2*%
%TO.N,Net-(BT1-+)*%
X192200000Y-104950000D03*
%TD*%
D13*
%TO.P,C7,1*%
%TO.N,GND*%
X189775000Y-114600000D03*
%TO.P,C7,2*%
%TO.N,Net-(U1-EN)*%
X188225000Y-114600000D03*
%TD*%
D14*
%TO.P,Q13,1,G*%
%TO.N,VIBRO*%
X200750000Y-130662500D03*
%TO.P,Q13,2,S*%
%TO.N,GND*%
X198850000Y-130662500D03*
%TO.P,Q13,3,D*%
%TO.N,Net-(M1--)*%
X199800000Y-132537500D03*
%TD*%
D15*
%TO.P,C30,1*%
%TO.N,Net-(U3-XTAL1{slash}PB6)*%
X149600000Y-111725000D03*
%TO.P,C30,2*%
%TO.N,GND*%
X149600000Y-113275000D03*
%TD*%
D11*
%TO.P,R32,1*%
%TO.N,TFT_ENABLE#*%
X135900000Y-127012500D03*
%TO.P,R32,2*%
%TO.N,VCC*%
X135900000Y-125187500D03*
%TD*%
D10*
%TO.P,Q12,1,G*%
%TO.N,SPEAKER*%
X179500000Y-99600000D03*
%TO.P,Q12,2,S*%
%TO.N,GND*%
X179500000Y-101500000D03*
%TO.P,Q12,3,D*%
%TO.N,Net-(Q12-D)*%
X181375000Y-100550000D03*
%TD*%
D16*
%TO.P,SW1,A,A*%
%TO.N,ENCODER_A*%
X158500000Y-97500000D03*
D17*
%TO.P,SW1,B,B*%
%TO.N,ENCODER_B*%
X158500000Y-102500000D03*
%TO.P,SW1,C,C*%
%TO.N,GND*%
X158500000Y-100000000D03*
D18*
%TO.P,SW1,MP*%
%TO.N,N/C*%
X166000000Y-94400000D03*
X166000000Y-105600000D03*
D17*
%TO.P,SW1,S1,S1*%
%TO.N,ENCODER_CLICK*%
X173000000Y-102500000D03*
%TO.P,SW1,S2,S2*%
%TO.N,GND*%
X173000000Y-97500000D03*
%TD*%
D19*
%TO.P,Q8,1,G*%
%TO.N,FLASHLIGHT*%
X113187500Y-100950000D03*
%TO.P,Q8,2,S*%
%TO.N,GND*%
X113187500Y-99050000D03*
%TO.P,Q8,3,D*%
%TO.N,Net-(Q8-D)*%
X111312500Y-100000000D03*
%TD*%
D15*
%TO.P,C27,1*%
%TO.N,USB_VMID*%
X221500000Y-113725000D03*
%TO.P,C27,2*%
%TO.N,GND*%
X221500000Y-115275000D03*
%TD*%
D20*
%TO.P,U1,1,GND*%
%TO.N,GND*%
X191112500Y-112775000D03*
%TO.P,U1,2,VREF1*%
%TO.N,VREG*%
X191112500Y-112125000D03*
%TO.P,U1,3,SCL1*%
%TO.N,USB_I2C_SCL*%
X191112500Y-111475000D03*
%TO.P,U1,4,SDA1*%
%TO.N,USB_I2C_SDA*%
X191112500Y-110825000D03*
%TO.P,U1,5,SDA2*%
%TO.N,MCU_I2C_SDA*%
X186887500Y-110825000D03*
%TO.P,U1,6,SCL2*%
%TO.N,MCU_I2C_SCL*%
X186887500Y-111475000D03*
%TO.P,U1,7,VREF2*%
%TO.N,Net-(U1-EN)*%
X186887500Y-112125000D03*
%TO.P,U1,8,EN*%
X186887500Y-112775000D03*
%TD*%
D21*
%TO.P,C44,1*%
%TO.N,Net-(U9-~{RST})*%
X188525497Y-122950000D03*
%TO.P,C44,2*%
%TO.N,GND*%
X190075497Y-122950000D03*
%TD*%
D22*
%TO.P,R1,1*%
%TO.N,Net-(JP2-B)*%
X199600000Y-75512500D03*
%TO.P,R1,2*%
%TO.N,VCC*%
X199600000Y-77337500D03*
%TD*%
D23*
%TO.P,D5,1,K*%
%TO.N,Net-(D5-K)*%
X154125000Y-131600000D03*
D24*
%TO.P,D5,2,A*%
%TO.N,Net-(D5-A)*%
X156665000Y-131600000D03*
%TD*%
D25*
%TO.P,C34,1*%
%TO.N,Net-(Q5-D)*%
X203000000Y-69850000D03*
%TO.P,C34,2*%
%TO.N,GND*%
X203000000Y-72800000D03*
%TD*%
D26*
%TO.P,L1,1,1*%
%TO.N,VCC*%
X206800000Y-112700000D03*
%TO.P,L1,2,2*%
%TO.N,Net-(U2-LX_1)*%
X206800000Y-103100000D03*
%TD*%
D27*
%TO.P,C8,1*%
%TO.N,Net-(D1-A)*%
X164900000Y-82700000D03*
%TO.P,C8,2*%
%TO.N,Net-(D2-K)*%
X164900000Y-67700000D03*
%TD*%
D24*
%TO.P,T1,1,AA*%
%TO.N,Net-(T1-AA)*%
X187000000Y-68825000D03*
%TO.P,T1,2,AB*%
%TO.N,Net-(Q3-D)*%
X187000000Y-81825000D03*
%TO.P,T1,3,SA*%
%TO.N,GND*%
X173000000Y-81825000D03*
%TO.P,T1,4,SB*%
%TO.N,Net-(D1-A)*%
X173000000Y-68825000D03*
%TD*%
D11*
%TO.P,R34,1*%
%TO.N,GND*%
X176607500Y-101462500D03*
%TO.P,R34,2*%
%TO.N,SPEAKER*%
X176607500Y-99637500D03*
%TD*%
D28*
%TO.P,JP1,1,A*%
%TO.N,Net-(D3-K)*%
X128525000Y-68200000D03*
D29*
%TO.P,JP1,2,B*%
%TO.N,Net-(JP1-B)*%
X127075000Y-68200000D03*
%TD*%
D22*
%TO.P,R27,1*%
%TO.N,GND*%
X115500000Y-99175000D03*
%TO.P,R27,2*%
%TO.N,FLASHLIGHT*%
X115500000Y-101000000D03*
%TD*%
D11*
%TO.P,R2,1*%
%TO.N,VREG*%
X197000000Y-112612500D03*
%TO.P,R2,2*%
%TO.N,USB_I2C_SCL*%
X197000000Y-110787500D03*
%TD*%
D30*
%TO.P,R21,1*%
%TO.N,Net-(U9-~{RST})*%
X188487997Y-124750000D03*
%TO.P,R21,2*%
%TO.N,CP2102_VREG*%
X190312997Y-124750000D03*
%TD*%
D31*
%TO.P,J2,1,VBUS*%
%TO.N,USB_OUT_VBUS*%
X233272500Y-127900000D03*
D32*
%TO.P,J2,2,D-*%
%TO.N,USB_OUT_D-*%
X233272500Y-125400000D03*
%TO.P,J2,3,D+*%
%TO.N,USB_OUT_D+*%
X233272500Y-123400000D03*
%TO.P,J2,4,GND*%
%TO.N,GND*%
X233272500Y-120900000D03*
D33*
%TO.P,J2,5,Shield*%
X235982500Y-131650000D03*
X235982500Y-117150000D03*
%TD*%
D34*
%TO.P,SW3,1,1*%
%TO.N,Net-(R17-Pad1)*%
X114525000Y-68200000D03*
D35*
%TO.P,SW3,2,2*%
%TO.N,GND*%
X111985000Y-68200000D03*
%TD*%
D36*
%TO.P,TP1,1,1*%
%TO.N,GND*%
X161800000Y-132400000D03*
%TD*%
D25*
%TO.P,C15,1*%
%TO.N,USB_VSYS*%
X215500000Y-112425000D03*
%TO.P,C15,2*%
%TO.N,GND*%
X215500000Y-115375000D03*
%TD*%
D37*
%TO.P,C40,1*%
%TO.N,Net-(Q11-D)*%
X153500000Y-125794888D03*
D38*
%TO.P,C40,2*%
%TO.N,GND*%
X153500000Y-128294888D03*
%TD*%
D24*
%TO.P,U7,1,CS*%
%TO.N,GND*%
X107250000Y-131500000D03*
%TO.P,U7,2,RESET*%
%TO.N,Net-(Q10-D)*%
X109790000Y-131500000D03*
%TO.P,U7,3,DC*%
%TO.N,TFT_DC*%
X112330000Y-131500000D03*
%TO.P,U7,4,MOSI*%
%TO.N,MOSI*%
X114870000Y-131500000D03*
%TO.P,U7,5,SCK*%
%TO.N,SCK*%
X117410000Y-131500000D03*
%TO.P,U7,6,NC*%
%TO.N,unconnected-(U7-NC-Pad6)*%
X119950000Y-131500000D03*
%TO.P,U7,7,NC*%
%TO.N,unconnected-(U7-NC-Pad7)*%
X122490000Y-131500000D03*
%TO.P,U7,8,NC*%
%TO.N,unconnected-(U7-NC-Pad8)*%
X125030000Y-131500000D03*
%TO.P,U7,9,GND*%
%TO.N,GND*%
X127570000Y-131500000D03*
%TO.P,U7,10,GND*%
X130110000Y-131500000D03*
%TO.P,U7,11,VCC*%
%TO.N,Net-(Q10-D)*%
X132650000Y-131500000D03*
%TD*%
D39*
%TO.P,C14,1*%
%TO.N,Net-(U3-AREF)*%
X175000000Y-117175000D03*
%TO.P,C14,2*%
%TO.N,GND*%
X175000000Y-115625000D03*
%TD*%
D21*
%TO.P,C33,1*%
%TO.N,VCC*%
X223725000Y-106100000D03*
%TO.P,C33,2*%
%TO.N,GND*%
X225275000Y-106100000D03*
%TD*%
D11*
%TO.P,R6,1*%
%TO.N,USB_IN_VBUS_G*%
X236200000Y-84412500D03*
%TO.P,R6,2*%
%TO.N,USB_VMID*%
X236200000Y-82587500D03*
%TD*%
%TO.P,R5,1*%
%TO.N,USB_M_IN_VBUS_G*%
X241025000Y-104692500D03*
%TO.P,R5,2*%
%TO.N,USB_VMID*%
X241025000Y-102867500D03*
%TD*%
D15*
%TO.P,C25,1*%
%TO.N,USB_VSYS*%
X218500000Y-113725000D03*
%TO.P,C25,2*%
%TO.N,GND*%
X218500000Y-115275000D03*
%TD*%
D10*
%TO.P,Q5,1,G*%
%TO.N,Net-(JP2-B)*%
X203062500Y-75375000D03*
%TO.P,Q5,2,S*%
%TO.N,VCC*%
X203062500Y-77275000D03*
%TO.P,Q5,3,D*%
%TO.N,Net-(Q5-D)*%
X204937500Y-76325000D03*
%TD*%
D11*
%TO.P,R23,1*%
%TO.N,GND*%
X142000000Y-101912500D03*
%TO.P,R23,2*%
%TO.N,Net-(Q7-B)*%
X142000000Y-100087500D03*
%TD*%
D19*
%TO.P,Q10,1,G*%
%TO.N,TFT_ENABLE#*%
X133537500Y-127150000D03*
%TO.P,Q10,2,S*%
%TO.N,VCC*%
X133537500Y-125250000D03*
%TO.P,Q10,3,D*%
%TO.N,Net-(Q10-D)*%
X131662500Y-126200000D03*
%TD*%
D40*
%TO.P,M1,1,+*%
%TO.N,VCC*%
X204500000Y-126900000D03*
D41*
%TO.P,M1,2,-*%
%TO.N,Net-(M1--)*%
X204500000Y-131700000D03*
%TD*%
D37*
%TO.P,C10,1*%
%TO.N,USB_VSYS*%
X216600000Y-94152651D03*
D38*
%TO.P,C10,2*%
%TO.N,GND*%
X216600000Y-90652651D03*
%TD*%
D42*
%TO.P,J5,1,VBUS*%
%TO.N,FLUSH_VBUS*%
X187600497Y-129220000D03*
%TO.P,J5,2,D-*%
%TO.N,FLUSH_D-*%
X188250497Y-129220000D03*
%TO.P,J5,3,D+*%
%TO.N,FLUSH_D+*%
X188900497Y-129220000D03*
%TO.P,J5,4,ID*%
%TO.N,GND*%
X189550497Y-129220000D03*
%TO.P,J5,5,GND*%
X190200497Y-129220000D03*
D43*
%TO.P,J5,6,Shield*%
X184050497Y-129445000D03*
X184050497Y-132745000D03*
X193750497Y-129445000D03*
X193750497Y-132745000D03*
%TD*%
D22*
%TO.P,R25,1*%
%TO.N,RADIATION_VALUE*%
X146500000Y-104087500D03*
%TO.P,R25,2*%
%TO.N,VCC*%
X146500000Y-105912500D03*
%TD*%
D13*
%TO.P,C43,1*%
%TO.N,CP2102_VREG*%
X184575497Y-126900000D03*
%TO.P,C43,2*%
%TO.N,GND*%
X183025497Y-126900000D03*
%TD*%
D44*
%TO.P,L2,1,1*%
%TO.N,Net-(U3-AVCC)*%
X179300000Y-116700000D03*
%TO.P,L2,2,2*%
%TO.N,VCC*%
X179300000Y-113900000D03*
%TD*%
D10*
%TO.P,Q14,1,G*%
%TO.N,Net-(Q11-D)*%
X157562500Y-126050000D03*
%TO.P,Q14,2,S*%
%TO.N,GND*%
X157562500Y-127950000D03*
%TO.P,Q14,3,D*%
%TO.N,RESET*%
X159437500Y-127000000D03*
%TD*%
D21*
%TO.P,C17,1*%
%TO.N,VCC*%
X158925000Y-115100000D03*
%TO.P,C17,2*%
%TO.N,GND*%
X160475000Y-115100000D03*
%TD*%
D27*
%TO.P,C9,1*%
%TO.N,Net-(D1-K)*%
X154900000Y-67700000D03*
%TO.P,C9,2*%
%TO.N,GND*%
X154900000Y-82700000D03*
%TD*%
D45*
%TO.P,Q3,1,G*%
%TO.N,UV_PWM*%
X184962500Y-87737500D03*
%TO.P,Q3,2,S*%
%TO.N,GND*%
X186862500Y-87737500D03*
%TO.P,Q3,3,D*%
%TO.N,Net-(Q3-D)*%
X185912500Y-85862500D03*
%TD*%
D30*
%TO.P,R17,1*%
%TO.N,Net-(R17-Pad1)*%
X120612500Y-68200000D03*
%TO.P,R17,2*%
%TO.N,Net-(D3-K)*%
X122437500Y-68200000D03*
%TD*%
D46*
%TO.P,JP2,1,A*%
%TO.N,UV_ENABLE#*%
X194000000Y-81350000D03*
%TO.P,JP2,2,B*%
%TO.N,Net-(JP2-B)*%
X194000000Y-78810000D03*
%TD*%
D47*
%TO.P,D6,1,K*%
%TO.N,Net-(D6-K)*%
X102500000Y-107400000D03*
D48*
%TO.P,D6,2,A*%
%TO.N,VCC*%
X102500000Y-102800000D03*
%TD*%
D27*
%TO.P,SW2,*%
%TO.N,*%
X148950000Y-129100000D03*
X141950000Y-129100000D03*
D49*
%TO.P,SW2,1*%
%TO.N,WAKEUP_BUTTON*%
X147700000Y-131600000D03*
%TO.P,SW2,2*%
%TO.N,GND*%
X143200000Y-131600000D03*
%TD*%
D39*
%TO.P,C31,1*%
%TO.N,Net-(U3-XTAL2{slash}PB7)*%
X149600000Y-120275000D03*
%TO.P,C31,2*%
%TO.N,GND*%
X149600000Y-118725000D03*
%TD*%
D28*
%TO.P,JP3,1,A*%
%TO.N,Net-(JP3-A)*%
X184525000Y-122000000D03*
D29*
%TO.P,JP3,2,B*%
%TO.N,RESET*%
X183075000Y-122000000D03*
%TD*%
D50*
%TO.P,BT1,1,+*%
%TO.N,Net-(BT1-+)*%
X197000000Y-104900000D03*
D49*
%TO.P,BT1,2,-*%
%TO.N,GND*%
X197000000Y-100900000D03*
%TD*%
D11*
%TO.P,R8,1*%
%TO.N,Net-(U2-NTC)*%
X204700000Y-94712500D03*
%TO.P,R8,2*%
%TO.N,GND*%
X204700000Y-92887500D03*
%TD*%
D27*
%TO.P,C11,1*%
%TO.N,GND*%
X144900000Y-82700000D03*
%TO.P,C11,2*%
%TO.N,Net-(D3-K)*%
X144900000Y-67700000D03*
%TD*%
D25*
%TO.P,C19,1*%
%TO.N,VCC*%
X209050000Y-116525000D03*
%TO.P,C19,2*%
%TO.N,GND*%
X209050000Y-119475000D03*
%TD*%
D34*
%TO.P,J4,1,Pin_1*%
%TO.N,Net-(J4-Pin_1)*%
X176075000Y-130525000D03*
D35*
%TO.P,J4,2,Pin_2*%
%TO.N,+5V*%
X176075000Y-133065000D03*
%TO.P,J4,3,Pin_3*%
%TO.N,unconnected-(J4-Pin_3-Pad3)*%
X173535000Y-130525000D03*
%TO.P,J4,4,Pin_4*%
%TO.N,Net-(J4-Pin_4)*%
X173535000Y-133065000D03*
%TO.P,J4,5,Pin_5*%
%TO.N,Net-(J4-Pin_5)*%
X170995000Y-130525000D03*
%TO.P,J4,6,Pin_6*%
%TO.N,Net-(J4-Pin_6)*%
X170995000Y-133065000D03*
%TO.P,J4,7,Pin_7*%
%TO.N,Net-(J4-Pin_7)*%
X168455000Y-130525000D03*
%TO.P,J4,8,Pin_8*%
%TO.N,GND*%
X168455000Y-133065000D03*
%TO.P,J4,9,Pin_9*%
%TO.N,Net-(J4-Pin_9)*%
X165915000Y-130525000D03*
%TO.P,J4,10,Pin_10*%
%TO.N,GND*%
X165915000Y-133065000D03*
%TD*%
D51*
%TO.P,R16,1*%
%TO.N,USB_VMID*%
X221362500Y-111400000D03*
%TO.P,R16,2*%
%TO.N,USB_VSYS*%
X218437500Y-111400000D03*
%TD*%
%TO.P,R29,1*%
%TO.N,Net-(Q8-D)*%
X108962500Y-103250000D03*
%TO.P,R29,2*%
%TO.N,Net-(D6-K)*%
X106037500Y-103250000D03*
%TD*%
D39*
%TO.P,C18,1*%
%TO.N,Net-(U2-BST)*%
X215200000Y-103475000D03*
%TO.P,C18,2*%
%TO.N,Net-(U2-LX_1)*%
X215200000Y-101925000D03*
%TD*%
D52*
%TO.P,U2,1,DPA2*%
%TO.N,unconnected-(U2-DPA2-Pad1)*%
X223350000Y-98262500D03*
%TO.P,U2,2,CC1*%
%TO.N,USB_IN_CC1*%
X222850000Y-98262500D03*
%TO.P,U2,3,CC2*%
%TO.N,USB_IN_CC2*%
X222350000Y-98262500D03*
%TO.P,U2,4,DMC*%
%TO.N,USB_IN_D-*%
X221850000Y-98262500D03*
%TO.P,U2,5,DPC*%
%TO.N,USB_IN_D+*%
X221350000Y-98262500D03*
%TO.P,U2,6,DMB*%
%TO.N,USB_M_IN_D-*%
X220850000Y-98262500D03*
%TO.P,U2,7,DPB*%
%TO.N,USB_M_IN_D+*%
X220350000Y-98262500D03*
%TO.P,U2,8,VSYS_1*%
%TO.N,USB_VSYS*%
X219850000Y-98262500D03*
%TO.P,U2,9,VSYS_2*%
X219350000Y-98262500D03*
%TO.P,U2,10,NTC*%
%TO.N,Net-(U2-NTC)*%
X218850000Y-98262500D03*
D53*
%TO.P,U2,11,L1*%
%TO.N,USB_I2C_SCL*%
X218162500Y-98950000D03*
%TO.P,U2,12,L2*%
%TO.N,USB_I2C_SDA*%
X218162500Y-99450000D03*
%TO.P,U2,13,L3*%
%TO.N,USB_INT*%
X218162500Y-99950000D03*
%TO.P,U2,14,LX_1*%
%TO.N,Net-(U2-LX_1)*%
X218162500Y-100450000D03*
%TO.P,U2,15,LX_2*%
X218162500Y-100950000D03*
%TO.P,U2,16,LX_3*%
X218162500Y-101450000D03*
%TO.P,U2,17,LX_4*%
X218162500Y-101950000D03*
%TO.P,U2,18,LX_5*%
X218162500Y-102450000D03*
%TO.P,U2,19,BST*%
%TO.N,Net-(U2-BST)*%
X218162500Y-102950000D03*
%TO.P,U2,20,LIGHT*%
%TO.N,unconnected-(U2-LIGHT-Pad20)*%
X218162500Y-103450000D03*
D52*
%TO.P,U2,21,RSET*%
%TO.N,Net-(U2-RSET)*%
X218850000Y-104137500D03*
%TO.P,U2,22,VSYS_3*%
%TO.N,USB_VSYS*%
X219350000Y-104137500D03*
%TO.P,U2,23,VSYS_4*%
X219850000Y-104137500D03*
%TO.P,U2,24,VSP*%
X220350000Y-104137500D03*
%TO.P,U2,25,VSN*%
%TO.N,USB_VMID*%
X220850000Y-104137500D03*
%TO.P,U2,26,KEY*%
%TO.N,unconnected-(U2-KEY-Pad26)*%
X221350000Y-104137500D03*
%TO.P,U2,27,VREG*%
%TO.N,VREG*%
X221850000Y-104137500D03*
%TO.P,U2,28,BAT*%
%TO.N,VCC*%
X222350000Y-104137500D03*
%TO.P,U2,29,AGND*%
%TO.N,GND*%
X222850000Y-104137500D03*
%TO.P,U2,30,VIN*%
%TO.N,USB_M_IN_VBUS*%
X223350000Y-104137500D03*
D53*
%TO.P,U2,31,VING*%
%TO.N,USB_M_IN_VBUS_G*%
X224037500Y-103450000D03*
%TO.P,U2,32,VBUS*%
%TO.N,USB_IN_VBUS*%
X224037500Y-102950000D03*
%TO.P,U2,33,VBUSG*%
%TO.N,USB_IN_VBUS_G*%
X224037500Y-102450000D03*
%TO.P,U2,34,VOUT2*%
%TO.N,USB_OUT_VOUT2*%
X224037500Y-101950000D03*
%TO.P,U2,35,VOUT2G*%
%TO.N,unconnected-(U2-VOUT2G-Pad35)*%
X224037500Y-101450000D03*
%TO.P,U2,36,VOUT1G*%
%TO.N,USB_OUT_VBUS_G*%
X224037500Y-100950000D03*
%TO.P,U2,37,VOUT1*%
%TO.N,USB_OUT_VBUS*%
X224037500Y-100450000D03*
%TO.P,U2,38,DMA1*%
%TO.N,USB_OUT_D-*%
X224037500Y-99950000D03*
%TO.P,U2,39,DPA1*%
%TO.N,USB_OUT_D+*%
X224037500Y-99450000D03*
%TO.P,U2,40,DMA2*%
%TO.N,unconnected-(U2-DMA2-Pad40)*%
X224037500Y-98950000D03*
D54*
%TO.P,U2,41,EP*%
%TO.N,GND*%
X223150000Y-99150000D03*
X222125000Y-99150000D03*
X221100000Y-99150000D03*
X220075000Y-99150000D03*
X219050000Y-99150000D03*
X223150000Y-100175000D03*
X222125000Y-100175000D03*
X221100000Y-100175000D03*
X220075000Y-100175000D03*
X219050000Y-100175000D03*
X223150000Y-101200000D03*
X222125000Y-101200000D03*
X221100000Y-101200000D03*
D55*
X221100000Y-101200000D03*
D54*
X220075000Y-101200000D03*
X219050000Y-101200000D03*
X223150000Y-102225000D03*
X222125000Y-102225000D03*
X221100000Y-102225000D03*
X220075000Y-102225000D03*
X219050000Y-102225000D03*
X223150000Y-103250000D03*
X222125000Y-103250000D03*
X221100000Y-103250000D03*
X220075000Y-103250000D03*
X219050000Y-103250000D03*
%TD*%
D56*
%TO.P,J3,A1,GND*%
%TO.N,GND*%
X237110000Y-76600000D03*
%TO.P,J3,A4,VBUS*%
%TO.N,USB_IN_VBUS*%
X237110000Y-75800000D03*
D57*
%TO.P,J3,A5,CC1*%
%TO.N,USB_IN_CC1*%
X237110000Y-74650000D03*
%TO.P,J3,A6,D+*%
%TO.N,USB_IN_D+*%
X237110000Y-73650000D03*
%TO.P,J3,A7,D-*%
%TO.N,USB_IN_D-*%
X237110000Y-73150000D03*
%TO.P,J3,A8,SBU1*%
%TO.N,unconnected-(J3-SBU1-PadA8)*%
X237110000Y-72150000D03*
D56*
%TO.P,J3,A9,VBUS*%
%TO.N,USB_IN_VBUS*%
X237110000Y-71000000D03*
%TO.P,J3,A12,GND*%
%TO.N,GND*%
X237110000Y-70200000D03*
%TO.P,J3,B1,GND*%
X237110000Y-70200000D03*
%TO.P,J3,B4,VBUS*%
%TO.N,USB_IN_VBUS*%
X237110000Y-71000000D03*
D57*
%TO.P,J3,B5,CC2*%
%TO.N,USB_IN_CC2*%
X237110000Y-71650000D03*
%TO.P,J3,B6,D+*%
%TO.N,USB_IN_D+*%
X237110000Y-72650000D03*
%TO.P,J3,B7,D-*%
%TO.N,USB_IN_D-*%
X237110000Y-74150000D03*
%TO.P,J3,B8,SBU2*%
%TO.N,unconnected-(J3-SBU2-PadB8)*%
X237110000Y-75150000D03*
D56*
%TO.P,J3,B9,VBUS*%
%TO.N,USB_IN_VBUS*%
X237110000Y-75800000D03*
%TO.P,J3,B12,GND*%
%TO.N,GND*%
X237110000Y-76600000D03*
D58*
%TO.P,J3,S1,SHIELD*%
X237995000Y-79000000D03*
D59*
X241920000Y-79000000D03*
D58*
X237995000Y-67800000D03*
D59*
X241920000Y-67800000D03*
%TD*%
D60*
%TO.P,Q1,1,S*%
%TO.N,USB_OUT_VBUS*%
X226175000Y-131805000D03*
%TO.P,Q1,2,S*%
X226175000Y-130535000D03*
%TO.P,Q1,3,S*%
X226175000Y-129265000D03*
%TO.P,Q1,4,G*%
%TO.N,USB_OUT_VBUS_G*%
X226175000Y-127995000D03*
%TO.P,Q1,5,D*%
%TO.N,USB_VMID*%
X221225000Y-127995000D03*
%TO.P,Q1,6,D*%
X221225000Y-129265000D03*
%TO.P,Q1,7,D*%
X221225000Y-130535000D03*
%TO.P,Q1,8,D*%
X221225000Y-131805000D03*
%TD*%
D61*
%TO.P,D3,1,K*%
%TO.N,Net-(D3-K)*%
X132839950Y-68600000D03*
D62*
%TO.P,D3,2,A*%
%TO.N,Net-(D2-K)*%
X137919950Y-68600000D03*
%TD*%
D37*
%TO.P,C42,1*%
%TO.N,Net-(T1-AA)*%
X192000000Y-68325000D03*
D38*
%TO.P,C42,2*%
%TO.N,GND*%
X192000000Y-70825000D03*
%TD*%
D51*
%TO.P,R33,1*%
%TO.N,Net-(LS1-Pad1)*%
X182362500Y-104800000D03*
%TO.P,R33,2*%
%TO.N,VCC*%
X179437500Y-104800000D03*
%TD*%
D10*
%TO.P,Q11,1,G*%
%TO.N,WAKEUP_BUTTON*%
X144562500Y-125150000D03*
%TO.P,Q11,2,S*%
%TO.N,GND*%
X144562500Y-127050000D03*
%TO.P,Q11,3,D*%
%TO.N,Net-(Q11-D)*%
X146437500Y-126100000D03*
%TD*%
D63*
%TO.P,U3,1,PD3*%
%TO.N,SPEAKER*%
X163550000Y-113950000D03*
%TO.P,U3,2,PD4*%
%TO.N,ENCODER_A*%
X163550000Y-114750000D03*
%TO.P,U3,3,GND*%
%TO.N,GND*%
X163550000Y-115550000D03*
%TO.P,U3,4,VCC*%
%TO.N,VCC*%
X163550000Y-116350000D03*
%TO.P,U3,5,GND*%
%TO.N,GND*%
X163550000Y-117150000D03*
%TO.P,U3,6,VCC*%
%TO.N,VCC*%
X163550000Y-117950000D03*
%TO.P,U3,7,XTAL1/PB6*%
%TO.N,Net-(U3-XTAL1{slash}PB6)*%
X163550000Y-118750000D03*
%TO.P,U3,8,XTAL2/PB7*%
%TO.N,Net-(U3-XTAL2{slash}PB7)*%
X163550000Y-119550000D03*
D64*
%TO.P,U3,9,PD5*%
%TO.N,FLASHLIGHT*%
X165000000Y-121000000D03*
%TO.P,U3,10,PD6*%
%TO.N,TFT_ENABLE#*%
X165800000Y-121000000D03*
%TO.P,U3,11,PD7*%
%TO.N,WAKEUP_BUTTON*%
X166600000Y-121000000D03*
%TO.P,U3,12,PB0*%
%TO.N,ENCODER_CLICK*%
X167400000Y-121000000D03*
%TO.P,U3,13,PB1*%
%TO.N,USB_INT*%
X168200000Y-121000000D03*
%TO.P,U3,14,PB2*%
%TO.N,UV_PWM*%
X169000000Y-121000000D03*
%TO.P,U3,15,PB3*%
%TO.N,MOSI*%
X169800000Y-121000000D03*
%TO.P,U3,16,PB4*%
%TO.N,MISO*%
X170600000Y-121000000D03*
D63*
%TO.P,U3,17,PB5*%
%TO.N,SCK*%
X172050000Y-119550000D03*
%TO.P,U3,18,AVCC*%
%TO.N,Net-(U3-AVCC)*%
X172050000Y-118750000D03*
%TO.P,U3,19,ADC6*%
%TO.N,unconnected-(U3-ADC6-Pad19)*%
X172050000Y-117950000D03*
%TO.P,U3,20,AREF*%
%TO.N,Net-(U3-AREF)*%
X172050000Y-117150000D03*
%TO.P,U3,21,GND*%
%TO.N,GND*%
X172050000Y-116350000D03*
%TO.P,U3,22,ADC7*%
%TO.N,unconnected-(U3-ADC7-Pad22)*%
X172050000Y-115550000D03*
%TO.P,U3,23,PC0*%
%TO.N,ENCODER_B*%
X172050000Y-114750000D03*
%TO.P,U3,24,PC1*%
%TO.N,VIBRO*%
X172050000Y-113950000D03*
D64*
%TO.P,U3,25,PC2*%
%TO.N,UV_ENABLE#*%
X170600000Y-112500000D03*
%TO.P,U3,26,PC3*%
%TO.N,TFT_DC*%
X169800000Y-112500000D03*
%TO.P,U3,27,PC4*%
%TO.N,MCU_I2C_SDA*%
X169000000Y-112500000D03*
%TO.P,U3,28,PC5*%
%TO.N,MCU_I2C_SCL*%
X168200000Y-112500000D03*
%TO.P,U3,29,~{RESET}/PC6*%
%TO.N,RESET*%
X167400000Y-112500000D03*
%TO.P,U3,30,PD0*%
%TO.N,RXD*%
X166600000Y-112500000D03*
%TO.P,U3,31,PD1*%
%TO.N,TXD*%
X165800000Y-112500000D03*
%TO.P,U3,32,PD2*%
%TO.N,RADIATION_VALUE*%
X165000000Y-112500000D03*
%TD*%
D65*
%TO.P,U5,1,VCCA*%
%TO.N,VCC*%
X172250000Y-124750000D03*
%TO.P,U5,2,A1*%
%TO.N,RESET*%
X171750000Y-124750000D03*
%TO.P,U5,3,A2*%
%TO.N,SCK*%
X171250000Y-124750000D03*
%TO.P,U5,4,GND*%
%TO.N,GND*%
X170750000Y-124750000D03*
%TO.P,U5,5,DIR*%
X170750000Y-127850000D03*
%TO.P,U5,6,B2*%
%TO.N,Net-(J4-Pin_7)*%
X171250000Y-127850000D03*
%TO.P,U5,7,B1*%
%TO.N,Net-(J4-Pin_5)*%
X171750000Y-127850000D03*
%TO.P,U5,8,VCCB*%
%TO.N,+5V*%
X172250000Y-127850000D03*
%TD*%
D66*
%TO.P,J1,1,VBUS*%
%TO.N,USB_M_IN_VBUS*%
X238740000Y-93075000D03*
%TO.P,J1,2,D-*%
%TO.N,USB_M_IN_D-*%
X238740000Y-92425000D03*
%TO.P,J1,3,D+*%
%TO.N,USB_M_IN_D+*%
X238740000Y-91775000D03*
%TO.P,J1,4,ID*%
%TO.N,GND*%
X238740000Y-91125000D03*
%TO.P,J1,5,GND*%
X238740000Y-90475000D03*
D67*
%TO.P,J1,6,Shield*%
X238965000Y-96625000D03*
X242265000Y-96625000D03*
X238965000Y-86925000D03*
X242265000Y-86925000D03*
%TD*%
D30*
%TO.P,R35,1*%
%TO.N,GND*%
X198987500Y-127270000D03*
%TO.P,R35,2*%
%TO.N,VIBRO*%
X200812500Y-127270000D03*
%TD*%
D68*
%TO.P,R4,1*%
%TO.N,GND*%
X186800000Y-90610000D03*
%TO.P,R4,2*%
%TO.N,UV_PWM*%
X184975000Y-90610000D03*
%TD*%
D30*
%TO.P,R7,1*%
%TO.N,VCC*%
X182787500Y-113100000D03*
%TO.P,R7,2*%
%TO.N,Net-(U1-EN)*%
X184612500Y-113100000D03*
%TD*%
D69*
%TO.P,Q4,1,S*%
%TO.N,USB_VMID*%
X230395000Y-85675000D03*
%TO.P,Q4,2,S*%
X231665000Y-85675000D03*
%TO.P,Q4,3,S*%
X232935000Y-85675000D03*
%TO.P,Q4,4,G*%
%TO.N,USB_IN_VBUS_G*%
X234205000Y-85675000D03*
%TO.P,Q4,5,D*%
%TO.N,USB_IN_VBUS*%
X234205000Y-80725000D03*
%TO.P,Q4,6,D*%
X232935000Y-80725000D03*
%TO.P,Q4,7,D*%
X231665000Y-80725000D03*
%TO.P,Q4,8,D*%
X230395000Y-80725000D03*
%TD*%
D25*
%TO.P,C29,1*%
%TO.N,USB_VMID*%
X224800000Y-111925000D03*
%TO.P,C29,2*%
%TO.N,GND*%
X224800000Y-114875000D03*
%TD*%
D17*
%TO.P,C24,1*%
%TO.N,Net-(V2-C)*%
X142000000Y-92500000D03*
%TO.P,C24,2*%
%TO.N,Net-(Q7-B)*%
X142000000Y-97500000D03*
%TD*%
D25*
%TO.P,C20,1*%
%TO.N,VCC*%
X204800000Y-116525000D03*
%TO.P,C20,2*%
%TO.N,GND*%
X204800000Y-119475000D03*
%TD*%
D39*
%TO.P,C23,1*%
%TO.N,Net-(U3-AVCC)*%
X176800000Y-117175000D03*
%TO.P,C23,2*%
%TO.N,GND*%
X176800000Y-115625000D03*
%TD*%
D70*
%TO.P,LS1,1,1*%
%TO.N,Net-(LS1-Pad1)*%
X185500000Y-104900000D03*
D41*
%TO.P,LS1,2,2*%
%TO.N,Net-(Q12-D)*%
X185500000Y-100100000D03*
%TD*%
D71*
%TO.P,D4,1,K*%
%TO.N,Net-(D4-K)*%
X102500000Y-92600000D03*
D48*
%TO.P,D4,2,A*%
%TO.N,VCC*%
X102500000Y-97200000D03*
%TD*%
D22*
%TO.P,R24,1*%
%TO.N,USB_INT*%
X182200000Y-115687500D03*
%TO.P,R24,2*%
%TO.N,GND*%
X182200000Y-117512500D03*
%TD*%
D51*
%TO.P,R26,1*%
%TO.N,Net-(Q8-D)*%
X108962500Y-95750000D03*
%TO.P,R26,2*%
%TO.N,Net-(D4-K)*%
X106037500Y-95750000D03*
%TD*%
D69*
%TO.P,Q2,1,S*%
%TO.N,USB_VMID*%
X235295000Y-106000000D03*
%TO.P,Q2,2,S*%
X236565000Y-106000000D03*
%TO.P,Q2,3,S*%
X237835000Y-106000000D03*
%TO.P,Q2,4,G*%
%TO.N,USB_M_IN_VBUS_G*%
X239105000Y-106000000D03*
%TO.P,Q2,5,D*%
%TO.N,USB_M_IN_VBUS*%
X239105000Y-101050000D03*
%TO.P,Q2,6,D*%
X237835000Y-101050000D03*
%TO.P,Q2,7,D*%
X236565000Y-101050000D03*
%TO.P,Q2,8,D*%
X235295000Y-101050000D03*
%TD*%
D68*
%TO.P,R20,1*%
%TO.N,RESET*%
X168512500Y-108900000D03*
%TO.P,R20,2*%
%TO.N,VCC*%
X166687500Y-108900000D03*
%TD*%
D72*
%TO.P,Y1,1,1*%
%TO.N,Net-(U3-XTAL2{slash}PB7)*%
X154100000Y-120250000D03*
%TO.P,Y1,2,2*%
%TO.N,Net-(U3-XTAL1{slash}PB6)*%
X154100000Y-111750000D03*
%TD*%
D46*
%TO.P,R9,1*%
%TO.N,Net-(U2-NTC)*%
X207800000Y-96940000D03*
D73*
%TO.P,R9,2*%
%TO.N,GND*%
X207800000Y-91860000D03*
%TD*%
D74*
%TO.P,V2,1,A*%
%TO.N,Net-(V2-A)*%
X113000000Y-79200000D03*
%TO.P,V2,2,C*%
%TO.N,Net-(V2-C)*%
X128000000Y-92200000D03*
D75*
%TO.P,V2,3,S*%
%TO.N,GND*%
X120000000Y-104000000D03*
%TD*%
D76*
%TO.N,GND*%
X205400000Y-119500000D03*
X186812500Y-88800000D03*
X209700000Y-119500000D03*
X208400000Y-119500000D03*
X221500000Y-115400000D03*
X170750000Y-126500000D03*
X198700000Y-73725000D03*
X191000000Y-114400000D03*
X218500000Y-115400000D03*
X215500000Y-115300000D03*
X204100000Y-119500000D03*
X199000000Y-128900000D03*
X224800000Y-114900000D03*
X225300000Y-106100000D03*
X162000000Y-116250000D03*
X149600000Y-116000000D03*
X169750000Y-115250000D03*
X190000497Y-123000000D03*
X182200000Y-117512500D03*
%TO.N,FLUSH_VBUS*%
X186100497Y-127400000D03*
%TO.N,USB_OUT_VBUS*%
X226200000Y-100400000D03*
%TO.N,USB_M_IN_VBUS*%
X236600000Y-101000000D03*
X230345500Y-104400000D03*
X236500000Y-95325000D03*
%TO.N,USB_IN_VBUS*%
X235390000Y-76400000D03*
X235390000Y-71000000D03*
%TO.N,USB_VSYS*%
X215600000Y-112500000D03*
X216500000Y-112500000D03*
X214700000Y-112500000D03*
%TO.N,VCC*%
X193000000Y-99500000D03*
X167250000Y-126000000D03*
X191400000Y-99500000D03*
X204000000Y-116500000D03*
X205500000Y-116600000D03*
X206800000Y-111600000D03*
X205600000Y-111600000D03*
X166700000Y-108900000D03*
X191300000Y-97500000D03*
X208300000Y-116500000D03*
X147800000Y-107700000D03*
X207900000Y-111600000D03*
X140500000Y-123300000D03*
X193000000Y-97500000D03*
X172250000Y-126000000D03*
X209700000Y-116500000D03*
X173750000Y-126000000D03*
X223600000Y-106000000D03*
%TO.N,USB_OUT_VOUT2*%
X227922535Y-101322535D03*
%TO.N,RESET*%
X167500000Y-110750000D03*
X172400000Y-123399500D03*
X161000000Y-127000000D03*
X181600000Y-123500000D03*
%TO.N,VREG*%
X223700000Y-107700000D03*
X195900000Y-112700000D03*
%TO.N,Net-(Q5-D)*%
X202100000Y-68125000D03*
%TO.N,ENCODER_CLICK*%
X167400000Y-119100000D03*
%TO.N,CP2102_VREG*%
X187200497Y-127400000D03*
%TO.N,Net-(U9-~{RST})*%
X184200497Y-123800000D03*
%TO.N,USB_M_IN_D-*%
X222499488Y-93294596D03*
X234800000Y-92700000D03*
%TO.N,USB_M_IN_D+*%
X221500000Y-93300000D03*
X234800000Y-91700497D03*
%TO.N,USB_OUT_D-*%
X227600000Y-100000000D03*
%TO.N,USB_OUT_D+*%
X228400000Y-99400000D03*
%TO.N,USB_IN_D+*%
X233600000Y-73900000D03*
X232600000Y-72100000D03*
%TO.N,USB_IN_CC2*%
X229000000Y-74900000D03*
X231800000Y-71100000D03*
%TO.N,+5V*%
X172250000Y-127000000D03*
X167250000Y-127000000D03*
X173750000Y-127000000D03*
%TO.N,FLUSH_D-*%
X188200497Y-127500000D03*
%TO.N,FLUSH_D+*%
X189200000Y-127500000D03*
%TO.N,Net-(JP1-B)*%
X126500000Y-69800000D03*
%TO.N,UV_ENABLE#*%
X174723624Y-108675000D03*
%TO.N,Net-(JP3-A)*%
X192900000Y-125200000D03*
%TO.N,USB_OUT_VBUS_G*%
X225400000Y-101200000D03*
X226100000Y-126600000D03*
%TO.N,USB_M_IN_VBUS_G*%
X240000000Y-105800000D03*
X229400000Y-103700500D03*
%TO.N,UV_PWM*%
X169400000Y-118200000D03*
X184912500Y-88900000D03*
%TO.N,USB_IN_VBUS_G*%
X235300000Y-85400000D03*
X229100000Y-90300000D03*
%TO.N,RADIATION_VALUE*%
X146400000Y-102600000D03*
X161200000Y-107600000D03*
%TO.N,SPEAKER*%
X178000000Y-99600000D03*
X162499312Y-110100688D03*
%TO.N,VIBRO*%
X200800000Y-128900000D03*
X174049062Y-113749562D03*
%TO.N,USB_I2C_SDA*%
X194900000Y-110800000D03*
X198394622Y-110394622D03*
%TO.N,Net-(U2-RSET)*%
X215312500Y-105500000D03*
%TO.N,USB_INT*%
X168300000Y-117600000D03*
X182200000Y-115700000D03*
%TO.N,MCU_I2C_SDA*%
X185000000Y-110500000D03*
X173100000Y-109300000D03*
%TO.N,MCU_I2C_SCL*%
X184293245Y-111206755D03*
X171800000Y-109200000D03*
%TO.N,MOSI*%
X174500000Y-122750000D03*
X170250000Y-119250000D03*
%TO.N,MISO*%
X167250000Y-123750000D03*
%TO.N,TFT_DC*%
X167469017Y-114307515D03*
%TO.N,RXD*%
X166499500Y-114550500D03*
X173750000Y-123750000D03*
X192500497Y-124200000D03*
%TO.N,TXD*%
X164949301Y-114302872D03*
X168750000Y-123750000D03*
X192500497Y-123000000D03*
%TD*%
D77*
%TO.N,Net-(BT1-+)*%
X197000000Y-104900000D02*
X192250000Y-104900000D01*
D78*
%TO.N,GND*%
X149600000Y-113275000D02*
X149600000Y-116000000D01*
X169600000Y-115400000D02*
X164875000Y-115400000D01*
X144562500Y-130237500D02*
X143200000Y-131600000D01*
X139912500Y-104000000D02*
X120000000Y-104000000D01*
D77*
X215500000Y-115300000D02*
X215425000Y-115300000D01*
D78*
X191112500Y-114187500D02*
X191000000Y-114300000D01*
X117175000Y-99175000D02*
X120000000Y-102000000D01*
D77*
X215425000Y-115300000D02*
X215500000Y-115375000D01*
D78*
X175262500Y-101462500D02*
X173000000Y-99200000D01*
D79*
X186800000Y-90610000D02*
X186800000Y-87800000D01*
D80*
X206772500Y-92887500D02*
X207800000Y-91860000D01*
D79*
X237110000Y-68685000D02*
X237110000Y-70000000D01*
D78*
X169750000Y-115375000D02*
X169750000Y-115250000D01*
X144437500Y-101912500D02*
X144562500Y-102037500D01*
D77*
X238965000Y-86925000D02*
X238740000Y-87150000D01*
X224800000Y-114900000D02*
X224775000Y-114900000D01*
D78*
X162000000Y-116250000D02*
X162000000Y-115925000D01*
X160850000Y-115100000D02*
X162000000Y-116250000D01*
X173000000Y-99200000D02*
X173000000Y-97855000D01*
X191000000Y-114400000D02*
X190900000Y-114400000D01*
D77*
X224775000Y-114900000D02*
X224250000Y-115425000D01*
D79*
X111985000Y-71885000D02*
X112800000Y-72700000D01*
D78*
X164725000Y-115550000D02*
X163550000Y-115550000D01*
D79*
X237995000Y-67800000D02*
X237110000Y-68685000D01*
D78*
X169750000Y-115250000D02*
X169600000Y-115400000D01*
X160475000Y-115100000D02*
X160850000Y-115100000D01*
D80*
X225300000Y-106125000D02*
X224025000Y-104850000D01*
D78*
X174275000Y-116350000D02*
X175000000Y-115625000D01*
D80*
X222850000Y-104137500D02*
X222850000Y-102950000D01*
D77*
X224250000Y-115425000D02*
X221525000Y-115425000D01*
D80*
X170750000Y-126500000D02*
X170750000Y-128050000D01*
D79*
X237110000Y-78115000D02*
X237110000Y-76800000D01*
D78*
X162000000Y-116775000D02*
X162000000Y-116250000D01*
D77*
X224800000Y-114875000D02*
X224800000Y-114900000D01*
X238740000Y-87150000D02*
X238740000Y-90475000D01*
D78*
X149600000Y-116000000D02*
X149600000Y-118725000D01*
D79*
X199000000Y-128900000D02*
X198987500Y-128912500D01*
D78*
X190200497Y-129220000D02*
X193525497Y-129220000D01*
X176800000Y-115625000D02*
X175000000Y-115625000D01*
X172050000Y-116350000D02*
X174275000Y-116350000D01*
D80*
X204700000Y-92887500D02*
X206772500Y-92887500D01*
D77*
X215550000Y-115425000D02*
X215500000Y-115375000D01*
D78*
X162375000Y-115550000D02*
X163550000Y-115550000D01*
D77*
X218500000Y-115400000D02*
X218475000Y-115425000D01*
D80*
X183025497Y-126900000D02*
X184050497Y-127925000D01*
D79*
X112800000Y-72700000D02*
X124100000Y-72700000D01*
D78*
X164875000Y-115400000D02*
X164725000Y-115550000D01*
X162000000Y-115925000D02*
X162375000Y-115550000D01*
X191000000Y-114300000D02*
X191000000Y-114400000D01*
X144562500Y-127050000D02*
X144562500Y-130237500D01*
X190200497Y-129220000D02*
X189575497Y-129220000D01*
D79*
X198987500Y-127270000D02*
X198987500Y-128887500D01*
X124100000Y-72700000D02*
X134100000Y-82700000D01*
D78*
X142000000Y-101912500D02*
X139912500Y-104000000D01*
D80*
X222850000Y-104562652D02*
X222850000Y-104137500D01*
X170750000Y-124950000D02*
X170750000Y-126500000D01*
D79*
X203000000Y-72800000D02*
X199625000Y-72800000D01*
D78*
X191112500Y-112775000D02*
X191112500Y-114187500D01*
D79*
X199625000Y-72800000D02*
X198700000Y-73725000D01*
D78*
X142000000Y-101912500D02*
X144437500Y-101912500D01*
D80*
X223137348Y-104850000D02*
X222850000Y-104562652D01*
D79*
X111985000Y-68200000D02*
X111985000Y-71885000D01*
D77*
X221525000Y-115425000D02*
X221500000Y-115400000D01*
D80*
X224025000Y-104850000D02*
X223137348Y-104850000D01*
D78*
X190700000Y-114600000D02*
X189775000Y-114600000D01*
D79*
X237995000Y-79000000D02*
X237110000Y-78115000D01*
D78*
X190900000Y-114400000D02*
X190700000Y-114600000D01*
X176607500Y-101462500D02*
X175262500Y-101462500D01*
X176607500Y-101462500D02*
X179462500Y-101462500D01*
D80*
X184050497Y-127925000D02*
X184050497Y-129445000D01*
D78*
X170725000Y-116350000D02*
X169750000Y-115375000D01*
X115500000Y-99175000D02*
X117175000Y-99175000D01*
D77*
X221500000Y-115400000D02*
X221475000Y-115425000D01*
D78*
X172050000Y-116350000D02*
X170725000Y-116350000D01*
X162375000Y-117150000D02*
X162000000Y-116775000D01*
D77*
X218525000Y-115425000D02*
X218500000Y-115400000D01*
D79*
X198987500Y-128887500D02*
X199000000Y-128900000D01*
D77*
X221475000Y-115425000D02*
X218525000Y-115425000D01*
X215500000Y-115375000D02*
X215500000Y-115300000D01*
D79*
X134100000Y-82700000D02*
X144900000Y-82700000D01*
D77*
X218475000Y-115425000D02*
X215550000Y-115425000D01*
D78*
X163550000Y-117150000D02*
X162375000Y-117150000D01*
X157562500Y-127950000D02*
X153844888Y-127950000D01*
X113187500Y-99050000D02*
X115375000Y-99050000D01*
D79*
X198987500Y-128912500D02*
X198987500Y-130525000D01*
D78*
%TO.N,FLUSH_VBUS*%
X186100497Y-127400000D02*
X186100497Y-127745000D01*
X186100497Y-127745000D02*
X187575497Y-129220000D01*
D80*
%TO.N,USB_OUT_VBUS*%
X224037500Y-100450000D02*
X226150000Y-100450000D01*
X226150000Y-100450000D02*
X226200000Y-100400000D01*
D77*
X226175000Y-130535000D02*
X230637500Y-130535000D01*
X226175000Y-129265000D02*
X226175000Y-131805000D01*
X230637500Y-130535000D02*
X233272500Y-127900000D01*
D80*
%TO.N,USB_M_IN_VBUS*%
X223612500Y-104400000D02*
X223350000Y-104137500D01*
D77*
X236565000Y-95090000D02*
X238055000Y-93600000D01*
X236565000Y-101050000D02*
X236565000Y-95090000D01*
D80*
X230345500Y-104400000D02*
X223612500Y-104400000D01*
D77*
X238055000Y-93600000D02*
X238740000Y-93600000D01*
X235295000Y-101050000D02*
X239105000Y-101050000D01*
%TO.N,USB_IN_VBUS*%
X232500000Y-80725000D02*
X234205000Y-80725000D01*
D81*
X235490000Y-76400000D02*
X235390000Y-76400000D01*
D80*
X228500000Y-88100000D02*
X229800000Y-89400000D01*
X228500000Y-82620000D02*
X228500000Y-88100000D01*
D77*
X230395000Y-80725000D02*
X232500000Y-80725000D01*
X235390000Y-76500000D02*
X234400000Y-76500000D01*
D81*
X236090000Y-75800000D02*
X235490000Y-76400000D01*
D80*
X229800000Y-101000000D02*
X227850000Y-102950000D01*
X229800000Y-89400000D02*
X229800000Y-101000000D01*
X230395000Y-80725000D02*
X228500000Y-82620000D01*
D77*
X234400000Y-76500000D02*
X232500000Y-78400000D01*
D81*
X235390000Y-71000000D02*
X237110000Y-71000000D01*
D80*
X227850000Y-102950000D02*
X224037500Y-102950000D01*
D77*
X232500000Y-78400000D02*
X232500000Y-80725000D01*
D81*
X235390000Y-76400000D02*
X235390000Y-76500000D01*
X237110000Y-75800000D02*
X236090000Y-75800000D01*
D79*
%TO.N,Net-(Q3-D)*%
X185947500Y-86325000D02*
X185947500Y-81887500D01*
D78*
%TO.N,Net-(U1-EN)*%
X186887500Y-112500000D02*
X186887500Y-113262500D01*
X186887500Y-113262500D02*
X188225000Y-114600000D01*
X185212500Y-112500000D02*
X184612500Y-113100000D01*
X186887500Y-112500000D02*
X185212500Y-112500000D01*
X186887500Y-112125000D02*
X186887500Y-112500000D01*
X186887500Y-112500000D02*
X186887500Y-112775000D01*
D79*
%TO.N,Net-(D2-K)*%
X137919950Y-69819950D02*
X137919950Y-68600000D01*
X164900000Y-70700000D02*
X162500000Y-73100000D01*
X164900000Y-67700000D02*
X164900000Y-70700000D01*
X162500000Y-73100000D02*
X141200000Y-73100000D01*
X141200000Y-73100000D02*
X137919950Y-69819950D01*
D82*
%TO.N,USB_VSYS*%
X219600000Y-104800000D02*
X218800000Y-105600000D01*
D77*
X218437500Y-111400000D02*
X218437500Y-113662500D01*
D78*
X219550000Y-96750000D02*
X219425000Y-96875000D01*
D82*
X219600000Y-104212500D02*
X219600000Y-104800000D01*
D77*
X216952651Y-94152651D02*
X216600000Y-94152651D01*
D82*
X219580000Y-96875000D02*
X219580000Y-98262500D01*
D80*
X220350000Y-109487500D02*
X218437500Y-111400000D01*
X220350000Y-104137500D02*
X220350000Y-109487500D01*
D77*
X218437500Y-105962500D02*
X218800000Y-105600000D01*
X218437500Y-111400000D02*
X217337500Y-112500000D01*
X218437500Y-111400000D02*
X218437500Y-105962500D01*
X219300000Y-96750000D02*
X216952651Y-94152651D01*
X217337500Y-112500000D02*
X214700000Y-112500000D01*
D79*
%TO.N,Net-(D3-K)*%
X122437500Y-66787500D02*
X122437500Y-68200000D01*
X132839950Y-68360050D02*
X135000000Y-66200000D01*
X123025000Y-66200000D02*
X122437500Y-66787500D01*
X128925000Y-68600000D02*
X128525000Y-68200000D01*
X132839950Y-68600000D02*
X128925000Y-68600000D01*
X143200000Y-66200000D02*
X143400000Y-66200000D01*
X143200000Y-66200000D02*
X135000000Y-66200000D01*
X143400000Y-66200000D02*
X144900000Y-67700000D01*
X135000000Y-66200000D02*
X123025000Y-66200000D01*
D78*
%TO.N,Net-(U3-AREF)*%
X172050000Y-117150000D02*
X174975000Y-117150000D01*
D80*
%TO.N,Net-(U2-NTC)*%
X209122500Y-98262500D02*
X207800000Y-96940000D01*
X205572500Y-94712500D02*
X207800000Y-96940000D01*
X218850000Y-98262500D02*
X209122500Y-98262500D01*
X204700000Y-94712500D02*
X205572500Y-94712500D01*
D77*
%TO.N,VCC*%
X208300000Y-116500000D02*
X208300000Y-114200000D01*
X208300000Y-116500000D02*
X209700000Y-116500000D01*
D78*
X179437500Y-104800000D02*
X182137500Y-102100000D01*
D80*
X222350000Y-104725000D02*
X222350000Y-104137500D01*
X223600000Y-105975000D02*
X222350000Y-104725000D01*
D79*
X187500000Y-107800000D02*
X188100000Y-107200000D01*
D78*
X163550000Y-117950000D02*
X164725000Y-117950000D01*
X163550000Y-117950000D02*
X160750000Y-117950000D01*
D77*
X205500000Y-116600000D02*
X204100000Y-116600000D01*
D79*
X180900000Y-108500000D02*
X181600000Y-107800000D01*
D78*
X137787500Y-123300000D02*
X135900000Y-125187500D01*
D79*
X180900000Y-109000000D02*
X180900000Y-108500000D01*
D78*
X187500000Y-102100000D02*
X191060000Y-98540000D01*
D77*
X208300000Y-114200000D02*
X206800000Y-112700000D01*
X193500000Y-97500000D02*
X193000000Y-97500000D01*
D78*
X165100000Y-117575000D02*
X165100000Y-116725000D01*
X180900000Y-109000000D02*
X180000000Y-109900000D01*
X158900000Y-111000000D02*
X155600000Y-107700000D01*
X155600000Y-107700000D02*
X147800000Y-107700000D01*
D79*
X192200000Y-100200000D02*
X191500000Y-99500000D01*
D78*
X146500000Y-105912500D02*
X146500000Y-106500000D01*
X102500000Y-97300000D02*
X102500000Y-102900000D01*
D79*
X201000000Y-77337500D02*
X203000000Y-77337500D01*
X188100000Y-107200000D02*
X188100000Y-104300000D01*
D78*
X164725000Y-117950000D02*
X165100000Y-117575000D01*
X180000000Y-109900000D02*
X180000000Y-113200000D01*
D79*
X188100000Y-104300000D02*
X192200000Y-100200000D01*
D78*
X182787500Y-110887500D02*
X180900000Y-109000000D01*
D77*
X201000000Y-90000000D02*
X193500000Y-97500000D01*
D78*
X146500000Y-106500000D02*
X147700000Y-107700000D01*
D79*
X199600000Y-77337500D02*
X201000000Y-77337500D01*
D78*
X160750000Y-117950000D02*
X158900000Y-116100000D01*
D79*
X181600000Y-107800000D02*
X187500000Y-107800000D01*
D78*
X182787500Y-113100000D02*
X182787500Y-110887500D01*
X164725000Y-116350000D02*
X163550000Y-116350000D01*
X140500000Y-123300000D02*
X137787500Y-123300000D01*
X180000000Y-113200000D02*
X179300000Y-113900000D01*
D79*
X203000000Y-77337500D02*
X203062500Y-77275000D01*
D77*
X201000000Y-77337500D02*
X201000000Y-90000000D01*
X205500000Y-114000000D02*
X206800000Y-112700000D01*
D78*
X133600000Y-125187500D02*
X133537500Y-125250000D01*
X165100000Y-116725000D02*
X164725000Y-116350000D01*
X182137500Y-102100000D02*
X187500000Y-102100000D01*
X158900000Y-116100000D02*
X158900000Y-111000000D01*
X135900000Y-125187500D02*
X133600000Y-125187500D01*
D77*
X205500000Y-116600000D02*
X205500000Y-114000000D01*
D80*
X172250000Y-124950000D02*
X172250000Y-126000000D01*
%TO.N,Net-(U2-BST)*%
X215725000Y-102950000D02*
X218162500Y-102950000D01*
X215200000Y-103475000D02*
X215725000Y-102950000D01*
D83*
%TO.N,Net-(U2-LX_1)*%
X218100000Y-100762500D02*
X218100000Y-102137500D01*
D77*
X206800000Y-103100000D02*
X208400000Y-101500000D01*
X208400000Y-101500000D02*
X217850000Y-101500000D01*
D78*
%TO.N,Net-(U3-AVCC)*%
X172050000Y-118750000D02*
X175225000Y-118750000D01*
X176800000Y-117175000D02*
X178825000Y-117175000D01*
X178825000Y-117175000D02*
X179300000Y-116700000D01*
X175225000Y-118750000D02*
X176800000Y-117175000D01*
%TO.N,Net-(Q7-B)*%
X142000000Y-100087500D02*
X144512500Y-100087500D01*
X142000000Y-100087500D02*
X142000000Y-97500000D01*
D80*
%TO.N,USB_OUT_VOUT2*%
X227922535Y-101322535D02*
X227295070Y-101950000D01*
X227295070Y-101950000D02*
X224037500Y-101950000D01*
%TO.N,USB_VMID*%
X220500000Y-110000000D02*
X220500000Y-110537500D01*
D84*
X221362500Y-111400000D02*
X224275000Y-111400000D01*
D78*
X241025000Y-102867500D02*
X239697500Y-102867500D01*
D80*
X220500000Y-110537500D02*
X221362500Y-111400000D01*
X220850000Y-109650000D02*
X220500000Y-110000000D01*
D78*
X234752500Y-82587500D02*
X231665000Y-85675000D01*
D77*
X230195000Y-111100000D02*
X235295000Y-106000000D01*
D80*
X220850000Y-104137500D02*
X220850000Y-109650000D01*
D77*
X225825000Y-111925000D02*
X228100000Y-114200000D01*
X229200000Y-109400000D02*
X231695000Y-106905000D01*
X235295000Y-106000000D02*
X237835000Y-106000000D01*
X225625000Y-111100000D02*
X230195000Y-111100000D01*
D78*
X239697500Y-102867500D02*
X236565000Y-106000000D01*
D77*
X231695000Y-106905000D02*
X231695000Y-85705000D01*
X221225000Y-127995000D02*
X221225000Y-131805000D01*
X228100000Y-121120000D02*
X221225000Y-127995000D01*
X224275000Y-111400000D02*
X224275000Y-110525000D01*
X221362500Y-111400000D02*
X221362500Y-113587500D01*
X230395000Y-85675000D02*
X232935000Y-85675000D01*
X225400000Y-109400000D02*
X229200000Y-109400000D01*
D78*
X236200000Y-82587500D02*
X234752500Y-82587500D01*
D77*
X228100000Y-114200000D02*
X228100000Y-121120000D01*
X224275000Y-110525000D02*
X225400000Y-109400000D01*
X231695000Y-85705000D02*
X231665000Y-85675000D01*
D80*
%TO.N,RESET*%
X171750000Y-124049500D02*
X171750000Y-124950000D01*
X183075000Y-122025000D02*
X181600000Y-123500000D01*
X172400000Y-123399500D02*
X171750000Y-124049500D01*
D78*
X168512500Y-108900000D02*
X167400000Y-110012500D01*
X167400000Y-110012500D02*
X167400000Y-112500000D01*
D80*
X159437500Y-127000000D02*
X161000000Y-127000000D01*
D78*
%TO.N,Net-(U3-XTAL1{slash}PB6)*%
X154075000Y-111750000D02*
X154075000Y-114175000D01*
X158650000Y-118750000D02*
X163550000Y-118750000D01*
X154075000Y-114175000D02*
X158650000Y-118750000D01*
X154100000Y-111750000D02*
X149625000Y-111750000D01*
%TO.N,Net-(U3-XTAL2{slash}PB7)*%
X149600000Y-120275000D02*
X154075000Y-120275000D01*
X154550000Y-119550000D02*
X163550000Y-119550000D01*
D80*
%TO.N,VREG*%
X197000000Y-112712500D02*
X195912500Y-112712500D01*
X195887500Y-112712500D02*
X194800000Y-112712500D01*
X195912500Y-112712500D02*
X195900000Y-112700000D01*
X221850000Y-105850000D02*
X223700000Y-107700000D01*
X194800000Y-112712500D02*
X194212500Y-112125000D01*
X194212500Y-112125000D02*
X191112500Y-112125000D01*
X195900000Y-112700000D02*
X195887500Y-112712500D01*
X221850000Y-104137500D02*
X221850000Y-105850000D01*
D79*
%TO.N,Net-(Q5-D)*%
X205900000Y-75362500D02*
X204937500Y-76325000D01*
X205900000Y-71425000D02*
X205900000Y-75362500D01*
X203000000Y-68925000D02*
X202200000Y-68125000D01*
X203000000Y-69850000D02*
X204325000Y-69850000D01*
X203000000Y-69850000D02*
X203000000Y-68925000D01*
X204325000Y-69850000D02*
X205900000Y-71425000D01*
D78*
%TO.N,ENCODER_A*%
X162375000Y-114750000D02*
X160750000Y-113125000D01*
X160750000Y-109250000D02*
X155500000Y-104000000D01*
X156750000Y-97500000D02*
X158500000Y-97500000D01*
X160750000Y-113125000D02*
X160750000Y-109250000D01*
X155500000Y-104000000D02*
X155500000Y-98750000D01*
X163550000Y-114750000D02*
X162375000Y-114750000D01*
X155500000Y-98750000D02*
X156750000Y-97500000D01*
%TO.N,ENCODER_B*%
X174250000Y-114750000D02*
X175900000Y-113100000D01*
X169750000Y-102500000D02*
X158500000Y-102500000D01*
X175900000Y-108650000D02*
X169750000Y-102500000D01*
X175900000Y-113100000D02*
X175900000Y-108650000D01*
X172050000Y-114750000D02*
X174250000Y-114750000D01*
%TO.N,ENCODER_CLICK*%
X167400000Y-121000000D02*
X167400000Y-119100000D01*
%TO.N,WAKEUP_BUTTON*%
X160332232Y-128900000D02*
X156700000Y-128900000D01*
X166600000Y-121000000D02*
X166600000Y-122632232D01*
X166600000Y-122632232D02*
X160332232Y-128900000D01*
D80*
X144562500Y-125150000D02*
X144562500Y-125676104D01*
D78*
X156700000Y-128900000D02*
X155600000Y-130000000D01*
D80*
X146850000Y-127963604D02*
X146850000Y-130750000D01*
D78*
X151400000Y-130000000D02*
X149800000Y-131600000D01*
D80*
X144562500Y-125676104D02*
X146850000Y-127963604D01*
D78*
X155600000Y-130000000D02*
X151400000Y-130000000D01*
X149800000Y-131600000D02*
X147700000Y-131600000D01*
D80*
X146850000Y-130750000D02*
X147700000Y-131600000D01*
D79*
%TO.N,Net-(M1--)*%
X199800000Y-132537500D02*
X203662500Y-132537500D01*
X203662500Y-132537500D02*
X204500000Y-131700000D01*
D78*
%TO.N,Net-(Q11-D)*%
X146437500Y-126100000D02*
X146742612Y-125794888D01*
X146742612Y-125794888D02*
X153500000Y-125794888D01*
X157562500Y-126050000D02*
X153755112Y-126050000D01*
D80*
%TO.N,CP2102_VREG*%
X188762997Y-126300000D02*
X185175497Y-126300000D01*
X190312997Y-124750000D02*
X188762997Y-126300000D01*
X184775497Y-126700000D02*
X186500497Y-126700000D01*
X186500497Y-126700000D02*
X187200497Y-127400000D01*
X185175497Y-126300000D02*
X184575497Y-126900000D01*
%TO.N,Net-(U9-~{RST})*%
X185150497Y-124750000D02*
X184200497Y-123800000D01*
X188525497Y-122950000D02*
X188525497Y-124712500D01*
X188487997Y-124750000D02*
X185150497Y-124750000D01*
D78*
%TO.N,Net-(D4-K)*%
X102987500Y-92700000D02*
X106037500Y-95750000D01*
%TO.N,Net-(D6-K)*%
X102500000Y-107500000D02*
X106037500Y-103962500D01*
X106037500Y-103962500D02*
X106037500Y-103250000D01*
%TO.N,Net-(Q8-D)*%
X108962500Y-97650000D02*
X111312500Y-100000000D01*
X108962500Y-95750000D02*
X108962500Y-97650000D01*
X108962500Y-102350000D02*
X111312500Y-100000000D01*
X108962500Y-103250000D02*
X108962500Y-102350000D01*
D80*
%TO.N,USB_M_IN_D-*%
X220825000Y-96675000D02*
X220825000Y-97618749D01*
X238740000Y-92425000D02*
X235075000Y-92425000D01*
X222499488Y-95000512D02*
X220825000Y-96675000D01*
X235075000Y-92425000D02*
X234800000Y-92700000D01*
X222499488Y-93294596D02*
X222499488Y-95000512D01*
X220850000Y-97643749D02*
X220850000Y-98262500D01*
X220825000Y-97618749D02*
X220850000Y-97643749D01*
%TO.N,USB_M_IN_D+*%
X221500000Y-93300000D02*
X221500000Y-95363603D01*
X238740000Y-91775000D02*
X234874503Y-91775000D01*
X220375000Y-96488603D02*
X220375000Y-97618749D01*
X220350000Y-97643749D02*
X220350000Y-98262500D01*
X234874503Y-91775000D02*
X234800000Y-91700497D01*
X220375000Y-97618749D02*
X220350000Y-97643749D01*
X221500000Y-95363603D02*
X220375000Y-96488603D01*
%TO.N,USB_OUT_D-*%
X225910050Y-99700000D02*
X227300000Y-99700000D01*
X227300000Y-99700000D02*
X227600000Y-100000000D01*
X224037500Y-99950000D02*
X225660050Y-99950000D01*
X225660050Y-99950000D02*
X225910050Y-99700000D01*
%TO.N,USB_OUT_D+*%
X225594364Y-99450000D02*
X225844364Y-99200000D01*
X225844364Y-99200000D02*
X228000000Y-99200000D01*
X224037500Y-99450000D02*
X225594364Y-99450000D01*
X228000000Y-99200000D02*
X228400000Y-99400000D01*
%TO.N,USB_IN_CC1*%
X222850000Y-98262500D02*
X222850000Y-96950000D01*
X227800000Y-77100000D02*
X229800000Y-75100000D01*
X227800000Y-92000000D02*
X227800000Y-77100000D01*
X235665343Y-74650000D02*
X237110000Y-74650000D01*
X222850000Y-96950000D02*
X227800000Y-92000000D01*
X235215343Y-75100000D02*
X235665343Y-74650000D01*
X229800000Y-75100000D02*
X235215343Y-75100000D01*
%TO.N,USB_IN_D+*%
X234550000Y-72650000D02*
X237110000Y-72650000D01*
X237110000Y-73650000D02*
X233850000Y-73650000D01*
X233850000Y-73650000D02*
X233600000Y-73900000D01*
X221350000Y-96715686D02*
X221350000Y-98262500D01*
X234000000Y-72100000D02*
X234550000Y-72650000D01*
X228800000Y-72100000D02*
X225000000Y-75900000D01*
X232600000Y-72100000D02*
X234000000Y-72100000D01*
X225000000Y-93065686D02*
X225000000Y-75900000D01*
X232600000Y-72100000D02*
X228800000Y-72100000D01*
X225000000Y-93065686D02*
X221350000Y-96715686D01*
%TO.N,USB_IN_D-*%
X231800000Y-73500000D02*
X232150000Y-73150000D01*
X221850000Y-98262500D02*
X221850000Y-96781372D01*
X232500000Y-74600000D02*
X231800000Y-73900000D01*
X225400000Y-93231371D02*
X225400000Y-76065686D01*
X231800000Y-73900000D02*
X231800000Y-73500000D01*
X232150000Y-73150000D02*
X237110000Y-73150000D01*
X234615000Y-74150000D02*
X234165000Y-74600000D01*
X227965686Y-73500000D02*
X231800000Y-73500000D01*
X237110000Y-74150000D02*
X234615000Y-74150000D01*
X234165000Y-74600000D02*
X232500000Y-74600000D01*
X221850000Y-96781372D02*
X225400000Y-93231371D01*
X225400000Y-76065686D02*
X227965686Y-73500000D01*
%TO.N,USB_IN_CC2*%
X227400000Y-76500000D02*
X229000000Y-74900000D01*
X237060000Y-71700000D02*
X234847488Y-71700000D01*
X222350000Y-98262500D02*
X222350000Y-96847058D01*
X234847488Y-71700000D02*
X234247488Y-71100000D01*
X227400000Y-91797058D02*
X227400000Y-76500000D01*
X234247488Y-71100000D02*
X231800000Y-71100000D01*
X222350000Y-96847058D02*
X227400000Y-91797058D01*
%TO.N,+5V*%
X172250000Y-128050000D02*
X172250000Y-127000000D01*
%TO.N,Net-(J4-Pin_5)*%
X171750000Y-127850000D02*
X171750000Y-129770000D01*
X171750000Y-129770000D02*
X170995000Y-130525000D01*
%TO.N,Net-(J4-Pin_7)*%
X171250000Y-127850000D02*
X171250000Y-128450000D01*
X171250000Y-128450000D02*
X169175000Y-130525000D01*
%TO.N,FLUSH_D-*%
X188250497Y-129220000D02*
X188250497Y-127550000D01*
X188250497Y-127550000D02*
X188200497Y-127500000D01*
%TO.N,FLUSH_D+*%
X188900497Y-129220000D02*
X188900497Y-127799503D01*
X188900497Y-127799503D02*
X189200000Y-127500000D01*
D78*
%TO.N,Net-(JP1-B)*%
X127075000Y-69225000D02*
X126500000Y-69800000D01*
X127075000Y-68200000D02*
X127075000Y-69225000D01*
%TO.N,UV_ENABLE#*%
X172600000Y-112500000D02*
X174723624Y-110376376D01*
X174723624Y-110376376D02*
X174723624Y-108675000D01*
X170600000Y-112500000D02*
X172600000Y-112500000D01*
%TO.N,Net-(JP2-B)*%
X199600000Y-75512500D02*
X197272500Y-75512500D01*
X197272500Y-75512500D02*
X194000000Y-78785000D01*
X203062500Y-75375000D02*
X199737500Y-75375000D01*
D80*
%TO.N,Net-(JP3-A)*%
X193000000Y-122000000D02*
X193800000Y-122800000D01*
X193800000Y-122800000D02*
X193800000Y-124500000D01*
X193100000Y-125200000D02*
X193800000Y-124500000D01*
X184525000Y-122000000D02*
X193000000Y-122000000D01*
X193100000Y-125200000D02*
X192900000Y-125200000D01*
D78*
%TO.N,Net-(LS1-Pad1)*%
X182362500Y-104800000D02*
X185400000Y-104800000D01*
%TO.N,Net-(Q12-D)*%
X181375000Y-100550000D02*
X185050000Y-100550000D01*
D80*
%TO.N,USB_OUT_VBUS_G*%
X224037500Y-100950000D02*
X225150000Y-100950000D01*
X225150000Y-100950000D02*
X225400000Y-101200000D01*
X226175000Y-127995000D02*
X226175000Y-126675000D01*
%TO.N,USB_M_IN_VBUS_G*%
X229400000Y-103700500D02*
X229149500Y-103450000D01*
X229149500Y-103450000D02*
X224037500Y-103450000D01*
D78*
X239105000Y-106000000D02*
X239717500Y-106000000D01*
X239717500Y-106000000D02*
X241025000Y-104692500D01*
%TO.N,UV_PWM*%
X184975000Y-90610000D02*
X184975000Y-87750000D01*
X169000000Y-118600000D02*
X169400000Y-118200000D01*
X184912500Y-88900000D02*
X185000000Y-88812500D01*
X169000000Y-121000000D02*
X169000000Y-118600000D01*
%TO.N,USB_IN_VBUS_G*%
X234205000Y-85675000D02*
X234937500Y-85675000D01*
D80*
X229100000Y-90300000D02*
X229100000Y-101135020D01*
D78*
X235300000Y-85400000D02*
X235300000Y-85312500D01*
D80*
X227785020Y-102450000D02*
X224037500Y-102450000D01*
D78*
X235300000Y-85312500D02*
X236200000Y-84412500D01*
D80*
X229100000Y-101135020D02*
X227785020Y-102450000D01*
D78*
%TO.N,RADIATION_VALUE*%
X165000000Y-112500000D02*
X165000000Y-108900000D01*
X146437500Y-101087500D02*
X146437500Y-102562500D01*
X163700000Y-107600000D02*
X161200000Y-107600000D01*
X146400000Y-102600000D02*
X146437500Y-102637500D01*
X146437500Y-102637500D02*
X146437500Y-104025000D01*
X165000000Y-108900000D02*
X163700000Y-107600000D01*
X146437500Y-102562500D02*
X146400000Y-102600000D01*
%TO.N,FLASHLIGHT*%
X116700000Y-107300000D02*
X114200000Y-104800000D01*
X114200000Y-104800000D02*
X114200000Y-100950000D01*
X165000000Y-121000000D02*
X162900000Y-123100000D01*
X135300000Y-109100000D02*
X133500000Y-107300000D01*
X133500000Y-107300000D02*
X116700000Y-107300000D01*
X113187500Y-100950000D02*
X114200000Y-100950000D01*
X143900000Y-123100000D02*
X135300000Y-114500000D01*
X135300000Y-114500000D02*
X135300000Y-109100000D01*
X114200000Y-100950000D02*
X115450000Y-100950000D01*
X162900000Y-123100000D02*
X143900000Y-123100000D01*
%TO.N,TFT_ENABLE#*%
X133537500Y-127150000D02*
X135762500Y-127150000D01*
X165800000Y-122175000D02*
X164175000Y-123800000D01*
X138187500Y-127012500D02*
X135900000Y-127012500D01*
X164175000Y-123800000D02*
X141400000Y-123800000D01*
X165800000Y-121000000D02*
X165800000Y-122175000D01*
X141400000Y-123800000D02*
X138187500Y-127012500D01*
%TO.N,Net-(Q10-D)*%
X131662500Y-126200000D02*
X131662500Y-130512500D01*
X131662500Y-130512500D02*
X132650000Y-131500000D01*
%TO.N,SPEAKER*%
X163550000Y-113950000D02*
X162400000Y-112800000D01*
X162400000Y-110200000D02*
X162499312Y-110100688D01*
X176607500Y-99637500D02*
X179462500Y-99637500D01*
X162400000Y-112800000D02*
X162400000Y-110200000D01*
D79*
%TO.N,VIBRO*%
X200812500Y-127270000D02*
X200812500Y-130600000D01*
D78*
X174049062Y-113749562D02*
X173848624Y-113950000D01*
X173848624Y-113950000D02*
X172050000Y-113950000D01*
D79*
X200812500Y-130600000D02*
X200750000Y-130662500D01*
D80*
%TO.N,USB_I2C_SCL*%
X201550000Y-98950000D02*
X218162500Y-98950000D01*
X191112500Y-111475000D02*
X191237500Y-111600000D01*
X200300000Y-100200000D02*
X201550000Y-98950000D01*
X196187500Y-111600000D02*
X197000000Y-110787500D01*
X197000000Y-110787500D02*
X200300000Y-107487500D01*
X200300000Y-107487500D02*
X200300000Y-100200000D01*
X191237500Y-111600000D02*
X196187500Y-111600000D01*
%TO.N,USB_I2C_SDA*%
X200900000Y-107889244D02*
X200900000Y-100300000D01*
X201750000Y-99450000D02*
X218162500Y-99450000D01*
X198394622Y-110394622D02*
X200900000Y-107889244D01*
X200900000Y-100300000D02*
X201750000Y-99450000D01*
X191112500Y-110825000D02*
X194762500Y-110825000D01*
%TO.N,Net-(U2-RSET)*%
X215312500Y-105500000D02*
X215900000Y-105500000D01*
X215900000Y-105500000D02*
X217262500Y-104137500D01*
X217262500Y-104137500D02*
X218850000Y-104137500D01*
D79*
%TO.N,Net-(R17-Pad1)*%
X120612500Y-68200000D02*
X114525000Y-68200000D01*
D78*
%TO.N,USB_INT*%
X168300000Y-117700000D02*
X168300000Y-117600000D01*
D80*
X201400000Y-100500000D02*
X201950000Y-99950000D01*
D78*
X168250000Y-117750000D02*
X168300000Y-117700000D01*
D80*
X182312500Y-115587500D02*
X196312500Y-115587500D01*
D78*
X168200000Y-121000000D02*
X168250000Y-120950000D01*
D80*
X201400000Y-110500000D02*
X201400000Y-100500000D01*
D78*
X168250000Y-120950000D02*
X168250000Y-117750000D01*
D80*
X196312500Y-115587500D02*
X201400000Y-110500000D01*
X201950000Y-99950000D02*
X218162500Y-99950000D01*
D78*
%TO.N,MCU_I2C_SDA*%
X169714950Y-110800000D02*
X169000000Y-111514950D01*
D80*
X186887500Y-110825000D02*
X185325000Y-110825000D01*
D78*
X173100000Y-109300000D02*
X171600000Y-110800000D01*
X169000000Y-111514950D02*
X169000000Y-112500000D01*
X171600000Y-110800000D02*
X169714950Y-110800000D01*
D80*
X185325000Y-110825000D02*
X185000000Y-110500000D01*
%TO.N,MCU_I2C_SCL*%
X185325000Y-111475000D02*
X186887500Y-111475000D01*
X184293245Y-111206755D02*
X185056755Y-111206755D01*
D78*
X171800000Y-109200000D02*
X171100000Y-109900000D01*
X169625000Y-109900000D02*
X168200000Y-111325000D01*
D80*
X185056755Y-111206755D02*
X185325000Y-111475000D01*
D78*
X171100000Y-109900000D02*
X169625000Y-109900000D01*
X168200000Y-111325000D02*
X168200000Y-112500000D01*
D80*
%TO.N,MOSI*%
X169800000Y-121000000D02*
X169800000Y-119700000D01*
X169800000Y-122175000D02*
X169525000Y-122450000D01*
X114870000Y-130430000D02*
X114870000Y-130730000D01*
X118700000Y-130700000D02*
X118100000Y-130100000D01*
X167560050Y-122450000D02*
X156610050Y-133400000D01*
X169800000Y-119700000D02*
X170250000Y-119250000D01*
X120152943Y-133400000D02*
X118700000Y-131947057D01*
X115200000Y-130100000D02*
X114870000Y-130430000D01*
X156610050Y-133400000D02*
X120152943Y-133400000D01*
X118700000Y-131947057D02*
X118700000Y-130700000D01*
X169525000Y-122450000D02*
X167560050Y-122450000D01*
X118100000Y-130100000D02*
X115200000Y-130100000D01*
X169800000Y-121000000D02*
X169800000Y-122175000D01*
%TO.N,MISO*%
X170600000Y-122650000D02*
X170600000Y-121000000D01*
X170250000Y-123000000D02*
X170600000Y-122650000D01*
X168000000Y-123000000D02*
X170250000Y-123000000D01*
X167250000Y-123750000D02*
X168000000Y-123000000D01*
%TO.N,SCK*%
X156675736Y-133900000D02*
X166075736Y-124500000D01*
X170200000Y-123400000D02*
X171250000Y-123400000D01*
X117410000Y-131500000D02*
X119810000Y-133900000D01*
X166075736Y-124500000D02*
X169100000Y-124500000D01*
X171250000Y-123400000D02*
X171250000Y-122650000D01*
X171250000Y-124950000D02*
X171250000Y-123400000D01*
X171250000Y-122650000D02*
X172050000Y-121850000D01*
X172050000Y-121850000D02*
X172050000Y-119550000D01*
X169100000Y-124500000D02*
X170200000Y-123400000D01*
X119810000Y-133900000D02*
X156675736Y-133900000D01*
D78*
%TO.N,TFT_DC*%
X169800000Y-113675000D02*
X169800000Y-112500000D01*
X167469017Y-114307515D02*
X169167485Y-114307515D01*
X169167485Y-114307515D02*
X169800000Y-113675000D01*
D80*
%TO.N,RXD*%
X166600000Y-114450000D02*
X166600000Y-112500000D01*
X166499500Y-114550500D02*
X166600000Y-114450000D01*
%TO.N,TXD*%
X164949301Y-114302872D02*
X165800000Y-113452173D01*
X165800000Y-113452173D02*
X165800000Y-112500000D01*
%TD*%
M02*
