M48
; DRILL file {KiCad 7.0.6-7.0.6~ubuntu22.04.1} date Пн 07 авг 2023 17:23:02
; FORMAT={-:-/ absolute / inch / decimal}
; #@! TF.CreationDate,2023-08-07T17:23:02+03:00
; #@! TF.GenerationSoftware,Kicad,Pcbnew,7.0.6-7.0.6~ubuntu22.04.1
; #@! TF.FileFunction,Plated,1,4,PTH
FMAT,2
INCH
; #@! TA.AperFunction,Plated,PTH,ComponentDrill
T1C0.0079
; #@! TA.AperFunction,Plated,PTH,ViaDrill
T2C0.0157
; #@! TA.AperFunction,Plated,PTH,ComponentDrill
T3C0.0276
; #@! TA.AperFunction,Plated,PTH,ComponentDrill
T4C0.0315
; #@! TA.AperFunction,Plated,PTH,ComponentDrill
T5C0.0354
; #@! TA.AperFunction,Plated,PTH,ComponentDrill
T6C0.0362
; #@! TA.AperFunction,Plated,PTH,ComponentDrill
T7C0.0394
; #@! TA.AperFunction,Plated,PTH,ComponentDrill
T8C0.0433
; #@! TA.AperFunction,Plated,PTH,ComponentDrill
T9C0.0512
; #@! TA.AperFunction,Plated,PTH,ComponentDrill
T10C0.0551
; #@! TA.AperFunction,Plated,PTH,ComponentDrill
T11C0.0787
; #@! TA.AperFunction,Plated,PTH,ComponentDrill
T12C0.0906
; #@! TA.AperFunction,Plated,PTH,ComponentDrill
T13C0.1024
; #@! TA.AperFunction,Plated,PTH,ComponentDrill
T14C0.1575
%
G90
G05
T1
X8.624Y-3.9035
X8.624Y-3.9439
X8.624Y-3.9843
X8.624Y-4.0246
X8.624Y-4.065
X8.6644Y-3.9035
X8.6644Y-3.9439
X8.6644Y-3.9843
X8.6644Y-4.0246
X8.6644Y-4.065
X8.7047Y-3.9035
X8.7047Y-3.9439
X8.7047Y-3.9843
X8.7047Y-4.0246
X8.7047Y-4.065
X8.7451Y-3.9035
X8.7451Y-3.9439
X8.7451Y-3.9843
X8.7451Y-4.0246
X8.7451Y-4.065
X8.7854Y-3.9035
X8.7854Y-3.9439
X8.7854Y-3.9843
X8.7854Y-4.0246
X8.7854Y-4.065
T2
X4.9803Y-2.748
X5.5315Y-4.8543
X5.7638Y-4.0394
X5.8189Y-4.2402
X5.8898Y-4.5669
X6.3386Y-5.0
X6.3465Y-4.2362
X6.378Y-4.5768
X6.3976Y-4.3347
X6.4941Y-4.5001
X6.5551Y-4.5099
X6.563Y-4.2874
X6.5846Y-4.872
X6.5846Y-4.9606
X6.5846Y-5.0
X6.5906Y-4.689
X6.5933Y-4.5003
X6.5945Y-4.3602
X6.626Y-4.6299
X6.6437Y-4.872
X6.6693Y-4.6535
X6.6831Y-4.5374
X6.7028Y-4.6949
X6.7224Y-4.9803
X6.7638Y-4.2992
X6.7815Y-4.9606
X6.7815Y-5.0
X6.7874Y-4.8582
X6.815Y-4.3031
X6.8406Y-4.872
X6.8406Y-4.9606
X6.8406Y-5.0
X6.8523Y-4.4783
X6.8701Y-4.8327
X6.8789Y-4.2785
X7.0079Y-3.9213
X7.1496Y-4.8622
X7.1732Y-4.5551
X7.1732Y-4.6265
X7.252Y-4.874
X7.2556Y-4.3782
X7.28Y-3.5
X7.2835Y-4.3504
X7.3268Y-5.0157
X7.3548Y-3.4961
X7.3701Y-5.0157
X7.4095Y-5.0197
X7.4488Y-5.0197
X7.4803Y-4.8425
X7.5197Y-4.5039
X7.5315Y-3.8386
X7.5354Y-3.9173
X7.5788Y-4.8425
X7.5788Y-4.8898
X7.5945Y-4.9291
X7.5984Y-3.8386
X7.5984Y-3.9173
X7.6732Y-4.3622
X7.7126Y-4.437
X7.8108Y-4.3462
X7.8228Y-2.9026
X7.8346Y-5.0748
X7.9055Y-5.0748
X7.9567Y-2.6821
X8.0315Y-4.5866
X8.0354Y-4.7047
X8.0866Y-4.7047
X8.0906Y-4.5906
X8.0945Y-4.3937
X8.1417Y-4.3937
X8.185Y-4.3937
X8.2008Y-4.5866
X8.2047Y-4.7047
X8.2559Y-4.5866
X8.2559Y-4.7047
X8.4528Y-4.4291
X8.4769Y-4.1535
X8.4843Y-4.5394
X8.4882Y-4.4291
X8.5236Y-4.4291
X8.6024Y-4.5433
X8.7205Y-3.6732
X8.7205Y-4.5433
X8.7598Y-3.673
X8.8031Y-4.1732
X8.8071Y-4.2402
X8.8504Y-4.5236
X8.8701Y-4.1772
X8.874Y-3.9843
X8.9016Y-4.9843
X8.9055Y-3.9528
X8.9606Y-3.937
X8.9733Y-3.9891
X8.9921Y-3.9134
X9.0157Y-2.9488
X9.0197Y-3.5551
X9.0315Y-4.0827
X9.0687Y-4.1102
X9.126Y-2.7992
X9.1575Y-2.8386
X9.1969Y-2.9094
X9.2441Y-3.6103
X9.2441Y-3.6496
X9.2638Y-3.3622
X9.2673Y-2.7953
X9.2673Y-3.0079
X9.311Y-3.753
X9.315Y-3.9764
X9.4488Y-4.1654
T3
X7.7559Y-3.9724
X7.7559Y-4.1299
X8.1811Y-3.6165
X8.1811Y-3.8165
T4
X6.0433Y-4.9526
X6.0433Y-5.051
X7.5591Y-2.69
X7.5591Y-2.7884
X7.6378Y-3.1028
X7.6378Y-3.2028
X8.5276Y-3.569
X8.5276Y-3.7068
T5
X6.0679Y-5.1811
X6.1679Y-5.1811
T6
X9.184Y-4.7598
X9.184Y-4.8583
X9.184Y-4.937
X9.184Y-5.0354
T7
X4.2224Y-5.1772
X4.3224Y-5.1772
X4.4089Y-2.685
X4.4224Y-5.1772
X4.4488Y-3.1181
X4.5089Y-2.685
X4.5224Y-5.1772
X4.6224Y-5.1772
X4.7224Y-5.1772
X4.8224Y-5.1772
X4.9224Y-5.1772
X5.0224Y-5.1772
X5.0394Y-3.6299
X5.1224Y-5.1772
X5.2224Y-5.1772
X5.5906Y-3.6417
X5.5906Y-3.8386
X5.6378Y-5.1811
X5.815Y-5.1811
X6.2402Y-3.8386
X6.2402Y-3.937
X6.2402Y-4.0354
X6.5321Y-5.1388
X6.5321Y-5.2388
X6.6321Y-5.1388
X6.6321Y-5.2388
X6.7321Y-5.1388
X6.7321Y-5.2388
X6.811Y-2.7096
X6.811Y-3.2215
X6.811Y-3.8386
X6.811Y-4.0354
X6.8321Y-5.1388
X6.8321Y-5.2388
X6.9321Y-5.1388
X6.9321Y-5.2388
X7.3622Y-2.7096
X7.3622Y-3.2215
T8
X4.0354Y-3.6457
X4.0354Y-3.8268
X4.0354Y-4.0472
X4.0354Y-4.2283
X5.7047Y-2.6654
X5.7047Y-3.2559
X6.0984Y-2.6654
X6.0984Y-3.2559
X6.4921Y-2.6654
X6.4921Y-3.2559
X7.3031Y-3.9409
X7.3031Y-4.1299
X8.0512Y-4.9961
X8.0512Y-5.185
T9
X5.5886Y-5.0827
X5.8642Y-5.0827
T10
X5.2299Y-2.7008
X5.4299Y-2.7008
T11
X6.3701Y-5.2126
T12
X9.2906Y-4.6122
X9.2906Y-5.1831
T13
X6.5354Y-3.7165
X6.5354Y-4.1575
T14
X4.7244Y-4.0945
T4
G00X9.3856Y-2.6693
M15
G01X9.3541Y-2.6693
M16
G05
G00X9.3856Y-3.1102
M15
G01X9.3541Y-3.1102
M16
G05
G00X9.548Y-2.6693
M15
G01X9.5008Y-2.6693
M16
G05
G00X9.548Y-3.1102
M15
G01X9.5008Y-3.1102
M16
G05
T7
G00X7.2461Y-5.0825
M15
G01X7.2461Y-5.11
M16
G05
G00X7.2461Y-5.2124
M15
G01X7.2461Y-5.24
M16
G05
G00X7.628Y-5.0825
M15
G01X7.628Y-5.11
M16
G05
G00X7.628Y-5.2124
M15
G01X7.628Y-5.24
M16
G05
G00X9.3943Y-3.4222
M15
G01X9.4219Y-3.4222
M16
G05
G00X9.3943Y-3.8041
M15
G01X9.4219Y-3.8041
M16
G05
G00X9.5242Y-3.4222
M15
G01X9.5518Y-3.4222
M16
G05
G00X9.5242Y-3.8041
M15
G01X9.5518Y-3.8041
M16
G05
T0
M30
