%TF.GenerationSoftware,KiCad,Pcbnew,6.0.10-86aedd382b~118~ubuntu22.04.1*%
%TF.CreationDate,2023-01-15T12:46:15+03:00*%
%TF.ProjectId,xray,78726179-2e6b-4696-9361-645f70636258,rev?*%
%TF.SameCoordinates,Original*%
%TF.FileFunction,Legend,Bot*%
%TF.FilePolarity,Positive*%
%FSLAX46Y46*%
G04 Gerber Fmt 4.6, Leading zero omitted, Abs format (unit mm)*
G04 Created by KiCad (PCBNEW 6.0.10-86aedd382b~118~ubuntu22.04.1) date 2023-01-15 12:46:15*
%MOMM*%
%LPD*%
G01*
G04 APERTURE LIST*
%ADD10C,0.150000*%
%ADD11C,0.120000*%
G04 APERTURE END LIST*
D10*
X160880952Y-120471428D02*
X160119047Y-120471428D01*
X160500000Y-120852380D02*
X160500000Y-120090476D01*
X104879047Y-110361428D02*
X105640952Y-110361428D01*
X160980952Y-116271428D02*
X160219047Y-116271428D01*
X104879047Y-105861428D02*
X105640952Y-105861428D01*
X105260000Y-106242380D02*
X105260000Y-105480476D01*
%TO.C,R14*%
X99152857Y-99652380D02*
X99486190Y-99176190D01*
X99724285Y-99652380D02*
X99724285Y-98652380D01*
X99343333Y-98652380D01*
X99248095Y-98700000D01*
X99200476Y-98747619D01*
X99152857Y-98842857D01*
X99152857Y-98985714D01*
X99200476Y-99080952D01*
X99248095Y-99128571D01*
X99343333Y-99176190D01*
X99724285Y-99176190D01*
X98200476Y-99652380D02*
X98771904Y-99652380D01*
X98486190Y-99652380D02*
X98486190Y-98652380D01*
X98581428Y-98795238D01*
X98676666Y-98890476D01*
X98771904Y-98938095D01*
X97343333Y-98985714D02*
X97343333Y-99652380D01*
X97581428Y-98604761D02*
X97819523Y-99319047D01*
X97200476Y-99319047D01*
%TO.C,Q6*%
X164455238Y-135037619D02*
X164550476Y-134990000D01*
X164645714Y-134894761D01*
X164788571Y-134751904D01*
X164883809Y-134704285D01*
X164979047Y-134704285D01*
X164931428Y-134942380D02*
X165026666Y-134894761D01*
X165121904Y-134799523D01*
X165169523Y-134609047D01*
X165169523Y-134275714D01*
X165121904Y-134085238D01*
X165026666Y-133990000D01*
X164931428Y-133942380D01*
X164740952Y-133942380D01*
X164645714Y-133990000D01*
X164550476Y-134085238D01*
X164502857Y-134275714D01*
X164502857Y-134609047D01*
X164550476Y-134799523D01*
X164645714Y-134894761D01*
X164740952Y-134942380D01*
X164931428Y-134942380D01*
X163645714Y-133942380D02*
X163836190Y-133942380D01*
X163931428Y-133990000D01*
X163979047Y-134037619D01*
X164074285Y-134180476D01*
X164121904Y-134370952D01*
X164121904Y-134751904D01*
X164074285Y-134847142D01*
X164026666Y-134894761D01*
X163931428Y-134942380D01*
X163740952Y-134942380D01*
X163645714Y-134894761D01*
X163598095Y-134847142D01*
X163550476Y-134751904D01*
X163550476Y-134513809D01*
X163598095Y-134418571D01*
X163645714Y-134370952D01*
X163740952Y-134323333D01*
X163931428Y-134323333D01*
X164026666Y-134370952D01*
X164074285Y-134418571D01*
X164121904Y-134513809D01*
%TO.C,R27*%
X112642857Y-112952380D02*
X112976190Y-112476190D01*
X113214285Y-112952380D02*
X113214285Y-111952380D01*
X112833333Y-111952380D01*
X112738095Y-112000000D01*
X112690476Y-112047619D01*
X112642857Y-112142857D01*
X112642857Y-112285714D01*
X112690476Y-112380952D01*
X112738095Y-112428571D01*
X112833333Y-112476190D01*
X113214285Y-112476190D01*
X112261904Y-112047619D02*
X112214285Y-112000000D01*
X112119047Y-111952380D01*
X111880952Y-111952380D01*
X111785714Y-112000000D01*
X111738095Y-112047619D01*
X111690476Y-112142857D01*
X111690476Y-112238095D01*
X111738095Y-112380952D01*
X112309523Y-112952380D01*
X111690476Y-112952380D01*
X111357142Y-111952380D02*
X110690476Y-111952380D01*
X111119047Y-112952380D01*
%TO.C,Q3*%
X146105238Y-96587619D02*
X146200476Y-96540000D01*
X146295714Y-96444761D01*
X146438571Y-96301904D01*
X146533809Y-96254285D01*
X146629047Y-96254285D01*
X146581428Y-96492380D02*
X146676666Y-96444761D01*
X146771904Y-96349523D01*
X146819523Y-96159047D01*
X146819523Y-95825714D01*
X146771904Y-95635238D01*
X146676666Y-95540000D01*
X146581428Y-95492380D01*
X146390952Y-95492380D01*
X146295714Y-95540000D01*
X146200476Y-95635238D01*
X146152857Y-95825714D01*
X146152857Y-96159047D01*
X146200476Y-96349523D01*
X146295714Y-96444761D01*
X146390952Y-96492380D01*
X146581428Y-96492380D01*
X145819523Y-95492380D02*
X145200476Y-95492380D01*
X145533809Y-95873333D01*
X145390952Y-95873333D01*
X145295714Y-95920952D01*
X145248095Y-95968571D01*
X145200476Y-96063809D01*
X145200476Y-96301904D01*
X145248095Y-96397142D01*
X145295714Y-96444761D01*
X145390952Y-96492380D01*
X145676666Y-96492380D01*
X145771904Y-96444761D01*
X145819523Y-96397142D01*
%TO.C,C16*%
X150152857Y-111309642D02*
X150200476Y-111357261D01*
X150343333Y-111404880D01*
X150438571Y-111404880D01*
X150581428Y-111357261D01*
X150676666Y-111262023D01*
X150724285Y-111166785D01*
X150771904Y-110976309D01*
X150771904Y-110833452D01*
X150724285Y-110642976D01*
X150676666Y-110547738D01*
X150581428Y-110452500D01*
X150438571Y-110404880D01*
X150343333Y-110404880D01*
X150200476Y-110452500D01*
X150152857Y-110500119D01*
X149200476Y-111404880D02*
X149771904Y-111404880D01*
X149486190Y-111404880D02*
X149486190Y-110404880D01*
X149581428Y-110547738D01*
X149676666Y-110642976D01*
X149771904Y-110690595D01*
X148343333Y-110404880D02*
X148533809Y-110404880D01*
X148629047Y-110452500D01*
X148676666Y-110500119D01*
X148771904Y-110642976D01*
X148819523Y-110833452D01*
X148819523Y-111214404D01*
X148771904Y-111309642D01*
X148724285Y-111357261D01*
X148629047Y-111404880D01*
X148438571Y-111404880D01*
X148343333Y-111357261D01*
X148295714Y-111309642D01*
X148248095Y-111214404D01*
X148248095Y-110976309D01*
X148295714Y-110881071D01*
X148343333Y-110833452D01*
X148438571Y-110785833D01*
X148629047Y-110785833D01*
X148724285Y-110833452D01*
X148771904Y-110881071D01*
X148819523Y-110976309D01*
%TO.C,R11*%
X76152857Y-79172380D02*
X76486190Y-78696190D01*
X76724285Y-79172380D02*
X76724285Y-78172380D01*
X76343333Y-78172380D01*
X76248095Y-78220000D01*
X76200476Y-78267619D01*
X76152857Y-78362857D01*
X76152857Y-78505714D01*
X76200476Y-78600952D01*
X76248095Y-78648571D01*
X76343333Y-78696190D01*
X76724285Y-78696190D01*
X75200476Y-79172380D02*
X75771904Y-79172380D01*
X75486190Y-79172380D02*
X75486190Y-78172380D01*
X75581428Y-78315238D01*
X75676666Y-78410476D01*
X75771904Y-78458095D01*
X74248095Y-79172380D02*
X74819523Y-79172380D01*
X74533809Y-79172380D02*
X74533809Y-78172380D01*
X74629047Y-78315238D01*
X74724285Y-78410476D01*
X74819523Y-78458095D01*
%TO.C,Q11*%
X104771428Y-132347619D02*
X104866666Y-132300000D01*
X104961904Y-132204761D01*
X105104761Y-132061904D01*
X105200000Y-132014285D01*
X105295238Y-132014285D01*
X105247619Y-132252380D02*
X105342857Y-132204761D01*
X105438095Y-132109523D01*
X105485714Y-131919047D01*
X105485714Y-131585714D01*
X105438095Y-131395238D01*
X105342857Y-131300000D01*
X105247619Y-131252380D01*
X105057142Y-131252380D01*
X104961904Y-131300000D01*
X104866666Y-131395238D01*
X104819047Y-131585714D01*
X104819047Y-131919047D01*
X104866666Y-132109523D01*
X104961904Y-132204761D01*
X105057142Y-132252380D01*
X105247619Y-132252380D01*
X103866666Y-132252380D02*
X104438095Y-132252380D01*
X104152380Y-132252380D02*
X104152380Y-131252380D01*
X104247619Y-131395238D01*
X104342857Y-131490476D01*
X104438095Y-131538095D01*
X102914285Y-132252380D02*
X103485714Y-132252380D01*
X103200000Y-132252380D02*
X103200000Y-131252380D01*
X103295238Y-131395238D01*
X103390476Y-131490476D01*
X103485714Y-131538095D01*
%TO.C,D1*%
X126338095Y-86352380D02*
X126338095Y-85352380D01*
X126100000Y-85352380D01*
X125957142Y-85400000D01*
X125861904Y-85495238D01*
X125814285Y-85590476D01*
X125766666Y-85780952D01*
X125766666Y-85923809D01*
X125814285Y-86114285D01*
X125861904Y-86209523D01*
X125957142Y-86304761D01*
X126100000Y-86352380D01*
X126338095Y-86352380D01*
X124814285Y-86352380D02*
X125385714Y-86352380D01*
X125100000Y-86352380D02*
X125100000Y-85352380D01*
X125195238Y-85495238D01*
X125290476Y-85590476D01*
X125385714Y-85638095D01*
%TO.C,R15*%
X163940357Y-114042380D02*
X164273690Y-113566190D01*
X164511785Y-114042380D02*
X164511785Y-113042380D01*
X164130833Y-113042380D01*
X164035595Y-113090000D01*
X163987976Y-113137619D01*
X163940357Y-113232857D01*
X163940357Y-113375714D01*
X163987976Y-113470952D01*
X164035595Y-113518571D01*
X164130833Y-113566190D01*
X164511785Y-113566190D01*
X162987976Y-114042380D02*
X163559404Y-114042380D01*
X163273690Y-114042380D02*
X163273690Y-113042380D01*
X163368928Y-113185238D01*
X163464166Y-113280476D01*
X163559404Y-113328095D01*
X162083214Y-113042380D02*
X162559404Y-113042380D01*
X162607023Y-113518571D01*
X162559404Y-113470952D01*
X162464166Y-113423333D01*
X162226071Y-113423333D01*
X162130833Y-113470952D01*
X162083214Y-113518571D01*
X162035595Y-113613809D01*
X162035595Y-113851904D01*
X162083214Y-113947142D01*
X162130833Y-113994761D01*
X162226071Y-114042380D01*
X162464166Y-114042380D01*
X162559404Y-113994761D01*
X162607023Y-113947142D01*
%TO.C,R30*%
X92652857Y-132252380D02*
X92986190Y-131776190D01*
X93224285Y-132252380D02*
X93224285Y-131252380D01*
X92843333Y-131252380D01*
X92748095Y-131300000D01*
X92700476Y-131347619D01*
X92652857Y-131442857D01*
X92652857Y-131585714D01*
X92700476Y-131680952D01*
X92748095Y-131728571D01*
X92843333Y-131776190D01*
X93224285Y-131776190D01*
X92319523Y-131252380D02*
X91700476Y-131252380D01*
X92033809Y-131633333D01*
X91890952Y-131633333D01*
X91795714Y-131680952D01*
X91748095Y-131728571D01*
X91700476Y-131823809D01*
X91700476Y-132061904D01*
X91748095Y-132157142D01*
X91795714Y-132204761D01*
X91890952Y-132252380D01*
X92176666Y-132252380D01*
X92271904Y-132204761D01*
X92319523Y-132157142D01*
X91081428Y-131252380D02*
X90986190Y-131252380D01*
X90890952Y-131300000D01*
X90843333Y-131347619D01*
X90795714Y-131442857D01*
X90748095Y-131633333D01*
X90748095Y-131871428D01*
X90795714Y-132061904D01*
X90843333Y-132157142D01*
X90890952Y-132204761D01*
X90986190Y-132252380D01*
X91081428Y-132252380D01*
X91176666Y-132204761D01*
X91224285Y-132157142D01*
X91271904Y-132061904D01*
X91319523Y-131871428D01*
X91319523Y-131633333D01*
X91271904Y-131442857D01*
X91224285Y-131347619D01*
X91176666Y-131300000D01*
X91081428Y-131252380D01*
%TO.C,D5*%
X108248095Y-108492380D02*
X108248095Y-107492380D01*
X108010000Y-107492380D01*
X107867142Y-107540000D01*
X107771904Y-107635238D01*
X107724285Y-107730476D01*
X107676666Y-107920952D01*
X107676666Y-108063809D01*
X107724285Y-108254285D01*
X107771904Y-108349523D01*
X107867142Y-108444761D01*
X108010000Y-108492380D01*
X108248095Y-108492380D01*
X106771904Y-107492380D02*
X107248095Y-107492380D01*
X107295714Y-107968571D01*
X107248095Y-107920952D01*
X107152857Y-107873333D01*
X106914761Y-107873333D01*
X106819523Y-107920952D01*
X106771904Y-107968571D01*
X106724285Y-108063809D01*
X106724285Y-108301904D01*
X106771904Y-108397142D01*
X106819523Y-108444761D01*
X106914761Y-108492380D01*
X107152857Y-108492380D01*
X107248095Y-108444761D01*
X107295714Y-108397142D01*
%TO.C,R7*%
X153926666Y-85742380D02*
X154260000Y-85266190D01*
X154498095Y-85742380D02*
X154498095Y-84742380D01*
X154117142Y-84742380D01*
X154021904Y-84790000D01*
X153974285Y-84837619D01*
X153926666Y-84932857D01*
X153926666Y-85075714D01*
X153974285Y-85170952D01*
X154021904Y-85218571D01*
X154117142Y-85266190D01*
X154498095Y-85266190D01*
X153593333Y-84742380D02*
X152926666Y-84742380D01*
X153355238Y-85742380D01*
%TO.C,C32*%
X168392857Y-82607142D02*
X168440476Y-82654761D01*
X168583333Y-82702380D01*
X168678571Y-82702380D01*
X168821428Y-82654761D01*
X168916666Y-82559523D01*
X168964285Y-82464285D01*
X169011904Y-82273809D01*
X169011904Y-82130952D01*
X168964285Y-81940476D01*
X168916666Y-81845238D01*
X168821428Y-81750000D01*
X168678571Y-81702380D01*
X168583333Y-81702380D01*
X168440476Y-81750000D01*
X168392857Y-81797619D01*
X168059523Y-81702380D02*
X167440476Y-81702380D01*
X167773809Y-82083333D01*
X167630952Y-82083333D01*
X167535714Y-82130952D01*
X167488095Y-82178571D01*
X167440476Y-82273809D01*
X167440476Y-82511904D01*
X167488095Y-82607142D01*
X167535714Y-82654761D01*
X167630952Y-82702380D01*
X167916666Y-82702380D01*
X168011904Y-82654761D01*
X168059523Y-82607142D01*
X167059523Y-81797619D02*
X167011904Y-81750000D01*
X166916666Y-81702380D01*
X166678571Y-81702380D01*
X166583333Y-81750000D01*
X166535714Y-81797619D01*
X166488095Y-81892857D01*
X166488095Y-81988095D01*
X166535714Y-82130952D01*
X167107142Y-82702380D01*
X166488095Y-82702380D01*
%TO.C,Q9*%
X92605238Y-128087619D02*
X92700476Y-128040000D01*
X92795714Y-127944761D01*
X92938571Y-127801904D01*
X93033809Y-127754285D01*
X93129047Y-127754285D01*
X93081428Y-127992380D02*
X93176666Y-127944761D01*
X93271904Y-127849523D01*
X93319523Y-127659047D01*
X93319523Y-127325714D01*
X93271904Y-127135238D01*
X93176666Y-127040000D01*
X93081428Y-126992380D01*
X92890952Y-126992380D01*
X92795714Y-127040000D01*
X92700476Y-127135238D01*
X92652857Y-127325714D01*
X92652857Y-127659047D01*
X92700476Y-127849523D01*
X92795714Y-127944761D01*
X92890952Y-127992380D01*
X93081428Y-127992380D01*
X92176666Y-127992380D02*
X91986190Y-127992380D01*
X91890952Y-127944761D01*
X91843333Y-127897142D01*
X91748095Y-127754285D01*
X91700476Y-127563809D01*
X91700476Y-127182857D01*
X91748095Y-127087619D01*
X91795714Y-127040000D01*
X91890952Y-126992380D01*
X92081428Y-126992380D01*
X92176666Y-127040000D01*
X92224285Y-127087619D01*
X92271904Y-127182857D01*
X92271904Y-127420952D01*
X92224285Y-127516190D01*
X92176666Y-127563809D01*
X92081428Y-127611428D01*
X91890952Y-127611428D01*
X91795714Y-127563809D01*
X91748095Y-127516190D01*
X91700476Y-127420952D01*
%TO.C,R12*%
X70690357Y-79172380D02*
X71023690Y-78696190D01*
X71261785Y-79172380D02*
X71261785Y-78172380D01*
X70880833Y-78172380D01*
X70785595Y-78220000D01*
X70737976Y-78267619D01*
X70690357Y-78362857D01*
X70690357Y-78505714D01*
X70737976Y-78600952D01*
X70785595Y-78648571D01*
X70880833Y-78696190D01*
X71261785Y-78696190D01*
X69737976Y-79172380D02*
X70309404Y-79172380D01*
X70023690Y-79172380D02*
X70023690Y-78172380D01*
X70118928Y-78315238D01*
X70214166Y-78410476D01*
X70309404Y-78458095D01*
X69357023Y-78267619D02*
X69309404Y-78220000D01*
X69214166Y-78172380D01*
X68976071Y-78172380D01*
X68880833Y-78220000D01*
X68833214Y-78267619D01*
X68785595Y-78362857D01*
X68785595Y-78458095D01*
X68833214Y-78600952D01*
X69404642Y-79172380D01*
X68785595Y-79172380D01*
%TO.C,Q12*%
X141331428Y-131937619D02*
X141426666Y-131890000D01*
X141521904Y-131794761D01*
X141664761Y-131651904D01*
X141760000Y-131604285D01*
X141855238Y-131604285D01*
X141807619Y-131842380D02*
X141902857Y-131794761D01*
X141998095Y-131699523D01*
X142045714Y-131509047D01*
X142045714Y-131175714D01*
X141998095Y-130985238D01*
X141902857Y-130890000D01*
X141807619Y-130842380D01*
X141617142Y-130842380D01*
X141521904Y-130890000D01*
X141426666Y-130985238D01*
X141379047Y-131175714D01*
X141379047Y-131509047D01*
X141426666Y-131699523D01*
X141521904Y-131794761D01*
X141617142Y-131842380D01*
X141807619Y-131842380D01*
X140426666Y-131842380D02*
X140998095Y-131842380D01*
X140712380Y-131842380D02*
X140712380Y-130842380D01*
X140807619Y-130985238D01*
X140902857Y-131080476D01*
X140998095Y-131128095D01*
X140045714Y-130937619D02*
X139998095Y-130890000D01*
X139902857Y-130842380D01*
X139664761Y-130842380D01*
X139569523Y-130890000D01*
X139521904Y-130937619D01*
X139474285Y-131032857D01*
X139474285Y-131128095D01*
X139521904Y-131270952D01*
X140093333Y-131842380D01*
X139474285Y-131842380D01*
%TO.C,C7*%
X156426666Y-85217142D02*
X156474285Y-85264761D01*
X156617142Y-85312380D01*
X156712380Y-85312380D01*
X156855238Y-85264761D01*
X156950476Y-85169523D01*
X156998095Y-85074285D01*
X157045714Y-84883809D01*
X157045714Y-84740952D01*
X156998095Y-84550476D01*
X156950476Y-84455238D01*
X156855238Y-84360000D01*
X156712380Y-84312380D01*
X156617142Y-84312380D01*
X156474285Y-84360000D01*
X156426666Y-84407619D01*
X156093333Y-84312380D02*
X155426666Y-84312380D01*
X155855238Y-85312380D01*
%TO.C,U1*%
X157021904Y-92242380D02*
X157021904Y-93051904D01*
X156974285Y-93147142D01*
X156926666Y-93194761D01*
X156831428Y-93242380D01*
X156640952Y-93242380D01*
X156545714Y-93194761D01*
X156498095Y-93147142D01*
X156450476Y-93051904D01*
X156450476Y-92242380D01*
X155450476Y-93242380D02*
X156021904Y-93242380D01*
X155736190Y-93242380D02*
X155736190Y-92242380D01*
X155831428Y-92385238D01*
X155926666Y-92480476D01*
X156021904Y-92528095D01*
%TO.C,C5*%
X149306666Y-85157142D02*
X149354285Y-85204761D01*
X149497142Y-85252380D01*
X149592380Y-85252380D01*
X149735238Y-85204761D01*
X149830476Y-85109523D01*
X149878095Y-85014285D01*
X149925714Y-84823809D01*
X149925714Y-84680952D01*
X149878095Y-84490476D01*
X149830476Y-84395238D01*
X149735238Y-84300000D01*
X149592380Y-84252380D01*
X149497142Y-84252380D01*
X149354285Y-84300000D01*
X149306666Y-84347619D01*
X148401904Y-84252380D02*
X148878095Y-84252380D01*
X148925714Y-84728571D01*
X148878095Y-84680952D01*
X148782857Y-84633333D01*
X148544761Y-84633333D01*
X148449523Y-84680952D01*
X148401904Y-84728571D01*
X148354285Y-84823809D01*
X148354285Y-85061904D01*
X148401904Y-85157142D01*
X148449523Y-85204761D01*
X148544761Y-85252380D01*
X148782857Y-85252380D01*
X148878095Y-85204761D01*
X148925714Y-85157142D01*
%TO.C,R3*%
X162766666Y-86202380D02*
X163100000Y-85726190D01*
X163338095Y-86202380D02*
X163338095Y-85202380D01*
X162957142Y-85202380D01*
X162861904Y-85250000D01*
X162814285Y-85297619D01*
X162766666Y-85392857D01*
X162766666Y-85535714D01*
X162814285Y-85630952D01*
X162861904Y-85678571D01*
X162957142Y-85726190D01*
X163338095Y-85726190D01*
X162433333Y-85202380D02*
X161814285Y-85202380D01*
X162147619Y-85583333D01*
X162004761Y-85583333D01*
X161909523Y-85630952D01*
X161861904Y-85678571D01*
X161814285Y-85773809D01*
X161814285Y-86011904D01*
X161861904Y-86107142D01*
X161909523Y-86154761D01*
X162004761Y-86202380D01*
X162290476Y-86202380D01*
X162385714Y-86154761D01*
X162433333Y-86107142D01*
%TO.C,C39*%
X157152857Y-137897142D02*
X157200476Y-137944761D01*
X157343333Y-137992380D01*
X157438571Y-137992380D01*
X157581428Y-137944761D01*
X157676666Y-137849523D01*
X157724285Y-137754285D01*
X157771904Y-137563809D01*
X157771904Y-137420952D01*
X157724285Y-137230476D01*
X157676666Y-137135238D01*
X157581428Y-137040000D01*
X157438571Y-136992380D01*
X157343333Y-136992380D01*
X157200476Y-137040000D01*
X157152857Y-137087619D01*
X156819523Y-136992380D02*
X156200476Y-136992380D01*
X156533809Y-137373333D01*
X156390952Y-137373333D01*
X156295714Y-137420952D01*
X156248095Y-137468571D01*
X156200476Y-137563809D01*
X156200476Y-137801904D01*
X156248095Y-137897142D01*
X156295714Y-137944761D01*
X156390952Y-137992380D01*
X156676666Y-137992380D01*
X156771904Y-137944761D01*
X156819523Y-137897142D01*
X155724285Y-137992380D02*
X155533809Y-137992380D01*
X155438571Y-137944761D01*
X155390952Y-137897142D01*
X155295714Y-137754285D01*
X155248095Y-137563809D01*
X155248095Y-137182857D01*
X155295714Y-137087619D01*
X155343333Y-137040000D01*
X155438571Y-136992380D01*
X155629047Y-136992380D01*
X155724285Y-137040000D01*
X155771904Y-137087619D01*
X155819523Y-137182857D01*
X155819523Y-137420952D01*
X155771904Y-137516190D01*
X155724285Y-137563809D01*
X155629047Y-137611428D01*
X155438571Y-137611428D01*
X155343333Y-137563809D01*
X155295714Y-137516190D01*
X155248095Y-137420952D01*
%TO.C,U6*%
X122521904Y-129742380D02*
X122521904Y-130551904D01*
X122474285Y-130647142D01*
X122426666Y-130694761D01*
X122331428Y-130742380D01*
X122140952Y-130742380D01*
X122045714Y-130694761D01*
X121998095Y-130647142D01*
X121950476Y-130551904D01*
X121950476Y-129742380D01*
X121045714Y-129742380D02*
X121236190Y-129742380D01*
X121331428Y-129790000D01*
X121379047Y-129837619D01*
X121474285Y-129980476D01*
X121521904Y-130170952D01*
X121521904Y-130551904D01*
X121474285Y-130647142D01*
X121426666Y-130694761D01*
X121331428Y-130742380D01*
X121140952Y-130742380D01*
X121045714Y-130694761D01*
X120998095Y-130647142D01*
X120950476Y-130551904D01*
X120950476Y-130313809D01*
X120998095Y-130218571D01*
X121045714Y-130170952D01*
X121140952Y-130123333D01*
X121331428Y-130123333D01*
X121426666Y-130170952D01*
X121474285Y-130218571D01*
X121521904Y-130313809D01*
%TO.C,U5*%
X110171904Y-131292380D02*
X110171904Y-132101904D01*
X110124285Y-132197142D01*
X110076666Y-132244761D01*
X109981428Y-132292380D01*
X109790952Y-132292380D01*
X109695714Y-132244761D01*
X109648095Y-132197142D01*
X109600476Y-132101904D01*
X109600476Y-131292380D01*
X108648095Y-131292380D02*
X109124285Y-131292380D01*
X109171904Y-131768571D01*
X109124285Y-131720952D01*
X109029047Y-131673333D01*
X108790952Y-131673333D01*
X108695714Y-131720952D01*
X108648095Y-131768571D01*
X108600476Y-131863809D01*
X108600476Y-132101904D01*
X108648095Y-132197142D01*
X108695714Y-132244761D01*
X108790952Y-132292380D01*
X109029047Y-132292380D01*
X109124285Y-132244761D01*
X109171904Y-132197142D01*
%TO.C,R34*%
X144902857Y-131742380D02*
X145236190Y-131266190D01*
X145474285Y-131742380D02*
X145474285Y-130742380D01*
X145093333Y-130742380D01*
X144998095Y-130790000D01*
X144950476Y-130837619D01*
X144902857Y-130932857D01*
X144902857Y-131075714D01*
X144950476Y-131170952D01*
X144998095Y-131218571D01*
X145093333Y-131266190D01*
X145474285Y-131266190D01*
X144569523Y-130742380D02*
X143950476Y-130742380D01*
X144283809Y-131123333D01*
X144140952Y-131123333D01*
X144045714Y-131170952D01*
X143998095Y-131218571D01*
X143950476Y-131313809D01*
X143950476Y-131551904D01*
X143998095Y-131647142D01*
X144045714Y-131694761D01*
X144140952Y-131742380D01*
X144426666Y-131742380D01*
X144521904Y-131694761D01*
X144569523Y-131647142D01*
X143093333Y-131075714D02*
X143093333Y-131742380D01*
X143331428Y-130694761D02*
X143569523Y-131409047D01*
X142950476Y-131409047D01*
%TO.C,R9*%
X144566666Y-109052380D02*
X144900000Y-108576190D01*
X145138095Y-109052380D02*
X145138095Y-108052380D01*
X144757142Y-108052380D01*
X144661904Y-108100000D01*
X144614285Y-108147619D01*
X144566666Y-108242857D01*
X144566666Y-108385714D01*
X144614285Y-108480952D01*
X144661904Y-108528571D01*
X144757142Y-108576190D01*
X145138095Y-108576190D01*
X144090476Y-109052380D02*
X143900000Y-109052380D01*
X143804761Y-109004761D01*
X143757142Y-108957142D01*
X143661904Y-108814285D01*
X143614285Y-108623809D01*
X143614285Y-108242857D01*
X143661904Y-108147619D01*
X143709523Y-108100000D01*
X143804761Y-108052380D01*
X143995238Y-108052380D01*
X144090476Y-108100000D01*
X144138095Y-108147619D01*
X144185714Y-108242857D01*
X144185714Y-108480952D01*
X144138095Y-108576190D01*
X144090476Y-108623809D01*
X143995238Y-108671428D01*
X143804761Y-108671428D01*
X143709523Y-108623809D01*
X143661904Y-108576190D01*
X143614285Y-108480952D01*
%TO.C,R13*%
X65152857Y-79172380D02*
X65486190Y-78696190D01*
X65724285Y-79172380D02*
X65724285Y-78172380D01*
X65343333Y-78172380D01*
X65248095Y-78220000D01*
X65200476Y-78267619D01*
X65152857Y-78362857D01*
X65152857Y-78505714D01*
X65200476Y-78600952D01*
X65248095Y-78648571D01*
X65343333Y-78696190D01*
X65724285Y-78696190D01*
X64200476Y-79172380D02*
X64771904Y-79172380D01*
X64486190Y-79172380D02*
X64486190Y-78172380D01*
X64581428Y-78315238D01*
X64676666Y-78410476D01*
X64771904Y-78458095D01*
X63867142Y-78172380D02*
X63248095Y-78172380D01*
X63581428Y-78553333D01*
X63438571Y-78553333D01*
X63343333Y-78600952D01*
X63295714Y-78648571D01*
X63248095Y-78743809D01*
X63248095Y-78981904D01*
X63295714Y-79077142D01*
X63343333Y-79124761D01*
X63438571Y-79172380D01*
X63724285Y-79172380D01*
X63819523Y-79124761D01*
X63867142Y-79077142D01*
%TO.C,V1*%
X70319523Y-105492380D02*
X69986190Y-106492380D01*
X69652857Y-105492380D01*
X68795714Y-106492380D02*
X69367142Y-106492380D01*
X69081428Y-106492380D02*
X69081428Y-105492380D01*
X69176666Y-105635238D01*
X69271904Y-105730476D01*
X69367142Y-105778095D01*
X75379047Y-102468571D02*
X76140952Y-102468571D01*
X65129047Y-88218571D02*
X65890952Y-88218571D01*
X65510000Y-87837619D02*
X65510000Y-88599523D01*
%TO.C,C22*%
X148852857Y-101647142D02*
X148900476Y-101694761D01*
X149043333Y-101742380D01*
X149138571Y-101742380D01*
X149281428Y-101694761D01*
X149376666Y-101599523D01*
X149424285Y-101504285D01*
X149471904Y-101313809D01*
X149471904Y-101170952D01*
X149424285Y-100980476D01*
X149376666Y-100885238D01*
X149281428Y-100790000D01*
X149138571Y-100742380D01*
X149043333Y-100742380D01*
X148900476Y-100790000D01*
X148852857Y-100837619D01*
X148471904Y-100837619D02*
X148424285Y-100790000D01*
X148329047Y-100742380D01*
X148090952Y-100742380D01*
X147995714Y-100790000D01*
X147948095Y-100837619D01*
X147900476Y-100932857D01*
X147900476Y-101028095D01*
X147948095Y-101170952D01*
X148519523Y-101742380D01*
X147900476Y-101742380D01*
X147519523Y-100837619D02*
X147471904Y-100790000D01*
X147376666Y-100742380D01*
X147138571Y-100742380D01*
X147043333Y-100790000D01*
X146995714Y-100837619D01*
X146948095Y-100932857D01*
X146948095Y-101028095D01*
X146995714Y-101170952D01*
X147567142Y-101742380D01*
X146948095Y-101742380D01*
%TO.C,C38*%
X99452857Y-134397142D02*
X99500476Y-134444761D01*
X99643333Y-134492380D01*
X99738571Y-134492380D01*
X99881428Y-134444761D01*
X99976666Y-134349523D01*
X100024285Y-134254285D01*
X100071904Y-134063809D01*
X100071904Y-133920952D01*
X100024285Y-133730476D01*
X99976666Y-133635238D01*
X99881428Y-133540000D01*
X99738571Y-133492380D01*
X99643333Y-133492380D01*
X99500476Y-133540000D01*
X99452857Y-133587619D01*
X99119523Y-133492380D02*
X98500476Y-133492380D01*
X98833809Y-133873333D01*
X98690952Y-133873333D01*
X98595714Y-133920952D01*
X98548095Y-133968571D01*
X98500476Y-134063809D01*
X98500476Y-134301904D01*
X98548095Y-134397142D01*
X98595714Y-134444761D01*
X98690952Y-134492380D01*
X98976666Y-134492380D01*
X99071904Y-134444761D01*
X99119523Y-134397142D01*
X97929047Y-133920952D02*
X98024285Y-133873333D01*
X98071904Y-133825714D01*
X98119523Y-133730476D01*
X98119523Y-133682857D01*
X98071904Y-133587619D01*
X98024285Y-133540000D01*
X97929047Y-133492380D01*
X97738571Y-133492380D01*
X97643333Y-133540000D01*
X97595714Y-133587619D01*
X97548095Y-133682857D01*
X97548095Y-133730476D01*
X97595714Y-133825714D01*
X97643333Y-133873333D01*
X97738571Y-133920952D01*
X97929047Y-133920952D01*
X98024285Y-133968571D01*
X98071904Y-134016190D01*
X98119523Y-134111428D01*
X98119523Y-134301904D01*
X98071904Y-134397142D01*
X98024285Y-134444761D01*
X97929047Y-134492380D01*
X97738571Y-134492380D01*
X97643333Y-134444761D01*
X97595714Y-134397142D01*
X97548095Y-134301904D01*
X97548095Y-134111428D01*
X97595714Y-134016190D01*
X97643333Y-133968571D01*
X97738571Y-133920952D01*
%TO.C,C6*%
X145306666Y-85117142D02*
X145354285Y-85164761D01*
X145497142Y-85212380D01*
X145592380Y-85212380D01*
X145735238Y-85164761D01*
X145830476Y-85069523D01*
X145878095Y-84974285D01*
X145925714Y-84783809D01*
X145925714Y-84640952D01*
X145878095Y-84450476D01*
X145830476Y-84355238D01*
X145735238Y-84260000D01*
X145592380Y-84212380D01*
X145497142Y-84212380D01*
X145354285Y-84260000D01*
X145306666Y-84307619D01*
X144449523Y-84212380D02*
X144640000Y-84212380D01*
X144735238Y-84260000D01*
X144782857Y-84307619D01*
X144878095Y-84450476D01*
X144925714Y-84640952D01*
X144925714Y-85021904D01*
X144878095Y-85117142D01*
X144830476Y-85164761D01*
X144735238Y-85212380D01*
X144544761Y-85212380D01*
X144449523Y-85164761D01*
X144401904Y-85117142D01*
X144354285Y-85021904D01*
X144354285Y-84783809D01*
X144401904Y-84688571D01*
X144449523Y-84640952D01*
X144544761Y-84593333D01*
X144735238Y-84593333D01*
X144830476Y-84640952D01*
X144878095Y-84688571D01*
X144925714Y-84783809D01*
%TO.C,JP1*%
X91833333Y-86852380D02*
X91833333Y-87566666D01*
X91880952Y-87709523D01*
X91976190Y-87804761D01*
X92119047Y-87852380D01*
X92214285Y-87852380D01*
X91357142Y-87852380D02*
X91357142Y-86852380D01*
X90976190Y-86852380D01*
X90880952Y-86900000D01*
X90833333Y-86947619D01*
X90785714Y-87042857D01*
X90785714Y-87185714D01*
X90833333Y-87280952D01*
X90880952Y-87328571D01*
X90976190Y-87376190D01*
X91357142Y-87376190D01*
X89833333Y-87852380D02*
X90404761Y-87852380D01*
X90119047Y-87852380D02*
X90119047Y-86852380D01*
X90214285Y-86995238D01*
X90309523Y-87090476D01*
X90404761Y-87138095D01*
%TO.C,R19*%
X164442857Y-76492380D02*
X164776190Y-76016190D01*
X165014285Y-76492380D02*
X165014285Y-75492380D01*
X164633333Y-75492380D01*
X164538095Y-75540000D01*
X164490476Y-75587619D01*
X164442857Y-75682857D01*
X164442857Y-75825714D01*
X164490476Y-75920952D01*
X164538095Y-75968571D01*
X164633333Y-76016190D01*
X165014285Y-76016190D01*
X163490476Y-76492380D02*
X164061904Y-76492380D01*
X163776190Y-76492380D02*
X163776190Y-75492380D01*
X163871428Y-75635238D01*
X163966666Y-75730476D01*
X164061904Y-75778095D01*
X163014285Y-76492380D02*
X162823809Y-76492380D01*
X162728571Y-76444761D01*
X162680952Y-76397142D01*
X162585714Y-76254285D01*
X162538095Y-76063809D01*
X162538095Y-75682857D01*
X162585714Y-75587619D01*
X162633333Y-75540000D01*
X162728571Y-75492380D01*
X162919047Y-75492380D01*
X163014285Y-75540000D01*
X163061904Y-75587619D01*
X163109523Y-75682857D01*
X163109523Y-75920952D01*
X163061904Y-76016190D01*
X163014285Y-76063809D01*
X162919047Y-76111428D01*
X162728571Y-76111428D01*
X162633333Y-76063809D01*
X162585714Y-76016190D01*
X162538095Y-75920952D01*
%TO.C,Q8*%
X108845238Y-112797619D02*
X108940476Y-112750000D01*
X109035714Y-112654761D01*
X109178571Y-112511904D01*
X109273809Y-112464285D01*
X109369047Y-112464285D01*
X109321428Y-112702380D02*
X109416666Y-112654761D01*
X109511904Y-112559523D01*
X109559523Y-112369047D01*
X109559523Y-112035714D01*
X109511904Y-111845238D01*
X109416666Y-111750000D01*
X109321428Y-111702380D01*
X109130952Y-111702380D01*
X109035714Y-111750000D01*
X108940476Y-111845238D01*
X108892857Y-112035714D01*
X108892857Y-112369047D01*
X108940476Y-112559523D01*
X109035714Y-112654761D01*
X109130952Y-112702380D01*
X109321428Y-112702380D01*
X108321428Y-112130952D02*
X108416666Y-112083333D01*
X108464285Y-112035714D01*
X108511904Y-111940476D01*
X108511904Y-111892857D01*
X108464285Y-111797619D01*
X108416666Y-111750000D01*
X108321428Y-111702380D01*
X108130952Y-111702380D01*
X108035714Y-111750000D01*
X107988095Y-111797619D01*
X107940476Y-111892857D01*
X107940476Y-111940476D01*
X107988095Y-112035714D01*
X108035714Y-112083333D01*
X108130952Y-112130952D01*
X108321428Y-112130952D01*
X108416666Y-112178571D01*
X108464285Y-112226190D01*
X108511904Y-112321428D01*
X108511904Y-112511904D01*
X108464285Y-112607142D01*
X108416666Y-112654761D01*
X108321428Y-112702380D01*
X108130952Y-112702380D01*
X108035714Y-112654761D01*
X107988095Y-112607142D01*
X107940476Y-112511904D01*
X107940476Y-112321428D01*
X107988095Y-112226190D01*
X108035714Y-112178571D01*
X108130952Y-112130952D01*
%TO.C,R18*%
X164802857Y-131192380D02*
X165136190Y-130716190D01*
X165374285Y-131192380D02*
X165374285Y-130192380D01*
X164993333Y-130192380D01*
X164898095Y-130240000D01*
X164850476Y-130287619D01*
X164802857Y-130382857D01*
X164802857Y-130525714D01*
X164850476Y-130620952D01*
X164898095Y-130668571D01*
X164993333Y-130716190D01*
X165374285Y-130716190D01*
X163850476Y-131192380D02*
X164421904Y-131192380D01*
X164136190Y-131192380D02*
X164136190Y-130192380D01*
X164231428Y-130335238D01*
X164326666Y-130430476D01*
X164421904Y-130478095D01*
X163279047Y-130620952D02*
X163374285Y-130573333D01*
X163421904Y-130525714D01*
X163469523Y-130430476D01*
X163469523Y-130382857D01*
X163421904Y-130287619D01*
X163374285Y-130240000D01*
X163279047Y-130192380D01*
X163088571Y-130192380D01*
X162993333Y-130240000D01*
X162945714Y-130287619D01*
X162898095Y-130382857D01*
X162898095Y-130430476D01*
X162945714Y-130525714D01*
X162993333Y-130573333D01*
X163088571Y-130620952D01*
X163279047Y-130620952D01*
X163374285Y-130668571D01*
X163421904Y-130716190D01*
X163469523Y-130811428D01*
X163469523Y-131001904D01*
X163421904Y-131097142D01*
X163374285Y-131144761D01*
X163279047Y-131192380D01*
X163088571Y-131192380D01*
X162993333Y-131144761D01*
X162945714Y-131097142D01*
X162898095Y-131001904D01*
X162898095Y-130811428D01*
X162945714Y-130716190D01*
X162993333Y-130668571D01*
X163088571Y-130620952D01*
%TO.C,C12*%
X168152857Y-92147142D02*
X168200476Y-92194761D01*
X168343333Y-92242380D01*
X168438571Y-92242380D01*
X168581428Y-92194761D01*
X168676666Y-92099523D01*
X168724285Y-92004285D01*
X168771904Y-91813809D01*
X168771904Y-91670952D01*
X168724285Y-91480476D01*
X168676666Y-91385238D01*
X168581428Y-91290000D01*
X168438571Y-91242380D01*
X168343333Y-91242380D01*
X168200476Y-91290000D01*
X168152857Y-91337619D01*
X167200476Y-92242380D02*
X167771904Y-92242380D01*
X167486190Y-92242380D02*
X167486190Y-91242380D01*
X167581428Y-91385238D01*
X167676666Y-91480476D01*
X167771904Y-91528095D01*
X166819523Y-91337619D02*
X166771904Y-91290000D01*
X166676666Y-91242380D01*
X166438571Y-91242380D01*
X166343333Y-91290000D01*
X166295714Y-91337619D01*
X166248095Y-91432857D01*
X166248095Y-91528095D01*
X166295714Y-91670952D01*
X166867142Y-92242380D01*
X166248095Y-92242380D01*
%TO.C,R2*%
X160366666Y-86252380D02*
X160700000Y-85776190D01*
X160938095Y-86252380D02*
X160938095Y-85252380D01*
X160557142Y-85252380D01*
X160461904Y-85300000D01*
X160414285Y-85347619D01*
X160366666Y-85442857D01*
X160366666Y-85585714D01*
X160414285Y-85680952D01*
X160461904Y-85728571D01*
X160557142Y-85776190D01*
X160938095Y-85776190D01*
X159985714Y-85347619D02*
X159938095Y-85300000D01*
X159842857Y-85252380D01*
X159604761Y-85252380D01*
X159509523Y-85300000D01*
X159461904Y-85347619D01*
X159414285Y-85442857D01*
X159414285Y-85538095D01*
X159461904Y-85680952D01*
X160033333Y-86252380D01*
X159414285Y-86252380D01*
%TO.C,C35*%
X120152857Y-105897142D02*
X120200476Y-105944761D01*
X120343333Y-105992380D01*
X120438571Y-105992380D01*
X120581428Y-105944761D01*
X120676666Y-105849523D01*
X120724285Y-105754285D01*
X120771904Y-105563809D01*
X120771904Y-105420952D01*
X120724285Y-105230476D01*
X120676666Y-105135238D01*
X120581428Y-105040000D01*
X120438571Y-104992380D01*
X120343333Y-104992380D01*
X120200476Y-105040000D01*
X120152857Y-105087619D01*
X119819523Y-104992380D02*
X119200476Y-104992380D01*
X119533809Y-105373333D01*
X119390952Y-105373333D01*
X119295714Y-105420952D01*
X119248095Y-105468571D01*
X119200476Y-105563809D01*
X119200476Y-105801904D01*
X119248095Y-105897142D01*
X119295714Y-105944761D01*
X119390952Y-105992380D01*
X119676666Y-105992380D01*
X119771904Y-105944761D01*
X119819523Y-105897142D01*
X118295714Y-104992380D02*
X118771904Y-104992380D01*
X118819523Y-105468571D01*
X118771904Y-105420952D01*
X118676666Y-105373333D01*
X118438571Y-105373333D01*
X118343333Y-105420952D01*
X118295714Y-105468571D01*
X118248095Y-105563809D01*
X118248095Y-105801904D01*
X118295714Y-105897142D01*
X118343333Y-105944761D01*
X118438571Y-105992380D01*
X118676666Y-105992380D01*
X118771904Y-105944761D01*
X118819523Y-105897142D01*
%TO.C,R8*%
X153576666Y-111404880D02*
X153910000Y-110928690D01*
X154148095Y-111404880D02*
X154148095Y-110404880D01*
X153767142Y-110404880D01*
X153671904Y-110452500D01*
X153624285Y-110500119D01*
X153576666Y-110595357D01*
X153576666Y-110738214D01*
X153624285Y-110833452D01*
X153671904Y-110881071D01*
X153767142Y-110928690D01*
X154148095Y-110928690D01*
X153005238Y-110833452D02*
X153100476Y-110785833D01*
X153148095Y-110738214D01*
X153195714Y-110642976D01*
X153195714Y-110595357D01*
X153148095Y-110500119D01*
X153100476Y-110452500D01*
X153005238Y-110404880D01*
X152814761Y-110404880D01*
X152719523Y-110452500D01*
X152671904Y-110500119D01*
X152624285Y-110595357D01*
X152624285Y-110642976D01*
X152671904Y-110738214D01*
X152719523Y-110785833D01*
X152814761Y-110833452D01*
X153005238Y-110833452D01*
X153100476Y-110881071D01*
X153148095Y-110928690D01*
X153195714Y-111023928D01*
X153195714Y-111214404D01*
X153148095Y-111309642D01*
X153100476Y-111357261D01*
X153005238Y-111404880D01*
X152814761Y-111404880D01*
X152719523Y-111357261D01*
X152671904Y-111309642D01*
X152624285Y-111214404D01*
X152624285Y-111023928D01*
X152671904Y-110928690D01*
X152719523Y-110881071D01*
X152814761Y-110833452D01*
%TO.C,R10*%
X81552857Y-79192380D02*
X81886190Y-78716190D01*
X82124285Y-79192380D02*
X82124285Y-78192380D01*
X81743333Y-78192380D01*
X81648095Y-78240000D01*
X81600476Y-78287619D01*
X81552857Y-78382857D01*
X81552857Y-78525714D01*
X81600476Y-78620952D01*
X81648095Y-78668571D01*
X81743333Y-78716190D01*
X82124285Y-78716190D01*
X80600476Y-79192380D02*
X81171904Y-79192380D01*
X80886190Y-79192380D02*
X80886190Y-78192380D01*
X80981428Y-78335238D01*
X81076666Y-78430476D01*
X81171904Y-78478095D01*
X79981428Y-78192380D02*
X79886190Y-78192380D01*
X79790952Y-78240000D01*
X79743333Y-78287619D01*
X79695714Y-78382857D01*
X79648095Y-78573333D01*
X79648095Y-78811428D01*
X79695714Y-79001904D01*
X79743333Y-79097142D01*
X79790952Y-79144761D01*
X79886190Y-79192380D01*
X79981428Y-79192380D01*
X80076666Y-79144761D01*
X80124285Y-79097142D01*
X80171904Y-79001904D01*
X80219523Y-78811428D01*
X80219523Y-78573333D01*
X80171904Y-78382857D01*
X80124285Y-78287619D01*
X80076666Y-78240000D01*
X79981428Y-78192380D01*
%TO.C,R31*%
X100642857Y-124452380D02*
X100976190Y-123976190D01*
X101214285Y-124452380D02*
X101214285Y-123452380D01*
X100833333Y-123452380D01*
X100738095Y-123500000D01*
X100690476Y-123547619D01*
X100642857Y-123642857D01*
X100642857Y-123785714D01*
X100690476Y-123880952D01*
X100738095Y-123928571D01*
X100833333Y-123976190D01*
X101214285Y-123976190D01*
X100309523Y-123452380D02*
X99690476Y-123452380D01*
X100023809Y-123833333D01*
X99880952Y-123833333D01*
X99785714Y-123880952D01*
X99738095Y-123928571D01*
X99690476Y-124023809D01*
X99690476Y-124261904D01*
X99738095Y-124357142D01*
X99785714Y-124404761D01*
X99880952Y-124452380D01*
X100166666Y-124452380D01*
X100261904Y-124404761D01*
X100309523Y-124357142D01*
X98738095Y-124452380D02*
X99309523Y-124452380D01*
X99023809Y-124452380D02*
X99023809Y-123452380D01*
X99119047Y-123595238D01*
X99214285Y-123690476D01*
X99309523Y-123738095D01*
%TO.C,U4*%
X116521904Y-126742380D02*
X116521904Y-127551904D01*
X116474285Y-127647142D01*
X116426666Y-127694761D01*
X116331428Y-127742380D01*
X116140952Y-127742380D01*
X116045714Y-127694761D01*
X115998095Y-127647142D01*
X115950476Y-127551904D01*
X115950476Y-126742380D01*
X115045714Y-127075714D02*
X115045714Y-127742380D01*
X115283809Y-126694761D02*
X115521904Y-127409047D01*
X114902857Y-127409047D01*
%TO.C,R4*%
X136926666Y-96492380D02*
X137260000Y-96016190D01*
X137498095Y-96492380D02*
X137498095Y-95492380D01*
X137117142Y-95492380D01*
X137021904Y-95540000D01*
X136974285Y-95587619D01*
X136926666Y-95682857D01*
X136926666Y-95825714D01*
X136974285Y-95920952D01*
X137021904Y-95968571D01*
X137117142Y-96016190D01*
X137498095Y-96016190D01*
X136069523Y-95825714D02*
X136069523Y-96492380D01*
X136307619Y-95444761D02*
X136545714Y-96159047D01*
X135926666Y-96159047D01*
%TO.C,D2*%
X117738095Y-86352380D02*
X117738095Y-85352380D01*
X117500000Y-85352380D01*
X117357142Y-85400000D01*
X117261904Y-85495238D01*
X117214285Y-85590476D01*
X117166666Y-85780952D01*
X117166666Y-85923809D01*
X117214285Y-86114285D01*
X117261904Y-86209523D01*
X117357142Y-86304761D01*
X117500000Y-86352380D01*
X117738095Y-86352380D01*
X116785714Y-85447619D02*
X116738095Y-85400000D01*
X116642857Y-85352380D01*
X116404761Y-85352380D01*
X116309523Y-85400000D01*
X116261904Y-85447619D01*
X116214285Y-85542857D01*
X116214285Y-85638095D01*
X116261904Y-85780952D01*
X116833333Y-86352380D01*
X116214285Y-86352380D01*
%TO.C,Q14*%
X109881428Y-125787619D02*
X109976666Y-125740000D01*
X110071904Y-125644761D01*
X110214761Y-125501904D01*
X110310000Y-125454285D01*
X110405238Y-125454285D01*
X110357619Y-125692380D02*
X110452857Y-125644761D01*
X110548095Y-125549523D01*
X110595714Y-125359047D01*
X110595714Y-125025714D01*
X110548095Y-124835238D01*
X110452857Y-124740000D01*
X110357619Y-124692380D01*
X110167142Y-124692380D01*
X110071904Y-124740000D01*
X109976666Y-124835238D01*
X109929047Y-125025714D01*
X109929047Y-125359047D01*
X109976666Y-125549523D01*
X110071904Y-125644761D01*
X110167142Y-125692380D01*
X110357619Y-125692380D01*
X108976666Y-125692380D02*
X109548095Y-125692380D01*
X109262380Y-125692380D02*
X109262380Y-124692380D01*
X109357619Y-124835238D01*
X109452857Y-124930476D01*
X109548095Y-124978095D01*
X108119523Y-125025714D02*
X108119523Y-125692380D01*
X108357619Y-124644761D02*
X108595714Y-125359047D01*
X107976666Y-125359047D01*
%TO.C,R22*%
X165402857Y-137992380D02*
X165736190Y-137516190D01*
X165974285Y-137992380D02*
X165974285Y-136992380D01*
X165593333Y-136992380D01*
X165498095Y-137040000D01*
X165450476Y-137087619D01*
X165402857Y-137182857D01*
X165402857Y-137325714D01*
X165450476Y-137420952D01*
X165498095Y-137468571D01*
X165593333Y-137516190D01*
X165974285Y-137516190D01*
X165021904Y-137087619D02*
X164974285Y-137040000D01*
X164879047Y-136992380D01*
X164640952Y-136992380D01*
X164545714Y-137040000D01*
X164498095Y-137087619D01*
X164450476Y-137182857D01*
X164450476Y-137278095D01*
X164498095Y-137420952D01*
X165069523Y-137992380D01*
X164450476Y-137992380D01*
X164069523Y-137087619D02*
X164021904Y-137040000D01*
X163926666Y-136992380D01*
X163688571Y-136992380D01*
X163593333Y-137040000D01*
X163545714Y-137087619D01*
X163498095Y-137182857D01*
X163498095Y-137278095D01*
X163545714Y-137420952D01*
X164117142Y-137992380D01*
X163498095Y-137992380D01*
%TO.C,BT1*%
X160795714Y-118218571D02*
X160652857Y-118266190D01*
X160605238Y-118313809D01*
X160557619Y-118409047D01*
X160557619Y-118551904D01*
X160605238Y-118647142D01*
X160652857Y-118694761D01*
X160748095Y-118742380D01*
X161129047Y-118742380D01*
X161129047Y-117742380D01*
X160795714Y-117742380D01*
X160700476Y-117790000D01*
X160652857Y-117837619D01*
X160605238Y-117932857D01*
X160605238Y-118028095D01*
X160652857Y-118123333D01*
X160700476Y-118170952D01*
X160795714Y-118218571D01*
X161129047Y-118218571D01*
X160271904Y-117742380D02*
X159700476Y-117742380D01*
X159986190Y-118742380D02*
X159986190Y-117742380D01*
X158843333Y-118742380D02*
X159414761Y-118742380D01*
X159129047Y-118742380D02*
X159129047Y-117742380D01*
X159224285Y-117885238D01*
X159319523Y-117980476D01*
X159414761Y-118028095D01*
%TO.C,C33*%
X174392857Y-112857142D02*
X174440476Y-112904761D01*
X174583333Y-112952380D01*
X174678571Y-112952380D01*
X174821428Y-112904761D01*
X174916666Y-112809523D01*
X174964285Y-112714285D01*
X175011904Y-112523809D01*
X175011904Y-112380952D01*
X174964285Y-112190476D01*
X174916666Y-112095238D01*
X174821428Y-112000000D01*
X174678571Y-111952380D01*
X174583333Y-111952380D01*
X174440476Y-112000000D01*
X174392857Y-112047619D01*
X174059523Y-111952380D02*
X173440476Y-111952380D01*
X173773809Y-112333333D01*
X173630952Y-112333333D01*
X173535714Y-112380952D01*
X173488095Y-112428571D01*
X173440476Y-112523809D01*
X173440476Y-112761904D01*
X173488095Y-112857142D01*
X173535714Y-112904761D01*
X173630952Y-112952380D01*
X173916666Y-112952380D01*
X174011904Y-112904761D01*
X174059523Y-112857142D01*
X173107142Y-111952380D02*
X172488095Y-111952380D01*
X172821428Y-112333333D01*
X172678571Y-112333333D01*
X172583333Y-112380952D01*
X172535714Y-112428571D01*
X172488095Y-112523809D01*
X172488095Y-112761904D01*
X172535714Y-112857142D01*
X172583333Y-112904761D01*
X172678571Y-112952380D01*
X172964285Y-112952380D01*
X173059523Y-112904761D01*
X173107142Y-112857142D01*
%TO.C,C37*%
X122652857Y-108397142D02*
X122700476Y-108444761D01*
X122843333Y-108492380D01*
X122938571Y-108492380D01*
X123081428Y-108444761D01*
X123176666Y-108349523D01*
X123224285Y-108254285D01*
X123271904Y-108063809D01*
X123271904Y-107920952D01*
X123224285Y-107730476D01*
X123176666Y-107635238D01*
X123081428Y-107540000D01*
X122938571Y-107492380D01*
X122843333Y-107492380D01*
X122700476Y-107540000D01*
X122652857Y-107587619D01*
X122319523Y-107492380D02*
X121700476Y-107492380D01*
X122033809Y-107873333D01*
X121890952Y-107873333D01*
X121795714Y-107920952D01*
X121748095Y-107968571D01*
X121700476Y-108063809D01*
X121700476Y-108301904D01*
X121748095Y-108397142D01*
X121795714Y-108444761D01*
X121890952Y-108492380D01*
X122176666Y-108492380D01*
X122271904Y-108444761D01*
X122319523Y-108397142D01*
X121367142Y-107492380D02*
X120700476Y-107492380D01*
X121129047Y-108492380D01*
%TO.C,C36*%
X120152857Y-111397142D02*
X120200476Y-111444761D01*
X120343333Y-111492380D01*
X120438571Y-111492380D01*
X120581428Y-111444761D01*
X120676666Y-111349523D01*
X120724285Y-111254285D01*
X120771904Y-111063809D01*
X120771904Y-110920952D01*
X120724285Y-110730476D01*
X120676666Y-110635238D01*
X120581428Y-110540000D01*
X120438571Y-110492380D01*
X120343333Y-110492380D01*
X120200476Y-110540000D01*
X120152857Y-110587619D01*
X119819523Y-110492380D02*
X119200476Y-110492380D01*
X119533809Y-110873333D01*
X119390952Y-110873333D01*
X119295714Y-110920952D01*
X119248095Y-110968571D01*
X119200476Y-111063809D01*
X119200476Y-111301904D01*
X119248095Y-111397142D01*
X119295714Y-111444761D01*
X119390952Y-111492380D01*
X119676666Y-111492380D01*
X119771904Y-111444761D01*
X119819523Y-111397142D01*
X118343333Y-110492380D02*
X118533809Y-110492380D01*
X118629047Y-110540000D01*
X118676666Y-110587619D01*
X118771904Y-110730476D01*
X118819523Y-110920952D01*
X118819523Y-111301904D01*
X118771904Y-111397142D01*
X118724285Y-111444761D01*
X118629047Y-111492380D01*
X118438571Y-111492380D01*
X118343333Y-111444761D01*
X118295714Y-111397142D01*
X118248095Y-111301904D01*
X118248095Y-111063809D01*
X118295714Y-110968571D01*
X118343333Y-110920952D01*
X118438571Y-110873333D01*
X118629047Y-110873333D01*
X118724285Y-110920952D01*
X118771904Y-110968571D01*
X118819523Y-111063809D01*
D11*
%TO.C,R14*%
X98737064Y-100305000D02*
X98282936Y-100305000D01*
X98737064Y-101775000D02*
X98282936Y-101775000D01*
%TO.C,Q6*%
X162820000Y-134290000D02*
X162820000Y-133640000D01*
X159700000Y-134290000D02*
X159700000Y-133640000D01*
X162820000Y-134290000D02*
X162820000Y-135965000D01*
X159700000Y-134290000D02*
X159700000Y-134940000D01*
%TO.C,R27*%
X112735000Y-115227064D02*
X112735000Y-114772936D01*
X111265000Y-115227064D02*
X111265000Y-114772936D01*
%TO.C,Q3*%
X143010000Y-97600000D02*
X143660000Y-97600000D01*
X143010000Y-94480000D02*
X143660000Y-94480000D01*
X143010000Y-97600000D02*
X141335000Y-97600000D01*
X143010000Y-94480000D02*
X142360000Y-94480000D01*
%TO.C,C16*%
X149500000Y-108430580D02*
X149500000Y-108149420D01*
X150520000Y-108430580D02*
X150520000Y-108149420D01*
%TO.C,R11*%
X76237064Y-82450000D02*
X74782936Y-82450000D01*
X76237064Y-80630000D02*
X74782936Y-80630000D01*
%TO.C,Q11*%
X100910000Y-131800000D02*
X101560000Y-131800000D01*
X100910000Y-128680000D02*
X101560000Y-128680000D01*
X100910000Y-131800000D02*
X99235000Y-131800000D01*
X100910000Y-128680000D02*
X100260000Y-128680000D01*
%TO.C,D1*%
X122200000Y-85050000D02*
X127600000Y-85050000D01*
X122200000Y-81750000D02*
X127600000Y-81750000D01*
X122200000Y-85050000D02*
X122200000Y-81750000D01*
%TO.C,R15*%
X163070436Y-112675000D02*
X163524564Y-112675000D01*
X163070436Y-111205000D02*
X163524564Y-111205000D01*
%TO.C,R30*%
X96737064Y-130705000D02*
X96282936Y-130705000D01*
X96737064Y-132175000D02*
X96282936Y-132175000D01*
%TO.C,R7*%
X153532936Y-84275000D02*
X153987064Y-84275000D01*
X153532936Y-82805000D02*
X153987064Y-82805000D01*
%TO.C,C32*%
X166020000Y-82109420D02*
X166020000Y-82390580D01*
X165000000Y-82109420D02*
X165000000Y-82390580D01*
%TO.C,Q9*%
X98070000Y-127440000D02*
X98070000Y-126790000D01*
X94950000Y-127440000D02*
X94950000Y-126790000D01*
X98070000Y-127440000D02*
X98070000Y-129115000D01*
X94950000Y-127440000D02*
X94950000Y-128090000D01*
%TO.C,R12*%
X70774564Y-82450000D02*
X69320436Y-82450000D01*
X70774564Y-80630000D02*
X69320436Y-80630000D01*
%TO.C,Q12*%
X140760000Y-132230000D02*
X140110000Y-132230000D01*
X140760000Y-135350000D02*
X140110000Y-135350000D01*
X140760000Y-132230000D02*
X142435000Y-132230000D01*
X140760000Y-135350000D02*
X141410000Y-135350000D01*
%TO.C,C7*%
X156400580Y-86800000D02*
X156119420Y-86800000D01*
X156400580Y-85780000D02*
X156119420Y-85780000D01*
%TO.C,U1*%
X156260000Y-91400000D02*
X157760000Y-91400000D01*
X156260000Y-88180000D02*
X159185000Y-88180000D01*
X156260000Y-91400000D02*
X154760000Y-91400000D01*
X156260000Y-88180000D02*
X154760000Y-88180000D01*
%TO.C,C5*%
X146890000Y-84940580D02*
X146890000Y-84659420D01*
X147910000Y-84940580D02*
X147910000Y-84659420D01*
%TO.C,R3*%
X161865000Y-82772936D02*
X161865000Y-83227064D01*
X163335000Y-82772936D02*
X163335000Y-83227064D01*
%TO.C,C39*%
X155500000Y-135180580D02*
X155500000Y-134899420D01*
X156520000Y-135180580D02*
X156520000Y-134899420D01*
%TO.C,U6*%
X118260000Y-131590000D02*
X118060000Y-131590000D01*
X118060000Y-131590000D02*
X118060000Y-128990000D01*
X120460000Y-128990000D02*
X120460000Y-131590000D01*
X118160000Y-128990000D02*
X118160000Y-128590000D01*
X120460000Y-131590000D02*
X120260000Y-131590000D01*
X118060000Y-128990000D02*
X118160000Y-128990000D01*
X120460000Y-128990000D02*
X120260000Y-128990000D01*
%TO.C,U5*%
X110760000Y-131590000D02*
X110560000Y-131590000D01*
X110560000Y-131590000D02*
X110560000Y-128990000D01*
X112960000Y-128990000D02*
X112960000Y-131590000D01*
X110660000Y-128990000D02*
X110660000Y-128590000D01*
X112960000Y-131590000D02*
X112760000Y-131590000D01*
X110560000Y-128990000D02*
X110660000Y-128990000D01*
X112960000Y-128990000D02*
X112760000Y-128990000D01*
%TO.C,R34*%
X144995000Y-134017064D02*
X144995000Y-133562936D01*
X143525000Y-134017064D02*
X143525000Y-133562936D01*
%TO.C,R9*%
X147930000Y-106120000D02*
X147930000Y-109960000D01*
X146090000Y-106120000D02*
X146090000Y-109960000D01*
%TO.C,R13*%
X65237064Y-82450000D02*
X63782936Y-82450000D01*
X65237064Y-80630000D02*
X63782936Y-80630000D01*
%TO.C,V1*%
X58910000Y-118340000D02*
X58910000Y-83540000D01*
X55510000Y-135290000D02*
X84510000Y-135290000D01*
X81110000Y-131540000D02*
X81110000Y-118340000D01*
X81110000Y-118340000D02*
X58910000Y-118340000D01*
X55510000Y-79790000D02*
X55510000Y-135290000D01*
X58910000Y-131540000D02*
X81110000Y-131540000D01*
X84510000Y-79790000D02*
X55510000Y-79790000D01*
X81110000Y-118340000D02*
X81110000Y-83540000D01*
X84510000Y-135290000D02*
X84510000Y-79790000D01*
X81110000Y-83540000D02*
X58910000Y-83540000D01*
X58910000Y-118340000D02*
X58910000Y-131540000D01*
%TO.C,C22*%
X153221252Y-99930000D02*
X151798748Y-99930000D01*
X153221252Y-102650000D02*
X151798748Y-102650000D01*
%TO.C,C38*%
X98669420Y-135130000D02*
X98950580Y-135130000D01*
X98669420Y-136150000D02*
X98950580Y-136150000D01*
%TO.C,C6*%
X142890000Y-84940580D02*
X142890000Y-84659420D01*
X143910000Y-84940580D02*
X143910000Y-84659420D01*
%TO.C,JP1*%
X92400000Y-86000000D02*
X92400000Y-84000000D01*
X89600000Y-86000000D02*
X92400000Y-86000000D01*
X89600000Y-84000000D02*
X89600000Y-86000000D01*
X92400000Y-84000000D02*
X89600000Y-84000000D01*
%TO.C,R19*%
X164027064Y-77305000D02*
X163572936Y-77305000D01*
X164027064Y-78775000D02*
X163572936Y-78775000D01*
%TO.C,Q8*%
X108500000Y-113440000D02*
X107850000Y-113440000D01*
X108500000Y-116560000D02*
X107850000Y-116560000D01*
X108500000Y-113440000D02*
X110175000Y-113440000D01*
X108500000Y-116560000D02*
X109150000Y-116560000D01*
%TO.C,R18*%
X161995000Y-130767064D02*
X161995000Y-130312936D01*
X160525000Y-130767064D02*
X160525000Y-130312936D01*
%TO.C,C12*%
X168870000Y-95751252D02*
X168870000Y-94328748D01*
X166150000Y-95751252D02*
X166150000Y-94328748D01*
%TO.C,R2*%
X159465000Y-82772936D02*
X159465000Y-83227064D01*
X160935000Y-82772936D02*
X160935000Y-83227064D01*
%TO.C,C35*%
X117520000Y-105399420D02*
X117520000Y-105680580D01*
X116500000Y-105399420D02*
X116500000Y-105680580D01*
%TO.C,R8*%
X152275000Y-108062936D02*
X152275000Y-108517064D01*
X153745000Y-108062936D02*
X153745000Y-108517064D01*
%TO.C,R10*%
X81737064Y-82450000D02*
X80282936Y-82450000D01*
X81737064Y-80630000D02*
X80282936Y-80630000D01*
%TO.C,R31*%
X101227064Y-125065000D02*
X100772936Y-125065000D01*
X101227064Y-126535000D02*
X100772936Y-126535000D01*
%TO.C,U4*%
X114760000Y-131590000D02*
X114560000Y-131590000D01*
X114560000Y-131590000D02*
X114560000Y-128990000D01*
X116960000Y-128990000D02*
X116960000Y-131590000D01*
X114660000Y-128990000D02*
X114660000Y-128590000D01*
X116960000Y-131590000D02*
X116760000Y-131590000D01*
X114560000Y-128990000D02*
X114660000Y-128990000D01*
X116960000Y-128990000D02*
X116760000Y-128990000D01*
%TO.C,R4*%
X138275000Y-95812936D02*
X138275000Y-96267064D01*
X139745000Y-95812936D02*
X139745000Y-96267064D01*
%TO.C,D2*%
X113600000Y-85050000D02*
X119000000Y-85050000D01*
X113600000Y-81750000D02*
X119000000Y-81750000D01*
X113600000Y-85050000D02*
X113600000Y-81750000D01*
%TO.C,Q14*%
X105710000Y-126600000D02*
X106360000Y-126600000D01*
X105710000Y-123480000D02*
X106360000Y-123480000D01*
X105710000Y-126600000D02*
X104035000Y-126600000D01*
X105710000Y-123480000D02*
X105060000Y-123480000D01*
%TO.C,R22*%
X161487064Y-136805000D02*
X161032936Y-136805000D01*
X161487064Y-138275000D02*
X161032936Y-138275000D01*
%TO.C,C33*%
X176520000Y-112399420D02*
X176520000Y-112680580D01*
X175500000Y-112399420D02*
X175500000Y-112680580D01*
%TO.C,C37*%
X124000000Y-108180580D02*
X124000000Y-107899420D01*
X125020000Y-108180580D02*
X125020000Y-107899420D01*
%TO.C,C36*%
X116500000Y-111180580D02*
X116500000Y-110899420D01*
X117520000Y-111180580D02*
X117520000Y-110899420D01*
%TD*%
M02*
