%TF.GenerationSoftware,KiCad,Pcbnew,6.0.10-86aedd382b~118~ubuntu22.04.1*%
%TF.CreationDate,2023-01-15T12:46:15+03:00*%
%TF.ProjectId,xray,78726179-2e6b-4696-9361-645f70636258,rev?*%
%TF.SameCoordinates,Original*%
%TF.FileFunction,Legend,Top*%
%TF.FilePolarity,Positive*%
%FSLAX46Y46*%
G04 Gerber Fmt 4.6, Leading zero omitted, Abs format (unit mm)*
G04 Created by KiCad (PCBNEW 6.0.10-86aedd382b~118~ubuntu22.04.1) date 2023-01-15 12:46:15*
%MOMM*%
%LPD*%
G01*
G04 APERTURE LIST*
%ADD10C,0.150000*%
%ADD11C,0.120000*%
G04 APERTURE END LIST*
D10*
X99857142Y-99252380D02*
X99857142Y-98252380D01*
X100095238Y-98252380D01*
X100238095Y-98300000D01*
X100333333Y-98395238D01*
X100380952Y-98490476D01*
X100428571Y-98680952D01*
X100428571Y-98823809D01*
X100380952Y-99014285D01*
X100333333Y-99109523D01*
X100238095Y-99204761D01*
X100095238Y-99252380D01*
X99857142Y-99252380D01*
X100761904Y-98252380D02*
X101380952Y-98252380D01*
X101047619Y-98633333D01*
X101190476Y-98633333D01*
X101285714Y-98680952D01*
X101333333Y-98728571D01*
X101380952Y-98823809D01*
X101380952Y-99061904D01*
X101333333Y-99157142D01*
X101285714Y-99204761D01*
X101190476Y-99252380D01*
X100904761Y-99252380D01*
X100809523Y-99204761D01*
X100761904Y-99157142D01*
X102571428Y-98585714D02*
X102571428Y-99585714D01*
X102571428Y-98633333D02*
X102666666Y-98585714D01*
X102857142Y-98585714D01*
X102952380Y-98633333D01*
X103000000Y-98680952D01*
X103047619Y-98776190D01*
X103047619Y-99061904D01*
X103000000Y-99157142D01*
X102952380Y-99204761D01*
X102857142Y-99252380D01*
X102666666Y-99252380D01*
X102571428Y-99204761D01*
X103619047Y-99252380D02*
X103523809Y-99204761D01*
X103476190Y-99109523D01*
X103476190Y-98252380D01*
X104428571Y-99252380D02*
X104428571Y-98728571D01*
X104380952Y-98633333D01*
X104285714Y-98585714D01*
X104095238Y-98585714D01*
X104000000Y-98633333D01*
X104428571Y-99204761D02*
X104333333Y-99252380D01*
X104095238Y-99252380D01*
X104000000Y-99204761D01*
X103952380Y-99109523D01*
X103952380Y-99014285D01*
X104000000Y-98919047D01*
X104095238Y-98871428D01*
X104333333Y-98871428D01*
X104428571Y-98823809D01*
X105333333Y-99204761D02*
X105238095Y-99252380D01*
X105047619Y-99252380D01*
X104952380Y-99204761D01*
X104904761Y-99157142D01*
X104857142Y-99061904D01*
X104857142Y-98776190D01*
X104904761Y-98680952D01*
X104952380Y-98633333D01*
X105047619Y-98585714D01*
X105238095Y-98585714D01*
X105333333Y-98633333D01*
X106142857Y-99204761D02*
X106047619Y-99252380D01*
X105857142Y-99252380D01*
X105761904Y-99204761D01*
X105714285Y-99109523D01*
X105714285Y-98728571D01*
X105761904Y-98633333D01*
X105857142Y-98585714D01*
X106047619Y-98585714D01*
X106142857Y-98633333D01*
X106190476Y-98728571D01*
X106190476Y-98823809D01*
X105714285Y-98919047D01*
X94400000Y-93600000D02*
X111200000Y-93600000D01*
X111200000Y-93600000D02*
X111200000Y-103600000D01*
X111200000Y-103600000D02*
X94400000Y-103600000D01*
X94400000Y-103600000D02*
X94400000Y-93600000D01*
X144760000Y-107790000D02*
G75*
G03*
X144760000Y-107790000I-7500000J0D01*
G01*
X112510000Y-133790000D02*
X112510000Y-133040000D01*
X165619772Y-135040000D02*
G75*
G03*
X165619772Y-135040000I-4609772J0D01*
G01*
X98400001Y-76600000D02*
G75*
G03*
X102399999Y-76600000I1999999J-466368D01*
G01*
X112510000Y-133040000D02*
X114260000Y-133040000D01*
X101900000Y-75821320D02*
G75*
G03*
X98900000Y-75821320I-1500000J-1500001D01*
G01*
X114260000Y-133040000D02*
X114260000Y-133790000D01*
X60129047Y-101361428D02*
X60890952Y-101361428D01*
X60510000Y-101742380D02*
X60510000Y-100980476D01*
X60129047Y-110361428D02*
X60890952Y-110361428D01*
X130129047Y-139111428D02*
X130890952Y-139111428D01*
X60129047Y-105861428D02*
X60890952Y-105861428D01*
X105485714Y-75492380D02*
X105485714Y-76301904D01*
X105533333Y-76397142D01*
X105580952Y-76444761D01*
X105676190Y-76492380D01*
X105866666Y-76492380D01*
X105961904Y-76444761D01*
X106009523Y-76397142D01*
X106057142Y-76301904D01*
X106057142Y-75492380D01*
X106390476Y-75492380D02*
X106723809Y-76492380D01*
X107057142Y-75492380D01*
X76140952Y-102361428D02*
X75379047Y-102361428D01*
X65129047Y-88111428D02*
X65890952Y-88111428D01*
X65510000Y-88492380D02*
X65510000Y-87730476D01*
X134238095Y-107639761D02*
X134380952Y-107687380D01*
X134619047Y-107687380D01*
X134714285Y-107639761D01*
X134761904Y-107592142D01*
X134809523Y-107496904D01*
X134809523Y-107401666D01*
X134761904Y-107306428D01*
X134714285Y-107258809D01*
X134619047Y-107211190D01*
X134428571Y-107163571D01*
X134333333Y-107115952D01*
X134285714Y-107068333D01*
X134238095Y-106973095D01*
X134238095Y-106877857D01*
X134285714Y-106782619D01*
X134333333Y-106735000D01*
X134428571Y-106687380D01*
X134666666Y-106687380D01*
X134809523Y-106735000D01*
X135238095Y-107020714D02*
X135238095Y-108020714D01*
X135238095Y-107068333D02*
X135333333Y-107020714D01*
X135523809Y-107020714D01*
X135619047Y-107068333D01*
X135666666Y-107115952D01*
X135714285Y-107211190D01*
X135714285Y-107496904D01*
X135666666Y-107592142D01*
X135619047Y-107639761D01*
X135523809Y-107687380D01*
X135333333Y-107687380D01*
X135238095Y-107639761D01*
X136523809Y-107639761D02*
X136428571Y-107687380D01*
X136238095Y-107687380D01*
X136142857Y-107639761D01*
X136095238Y-107544523D01*
X136095238Y-107163571D01*
X136142857Y-107068333D01*
X136238095Y-107020714D01*
X136428571Y-107020714D01*
X136523809Y-107068333D01*
X136571428Y-107163571D01*
X136571428Y-107258809D01*
X136095238Y-107354047D01*
X137428571Y-107687380D02*
X137428571Y-107163571D01*
X137380952Y-107068333D01*
X137285714Y-107020714D01*
X137095238Y-107020714D01*
X137000000Y-107068333D01*
X137428571Y-107639761D02*
X137333333Y-107687380D01*
X137095238Y-107687380D01*
X137000000Y-107639761D01*
X136952380Y-107544523D01*
X136952380Y-107449285D01*
X137000000Y-107354047D01*
X137095238Y-107306428D01*
X137333333Y-107306428D01*
X137428571Y-107258809D01*
X137904761Y-107687380D02*
X137904761Y-106687380D01*
X138000000Y-107306428D02*
X138285714Y-107687380D01*
X138285714Y-107020714D02*
X137904761Y-107401666D01*
X139095238Y-107639761D02*
X139000000Y-107687380D01*
X138809523Y-107687380D01*
X138714285Y-107639761D01*
X138666666Y-107544523D01*
X138666666Y-107163571D01*
X138714285Y-107068333D01*
X138809523Y-107020714D01*
X139000000Y-107020714D01*
X139095238Y-107068333D01*
X139142857Y-107163571D01*
X139142857Y-107258809D01*
X138666666Y-107354047D01*
X139571428Y-107687380D02*
X139571428Y-107020714D01*
X139571428Y-107211190D02*
X139619047Y-107115952D01*
X139666666Y-107068333D01*
X139761904Y-107020714D01*
X139857142Y-107020714D01*
X136357142Y-109297380D02*
X135880952Y-109297380D01*
X135880952Y-108297380D01*
X136642857Y-109249761D02*
X136785714Y-109297380D01*
X137023809Y-109297380D01*
X137119047Y-109249761D01*
X137166666Y-109202142D01*
X137214285Y-109106904D01*
X137214285Y-109011666D01*
X137166666Y-108916428D01*
X137119047Y-108868809D01*
X137023809Y-108821190D01*
X136833333Y-108773571D01*
X136738095Y-108725952D01*
X136690476Y-108678333D01*
X136642857Y-108583095D01*
X136642857Y-108487857D01*
X136690476Y-108392619D01*
X136738095Y-108345000D01*
X136833333Y-108297380D01*
X137071428Y-108297380D01*
X137214285Y-108345000D01*
X138166666Y-109297380D02*
X137595238Y-109297380D01*
X137880952Y-109297380D02*
X137880952Y-108297380D01*
X137785714Y-108440238D01*
X137690476Y-108535476D01*
X137595238Y-108583095D01*
X155379047Y-137611428D02*
X156140952Y-137611428D01*
X159224285Y-133687380D02*
X159557619Y-134687380D01*
X159890952Y-133687380D01*
X160224285Y-134687380D02*
X160224285Y-134020714D01*
X160224285Y-133687380D02*
X160176666Y-133735000D01*
X160224285Y-133782619D01*
X160271904Y-133735000D01*
X160224285Y-133687380D01*
X160224285Y-133782619D01*
X160700476Y-134687380D02*
X160700476Y-133687380D01*
X160700476Y-134068333D02*
X160795714Y-134020714D01*
X160986190Y-134020714D01*
X161081428Y-134068333D01*
X161129047Y-134115952D01*
X161176666Y-134211190D01*
X161176666Y-134496904D01*
X161129047Y-134592142D01*
X161081428Y-134639761D01*
X160986190Y-134687380D01*
X160795714Y-134687380D01*
X160700476Y-134639761D01*
X161605238Y-134687380D02*
X161605238Y-134020714D01*
X161605238Y-134211190D02*
X161652857Y-134115952D01*
X161700476Y-134068333D01*
X161795714Y-134020714D01*
X161890952Y-134020714D01*
X162367142Y-134687380D02*
X162271904Y-134639761D01*
X162224285Y-134592142D01*
X162176666Y-134496904D01*
X162176666Y-134211190D01*
X162224285Y-134115952D01*
X162271904Y-134068333D01*
X162367142Y-134020714D01*
X162510000Y-134020714D01*
X162605238Y-134068333D01*
X162652857Y-134115952D01*
X162700476Y-134211190D01*
X162700476Y-134496904D01*
X162652857Y-134592142D01*
X162605238Y-134639761D01*
X162510000Y-134687380D01*
X162367142Y-134687380D01*
X160200476Y-136297380D02*
X160200476Y-135297380D01*
X160533809Y-136011666D01*
X160867142Y-135297380D01*
X160867142Y-136297380D01*
X161867142Y-136297380D02*
X161295714Y-136297380D01*
X161581428Y-136297380D02*
X161581428Y-135297380D01*
X161486190Y-135440238D01*
X161390952Y-135535476D01*
X161295714Y-135583095D01*
X155379047Y-132611428D02*
X156140952Y-132611428D01*
X155760000Y-132992380D02*
X155760000Y-132230476D01*
X60379047Y-114861428D02*
X61140952Y-114861428D01*
X60760000Y-115242380D02*
X60760000Y-114480476D01*
X134879047Y-139111428D02*
X135640952Y-139111428D01*
X135260000Y-139492380D02*
X135260000Y-138730476D01*
%TO.C,C2*%
X169343333Y-138897142D02*
X169295714Y-138944761D01*
X169152857Y-138992380D01*
X169057619Y-138992380D01*
X168914761Y-138944761D01*
X168819523Y-138849523D01*
X168771904Y-138754285D01*
X168724285Y-138563809D01*
X168724285Y-138420952D01*
X168771904Y-138230476D01*
X168819523Y-138135238D01*
X168914761Y-138040000D01*
X169057619Y-137992380D01*
X169152857Y-137992380D01*
X169295714Y-138040000D01*
X169343333Y-138087619D01*
X169724285Y-138087619D02*
X169771904Y-138040000D01*
X169867142Y-137992380D01*
X170105238Y-137992380D01*
X170200476Y-138040000D01*
X170248095Y-138087619D01*
X170295714Y-138182857D01*
X170295714Y-138278095D01*
X170248095Y-138420952D01*
X169676666Y-138992380D01*
X170295714Y-138992380D01*
%TO.C,C31*%
X126107142Y-129857142D02*
X126059523Y-129904761D01*
X125916666Y-129952380D01*
X125821428Y-129952380D01*
X125678571Y-129904761D01*
X125583333Y-129809523D01*
X125535714Y-129714285D01*
X125488095Y-129523809D01*
X125488095Y-129380952D01*
X125535714Y-129190476D01*
X125583333Y-129095238D01*
X125678571Y-129000000D01*
X125821428Y-128952380D01*
X125916666Y-128952380D01*
X126059523Y-129000000D01*
X126107142Y-129047619D01*
X126440476Y-128952380D02*
X127059523Y-128952380D01*
X126726190Y-129333333D01*
X126869047Y-129333333D01*
X126964285Y-129380952D01*
X127011904Y-129428571D01*
X127059523Y-129523809D01*
X127059523Y-129761904D01*
X127011904Y-129857142D01*
X126964285Y-129904761D01*
X126869047Y-129952380D01*
X126583333Y-129952380D01*
X126488095Y-129904761D01*
X126440476Y-129857142D01*
X128011904Y-129952380D02*
X127440476Y-129952380D01*
X127726190Y-129952380D02*
X127726190Y-128952380D01*
X127630952Y-129095238D01*
X127535714Y-129190476D01*
X127440476Y-129238095D01*
%TO.C,R23*%
X103617142Y-120492380D02*
X103283809Y-120016190D01*
X103045714Y-120492380D02*
X103045714Y-119492380D01*
X103426666Y-119492380D01*
X103521904Y-119540000D01*
X103569523Y-119587619D01*
X103617142Y-119682857D01*
X103617142Y-119825714D01*
X103569523Y-119920952D01*
X103521904Y-119968571D01*
X103426666Y-120016190D01*
X103045714Y-120016190D01*
X103998095Y-119587619D02*
X104045714Y-119540000D01*
X104140952Y-119492380D01*
X104379047Y-119492380D01*
X104474285Y-119540000D01*
X104521904Y-119587619D01*
X104569523Y-119682857D01*
X104569523Y-119778095D01*
X104521904Y-119920952D01*
X103950476Y-120492380D01*
X104569523Y-120492380D01*
X104902857Y-119492380D02*
X105521904Y-119492380D01*
X105188571Y-119873333D01*
X105331428Y-119873333D01*
X105426666Y-119920952D01*
X105474285Y-119968571D01*
X105521904Y-120063809D01*
X105521904Y-120301904D01*
X105474285Y-120397142D01*
X105426666Y-120444761D01*
X105331428Y-120492380D01*
X105045714Y-120492380D01*
X104950476Y-120444761D01*
X104902857Y-120397142D01*
%TO.C,U2*%
X170038095Y-98452380D02*
X170038095Y-99261904D01*
X170085714Y-99357142D01*
X170133333Y-99404761D01*
X170228571Y-99452380D01*
X170419047Y-99452380D01*
X170514285Y-99404761D01*
X170561904Y-99357142D01*
X170609523Y-99261904D01*
X170609523Y-98452380D01*
X171038095Y-98547619D02*
X171085714Y-98500000D01*
X171180952Y-98452380D01*
X171419047Y-98452380D01*
X171514285Y-98500000D01*
X171561904Y-98547619D01*
X171609523Y-98642857D01*
X171609523Y-98738095D01*
X171561904Y-98880952D01*
X170990476Y-99452380D01*
X171609523Y-99452380D01*
%TO.C,C13*%
X166867142Y-92147142D02*
X166819523Y-92194761D01*
X166676666Y-92242380D01*
X166581428Y-92242380D01*
X166438571Y-92194761D01*
X166343333Y-92099523D01*
X166295714Y-92004285D01*
X166248095Y-91813809D01*
X166248095Y-91670952D01*
X166295714Y-91480476D01*
X166343333Y-91385238D01*
X166438571Y-91290000D01*
X166581428Y-91242380D01*
X166676666Y-91242380D01*
X166819523Y-91290000D01*
X166867142Y-91337619D01*
X167819523Y-92242380D02*
X167248095Y-92242380D01*
X167533809Y-92242380D02*
X167533809Y-91242380D01*
X167438571Y-91385238D01*
X167343333Y-91480476D01*
X167248095Y-91528095D01*
X168152857Y-91242380D02*
X168771904Y-91242380D01*
X168438571Y-91623333D01*
X168581428Y-91623333D01*
X168676666Y-91670952D01*
X168724285Y-91718571D01*
X168771904Y-91813809D01*
X168771904Y-92051904D01*
X168724285Y-92147142D01*
X168676666Y-92194761D01*
X168581428Y-92242380D01*
X168295714Y-92242380D01*
X168200476Y-92194761D01*
X168152857Y-92147142D01*
%TO.C,C23*%
X155367142Y-129147142D02*
X155319523Y-129194761D01*
X155176666Y-129242380D01*
X155081428Y-129242380D01*
X154938571Y-129194761D01*
X154843333Y-129099523D01*
X154795714Y-129004285D01*
X154748095Y-128813809D01*
X154748095Y-128670952D01*
X154795714Y-128480476D01*
X154843333Y-128385238D01*
X154938571Y-128290000D01*
X155081428Y-128242380D01*
X155176666Y-128242380D01*
X155319523Y-128290000D01*
X155367142Y-128337619D01*
X155748095Y-128337619D02*
X155795714Y-128290000D01*
X155890952Y-128242380D01*
X156129047Y-128242380D01*
X156224285Y-128290000D01*
X156271904Y-128337619D01*
X156319523Y-128432857D01*
X156319523Y-128528095D01*
X156271904Y-128670952D01*
X155700476Y-129242380D01*
X156319523Y-129242380D01*
X156652857Y-128242380D02*
X157271904Y-128242380D01*
X156938571Y-128623333D01*
X157081428Y-128623333D01*
X157176666Y-128670952D01*
X157224285Y-128718571D01*
X157271904Y-128813809D01*
X157271904Y-129051904D01*
X157224285Y-129147142D01*
X157176666Y-129194761D01*
X157081428Y-129242380D01*
X156795714Y-129242380D01*
X156700476Y-129194761D01*
X156652857Y-129147142D01*
%TO.C,R25*%
X105617142Y-113092380D02*
X105283809Y-112616190D01*
X105045714Y-113092380D02*
X105045714Y-112092380D01*
X105426666Y-112092380D01*
X105521904Y-112140000D01*
X105569523Y-112187619D01*
X105617142Y-112282857D01*
X105617142Y-112425714D01*
X105569523Y-112520952D01*
X105521904Y-112568571D01*
X105426666Y-112616190D01*
X105045714Y-112616190D01*
X105998095Y-112187619D02*
X106045714Y-112140000D01*
X106140952Y-112092380D01*
X106379047Y-112092380D01*
X106474285Y-112140000D01*
X106521904Y-112187619D01*
X106569523Y-112282857D01*
X106569523Y-112378095D01*
X106521904Y-112520952D01*
X105950476Y-113092380D01*
X106569523Y-113092380D01*
X107474285Y-112092380D02*
X106998095Y-112092380D01*
X106950476Y-112568571D01*
X106998095Y-112520952D01*
X107093333Y-112473333D01*
X107331428Y-112473333D01*
X107426666Y-112520952D01*
X107474285Y-112568571D01*
X107521904Y-112663809D01*
X107521904Y-112901904D01*
X107474285Y-112997142D01*
X107426666Y-113044761D01*
X107331428Y-113092380D01*
X107093333Y-113092380D01*
X106998095Y-113044761D01*
X106950476Y-112997142D01*
%TO.C,C26*%
X158357142Y-82357142D02*
X158309523Y-82404761D01*
X158166666Y-82452380D01*
X158071428Y-82452380D01*
X157928571Y-82404761D01*
X157833333Y-82309523D01*
X157785714Y-82214285D01*
X157738095Y-82023809D01*
X157738095Y-81880952D01*
X157785714Y-81690476D01*
X157833333Y-81595238D01*
X157928571Y-81500000D01*
X158071428Y-81452380D01*
X158166666Y-81452380D01*
X158309523Y-81500000D01*
X158357142Y-81547619D01*
X158738095Y-81547619D02*
X158785714Y-81500000D01*
X158880952Y-81452380D01*
X159119047Y-81452380D01*
X159214285Y-81500000D01*
X159261904Y-81547619D01*
X159309523Y-81642857D01*
X159309523Y-81738095D01*
X159261904Y-81880952D01*
X158690476Y-82452380D01*
X159309523Y-82452380D01*
X160166666Y-81452380D02*
X159976190Y-81452380D01*
X159880952Y-81500000D01*
X159833333Y-81547619D01*
X159738095Y-81690476D01*
X159690476Y-81880952D01*
X159690476Y-82261904D01*
X159738095Y-82357142D01*
X159785714Y-82404761D01*
X159880952Y-82452380D01*
X160071428Y-82452380D01*
X160166666Y-82404761D01*
X160214285Y-82357142D01*
X160261904Y-82261904D01*
X160261904Y-82023809D01*
X160214285Y-81928571D01*
X160166666Y-81880952D01*
X160071428Y-81833333D01*
X159880952Y-81833333D01*
X159785714Y-81880952D01*
X159738095Y-81928571D01*
X159690476Y-82023809D01*
%TO.C,R6*%
X164833333Y-83052380D02*
X164500000Y-82576190D01*
X164261904Y-83052380D02*
X164261904Y-82052380D01*
X164642857Y-82052380D01*
X164738095Y-82100000D01*
X164785714Y-82147619D01*
X164833333Y-82242857D01*
X164833333Y-82385714D01*
X164785714Y-82480952D01*
X164738095Y-82528571D01*
X164642857Y-82576190D01*
X164261904Y-82576190D01*
X165690476Y-82052380D02*
X165500000Y-82052380D01*
X165404761Y-82100000D01*
X165357142Y-82147619D01*
X165261904Y-82290476D01*
X165214285Y-82480952D01*
X165214285Y-82861904D01*
X165261904Y-82957142D01*
X165309523Y-83004761D01*
X165404761Y-83052380D01*
X165595238Y-83052380D01*
X165690476Y-83004761D01*
X165738095Y-82957142D01*
X165785714Y-82861904D01*
X165785714Y-82623809D01*
X165738095Y-82528571D01*
X165690476Y-82480952D01*
X165595238Y-82433333D01*
X165404761Y-82433333D01*
X165309523Y-82480952D01*
X165261904Y-82528571D01*
X165214285Y-82623809D01*
%TO.C,Q13*%
X144428571Y-135047619D02*
X144333333Y-135000000D01*
X144238095Y-134904761D01*
X144095238Y-134761904D01*
X144000000Y-134714285D01*
X143904761Y-134714285D01*
X143952380Y-134952380D02*
X143857142Y-134904761D01*
X143761904Y-134809523D01*
X143714285Y-134619047D01*
X143714285Y-134285714D01*
X143761904Y-134095238D01*
X143857142Y-134000000D01*
X143952380Y-133952380D01*
X144142857Y-133952380D01*
X144238095Y-134000000D01*
X144333333Y-134095238D01*
X144380952Y-134285714D01*
X144380952Y-134619047D01*
X144333333Y-134809523D01*
X144238095Y-134904761D01*
X144142857Y-134952380D01*
X143952380Y-134952380D01*
X145333333Y-134952380D02*
X144761904Y-134952380D01*
X145047619Y-134952380D02*
X145047619Y-133952380D01*
X144952380Y-134095238D01*
X144857142Y-134190476D01*
X144761904Y-134238095D01*
X145666666Y-133952380D02*
X146285714Y-133952380D01*
X145952380Y-134333333D01*
X146095238Y-134333333D01*
X146190476Y-134380952D01*
X146238095Y-134428571D01*
X146285714Y-134523809D01*
X146285714Y-134761904D01*
X146238095Y-134857142D01*
X146190476Y-134904761D01*
X146095238Y-134952380D01*
X145809523Y-134952380D01*
X145714285Y-134904761D01*
X145666666Y-134857142D01*
%TO.C,Q2*%
X183904761Y-110087619D02*
X183809523Y-110040000D01*
X183714285Y-109944761D01*
X183571428Y-109801904D01*
X183476190Y-109754285D01*
X183380952Y-109754285D01*
X183428571Y-109992380D02*
X183333333Y-109944761D01*
X183238095Y-109849523D01*
X183190476Y-109659047D01*
X183190476Y-109325714D01*
X183238095Y-109135238D01*
X183333333Y-109040000D01*
X183428571Y-108992380D01*
X183619047Y-108992380D01*
X183714285Y-109040000D01*
X183809523Y-109135238D01*
X183857142Y-109325714D01*
X183857142Y-109659047D01*
X183809523Y-109849523D01*
X183714285Y-109944761D01*
X183619047Y-109992380D01*
X183428571Y-109992380D01*
X184238095Y-109087619D02*
X184285714Y-109040000D01*
X184380952Y-108992380D01*
X184619047Y-108992380D01*
X184714285Y-109040000D01*
X184761904Y-109087619D01*
X184809523Y-109182857D01*
X184809523Y-109278095D01*
X184761904Y-109420952D01*
X184190476Y-109992380D01*
X184809523Y-109992380D01*
%TO.C,C29*%
X174607142Y-117607142D02*
X174559523Y-117654761D01*
X174416666Y-117702380D01*
X174321428Y-117702380D01*
X174178571Y-117654761D01*
X174083333Y-117559523D01*
X174035714Y-117464285D01*
X173988095Y-117273809D01*
X173988095Y-117130952D01*
X174035714Y-116940476D01*
X174083333Y-116845238D01*
X174178571Y-116750000D01*
X174321428Y-116702380D01*
X174416666Y-116702380D01*
X174559523Y-116750000D01*
X174607142Y-116797619D01*
X174988095Y-116797619D02*
X175035714Y-116750000D01*
X175130952Y-116702380D01*
X175369047Y-116702380D01*
X175464285Y-116750000D01*
X175511904Y-116797619D01*
X175559523Y-116892857D01*
X175559523Y-116988095D01*
X175511904Y-117130952D01*
X174940476Y-117702380D01*
X175559523Y-117702380D01*
X176035714Y-117702380D02*
X176226190Y-117702380D01*
X176321428Y-117654761D01*
X176369047Y-117607142D01*
X176464285Y-117464285D01*
X176511904Y-117273809D01*
X176511904Y-116892857D01*
X176464285Y-116797619D01*
X176416666Y-116750000D01*
X176321428Y-116702380D01*
X176130952Y-116702380D01*
X176035714Y-116750000D01*
X175988095Y-116797619D01*
X175940476Y-116892857D01*
X175940476Y-117130952D01*
X175988095Y-117226190D01*
X176035714Y-117273809D01*
X176130952Y-117321428D01*
X176321428Y-117321428D01*
X176416666Y-117273809D01*
X176464285Y-117226190D01*
X176511904Y-117130952D01*
%TO.C,R1*%
X153433333Y-84652380D02*
X153100000Y-84176190D01*
X152861904Y-84652380D02*
X152861904Y-83652380D01*
X153242857Y-83652380D01*
X153338095Y-83700000D01*
X153385714Y-83747619D01*
X153433333Y-83842857D01*
X153433333Y-83985714D01*
X153385714Y-84080952D01*
X153338095Y-84128571D01*
X153242857Y-84176190D01*
X152861904Y-84176190D01*
X154385714Y-84652380D02*
X153814285Y-84652380D01*
X154100000Y-84652380D02*
X154100000Y-83652380D01*
X154004761Y-83795238D01*
X153909523Y-83890476D01*
X153814285Y-83938095D01*
%TO.C,JP2*%
X122176666Y-122017380D02*
X122176666Y-122731666D01*
X122129047Y-122874523D01*
X122033809Y-122969761D01*
X121890952Y-123017380D01*
X121795714Y-123017380D01*
X122652857Y-123017380D02*
X122652857Y-122017380D01*
X123033809Y-122017380D01*
X123129047Y-122065000D01*
X123176666Y-122112619D01*
X123224285Y-122207857D01*
X123224285Y-122350714D01*
X123176666Y-122445952D01*
X123129047Y-122493571D01*
X123033809Y-122541190D01*
X122652857Y-122541190D01*
X123605238Y-122112619D02*
X123652857Y-122065000D01*
X123748095Y-122017380D01*
X123986190Y-122017380D01*
X124081428Y-122065000D01*
X124129047Y-122112619D01*
X124176666Y-122207857D01*
X124176666Y-122303095D01*
X124129047Y-122445952D01*
X123557619Y-123017380D01*
X124176666Y-123017380D01*
%TO.C,C15*%
X162857142Y-114357142D02*
X162809523Y-114404761D01*
X162666666Y-114452380D01*
X162571428Y-114452380D01*
X162428571Y-114404761D01*
X162333333Y-114309523D01*
X162285714Y-114214285D01*
X162238095Y-114023809D01*
X162238095Y-113880952D01*
X162285714Y-113690476D01*
X162333333Y-113595238D01*
X162428571Y-113500000D01*
X162571428Y-113452380D01*
X162666666Y-113452380D01*
X162809523Y-113500000D01*
X162857142Y-113547619D01*
X163809523Y-114452380D02*
X163238095Y-114452380D01*
X163523809Y-114452380D02*
X163523809Y-113452380D01*
X163428571Y-113595238D01*
X163333333Y-113690476D01*
X163238095Y-113738095D01*
X164714285Y-113452380D02*
X164238095Y-113452380D01*
X164190476Y-113928571D01*
X164238095Y-113880952D01*
X164333333Y-113833333D01*
X164571428Y-113833333D01*
X164666666Y-113880952D01*
X164714285Y-113928571D01*
X164761904Y-114023809D01*
X164761904Y-114261904D01*
X164714285Y-114357142D01*
X164666666Y-114404761D01*
X164571428Y-114452380D01*
X164333333Y-114452380D01*
X164238095Y-114404761D01*
X164190476Y-114357142D01*
%TO.C,C14*%
X155367142Y-124397142D02*
X155319523Y-124444761D01*
X155176666Y-124492380D01*
X155081428Y-124492380D01*
X154938571Y-124444761D01*
X154843333Y-124349523D01*
X154795714Y-124254285D01*
X154748095Y-124063809D01*
X154748095Y-123920952D01*
X154795714Y-123730476D01*
X154843333Y-123635238D01*
X154938571Y-123540000D01*
X155081428Y-123492380D01*
X155176666Y-123492380D01*
X155319523Y-123540000D01*
X155367142Y-123587619D01*
X156319523Y-124492380D02*
X155748095Y-124492380D01*
X156033809Y-124492380D02*
X156033809Y-123492380D01*
X155938571Y-123635238D01*
X155843333Y-123730476D01*
X155748095Y-123778095D01*
X157176666Y-123825714D02*
X157176666Y-124492380D01*
X156938571Y-123444761D02*
X156700476Y-124159047D01*
X157319523Y-124159047D01*
%TO.C,C19*%
X155367142Y-108397142D02*
X155319523Y-108444761D01*
X155176666Y-108492380D01*
X155081428Y-108492380D01*
X154938571Y-108444761D01*
X154843333Y-108349523D01*
X154795714Y-108254285D01*
X154748095Y-108063809D01*
X154748095Y-107920952D01*
X154795714Y-107730476D01*
X154843333Y-107635238D01*
X154938571Y-107540000D01*
X155081428Y-107492380D01*
X155176666Y-107492380D01*
X155319523Y-107540000D01*
X155367142Y-107587619D01*
X156319523Y-108492380D02*
X155748095Y-108492380D01*
X156033809Y-108492380D02*
X156033809Y-107492380D01*
X155938571Y-107635238D01*
X155843333Y-107730476D01*
X155748095Y-107778095D01*
X156795714Y-108492380D02*
X156986190Y-108492380D01*
X157081428Y-108444761D01*
X157129047Y-108397142D01*
X157224285Y-108254285D01*
X157271904Y-108063809D01*
X157271904Y-107682857D01*
X157224285Y-107587619D01*
X157176666Y-107540000D01*
X157081428Y-107492380D01*
X156890952Y-107492380D01*
X156795714Y-107540000D01*
X156748095Y-107587619D01*
X156700476Y-107682857D01*
X156700476Y-107920952D01*
X156748095Y-108016190D01*
X156795714Y-108063809D01*
X156890952Y-108111428D01*
X157081428Y-108111428D01*
X157176666Y-108063809D01*
X157224285Y-108016190D01*
X157271904Y-107920952D01*
%TO.C,C18*%
X163867142Y-107897142D02*
X163819523Y-107944761D01*
X163676666Y-107992380D01*
X163581428Y-107992380D01*
X163438571Y-107944761D01*
X163343333Y-107849523D01*
X163295714Y-107754285D01*
X163248095Y-107563809D01*
X163248095Y-107420952D01*
X163295714Y-107230476D01*
X163343333Y-107135238D01*
X163438571Y-107040000D01*
X163581428Y-106992380D01*
X163676666Y-106992380D01*
X163819523Y-107040000D01*
X163867142Y-107087619D01*
X164819523Y-107992380D02*
X164248095Y-107992380D01*
X164533809Y-107992380D02*
X164533809Y-106992380D01*
X164438571Y-107135238D01*
X164343333Y-107230476D01*
X164248095Y-107278095D01*
X165390952Y-107420952D02*
X165295714Y-107373333D01*
X165248095Y-107325714D01*
X165200476Y-107230476D01*
X165200476Y-107182857D01*
X165248095Y-107087619D01*
X165295714Y-107040000D01*
X165390952Y-106992380D01*
X165581428Y-106992380D01*
X165676666Y-107040000D01*
X165724285Y-107087619D01*
X165771904Y-107182857D01*
X165771904Y-107230476D01*
X165724285Y-107325714D01*
X165676666Y-107373333D01*
X165581428Y-107420952D01*
X165390952Y-107420952D01*
X165295714Y-107468571D01*
X165248095Y-107516190D01*
X165200476Y-107611428D01*
X165200476Y-107801904D01*
X165248095Y-107897142D01*
X165295714Y-107944761D01*
X165390952Y-107992380D01*
X165581428Y-107992380D01*
X165676666Y-107944761D01*
X165724285Y-107897142D01*
X165771904Y-107801904D01*
X165771904Y-107611428D01*
X165724285Y-107516190D01*
X165676666Y-107468571D01*
X165581428Y-107420952D01*
%TO.C,C21*%
X147867142Y-97897142D02*
X147819523Y-97944761D01*
X147676666Y-97992380D01*
X147581428Y-97992380D01*
X147438571Y-97944761D01*
X147343333Y-97849523D01*
X147295714Y-97754285D01*
X147248095Y-97563809D01*
X147248095Y-97420952D01*
X147295714Y-97230476D01*
X147343333Y-97135238D01*
X147438571Y-97040000D01*
X147581428Y-96992380D01*
X147676666Y-96992380D01*
X147819523Y-97040000D01*
X147867142Y-97087619D01*
X148248095Y-97087619D02*
X148295714Y-97040000D01*
X148390952Y-96992380D01*
X148629047Y-96992380D01*
X148724285Y-97040000D01*
X148771904Y-97087619D01*
X148819523Y-97182857D01*
X148819523Y-97278095D01*
X148771904Y-97420952D01*
X148200476Y-97992380D01*
X148819523Y-97992380D01*
X149771904Y-97992380D02*
X149200476Y-97992380D01*
X149486190Y-97992380D02*
X149486190Y-96992380D01*
X149390952Y-97135238D01*
X149295714Y-97230476D01*
X149200476Y-97278095D01*
%TO.C,J4*%
X113176666Y-130992380D02*
X113176666Y-131706666D01*
X113129047Y-131849523D01*
X113033809Y-131944761D01*
X112890952Y-131992380D01*
X112795714Y-131992380D01*
X114081428Y-131325714D02*
X114081428Y-131992380D01*
X113843333Y-130944761D02*
X113605238Y-131659047D01*
X114224285Y-131659047D01*
%TO.C,C9*%
X115783333Y-94757142D02*
X115735714Y-94804761D01*
X115592857Y-94852380D01*
X115497619Y-94852380D01*
X115354761Y-94804761D01*
X115259523Y-94709523D01*
X115211904Y-94614285D01*
X115164285Y-94423809D01*
X115164285Y-94280952D01*
X115211904Y-94090476D01*
X115259523Y-93995238D01*
X115354761Y-93900000D01*
X115497619Y-93852380D01*
X115592857Y-93852380D01*
X115735714Y-93900000D01*
X115783333Y-93947619D01*
X116259523Y-94852380D02*
X116450000Y-94852380D01*
X116545238Y-94804761D01*
X116592857Y-94757142D01*
X116688095Y-94614285D01*
X116735714Y-94423809D01*
X116735714Y-94042857D01*
X116688095Y-93947619D01*
X116640476Y-93900000D01*
X116545238Y-93852380D01*
X116354761Y-93852380D01*
X116259523Y-93900000D01*
X116211904Y-93947619D01*
X116164285Y-94042857D01*
X116164285Y-94280952D01*
X116211904Y-94376190D01*
X116259523Y-94423809D01*
X116354761Y-94471428D01*
X116545238Y-94471428D01*
X116640476Y-94423809D01*
X116688095Y-94376190D01*
X116735714Y-94280952D01*
%TO.C,Q1*%
X168164761Y-124837619D02*
X168069523Y-124790000D01*
X167974285Y-124694761D01*
X167831428Y-124551904D01*
X167736190Y-124504285D01*
X167640952Y-124504285D01*
X167688571Y-124742380D02*
X167593333Y-124694761D01*
X167498095Y-124599523D01*
X167450476Y-124409047D01*
X167450476Y-124075714D01*
X167498095Y-123885238D01*
X167593333Y-123790000D01*
X167688571Y-123742380D01*
X167879047Y-123742380D01*
X167974285Y-123790000D01*
X168069523Y-123885238D01*
X168117142Y-124075714D01*
X168117142Y-124409047D01*
X168069523Y-124599523D01*
X167974285Y-124694761D01*
X167879047Y-124742380D01*
X167688571Y-124742380D01*
X169069523Y-124742380D02*
X168498095Y-124742380D01*
X168783809Y-124742380D02*
X168783809Y-123742380D01*
X168688571Y-123885238D01*
X168593333Y-123980476D01*
X168498095Y-124028095D01*
%TO.C,C17*%
X138867142Y-120397142D02*
X138819523Y-120444761D01*
X138676666Y-120492380D01*
X138581428Y-120492380D01*
X138438571Y-120444761D01*
X138343333Y-120349523D01*
X138295714Y-120254285D01*
X138248095Y-120063809D01*
X138248095Y-119920952D01*
X138295714Y-119730476D01*
X138343333Y-119635238D01*
X138438571Y-119540000D01*
X138581428Y-119492380D01*
X138676666Y-119492380D01*
X138819523Y-119540000D01*
X138867142Y-119587619D01*
X139819523Y-120492380D02*
X139248095Y-120492380D01*
X139533809Y-120492380D02*
X139533809Y-119492380D01*
X139438571Y-119635238D01*
X139343333Y-119730476D01*
X139248095Y-119778095D01*
X140152857Y-119492380D02*
X140819523Y-119492380D01*
X140390952Y-120492380D01*
%TO.C,C11*%
X106357142Y-93157142D02*
X106309523Y-93204761D01*
X106166666Y-93252380D01*
X106071428Y-93252380D01*
X105928571Y-93204761D01*
X105833333Y-93109523D01*
X105785714Y-93014285D01*
X105738095Y-92823809D01*
X105738095Y-92680952D01*
X105785714Y-92490476D01*
X105833333Y-92395238D01*
X105928571Y-92300000D01*
X106071428Y-92252380D01*
X106166666Y-92252380D01*
X106309523Y-92300000D01*
X106357142Y-92347619D01*
X107309523Y-93252380D02*
X106738095Y-93252380D01*
X107023809Y-93252380D02*
X107023809Y-92252380D01*
X106928571Y-92395238D01*
X106833333Y-92490476D01*
X106738095Y-92538095D01*
X108261904Y-93252380D02*
X107690476Y-93252380D01*
X107976190Y-93252380D02*
X107976190Y-92252380D01*
X107880952Y-92395238D01*
X107785714Y-92490476D01*
X107690476Y-92538095D01*
%TO.C,R29*%
X82267142Y-117292380D02*
X81933809Y-116816190D01*
X81695714Y-117292380D02*
X81695714Y-116292380D01*
X82076666Y-116292380D01*
X82171904Y-116340000D01*
X82219523Y-116387619D01*
X82267142Y-116482857D01*
X82267142Y-116625714D01*
X82219523Y-116720952D01*
X82171904Y-116768571D01*
X82076666Y-116816190D01*
X81695714Y-116816190D01*
X82648095Y-116387619D02*
X82695714Y-116340000D01*
X82790952Y-116292380D01*
X83029047Y-116292380D01*
X83124285Y-116340000D01*
X83171904Y-116387619D01*
X83219523Y-116482857D01*
X83219523Y-116578095D01*
X83171904Y-116720952D01*
X82600476Y-117292380D01*
X83219523Y-117292380D01*
X83695714Y-117292380D02*
X83886190Y-117292380D01*
X83981428Y-117244761D01*
X84029047Y-117197142D01*
X84124285Y-117054285D01*
X84171904Y-116863809D01*
X84171904Y-116482857D01*
X84124285Y-116387619D01*
X84076666Y-116340000D01*
X83981428Y-116292380D01*
X83790952Y-116292380D01*
X83695714Y-116340000D01*
X83648095Y-116387619D01*
X83600476Y-116482857D01*
X83600476Y-116720952D01*
X83648095Y-116816190D01*
X83695714Y-116863809D01*
X83790952Y-116911428D01*
X83981428Y-116911428D01*
X84076666Y-116863809D01*
X84124285Y-116816190D01*
X84171904Y-116720952D01*
%TO.C,M1*%
X152700476Y-135492380D02*
X152700476Y-134492380D01*
X153033809Y-135206666D01*
X153367142Y-134492380D01*
X153367142Y-135492380D01*
X154367142Y-135492380D02*
X153795714Y-135492380D01*
X154081428Y-135492380D02*
X154081428Y-134492380D01*
X153986190Y-134635238D01*
X153890952Y-134730476D01*
X153795714Y-134778095D01*
%TO.C,R5*%
X181343333Y-118142380D02*
X181010000Y-117666190D01*
X180771904Y-118142380D02*
X180771904Y-117142380D01*
X181152857Y-117142380D01*
X181248095Y-117190000D01*
X181295714Y-117237619D01*
X181343333Y-117332857D01*
X181343333Y-117475714D01*
X181295714Y-117570952D01*
X181248095Y-117618571D01*
X181152857Y-117666190D01*
X180771904Y-117666190D01*
X182248095Y-117142380D02*
X181771904Y-117142380D01*
X181724285Y-117618571D01*
X181771904Y-117570952D01*
X181867142Y-117523333D01*
X182105238Y-117523333D01*
X182200476Y-117570952D01*
X182248095Y-117618571D01*
X182295714Y-117713809D01*
X182295714Y-117951904D01*
X182248095Y-118047142D01*
X182200476Y-118094761D01*
X182105238Y-118142380D01*
X181867142Y-118142380D01*
X181771904Y-118094761D01*
X181724285Y-118047142D01*
%TO.C,U7*%
X73838095Y-105852380D02*
X73838095Y-106661904D01*
X73885714Y-106757142D01*
X73933333Y-106804761D01*
X74028571Y-106852380D01*
X74219047Y-106852380D01*
X74314285Y-106804761D01*
X74361904Y-106757142D01*
X74409523Y-106661904D01*
X74409523Y-105852380D01*
X74790476Y-105852380D02*
X75457142Y-105852380D01*
X75028571Y-106852380D01*
%TO.C,R26*%
X82267142Y-113252380D02*
X81933809Y-112776190D01*
X81695714Y-113252380D02*
X81695714Y-112252380D01*
X82076666Y-112252380D01*
X82171904Y-112300000D01*
X82219523Y-112347619D01*
X82267142Y-112442857D01*
X82267142Y-112585714D01*
X82219523Y-112680952D01*
X82171904Y-112728571D01*
X82076666Y-112776190D01*
X81695714Y-112776190D01*
X82648095Y-112347619D02*
X82695714Y-112300000D01*
X82790952Y-112252380D01*
X83029047Y-112252380D01*
X83124285Y-112300000D01*
X83171904Y-112347619D01*
X83219523Y-112442857D01*
X83219523Y-112538095D01*
X83171904Y-112680952D01*
X82600476Y-113252380D01*
X83219523Y-113252380D01*
X84076666Y-112252380D02*
X83886190Y-112252380D01*
X83790952Y-112300000D01*
X83743333Y-112347619D01*
X83648095Y-112490476D01*
X83600476Y-112680952D01*
X83600476Y-113061904D01*
X83648095Y-113157142D01*
X83695714Y-113204761D01*
X83790952Y-113252380D01*
X83981428Y-113252380D01*
X84076666Y-113204761D01*
X84124285Y-113157142D01*
X84171904Y-113061904D01*
X84171904Y-112823809D01*
X84124285Y-112728571D01*
X84076666Y-112680952D01*
X83981428Y-112633333D01*
X83790952Y-112633333D01*
X83695714Y-112680952D01*
X83648095Y-112728571D01*
X83600476Y-112823809D01*
%TO.C,SW1*%
X119426666Y-99694761D02*
X119569523Y-99742380D01*
X119807619Y-99742380D01*
X119902857Y-99694761D01*
X119950476Y-99647142D01*
X119998095Y-99551904D01*
X119998095Y-99456666D01*
X119950476Y-99361428D01*
X119902857Y-99313809D01*
X119807619Y-99266190D01*
X119617142Y-99218571D01*
X119521904Y-99170952D01*
X119474285Y-99123333D01*
X119426666Y-99028095D01*
X119426666Y-98932857D01*
X119474285Y-98837619D01*
X119521904Y-98790000D01*
X119617142Y-98742380D01*
X119855238Y-98742380D01*
X119998095Y-98790000D01*
X120331428Y-98742380D02*
X120569523Y-99742380D01*
X120760000Y-99028095D01*
X120950476Y-99742380D01*
X121188571Y-98742380D01*
X122093333Y-99742380D02*
X121521904Y-99742380D01*
X121807619Y-99742380D02*
X121807619Y-98742380D01*
X121712380Y-98885238D01*
X121617142Y-98980476D01*
X121521904Y-99028095D01*
%TO.C,C28*%
X147867142Y-115327142D02*
X147819523Y-115374761D01*
X147676666Y-115422380D01*
X147581428Y-115422380D01*
X147438571Y-115374761D01*
X147343333Y-115279523D01*
X147295714Y-115184285D01*
X147248095Y-114993809D01*
X147248095Y-114850952D01*
X147295714Y-114660476D01*
X147343333Y-114565238D01*
X147438571Y-114470000D01*
X147581428Y-114422380D01*
X147676666Y-114422380D01*
X147819523Y-114470000D01*
X147867142Y-114517619D01*
X148248095Y-114517619D02*
X148295714Y-114470000D01*
X148390952Y-114422380D01*
X148629047Y-114422380D01*
X148724285Y-114470000D01*
X148771904Y-114517619D01*
X148819523Y-114612857D01*
X148819523Y-114708095D01*
X148771904Y-114850952D01*
X148200476Y-115422380D01*
X148819523Y-115422380D01*
X149390952Y-114850952D02*
X149295714Y-114803333D01*
X149248095Y-114755714D01*
X149200476Y-114660476D01*
X149200476Y-114612857D01*
X149248095Y-114517619D01*
X149295714Y-114470000D01*
X149390952Y-114422380D01*
X149581428Y-114422380D01*
X149676666Y-114470000D01*
X149724285Y-114517619D01*
X149771904Y-114612857D01*
X149771904Y-114660476D01*
X149724285Y-114755714D01*
X149676666Y-114803333D01*
X149581428Y-114850952D01*
X149390952Y-114850952D01*
X149295714Y-114898571D01*
X149248095Y-114946190D01*
X149200476Y-115041428D01*
X149200476Y-115231904D01*
X149248095Y-115327142D01*
X149295714Y-115374761D01*
X149390952Y-115422380D01*
X149581428Y-115422380D01*
X149676666Y-115374761D01*
X149724285Y-115327142D01*
X149771904Y-115231904D01*
X149771904Y-115041428D01*
X149724285Y-114946190D01*
X149676666Y-114898571D01*
X149581428Y-114850952D01*
%TO.C,U3*%
X141748095Y-117792380D02*
X141748095Y-118601904D01*
X141795714Y-118697142D01*
X141843333Y-118744761D01*
X141938571Y-118792380D01*
X142129047Y-118792380D01*
X142224285Y-118744761D01*
X142271904Y-118697142D01*
X142319523Y-118601904D01*
X142319523Y-117792380D01*
X142700476Y-117792380D02*
X143319523Y-117792380D01*
X142986190Y-118173333D01*
X143129047Y-118173333D01*
X143224285Y-118220952D01*
X143271904Y-118268571D01*
X143319523Y-118363809D01*
X143319523Y-118601904D01*
X143271904Y-118697142D01*
X143224285Y-118744761D01*
X143129047Y-118792380D01*
X142843333Y-118792380D01*
X142748095Y-118744761D01*
X142700476Y-118697142D01*
%TO.C,LS1*%
X132217142Y-134992380D02*
X131740952Y-134992380D01*
X131740952Y-133992380D01*
X132502857Y-134944761D02*
X132645714Y-134992380D01*
X132883809Y-134992380D01*
X132979047Y-134944761D01*
X133026666Y-134897142D01*
X133074285Y-134801904D01*
X133074285Y-134706666D01*
X133026666Y-134611428D01*
X132979047Y-134563809D01*
X132883809Y-134516190D01*
X132693333Y-134468571D01*
X132598095Y-134420952D01*
X132550476Y-134373333D01*
X132502857Y-134278095D01*
X132502857Y-134182857D01*
X132550476Y-134087619D01*
X132598095Y-134040000D01*
X132693333Y-133992380D01*
X132931428Y-133992380D01*
X133074285Y-134040000D01*
X134026666Y-134992380D02*
X133455238Y-134992380D01*
X133740952Y-134992380D02*
X133740952Y-133992380D01*
X133645714Y-134135238D01*
X133550476Y-134230476D01*
X133455238Y-134278095D01*
%TO.C,J1*%
X176426666Y-98742380D02*
X176426666Y-99456666D01*
X176379047Y-99599523D01*
X176283809Y-99694761D01*
X176140952Y-99742380D01*
X176045714Y-99742380D01*
X177426666Y-99742380D02*
X176855238Y-99742380D01*
X177140952Y-99742380D02*
X177140952Y-98742380D01*
X177045714Y-98885238D01*
X176950476Y-98980476D01*
X176855238Y-99028095D01*
%TO.C,R20*%
X152117142Y-112342380D02*
X151783809Y-111866190D01*
X151545714Y-112342380D02*
X151545714Y-111342380D01*
X151926666Y-111342380D01*
X152021904Y-111390000D01*
X152069523Y-111437619D01*
X152117142Y-111532857D01*
X152117142Y-111675714D01*
X152069523Y-111770952D01*
X152021904Y-111818571D01*
X151926666Y-111866190D01*
X151545714Y-111866190D01*
X152498095Y-111437619D02*
X152545714Y-111390000D01*
X152640952Y-111342380D01*
X152879047Y-111342380D01*
X152974285Y-111390000D01*
X153021904Y-111437619D01*
X153069523Y-111532857D01*
X153069523Y-111628095D01*
X153021904Y-111770952D01*
X152450476Y-112342380D01*
X153069523Y-112342380D01*
X153688571Y-111342380D02*
X153783809Y-111342380D01*
X153879047Y-111390000D01*
X153926666Y-111437619D01*
X153974285Y-111532857D01*
X154021904Y-111723333D01*
X154021904Y-111961428D01*
X153974285Y-112151904D01*
X153926666Y-112247142D01*
X153879047Y-112294761D01*
X153783809Y-112342380D01*
X153688571Y-112342380D01*
X153593333Y-112294761D01*
X153545714Y-112247142D01*
X153498095Y-112151904D01*
X153450476Y-111961428D01*
X153450476Y-111723333D01*
X153498095Y-111532857D01*
X153545714Y-111437619D01*
X153593333Y-111390000D01*
X153688571Y-111342380D01*
%TO.C,TP1*%
X122748095Y-133492380D02*
X123319523Y-133492380D01*
X123033809Y-134492380D02*
X123033809Y-133492380D01*
X123652857Y-134492380D02*
X123652857Y-133492380D01*
X124033809Y-133492380D01*
X124129047Y-133540000D01*
X124176666Y-133587619D01*
X124224285Y-133682857D01*
X124224285Y-133825714D01*
X124176666Y-133920952D01*
X124129047Y-133968571D01*
X124033809Y-134016190D01*
X123652857Y-134016190D01*
X125176666Y-134492380D02*
X124605238Y-134492380D01*
X124890952Y-134492380D02*
X124890952Y-133492380D01*
X124795714Y-133635238D01*
X124700476Y-133730476D01*
X124605238Y-133778095D01*
%TO.C,C8*%
X126283333Y-94757142D02*
X126235714Y-94804761D01*
X126092857Y-94852380D01*
X125997619Y-94852380D01*
X125854761Y-94804761D01*
X125759523Y-94709523D01*
X125711904Y-94614285D01*
X125664285Y-94423809D01*
X125664285Y-94280952D01*
X125711904Y-94090476D01*
X125759523Y-93995238D01*
X125854761Y-93900000D01*
X125997619Y-93852380D01*
X126092857Y-93852380D01*
X126235714Y-93900000D01*
X126283333Y-93947619D01*
X126854761Y-94280952D02*
X126759523Y-94233333D01*
X126711904Y-94185714D01*
X126664285Y-94090476D01*
X126664285Y-94042857D01*
X126711904Y-93947619D01*
X126759523Y-93900000D01*
X126854761Y-93852380D01*
X127045238Y-93852380D01*
X127140476Y-93900000D01*
X127188095Y-93947619D01*
X127235714Y-94042857D01*
X127235714Y-94090476D01*
X127188095Y-94185714D01*
X127140476Y-94233333D01*
X127045238Y-94280952D01*
X126854761Y-94280952D01*
X126759523Y-94328571D01*
X126711904Y-94376190D01*
X126664285Y-94471428D01*
X126664285Y-94661904D01*
X126711904Y-94757142D01*
X126759523Y-94804761D01*
X126854761Y-94852380D01*
X127045238Y-94852380D01*
X127140476Y-94804761D01*
X127188095Y-94757142D01*
X127235714Y-94661904D01*
X127235714Y-94471428D01*
X127188095Y-94376190D01*
X127140476Y-94328571D01*
X127045238Y-94280952D01*
%TO.C,D4*%
X60261904Y-103852380D02*
X60261904Y-102852380D01*
X60500000Y-102852380D01*
X60642857Y-102900000D01*
X60738095Y-102995238D01*
X60785714Y-103090476D01*
X60833333Y-103280952D01*
X60833333Y-103423809D01*
X60785714Y-103614285D01*
X60738095Y-103709523D01*
X60642857Y-103804761D01*
X60500000Y-103852380D01*
X60261904Y-103852380D01*
X61690476Y-103185714D02*
X61690476Y-103852380D01*
X61452380Y-102804761D02*
X61214285Y-103519047D01*
X61833333Y-103519047D01*
%TO.C,C3*%
X173093333Y-91647142D02*
X173045714Y-91694761D01*
X172902857Y-91742380D01*
X172807619Y-91742380D01*
X172664761Y-91694761D01*
X172569523Y-91599523D01*
X172521904Y-91504285D01*
X172474285Y-91313809D01*
X172474285Y-91170952D01*
X172521904Y-90980476D01*
X172569523Y-90885238D01*
X172664761Y-90790000D01*
X172807619Y-90742380D01*
X172902857Y-90742380D01*
X173045714Y-90790000D01*
X173093333Y-90837619D01*
X173426666Y-90742380D02*
X174045714Y-90742380D01*
X173712380Y-91123333D01*
X173855238Y-91123333D01*
X173950476Y-91170952D01*
X173998095Y-91218571D01*
X174045714Y-91313809D01*
X174045714Y-91551904D01*
X173998095Y-91647142D01*
X173950476Y-91694761D01*
X173855238Y-91742380D01*
X173569523Y-91742380D01*
X173474285Y-91694761D01*
X173426666Y-91647142D01*
%TO.C,R17*%
X95867142Y-114142380D02*
X95533809Y-113666190D01*
X95295714Y-114142380D02*
X95295714Y-113142380D01*
X95676666Y-113142380D01*
X95771904Y-113190000D01*
X95819523Y-113237619D01*
X95867142Y-113332857D01*
X95867142Y-113475714D01*
X95819523Y-113570952D01*
X95771904Y-113618571D01*
X95676666Y-113666190D01*
X95295714Y-113666190D01*
X96819523Y-114142380D02*
X96248095Y-114142380D01*
X96533809Y-114142380D02*
X96533809Y-113142380D01*
X96438571Y-113285238D01*
X96343333Y-113380476D01*
X96248095Y-113428095D01*
X97152857Y-113142380D02*
X97819523Y-113142380D01*
X97390952Y-114142380D01*
%TO.C,R28*%
X107667142Y-117512380D02*
X107333809Y-117036190D01*
X107095714Y-117512380D02*
X107095714Y-116512380D01*
X107476666Y-116512380D01*
X107571904Y-116560000D01*
X107619523Y-116607619D01*
X107667142Y-116702857D01*
X107667142Y-116845714D01*
X107619523Y-116940952D01*
X107571904Y-116988571D01*
X107476666Y-117036190D01*
X107095714Y-117036190D01*
X108048095Y-116607619D02*
X108095714Y-116560000D01*
X108190952Y-116512380D01*
X108429047Y-116512380D01*
X108524285Y-116560000D01*
X108571904Y-116607619D01*
X108619523Y-116702857D01*
X108619523Y-116798095D01*
X108571904Y-116940952D01*
X108000476Y-117512380D01*
X108619523Y-117512380D01*
X109190952Y-116940952D02*
X109095714Y-116893333D01*
X109048095Y-116845714D01*
X109000476Y-116750476D01*
X109000476Y-116702857D01*
X109048095Y-116607619D01*
X109095714Y-116560000D01*
X109190952Y-116512380D01*
X109381428Y-116512380D01*
X109476666Y-116560000D01*
X109524285Y-116607619D01*
X109571904Y-116702857D01*
X109571904Y-116750476D01*
X109524285Y-116845714D01*
X109476666Y-116893333D01*
X109381428Y-116940952D01*
X109190952Y-116940952D01*
X109095714Y-116988571D01*
X109048095Y-117036190D01*
X109000476Y-117131428D01*
X109000476Y-117321904D01*
X109048095Y-117417142D01*
X109095714Y-117464761D01*
X109190952Y-117512380D01*
X109381428Y-117512380D01*
X109476666Y-117464761D01*
X109524285Y-117417142D01*
X109571904Y-117321904D01*
X109571904Y-117131428D01*
X109524285Y-117036190D01*
X109476666Y-116988571D01*
X109381428Y-116940952D01*
%TO.C,C10*%
X160867142Y-88897142D02*
X160819523Y-88944761D01*
X160676666Y-88992380D01*
X160581428Y-88992380D01*
X160438571Y-88944761D01*
X160343333Y-88849523D01*
X160295714Y-88754285D01*
X160248095Y-88563809D01*
X160248095Y-88420952D01*
X160295714Y-88230476D01*
X160343333Y-88135238D01*
X160438571Y-88040000D01*
X160581428Y-87992380D01*
X160676666Y-87992380D01*
X160819523Y-88040000D01*
X160867142Y-88087619D01*
X161819523Y-88992380D02*
X161248095Y-88992380D01*
X161533809Y-88992380D02*
X161533809Y-87992380D01*
X161438571Y-88135238D01*
X161343333Y-88230476D01*
X161248095Y-88278095D01*
X162438571Y-87992380D02*
X162533809Y-87992380D01*
X162629047Y-88040000D01*
X162676666Y-88087619D01*
X162724285Y-88182857D01*
X162771904Y-88373333D01*
X162771904Y-88611428D01*
X162724285Y-88801904D01*
X162676666Y-88897142D01*
X162629047Y-88944761D01*
X162533809Y-88992380D01*
X162438571Y-88992380D01*
X162343333Y-88944761D01*
X162295714Y-88897142D01*
X162248095Y-88801904D01*
X162200476Y-88611428D01*
X162200476Y-88373333D01*
X162248095Y-88182857D01*
X162295714Y-88087619D01*
X162343333Y-88040000D01*
X162438571Y-87992380D01*
%TO.C,SW2*%
X97376666Y-134044761D02*
X97519523Y-134092380D01*
X97757619Y-134092380D01*
X97852857Y-134044761D01*
X97900476Y-133997142D01*
X97948095Y-133901904D01*
X97948095Y-133806666D01*
X97900476Y-133711428D01*
X97852857Y-133663809D01*
X97757619Y-133616190D01*
X97567142Y-133568571D01*
X97471904Y-133520952D01*
X97424285Y-133473333D01*
X97376666Y-133378095D01*
X97376666Y-133282857D01*
X97424285Y-133187619D01*
X97471904Y-133140000D01*
X97567142Y-133092380D01*
X97805238Y-133092380D01*
X97948095Y-133140000D01*
X98281428Y-133092380D02*
X98519523Y-134092380D01*
X98710000Y-133378095D01*
X98900476Y-134092380D01*
X99138571Y-133092380D01*
X99471904Y-133187619D02*
X99519523Y-133140000D01*
X99614761Y-133092380D01*
X99852857Y-133092380D01*
X99948095Y-133140000D01*
X99995714Y-133187619D01*
X100043333Y-133282857D01*
X100043333Y-133378095D01*
X99995714Y-133520952D01*
X99424285Y-134092380D01*
X100043333Y-134092380D01*
%TO.C,C27*%
X171107142Y-116357142D02*
X171059523Y-116404761D01*
X170916666Y-116452380D01*
X170821428Y-116452380D01*
X170678571Y-116404761D01*
X170583333Y-116309523D01*
X170535714Y-116214285D01*
X170488095Y-116023809D01*
X170488095Y-115880952D01*
X170535714Y-115690476D01*
X170583333Y-115595238D01*
X170678571Y-115500000D01*
X170821428Y-115452380D01*
X170916666Y-115452380D01*
X171059523Y-115500000D01*
X171107142Y-115547619D01*
X171488095Y-115547619D02*
X171535714Y-115500000D01*
X171630952Y-115452380D01*
X171869047Y-115452380D01*
X171964285Y-115500000D01*
X172011904Y-115547619D01*
X172059523Y-115642857D01*
X172059523Y-115738095D01*
X172011904Y-115880952D01*
X171440476Y-116452380D01*
X172059523Y-116452380D01*
X172392857Y-115452380D02*
X173059523Y-115452380D01*
X172630952Y-116452380D01*
%TO.C,C4*%
X174843333Y-77397142D02*
X174795714Y-77444761D01*
X174652857Y-77492380D01*
X174557619Y-77492380D01*
X174414761Y-77444761D01*
X174319523Y-77349523D01*
X174271904Y-77254285D01*
X174224285Y-77063809D01*
X174224285Y-76920952D01*
X174271904Y-76730476D01*
X174319523Y-76635238D01*
X174414761Y-76540000D01*
X174557619Y-76492380D01*
X174652857Y-76492380D01*
X174795714Y-76540000D01*
X174843333Y-76587619D01*
X175700476Y-76825714D02*
X175700476Y-77492380D01*
X175462380Y-76444761D02*
X175224285Y-77159047D01*
X175843333Y-77159047D01*
%TO.C,R35*%
X142857142Y-137952380D02*
X142523809Y-137476190D01*
X142285714Y-137952380D02*
X142285714Y-136952380D01*
X142666666Y-136952380D01*
X142761904Y-137000000D01*
X142809523Y-137047619D01*
X142857142Y-137142857D01*
X142857142Y-137285714D01*
X142809523Y-137380952D01*
X142761904Y-137428571D01*
X142666666Y-137476190D01*
X142285714Y-137476190D01*
X143190476Y-136952380D02*
X143809523Y-136952380D01*
X143476190Y-137333333D01*
X143619047Y-137333333D01*
X143714285Y-137380952D01*
X143761904Y-137428571D01*
X143809523Y-137523809D01*
X143809523Y-137761904D01*
X143761904Y-137857142D01*
X143714285Y-137904761D01*
X143619047Y-137952380D01*
X143333333Y-137952380D01*
X143238095Y-137904761D01*
X143190476Y-137857142D01*
X144714285Y-136952380D02*
X144238095Y-136952380D01*
X144190476Y-137428571D01*
X144238095Y-137380952D01*
X144333333Y-137333333D01*
X144571428Y-137333333D01*
X144666666Y-137380952D01*
X144714285Y-137428571D01*
X144761904Y-137523809D01*
X144761904Y-137761904D01*
X144714285Y-137857142D01*
X144666666Y-137904761D01*
X144571428Y-137952380D01*
X144333333Y-137952380D01*
X144238095Y-137904761D01*
X144190476Y-137857142D01*
%TO.C,D6*%
X60261904Y-112992380D02*
X60261904Y-111992380D01*
X60500000Y-111992380D01*
X60642857Y-112040000D01*
X60738095Y-112135238D01*
X60785714Y-112230476D01*
X60833333Y-112420952D01*
X60833333Y-112563809D01*
X60785714Y-112754285D01*
X60738095Y-112849523D01*
X60642857Y-112944761D01*
X60500000Y-112992380D01*
X60261904Y-112992380D01*
X61690476Y-111992380D02*
X61500000Y-111992380D01*
X61404761Y-112040000D01*
X61357142Y-112087619D01*
X61261904Y-112230476D01*
X61214285Y-112420952D01*
X61214285Y-112801904D01*
X61261904Y-112897142D01*
X61309523Y-112944761D01*
X61404761Y-112992380D01*
X61595238Y-112992380D01*
X61690476Y-112944761D01*
X61738095Y-112897142D01*
X61785714Y-112801904D01*
X61785714Y-112563809D01*
X61738095Y-112468571D01*
X61690476Y-112420952D01*
X61595238Y-112373333D01*
X61404761Y-112373333D01*
X61309523Y-112420952D01*
X61261904Y-112468571D01*
X61214285Y-112563809D01*
%TO.C,C30*%
X126357142Y-122537722D02*
X126309523Y-122585341D01*
X126166666Y-122632960D01*
X126071428Y-122632960D01*
X125928571Y-122585341D01*
X125833333Y-122490103D01*
X125785714Y-122394865D01*
X125738095Y-122204389D01*
X125738095Y-122061532D01*
X125785714Y-121871056D01*
X125833333Y-121775818D01*
X125928571Y-121680580D01*
X126071428Y-121632960D01*
X126166666Y-121632960D01*
X126309523Y-121680580D01*
X126357142Y-121728199D01*
X126690476Y-121632960D02*
X127309523Y-121632960D01*
X126976190Y-122013913D01*
X127119047Y-122013913D01*
X127214285Y-122061532D01*
X127261904Y-122109151D01*
X127309523Y-122204389D01*
X127309523Y-122442484D01*
X127261904Y-122537722D01*
X127214285Y-122585341D01*
X127119047Y-122632960D01*
X126833333Y-122632960D01*
X126738095Y-122585341D01*
X126690476Y-122537722D01*
X127928571Y-121632960D02*
X128023809Y-121632960D01*
X128119047Y-121680580D01*
X128166666Y-121728199D01*
X128214285Y-121823437D01*
X128261904Y-122013913D01*
X128261904Y-122252008D01*
X128214285Y-122442484D01*
X128166666Y-122537722D01*
X128119047Y-122585341D01*
X128023809Y-122632960D01*
X127928571Y-122632960D01*
X127833333Y-122585341D01*
X127785714Y-122537722D01*
X127738095Y-122442484D01*
X127690476Y-122252008D01*
X127690476Y-122013913D01*
X127738095Y-121823437D01*
X127785714Y-121728199D01*
X127833333Y-121680580D01*
X127928571Y-121632960D01*
%TO.C,C24*%
X97557142Y-109357142D02*
X97509523Y-109404761D01*
X97366666Y-109452380D01*
X97271428Y-109452380D01*
X97128571Y-109404761D01*
X97033333Y-109309523D01*
X96985714Y-109214285D01*
X96938095Y-109023809D01*
X96938095Y-108880952D01*
X96985714Y-108690476D01*
X97033333Y-108595238D01*
X97128571Y-108500000D01*
X97271428Y-108452380D01*
X97366666Y-108452380D01*
X97509523Y-108500000D01*
X97557142Y-108547619D01*
X97938095Y-108547619D02*
X97985714Y-108500000D01*
X98080952Y-108452380D01*
X98319047Y-108452380D01*
X98414285Y-108500000D01*
X98461904Y-108547619D01*
X98509523Y-108642857D01*
X98509523Y-108738095D01*
X98461904Y-108880952D01*
X97890476Y-109452380D01*
X98509523Y-109452380D01*
X99366666Y-108785714D02*
X99366666Y-109452380D01*
X99128571Y-108404761D02*
X98890476Y-109119047D01*
X99509523Y-109119047D01*
%TO.C,Q10*%
X95938571Y-127987619D02*
X95843333Y-127940000D01*
X95748095Y-127844761D01*
X95605238Y-127701904D01*
X95510000Y-127654285D01*
X95414761Y-127654285D01*
X95462380Y-127892380D02*
X95367142Y-127844761D01*
X95271904Y-127749523D01*
X95224285Y-127559047D01*
X95224285Y-127225714D01*
X95271904Y-127035238D01*
X95367142Y-126940000D01*
X95462380Y-126892380D01*
X95652857Y-126892380D01*
X95748095Y-126940000D01*
X95843333Y-127035238D01*
X95890952Y-127225714D01*
X95890952Y-127559047D01*
X95843333Y-127749523D01*
X95748095Y-127844761D01*
X95652857Y-127892380D01*
X95462380Y-127892380D01*
X96843333Y-127892380D02*
X96271904Y-127892380D01*
X96557619Y-127892380D02*
X96557619Y-126892380D01*
X96462380Y-127035238D01*
X96367142Y-127130476D01*
X96271904Y-127178095D01*
X97462380Y-126892380D02*
X97557619Y-126892380D01*
X97652857Y-126940000D01*
X97700476Y-126987619D01*
X97748095Y-127082857D01*
X97795714Y-127273333D01*
X97795714Y-127511428D01*
X97748095Y-127701904D01*
X97700476Y-127797142D01*
X97652857Y-127844761D01*
X97557619Y-127892380D01*
X97462380Y-127892380D01*
X97367142Y-127844761D01*
X97319523Y-127797142D01*
X97271904Y-127701904D01*
X97224285Y-127511428D01*
X97224285Y-127273333D01*
X97271904Y-127082857D01*
X97319523Y-126987619D01*
X97367142Y-126940000D01*
X97462380Y-126892380D01*
%TO.C,Y1*%
X138533809Y-126016190D02*
X138533809Y-126492380D01*
X138200476Y-125492380D02*
X138533809Y-126016190D01*
X138867142Y-125492380D01*
X139724285Y-126492380D02*
X139152857Y-126492380D01*
X139438571Y-126492380D02*
X139438571Y-125492380D01*
X139343333Y-125635238D01*
X139248095Y-125730476D01*
X139152857Y-125778095D01*
%TO.C,C34*%
X100367142Y-124827142D02*
X100319523Y-124874761D01*
X100176666Y-124922380D01*
X100081428Y-124922380D01*
X99938571Y-124874761D01*
X99843333Y-124779523D01*
X99795714Y-124684285D01*
X99748095Y-124493809D01*
X99748095Y-124350952D01*
X99795714Y-124160476D01*
X99843333Y-124065238D01*
X99938571Y-123970000D01*
X100081428Y-123922380D01*
X100176666Y-123922380D01*
X100319523Y-123970000D01*
X100367142Y-124017619D01*
X100700476Y-123922380D02*
X101319523Y-123922380D01*
X100986190Y-124303333D01*
X101129047Y-124303333D01*
X101224285Y-124350952D01*
X101271904Y-124398571D01*
X101319523Y-124493809D01*
X101319523Y-124731904D01*
X101271904Y-124827142D01*
X101224285Y-124874761D01*
X101129047Y-124922380D01*
X100843333Y-124922380D01*
X100748095Y-124874761D01*
X100700476Y-124827142D01*
X102176666Y-124255714D02*
X102176666Y-124922380D01*
X101938571Y-123874761D02*
X101700476Y-124589047D01*
X102319523Y-124589047D01*
%TO.C,R32*%
X100267142Y-127892380D02*
X99933809Y-127416190D01*
X99695714Y-127892380D02*
X99695714Y-126892380D01*
X100076666Y-126892380D01*
X100171904Y-126940000D01*
X100219523Y-126987619D01*
X100267142Y-127082857D01*
X100267142Y-127225714D01*
X100219523Y-127320952D01*
X100171904Y-127368571D01*
X100076666Y-127416190D01*
X99695714Y-127416190D01*
X100600476Y-126892380D02*
X101219523Y-126892380D01*
X100886190Y-127273333D01*
X101029047Y-127273333D01*
X101124285Y-127320952D01*
X101171904Y-127368571D01*
X101219523Y-127463809D01*
X101219523Y-127701904D01*
X101171904Y-127797142D01*
X101124285Y-127844761D01*
X101029047Y-127892380D01*
X100743333Y-127892380D01*
X100648095Y-127844761D01*
X100600476Y-127797142D01*
X101600476Y-126987619D02*
X101648095Y-126940000D01*
X101743333Y-126892380D01*
X101981428Y-126892380D01*
X102076666Y-126940000D01*
X102124285Y-126987619D01*
X102171904Y-127082857D01*
X102171904Y-127178095D01*
X102124285Y-127320952D01*
X101552857Y-127892380D01*
X102171904Y-127892380D01*
%TO.C,Q7*%
X104014761Y-115987619D02*
X103919523Y-115940000D01*
X103824285Y-115844761D01*
X103681428Y-115701904D01*
X103586190Y-115654285D01*
X103490952Y-115654285D01*
X103538571Y-115892380D02*
X103443333Y-115844761D01*
X103348095Y-115749523D01*
X103300476Y-115559047D01*
X103300476Y-115225714D01*
X103348095Y-115035238D01*
X103443333Y-114940000D01*
X103538571Y-114892380D01*
X103729047Y-114892380D01*
X103824285Y-114940000D01*
X103919523Y-115035238D01*
X103967142Y-115225714D01*
X103967142Y-115559047D01*
X103919523Y-115749523D01*
X103824285Y-115844761D01*
X103729047Y-115892380D01*
X103538571Y-115892380D01*
X104300476Y-114892380D02*
X104967142Y-114892380D01*
X104538571Y-115892380D01*
%TO.C,R33*%
X139029642Y-135922380D02*
X138696309Y-135446190D01*
X138458214Y-135922380D02*
X138458214Y-134922380D01*
X138839166Y-134922380D01*
X138934404Y-134970000D01*
X138982023Y-135017619D01*
X139029642Y-135112857D01*
X139029642Y-135255714D01*
X138982023Y-135350952D01*
X138934404Y-135398571D01*
X138839166Y-135446190D01*
X138458214Y-135446190D01*
X139362976Y-134922380D02*
X139982023Y-134922380D01*
X139648690Y-135303333D01*
X139791547Y-135303333D01*
X139886785Y-135350952D01*
X139934404Y-135398571D01*
X139982023Y-135493809D01*
X139982023Y-135731904D01*
X139934404Y-135827142D01*
X139886785Y-135874761D01*
X139791547Y-135922380D01*
X139505833Y-135922380D01*
X139410595Y-135874761D01*
X139362976Y-135827142D01*
X140315357Y-134922380D02*
X140934404Y-134922380D01*
X140601071Y-135303333D01*
X140743928Y-135303333D01*
X140839166Y-135350952D01*
X140886785Y-135398571D01*
X140934404Y-135493809D01*
X140934404Y-135731904D01*
X140886785Y-135827142D01*
X140839166Y-135874761D01*
X140743928Y-135922380D01*
X140458214Y-135922380D01*
X140362976Y-135874761D01*
X140315357Y-135827142D01*
%TO.C,R21*%
X95867142Y-125692380D02*
X95533809Y-125216190D01*
X95295714Y-125692380D02*
X95295714Y-124692380D01*
X95676666Y-124692380D01*
X95771904Y-124740000D01*
X95819523Y-124787619D01*
X95867142Y-124882857D01*
X95867142Y-125025714D01*
X95819523Y-125120952D01*
X95771904Y-125168571D01*
X95676666Y-125216190D01*
X95295714Y-125216190D01*
X96248095Y-124787619D02*
X96295714Y-124740000D01*
X96390952Y-124692380D01*
X96629047Y-124692380D01*
X96724285Y-124740000D01*
X96771904Y-124787619D01*
X96819523Y-124882857D01*
X96819523Y-124978095D01*
X96771904Y-125120952D01*
X96200476Y-125692380D01*
X96819523Y-125692380D01*
X97771904Y-125692380D02*
X97200476Y-125692380D01*
X97486190Y-125692380D02*
X97486190Y-124692380D01*
X97390952Y-124835238D01*
X97295714Y-124930476D01*
X97200476Y-124978095D01*
%TO.C,C40*%
X110372255Y-129397142D02*
X110324636Y-129444761D01*
X110181779Y-129492380D01*
X110086541Y-129492380D01*
X109943684Y-129444761D01*
X109848446Y-129349523D01*
X109800827Y-129254285D01*
X109753208Y-129063809D01*
X109753208Y-128920952D01*
X109800827Y-128730476D01*
X109848446Y-128635238D01*
X109943684Y-128540000D01*
X110086541Y-128492380D01*
X110181779Y-128492380D01*
X110324636Y-128540000D01*
X110372255Y-128587619D01*
X111229398Y-128825714D02*
X111229398Y-129492380D01*
X110991303Y-128444761D02*
X110753208Y-129159047D01*
X111372255Y-129159047D01*
X111943684Y-128492380D02*
X112038922Y-128492380D01*
X112134160Y-128540000D01*
X112181779Y-128587619D01*
X112229398Y-128682857D01*
X112277017Y-128873333D01*
X112277017Y-129111428D01*
X112229398Y-129301904D01*
X112181779Y-129397142D01*
X112134160Y-129444761D01*
X112038922Y-129492380D01*
X111943684Y-129492380D01*
X111848446Y-129444761D01*
X111800827Y-129397142D01*
X111753208Y-129301904D01*
X111705589Y-129111428D01*
X111705589Y-128873333D01*
X111753208Y-128682857D01*
X111800827Y-128587619D01*
X111848446Y-128540000D01*
X111943684Y-128492380D01*
%TO.C,L1*%
X155843333Y-105342380D02*
X155367142Y-105342380D01*
X155367142Y-104342380D01*
X156700476Y-105342380D02*
X156129047Y-105342380D01*
X156414761Y-105342380D02*
X156414761Y-104342380D01*
X156319523Y-104485238D01*
X156224285Y-104580476D01*
X156129047Y-104628095D01*
%TO.C,L2*%
X162833333Y-126952380D02*
X162357142Y-126952380D01*
X162357142Y-125952380D01*
X163119047Y-126047619D02*
X163166666Y-126000000D01*
X163261904Y-125952380D01*
X163500000Y-125952380D01*
X163595238Y-126000000D01*
X163642857Y-126047619D01*
X163690476Y-126142857D01*
X163690476Y-126238095D01*
X163642857Y-126380952D01*
X163071428Y-126952380D01*
X163690476Y-126952380D01*
%TO.C,T1*%
X139628095Y-93462380D02*
X140199523Y-93462380D01*
X139913809Y-94462380D02*
X139913809Y-93462380D01*
X141056666Y-94462380D02*
X140485238Y-94462380D01*
X140770952Y-94462380D02*
X140770952Y-93462380D01*
X140675714Y-93605238D01*
X140580476Y-93700476D01*
X140485238Y-93748095D01*
%TO.C,Q5*%
X92214761Y-117587619D02*
X92119523Y-117540000D01*
X92024285Y-117444761D01*
X91881428Y-117301904D01*
X91786190Y-117254285D01*
X91690952Y-117254285D01*
X91738571Y-117492380D02*
X91643333Y-117444761D01*
X91548095Y-117349523D01*
X91500476Y-117159047D01*
X91500476Y-116825714D01*
X91548095Y-116635238D01*
X91643333Y-116540000D01*
X91738571Y-116492380D01*
X91929047Y-116492380D01*
X92024285Y-116540000D01*
X92119523Y-116635238D01*
X92167142Y-116825714D01*
X92167142Y-117159047D01*
X92119523Y-117349523D01*
X92024285Y-117444761D01*
X91929047Y-117492380D01*
X91738571Y-117492380D01*
X93071904Y-116492380D02*
X92595714Y-116492380D01*
X92548095Y-116968571D01*
X92595714Y-116920952D01*
X92690952Y-116873333D01*
X92929047Y-116873333D01*
X93024285Y-116920952D01*
X93071904Y-116968571D01*
X93119523Y-117063809D01*
X93119523Y-117301904D01*
X93071904Y-117397142D01*
X93024285Y-117444761D01*
X92929047Y-117492380D01*
X92690952Y-117492380D01*
X92595714Y-117444761D01*
X92548095Y-117397142D01*
%TO.C,Q4*%
X170914761Y-88347619D02*
X170819523Y-88300000D01*
X170724285Y-88204761D01*
X170581428Y-88061904D01*
X170486190Y-88014285D01*
X170390952Y-88014285D01*
X170438571Y-88252380D02*
X170343333Y-88204761D01*
X170248095Y-88109523D01*
X170200476Y-87919047D01*
X170200476Y-87585714D01*
X170248095Y-87395238D01*
X170343333Y-87300000D01*
X170438571Y-87252380D01*
X170629047Y-87252380D01*
X170724285Y-87300000D01*
X170819523Y-87395238D01*
X170867142Y-87585714D01*
X170867142Y-87919047D01*
X170819523Y-88109523D01*
X170724285Y-88204761D01*
X170629047Y-88252380D01*
X170438571Y-88252380D01*
X171724285Y-87585714D02*
X171724285Y-88252380D01*
X171486190Y-87204761D02*
X171248095Y-87919047D01*
X171867142Y-87919047D01*
%TO.C,D3*%
X107461904Y-91052380D02*
X107461904Y-90052380D01*
X107700000Y-90052380D01*
X107842857Y-90100000D01*
X107938095Y-90195238D01*
X107985714Y-90290476D01*
X108033333Y-90480952D01*
X108033333Y-90623809D01*
X107985714Y-90814285D01*
X107938095Y-90909523D01*
X107842857Y-91004761D01*
X107700000Y-91052380D01*
X107461904Y-91052380D01*
X108366666Y-90052380D02*
X108985714Y-90052380D01*
X108652380Y-90433333D01*
X108795238Y-90433333D01*
X108890476Y-90480952D01*
X108938095Y-90528571D01*
X108985714Y-90623809D01*
X108985714Y-90861904D01*
X108938095Y-90957142D01*
X108890476Y-91004761D01*
X108795238Y-91052380D01*
X108509523Y-91052380D01*
X108414285Y-91004761D01*
X108366666Y-90957142D01*
%TO.C,R24*%
X149357142Y-132452380D02*
X149023809Y-131976190D01*
X148785714Y-132452380D02*
X148785714Y-131452380D01*
X149166666Y-131452380D01*
X149261904Y-131500000D01*
X149309523Y-131547619D01*
X149357142Y-131642857D01*
X149357142Y-131785714D01*
X149309523Y-131880952D01*
X149261904Y-131928571D01*
X149166666Y-131976190D01*
X148785714Y-131976190D01*
X149738095Y-131547619D02*
X149785714Y-131500000D01*
X149880952Y-131452380D01*
X150119047Y-131452380D01*
X150214285Y-131500000D01*
X150261904Y-131547619D01*
X150309523Y-131642857D01*
X150309523Y-131738095D01*
X150261904Y-131880952D01*
X149690476Y-132452380D01*
X150309523Y-132452380D01*
X151166666Y-131785714D02*
X151166666Y-132452380D01*
X150928571Y-131404761D02*
X150690476Y-132119047D01*
X151309523Y-132119047D01*
%TO.C,R16*%
X168857142Y-108952380D02*
X168523809Y-108476190D01*
X168285714Y-108952380D02*
X168285714Y-107952380D01*
X168666666Y-107952380D01*
X168761904Y-108000000D01*
X168809523Y-108047619D01*
X168857142Y-108142857D01*
X168857142Y-108285714D01*
X168809523Y-108380952D01*
X168761904Y-108428571D01*
X168666666Y-108476190D01*
X168285714Y-108476190D01*
X169809523Y-108952380D02*
X169238095Y-108952380D01*
X169523809Y-108952380D02*
X169523809Y-107952380D01*
X169428571Y-108095238D01*
X169333333Y-108190476D01*
X169238095Y-108238095D01*
X170666666Y-107952380D02*
X170476190Y-107952380D01*
X170380952Y-108000000D01*
X170333333Y-108047619D01*
X170238095Y-108190476D01*
X170190476Y-108380952D01*
X170190476Y-108761904D01*
X170238095Y-108857142D01*
X170285714Y-108904761D01*
X170380952Y-108952380D01*
X170571428Y-108952380D01*
X170666666Y-108904761D01*
X170714285Y-108857142D01*
X170761904Y-108761904D01*
X170761904Y-108523809D01*
X170714285Y-108428571D01*
X170666666Y-108380952D01*
X170571428Y-108333333D01*
X170380952Y-108333333D01*
X170285714Y-108380952D01*
X170238095Y-108428571D01*
X170190476Y-108523809D01*
%TO.C,J2*%
X180676666Y-137742380D02*
X180676666Y-138456666D01*
X180629047Y-138599523D01*
X180533809Y-138694761D01*
X180390952Y-138742380D01*
X180295714Y-138742380D01*
X181105238Y-137837619D02*
X181152857Y-137790000D01*
X181248095Y-137742380D01*
X181486190Y-137742380D01*
X181581428Y-137790000D01*
X181629047Y-137837619D01*
X181676666Y-137932857D01*
X181676666Y-138028095D01*
X181629047Y-138170952D01*
X181057619Y-138742380D01*
X181676666Y-138742380D01*
%TO.C,C20*%
X147867142Y-101897142D02*
X147819523Y-101944761D01*
X147676666Y-101992380D01*
X147581428Y-101992380D01*
X147438571Y-101944761D01*
X147343333Y-101849523D01*
X147295714Y-101754285D01*
X147248095Y-101563809D01*
X147248095Y-101420952D01*
X147295714Y-101230476D01*
X147343333Y-101135238D01*
X147438571Y-101040000D01*
X147581428Y-100992380D01*
X147676666Y-100992380D01*
X147819523Y-101040000D01*
X147867142Y-101087619D01*
X148248095Y-101087619D02*
X148295714Y-101040000D01*
X148390952Y-100992380D01*
X148629047Y-100992380D01*
X148724285Y-101040000D01*
X148771904Y-101087619D01*
X148819523Y-101182857D01*
X148819523Y-101278095D01*
X148771904Y-101420952D01*
X148200476Y-101992380D01*
X148819523Y-101992380D01*
X149438571Y-100992380D02*
X149533809Y-100992380D01*
X149629047Y-101040000D01*
X149676666Y-101087619D01*
X149724285Y-101182857D01*
X149771904Y-101373333D01*
X149771904Y-101611428D01*
X149724285Y-101801904D01*
X149676666Y-101897142D01*
X149629047Y-101944761D01*
X149533809Y-101992380D01*
X149438571Y-101992380D01*
X149343333Y-101944761D01*
X149295714Y-101897142D01*
X149248095Y-101801904D01*
X149200476Y-101611428D01*
X149200476Y-101373333D01*
X149248095Y-101182857D01*
X149295714Y-101087619D01*
X149343333Y-101040000D01*
X149438571Y-100992380D01*
%TO.C,C1*%
X152523333Y-81957142D02*
X152475714Y-82004761D01*
X152332857Y-82052380D01*
X152237619Y-82052380D01*
X152094761Y-82004761D01*
X151999523Y-81909523D01*
X151951904Y-81814285D01*
X151904285Y-81623809D01*
X151904285Y-81480952D01*
X151951904Y-81290476D01*
X151999523Y-81195238D01*
X152094761Y-81100000D01*
X152237619Y-81052380D01*
X152332857Y-81052380D01*
X152475714Y-81100000D01*
X152523333Y-81147619D01*
X153475714Y-82052380D02*
X152904285Y-82052380D01*
X153190000Y-82052380D02*
X153190000Y-81052380D01*
X153094761Y-81195238D01*
X152999523Y-81290476D01*
X152904285Y-81338095D01*
%TO.C,J3*%
X180926666Y-77492380D02*
X180926666Y-78206666D01*
X180879047Y-78349523D01*
X180783809Y-78444761D01*
X180640952Y-78492380D01*
X180545714Y-78492380D01*
X181307619Y-77492380D02*
X181926666Y-77492380D01*
X181593333Y-77873333D01*
X181736190Y-77873333D01*
X181831428Y-77920952D01*
X181879047Y-77968571D01*
X181926666Y-78063809D01*
X181926666Y-78301904D01*
X181879047Y-78397142D01*
X181831428Y-78444761D01*
X181736190Y-78492380D01*
X181450476Y-78492380D01*
X181355238Y-78444761D01*
X181307619Y-78397142D01*
%TO.C,C25*%
X167357142Y-116357142D02*
X167309523Y-116404761D01*
X167166666Y-116452380D01*
X167071428Y-116452380D01*
X166928571Y-116404761D01*
X166833333Y-116309523D01*
X166785714Y-116214285D01*
X166738095Y-116023809D01*
X166738095Y-115880952D01*
X166785714Y-115690476D01*
X166833333Y-115595238D01*
X166928571Y-115500000D01*
X167071428Y-115452380D01*
X167166666Y-115452380D01*
X167309523Y-115500000D01*
X167357142Y-115547619D01*
X167738095Y-115547619D02*
X167785714Y-115500000D01*
X167880952Y-115452380D01*
X168119047Y-115452380D01*
X168214285Y-115500000D01*
X168261904Y-115547619D01*
X168309523Y-115642857D01*
X168309523Y-115738095D01*
X168261904Y-115880952D01*
X167690476Y-116452380D01*
X168309523Y-116452380D01*
X169214285Y-115452380D02*
X168738095Y-115452380D01*
X168690476Y-115928571D01*
X168738095Y-115880952D01*
X168833333Y-115833333D01*
X169071428Y-115833333D01*
X169166666Y-115880952D01*
X169214285Y-115928571D01*
X169261904Y-116023809D01*
X169261904Y-116261904D01*
X169214285Y-116357142D01*
X169166666Y-116404761D01*
X169071428Y-116452380D01*
X168833333Y-116452380D01*
X168738095Y-116404761D01*
X168690476Y-116357142D01*
%TO.C,F1*%
X153426666Y-117218571D02*
X153093333Y-117218571D01*
X153093333Y-117742380D02*
X153093333Y-116742380D01*
X153569523Y-116742380D01*
X154474285Y-117742380D02*
X153902857Y-117742380D01*
X154188571Y-117742380D02*
X154188571Y-116742380D01*
X154093333Y-116885238D01*
X153998095Y-116980476D01*
X153902857Y-117028095D01*
D11*
%TO.C,C2*%
X168470000Y-136835888D02*
X167857000Y-136835888D01*
X168470000Y-136155888D02*
X167286000Y-136155888D01*
X168470000Y-135034888D02*
X166937000Y-135034888D01*
X171778000Y-136075888D02*
X170550000Y-136075888D01*
X171839000Y-135955888D02*
X170550000Y-135955888D01*
X171820000Y-135995888D02*
X170550000Y-135995888D01*
X171481000Y-136515888D02*
X170550000Y-136515888D01*
X168470000Y-136795888D02*
X167811000Y-136795888D01*
X168470000Y-136475888D02*
X167506000Y-136475888D01*
X172086000Y-134994888D02*
X170550000Y-134994888D01*
X171575000Y-136395888D02*
X170550000Y-136395888D01*
X168470000Y-134874888D02*
X166930000Y-134874888D01*
X168470000Y-135555888D02*
X167030000Y-135555888D01*
X171938000Y-135715888D02*
X170550000Y-135715888D01*
X171924000Y-135755888D02*
X170550000Y-135755888D01*
X171411000Y-136595888D02*
X170550000Y-136595888D01*
X172021000Y-135434888D02*
X170550000Y-135434888D01*
X168470000Y-135074888D02*
X166941000Y-135074888D01*
X168470000Y-135675888D02*
X167068000Y-135675888D01*
X168470000Y-135394888D02*
X166990000Y-135394888D01*
X168470000Y-136115888D02*
X167263000Y-136115888D01*
X168470000Y-136235888D02*
X167335000Y-136235888D01*
X168470000Y-134954888D02*
X166932000Y-134954888D01*
X172038000Y-135354888D02*
X170550000Y-135354888D01*
X171659000Y-136275888D02*
X170550000Y-136275888D01*
X171336000Y-136675888D02*
X170550000Y-136675888D01*
X171163000Y-136835888D02*
X170550000Y-136835888D01*
X168470000Y-135875888D02*
X167145000Y-135875888D01*
X172090000Y-134834888D02*
X170550000Y-134834888D01*
X172071000Y-135154888D02*
X170550000Y-135154888D01*
X171875000Y-135875888D02*
X170550000Y-135875888D01*
X172046000Y-135314888D02*
X170550000Y-135314888D01*
X170315000Y-137315888D02*
X168705000Y-137315888D01*
X170761000Y-137115888D02*
X168259000Y-137115888D01*
X171010000Y-136955888D02*
X168010000Y-136955888D01*
X168470000Y-135194888D02*
X166954000Y-135194888D01*
X168470000Y-135915888D02*
X167162000Y-135915888D01*
X170187000Y-137355888D02*
X168833000Y-137355888D01*
X168470000Y-136395888D02*
X167445000Y-136395888D01*
X168470000Y-136355888D02*
X167415000Y-136355888D01*
X171978000Y-135595888D02*
X170550000Y-135595888D01*
X168470000Y-135835888D02*
X167128000Y-135835888D01*
X168470000Y-135715888D02*
X167082000Y-135715888D01*
X171858000Y-135915888D02*
X170550000Y-135915888D01*
X168470000Y-136075888D02*
X167242000Y-136075888D01*
X171295000Y-136715888D02*
X170550000Y-136715888D01*
X171605000Y-136355888D02*
X170550000Y-136355888D01*
X168470000Y-135154888D02*
X166949000Y-135154888D01*
X168470000Y-135755888D02*
X167096000Y-135755888D01*
X168470000Y-135795888D02*
X167112000Y-135795888D01*
X168470000Y-134994888D02*
X166934000Y-134994888D01*
X171892000Y-135835888D02*
X170550000Y-135835888D01*
X172001000Y-135514888D02*
X170550000Y-135514888D01*
X170521000Y-137235888D02*
X168499000Y-137235888D01*
X171064000Y-136915888D02*
X167956000Y-136915888D01*
X170425000Y-137275888D02*
X168595000Y-137275888D01*
X170985000Y-132030113D02*
X170985000Y-132530113D01*
X168470000Y-134834888D02*
X166930000Y-134834888D01*
X171965000Y-135635888D02*
X170550000Y-135635888D01*
X171632000Y-136315888D02*
X170550000Y-136315888D01*
X168470000Y-136035888D02*
X167220000Y-136035888D01*
X171710000Y-136195888D02*
X170550000Y-136195888D01*
X171374000Y-136635888D02*
X170550000Y-136635888D01*
X168470000Y-136755888D02*
X167767000Y-136755888D01*
X170608000Y-137195888D02*
X168412000Y-137195888D01*
X172088000Y-134954888D02*
X170550000Y-134954888D01*
X172075000Y-135114888D02*
X170550000Y-135114888D01*
X172089000Y-134914888D02*
X170550000Y-134914888D01*
X172083000Y-135034888D02*
X170550000Y-135034888D01*
X168470000Y-136635888D02*
X167646000Y-136635888D01*
X168470000Y-135955888D02*
X167181000Y-135955888D01*
X170028000Y-137395888D02*
X168992000Y-137395888D01*
X169794000Y-137435888D02*
X169226000Y-137435888D01*
X168470000Y-135434888D02*
X166999000Y-135434888D01*
X168470000Y-136555888D02*
X167573000Y-136555888D01*
X168470000Y-135995888D02*
X167200000Y-135995888D01*
X168470000Y-135234888D02*
X166960000Y-135234888D01*
X170829000Y-137075888D02*
X168191000Y-137075888D01*
X170893000Y-137035888D02*
X168127000Y-137035888D01*
X171908000Y-135795888D02*
X170550000Y-135795888D01*
X171757000Y-136115888D02*
X170550000Y-136115888D01*
X170688000Y-137155888D02*
X168332000Y-137155888D01*
X168470000Y-136195888D02*
X167310000Y-136195888D01*
X171253000Y-136755888D02*
X170550000Y-136755888D01*
X171545000Y-136435888D02*
X170550000Y-136435888D01*
X171115000Y-136875888D02*
X167905000Y-136875888D01*
X168470000Y-136315888D02*
X167388000Y-136315888D01*
X168470000Y-135595888D02*
X167042000Y-135595888D01*
X168470000Y-135354888D02*
X166982000Y-135354888D01*
X171952000Y-135675888D02*
X170550000Y-135675888D01*
X172066000Y-135194888D02*
X170550000Y-135194888D01*
X168470000Y-135274888D02*
X166967000Y-135274888D01*
X170953000Y-136995888D02*
X168067000Y-136995888D01*
X168470000Y-136675888D02*
X167684000Y-136675888D01*
X168470000Y-135635888D02*
X167055000Y-135635888D01*
X168470000Y-135114888D02*
X166945000Y-135114888D01*
X168470000Y-134914888D02*
X166931000Y-134914888D01*
X168470000Y-135514888D02*
X167019000Y-135514888D01*
X168470000Y-136715888D02*
X167725000Y-136715888D01*
X171990000Y-135555888D02*
X170550000Y-135555888D01*
X171514000Y-136475888D02*
X170550000Y-136475888D01*
X168470000Y-136275888D02*
X167361000Y-136275888D01*
X171685000Y-136235888D02*
X170550000Y-136235888D01*
X171800000Y-136035888D02*
X170550000Y-136035888D01*
X172079000Y-135074888D02*
X170550000Y-135074888D01*
X171447000Y-136555888D02*
X170550000Y-136555888D01*
X172053000Y-135274888D02*
X170550000Y-135274888D01*
X168470000Y-135474888D02*
X167009000Y-135474888D01*
X171734000Y-136155888D02*
X170550000Y-136155888D01*
X171235000Y-132280113D02*
X170735000Y-132280113D01*
X172060000Y-135234888D02*
X170550000Y-135234888D01*
X168470000Y-136515888D02*
X167539000Y-136515888D01*
X168470000Y-135314888D02*
X166974000Y-135314888D01*
X172030000Y-135394888D02*
X170550000Y-135394888D01*
X168470000Y-136435888D02*
X167475000Y-136435888D01*
X168470000Y-136595888D02*
X167609000Y-136595888D01*
X172090000Y-134874888D02*
X170550000Y-134874888D01*
X172011000Y-135474888D02*
X170550000Y-135474888D01*
X171209000Y-136795888D02*
X170550000Y-136795888D01*
X172130000Y-134834888D02*
G75*
G03*
X172130000Y-134834888I-2620000J0D01*
G01*
%TO.C,C31*%
X129520000Y-129705580D02*
X129520000Y-129424420D01*
X128500000Y-129705580D02*
X128500000Y-129424420D01*
%TO.C,R23*%
X101237064Y-120775000D02*
X100782936Y-120775000D01*
X101237064Y-119305000D02*
X100782936Y-119305000D01*
%TO.C,U2*%
X173870000Y-100905000D02*
X173870000Y-100430000D01*
X167650000Y-106175000D02*
X167650000Y-106650000D01*
X173870000Y-106650000D02*
X173395000Y-106650000D01*
X167650000Y-100430000D02*
X168125000Y-100430000D01*
X173870000Y-106175000D02*
X173870000Y-106650000D01*
X167650000Y-100905000D02*
X167650000Y-100430000D01*
X167650000Y-106650000D02*
X168125000Y-106650000D01*
%TO.C,C13*%
X166150000Y-95751252D02*
X166150000Y-94328748D01*
X168870000Y-95751252D02*
X168870000Y-94328748D01*
%TO.C,C23*%
X155869420Y-127550000D02*
X156150580Y-127550000D01*
X155869420Y-126530000D02*
X156150580Y-126530000D01*
%TO.C,R25*%
X102775000Y-111267064D02*
X102775000Y-110812936D01*
X104245000Y-111267064D02*
X104245000Y-110812936D01*
%TO.C,C26*%
X156999000Y-76960000D02*
X156999000Y-76347000D01*
X157679000Y-76960000D02*
X157679000Y-75776000D01*
X158800000Y-76960000D02*
X158800000Y-75427000D01*
X157759000Y-80268000D02*
X157759000Y-79040000D01*
X157879000Y-80329000D02*
X157879000Y-79040000D01*
X157839000Y-80310000D02*
X157839000Y-79040000D01*
X157319000Y-79971000D02*
X157319000Y-79040000D01*
X157039000Y-76960000D02*
X157039000Y-76301000D01*
X157359000Y-76960000D02*
X157359000Y-75996000D01*
X158840000Y-80576000D02*
X158840000Y-79040000D01*
X157439000Y-80065000D02*
X157439000Y-79040000D01*
X158960000Y-76960000D02*
X158960000Y-75420000D01*
X158279000Y-76960000D02*
X158279000Y-75520000D01*
X158119000Y-80428000D02*
X158119000Y-79040000D01*
X158079000Y-80414000D02*
X158079000Y-79040000D01*
X157239000Y-79901000D02*
X157239000Y-79040000D01*
X158400000Y-80511000D02*
X158400000Y-79040000D01*
X158760000Y-76960000D02*
X158760000Y-75431000D01*
X158159000Y-76960000D02*
X158159000Y-75558000D01*
X158440000Y-76960000D02*
X158440000Y-75480000D01*
X157719000Y-76960000D02*
X157719000Y-75753000D01*
X157599000Y-76960000D02*
X157599000Y-75825000D01*
X158880000Y-76960000D02*
X158880000Y-75422000D01*
X158480000Y-80528000D02*
X158480000Y-79040000D01*
X157559000Y-80149000D02*
X157559000Y-79040000D01*
X157159000Y-79826000D02*
X157159000Y-79040000D01*
X156999000Y-79653000D02*
X156999000Y-79040000D01*
X157959000Y-76960000D02*
X157959000Y-75635000D01*
X159000000Y-80580000D02*
X159000000Y-79040000D01*
X158680000Y-80561000D02*
X158680000Y-79040000D01*
X157959000Y-80365000D02*
X157959000Y-79040000D01*
X158520000Y-80536000D02*
X158520000Y-79040000D01*
X156519000Y-78805000D02*
X156519000Y-77195000D01*
X156719000Y-79251000D02*
X156719000Y-76749000D01*
X156879000Y-79500000D02*
X156879000Y-76500000D01*
X158640000Y-76960000D02*
X158640000Y-75444000D01*
X157919000Y-76960000D02*
X157919000Y-75652000D01*
X156479000Y-78677000D02*
X156479000Y-77323000D01*
X157439000Y-76960000D02*
X157439000Y-75935000D01*
X157479000Y-76960000D02*
X157479000Y-75905000D01*
X158239000Y-80468000D02*
X158239000Y-79040000D01*
X157999000Y-76960000D02*
X157999000Y-75618000D01*
X158119000Y-76960000D02*
X158119000Y-75572000D01*
X157919000Y-80348000D02*
X157919000Y-79040000D01*
X157759000Y-76960000D02*
X157759000Y-75732000D01*
X157119000Y-79785000D02*
X157119000Y-79040000D01*
X157479000Y-80095000D02*
X157479000Y-79040000D01*
X158680000Y-76960000D02*
X158680000Y-75439000D01*
X158079000Y-76960000D02*
X158079000Y-75586000D01*
X158039000Y-76960000D02*
X158039000Y-75602000D01*
X158840000Y-76960000D02*
X158840000Y-75424000D01*
X157999000Y-80382000D02*
X157999000Y-79040000D01*
X158320000Y-80491000D02*
X158320000Y-79040000D01*
X156599000Y-79011000D02*
X156599000Y-76989000D01*
X156919000Y-79554000D02*
X156919000Y-76446000D01*
X156559000Y-78915000D02*
X156559000Y-77085000D01*
X161804775Y-79475000D02*
X161304775Y-79475000D01*
X159000000Y-76960000D02*
X159000000Y-75420000D01*
X158199000Y-80455000D02*
X158199000Y-79040000D01*
X157519000Y-80122000D02*
X157519000Y-79040000D01*
X157799000Y-76960000D02*
X157799000Y-75710000D01*
X157639000Y-80200000D02*
X157639000Y-79040000D01*
X157199000Y-79864000D02*
X157199000Y-79040000D01*
X157079000Y-76960000D02*
X157079000Y-76257000D01*
X156639000Y-79098000D02*
X156639000Y-76902000D01*
X158880000Y-80578000D02*
X158880000Y-79040000D01*
X158720000Y-80565000D02*
X158720000Y-79040000D01*
X158920000Y-80579000D02*
X158920000Y-79040000D01*
X158800000Y-80573000D02*
X158800000Y-79040000D01*
X157199000Y-76960000D02*
X157199000Y-76136000D01*
X157879000Y-76960000D02*
X157879000Y-75671000D01*
X156439000Y-78518000D02*
X156439000Y-77482000D01*
X156399000Y-78284000D02*
X156399000Y-77716000D01*
X158400000Y-76960000D02*
X158400000Y-75489000D01*
X157279000Y-76960000D02*
X157279000Y-76063000D01*
X157839000Y-76960000D02*
X157839000Y-75690000D01*
X158600000Y-76960000D02*
X158600000Y-75450000D01*
X156759000Y-79319000D02*
X156759000Y-76681000D01*
X156799000Y-79383000D02*
X156799000Y-76617000D01*
X158039000Y-80398000D02*
X158039000Y-79040000D01*
X157719000Y-80247000D02*
X157719000Y-79040000D01*
X156679000Y-79178000D02*
X156679000Y-76822000D01*
X157639000Y-76960000D02*
X157639000Y-75800000D01*
X157079000Y-79743000D02*
X157079000Y-79040000D01*
X157399000Y-80035000D02*
X157399000Y-79040000D01*
X156959000Y-79605000D02*
X156959000Y-76395000D01*
X157519000Y-76960000D02*
X157519000Y-75878000D01*
X158239000Y-76960000D02*
X158239000Y-75532000D01*
X158480000Y-76960000D02*
X158480000Y-75472000D01*
X158159000Y-80442000D02*
X158159000Y-79040000D01*
X158640000Y-80556000D02*
X158640000Y-79040000D01*
X158560000Y-76960000D02*
X158560000Y-75457000D01*
X156839000Y-79443000D02*
X156839000Y-76557000D01*
X157159000Y-76960000D02*
X157159000Y-76174000D01*
X158199000Y-76960000D02*
X158199000Y-75545000D01*
X158720000Y-76960000D02*
X158720000Y-75435000D01*
X158920000Y-76960000D02*
X158920000Y-75421000D01*
X158320000Y-76960000D02*
X158320000Y-75509000D01*
X157119000Y-76960000D02*
X157119000Y-76215000D01*
X158279000Y-80480000D02*
X158279000Y-79040000D01*
X157359000Y-80004000D02*
X157359000Y-79040000D01*
X157559000Y-76960000D02*
X157559000Y-75851000D01*
X157599000Y-80175000D02*
X157599000Y-79040000D01*
X157799000Y-80290000D02*
X157799000Y-79040000D01*
X158760000Y-80569000D02*
X158760000Y-79040000D01*
X157279000Y-79937000D02*
X157279000Y-79040000D01*
X158560000Y-80543000D02*
X158560000Y-79040000D01*
X158360000Y-76960000D02*
X158360000Y-75499000D01*
X157679000Y-80224000D02*
X157679000Y-79040000D01*
X161554775Y-79725000D02*
X161554775Y-79225000D01*
X158600000Y-80550000D02*
X158600000Y-79040000D01*
X157319000Y-76960000D02*
X157319000Y-76029000D01*
X158520000Y-76960000D02*
X158520000Y-75464000D01*
X158440000Y-80520000D02*
X158440000Y-79040000D01*
X157399000Y-76960000D02*
X157399000Y-75965000D01*
X157239000Y-76960000D02*
X157239000Y-76099000D01*
X158960000Y-80580000D02*
X158960000Y-79040000D01*
X158360000Y-80501000D02*
X158360000Y-79040000D01*
X157039000Y-79699000D02*
X157039000Y-79040000D01*
X161620000Y-78000000D02*
G75*
G03*
X161620000Y-78000000I-2620000J0D01*
G01*
%TO.C,R6*%
X164275000Y-85267064D02*
X164275000Y-84812936D01*
X165745000Y-85267064D02*
X165745000Y-84812936D01*
%TO.C,Q13*%
X149260000Y-135980000D02*
X149910000Y-135980000D01*
X149260000Y-139100000D02*
X149910000Y-139100000D01*
X149260000Y-135980000D02*
X147585000Y-135980000D01*
X149260000Y-139100000D02*
X148610000Y-139100000D01*
%TO.C,Q2*%
X177450000Y-109540000D02*
X177450000Y-107590000D01*
X182570000Y-109540000D02*
X182570000Y-107590000D01*
X177450000Y-109540000D02*
X177450000Y-112990000D01*
X182570000Y-109540000D02*
X182570000Y-111490000D01*
%TO.C,C29*%
X176360000Y-113028748D02*
X176360000Y-114451252D01*
X173640000Y-113028748D02*
X173640000Y-114451252D01*
%TO.C,R1*%
X150665000Y-84427064D02*
X150665000Y-83972936D01*
X152135000Y-84427064D02*
X152135000Y-83972936D01*
%TO.C,JP2*%
X121010000Y-123965000D02*
X119010000Y-123965000D01*
X121010000Y-121165000D02*
X121010000Y-123965000D01*
X119010000Y-121165000D02*
X121010000Y-121165000D01*
X119010000Y-123965000D02*
X119010000Y-121165000D01*
%TO.C,C15*%
X168110000Y-111538748D02*
X168110000Y-112961252D01*
X165390000Y-111538748D02*
X165390000Y-112961252D01*
%TO.C,C14*%
X155869420Y-125800000D02*
X156150580Y-125800000D01*
X155869420Y-124780000D02*
X156150580Y-124780000D01*
%TO.C,C19*%
X159548748Y-106430000D02*
X160971252Y-106430000D01*
X159548748Y-109150000D02*
X160971252Y-109150000D01*
%TO.C,C18*%
X166520000Y-105380580D02*
X166520000Y-105099420D01*
X165500000Y-105380580D02*
X165500000Y-105099420D01*
%TO.C,C21*%
X153221252Y-98650000D02*
X151798748Y-98650000D01*
X153221252Y-95930000D02*
X151798748Y-95930000D01*
%TO.C,J4*%
X118510000Y-133960000D02*
X119840000Y-133960000D01*
X117240000Y-133960000D02*
X107020000Y-133960000D01*
X119840000Y-136560000D02*
X119840000Y-139160000D01*
X117240000Y-133960000D02*
X117240000Y-136560000D01*
X119840000Y-133960000D02*
X119840000Y-135290000D01*
X117240000Y-136560000D02*
X119840000Y-136560000D01*
X107020000Y-133960000D02*
X107020000Y-139160000D01*
X119840000Y-139160000D02*
X107020000Y-139160000D01*
%TO.C,C9*%
X120820000Y-76030000D02*
X117304000Y-76030000D01*
X120820000Y-76030000D02*
X120820000Y-92770000D01*
X115096000Y-76030000D02*
X111580000Y-76030000D01*
X120820000Y-92770000D02*
X117304000Y-92770000D01*
X111580000Y-76030000D02*
X111580000Y-92770000D01*
X115096000Y-92770000D02*
X111580000Y-92770000D01*
%TO.C,Q1*%
X168010000Y-130600000D02*
X166060000Y-130600000D01*
X168010000Y-125480000D02*
X166060000Y-125480000D01*
X168010000Y-130600000D02*
X171460000Y-130600000D01*
X168010000Y-125480000D02*
X169960000Y-125480000D01*
%TO.C,C17*%
X140020000Y-122430580D02*
X140020000Y-122149420D01*
X139000000Y-122430580D02*
X139000000Y-122149420D01*
%TO.C,C11*%
X95780000Y-92770000D02*
X99296000Y-92770000D01*
X95780000Y-92770000D02*
X95780000Y-76030000D01*
X101504000Y-92770000D02*
X105020000Y-92770000D01*
X95780000Y-76030000D02*
X99296000Y-76030000D01*
X105020000Y-92770000D02*
X105020000Y-76030000D01*
X101504000Y-76030000D02*
X105020000Y-76030000D01*
%TO.C,R29*%
X86182936Y-117550000D02*
X87637064Y-117550000D01*
X86182936Y-115730000D02*
X87637064Y-115730000D01*
%TO.C,R5*%
X181737064Y-116775000D02*
X181282936Y-116775000D01*
X181737064Y-115305000D02*
X181282936Y-115305000D01*
%TO.C,U7*%
X55510000Y-76300000D02*
X93610000Y-76300000D01*
X55510000Y-138780000D02*
X93610000Y-138780000D01*
X55510000Y-138780000D02*
X55510000Y-76300000D01*
X93610000Y-76300000D02*
X93610000Y-138780000D01*
%TO.C,R26*%
X86182936Y-113510000D02*
X87637064Y-113510000D01*
X86182936Y-111690000D02*
X87637064Y-111690000D01*
%TO.C,SW1*%
X114550000Y-102140000D02*
X114550000Y-113940000D01*
X126750000Y-102140000D02*
X126750000Y-104540000D01*
X122650000Y-102140000D02*
X126750000Y-102140000D01*
X118650000Y-113940000D02*
X114550000Y-113940000D01*
X118650000Y-102140000D02*
X114550000Y-102140000D01*
X126750000Y-106740000D02*
X126750000Y-109340000D01*
X120650000Y-107540000D02*
X120650000Y-108540000D01*
X113150000Y-104240000D02*
X112850000Y-103940000D01*
X112850000Y-103940000D02*
X113450000Y-103940000D01*
X120150000Y-108040000D02*
X121150000Y-108040000D01*
X126750000Y-111540000D02*
X126750000Y-113940000D01*
X126750000Y-113940000D02*
X122650000Y-113940000D01*
X113450000Y-103940000D02*
X113150000Y-104240000D01*
X123650000Y-108040000D02*
G75*
G03*
X123650000Y-108040000I-3000000J0D01*
G01*
%TO.C,C28*%
X148650580Y-113030000D02*
X148369420Y-113030000D01*
X148650580Y-114050000D02*
X148369420Y-114050000D01*
D10*
%TO.C,U3*%
X144385000Y-127165000D02*
X144710000Y-127165000D01*
X144385000Y-119915000D02*
X144385000Y-120140000D01*
X144385000Y-119915000D02*
X144710000Y-119915000D01*
X151635000Y-119915000D02*
X151310000Y-119915000D01*
X151635000Y-119915000D02*
X151635000Y-120240000D01*
X151635000Y-127165000D02*
X151635000Y-126840000D01*
X151635000Y-127165000D02*
X151310000Y-127165000D01*
X144385000Y-127165000D02*
X144385000Y-126840000D01*
X144385000Y-120140000D02*
X142960000Y-120140000D01*
%TO.C,J1*%
X179910000Y-97040000D02*
X179910000Y-96040000D01*
X181510000Y-103190000D02*
X182710000Y-103190000D01*
X179360000Y-100115000D02*
X179360000Y-101040000D01*
X182710000Y-94890000D02*
X181510000Y-94890000D01*
X179360000Y-101040000D02*
X179910000Y-101040000D01*
X179910000Y-101040000D02*
X179910000Y-102040000D01*
D11*
%TO.C,R20*%
X152532936Y-112805000D02*
X152987064Y-112805000D01*
X152532936Y-114275000D02*
X152987064Y-114275000D01*
%TO.C,TP1*%
X122810000Y-135340000D02*
X127210000Y-135340000D01*
X127210000Y-139740000D02*
X122810000Y-139740000D01*
X122810000Y-139740000D02*
X122810000Y-135340000D01*
X127210000Y-135340000D02*
X127210000Y-139740000D01*
%TO.C,C8*%
X130820000Y-76030000D02*
X127304000Y-76030000D01*
X130820000Y-76030000D02*
X130820000Y-92770000D01*
X125096000Y-76030000D02*
X121580000Y-76030000D01*
X130820000Y-92770000D02*
X127304000Y-92770000D01*
X121580000Y-76030000D02*
X121580000Y-92770000D01*
X125096000Y-92770000D02*
X121580000Y-92770000D01*
%TO.C,C3*%
X176300000Y-92539000D02*
X176913000Y-92539000D01*
X176300000Y-93219000D02*
X177484000Y-93219000D01*
X176300000Y-94340000D02*
X177833000Y-94340000D01*
X172992000Y-93299000D02*
X174220000Y-93299000D01*
X172931000Y-93419000D02*
X174220000Y-93419000D01*
X172950000Y-93379000D02*
X174220000Y-93379000D01*
X173289000Y-92859000D02*
X174220000Y-92859000D01*
X176300000Y-92579000D02*
X176959000Y-92579000D01*
X176300000Y-92899000D02*
X177264000Y-92899000D01*
X172684000Y-94380000D02*
X174220000Y-94380000D01*
X173195000Y-92979000D02*
X174220000Y-92979000D01*
X176300000Y-94500000D02*
X177840000Y-94500000D01*
X176300000Y-93819000D02*
X177740000Y-93819000D01*
X172832000Y-93659000D02*
X174220000Y-93659000D01*
X172846000Y-93619000D02*
X174220000Y-93619000D01*
X173359000Y-92779000D02*
X174220000Y-92779000D01*
X172749000Y-93940000D02*
X174220000Y-93940000D01*
X176300000Y-94300000D02*
X177829000Y-94300000D01*
X176300000Y-93699000D02*
X177702000Y-93699000D01*
X176300000Y-93980000D02*
X177780000Y-93980000D01*
X176300000Y-93259000D02*
X177507000Y-93259000D01*
X176300000Y-93139000D02*
X177435000Y-93139000D01*
X176300000Y-94420000D02*
X177838000Y-94420000D01*
X172732000Y-94020000D02*
X174220000Y-94020000D01*
X173111000Y-93099000D02*
X174220000Y-93099000D01*
X173434000Y-92699000D02*
X174220000Y-92699000D01*
X173607000Y-92539000D02*
X174220000Y-92539000D01*
X176300000Y-93499000D02*
X177625000Y-93499000D01*
X172680000Y-94540000D02*
X174220000Y-94540000D01*
X172699000Y-94220000D02*
X174220000Y-94220000D01*
X172895000Y-93499000D02*
X174220000Y-93499000D01*
X172724000Y-94060000D02*
X174220000Y-94060000D01*
X174455000Y-92059000D02*
X176065000Y-92059000D01*
X174009000Y-92259000D02*
X176511000Y-92259000D01*
X173760000Y-92419000D02*
X176760000Y-92419000D01*
X176300000Y-94180000D02*
X177816000Y-94180000D01*
X176300000Y-93459000D02*
X177608000Y-93459000D01*
X174583000Y-92019000D02*
X175937000Y-92019000D01*
X176300000Y-92979000D02*
X177325000Y-92979000D01*
X176300000Y-93019000D02*
X177355000Y-93019000D01*
X172792000Y-93779000D02*
X174220000Y-93779000D01*
X176300000Y-93539000D02*
X177642000Y-93539000D01*
X176300000Y-93659000D02*
X177688000Y-93659000D01*
X172912000Y-93459000D02*
X174220000Y-93459000D01*
X176300000Y-93299000D02*
X177528000Y-93299000D01*
X173475000Y-92659000D02*
X174220000Y-92659000D01*
X173165000Y-93019000D02*
X174220000Y-93019000D01*
X176300000Y-94220000D02*
X177821000Y-94220000D01*
X176300000Y-93619000D02*
X177674000Y-93619000D01*
X176300000Y-93579000D02*
X177658000Y-93579000D01*
X176300000Y-94380000D02*
X177836000Y-94380000D01*
X172878000Y-93539000D02*
X174220000Y-93539000D01*
X172769000Y-93860000D02*
X174220000Y-93860000D01*
X174249000Y-92139000D02*
X176271000Y-92139000D01*
X173706000Y-92459000D02*
X176814000Y-92459000D01*
X174345000Y-92099000D02*
X176175000Y-92099000D01*
X173785000Y-97344775D02*
X173785000Y-96844775D01*
X176300000Y-94540000D02*
X177840000Y-94540000D01*
X172805000Y-93739000D02*
X174220000Y-93739000D01*
X173138000Y-93059000D02*
X174220000Y-93059000D01*
X176300000Y-93339000D02*
X177550000Y-93339000D01*
X173060000Y-93179000D02*
X174220000Y-93179000D01*
X173396000Y-92739000D02*
X174220000Y-92739000D01*
X176300000Y-92619000D02*
X177003000Y-92619000D01*
X174162000Y-92179000D02*
X176358000Y-92179000D01*
X172682000Y-94420000D02*
X174220000Y-94420000D01*
X172695000Y-94260000D02*
X174220000Y-94260000D01*
X172681000Y-94460000D02*
X174220000Y-94460000D01*
X172687000Y-94340000D02*
X174220000Y-94340000D01*
X176300000Y-92739000D02*
X177124000Y-92739000D01*
X176300000Y-93419000D02*
X177589000Y-93419000D01*
X174742000Y-91979000D02*
X175778000Y-91979000D01*
X174976000Y-91939000D02*
X175544000Y-91939000D01*
X176300000Y-93940000D02*
X177771000Y-93940000D01*
X176300000Y-92819000D02*
X177197000Y-92819000D01*
X176300000Y-93379000D02*
X177570000Y-93379000D01*
X176300000Y-94140000D02*
X177810000Y-94140000D01*
X173941000Y-92299000D02*
X176579000Y-92299000D01*
X173877000Y-92339000D02*
X176643000Y-92339000D01*
X172862000Y-93579000D02*
X174220000Y-93579000D01*
X173013000Y-93259000D02*
X174220000Y-93259000D01*
X174082000Y-92219000D02*
X176438000Y-92219000D01*
X176300000Y-93179000D02*
X177460000Y-93179000D01*
X173517000Y-92619000D02*
X174220000Y-92619000D01*
X173225000Y-92939000D02*
X174220000Y-92939000D01*
X173655000Y-92499000D02*
X176865000Y-92499000D01*
X176300000Y-93059000D02*
X177382000Y-93059000D01*
X176300000Y-93779000D02*
X177728000Y-93779000D01*
X176300000Y-94020000D02*
X177788000Y-94020000D01*
X172818000Y-93699000D02*
X174220000Y-93699000D01*
X172704000Y-94180000D02*
X174220000Y-94180000D01*
X176300000Y-94100000D02*
X177803000Y-94100000D01*
X173817000Y-92379000D02*
X176703000Y-92379000D01*
X176300000Y-92699000D02*
X177086000Y-92699000D01*
X176300000Y-93739000D02*
X177715000Y-93739000D01*
X176300000Y-94260000D02*
X177825000Y-94260000D01*
X176300000Y-94460000D02*
X177839000Y-94460000D01*
X176300000Y-93860000D02*
X177751000Y-93860000D01*
X176300000Y-92659000D02*
X177045000Y-92659000D01*
X172780000Y-93819000D02*
X174220000Y-93819000D01*
X173256000Y-92899000D02*
X174220000Y-92899000D01*
X176300000Y-93099000D02*
X177409000Y-93099000D01*
X173085000Y-93139000D02*
X174220000Y-93139000D01*
X172970000Y-93339000D02*
X174220000Y-93339000D01*
X172691000Y-94300000D02*
X174220000Y-94300000D01*
X173323000Y-92819000D02*
X174220000Y-92819000D01*
X172717000Y-94100000D02*
X174220000Y-94100000D01*
X176300000Y-93900000D02*
X177761000Y-93900000D01*
X173036000Y-93219000D02*
X174220000Y-93219000D01*
X173535000Y-97094775D02*
X174035000Y-97094775D01*
X172710000Y-94140000D02*
X174220000Y-94140000D01*
X176300000Y-92859000D02*
X177231000Y-92859000D01*
X176300000Y-94060000D02*
X177796000Y-94060000D01*
X172740000Y-93980000D02*
X174220000Y-93980000D01*
X176300000Y-92939000D02*
X177295000Y-92939000D01*
X176300000Y-92779000D02*
X177161000Y-92779000D01*
X172680000Y-94500000D02*
X174220000Y-94500000D01*
X172759000Y-93900000D02*
X174220000Y-93900000D01*
X173561000Y-92579000D02*
X174220000Y-92579000D01*
X177880000Y-94540000D02*
G75*
G03*
X177880000Y-94540000I-2620000J0D01*
G01*
%TO.C,R17*%
X96737064Y-112775000D02*
X96282936Y-112775000D01*
X96737064Y-111305000D02*
X96282936Y-111305000D01*
%TO.C,R28*%
X109037064Y-114330000D02*
X107582936Y-114330000D01*
X109037064Y-116150000D02*
X107582936Y-116150000D01*
%TO.C,C10*%
X158419000Y-96735000D02*
X158419000Y-90845000D01*
X160700000Y-97832000D02*
X160700000Y-89748000D01*
X160419000Y-92750000D02*
X160419000Y-89796000D01*
X161060000Y-97866000D02*
X161060000Y-89714000D01*
X160860000Y-97851000D02*
X160860000Y-89729000D01*
X159979000Y-92750000D02*
X159979000Y-89913000D01*
X157859000Y-96077000D02*
X157859000Y-91503000D01*
X159899000Y-97640000D02*
X159899000Y-94830000D01*
X160219000Y-97737000D02*
X160219000Y-94830000D01*
X157499000Y-95435000D02*
X157499000Y-92145000D01*
X158019000Y-96295000D02*
X158019000Y-91285000D01*
X161100000Y-97867000D02*
X161100000Y-89713000D01*
X159219000Y-92750000D02*
X159219000Y-90250000D01*
X160299000Y-92750000D02*
X160299000Y-89823000D01*
X159699000Y-92750000D02*
X159699000Y-90016000D01*
X158379000Y-96697000D02*
X158379000Y-90883000D01*
X159499000Y-97476000D02*
X159499000Y-94830000D01*
X159619000Y-97530000D02*
X159619000Y-94830000D01*
X158179000Y-96487000D02*
X158179000Y-91093000D01*
X160459000Y-97792000D02*
X160459000Y-94830000D01*
X160499000Y-92750000D02*
X160499000Y-89780000D01*
X158979000Y-97182000D02*
X158979000Y-94830000D01*
X159739000Y-97580000D02*
X159739000Y-94830000D01*
X160059000Y-92750000D02*
X160059000Y-89888000D01*
X160019000Y-97679000D02*
X160019000Y-94830000D01*
X160299000Y-97757000D02*
X160299000Y-94830000D01*
X159139000Y-92750000D02*
X159139000Y-90297000D01*
X158059000Y-96346000D02*
X158059000Y-91234000D01*
X157579000Y-95603000D02*
X157579000Y-91977000D01*
X160499000Y-97800000D02*
X160499000Y-94830000D01*
X160620000Y-97820000D02*
X160620000Y-89760000D01*
X161220000Y-97870000D02*
X161220000Y-89710000D01*
X159099000Y-97259000D02*
X159099000Y-94830000D01*
X160179000Y-97726000D02*
X160179000Y-94830000D01*
X159939000Y-92750000D02*
X159939000Y-89927000D01*
X158299000Y-96616000D02*
X158299000Y-90964000D01*
X157779000Y-95956000D02*
X157779000Y-91624000D01*
X158619000Y-96914000D02*
X158619000Y-94830000D01*
X158739000Y-92750000D02*
X158739000Y-90570000D01*
X160900000Y-97855000D02*
X160900000Y-89725000D01*
X157339000Y-95019000D02*
X157339000Y-92561000D01*
X159299000Y-92750000D02*
X159299000Y-90206000D01*
X160339000Y-97766000D02*
X160339000Y-94830000D01*
X165269698Y-96505000D02*
X165269698Y-95705000D01*
X160139000Y-97715000D02*
X160139000Y-94830000D01*
X160459000Y-92750000D02*
X160459000Y-89788000D01*
X160259000Y-97747000D02*
X160259000Y-94830000D01*
X159579000Y-92750000D02*
X159579000Y-90068000D01*
X159019000Y-92750000D02*
X159019000Y-90372000D01*
X160980000Y-97861000D02*
X160980000Y-89719000D01*
X159859000Y-97625000D02*
X159859000Y-94830000D01*
X159339000Y-97396000D02*
X159339000Y-94830000D01*
X159459000Y-92750000D02*
X159459000Y-90124000D01*
X158699000Y-92750000D02*
X158699000Y-90601000D01*
X160099000Y-92750000D02*
X160099000Y-89876000D01*
X160419000Y-97784000D02*
X160419000Y-94830000D01*
X159339000Y-92750000D02*
X159339000Y-90184000D01*
X158139000Y-96441000D02*
X158139000Y-91139000D01*
X159619000Y-92750000D02*
X159619000Y-90050000D01*
X160019000Y-92750000D02*
X160019000Y-89901000D01*
X158939000Y-92750000D02*
X158939000Y-90425000D01*
X160539000Y-92750000D02*
X160539000Y-89773000D01*
X159259000Y-92750000D02*
X159259000Y-90228000D01*
X158659000Y-92750000D02*
X158659000Y-90634000D01*
X158539000Y-92750000D02*
X158539000Y-90735000D01*
X158219000Y-96531000D02*
X158219000Y-91049000D01*
X159179000Y-97307000D02*
X159179000Y-94830000D01*
X159859000Y-92750000D02*
X159859000Y-89955000D01*
X159219000Y-97330000D02*
X159219000Y-94830000D01*
X158619000Y-92750000D02*
X158619000Y-90666000D01*
X158499000Y-96809000D02*
X158499000Y-94830000D01*
X160740000Y-97838000D02*
X160740000Y-89742000D01*
X159539000Y-92750000D02*
X159539000Y-90086000D01*
X159739000Y-92750000D02*
X159739000Y-90000000D01*
X158899000Y-97128000D02*
X158899000Y-94830000D01*
X160580000Y-97814000D02*
X160580000Y-89766000D01*
X160379000Y-92750000D02*
X160379000Y-89805000D01*
X158579000Y-96880000D02*
X158579000Y-94830000D01*
X157659000Y-95754000D02*
X157659000Y-91826000D01*
X157739000Y-95892000D02*
X157739000Y-91688000D01*
X157179000Y-94323000D02*
X157179000Y-93257000D01*
X157939000Y-96190000D02*
X157939000Y-91390000D01*
X158979000Y-92750000D02*
X158979000Y-90398000D01*
X158819000Y-97070000D02*
X158819000Y-94830000D01*
X159939000Y-97653000D02*
X159939000Y-94830000D01*
X157699000Y-95824000D02*
X157699000Y-91756000D01*
X159179000Y-92750000D02*
X159179000Y-90273000D01*
X159259000Y-97352000D02*
X159259000Y-94830000D01*
X161140000Y-97869000D02*
X161140000Y-89711000D01*
X159819000Y-92750000D02*
X159819000Y-89969000D01*
X158459000Y-96773000D02*
X158459000Y-90807000D01*
X158499000Y-92750000D02*
X158499000Y-90771000D01*
X158579000Y-92750000D02*
X158579000Y-90700000D01*
X159379000Y-92750000D02*
X159379000Y-90163000D01*
X161020000Y-97864000D02*
X161020000Y-89716000D01*
X158259000Y-96574000D02*
X158259000Y-91006000D01*
X158539000Y-96845000D02*
X158539000Y-94830000D01*
X159539000Y-97494000D02*
X159539000Y-94830000D01*
X159819000Y-97611000D02*
X159819000Y-94830000D01*
X158899000Y-92750000D02*
X158899000Y-90452000D01*
X160179000Y-92750000D02*
X160179000Y-89854000D01*
X159979000Y-97667000D02*
X159979000Y-94830000D01*
X159579000Y-97512000D02*
X159579000Y-94830000D01*
X158819000Y-92750000D02*
X158819000Y-90510000D01*
X159139000Y-97283000D02*
X159139000Y-94830000D01*
X160259000Y-92750000D02*
X160259000Y-89833000D01*
X165669698Y-96105000D02*
X164869698Y-96105000D01*
X157219000Y-94558000D02*
X157219000Y-93022000D01*
X159779000Y-92750000D02*
X159779000Y-89985000D01*
X160059000Y-97692000D02*
X160059000Y-94830000D01*
X160219000Y-92750000D02*
X160219000Y-89843000D01*
X158339000Y-96657000D02*
X158339000Y-90923000D01*
X160379000Y-97775000D02*
X160379000Y-94830000D01*
X157619000Y-95680000D02*
X157619000Y-91900000D01*
X158779000Y-92750000D02*
X158779000Y-90540000D01*
X158939000Y-97155000D02*
X158939000Y-94830000D01*
X159299000Y-97374000D02*
X159299000Y-94830000D01*
X160139000Y-92750000D02*
X160139000Y-89865000D01*
X159659000Y-92750000D02*
X159659000Y-90033000D01*
X157899000Y-96135000D02*
X157899000Y-91445000D01*
X159059000Y-92750000D02*
X159059000Y-90346000D01*
X159459000Y-97456000D02*
X159459000Y-94830000D01*
X158699000Y-96979000D02*
X158699000Y-94830000D01*
X158739000Y-97010000D02*
X158739000Y-94830000D01*
X159699000Y-97564000D02*
X159699000Y-94830000D01*
X159379000Y-97417000D02*
X159379000Y-94830000D01*
X157459000Y-95342000D02*
X157459000Y-92238000D01*
X161260000Y-97870000D02*
X161260000Y-89710000D01*
X159099000Y-92750000D02*
X159099000Y-90321000D01*
X159779000Y-97595000D02*
X159779000Y-94830000D01*
X160339000Y-92750000D02*
X160339000Y-89814000D01*
X160780000Y-97842000D02*
X160780000Y-89738000D01*
X160539000Y-97807000D02*
X160539000Y-94830000D01*
X159019000Y-97208000D02*
X159019000Y-94830000D01*
X158659000Y-96946000D02*
X158659000Y-94830000D01*
X157819000Y-96018000D02*
X157819000Y-91562000D01*
X158779000Y-97040000D02*
X158779000Y-94830000D01*
X157379000Y-95136000D02*
X157379000Y-92444000D01*
X159899000Y-92750000D02*
X159899000Y-89940000D01*
X161180000Y-97870000D02*
X161180000Y-89710000D01*
X158099000Y-96394000D02*
X158099000Y-91186000D01*
X160660000Y-97827000D02*
X160660000Y-89753000D01*
X159419000Y-97437000D02*
X159419000Y-94830000D01*
X158859000Y-97099000D02*
X158859000Y-94830000D01*
X157299000Y-94888000D02*
X157299000Y-92692000D01*
X157539000Y-95521000D02*
X157539000Y-92059000D01*
X160940000Y-97858000D02*
X160940000Y-89722000D01*
X157419000Y-95243000D02*
X157419000Y-92337000D01*
X159419000Y-92750000D02*
X159419000Y-90143000D01*
X159059000Y-97234000D02*
X159059000Y-94830000D01*
X159659000Y-97547000D02*
X159659000Y-94830000D01*
X159499000Y-92750000D02*
X159499000Y-90104000D01*
X160820000Y-97847000D02*
X160820000Y-89733000D01*
X157259000Y-94738000D02*
X157259000Y-92842000D01*
X157979000Y-96244000D02*
X157979000Y-91336000D01*
X160099000Y-97704000D02*
X160099000Y-94830000D01*
X158859000Y-92750000D02*
X158859000Y-90481000D01*
X165380000Y-93790000D02*
G75*
G03*
X165380000Y-93790000I-4120000J0D01*
G01*
%TO.C,SW2*%
X101740000Y-133245000D02*
X101740000Y-133595000D01*
X101740000Y-133245000D02*
X102630000Y-133245000D01*
X102630000Y-140035000D02*
X102630000Y-136185000D01*
X94890000Y-140035000D02*
X102630000Y-140035000D01*
X94890000Y-133545000D02*
X94890000Y-133245000D01*
X94890000Y-133245000D02*
X95780000Y-133245000D01*
X102630000Y-133545000D02*
X102630000Y-133245000D01*
X95780000Y-133245000D02*
X95780000Y-133595000D01*
X101250000Y-135795000D02*
X96270000Y-135795000D01*
X94890000Y-136185000D02*
X94890000Y-140035000D01*
%TO.C,C27*%
X171400000Y-113334420D02*
X171400000Y-113615580D01*
X172420000Y-113334420D02*
X172420000Y-113615580D01*
%TO.C,C4*%
X172050000Y-76039000D02*
X172663000Y-76039000D01*
X172050000Y-76719000D02*
X173234000Y-76719000D01*
X172050000Y-77840000D02*
X173583000Y-77840000D01*
X168742000Y-76799000D02*
X169970000Y-76799000D01*
X168681000Y-76919000D02*
X169970000Y-76919000D01*
X168700000Y-76879000D02*
X169970000Y-76879000D01*
X169039000Y-76359000D02*
X169970000Y-76359000D01*
X172050000Y-76079000D02*
X172709000Y-76079000D01*
X172050000Y-76399000D02*
X173014000Y-76399000D01*
X168434000Y-77880000D02*
X169970000Y-77880000D01*
X168945000Y-76479000D02*
X169970000Y-76479000D01*
X172050000Y-78000000D02*
X173590000Y-78000000D01*
X172050000Y-77319000D02*
X173490000Y-77319000D01*
X168582000Y-77159000D02*
X169970000Y-77159000D01*
X168596000Y-77119000D02*
X169970000Y-77119000D01*
X169109000Y-76279000D02*
X169970000Y-76279000D01*
X168499000Y-77440000D02*
X169970000Y-77440000D01*
X172050000Y-77800000D02*
X173579000Y-77800000D01*
X172050000Y-77199000D02*
X173452000Y-77199000D01*
X172050000Y-77480000D02*
X173530000Y-77480000D01*
X172050000Y-76759000D02*
X173257000Y-76759000D01*
X172050000Y-76639000D02*
X173185000Y-76639000D01*
X172050000Y-77920000D02*
X173588000Y-77920000D01*
X168482000Y-77520000D02*
X169970000Y-77520000D01*
X168861000Y-76599000D02*
X169970000Y-76599000D01*
X169184000Y-76199000D02*
X169970000Y-76199000D01*
X169357000Y-76039000D02*
X169970000Y-76039000D01*
X172050000Y-76999000D02*
X173375000Y-76999000D01*
X168430000Y-78040000D02*
X169970000Y-78040000D01*
X168449000Y-77720000D02*
X169970000Y-77720000D01*
X168645000Y-76999000D02*
X169970000Y-76999000D01*
X168474000Y-77560000D02*
X169970000Y-77560000D01*
X170205000Y-75559000D02*
X171815000Y-75559000D01*
X169759000Y-75759000D02*
X172261000Y-75759000D01*
X169510000Y-75919000D02*
X172510000Y-75919000D01*
X172050000Y-77680000D02*
X173566000Y-77680000D01*
X172050000Y-76959000D02*
X173358000Y-76959000D01*
X170333000Y-75519000D02*
X171687000Y-75519000D01*
X172050000Y-76479000D02*
X173075000Y-76479000D01*
X172050000Y-76519000D02*
X173105000Y-76519000D01*
X168542000Y-77279000D02*
X169970000Y-77279000D01*
X172050000Y-77039000D02*
X173392000Y-77039000D01*
X172050000Y-77159000D02*
X173438000Y-77159000D01*
X168662000Y-76959000D02*
X169970000Y-76959000D01*
X172050000Y-76799000D02*
X173278000Y-76799000D01*
X169225000Y-76159000D02*
X169970000Y-76159000D01*
X168915000Y-76519000D02*
X169970000Y-76519000D01*
X172050000Y-77720000D02*
X173571000Y-77720000D01*
X172050000Y-77119000D02*
X173424000Y-77119000D01*
X172050000Y-77079000D02*
X173408000Y-77079000D01*
X172050000Y-77880000D02*
X173586000Y-77880000D01*
X168628000Y-77039000D02*
X169970000Y-77039000D01*
X168519000Y-77360000D02*
X169970000Y-77360000D01*
X169999000Y-75639000D02*
X172021000Y-75639000D01*
X169456000Y-75959000D02*
X172564000Y-75959000D01*
X170095000Y-75599000D02*
X171925000Y-75599000D01*
X169535000Y-80844775D02*
X169535000Y-80344775D01*
X172050000Y-78040000D02*
X173590000Y-78040000D01*
X168555000Y-77239000D02*
X169970000Y-77239000D01*
X168888000Y-76559000D02*
X169970000Y-76559000D01*
X172050000Y-76839000D02*
X173300000Y-76839000D01*
X168810000Y-76679000D02*
X169970000Y-76679000D01*
X169146000Y-76239000D02*
X169970000Y-76239000D01*
X172050000Y-76119000D02*
X172753000Y-76119000D01*
X169912000Y-75679000D02*
X172108000Y-75679000D01*
X168432000Y-77920000D02*
X169970000Y-77920000D01*
X168445000Y-77760000D02*
X169970000Y-77760000D01*
X168431000Y-77960000D02*
X169970000Y-77960000D01*
X168437000Y-77840000D02*
X169970000Y-77840000D01*
X172050000Y-76239000D02*
X172874000Y-76239000D01*
X172050000Y-76919000D02*
X173339000Y-76919000D01*
X170492000Y-75479000D02*
X171528000Y-75479000D01*
X170726000Y-75439000D02*
X171294000Y-75439000D01*
X172050000Y-77440000D02*
X173521000Y-77440000D01*
X172050000Y-76319000D02*
X172947000Y-76319000D01*
X172050000Y-76879000D02*
X173320000Y-76879000D01*
X172050000Y-77640000D02*
X173560000Y-77640000D01*
X169691000Y-75799000D02*
X172329000Y-75799000D01*
X169627000Y-75839000D02*
X172393000Y-75839000D01*
X168612000Y-77079000D02*
X169970000Y-77079000D01*
X168763000Y-76759000D02*
X169970000Y-76759000D01*
X169832000Y-75719000D02*
X172188000Y-75719000D01*
X172050000Y-76679000D02*
X173210000Y-76679000D01*
X169267000Y-76119000D02*
X169970000Y-76119000D01*
X168975000Y-76439000D02*
X169970000Y-76439000D01*
X169405000Y-75999000D02*
X172615000Y-75999000D01*
X172050000Y-76559000D02*
X173132000Y-76559000D01*
X172050000Y-77279000D02*
X173478000Y-77279000D01*
X172050000Y-77520000D02*
X173538000Y-77520000D01*
X168568000Y-77199000D02*
X169970000Y-77199000D01*
X168454000Y-77680000D02*
X169970000Y-77680000D01*
X172050000Y-77600000D02*
X173553000Y-77600000D01*
X169567000Y-75879000D02*
X172453000Y-75879000D01*
X172050000Y-76199000D02*
X172836000Y-76199000D01*
X172050000Y-77239000D02*
X173465000Y-77239000D01*
X172050000Y-77760000D02*
X173575000Y-77760000D01*
X172050000Y-77960000D02*
X173589000Y-77960000D01*
X172050000Y-77360000D02*
X173501000Y-77360000D01*
X172050000Y-76159000D02*
X172795000Y-76159000D01*
X168530000Y-77319000D02*
X169970000Y-77319000D01*
X169006000Y-76399000D02*
X169970000Y-76399000D01*
X172050000Y-76599000D02*
X173159000Y-76599000D01*
X168835000Y-76639000D02*
X169970000Y-76639000D01*
X168720000Y-76839000D02*
X169970000Y-76839000D01*
X168441000Y-77800000D02*
X169970000Y-77800000D01*
X169073000Y-76319000D02*
X169970000Y-76319000D01*
X168467000Y-77600000D02*
X169970000Y-77600000D01*
X172050000Y-77400000D02*
X173511000Y-77400000D01*
X168786000Y-76719000D02*
X169970000Y-76719000D01*
X169285000Y-80594775D02*
X169785000Y-80594775D01*
X168460000Y-77640000D02*
X169970000Y-77640000D01*
X172050000Y-76359000D02*
X172981000Y-76359000D01*
X172050000Y-77560000D02*
X173546000Y-77560000D01*
X168490000Y-77480000D02*
X169970000Y-77480000D01*
X172050000Y-76439000D02*
X173045000Y-76439000D01*
X172050000Y-76279000D02*
X172911000Y-76279000D01*
X168430000Y-78000000D02*
X169970000Y-78000000D01*
X168509000Y-77400000D02*
X169970000Y-77400000D01*
X169311000Y-76079000D02*
X169970000Y-76079000D01*
X173630000Y-78040000D02*
G75*
G03*
X173630000Y-78040000I-2620000J0D01*
G01*
%TO.C,R35*%
X145275000Y-137767064D02*
X145275000Y-137312936D01*
X146745000Y-137767064D02*
X146745000Y-137312936D01*
%TO.C,C30*%
X128500000Y-121899420D02*
X128500000Y-122180580D01*
X129520000Y-121899420D02*
X129520000Y-122180580D01*
%TO.C,C24*%
X94640000Y-105170000D02*
X94640000Y-107910000D01*
X94640000Y-107910000D02*
X102380000Y-107910000D01*
X102380000Y-105170000D02*
X102380000Y-107910000D01*
X94640000Y-105170000D02*
X102380000Y-105170000D01*
%TO.C,Q10*%
X96910000Y-131600000D02*
X96260000Y-131600000D01*
X96910000Y-128480000D02*
X96260000Y-128480000D01*
X96910000Y-131600000D02*
X98585000Y-131600000D01*
X96910000Y-128480000D02*
X97560000Y-128480000D01*
%TO.C,Y1*%
X132460000Y-120140000D02*
X132460000Y-132740000D01*
X132460000Y-132740000D02*
X137560000Y-132740000D01*
X137560000Y-132740000D02*
X137560000Y-120140000D01*
%TO.C,C34*%
X101150580Y-122530000D02*
X100869420Y-122530000D01*
X101150580Y-123550000D02*
X100869420Y-123550000D01*
%TO.C,R32*%
X100575000Y-130267064D02*
X100575000Y-129812936D01*
X102045000Y-130267064D02*
X102045000Y-129812936D01*
%TO.C,Q7*%
X99450000Y-115540000D02*
X99450000Y-114890000D01*
X102570000Y-115540000D02*
X102570000Y-114890000D01*
X99450000Y-115540000D02*
X99450000Y-117215000D01*
X102570000Y-115540000D02*
X102570000Y-116190000D01*
%TO.C,R33*%
X138945436Y-138200000D02*
X140399564Y-138200000D01*
X138945436Y-136380000D02*
X140399564Y-136380000D01*
%TO.C,R21*%
X97245000Y-121812936D02*
X97245000Y-122267064D01*
X95775000Y-121812936D02*
X95775000Y-122267064D01*
%TO.C,C40*%
X105384113Y-128800000D02*
X105384113Y-127492000D01*
X104504113Y-131539000D02*
X104504113Y-130880000D01*
X104224113Y-131159000D02*
X104224113Y-130880000D01*
X104264113Y-131223000D02*
X104264113Y-130880000D01*
X105985113Y-128800000D02*
X105985113Y-127304000D01*
X105184113Y-132087000D02*
X105184113Y-130880000D01*
X106465113Y-132420000D02*
X106465113Y-127260000D01*
X105304113Y-128800000D02*
X105304113Y-127530000D01*
X104624113Y-128800000D02*
X104624113Y-128014000D01*
X105024113Y-128800000D02*
X105024113Y-127691000D01*
X105744113Y-128800000D02*
X105744113Y-127360000D01*
X104984113Y-128800000D02*
X104984113Y-127718000D01*
X104304113Y-131283000D02*
X104304113Y-130880000D01*
X106385113Y-132419000D02*
X106385113Y-127261000D01*
X104864113Y-131875000D02*
X104864113Y-130880000D01*
X103904113Y-130358000D02*
X103904113Y-129322000D01*
X105664113Y-132295000D02*
X105664113Y-130880000D01*
X105144113Y-132064000D02*
X105144113Y-130880000D01*
X105344113Y-128800000D02*
X105344113Y-127511000D01*
X104544113Y-128800000D02*
X104544113Y-128097000D01*
X104824113Y-128800000D02*
X104824113Y-127836000D01*
X104224113Y-128800000D02*
X104224113Y-128521000D01*
X104184113Y-128800000D02*
X104184113Y-128589000D01*
X104664113Y-128800000D02*
X104664113Y-127976000D01*
X105905113Y-128800000D02*
X105905113Y-127320000D01*
X105985113Y-132376000D02*
X105985113Y-130880000D01*
X105744113Y-132320000D02*
X105744113Y-130880000D01*
X105544113Y-132254000D02*
X105544113Y-130880000D01*
X105785113Y-128800000D02*
X105785113Y-127349000D01*
X103944113Y-130517000D02*
X103944113Y-129163000D01*
X105064113Y-132015000D02*
X105064113Y-130880000D01*
X105704113Y-128800000D02*
X105704113Y-127372000D01*
X104584113Y-131625000D02*
X104584113Y-130880000D01*
X104304113Y-128800000D02*
X104304113Y-128397000D01*
X104744113Y-131777000D02*
X104744113Y-130880000D01*
X105024113Y-131989000D02*
X105024113Y-130880000D01*
X105344113Y-132169000D02*
X105344113Y-130880000D01*
X106105113Y-128800000D02*
X106105113Y-127284000D01*
X104264113Y-128800000D02*
X104264113Y-128457000D01*
X105865113Y-132351000D02*
X105865113Y-130880000D01*
X104104113Y-130938000D02*
X104104113Y-128742000D01*
X104544113Y-131583000D02*
X104544113Y-130880000D01*
X106225113Y-128800000D02*
X106225113Y-127271000D01*
X105945113Y-128800000D02*
X105945113Y-127312000D01*
X106025113Y-132383000D02*
X106025113Y-130880000D01*
X106305113Y-132416000D02*
X106305113Y-127264000D01*
X104944113Y-131935000D02*
X104944113Y-130880000D01*
X105224113Y-128800000D02*
X105224113Y-127572000D01*
X105464113Y-132222000D02*
X105464113Y-130880000D01*
X105825113Y-128800000D02*
X105825113Y-127339000D01*
X105945113Y-132368000D02*
X105945113Y-130880000D01*
X106425113Y-132420000D02*
X106425113Y-127260000D01*
X105424113Y-132205000D02*
X105424113Y-130880000D01*
X104464113Y-128800000D02*
X104464113Y-128187000D01*
X105825113Y-132341000D02*
X105825113Y-130880000D01*
X106145113Y-132401000D02*
X106145113Y-130880000D01*
X105104113Y-132040000D02*
X105104113Y-130880000D01*
X104864113Y-128800000D02*
X104864113Y-127805000D01*
X104624113Y-131666000D02*
X104624113Y-130880000D01*
X106065113Y-128800000D02*
X106065113Y-127290000D01*
X105624113Y-132282000D02*
X105624113Y-130880000D01*
X105905113Y-132360000D02*
X105905113Y-130880000D01*
X106065113Y-132390000D02*
X106065113Y-130880000D01*
X105064113Y-128800000D02*
X105064113Y-127665000D01*
X105504113Y-128800000D02*
X105504113Y-127442000D01*
X106345113Y-132418000D02*
X106345113Y-127262000D01*
X106265113Y-132413000D02*
X106265113Y-127267000D01*
X106225113Y-132409000D02*
X106225113Y-130880000D01*
X105865113Y-128800000D02*
X105865113Y-127329000D01*
X104584113Y-128800000D02*
X104584113Y-128055000D01*
X105264113Y-132130000D02*
X105264113Y-130880000D01*
X104904113Y-131905000D02*
X104904113Y-130880000D01*
X105424113Y-128800000D02*
X105424113Y-127475000D01*
X104464113Y-131493000D02*
X104464113Y-130880000D01*
X106105113Y-132396000D02*
X106105113Y-130880000D01*
X104744113Y-128800000D02*
X104744113Y-127903000D01*
X105624113Y-128800000D02*
X105624113Y-127398000D01*
X104904113Y-128800000D02*
X104904113Y-127775000D01*
X105184113Y-128800000D02*
X105184113Y-127593000D01*
X104704113Y-128800000D02*
X104704113Y-127939000D01*
X105664113Y-128800000D02*
X105664113Y-127385000D01*
X105144113Y-128800000D02*
X105144113Y-127616000D01*
X105504113Y-132238000D02*
X105504113Y-130880000D01*
X109269888Y-131315000D02*
X108769888Y-131315000D01*
X104424113Y-128800000D02*
X104424113Y-128235000D01*
X103984113Y-130645000D02*
X103984113Y-129035000D01*
X104184113Y-131091000D02*
X104184113Y-130880000D01*
X105584113Y-128800000D02*
X105584113Y-127412000D01*
X106185113Y-128800000D02*
X106185113Y-127275000D01*
X103864113Y-130124000D02*
X103864113Y-129556000D01*
X105584113Y-132268000D02*
X105584113Y-130880000D01*
X104064113Y-130851000D02*
X104064113Y-128829000D01*
X105464113Y-128800000D02*
X105464113Y-127458000D01*
X104824113Y-131844000D02*
X104824113Y-130880000D01*
X104344113Y-131340000D02*
X104344113Y-130880000D01*
X104144113Y-131018000D02*
X104144113Y-128662000D01*
X104984113Y-131962000D02*
X104984113Y-130880000D01*
X105104113Y-128800000D02*
X105104113Y-127640000D01*
X105544113Y-128800000D02*
X105544113Y-127426000D01*
X109019888Y-131565000D02*
X109019888Y-131065000D01*
X105384113Y-132188000D02*
X105384113Y-130880000D01*
X104784113Y-131811000D02*
X104784113Y-130880000D01*
X105785113Y-132331000D02*
X105785113Y-130880000D01*
X104944113Y-128800000D02*
X104944113Y-127745000D01*
X106145113Y-128800000D02*
X106145113Y-127279000D01*
X105264113Y-128800000D02*
X105264113Y-127550000D01*
X105224113Y-132108000D02*
X105224113Y-130880000D01*
X104384113Y-131394000D02*
X104384113Y-130880000D01*
X105304113Y-132150000D02*
X105304113Y-130880000D01*
X104384113Y-128800000D02*
X104384113Y-128286000D01*
X104024113Y-130755000D02*
X104024113Y-128925000D01*
X104784113Y-128800000D02*
X104784113Y-127869000D01*
X106185113Y-132405000D02*
X106185113Y-130880000D01*
X104344113Y-128800000D02*
X104344113Y-128340000D01*
X104704113Y-131741000D02*
X104704113Y-130880000D01*
X106025113Y-128800000D02*
X106025113Y-127297000D01*
X104424113Y-131445000D02*
X104424113Y-130880000D01*
X105704113Y-132308000D02*
X105704113Y-130880000D01*
X104504113Y-128800000D02*
X104504113Y-128141000D01*
X104664113Y-131704000D02*
X104664113Y-130880000D01*
X109085113Y-129840000D02*
G75*
G03*
X109085113Y-129840000I-2620000J0D01*
G01*
%TO.C,L1*%
X157650000Y-100390000D02*
X157650000Y-99540000D01*
X163760000Y-105650000D02*
X158260000Y-105650000D01*
X164370000Y-104190000D02*
X164370000Y-105040000D01*
X157650000Y-105040000D02*
X157650000Y-104190000D01*
X158260000Y-98930000D02*
X163760000Y-98930000D01*
X164370000Y-99540000D02*
X164370000Y-100390000D01*
X158260000Y-98930000D02*
G75*
G03*
X157650000Y-99540000I0J-610000D01*
G01*
X164370000Y-99540000D02*
G75*
G03*
X163760000Y-98930000I-610000J0D01*
G01*
X157650000Y-105040000D02*
G75*
G03*
X158260000Y-105650000I610000J0D01*
G01*
X163760000Y-105650000D02*
G75*
G03*
X164370000Y-105040000I0J610000D01*
G01*
%TO.C,L2*%
X161870000Y-127142064D02*
X161870000Y-125937936D01*
X159150000Y-127142064D02*
X159150000Y-125937936D01*
%TO.C,T1*%
X131650000Y-75800000D02*
X149150000Y-75800000D01*
X131650000Y-92800000D02*
X131650000Y-75800000D01*
X144112848Y-90934074D02*
X142752848Y-90934074D01*
X144122184Y-77639335D02*
X142762184Y-77639335D01*
X149150000Y-92800000D02*
X131650000Y-92800000D01*
X149150000Y-75800000D02*
X149150000Y-92800000D01*
X137030332Y-90938468D02*
X138390332Y-90938468D01*
X137039668Y-77643729D02*
X138399668Y-77643729D01*
X138390000Y-84290001D02*
G75*
G03*
X138389834Y-80965766I-50360J1662115D01*
G01*
X142762516Y-84287802D02*
G75*
G03*
X142762682Y-87612037I50361J-1662115D01*
G01*
X138389834Y-80965767D02*
G75*
G03*
X138389668Y-77641532I-50361J1662115D01*
G01*
X142762682Y-87612036D02*
G75*
G03*
X142762848Y-90936271I50362J-1662115D01*
G01*
X138390166Y-87614235D02*
G75*
G03*
X138390000Y-84290000I-50360J1662115D01*
G01*
X142762184Y-77639334D02*
G75*
G03*
X142762350Y-80963569I50361J-1662115D01*
G01*
X138390332Y-90938469D02*
G75*
G03*
X138390166Y-87614234I-50360J1662115D01*
G01*
X142762350Y-80963568D02*
G75*
G03*
X142762516Y-84287803I50361J-1662115D01*
G01*
%TO.C,Q5*%
X98070000Y-117040000D02*
X98070000Y-117690000D01*
X94950000Y-117040000D02*
X94950000Y-117690000D01*
X98070000Y-117040000D02*
X98070000Y-115365000D01*
X94950000Y-117040000D02*
X94950000Y-116390000D01*
%TO.C,Q4*%
X171010000Y-81480000D02*
X172960000Y-81480000D01*
X171010000Y-86600000D02*
X172960000Y-86600000D01*
X171010000Y-81480000D02*
X167560000Y-81480000D01*
X171010000Y-86600000D02*
X169060000Y-86600000D01*
%TO.C,D3*%
X108400000Y-84459396D02*
X108400000Y-85664497D01*
X110574899Y-82284497D02*
G75*
G03*
X110574899Y-82284497I-2174899J0D01*
G01*
%TO.C,R24*%
X149032936Y-133305000D02*
X149487064Y-133305000D01*
X149032936Y-134775000D02*
X149487064Y-134775000D01*
%TO.C,R16*%
X171537064Y-109530000D02*
X170082936Y-109530000D01*
X171537064Y-111350000D02*
X170082936Y-111350000D01*
%TO.C,J2*%
X178842500Y-122180000D02*
X187382500Y-122180000D01*
X175142500Y-122180000D02*
X173162500Y-122180000D01*
X172282500Y-132540000D02*
X172282500Y-133540000D01*
X173162500Y-136900000D02*
X175142500Y-136900000D01*
X172282500Y-133540000D02*
X172782500Y-133040000D01*
X187382500Y-136900000D02*
X187382500Y-122180000D01*
X172782500Y-133040000D02*
X172282500Y-132540000D01*
X173162500Y-136900000D02*
X173162500Y-122180000D01*
X178842500Y-136900000D02*
X187382500Y-136900000D01*
%TO.C,C20*%
X153221252Y-102650000D02*
X151798748Y-102650000D01*
X153221252Y-99930000D02*
X151798748Y-99930000D01*
%TO.C,C1*%
X153925888Y-79080000D02*
X153925888Y-80388000D01*
X154805888Y-76341000D02*
X154805888Y-77000000D01*
X155085888Y-76721000D02*
X155085888Y-77000000D01*
X155045888Y-76657000D02*
X155045888Y-77000000D01*
X153324888Y-79080000D02*
X153324888Y-80576000D01*
X154125888Y-75793000D02*
X154125888Y-77000000D01*
X152844888Y-75460000D02*
X152844888Y-80620000D01*
X154005888Y-79080000D02*
X154005888Y-80350000D01*
X154685888Y-79080000D02*
X154685888Y-79866000D01*
X154285888Y-79080000D02*
X154285888Y-80189000D01*
X153565888Y-79080000D02*
X153565888Y-80520000D01*
X154325888Y-79080000D02*
X154325888Y-80162000D01*
X155005888Y-76597000D02*
X155005888Y-77000000D01*
X152924888Y-75461000D02*
X152924888Y-80619000D01*
X154445888Y-76005000D02*
X154445888Y-77000000D01*
X155405888Y-77522000D02*
X155405888Y-78558000D01*
X153645888Y-75585000D02*
X153645888Y-77000000D01*
X154165888Y-75816000D02*
X154165888Y-77000000D01*
X153965888Y-79080000D02*
X153965888Y-80369000D01*
X154765888Y-79080000D02*
X154765888Y-79783000D01*
X154485888Y-79080000D02*
X154485888Y-80044000D01*
X155085888Y-79080000D02*
X155085888Y-79359000D01*
X155125888Y-79080000D02*
X155125888Y-79291000D01*
X154645888Y-79080000D02*
X154645888Y-79904000D01*
X153404888Y-79080000D02*
X153404888Y-80560000D01*
X153324888Y-75504000D02*
X153324888Y-77000000D01*
X153565888Y-75560000D02*
X153565888Y-77000000D01*
X153765888Y-75626000D02*
X153765888Y-77000000D01*
X153524888Y-79080000D02*
X153524888Y-80531000D01*
X155365888Y-77363000D02*
X155365888Y-78717000D01*
X154245888Y-75865000D02*
X154245888Y-77000000D01*
X153605888Y-79080000D02*
X153605888Y-80508000D01*
X154725888Y-76255000D02*
X154725888Y-77000000D01*
X155005888Y-79080000D02*
X155005888Y-79483000D01*
X154565888Y-76103000D02*
X154565888Y-77000000D01*
X154285888Y-75891000D02*
X154285888Y-77000000D01*
X153965888Y-75711000D02*
X153965888Y-77000000D01*
X153204888Y-79080000D02*
X153204888Y-80596000D01*
X155045888Y-79080000D02*
X155045888Y-79423000D01*
X153444888Y-75529000D02*
X153444888Y-77000000D01*
X155205888Y-76942000D02*
X155205888Y-79138000D01*
X154765888Y-76297000D02*
X154765888Y-77000000D01*
X153084888Y-79080000D02*
X153084888Y-80609000D01*
X153364888Y-79080000D02*
X153364888Y-80568000D01*
X153284888Y-75497000D02*
X153284888Y-77000000D01*
X153004888Y-75464000D02*
X153004888Y-80616000D01*
X154365888Y-75945000D02*
X154365888Y-77000000D01*
X154085888Y-79080000D02*
X154085888Y-80308000D01*
X153845888Y-75658000D02*
X153845888Y-77000000D01*
X153484888Y-79080000D02*
X153484888Y-80541000D01*
X153364888Y-75512000D02*
X153364888Y-77000000D01*
X152884888Y-75460000D02*
X152884888Y-80620000D01*
X153885888Y-75675000D02*
X153885888Y-77000000D01*
X154845888Y-79080000D02*
X154845888Y-79693000D01*
X153484888Y-75539000D02*
X153484888Y-77000000D01*
X153164888Y-75479000D02*
X153164888Y-77000000D01*
X154205888Y-75840000D02*
X154205888Y-77000000D01*
X154445888Y-79080000D02*
X154445888Y-80075000D01*
X154685888Y-76214000D02*
X154685888Y-77000000D01*
X153244888Y-79080000D02*
X153244888Y-80590000D01*
X153685888Y-75598000D02*
X153685888Y-77000000D01*
X153404888Y-75520000D02*
X153404888Y-77000000D01*
X153244888Y-75490000D02*
X153244888Y-77000000D01*
X154245888Y-79080000D02*
X154245888Y-80215000D01*
X153805888Y-79080000D02*
X153805888Y-80438000D01*
X152964888Y-75462000D02*
X152964888Y-80618000D01*
X153044888Y-75467000D02*
X153044888Y-80613000D01*
X153084888Y-75471000D02*
X153084888Y-77000000D01*
X153444888Y-79080000D02*
X153444888Y-80551000D01*
X154725888Y-79080000D02*
X154725888Y-79825000D01*
X154045888Y-75750000D02*
X154045888Y-77000000D01*
X154405888Y-75975000D02*
X154405888Y-77000000D01*
X153885888Y-79080000D02*
X153885888Y-80405000D01*
X154845888Y-76387000D02*
X154845888Y-77000000D01*
X153204888Y-75484000D02*
X153204888Y-77000000D01*
X154565888Y-79080000D02*
X154565888Y-79977000D01*
X153685888Y-79080000D02*
X153685888Y-80482000D01*
X154405888Y-79080000D02*
X154405888Y-80105000D01*
X154125888Y-79080000D02*
X154125888Y-80287000D01*
X154605888Y-79080000D02*
X154605888Y-79941000D01*
X153645888Y-79080000D02*
X153645888Y-80495000D01*
X154165888Y-79080000D02*
X154165888Y-80264000D01*
X153805888Y-75642000D02*
X153805888Y-77000000D01*
X150040113Y-76565000D02*
X150540113Y-76565000D01*
X154885888Y-79080000D02*
X154885888Y-79645000D01*
X155325888Y-77235000D02*
X155325888Y-78845000D01*
X155125888Y-76789000D02*
X155125888Y-77000000D01*
X153725888Y-79080000D02*
X153725888Y-80468000D01*
X153124888Y-79080000D02*
X153124888Y-80605000D01*
X155445888Y-77756000D02*
X155445888Y-78324000D01*
X153725888Y-75612000D02*
X153725888Y-77000000D01*
X155245888Y-77029000D02*
X155245888Y-79051000D01*
X153845888Y-79080000D02*
X153845888Y-80422000D01*
X154485888Y-76036000D02*
X154485888Y-77000000D01*
X154965888Y-76540000D02*
X154965888Y-77000000D01*
X155165888Y-76862000D02*
X155165888Y-79218000D01*
X154325888Y-75918000D02*
X154325888Y-77000000D01*
X154205888Y-79080000D02*
X154205888Y-80240000D01*
X153765888Y-79080000D02*
X153765888Y-80454000D01*
X150290113Y-76315000D02*
X150290113Y-76815000D01*
X153925888Y-75692000D02*
X153925888Y-77000000D01*
X154525888Y-76069000D02*
X154525888Y-77000000D01*
X153524888Y-75549000D02*
X153524888Y-77000000D01*
X154365888Y-79080000D02*
X154365888Y-80135000D01*
X153164888Y-79080000D02*
X153164888Y-80601000D01*
X154045888Y-79080000D02*
X154045888Y-80330000D01*
X154085888Y-75772000D02*
X154085888Y-77000000D01*
X154925888Y-76486000D02*
X154925888Y-77000000D01*
X154005888Y-75730000D02*
X154005888Y-77000000D01*
X154925888Y-79080000D02*
X154925888Y-79594000D01*
X155285888Y-77125000D02*
X155285888Y-78955000D01*
X154525888Y-79080000D02*
X154525888Y-80011000D01*
X153124888Y-75475000D02*
X153124888Y-77000000D01*
X154965888Y-79080000D02*
X154965888Y-79540000D01*
X154605888Y-76139000D02*
X154605888Y-77000000D01*
X153284888Y-79080000D02*
X153284888Y-80583000D01*
X154885888Y-76435000D02*
X154885888Y-77000000D01*
X153605888Y-75572000D02*
X153605888Y-77000000D01*
X154805888Y-79080000D02*
X154805888Y-79739000D01*
X154645888Y-76176000D02*
X154645888Y-77000000D01*
X155464888Y-78040000D02*
G75*
G03*
X155464888Y-78040000I-2620000J0D01*
G01*
%TO.C,C25*%
X169090000Y-113324420D02*
X169090000Y-113605580D01*
X170110000Y-113324420D02*
X170110000Y-113605580D01*
%TO.C,F1*%
X160010000Y-111290000D02*
X155010000Y-111290000D01*
X155010000Y-111290000D02*
X155010000Y-123290000D01*
X161010000Y-111290000D02*
X160010000Y-111290000D01*
X155010000Y-123290000D02*
X161010000Y-123290000D01*
X161010000Y-123290000D02*
X161010000Y-111290000D01*
%TD*%
M02*
