%TF.GenerationSoftware,KiCad,Pcbnew,6.0.10-86aedd382b~118~ubuntu22.04.1*%
%TF.CreationDate,2023-01-15T12:46:15+03:00*%
%TF.ProjectId,xray,78726179-2e6b-4696-9361-645f70636258,rev?*%
%TF.SameCoordinates,Original*%
%TF.FileFunction,Paste,Bot*%
%TF.FilePolarity,Positive*%
%FSLAX46Y46*%
G04 Gerber Fmt 4.6, Leading zero omitted, Abs format (unit mm)*
G04 Created by KiCad (PCBNEW 6.0.10-86aedd382b~118~ubuntu22.04.1) date 2023-01-15 12:46:15*
%MOMM*%
%LPD*%
G01*
G04 APERTURE LIST*
G04 Aperture macros list*
%AMRoundRect*
0 Rectangle with rounded corners*
0 $1 Rounding radius*
0 $2 $3 $4 $5 $6 $7 $8 $9 X,Y pos of 4 corners*
0 Add a 4 corners polygon primitive as box body*
4,1,4,$2,$3,$4,$5,$6,$7,$8,$9,$2,$3,0*
0 Add four circle primitives for the rounded corners*
1,1,$1+$1,$2,$3*
1,1,$1+$1,$4,$5*
1,1,$1+$1,$6,$7*
1,1,$1+$1,$8,$9*
0 Add four rect primitives between the rounded corners*
20,1,$1+$1,$2,$3,$4,$5,0*
20,1,$1+$1,$4,$5,$6,$7,0*
20,1,$1+$1,$6,$7,$8,$9,0*
20,1,$1+$1,$8,$9,$2,$3,0*%
G04 Aperture macros list end*
%ADD10RoundRect,0.250000X0.262500X0.450000X-0.262500X0.450000X-0.262500X-0.450000X0.262500X-0.450000X0*%
%ADD11RoundRect,0.150000X0.150000X-0.587500X0.150000X0.587500X-0.150000X0.587500X-0.150000X-0.587500X0*%
%ADD12RoundRect,0.250000X0.450000X-0.262500X0.450000X0.262500X-0.450000X0.262500X-0.450000X-0.262500X0*%
%ADD13RoundRect,0.150000X-0.587500X-0.150000X0.587500X-0.150000X0.587500X0.150000X-0.587500X0.150000X0*%
%ADD14RoundRect,0.225000X0.250000X-0.225000X0.250000X0.225000X-0.250000X0.225000X-0.250000X-0.225000X0*%
%ADD15RoundRect,0.250000X0.312500X0.625000X-0.312500X0.625000X-0.312500X-0.625000X0.312500X-0.625000X0*%
%ADD16R,2.500000X1.800000*%
%ADD17RoundRect,0.250000X-0.262500X-0.450000X0.262500X-0.450000X0.262500X0.450000X-0.262500X0.450000X0*%
%ADD18RoundRect,0.225000X-0.250000X0.225000X-0.250000X-0.225000X0.250000X-0.225000X0.250000X0.225000X0*%
%ADD19RoundRect,0.150000X0.587500X0.150000X-0.587500X0.150000X-0.587500X-0.150000X0.587500X-0.150000X0*%
%ADD20RoundRect,0.225000X0.225000X0.250000X-0.225000X0.250000X-0.225000X-0.250000X0.225000X-0.250000X0*%
%ADD21RoundRect,0.100000X0.712500X0.100000X-0.712500X0.100000X-0.712500X-0.100000X0.712500X-0.100000X0*%
%ADD22RoundRect,0.250000X-0.450000X0.262500X-0.450000X-0.262500X0.450000X-0.262500X0.450000X0.262500X0*%
%ADD23R,0.250000X0.750000*%
%ADD24RoundRect,0.250000X0.325000X1.100000X-0.325000X1.100000X-0.325000X-1.100000X0.325000X-1.100000X0*%
%ADD25RoundRect,0.225000X-0.225000X-0.250000X0.225000X-0.250000X0.225000X0.250000X-0.225000X0.250000X0*%
%ADD26RoundRect,0.250000X1.100000X-0.325000X1.100000X0.325000X-1.100000X0.325000X-1.100000X-0.325000X0*%
G04 APERTURE END LIST*
D10*
%TO.C,R14*%
X99422500Y-101040000D03*
X97597500Y-101040000D03*
%TD*%
D11*
%TO.C,Q6*%
X162210000Y-135227500D03*
X160310000Y-135227500D03*
X161260000Y-133352500D03*
%TD*%
D12*
%TO.C,R27*%
X112000000Y-115912500D03*
X112000000Y-114087500D03*
%TD*%
D13*
%TO.C,Q3*%
X142072500Y-96990000D03*
X142072500Y-95090000D03*
X143947500Y-96040000D03*
%TD*%
D14*
%TO.C,C16*%
X150010000Y-109065000D03*
X150010000Y-107515000D03*
%TD*%
D15*
%TO.C,R11*%
X76972500Y-81540000D03*
X74047500Y-81540000D03*
%TD*%
D13*
%TO.C,Q11*%
X99972500Y-131190000D03*
X99972500Y-129290000D03*
X101847500Y-130240000D03*
%TD*%
D16*
%TO.C,D1*%
X123600000Y-83400000D03*
X127600000Y-83400000D03*
%TD*%
D17*
%TO.C,R15*%
X162385000Y-111940000D03*
X164210000Y-111940000D03*
%TD*%
D10*
%TO.C,R30*%
X97422500Y-131440000D03*
X95597500Y-131440000D03*
%TD*%
D17*
%TO.C,R7*%
X152847500Y-83540000D03*
X154672500Y-83540000D03*
%TD*%
D18*
%TO.C,C32*%
X165510000Y-81475000D03*
X165510000Y-83025000D03*
%TD*%
D11*
%TO.C,Q9*%
X97460000Y-128377500D03*
X95560000Y-128377500D03*
X96510000Y-126502500D03*
%TD*%
D15*
%TO.C,R12*%
X71510000Y-81540000D03*
X68585000Y-81540000D03*
%TD*%
D19*
%TO.C,Q12*%
X141697500Y-132840000D03*
X141697500Y-134740000D03*
X139822500Y-133790000D03*
%TD*%
D20*
%TO.C,C7*%
X157035000Y-86290000D03*
X155485000Y-86290000D03*
%TD*%
D21*
%TO.C,U1*%
X158372500Y-88815000D03*
X158372500Y-89465000D03*
X158372500Y-90115000D03*
X158372500Y-90765000D03*
X154147500Y-90765000D03*
X154147500Y-90115000D03*
X154147500Y-89465000D03*
X154147500Y-88815000D03*
%TD*%
D14*
%TO.C,C5*%
X147400000Y-85575000D03*
X147400000Y-84025000D03*
%TD*%
D22*
%TO.C,R3*%
X162600000Y-82087500D03*
X162600000Y-83912500D03*
%TD*%
D14*
%TO.C,C39*%
X156010000Y-135815000D03*
X156010000Y-134265000D03*
%TD*%
D23*
%TO.C,U6*%
X118510000Y-128740000D03*
X119010000Y-128740000D03*
X119510000Y-128740000D03*
X120010000Y-128740000D03*
X120010000Y-131840000D03*
X119510000Y-131840000D03*
X119010000Y-131840000D03*
X118510000Y-131840000D03*
%TD*%
%TO.C,U5*%
X111010000Y-128740000D03*
X111510000Y-128740000D03*
X112010000Y-128740000D03*
X112510000Y-128740000D03*
X112510000Y-131840000D03*
X112010000Y-131840000D03*
X111510000Y-131840000D03*
X111010000Y-131840000D03*
%TD*%
D12*
%TO.C,R34*%
X144260000Y-134702500D03*
X144260000Y-132877500D03*
%TD*%
D15*
%TO.C,R13*%
X65972500Y-81540000D03*
X63047500Y-81540000D03*
%TD*%
D24*
%TO.C,C22*%
X153985000Y-101290000D03*
X151035000Y-101290000D03*
%TD*%
D25*
%TO.C,C38*%
X98035000Y-135640000D03*
X99585000Y-135640000D03*
%TD*%
D14*
%TO.C,C6*%
X143400000Y-85575000D03*
X143400000Y-84025000D03*
%TD*%
D10*
%TO.C,R19*%
X164712500Y-78040000D03*
X162887500Y-78040000D03*
%TD*%
D19*
%TO.C,Q8*%
X109437500Y-114050000D03*
X109437500Y-115950000D03*
X107562500Y-115000000D03*
%TD*%
D12*
%TO.C,R18*%
X161260000Y-131452500D03*
X161260000Y-129627500D03*
%TD*%
D26*
%TO.C,C12*%
X167510000Y-96515000D03*
X167510000Y-93565000D03*
%TD*%
D22*
%TO.C,R2*%
X160200000Y-82087500D03*
X160200000Y-83912500D03*
%TD*%
D18*
%TO.C,C35*%
X117010000Y-104765000D03*
X117010000Y-106315000D03*
%TD*%
D22*
%TO.C,R8*%
X153010000Y-107377500D03*
X153010000Y-109202500D03*
%TD*%
D15*
%TO.C,R10*%
X82472500Y-81540000D03*
X79547500Y-81540000D03*
%TD*%
D10*
%TO.C,R31*%
X101912500Y-125800000D03*
X100087500Y-125800000D03*
%TD*%
D23*
%TO.C,U4*%
X115010000Y-128740000D03*
X115510000Y-128740000D03*
X116010000Y-128740000D03*
X116510000Y-128740000D03*
X116510000Y-131840000D03*
X116010000Y-131840000D03*
X115510000Y-131840000D03*
X115010000Y-131840000D03*
%TD*%
D22*
%TO.C,R4*%
X139010000Y-95127500D03*
X139010000Y-96952500D03*
%TD*%
D16*
%TO.C,D2*%
X115000000Y-83400000D03*
X119000000Y-83400000D03*
%TD*%
D13*
%TO.C,Q14*%
X104772500Y-125990000D03*
X104772500Y-124090000D03*
X106647500Y-125040000D03*
%TD*%
D10*
%TO.C,R22*%
X162172500Y-137540000D03*
X160347500Y-137540000D03*
%TD*%
D18*
%TO.C,C33*%
X176010000Y-111765000D03*
X176010000Y-113315000D03*
%TD*%
D14*
%TO.C,C37*%
X124510000Y-108815000D03*
X124510000Y-107265000D03*
%TD*%
%TO.C,C36*%
X117010000Y-111815000D03*
X117010000Y-110265000D03*
%TD*%
M02*
