%TF.GenerationSoftware,KiCad,Pcbnew,6.0.10-86aedd382b~118~ubuntu22.04.1*%
%TF.CreationDate,2023-01-15T12:46:15+03:00*%
%TF.ProjectId,xray,78726179-2e6b-4696-9361-645f70636258,rev?*%
%TF.SameCoordinates,Original*%
%TF.FileFunction,Soldermask,Top*%
%TF.FilePolarity,Negative*%
%FSLAX46Y46*%
G04 Gerber Fmt 4.6, Leading zero omitted, Abs format (unit mm)*
G04 Created by KiCad (PCBNEW 6.0.10-86aedd382b~118~ubuntu22.04.1) date 2023-01-15 12:46:15*
%MOMM*%
%LPD*%
G01*
G04 APERTURE LIST*
G04 Aperture macros list*
%AMRoundRect*
0 Rectangle with rounded corners*
0 $1 Rounding radius*
0 $2 $3 $4 $5 $6 $7 $8 $9 X,Y pos of 4 corners*
0 Add a 4 corners polygon primitive as box body*
4,1,4,$2,$3,$4,$5,$6,$7,$8,$9,$2,$3,0*
0 Add four circle primitives for the rounded corners*
1,1,$1+$1,$2,$3*
1,1,$1+$1,$4,$5*
1,1,$1+$1,$6,$7*
1,1,$1+$1,$8,$9*
0 Add four rect primitives between the rounded corners*
20,1,$1+$1,$2,$3,$4,$5,0*
20,1,$1+$1,$4,$5,$6,$7,0*
20,1,$1+$1,$6,$7,$8,$9,0*
20,1,$1+$1,$8,$9,$2,$3,0*%
%AMFreePoly0*
4,1,6,1.000000,0.000000,0.500000,-0.750000,-0.500000,-0.750000,-0.500000,0.750000,0.500000,0.750000,1.000000,0.000000,1.000000,0.000000,$1*%
%AMFreePoly1*
4,1,6,0.500000,-0.750000,-0.650000,-0.750000,-0.150000,0.000000,-0.650000,0.750000,0.500000,0.750000,0.500000,-0.750000,0.500000,-0.750000,$1*%
G04 Aperture macros list end*
%ADD10R,1.600000X1.600000*%
%ADD11C,1.600000*%
%ADD12RoundRect,0.225000X0.250000X-0.225000X0.250000X0.225000X-0.250000X0.225000X-0.250000X-0.225000X0*%
%ADD13RoundRect,0.250000X0.262500X0.450000X-0.262500X0.450000X-0.262500X-0.450000X0.262500X-0.450000X0*%
%ADD14RoundRect,0.062500X-0.062500X0.350000X-0.062500X-0.350000X0.062500X-0.350000X0.062500X0.350000X0*%
%ADD15RoundRect,0.062500X-0.350000X0.062500X-0.350000X-0.062500X0.350000X-0.062500X0.350000X0.062500X0*%
%ADD16R,4.600000X4.600000*%
%ADD17RoundRect,0.250000X1.100000X-0.325000X1.100000X0.325000X-1.100000X0.325000X-1.100000X-0.325000X0*%
%ADD18RoundRect,0.225000X-0.225000X-0.250000X0.225000X-0.250000X0.225000X0.250000X-0.225000X0.250000X0*%
%ADD19RoundRect,0.250000X0.450000X-0.262500X0.450000X0.262500X-0.450000X0.262500X-0.450000X-0.262500X0*%
%ADD20RoundRect,0.150000X-0.587500X-0.150000X0.587500X-0.150000X0.587500X0.150000X-0.587500X0.150000X0*%
%ADD21RoundRect,0.150000X0.150000X-0.825000X0.150000X0.825000X-0.150000X0.825000X-0.150000X-0.825000X0*%
%ADD22RoundRect,0.250000X-1.100000X0.325000X-1.100000X-0.325000X1.100000X-0.325000X1.100000X0.325000X0*%
%ADD23FreePoly0,90.000000*%
%ADD24FreePoly1,90.000000*%
%ADD25RoundRect,0.250000X-0.325000X-1.100000X0.325000X-1.100000X0.325000X1.100000X-0.325000X1.100000X0*%
%ADD26RoundRect,0.250000X0.325000X1.100000X-0.325000X1.100000X-0.325000X-1.100000X0.325000X-1.100000X0*%
%ADD27R,1.700000X1.700000*%
%ADD28O,1.700000X1.700000*%
%ADD29C,2.200000*%
%ADD30RoundRect,0.150000X0.825000X0.150000X-0.825000X0.150000X-0.825000X-0.150000X0.825000X-0.150000X0*%
%ADD31RoundRect,0.250000X-0.312500X-0.625000X0.312500X-0.625000X0.312500X0.625000X-0.312500X0.625000X0*%
%ADD32RoundRect,0.250001X-0.899999X0.899999X-0.899999X-0.899999X0.899999X-0.899999X0.899999X0.899999X0*%
%ADD33C,2.300000*%
%ADD34C,3.000000*%
%ADD35C,1.800000*%
%ADD36R,2.000000X2.000000*%
%ADD37C,2.000000*%
%ADD38C,3.200000*%
%ADD39RoundRect,0.225000X0.225000X0.250000X-0.225000X0.250000X-0.225000X-0.250000X0.225000X-0.250000X0*%
%ADD40R,1.600000X0.550000*%
%ADD41R,0.550000X1.600000*%
%ADD42RoundRect,0.250001X0.899999X0.899999X-0.899999X0.899999X-0.899999X-0.899999X0.899999X-0.899999X0*%
%ADD43R,1.050000X0.450000*%
%ADD44O,2.300000X1.400000*%
%ADD45RoundRect,0.250000X-0.262500X-0.450000X0.262500X-0.450000X0.262500X0.450000X-0.262500X0.450000X0*%
%ADD46R,4.000000X4.000000*%
%ADD47RoundRect,0.250001X0.799999X-0.799999X0.799999X0.799999X-0.799999X0.799999X-0.799999X-0.799999X0*%
%ADD48C,2.100000*%
%ADD49RoundRect,0.250000X0.312500X0.625000X-0.312500X0.625000X-0.312500X-0.625000X0.312500X-0.625000X0*%
%ADD50C,1.700000*%
%ADD51RoundRect,0.225000X-0.250000X0.225000X-0.250000X-0.225000X0.250000X-0.225000X0.250000X0.225000X0*%
%ADD52RoundRect,0.250001X-0.799999X0.799999X-0.799999X-0.799999X0.799999X-0.799999X0.799999X0.799999X0*%
%ADD53RoundRect,0.150000X0.587500X0.150000X-0.587500X0.150000X-0.587500X-0.150000X0.587500X-0.150000X0*%
%ADD54R,2.000000X4.500000*%
%ADD55RoundRect,0.150000X0.150000X-0.587500X0.150000X0.587500X-0.150000X0.587500X-0.150000X-0.587500X0*%
%ADD56RoundRect,0.250000X-0.450000X0.262500X-0.450000X-0.262500X0.450000X-0.262500X0.450000X0.262500X0*%
%ADD57R,2.000000X3.400000*%
%ADD58RoundRect,0.250000X1.075000X-0.375000X1.075000X0.375000X-1.075000X0.375000X-1.075000X-0.375000X0*%
%ADD59RoundRect,0.150000X-0.150000X0.587500X-0.150000X-0.587500X0.150000X-0.587500X0.150000X0.587500X0*%
%ADD60RoundRect,0.150000X-0.825000X-0.150000X0.825000X-0.150000X0.825000X0.150000X-0.825000X0.150000X0*%
%ADD61R,2.800000X2.800000*%
%ADD62O,2.800000X2.800000*%
%ADD63R,1.524000X1.524000*%
%ADD64C,1.524000*%
%ADD65C,3.500000*%
%ADD66R,1.160000X0.600000*%
%ADD67R,1.160000X0.300000*%
%ADD68O,2.400000X1.000000*%
%ADD69O,2.000000X1.200000*%
%ADD70RoundRect,0.952500X-0.952500X1.167500X-0.952500X-1.167500X0.952500X-1.167500X0.952500X1.167500X0*%
%ADD71C,1.400000*%
%ADD72O,1.400000X1.400000*%
%ADD73C,13.000000*%
%ADD74C,4.500000*%
%ADD75C,1.500000*%
%ADD76RoundRect,0.250000X0.600000X-0.600000X0.600000X0.600000X-0.600000X0.600000X-0.600000X-0.600000X0*%
G04 APERTURE END LIST*
D10*
%TO.C,C2*%
X169510000Y-133834888D03*
D11*
X169510000Y-135834888D03*
%TD*%
D12*
%TO.C,C31*%
X129010000Y-130340000D03*
X129010000Y-128790000D03*
%TD*%
D13*
%TO.C,R23*%
X101922500Y-120040000D03*
X100097500Y-120040000D03*
%TD*%
D14*
%TO.C,U2*%
X173010000Y-100602500D03*
X172510000Y-100602500D03*
X172010000Y-100602500D03*
X171510000Y-100602500D03*
X171010000Y-100602500D03*
X170510000Y-100602500D03*
X170010000Y-100602500D03*
X169510000Y-100602500D03*
X169010000Y-100602500D03*
X168510000Y-100602500D03*
D15*
X167822500Y-101290000D03*
X167822500Y-101790000D03*
X167822500Y-102290000D03*
X167822500Y-102790000D03*
X167822500Y-103290000D03*
X167822500Y-103790000D03*
X167822500Y-104290000D03*
X167822500Y-104790000D03*
X167822500Y-105290000D03*
X167822500Y-105790000D03*
D14*
X168510000Y-106477500D03*
X169010000Y-106477500D03*
X169510000Y-106477500D03*
X170010000Y-106477500D03*
X170510000Y-106477500D03*
X171010000Y-106477500D03*
X171510000Y-106477500D03*
X172010000Y-106477500D03*
X172510000Y-106477500D03*
X173010000Y-106477500D03*
D15*
X173697500Y-105790000D03*
X173697500Y-105290000D03*
X173697500Y-104790000D03*
X173697500Y-104290000D03*
X173697500Y-103790000D03*
X173697500Y-103290000D03*
X173697500Y-102790000D03*
X173697500Y-102290000D03*
X173697500Y-101790000D03*
X173697500Y-101290000D03*
D16*
X170760000Y-103540000D03*
%TD*%
D17*
%TO.C,C13*%
X167510000Y-96515000D03*
X167510000Y-93565000D03*
%TD*%
D18*
%TO.C,C23*%
X155235000Y-127040000D03*
X156785000Y-127040000D03*
%TD*%
D19*
%TO.C,R25*%
X103510000Y-111952500D03*
X103510000Y-110127500D03*
%TD*%
D10*
%TO.C,C26*%
X160000000Y-78000000D03*
D11*
X158000000Y-78000000D03*
%TD*%
D19*
%TO.C,R6*%
X165010000Y-85952500D03*
X165010000Y-84127500D03*
%TD*%
D20*
%TO.C,Q13*%
X148322500Y-136590000D03*
X148322500Y-138490000D03*
X150197500Y-137540000D03*
%TD*%
D21*
%TO.C,Q2*%
X178105000Y-112015000D03*
X179375000Y-112015000D03*
X180645000Y-112015000D03*
X181915000Y-112015000D03*
X181915000Y-107065000D03*
X180645000Y-107065000D03*
X179375000Y-107065000D03*
X178105000Y-107065000D03*
%TD*%
D22*
%TO.C,C29*%
X175000000Y-112265000D03*
X175000000Y-115215000D03*
%TD*%
D19*
%TO.C,R1*%
X151400000Y-85112500D03*
X151400000Y-83287500D03*
%TD*%
D23*
%TO.C,JP2*%
X120010000Y-123290000D03*
D24*
X120010000Y-121840000D03*
%TD*%
D22*
%TO.C,C15*%
X166750000Y-110775000D03*
X166750000Y-113725000D03*
%TD*%
D18*
%TO.C,C14*%
X155235000Y-125290000D03*
X156785000Y-125290000D03*
%TD*%
D25*
%TO.C,C19*%
X158785000Y-107790000D03*
X161735000Y-107790000D03*
%TD*%
D12*
%TO.C,C18*%
X166010000Y-106015000D03*
X166010000Y-104465000D03*
%TD*%
D26*
%TO.C,C21*%
X153985000Y-97290000D03*
X151035000Y-97290000D03*
%TD*%
D27*
%TO.C,J4*%
X118510000Y-135290000D03*
D28*
X118510000Y-137830000D03*
X115970000Y-135290000D03*
X115970000Y-137830000D03*
X113430000Y-135290000D03*
X113430000Y-137830000D03*
X110890000Y-135290000D03*
X110890000Y-137830000D03*
X108350000Y-135290000D03*
X108350000Y-137830000D03*
%TD*%
D29*
%TO.C,C9*%
X116200000Y-76900000D03*
X116200000Y-91900000D03*
%TD*%
D30*
%TO.C,Q1*%
X170485000Y-129945000D03*
X170485000Y-128675000D03*
X170485000Y-127405000D03*
X170485000Y-126135000D03*
X165535000Y-126135000D03*
X165535000Y-127405000D03*
X165535000Y-128675000D03*
X165535000Y-129945000D03*
%TD*%
D12*
%TO.C,C17*%
X139510000Y-123065000D03*
X139510000Y-121515000D03*
%TD*%
D29*
%TO.C,C11*%
X100400000Y-91900000D03*
X100400000Y-76900000D03*
%TD*%
D31*
%TO.C,R29*%
X85447500Y-116640000D03*
X88372500Y-116640000D03*
%TD*%
D32*
%TO.C,M1*%
X153510000Y-132640000D03*
D33*
X153510000Y-137440000D03*
%TD*%
D13*
%TO.C,R5*%
X182422500Y-116040000D03*
X180597500Y-116040000D03*
%TD*%
D34*
%TO.C,U7*%
X91110000Y-78800000D03*
X58010000Y-136300000D03*
X58010000Y-78800000D03*
X91110000Y-136280000D03*
D35*
X61810000Y-136240000D03*
X64350000Y-136240000D03*
X66890000Y-136240000D03*
X69430000Y-136240000D03*
X71970000Y-136240000D03*
X74510000Y-136240000D03*
X77050000Y-136240000D03*
X79590000Y-136240000D03*
X82130000Y-136240000D03*
X84670000Y-136240000D03*
X87210000Y-136240000D03*
%TD*%
D31*
%TO.C,R26*%
X85447500Y-112600000D03*
X88372500Y-112600000D03*
%TD*%
D36*
%TO.C,SW1*%
X113150000Y-105540000D03*
D37*
X113150000Y-110540000D03*
X113150000Y-108040000D03*
D38*
X120650000Y-102440000D03*
X120650000Y-113640000D03*
D37*
X127650000Y-110540000D03*
X127650000Y-105540000D03*
%TD*%
D39*
%TO.C,C28*%
X149285000Y-113540000D03*
X147735000Y-113540000D03*
%TD*%
D40*
%TO.C,U3*%
X143760000Y-120740000D03*
X143760000Y-121540000D03*
X143760000Y-122340000D03*
X143760000Y-123140000D03*
X143760000Y-123940000D03*
X143760000Y-124740000D03*
X143760000Y-125540000D03*
X143760000Y-126340000D03*
D41*
X145210000Y-127790000D03*
X146010000Y-127790000D03*
X146810000Y-127790000D03*
X147610000Y-127790000D03*
X148410000Y-127790000D03*
X149210000Y-127790000D03*
X150010000Y-127790000D03*
X150810000Y-127790000D03*
D40*
X152260000Y-126340000D03*
X152260000Y-125540000D03*
X152260000Y-124740000D03*
X152260000Y-123940000D03*
X152260000Y-123140000D03*
X152260000Y-122340000D03*
X152260000Y-121540000D03*
X152260000Y-120740000D03*
D41*
X150810000Y-119290000D03*
X150010000Y-119290000D03*
X149210000Y-119290000D03*
X148410000Y-119290000D03*
X147610000Y-119290000D03*
X146810000Y-119290000D03*
X146010000Y-119290000D03*
X145210000Y-119290000D03*
%TD*%
D42*
%TO.C,LS1*%
X135260000Y-136790000D03*
D33*
X130460000Y-136790000D03*
%TD*%
D43*
%TO.C,J1*%
X180235000Y-100340000D03*
X180235000Y-99690000D03*
X180235000Y-99040000D03*
X180235000Y-98390000D03*
X180235000Y-97740000D03*
D44*
X180460000Y-103890000D03*
X180460000Y-94190000D03*
X183760000Y-103890000D03*
X183760000Y-94190000D03*
%TD*%
D45*
%TO.C,R20*%
X151847500Y-113540000D03*
X153672500Y-113540000D03*
%TD*%
D46*
%TO.C,TP1*%
X125010000Y-137540000D03*
%TD*%
D29*
%TO.C,C8*%
X126200000Y-76900000D03*
X126200000Y-91900000D03*
%TD*%
D47*
%TO.C,D4*%
X58510000Y-105840000D03*
D48*
X58510000Y-101240000D03*
%TD*%
D10*
%TO.C,C3*%
X175260000Y-95540000D03*
D11*
X175260000Y-93540000D03*
%TD*%
D13*
%TO.C,R17*%
X97422500Y-112040000D03*
X95597500Y-112040000D03*
%TD*%
D49*
%TO.C,R28*%
X109772500Y-115240000D03*
X106847500Y-115240000D03*
%TD*%
D10*
%TO.C,C10*%
X163010000Y-93790000D03*
D11*
X159510000Y-93790000D03*
%TD*%
D29*
%TO.C,SW2*%
X95260000Y-134865000D03*
X102260000Y-134865000D03*
D50*
X101010000Y-137365000D03*
X96510000Y-137365000D03*
%TD*%
D51*
%TO.C,C27*%
X171910000Y-112700000D03*
X171910000Y-114250000D03*
%TD*%
D10*
%TO.C,C4*%
X171010000Y-79040000D03*
D11*
X171010000Y-77040000D03*
%TD*%
D19*
%TO.C,R35*%
X146010000Y-138452500D03*
X146010000Y-136627500D03*
%TD*%
D52*
%TO.C,D6*%
X58510000Y-110240000D03*
D48*
X58510000Y-114840000D03*
%TD*%
D51*
%TO.C,C30*%
X129010000Y-121265000D03*
X129010000Y-122815000D03*
%TD*%
D37*
%TO.C,C24*%
X96010000Y-106540000D03*
X101010000Y-106540000D03*
%TD*%
D53*
%TO.C,Q10*%
X97847500Y-130990000D03*
X97847500Y-129090000D03*
X95972500Y-130040000D03*
%TD*%
D54*
%TO.C,Y1*%
X135010000Y-130290000D03*
X135010000Y-121790000D03*
%TD*%
D39*
%TO.C,C34*%
X101785000Y-123040000D03*
X100235000Y-123040000D03*
%TD*%
D19*
%TO.C,R32*%
X101310000Y-130952500D03*
X101310000Y-129127500D03*
%TD*%
D55*
%TO.C,Q7*%
X100060000Y-116477500D03*
X101960000Y-116477500D03*
X101010000Y-114602500D03*
%TD*%
D31*
%TO.C,R33*%
X138210000Y-137290000D03*
X141135000Y-137290000D03*
%TD*%
D56*
%TO.C,R21*%
X96510000Y-121127500D03*
X96510000Y-122952500D03*
%TD*%
D10*
%TO.C,C40*%
X107715113Y-129840000D03*
D11*
X105215113Y-129840000D03*
%TD*%
D57*
%TO.C,L1*%
X158160000Y-102290000D03*
X163860000Y-102290000D03*
%TD*%
D58*
%TO.C,L2*%
X160510000Y-127940000D03*
X160510000Y-125140000D03*
%TD*%
D35*
%TO.C,T1*%
X147400000Y-77800000D03*
X147400000Y-90800000D03*
X133400000Y-90800000D03*
X133400000Y-77800000D03*
%TD*%
D59*
%TO.C,Q5*%
X97460000Y-116102500D03*
X95560000Y-116102500D03*
X96510000Y-117977500D03*
%TD*%
D38*
%TO.C,H3*%
X113000000Y-120750000D03*
%TD*%
%TO.C,H1*%
X132250000Y-97750000D03*
%TD*%
D60*
%TO.C,Q4*%
X168535000Y-82135000D03*
X168535000Y-83405000D03*
X168535000Y-84675000D03*
X168535000Y-85945000D03*
X173485000Y-85945000D03*
X173485000Y-84675000D03*
X173485000Y-83405000D03*
X173485000Y-82135000D03*
%TD*%
D61*
%TO.C,D3*%
X108400000Y-82284497D03*
D62*
X108400000Y-87364497D03*
%TD*%
D45*
%TO.C,R24*%
X148347500Y-134040000D03*
X150172500Y-134040000D03*
%TD*%
D49*
%TO.C,R16*%
X172272500Y-110440000D03*
X169347500Y-110440000D03*
%TD*%
D63*
%TO.C,J2*%
X174282500Y-133040000D03*
D64*
X174282500Y-130540000D03*
X174282500Y-128540000D03*
X174282500Y-126040000D03*
D65*
X176992500Y-122290000D03*
X176992500Y-136790000D03*
%TD*%
D26*
%TO.C,C20*%
X153985000Y-101290000D03*
X151035000Y-101290000D03*
%TD*%
D10*
%TO.C,C1*%
X151594888Y-78040000D03*
D11*
X154094888Y-78040000D03*
%TD*%
D66*
%TO.C,J3*%
X178600000Y-88740000D03*
X178600000Y-87940000D03*
D67*
X178600000Y-86790000D03*
X178600000Y-85790000D03*
X178600000Y-85290000D03*
X178600000Y-84290000D03*
D66*
X178600000Y-83140000D03*
X178600000Y-82340000D03*
X178600000Y-82340000D03*
X178600000Y-83140000D03*
D67*
X178600000Y-83790000D03*
X178600000Y-84790000D03*
X178600000Y-86290000D03*
X178600000Y-87290000D03*
D66*
X178600000Y-87940000D03*
X178600000Y-88740000D03*
D68*
X183410000Y-91140000D03*
D69*
X179485000Y-91140000D03*
X179485000Y-79940000D03*
D68*
X183410000Y-79940000D03*
%TD*%
D51*
%TO.C,C25*%
X169600000Y-112690000D03*
X169600000Y-114240000D03*
%TD*%
D70*
%TO.C,F1*%
X158010000Y-114065000D03*
X158010000Y-120475000D03*
%TD*%
D47*
%TO.C,D5*%
X107510000Y-110340000D03*
D48*
X107510000Y-105740000D03*
%TD*%
D71*
%TO.C,R9*%
X147010000Y-105500000D03*
D72*
X147010000Y-110580000D03*
%TD*%
D73*
%TO.C,V1*%
X70010000Y-95540000D03*
D74*
X70010000Y-113340000D03*
D75*
X63010000Y-88540000D03*
X78010000Y-101540000D03*
%TD*%
D76*
%TO.C,BT1*%
X163010000Y-120290000D03*
D50*
X163010000Y-116290000D03*
%TD*%
M02*
