M48
; DRILL file {KiCad 6.0.10-86aedd382b~118~ubuntu22.04.1} date Вс 15 янв 2023 12:46:23
; FORMAT={-:-/ absolute / inch / decimal}
; #@! TF.CreationDate,2023-01-15T12:46:23+03:00
; #@! TF.GenerationSoftware,Kicad,Pcbnew,6.0.10-86aedd382b~118~ubuntu22.04.1
; #@! TF.FileFunction,Plated,1,4,PTH
FMAT,2
INCH
; #@! TA.AperFunction,Plated,PTH,ComponentDrill
T1C0.0079
; #@! TA.AperFunction,Plated,PTH,ViaDrill
T2C0.0157
; #@! TA.AperFunction,Plated,PTH,ComponentDrill
T3C0.0276
; #@! TA.AperFunction,Plated,PTH,ComponentDrill
T4C0.0315
; #@! TA.AperFunction,Plated,PTH,ComponentDrill
T5C0.0362
; #@! TA.AperFunction,Plated,PTH,ComponentDrill
T6C0.0394
; #@! TA.AperFunction,Plated,PTH,ComponentDrill
T7C0.0433
; #@! TA.AperFunction,Plated,PTH,ComponentDrill
T8C0.0512
; #@! TA.AperFunction,Plated,PTH,ComponentDrill
T9C0.0551
; #@! TA.AperFunction,Plated,PTH,ComponentDrill
T10C0.0906
; #@! TA.AperFunction,Plated,PTH,ComponentDrill
T11C0.1024
%
G90
G05
T1
X6.6421Y-3.9957
X6.6421Y-4.036
X6.6421Y-4.0764
X6.6421Y-4.1167
X6.6421Y-4.1571
X6.6825Y-3.9957
X6.6825Y-4.036
X6.6825Y-4.0764
X6.6825Y-4.1167
X6.6825Y-4.1571
X6.7228Y-3.9957
X6.7228Y-4.036
X6.7228Y-4.0764
X6.7228Y-4.1167
X6.7228Y-4.1571
X6.7632Y-3.9957
X6.7632Y-4.036
X6.7632Y-4.0764
X6.7632Y-4.1167
X6.7632Y-4.1571
X6.8035Y-3.9957
X6.8035Y-4.036
X6.8035Y-4.0764
X6.8035Y-4.1167
X6.8035Y-4.1571
T2
X3.7087Y-4.937
X3.9359Y-5.0395
X4.0127Y-4.7905
X4.0236Y-4.4567
X4.0673Y-5.0882
X4.3163Y-4.9671
X4.3705Y-5.1098
X4.3705Y-5.2378
X4.4098Y-5.0213
X4.5181Y-5.2378
X4.528Y-5.1098
X4.5821Y-4.9573
X4.6185Y-4.9858
X4.6657Y-5.1098
X4.6657Y-5.2378
X4.6854Y-5.0016
X4.7244Y-4.9213
X4.7248Y-4.978
X4.8823Y-5.3756
X4.8823Y-5.4543
X4.961Y-5.3756
X4.961Y-5.4543
X5.0791Y-4.9602
X5.1476Y-4.4488
X5.4768Y-4.474
X5.4925Y-4.7841
X5.5388Y-5.0291
X5.5934Y-4.2097
X5.6378Y-5.3622
X5.6815Y-4.5134
X5.7484Y-4.7555
X5.7602Y-4.909
X5.7779Y-5.3244
X5.778Y-4.6276
X5.7932Y-5.4509
X5.8114Y-4.5843
X5.839Y-4.787
X5.8425Y-5.2205
X5.8764Y-5.1492
X5.9059Y-4.7555
X5.9059Y-5.1098
X5.9154Y-3.6713
X5.9154Y-4.5472
X5.9252Y-4.626
X5.9354Y-4.972
X5.9449Y-5.2283
X5.9606Y-3.5669
X6.024Y-5.0409
X6.0384Y-3.6368
X6.0673Y-4.8047
X6.0732Y-4.6965
X6.1402Y-4.0272
X6.1726Y-4.9711
X6.3858Y-5.3701
X6.4488Y-5.0157
X6.4646Y-3.2047
X6.4646Y-4.3465
X6.526Y-3.978
X6.5272Y-4.0272
X6.5299Y-3.9287
X6.5338Y-3.6089
X6.5354Y-4.2913
X6.5358Y-4.9031
X6.5612Y-3.3837
X6.5909Y-4.289
X6.6028Y-3.8894
X6.6933Y-3.7811
X6.6992Y-3.8191
X6.7091Y-3.285
X6.713Y-4.8898
X6.7305Y-3.746
X6.7425Y-4.2634
X6.772Y-3.7555
X6.7795Y-5.1732
X6.7879Y-4.2667
X6.8085Y-3.8667
X6.8331Y-3.8912
X6.8429Y-4.3047
X6.8429Y-4.3756
X6.885Y-4.1886
X6.8941Y-3.4293
X6.8941Y-4.2457
X6.9Y-3.3087
X6.9Y-4.0961
X6.9061Y-4.163
X6.9197Y-3.3382
X6.9197Y-3.4957
X6.9347Y-3.9815
X6.9388Y-3.4529
X6.939Y-3.9469
X6.9394Y-3.8402
X6.9394Y-3.8716
X6.9394Y-4.1207
X6.9425Y-4.0402
X6.9453Y-3.3972
X6.9492Y-4.0094
X7.1811Y-4.4724
T3
X5.7878Y-4.1535
X5.7878Y-4.3535
X6.4177Y-4.5783
X6.4177Y-4.7358
T4
X4.1423Y-5.1118
X4.2408Y-5.1118
X5.9683Y-3.0724
X6.0667Y-3.0724
X6.2205Y-3.0709
X6.2799Y-3.6925
X6.2992Y-3.0709
X6.4177Y-3.6925
X6.6736Y-5.2691
X6.6736Y-5.3478
X6.7327Y-3.0331
X6.7327Y-3.1118
X6.9Y-3.6827
X6.9Y-3.7614
T5
X6.8615Y-4.9622
X6.8615Y-5.0606
X6.8615Y-5.1394
X6.8615Y-5.2378
T6
X2.4335Y-5.3638
X2.4807Y-3.4858
X2.5335Y-5.3638
X2.6335Y-5.3638
X2.7335Y-5.3638
X2.8335Y-5.3638
X2.9335Y-5.3638
X3.0335Y-5.3638
X3.0713Y-3.9976
X3.1335Y-5.3638
X3.2335Y-5.3638
X3.3335Y-5.3638
X3.4335Y-5.3638
X3.7799Y-4.1945
X3.7996Y-5.4081
X3.9768Y-4.1945
X3.9768Y-5.4081
X4.2657Y-5.3264
X4.2657Y-5.4264
X4.3657Y-5.3264
X4.3657Y-5.4264
X4.4547Y-4.1551
X4.4547Y-4.2535
X4.4547Y-4.352
X4.4657Y-5.3264
X4.4657Y-5.4264
X4.5657Y-5.3264
X4.5657Y-5.4264
X4.6657Y-5.3264
X4.6657Y-5.4264
X5.0256Y-4.1551
X5.0256Y-4.352
X5.252Y-3.063
X5.252Y-3.5748
X5.8031Y-3.063
X5.8031Y-3.5748
T7
X2.3035Y-3.9858
X2.3035Y-4.1669
X2.3035Y-4.3402
X2.3035Y-4.5213
X3.9528Y-3.0276
X3.9528Y-3.6181
X4.2327Y-4.163
X4.2327Y-4.3441
X4.5748Y-3.0276
X4.5748Y-3.6181
X4.9685Y-3.0276
X4.9685Y-3.6181
X5.1362Y-5.3854
X5.3252Y-5.3854
X6.0437Y-5.222
X6.0437Y-5.411
T8
X3.7504Y-5.3096
X4.026Y-5.3096
T9
X4.2677Y-3.2395
X4.2677Y-3.4395
T10
X6.9682Y-4.8146
X6.9682Y-5.3854
T11
X4.75Y-4.0331
X4.75Y-4.474
T4
G00X7.0821Y-3.1472
M15
G01X7.0506Y-3.1472
M16
G05
G00X7.0821Y-3.5882
M15
G01X7.0506Y-3.5882
M16
G05
G00X7.2445Y-3.1472
M15
G01X7.1972Y-3.1472
M16
G05
G00X7.2445Y-3.5882
M15
G01X7.1972Y-3.5882
M16
G05
T6
G00X7.0909Y-3.7083
M15
G01X7.1185Y-3.7083
M16
G05
G00X7.0909Y-4.0902
M15
G01X7.1185Y-4.0902
M16
G05
G00X7.2209Y-3.7083
M15
G01X7.2484Y-3.7083
M16
G05
G00X7.2209Y-4.0902
M15
G01X7.2484Y-4.0902
M16
G05
T0
M30
