%TF.GenerationSoftware,KiCad,Pcbnew,6.0.10-86aedd382b~118~ubuntu22.04.1*%
%TF.CreationDate,2023-01-15T12:46:15+03:00*%
%TF.ProjectId,xray,78726179-2e6b-4696-9361-645f70636258,rev?*%
%TF.SameCoordinates,Original*%
%TF.FileFunction,Paste,Top*%
%TF.FilePolarity,Positive*%
%FSLAX46Y46*%
G04 Gerber Fmt 4.6, Leading zero omitted, Abs format (unit mm)*
G04 Created by KiCad (PCBNEW 6.0.10-86aedd382b~118~ubuntu22.04.1) date 2023-01-15 12:46:15*
%MOMM*%
%LPD*%
G01*
G04 APERTURE LIST*
G04 Aperture macros list*
%AMRoundRect*
0 Rectangle with rounded corners*
0 $1 Rounding radius*
0 $2 $3 $4 $5 $6 $7 $8 $9 X,Y pos of 4 corners*
0 Add a 4 corners polygon primitive as box body*
4,1,4,$2,$3,$4,$5,$6,$7,$8,$9,$2,$3,0*
0 Add four circle primitives for the rounded corners*
1,1,$1+$1,$2,$3*
1,1,$1+$1,$4,$5*
1,1,$1+$1,$6,$7*
1,1,$1+$1,$8,$9*
0 Add four rect primitives between the rounded corners*
20,1,$1+$1,$2,$3,$4,$5,0*
20,1,$1+$1,$4,$5,$6,$7,0*
20,1,$1+$1,$6,$7,$8,$9,0*
20,1,$1+$1,$8,$9,$2,$3,0*%
%AMFreePoly0*
4,1,57,0.261297,0.442772,0.269672,0.444099,0.291600,0.432926,0.315006,0.425321,0.319990,0.418461,0.327546,0.414611,0.414611,0.327546,0.418461,0.319990,0.425321,0.315006,0.432926,0.291600,0.444099,0.269672,0.442772,0.261297,0.445393,0.253232,0.445393,-0.253232,0.442772,-0.261297,0.444099,-0.269672,0.432926,-0.291600,0.425321,-0.315006,0.418461,-0.319990,0.414611,-0.327546,
0.327546,-0.414611,0.319990,-0.418461,0.315006,-0.425321,0.291600,-0.432926,0.269672,-0.444099,0.261297,-0.442772,0.253232,-0.445393,-0.253232,-0.445393,-0.261297,-0.442772,-0.269672,-0.444099,-0.291600,-0.432926,-0.315006,-0.425321,-0.319990,-0.418461,-0.327546,-0.414611,-0.414611,-0.327546,-0.418461,-0.319990,-0.425321,-0.315006,-0.432926,-0.291600,-0.444099,-0.269672,-0.442772,-0.261297,
-0.445393,-0.253232,-0.445393,0.253232,-0.442772,0.261297,-0.444099,0.269672,-0.432926,0.291600,-0.425321,0.315006,-0.418461,0.319990,-0.414611,0.327546,-0.327546,0.414611,-0.319990,0.418461,-0.315006,0.425321,-0.291600,0.432926,-0.269672,0.444099,-0.261297,0.442772,-0.253232,0.445393,0.253232,0.445393,0.261297,0.442772,0.261297,0.442772,$1*%
G04 Aperture macros list end*
%ADD10RoundRect,0.225000X0.250000X-0.225000X0.250000X0.225000X-0.250000X0.225000X-0.250000X-0.225000X0*%
%ADD11RoundRect,0.250000X0.262500X0.450000X-0.262500X0.450000X-0.262500X-0.450000X0.262500X-0.450000X0*%
%ADD12FreePoly0,270.000000*%
%ADD13RoundRect,0.062500X-0.062500X0.350000X-0.062500X-0.350000X0.062500X-0.350000X0.062500X0.350000X0*%
%ADD14RoundRect,0.062500X-0.350000X0.062500X-0.350000X-0.062500X0.350000X-0.062500X0.350000X0.062500X0*%
%ADD15RoundRect,0.250000X1.100000X-0.325000X1.100000X0.325000X-1.100000X0.325000X-1.100000X-0.325000X0*%
%ADD16RoundRect,0.225000X-0.225000X-0.250000X0.225000X-0.250000X0.225000X0.250000X-0.225000X0.250000X0*%
%ADD17RoundRect,0.250000X0.450000X-0.262500X0.450000X0.262500X-0.450000X0.262500X-0.450000X-0.262500X0*%
%ADD18RoundRect,0.150000X-0.587500X-0.150000X0.587500X-0.150000X0.587500X0.150000X-0.587500X0.150000X0*%
%ADD19RoundRect,0.150000X0.150000X-0.825000X0.150000X0.825000X-0.150000X0.825000X-0.150000X-0.825000X0*%
%ADD20RoundRect,0.250000X-1.100000X0.325000X-1.100000X-0.325000X1.100000X-0.325000X1.100000X0.325000X0*%
%ADD21RoundRect,0.250000X-0.325000X-1.100000X0.325000X-1.100000X0.325000X1.100000X-0.325000X1.100000X0*%
%ADD22RoundRect,0.250000X0.325000X1.100000X-0.325000X1.100000X-0.325000X-1.100000X0.325000X-1.100000X0*%
%ADD23RoundRect,0.150000X0.825000X0.150000X-0.825000X0.150000X-0.825000X-0.150000X0.825000X-0.150000X0*%
%ADD24RoundRect,0.250000X-0.312500X-0.625000X0.312500X-0.625000X0.312500X0.625000X-0.312500X0.625000X0*%
%ADD25RoundRect,0.225000X0.225000X0.250000X-0.225000X0.250000X-0.225000X-0.250000X0.225000X-0.250000X0*%
%ADD26R,1.600000X0.550000*%
%ADD27R,0.550000X1.600000*%
%ADD28R,1.050000X0.450000*%
%ADD29RoundRect,0.250000X-0.262500X-0.450000X0.262500X-0.450000X0.262500X0.450000X-0.262500X0.450000X0*%
%ADD30RoundRect,0.250000X0.312500X0.625000X-0.312500X0.625000X-0.312500X-0.625000X0.312500X-0.625000X0*%
%ADD31RoundRect,0.225000X-0.250000X0.225000X-0.250000X-0.225000X0.250000X-0.225000X0.250000X0.225000X0*%
%ADD32RoundRect,0.150000X0.587500X0.150000X-0.587500X0.150000X-0.587500X-0.150000X0.587500X-0.150000X0*%
%ADD33R,2.000000X4.500000*%
%ADD34RoundRect,0.150000X0.150000X-0.587500X0.150000X0.587500X-0.150000X0.587500X-0.150000X-0.587500X0*%
%ADD35RoundRect,0.250000X-0.450000X0.262500X-0.450000X-0.262500X0.450000X-0.262500X0.450000X0.262500X0*%
%ADD36R,2.000000X3.400000*%
%ADD37RoundRect,0.250000X1.075000X-0.375000X1.075000X0.375000X-1.075000X0.375000X-1.075000X-0.375000X0*%
%ADD38RoundRect,0.150000X-0.150000X0.587500X-0.150000X-0.587500X0.150000X-0.587500X0.150000X0.587500X0*%
%ADD39RoundRect,0.150000X-0.825000X-0.150000X0.825000X-0.150000X0.825000X0.150000X-0.825000X0.150000X0*%
%ADD40R,1.160000X0.600000*%
%ADD41R,1.160000X0.300000*%
%ADD42RoundRect,0.952500X-0.952500X1.167500X-0.952500X-1.167500X0.952500X-1.167500X0.952500X1.167500X0*%
G04 APERTURE END LIST*
D10*
%TO.C,C31*%
X129010000Y-130340000D03*
X129010000Y-128790000D03*
%TD*%
D11*
%TO.C,R23*%
X101922500Y-120040000D03*
X100097500Y-120040000D03*
%TD*%
D12*
%TO.C,U2*%
X171272500Y-104052500D03*
X172297500Y-105077500D03*
X171272500Y-103027500D03*
X172297500Y-102002500D03*
X169222500Y-104052500D03*
X169222500Y-105077500D03*
X171272500Y-102002500D03*
X169222500Y-102002500D03*
X171272500Y-105077500D03*
X170247500Y-104052500D03*
X172297500Y-103027500D03*
X169222500Y-103027500D03*
X170247500Y-105077500D03*
X170247500Y-102002500D03*
X170247500Y-103027500D03*
X172297500Y-104052500D03*
D13*
X173010000Y-100602500D03*
X172510000Y-100602500D03*
X172010000Y-100602500D03*
X171510000Y-100602500D03*
X171010000Y-100602500D03*
X170510000Y-100602500D03*
X170010000Y-100602500D03*
X169510000Y-100602500D03*
X169010000Y-100602500D03*
X168510000Y-100602500D03*
D14*
X167822500Y-101290000D03*
X167822500Y-101790000D03*
X167822500Y-102290000D03*
X167822500Y-102790000D03*
X167822500Y-103290000D03*
X167822500Y-103790000D03*
X167822500Y-104290000D03*
X167822500Y-104790000D03*
X167822500Y-105290000D03*
X167822500Y-105790000D03*
D13*
X168510000Y-106477500D03*
X169010000Y-106477500D03*
X169510000Y-106477500D03*
X170010000Y-106477500D03*
X170510000Y-106477500D03*
X171010000Y-106477500D03*
X171510000Y-106477500D03*
X172010000Y-106477500D03*
X172510000Y-106477500D03*
X173010000Y-106477500D03*
D14*
X173697500Y-105790000D03*
X173697500Y-105290000D03*
X173697500Y-104790000D03*
X173697500Y-104290000D03*
X173697500Y-103790000D03*
X173697500Y-103290000D03*
X173697500Y-102790000D03*
X173697500Y-102290000D03*
X173697500Y-101790000D03*
X173697500Y-101290000D03*
%TD*%
D15*
%TO.C,C13*%
X167510000Y-96515000D03*
X167510000Y-93565000D03*
%TD*%
D16*
%TO.C,C23*%
X155235000Y-127040000D03*
X156785000Y-127040000D03*
%TD*%
D17*
%TO.C,R25*%
X103510000Y-111952500D03*
X103510000Y-110127500D03*
%TD*%
%TO.C,R6*%
X165010000Y-85952500D03*
X165010000Y-84127500D03*
%TD*%
D18*
%TO.C,Q13*%
X148322500Y-136590000D03*
X148322500Y-138490000D03*
X150197500Y-137540000D03*
%TD*%
D19*
%TO.C,Q2*%
X178105000Y-112015000D03*
X179375000Y-112015000D03*
X180645000Y-112015000D03*
X181915000Y-112015000D03*
X181915000Y-107065000D03*
X180645000Y-107065000D03*
X179375000Y-107065000D03*
X178105000Y-107065000D03*
%TD*%
D20*
%TO.C,C29*%
X175000000Y-112265000D03*
X175000000Y-115215000D03*
%TD*%
D17*
%TO.C,R1*%
X151400000Y-85112500D03*
X151400000Y-83287500D03*
%TD*%
D20*
%TO.C,C15*%
X166750000Y-110775000D03*
X166750000Y-113725000D03*
%TD*%
D16*
%TO.C,C14*%
X155235000Y-125290000D03*
X156785000Y-125290000D03*
%TD*%
D21*
%TO.C,C19*%
X158785000Y-107790000D03*
X161735000Y-107790000D03*
%TD*%
D10*
%TO.C,C18*%
X166010000Y-106015000D03*
X166010000Y-104465000D03*
%TD*%
D22*
%TO.C,C21*%
X153985000Y-97290000D03*
X151035000Y-97290000D03*
%TD*%
D23*
%TO.C,Q1*%
X170485000Y-129945000D03*
X170485000Y-128675000D03*
X170485000Y-127405000D03*
X170485000Y-126135000D03*
X165535000Y-126135000D03*
X165535000Y-127405000D03*
X165535000Y-128675000D03*
X165535000Y-129945000D03*
%TD*%
D10*
%TO.C,C17*%
X139510000Y-123065000D03*
X139510000Y-121515000D03*
%TD*%
D24*
%TO.C,R29*%
X85447500Y-116640000D03*
X88372500Y-116640000D03*
%TD*%
D11*
%TO.C,R5*%
X182422500Y-116040000D03*
X180597500Y-116040000D03*
%TD*%
D24*
%TO.C,R26*%
X85447500Y-112600000D03*
X88372500Y-112600000D03*
%TD*%
D25*
%TO.C,C28*%
X149285000Y-113540000D03*
X147735000Y-113540000D03*
%TD*%
D26*
%TO.C,U3*%
X143760000Y-120740000D03*
X143760000Y-121540000D03*
X143760000Y-122340000D03*
X143760000Y-123140000D03*
X143760000Y-123940000D03*
X143760000Y-124740000D03*
X143760000Y-125540000D03*
X143760000Y-126340000D03*
D27*
X145210000Y-127790000D03*
X146010000Y-127790000D03*
X146810000Y-127790000D03*
X147610000Y-127790000D03*
X148410000Y-127790000D03*
X149210000Y-127790000D03*
X150010000Y-127790000D03*
X150810000Y-127790000D03*
D26*
X152260000Y-126340000D03*
X152260000Y-125540000D03*
X152260000Y-124740000D03*
X152260000Y-123940000D03*
X152260000Y-123140000D03*
X152260000Y-122340000D03*
X152260000Y-121540000D03*
X152260000Y-120740000D03*
D27*
X150810000Y-119290000D03*
X150010000Y-119290000D03*
X149210000Y-119290000D03*
X148410000Y-119290000D03*
X147610000Y-119290000D03*
X146810000Y-119290000D03*
X146010000Y-119290000D03*
X145210000Y-119290000D03*
%TD*%
D28*
%TO.C,J1*%
X180235000Y-100340000D03*
X180235000Y-99690000D03*
X180235000Y-99040000D03*
X180235000Y-98390000D03*
X180235000Y-97740000D03*
%TD*%
D29*
%TO.C,R20*%
X151847500Y-113540000D03*
X153672500Y-113540000D03*
%TD*%
D11*
%TO.C,R17*%
X97422500Y-112040000D03*
X95597500Y-112040000D03*
%TD*%
D30*
%TO.C,R28*%
X109772500Y-115240000D03*
X106847500Y-115240000D03*
%TD*%
D31*
%TO.C,C27*%
X171910000Y-112700000D03*
X171910000Y-114250000D03*
%TD*%
D17*
%TO.C,R35*%
X146010000Y-138452500D03*
X146010000Y-136627500D03*
%TD*%
D31*
%TO.C,C30*%
X129010000Y-121265000D03*
X129010000Y-122815000D03*
%TD*%
D32*
%TO.C,Q10*%
X97847500Y-130990000D03*
X97847500Y-129090000D03*
X95972500Y-130040000D03*
%TD*%
D33*
%TO.C,Y1*%
X135010000Y-130290000D03*
X135010000Y-121790000D03*
%TD*%
D25*
%TO.C,C34*%
X101785000Y-123040000D03*
X100235000Y-123040000D03*
%TD*%
D17*
%TO.C,R32*%
X101310000Y-130952500D03*
X101310000Y-129127500D03*
%TD*%
D34*
%TO.C,Q7*%
X100060000Y-116477500D03*
X101960000Y-116477500D03*
X101010000Y-114602500D03*
%TD*%
D24*
%TO.C,R33*%
X138210000Y-137290000D03*
X141135000Y-137290000D03*
%TD*%
D35*
%TO.C,R21*%
X96510000Y-121127500D03*
X96510000Y-122952500D03*
%TD*%
D36*
%TO.C,L1*%
X158160000Y-102290000D03*
X163860000Y-102290000D03*
%TD*%
D37*
%TO.C,L2*%
X160510000Y-127940000D03*
X160510000Y-125140000D03*
%TD*%
D38*
%TO.C,Q5*%
X97460000Y-116102500D03*
X95560000Y-116102500D03*
X96510000Y-117977500D03*
%TD*%
D39*
%TO.C,Q4*%
X168535000Y-82135000D03*
X168535000Y-83405000D03*
X168535000Y-84675000D03*
X168535000Y-85945000D03*
X173485000Y-85945000D03*
X173485000Y-84675000D03*
X173485000Y-83405000D03*
X173485000Y-82135000D03*
%TD*%
D29*
%TO.C,R24*%
X148347500Y-134040000D03*
X150172500Y-134040000D03*
%TD*%
D30*
%TO.C,R16*%
X172272500Y-110440000D03*
X169347500Y-110440000D03*
%TD*%
D22*
%TO.C,C20*%
X153985000Y-101290000D03*
X151035000Y-101290000D03*
%TD*%
D40*
%TO.C,J3*%
X178600000Y-88740000D03*
X178600000Y-87940000D03*
D41*
X178600000Y-86790000D03*
X178600000Y-85790000D03*
X178600000Y-85290000D03*
X178600000Y-84290000D03*
D40*
X178600000Y-83140000D03*
X178600000Y-82340000D03*
X178600000Y-82340000D03*
X178600000Y-83140000D03*
D41*
X178600000Y-83790000D03*
X178600000Y-84790000D03*
X178600000Y-86290000D03*
X178600000Y-87290000D03*
D40*
X178600000Y-87940000D03*
X178600000Y-88740000D03*
%TD*%
D31*
%TO.C,C25*%
X169600000Y-112690000D03*
X169600000Y-114240000D03*
%TD*%
D42*
%TO.C,F1*%
X158010000Y-114065000D03*
X158010000Y-120475000D03*
%TD*%
M02*
