%TF.GenerationSoftware,KiCad,Pcbnew,6.0.10-86aedd382b~118~ubuntu22.04.1*%
%TF.CreationDate,2023-01-15T12:46:15+03:00*%
%TF.ProjectId,xray,78726179-2e6b-4696-9361-645f70636258,rev?*%
%TF.SameCoordinates,Original*%
%TF.FileFunction,Soldermask,Bot*%
%TF.FilePolarity,Negative*%
%FSLAX46Y46*%
G04 Gerber Fmt 4.6, Leading zero omitted, Abs format (unit mm)*
G04 Created by KiCad (PCBNEW 6.0.10-86aedd382b~118~ubuntu22.04.1) date 2023-01-15 12:46:15*
%MOMM*%
%LPD*%
G01*
G04 APERTURE LIST*
G04 Aperture macros list*
%AMRoundRect*
0 Rectangle with rounded corners*
0 $1 Rounding radius*
0 $2 $3 $4 $5 $6 $7 $8 $9 X,Y pos of 4 corners*
0 Add a 4 corners polygon primitive as box body*
4,1,4,$2,$3,$4,$5,$6,$7,$8,$9,$2,$3,0*
0 Add four circle primitives for the rounded corners*
1,1,$1+$1,$2,$3*
1,1,$1+$1,$4,$5*
1,1,$1+$1,$6,$7*
1,1,$1+$1,$8,$9*
0 Add four rect primitives between the rounded corners*
20,1,$1+$1,$2,$3,$4,$5,0*
20,1,$1+$1,$4,$5,$6,$7,0*
20,1,$1+$1,$6,$7,$8,$9,0*
20,1,$1+$1,$8,$9,$2,$3,0*%
%AMFreePoly0*
4,1,6,1.000000,0.000000,0.500000,-0.750000,-0.500000,-0.750000,-0.500000,0.750000,0.500000,0.750000,1.000000,0.000000,1.000000,0.000000,$1*%
%AMFreePoly1*
4,1,6,0.500000,-0.750000,-0.650000,-0.750000,-0.150000,0.000000,-0.650000,0.750000,0.500000,0.750000,0.500000,-0.750000,0.500000,-0.750000,$1*%
G04 Aperture macros list end*
%ADD10R,1.600000X1.600000*%
%ADD11C,1.600000*%
%ADD12RoundRect,0.250000X0.262500X0.450000X-0.262500X0.450000X-0.262500X-0.450000X0.262500X-0.450000X0*%
%ADD13R,1.700000X1.700000*%
%ADD14O,1.700000X1.700000*%
%ADD15C,2.200000*%
%ADD16RoundRect,0.250001X-0.899999X0.899999X-0.899999X-0.899999X0.899999X-0.899999X0.899999X0.899999X0*%
%ADD17C,2.300000*%
%ADD18C,3.000000*%
%ADD19C,1.800000*%
%ADD20R,2.000000X2.000000*%
%ADD21C,2.000000*%
%ADD22C,3.200000*%
%ADD23RoundRect,0.250001X0.899999X0.899999X-0.899999X0.899999X-0.899999X-0.899999X0.899999X-0.899999X0*%
%ADD24O,2.300000X1.400000*%
%ADD25RoundRect,0.250001X0.799999X-0.799999X0.799999X0.799999X-0.799999X0.799999X-0.799999X-0.799999X0*%
%ADD26C,2.100000*%
%ADD27C,1.700000*%
%ADD28RoundRect,0.250001X-0.799999X0.799999X-0.799999X-0.799999X0.799999X-0.799999X0.799999X0.799999X0*%
%ADD29R,2.800000X2.800000*%
%ADD30O,2.800000X2.800000*%
%ADD31R,1.524000X1.524000*%
%ADD32C,1.524000*%
%ADD33C,3.500000*%
%ADD34O,2.400000X1.000000*%
%ADD35O,2.000000X1.200000*%
%ADD36RoundRect,0.150000X0.150000X-0.587500X0.150000X0.587500X-0.150000X0.587500X-0.150000X-0.587500X0*%
%ADD37RoundRect,0.250000X0.450000X-0.262500X0.450000X0.262500X-0.450000X0.262500X-0.450000X-0.262500X0*%
%ADD38RoundRect,0.150000X-0.587500X-0.150000X0.587500X-0.150000X0.587500X0.150000X-0.587500X0.150000X0*%
%ADD39RoundRect,0.225000X0.250000X-0.225000X0.250000X0.225000X-0.250000X0.225000X-0.250000X-0.225000X0*%
%ADD40RoundRect,0.250000X0.312500X0.625000X-0.312500X0.625000X-0.312500X-0.625000X0.312500X-0.625000X0*%
%ADD41R,2.500000X1.800000*%
%ADD42RoundRect,0.250000X-0.262500X-0.450000X0.262500X-0.450000X0.262500X0.450000X-0.262500X0.450000X0*%
%ADD43RoundRect,0.225000X-0.250000X0.225000X-0.250000X-0.225000X0.250000X-0.225000X0.250000X0.225000X0*%
%ADD44RoundRect,0.150000X0.587500X0.150000X-0.587500X0.150000X-0.587500X-0.150000X0.587500X-0.150000X0*%
%ADD45RoundRect,0.225000X0.225000X0.250000X-0.225000X0.250000X-0.225000X-0.250000X0.225000X-0.250000X0*%
%ADD46RoundRect,0.100000X0.712500X0.100000X-0.712500X0.100000X-0.712500X-0.100000X0.712500X-0.100000X0*%
%ADD47RoundRect,0.250000X-0.450000X0.262500X-0.450000X-0.262500X0.450000X-0.262500X0.450000X0.262500X0*%
%ADD48R,0.250000X0.750000*%
%ADD49C,1.400000*%
%ADD50O,1.400000X1.400000*%
%ADD51C,13.000000*%
%ADD52C,4.500000*%
%ADD53C,1.500000*%
%ADD54RoundRect,0.250000X0.325000X1.100000X-0.325000X1.100000X-0.325000X-1.100000X0.325000X-1.100000X0*%
%ADD55RoundRect,0.225000X-0.225000X-0.250000X0.225000X-0.250000X0.225000X0.250000X-0.225000X0.250000X0*%
%ADD56FreePoly0,180.000000*%
%ADD57FreePoly1,180.000000*%
%ADD58RoundRect,0.250000X1.100000X-0.325000X1.100000X0.325000X-1.100000X0.325000X-1.100000X-0.325000X0*%
%ADD59RoundRect,0.250000X0.600000X-0.600000X0.600000X0.600000X-0.600000X0.600000X-0.600000X-0.600000X0*%
G04 APERTURE END LIST*
D10*
%TO.C,C2*%
X169510000Y-133834888D03*
D11*
X169510000Y-135834888D03*
%TD*%
D12*
%TO.C,R14*%
X99422500Y-101040000D03*
X97597500Y-101040000D03*
%TD*%
D10*
%TO.C,C26*%
X160000000Y-78000000D03*
D11*
X158000000Y-78000000D03*
%TD*%
D13*
%TO.C,J4*%
X118510000Y-135290000D03*
D14*
X118510000Y-137830000D03*
X115970000Y-135290000D03*
X115970000Y-137830000D03*
X113430000Y-135290000D03*
X113430000Y-137830000D03*
X110890000Y-135290000D03*
X110890000Y-137830000D03*
X108350000Y-135290000D03*
X108350000Y-137830000D03*
%TD*%
D15*
%TO.C,C9*%
X116200000Y-76900000D03*
X116200000Y-91900000D03*
%TD*%
%TO.C,C11*%
X100400000Y-91900000D03*
X100400000Y-76900000D03*
%TD*%
D16*
%TO.C,M1*%
X153510000Y-132640000D03*
D17*
X153510000Y-137440000D03*
%TD*%
D18*
%TO.C,U7*%
X91110000Y-78800000D03*
X58010000Y-136300000D03*
X58010000Y-78800000D03*
X91110000Y-136280000D03*
D19*
X61810000Y-136240000D03*
X64350000Y-136240000D03*
X66890000Y-136240000D03*
X69430000Y-136240000D03*
X71970000Y-136240000D03*
X74510000Y-136240000D03*
X77050000Y-136240000D03*
X79590000Y-136240000D03*
X82130000Y-136240000D03*
X84670000Y-136240000D03*
X87210000Y-136240000D03*
%TD*%
D20*
%TO.C,SW1*%
X113150000Y-105540000D03*
D21*
X113150000Y-110540000D03*
X113150000Y-108040000D03*
D22*
X120650000Y-102440000D03*
X120650000Y-113640000D03*
D21*
X127650000Y-110540000D03*
X127650000Y-105540000D03*
%TD*%
D23*
%TO.C,LS1*%
X135260000Y-136790000D03*
D17*
X130460000Y-136790000D03*
%TD*%
D24*
%TO.C,J1*%
X180460000Y-103890000D03*
X180460000Y-94190000D03*
X183760000Y-103890000D03*
X183760000Y-94190000D03*
%TD*%
D15*
%TO.C,C8*%
X126200000Y-76900000D03*
X126200000Y-91900000D03*
%TD*%
D25*
%TO.C,D4*%
X58510000Y-105840000D03*
D26*
X58510000Y-101240000D03*
%TD*%
D10*
%TO.C,C3*%
X175260000Y-95540000D03*
D11*
X175260000Y-93540000D03*
%TD*%
D10*
%TO.C,C10*%
X163010000Y-93790000D03*
D11*
X159510000Y-93790000D03*
%TD*%
D15*
%TO.C,SW2*%
X95260000Y-134865000D03*
X102260000Y-134865000D03*
D27*
X101010000Y-137365000D03*
X96510000Y-137365000D03*
%TD*%
D10*
%TO.C,C4*%
X171010000Y-79040000D03*
D11*
X171010000Y-77040000D03*
%TD*%
D28*
%TO.C,D6*%
X58510000Y-110240000D03*
D26*
X58510000Y-114840000D03*
%TD*%
D21*
%TO.C,C24*%
X96010000Y-106540000D03*
X101010000Y-106540000D03*
%TD*%
D10*
%TO.C,C40*%
X107715113Y-129840000D03*
D11*
X105215113Y-129840000D03*
%TD*%
D19*
%TO.C,T1*%
X147400000Y-77800000D03*
X147400000Y-90800000D03*
X133400000Y-90800000D03*
X133400000Y-77800000D03*
%TD*%
D22*
%TO.C,H3*%
X113000000Y-120750000D03*
%TD*%
%TO.C,H1*%
X132250000Y-97750000D03*
%TD*%
D29*
%TO.C,D3*%
X108400000Y-82284497D03*
D30*
X108400000Y-87364497D03*
%TD*%
D31*
%TO.C,J2*%
X174282500Y-133040000D03*
D32*
X174282500Y-130540000D03*
X174282500Y-128540000D03*
X174282500Y-126040000D03*
D33*
X176992500Y-122290000D03*
X176992500Y-136790000D03*
%TD*%
D10*
%TO.C,C1*%
X151594888Y-78040000D03*
D11*
X154094888Y-78040000D03*
%TD*%
D34*
%TO.C,J3*%
X183410000Y-91140000D03*
D35*
X179485000Y-91140000D03*
X179485000Y-79940000D03*
D34*
X183410000Y-79940000D03*
%TD*%
D36*
%TO.C,Q6*%
X162210000Y-135227500D03*
X160310000Y-135227500D03*
X161260000Y-133352500D03*
%TD*%
D37*
%TO.C,R27*%
X112000000Y-115912500D03*
X112000000Y-114087500D03*
%TD*%
D38*
%TO.C,Q3*%
X142072500Y-96990000D03*
X142072500Y-95090000D03*
X143947500Y-96040000D03*
%TD*%
D39*
%TO.C,C16*%
X150010000Y-109065000D03*
X150010000Y-107515000D03*
%TD*%
D40*
%TO.C,R11*%
X76972500Y-81540000D03*
X74047500Y-81540000D03*
%TD*%
D38*
%TO.C,Q11*%
X99972500Y-131190000D03*
X99972500Y-129290000D03*
X101847500Y-130240000D03*
%TD*%
D41*
%TO.C,D1*%
X123600000Y-83400000D03*
X127600000Y-83400000D03*
%TD*%
D42*
%TO.C,R15*%
X162385000Y-111940000D03*
X164210000Y-111940000D03*
%TD*%
D12*
%TO.C,R30*%
X97422500Y-131440000D03*
X95597500Y-131440000D03*
%TD*%
D25*
%TO.C,D5*%
X107510000Y-110340000D03*
D26*
X107510000Y-105740000D03*
%TD*%
D42*
%TO.C,R7*%
X152847500Y-83540000D03*
X154672500Y-83540000D03*
%TD*%
D43*
%TO.C,C32*%
X165510000Y-81475000D03*
X165510000Y-83025000D03*
%TD*%
D36*
%TO.C,Q9*%
X97460000Y-128377500D03*
X95560000Y-128377500D03*
X96510000Y-126502500D03*
%TD*%
D40*
%TO.C,R12*%
X71510000Y-81540000D03*
X68585000Y-81540000D03*
%TD*%
D44*
%TO.C,Q12*%
X141697500Y-132840000D03*
X141697500Y-134740000D03*
X139822500Y-133790000D03*
%TD*%
D45*
%TO.C,C7*%
X157035000Y-86290000D03*
X155485000Y-86290000D03*
%TD*%
D46*
%TO.C,U1*%
X158372500Y-88815000D03*
X158372500Y-89465000D03*
X158372500Y-90115000D03*
X158372500Y-90765000D03*
X154147500Y-90765000D03*
X154147500Y-90115000D03*
X154147500Y-89465000D03*
X154147500Y-88815000D03*
%TD*%
D39*
%TO.C,C5*%
X147400000Y-85575000D03*
X147400000Y-84025000D03*
%TD*%
D47*
%TO.C,R3*%
X162600000Y-82087500D03*
X162600000Y-83912500D03*
%TD*%
D39*
%TO.C,C39*%
X156010000Y-135815000D03*
X156010000Y-134265000D03*
%TD*%
D48*
%TO.C,U6*%
X118510000Y-128740000D03*
X119010000Y-128740000D03*
X119510000Y-128740000D03*
X120010000Y-128740000D03*
X120010000Y-131840000D03*
X119510000Y-131840000D03*
X119010000Y-131840000D03*
X118510000Y-131840000D03*
%TD*%
%TO.C,U5*%
X111010000Y-128740000D03*
X111510000Y-128740000D03*
X112010000Y-128740000D03*
X112510000Y-128740000D03*
X112510000Y-131840000D03*
X112010000Y-131840000D03*
X111510000Y-131840000D03*
X111010000Y-131840000D03*
%TD*%
D37*
%TO.C,R34*%
X144260000Y-134702500D03*
X144260000Y-132877500D03*
%TD*%
D49*
%TO.C,R9*%
X147010000Y-105500000D03*
D50*
X147010000Y-110580000D03*
%TD*%
D40*
%TO.C,R13*%
X65972500Y-81540000D03*
X63047500Y-81540000D03*
%TD*%
D51*
%TO.C,V1*%
X70010000Y-95540000D03*
D52*
X70010000Y-113340000D03*
D53*
X63010000Y-88540000D03*
X78010000Y-101540000D03*
%TD*%
D54*
%TO.C,C22*%
X153985000Y-101290000D03*
X151035000Y-101290000D03*
%TD*%
D55*
%TO.C,C38*%
X98035000Y-135640000D03*
X99585000Y-135640000D03*
%TD*%
D39*
%TO.C,C6*%
X143400000Y-85575000D03*
X143400000Y-84025000D03*
%TD*%
D56*
%TO.C,JP1*%
X91725000Y-85000000D03*
D57*
X90275000Y-85000000D03*
%TD*%
D12*
%TO.C,R19*%
X164712500Y-78040000D03*
X162887500Y-78040000D03*
%TD*%
D44*
%TO.C,Q8*%
X109437500Y-114050000D03*
X109437500Y-115950000D03*
X107562500Y-115000000D03*
%TD*%
D37*
%TO.C,R18*%
X161260000Y-131452500D03*
X161260000Y-129627500D03*
%TD*%
D58*
%TO.C,C12*%
X167510000Y-96515000D03*
X167510000Y-93565000D03*
%TD*%
D47*
%TO.C,R2*%
X160200000Y-82087500D03*
X160200000Y-83912500D03*
%TD*%
D43*
%TO.C,C35*%
X117010000Y-104765000D03*
X117010000Y-106315000D03*
%TD*%
D47*
%TO.C,R8*%
X153010000Y-107377500D03*
X153010000Y-109202500D03*
%TD*%
D40*
%TO.C,R10*%
X82472500Y-81540000D03*
X79547500Y-81540000D03*
%TD*%
D12*
%TO.C,R31*%
X101912500Y-125800000D03*
X100087500Y-125800000D03*
%TD*%
D48*
%TO.C,U4*%
X115010000Y-128740000D03*
X115510000Y-128740000D03*
X116010000Y-128740000D03*
X116510000Y-128740000D03*
X116510000Y-131840000D03*
X116010000Y-131840000D03*
X115510000Y-131840000D03*
X115010000Y-131840000D03*
%TD*%
D47*
%TO.C,R4*%
X139010000Y-95127500D03*
X139010000Y-96952500D03*
%TD*%
D41*
%TO.C,D2*%
X115000000Y-83400000D03*
X119000000Y-83400000D03*
%TD*%
D38*
%TO.C,Q14*%
X104772500Y-125990000D03*
X104772500Y-124090000D03*
X106647500Y-125040000D03*
%TD*%
D12*
%TO.C,R22*%
X162172500Y-137540000D03*
X160347500Y-137540000D03*
%TD*%
D59*
%TO.C,BT1*%
X163010000Y-120290000D03*
D27*
X163010000Y-116290000D03*
%TD*%
D43*
%TO.C,C33*%
X176010000Y-111765000D03*
X176010000Y-113315000D03*
%TD*%
D39*
%TO.C,C37*%
X124510000Y-108815000D03*
X124510000Y-107265000D03*
%TD*%
%TO.C,C36*%
X117010000Y-111815000D03*
X117010000Y-110265000D03*
%TD*%
M02*
