%TF.GenerationSoftware,KiCad,Pcbnew,6.0.10-86aedd382b~118~ubuntu22.04.1*%
%TF.CreationDate,2023-01-15T12:46:15+03:00*%
%TF.ProjectId,xray,78726179-2e6b-4696-9361-645f70636258,rev?*%
%TF.SameCoordinates,Original*%
%TF.FileFunction,Copper,L3,Inr*%
%TF.FilePolarity,Positive*%
%FSLAX46Y46*%
G04 Gerber Fmt 4.6, Leading zero omitted, Abs format (unit mm)*
G04 Created by KiCad (PCBNEW 6.0.10-86aedd382b~118~ubuntu22.04.1) date 2023-01-15 12:46:15*
%MOMM*%
%LPD*%
G01*
G04 APERTURE LIST*
G04 Aperture macros list*
%AMRoundRect*
0 Rectangle with rounded corners*
0 $1 Rounding radius*
0 $2 $3 $4 $5 $6 $7 $8 $9 X,Y pos of 4 corners*
0 Add a 4 corners polygon primitive as box body*
4,1,4,$2,$3,$4,$5,$6,$7,$8,$9,$2,$3,0*
0 Add four circle primitives for the rounded corners*
1,1,$1+$1,$2,$3*
1,1,$1+$1,$4,$5*
1,1,$1+$1,$6,$7*
1,1,$1+$1,$8,$9*
0 Add four rect primitives between the rounded corners*
20,1,$1+$1,$2,$3,$4,$5,0*
20,1,$1+$1,$4,$5,$6,$7,0*
20,1,$1+$1,$6,$7,$8,$9,0*
20,1,$1+$1,$8,$9,$2,$3,0*%
G04 Aperture macros list end*
%TA.AperFunction,ComponentPad*%
%ADD10R,1.600000X1.600000*%
%TD*%
%TA.AperFunction,ComponentPad*%
%ADD11C,1.600000*%
%TD*%
%TA.AperFunction,ComponentPad*%
%ADD12C,0.500000*%
%TD*%
%TA.AperFunction,ComponentPad*%
%ADD13R,1.700000X1.700000*%
%TD*%
%TA.AperFunction,ComponentPad*%
%ADD14O,1.700000X1.700000*%
%TD*%
%TA.AperFunction,ComponentPad*%
%ADD15C,2.200000*%
%TD*%
%TA.AperFunction,ComponentPad*%
%ADD16RoundRect,0.250001X-0.899999X0.899999X-0.899999X-0.899999X0.899999X-0.899999X0.899999X0.899999X0*%
%TD*%
%TA.AperFunction,ComponentPad*%
%ADD17C,2.300000*%
%TD*%
%TA.AperFunction,ComponentPad*%
%ADD18C,1.800000*%
%TD*%
%TA.AperFunction,ComponentPad*%
%ADD19R,2.000000X2.000000*%
%TD*%
%TA.AperFunction,ComponentPad*%
%ADD20C,2.000000*%
%TD*%
%TA.AperFunction,ComponentPad*%
%ADD21C,3.200000*%
%TD*%
%TA.AperFunction,ComponentPad*%
%ADD22RoundRect,0.250001X0.899999X0.899999X-0.899999X0.899999X-0.899999X-0.899999X0.899999X-0.899999X0*%
%TD*%
%TA.AperFunction,ComponentPad*%
%ADD23O,2.300000X1.400000*%
%TD*%
%TA.AperFunction,ComponentPad*%
%ADD24RoundRect,0.250001X0.799999X-0.799999X0.799999X0.799999X-0.799999X0.799999X-0.799999X-0.799999X0*%
%TD*%
%TA.AperFunction,ComponentPad*%
%ADD25C,2.100000*%
%TD*%
%TA.AperFunction,ComponentPad*%
%ADD26C,1.700000*%
%TD*%
%TA.AperFunction,ComponentPad*%
%ADD27RoundRect,0.250001X-0.799999X0.799999X-0.799999X-0.799999X0.799999X-0.799999X0.799999X0.799999X0*%
%TD*%
%TA.AperFunction,ComponentPad*%
%ADD28R,2.800000X2.800000*%
%TD*%
%TA.AperFunction,ComponentPad*%
%ADD29O,2.800000X2.800000*%
%TD*%
%TA.AperFunction,ComponentPad*%
%ADD30R,1.524000X1.524000*%
%TD*%
%TA.AperFunction,ComponentPad*%
%ADD31C,1.524000*%
%TD*%
%TA.AperFunction,ComponentPad*%
%ADD32C,3.500000*%
%TD*%
%TA.AperFunction,ComponentPad*%
%ADD33O,2.400000X1.000000*%
%TD*%
%TA.AperFunction,ComponentPad*%
%ADD34O,2.000000X1.200000*%
%TD*%
%TA.AperFunction,ComponentPad*%
%ADD35C,1.400000*%
%TD*%
%TA.AperFunction,ComponentPad*%
%ADD36O,1.400000X1.400000*%
%TD*%
%TA.AperFunction,ComponentPad*%
%ADD37C,1.500000*%
%TD*%
%TA.AperFunction,ComponentPad*%
%ADD38RoundRect,0.250000X0.600000X-0.600000X0.600000X0.600000X-0.600000X0.600000X-0.600000X-0.600000X0*%
%TD*%
%TA.AperFunction,ViaPad*%
%ADD39C,0.600000*%
%TD*%
%TA.AperFunction,ViaPad*%
%ADD40C,1.000000*%
%TD*%
%TA.AperFunction,Conductor*%
%ADD41C,0.300000*%
%TD*%
%TA.AperFunction,Conductor*%
%ADD42C,1.000000*%
%TD*%
%TA.AperFunction,Conductor*%
%ADD43C,0.500000*%
%TD*%
G04 APERTURE END LIST*
D10*
%TO.N,USB_OUT_VBUS*%
%TO.C,C2*%
X169510000Y-133834888D03*
D11*
%TO.N,GND*%
X169510000Y-135834888D03*
%TD*%
D12*
%TO.N,GND*%
%TO.C,U2*%
X168710000Y-102515000D03*
X171785000Y-102515000D03*
X168710000Y-103540000D03*
X168710000Y-101490000D03*
X171785000Y-101490000D03*
X168710000Y-104565000D03*
X170760000Y-103540000D03*
X172810000Y-104565000D03*
X170760000Y-102515000D03*
X170760000Y-104565000D03*
X172810000Y-105590000D03*
X172810000Y-101490000D03*
X171785000Y-104565000D03*
X170760000Y-105590000D03*
X169735000Y-104565000D03*
X169735000Y-105590000D03*
X169735000Y-103540000D03*
X171785000Y-103540000D03*
X172810000Y-102515000D03*
X169735000Y-102515000D03*
X170760000Y-101490000D03*
X169735000Y-101490000D03*
X168710000Y-105590000D03*
X171785000Y-105590000D03*
X172810000Y-103540000D03*
%TD*%
D10*
%TO.N,USB_OUT_VOUT2*%
%TO.C,C26*%
X160000000Y-78000000D03*
D11*
%TO.N,GND*%
X158000000Y-78000000D03*
%TD*%
D13*
%TO.N,Net-(J4-Pad1)*%
%TO.C,J4*%
X118510000Y-135290000D03*
D14*
%TO.N,+5V*%
X118510000Y-137830000D03*
%TO.N,unconnected-(J4-Pad3)*%
X115970000Y-135290000D03*
%TO.N,Net-(J4-Pad4)*%
X115970000Y-137830000D03*
%TO.N,Net-(J4-Pad5)*%
X113430000Y-135290000D03*
%TO.N,Net-(J4-Pad6)*%
X113430000Y-137830000D03*
%TO.N,Net-(J4-Pad7)*%
X110890000Y-135290000D03*
%TO.N,GND*%
X110890000Y-137830000D03*
%TO.N,Net-(J4-Pad9)*%
X108350000Y-135290000D03*
%TO.N,GND*%
X108350000Y-137830000D03*
%TD*%
D15*
%TO.N,Net-(C9-Pad1)*%
%TO.C,C9*%
X116200000Y-76900000D03*
%TO.N,GND*%
X116200000Y-91900000D03*
%TD*%
%TO.N,GND*%
%TO.C,C11*%
X100400000Y-91900000D03*
%TO.N,Net-(C11-Pad2)*%
X100400000Y-76900000D03*
%TD*%
D16*
%TO.N,VCC*%
%TO.C,M1*%
X153510000Y-132640000D03*
D17*
%TO.N,Net-(C39-Pad1)*%
X153510000Y-137440000D03*
%TD*%
D18*
%TO.N,GND*%
%TO.C,U7*%
X61810000Y-136240000D03*
%TO.N,Net-(Q10-Pad3)*%
X64350000Y-136240000D03*
%TO.N,TFT_DC*%
X66890000Y-136240000D03*
%TO.N,MOSI*%
X69430000Y-136240000D03*
%TO.N,SCK*%
X71970000Y-136240000D03*
%TO.N,unconnected-(U7-Pad6)*%
X74510000Y-136240000D03*
%TO.N,unconnected-(U7-Pad7)*%
X77050000Y-136240000D03*
%TO.N,unconnected-(U7-Pad8)*%
X79590000Y-136240000D03*
%TO.N,GND*%
X82130000Y-136240000D03*
X84670000Y-136240000D03*
%TO.N,Net-(Q10-Pad3)*%
X87210000Y-136240000D03*
%TD*%
D19*
%TO.N,ENCODER_A*%
%TO.C,SW1*%
X113150000Y-105540000D03*
D20*
%TO.N,ENCODER_B*%
X113150000Y-110540000D03*
%TO.N,GND*%
X113150000Y-108040000D03*
D21*
%TO.N,N/C*%
X120650000Y-102440000D03*
X120650000Y-113640000D03*
D20*
%TO.N,ENCODER_CLICK*%
X127650000Y-110540000D03*
%TO.N,GND*%
X127650000Y-105540000D03*
%TD*%
D22*
%TO.N,Net-(LS1-Pad1)*%
%TO.C,LS1*%
X135260000Y-136790000D03*
D17*
%TO.N,Net-(LS1-Pad2)*%
X130460000Y-136790000D03*
%TD*%
D23*
%TO.N,unconnected-(J1-Pad6)*%
%TO.C,J1*%
X180460000Y-103890000D03*
X180460000Y-94190000D03*
X183760000Y-103890000D03*
X183760000Y-94190000D03*
%TD*%
D15*
%TO.N,Net-(C8-Pad1)*%
%TO.C,C8*%
X126200000Y-76900000D03*
%TO.N,Net-(C8-Pad2)*%
X126200000Y-91900000D03*
%TD*%
D24*
%TO.N,Net-(D4-Pad1)*%
%TO.C,D4*%
X58510000Y-105840000D03*
D25*
%TO.N,Net-(D4-Pad2)*%
X58510000Y-101240000D03*
%TD*%
D10*
%TO.N,USB_M_IN_VBUS*%
%TO.C,C3*%
X175260000Y-95540000D03*
D11*
%TO.N,GND*%
X175260000Y-93540000D03*
%TD*%
D10*
%TO.N,USB_VSYS*%
%TO.C,C10*%
X163010000Y-93790000D03*
D11*
%TO.N,GND*%
X159510000Y-93790000D03*
%TD*%
D15*
%TO.N,*%
%TO.C,SW2*%
X95260000Y-134865000D03*
X102260000Y-134865000D03*
D26*
%TO.N,WAKEUP_BUTTON*%
X101010000Y-137365000D03*
%TO.N,GND*%
X96510000Y-137365000D03*
%TD*%
D10*
%TO.N,USB_IN_VBUS*%
%TO.C,C4*%
X171010000Y-79040000D03*
D11*
%TO.N,GND*%
X171010000Y-77040000D03*
%TD*%
D27*
%TO.N,Net-(D4-Pad1)*%
%TO.C,D6*%
X58510000Y-110240000D03*
D25*
%TO.N,Net-(D6-Pad2)*%
X58510000Y-114840000D03*
%TD*%
D20*
%TO.N,Net-(C24-Pad1)*%
%TO.C,C24*%
X96010000Y-106540000D03*
%TO.N,Net-(C24-Pad2)*%
X101010000Y-106540000D03*
%TD*%
D10*
%TO.N,Net-(C40-Pad1)*%
%TO.C,C40*%
X107715113Y-129840000D03*
D11*
%TO.N,GND*%
X105215113Y-129840000D03*
%TD*%
D18*
%TO.N,Net-(C1-Pad1)*%
%TO.C,T1*%
X147400000Y-77800000D03*
%TO.N,Net-(C5-Pad1)*%
X147400000Y-90800000D03*
%TO.N,GND*%
X133400000Y-90800000D03*
%TO.N,Net-(C8-Pad1)*%
X133400000Y-77800000D03*
%TD*%
D28*
%TO.N,Net-(C11-Pad2)*%
%TO.C,D3*%
X108400000Y-82284497D03*
D29*
%TO.N,Net-(C8-Pad2)*%
X108400000Y-87364497D03*
%TD*%
D30*
%TO.N,USB_OUT_VBUS*%
%TO.C,J2*%
X174282500Y-133040000D03*
D31*
%TO.N,USB_OUT_D-*%
X174282500Y-130540000D03*
%TO.N,USB_OUT_D+*%
X174282500Y-128540000D03*
%TO.N,GND*%
X174282500Y-126040000D03*
D32*
%TO.N,unconnected-(J2-Pad5)*%
X176992500Y-122290000D03*
X176992500Y-136790000D03*
%TD*%
D10*
%TO.N,Net-(C1-Pad1)*%
%TO.C,C1*%
X151594888Y-78040000D03*
D11*
%TO.N,GND*%
X154094888Y-78040000D03*
%TD*%
D33*
%TO.N,unconnected-(J3-PadS1)*%
%TO.C,J3*%
X183410000Y-91140000D03*
D34*
X179485000Y-91140000D03*
X179485000Y-79940000D03*
D33*
X183410000Y-79940000D03*
%TD*%
D24*
%TO.N,Net-(D4-Pad1)*%
%TO.C,D5*%
X107510000Y-110340000D03*
D25*
%TO.N,Net-(D5-Pad2)*%
X107510000Y-105740000D03*
%TD*%
D35*
%TO.N,Net-(C16-Pad2)*%
%TO.C,R9*%
X147010000Y-105500000D03*
D36*
%TO.N,GND*%
X147010000Y-110580000D03*
%TD*%
D37*
%TO.N,Net-(R13-Pad2)*%
%TO.C,V1*%
X63010000Y-88540000D03*
%TO.N,Net-(C24-Pad1)*%
X78010000Y-101540000D03*
%TD*%
D38*
%TO.N,Net-(BT1-Pad1)*%
%TO.C,BT1*%
X163010000Y-120290000D03*
D26*
%TO.N,GND*%
X163010000Y-116290000D03*
%TD*%
D39*
%TO.N,USB_INT*%
X148400000Y-132600000D03*
%TO.N,GND*%
X151000000Y-132800000D03*
X147147500Y-138452500D03*
D40*
%TO.N,VCC*%
X143200000Y-136200000D03*
%TO.N,+5V*%
X120000000Y-125000000D03*
D39*
%TO.N,VCC*%
X94200000Y-125400000D03*
D40*
%TO.N,GND*%
X101922500Y-121677500D03*
D39*
%TO.N,RADIATION_VALUE*%
X102200000Y-113200000D03*
%TO.N,USB_KEY*%
X163800000Y-127400000D03*
%TO.N,USB_FORCE_ON*%
X162200000Y-136400000D03*
%TO.N,USB_OUT_VBUS_G*%
X170510000Y-124200000D03*
%TO.N,USB_OUT_VBUS*%
X172200000Y-131400000D03*
%TO.N,Net-(R15-Pad2)*%
X164200000Y-110400000D03*
%TO.N,USB_M_IN_VBUS_G*%
X182400000Y-113600000D03*
D40*
%TO.N,GND*%
X165959500Y-91665000D03*
D39*
%TO.N,USB_IN_VBUS_G*%
X166655000Y-85945000D03*
D40*
%TO.N,VREG*%
X164200000Y-81400000D03*
%TO.N,VCC*%
X151400000Y-90600000D03*
D39*
X175110000Y-107840000D03*
X111010000Y-129790000D03*
D40*
X155960000Y-102290000D03*
D39*
X115010000Y-129790000D03*
X118510000Y-129790000D03*
%TO.N,GND*%
X129010000Y-125990000D03*
D40*
X124010000Y-136540000D03*
X126010000Y-138540000D03*
X99972500Y-128002500D03*
D39*
X156785000Y-126265000D03*
X139510000Y-121515000D03*
D40*
X124010000Y-138540000D03*
X126010000Y-136540000D03*
D39*
%TO.N,USB_OUT_VBUS*%
X176510000Y-101839500D03*
%TO.N,USB_IN_VBUS*%
X175414671Y-105741000D03*
X175760000Y-88790000D03*
D40*
X130750000Y-113000000D03*
%TO.N,USB_VSYS*%
X166000000Y-109000000D03*
X167410000Y-108940000D03*
D39*
%TO.N,USB_OUT_VOUT2*%
X175260000Y-104040000D03*
%TO.N,RESET*%
X147610000Y-116440000D03*
X109635000Y-126165000D03*
%TO.N,SPEAKER*%
X149260000Y-130790000D03*
D40*
%TO.N,USB_VMID*%
X166010000Y-124540000D03*
X173810000Y-111140000D03*
X173810000Y-109340000D03*
X170410000Y-83440000D03*
%TO.N,VREG*%
X172412135Y-108373421D03*
D39*
%TO.N,USB_OUT_D-*%
X176141313Y-101130083D03*
%TO.N,USB_OUT_D+*%
X176250000Y-100250000D03*
%TO.N,USB_IN_CC1*%
X173561082Y-98836907D03*
X176245284Y-87704716D03*
%TO.N,+5V*%
X118510000Y-133040000D03*
X114760000Y-133040000D03*
X111010000Y-133040000D03*
%TO.N,USB_IN_D+*%
X176409500Y-86290000D03*
X170955817Y-95148045D03*
X175760000Y-84790000D03*
%TO.N,USB_IN_D-*%
X172010000Y-95390500D03*
X175110000Y-87104693D03*
%TO.N,USB_IN_CC2*%
X175260000Y-84040000D03*
X172934647Y-98215353D03*
%TO.N,UV_PWM*%
X142072500Y-106927500D03*
%TO.N,RADIATION_VALUE*%
X144310000Y-114640000D03*
%TO.N,FLASHLIGHT*%
X140685000Y-127739500D03*
%TO.N,USB_INT*%
X165790000Y-102290000D03*
%TO.N,ENCODER_A*%
X139110000Y-113640000D03*
%TO.N,ENCODER_B*%
X148310000Y-121590500D03*
%TO.N,ENCODER_CLICK*%
X146310000Y-124689500D03*
%TO.N,USB_KEY*%
X171260000Y-108290000D03*
%TO.N,USB_M_IN_D-*%
X170159500Y-97004998D03*
X176260000Y-98339503D03*
%TO.N,USB_M_IN_D+*%
X170010000Y-96040000D03*
X176260000Y-97540000D03*
%TO.N,USB_OUT_VBUS_G*%
X176338863Y-102620471D03*
%TO.N,USB_I2C_SCL*%
X165860500Y-99790000D03*
%TO.N,RXD*%
X116385000Y-125915000D03*
X146760000Y-117540000D03*
%TO.N,TXD*%
X120010500Y-126440000D03*
X146010000Y-120790000D03*
%TO.N,MOSI*%
X117310000Y-126640000D03*
X150010000Y-129790000D03*
%TO.N,MISO*%
X119010000Y-127040000D03*
X150760000Y-126290000D03*
%TO.N,SCK*%
X153010000Y-128040000D03*
X112010000Y-127540000D03*
%TO.N,USB_M_IN_VBUS_G*%
X174880000Y-106390500D03*
%TO.N,USB_IN_VBUS_G*%
X176260000Y-104664774D03*
%TO.N,USB_FORCE_ON*%
X154260000Y-119290000D03*
%TO.N,USB_I2C_SDA*%
X165760000Y-101040000D03*
%TO.N,WAKEUP_BUTTON*%
X146759500Y-135240000D03*
%TO.N,TFT_DC*%
X150010000Y-120790000D03*
%TO.N,MCU_I2C_SDA*%
X150500000Y-117500000D03*
X153375000Y-92375000D03*
%TO.N,TFT_ENABLE#*%
X154110000Y-122040000D03*
X103310000Y-129240000D03*
%TO.N,MCU_I2C_SCL*%
X150250000Y-93250000D03*
X150250000Y-115500000D03*
%TO.N,Net-(C16-Pad2)*%
X167710000Y-98790000D03*
%TD*%
D41*
%TO.N,USB_INT*%
X165790000Y-102290000D02*
X165790000Y-107460000D01*
X165790000Y-107460000D02*
X161000000Y-112250000D01*
X161000000Y-112250000D02*
X161000000Y-126250000D01*
X161000000Y-126250000D02*
X157250000Y-130000000D01*
X157250000Y-130000000D02*
X151000000Y-130000000D01*
X151000000Y-130000000D02*
X148400000Y-132600000D01*
D42*
%TO.N,VCC*%
X143200000Y-136200000D02*
X146305286Y-136200000D01*
X146305286Y-136200000D02*
X146345286Y-136240000D01*
X146345286Y-136240000D02*
X149910000Y-136240000D01*
X149910000Y-136240000D02*
X153510000Y-132640000D01*
%TO.N,+5V*%
X120000000Y-125000000D02*
X121010000Y-126010000D01*
X121010000Y-126010000D02*
X121010000Y-133040000D01*
D41*
%TO.N,USB_KEY*%
X171260000Y-108290000D02*
X171260000Y-117040000D01*
X171260000Y-117040000D02*
X163800000Y-124500000D01*
X163800000Y-124500000D02*
X163800000Y-127400000D01*
%TO.N,USB_OUT_VBUS_G*%
X176338863Y-102620471D02*
X177000000Y-103281608D01*
X177000000Y-103281608D02*
X177000000Y-114100000D01*
X177000000Y-114100000D02*
X170510000Y-120590000D01*
X170510000Y-120590000D02*
X170510000Y-124200000D01*
%TO.N,USB_OUT_VBUS*%
X172200000Y-131400000D02*
X171300000Y-130500000D01*
X171300000Y-130500000D02*
X171300000Y-121300000D01*
X171300000Y-121300000D02*
X177600000Y-115000000D01*
X177600000Y-115000000D02*
X177600000Y-102929500D01*
X177600000Y-102929500D02*
X176510000Y-101839500D01*
%TO.N,USB_OUT_VOUT2*%
X175260000Y-104040000D02*
X175260000Y-103260000D01*
X175260000Y-103260000D02*
X174750000Y-102750000D01*
X174750000Y-102750000D02*
X174750000Y-101750000D01*
X174750000Y-101750000D02*
X171500000Y-98500000D01*
X171500000Y-98500000D02*
X170250000Y-98500000D01*
X170250000Y-98500000D02*
X168750000Y-97000000D01*
X168750000Y-97000000D02*
X168750000Y-90150000D01*
X168750000Y-90150000D02*
X160000000Y-81400000D01*
X160000000Y-81400000D02*
X160000000Y-78000000D01*
%TO.N,USB_IN_VBUS_G*%
X176260000Y-104664774D02*
X176260000Y-103510000D01*
X175250000Y-102500000D02*
X175250000Y-101500000D01*
X176260000Y-103510000D02*
X175250000Y-102500000D01*
X170686578Y-95798045D02*
X170000000Y-95111467D01*
X170000000Y-89400000D02*
X166600000Y-86000000D01*
X175250000Y-101500000D02*
X171200000Y-97450000D01*
X171200000Y-97450000D02*
X171200000Y-96300000D01*
X171200000Y-96300000D02*
X170698045Y-95798045D01*
X170698045Y-95798045D02*
X170686578Y-95798045D01*
X170000000Y-95111467D02*
X170000000Y-89400000D01*
%TO.N,USB_OUT_D-*%
X176141313Y-101130083D02*
X176181344Y-101130083D01*
X176240761Y-101189500D02*
X176939500Y-101189500D01*
X172250000Y-121764214D02*
X172250000Y-128507500D01*
X178250000Y-115764214D02*
X172250000Y-121764214D01*
X172250000Y-128507500D02*
X174282500Y-130540000D01*
X178250000Y-102500000D02*
X178250000Y-115764214D01*
X176181344Y-101130083D02*
X176240761Y-101189500D01*
X176939500Y-101189500D02*
X178250000Y-102500000D01*
%TO.N,USB_OUT_D+*%
X173170500Y-127428000D02*
X174282500Y-128540000D01*
X173170500Y-122329500D02*
X173170500Y-127428000D01*
X177250000Y-100250000D02*
X178750000Y-101750000D01*
X176250000Y-100250000D02*
X177250000Y-100250000D01*
X178750000Y-101750000D02*
X178750000Y-116750000D01*
X178750000Y-116750000D02*
X173170500Y-122329500D01*
%TO.N,USB_IN_CC1*%
X173710000Y-89440000D02*
X175445284Y-87704716D01*
X173710000Y-98687989D02*
X173710000Y-89440000D01*
X175445284Y-87704716D02*
X176245284Y-87704716D01*
X173561082Y-98836907D02*
X173710000Y-98687989D01*
D42*
%TO.N,+5V*%
X120220000Y-137830000D02*
X118510000Y-137830000D01*
X121010000Y-137040000D02*
X120220000Y-137830000D01*
D41*
X118510000Y-133040000D02*
X121010000Y-133040000D01*
X111010000Y-133040000D02*
X118510000Y-133040000D01*
D42*
X121010000Y-133040000D02*
X121010000Y-137040000D01*
D41*
%TO.N,USB_IN_CC2*%
X172934647Y-98215353D02*
X172910000Y-98190706D01*
X172910000Y-98190706D02*
X172910000Y-86390000D01*
X172910000Y-86390000D02*
X175260000Y-84040000D01*
D43*
%TO.N,ENCODER_A*%
X139110000Y-113640000D02*
X133110000Y-107640000D01*
X133110000Y-107640000D02*
X115110000Y-107640000D01*
X114310000Y-106840000D02*
X114310000Y-106700000D01*
X114310000Y-106700000D02*
X113150000Y-105540000D01*
X115110000Y-107640000D02*
X114310000Y-106840000D01*
%TO.N,ENCODER_B*%
X113210000Y-110540000D02*
X115110000Y-108640000D01*
X115110000Y-108640000D02*
X132110000Y-108640000D01*
X132110000Y-108640000D02*
X145060500Y-121590500D01*
X145060500Y-121590500D02*
X148310000Y-121590500D01*
%TO.N,ENCODER_CLICK*%
X146310000Y-124640000D02*
X132210000Y-110540000D01*
X146310000Y-124689500D02*
X146310000Y-124640000D01*
X132210000Y-110540000D02*
X127650000Y-110540000D01*
%TO.N,TFT_ENABLE#*%
X107135000Y-125415000D02*
X103310000Y-129240000D01*
X154110000Y-123440000D02*
X152110000Y-125440000D01*
X116074339Y-125165000D02*
X115824339Y-125415000D01*
X139410000Y-125440000D02*
X136260000Y-122290000D01*
X118960000Y-122290000D02*
X116085000Y-125165000D01*
X152110000Y-125440000D02*
X139410000Y-125440000D01*
X136260000Y-122290000D02*
X118960000Y-122290000D01*
X154110000Y-122040000D02*
X154110000Y-123440000D01*
X115824339Y-125415000D02*
X107135000Y-125415000D01*
X116085000Y-125165000D02*
X116074339Y-125165000D01*
%TO.N,Net-(C16-Pad2)*%
X153720000Y-98790000D02*
X147010000Y-105500000D01*
X167710000Y-98790000D02*
X153720000Y-98790000D01*
%TD*%
M02*
